<svg xmlns="http://www.w3.org/2000/svg" xmlns:xlink="http://www.w3.org/1999/xlink" width="83" height="70" viewBox="0 0 83 70">
  <g id="Group_353" data-name="Group 353" transform="translate(-16 -21)">
    <g id="Mask_Group_40" data-name="Mask Group 40" transform="translate(-2744.024 676.408)" clip-path="url(#clip-path)">
      <g id="weather-cloud-" transform="translate(2760 -654.922)">
        <path id="Path_308" data-name="Path 308" d="M44.969,104.9a26.5,26.5,0,0,1-18.575-7.662A13.22,13.22,0,0,1,7.936,85.1a12.993,12.993,0,0,1,.221-2.359,20.094,20.094,0,0,1,9.353-36.091,16.8,16.8,0,0,1,30.375-2.116A20.229,20.229,0,0,1,74.7,63.654c0,.468-.021.944-.062,1.448a13.215,13.215,0,0,1-6.18,25.453A26.525,26.525,0,0,1,44.969,104.9ZM27.06,93.326l.841.909a23.018,23.018,0,0,0,17.068,7.495A23.337,23.337,0,0,0,66.106,88.15l.52-1.138,1.226.241a10.216,10.216,0,0,0,1.972.2A10.043,10.043,0,0,0,72.5,67.727l-1.339-.368.189-1.375A16.934,16.934,0,0,0,54.476,46.6a16.955,16.955,0,0,0-6.743,1.39l8.237-3.456L68.463,51.1l5.049,14,7.564,9.18L79.874,85.1,68.463,88.15l5.049-6.793L63.426,95.147,49.486,103.1l-15-1.369L12.637,94.235,3.173,71.527V65.983l-.748-8.631L18.8,47.99l5.961-7.567L34.484,37.9l7.564,2.521,3.607,6.752A13.623,13.623,0,0,0,20.189,48.6l-.32,1.025L18.8,49.7c-2.26.174,17.643,22.142,15.686,23.138-5.495,2.8-31.311-12.788-31.311-6.268a16.907,16.907,0,0,0,7.639,14.152l.958.631-.3,1.107a10.043,10.043,0,0,0,14.5,11.455Z" transform="translate(0 -35.875)" fill="#2fb898"/>
      </g>
    </g>
    <g id="back-arrow" transform="translate(39.993 38)">
      <g id="Group_352" data-name="Group 352" transform="translate(0.007 0)">
        <path id="Path_307" data-name="Path 307" d="M14.149,7.749V1.285a1.286,1.286,0,0,0-2.241-.86L.336,13.283A1.286,1.286,0,0,0,.3,14.954L11.868,29.1a1.286,1.286,0,0,0,2.281-.811V21.879c10.158.33,16.5,4.672,19.353,13.243A1.286,1.286,0,0,0,34.721,36a1.246,1.246,0,0,0,.207-.017,1.286,1.286,0,0,0,1.079-1.269C36.007,19.574,26.892,8.451,14.149,7.749Z" transform="translate(-0.007 0)" fill="#ffd11b"/>
      </g>
    </g>
  </g>
</svg>
