<svg id="Group_356" data-name="Group 356" xmlns="http://www.w3.org/2000/svg" xmlns:xlink="http://www.w3.org/1999/xlink" width="83" height="70" viewBox="0 0 83 70">
    <g id="weather-cloud-" transform="translate(-0.024 0.486)">
        <path id="Path_308" data-name="Path 308" d="M38.079,104.9a26.5,26.5,0,0,0,18.575-7.662A13.22,13.22,0,0,0,75.112,85.1a12.993,12.993,0,0,0-.221-2.359,20.094,20.094,0,0,0-9.353-36.091,16.8,16.8,0,0,0-30.375-2.116A20.229,20.229,0,0,0,8.344,63.654c0,.468.021.944.062,1.448a13.215,13.215,0,0,0,6.18,25.453A26.525,26.525,0,0,0,38.079,104.9ZM55.988,93.326l-.841.909a23.018,23.018,0,0,1-17.068,7.495A23.337,23.337,0,0,1,16.943,88.15l-.52-1.138-1.226.241a10.216,10.216,0,0,1-1.972.2,10.043,10.043,0,0,1-2.678-19.724l1.339-.368L11.7,65.983A16.934,16.934,0,0,1,28.572,46.6a16.955,16.955,0,0,1,6.743,1.39l-8.237-3.456L14.585,51.1l-5.049,14-7.564,9.18L3.175,85.1l11.411,3.05L9.536,81.357l10.086,13.79,13.94,7.952,15-1.369,21.847-7.495,9.464-22.708V65.983l.748-8.631L64.251,47.99,58.29,40.423,48.565,37.9,41,40.423l-3.607,6.752A13.623,13.623,0,0,1,62.86,48.6l.32,1.025,1.071.083c2.26.174-17.643,22.142-15.686,23.138,5.495,2.8,31.311-12.788,31.311-6.268a16.907,16.907,0,0,1-7.639,14.152l-.958.631.3,1.107a10.043,10.043,0,0,1-14.5,11.455Z" transform="translate(0 -35.875)" fill="#2fb898"/>
        </g>
    </g>
    <g id="Mask_Group_2" data-name="Mask Group 2" transform="translate(29 15)" clip-path="url(#clip-path-2)">
        <g id="Group_23" data-name="Group 23" transform="translate(-0.089 -0.317)">
        <g id="lightbulb" transform="translate(-0.021 0)">
            <path id="Path_9" data-name="Path 9" d="M128.464,132.537c2.373,2.391,2.076,7.217,2.076,7.217h12.032s-.254-4.826,2.076-7.217a12.517,12.517,0,0,0,4.237-9.352,12.287,12.287,0,1,0-24.573,0A12.594,12.594,0,0,0,128.464,132.537Z" transform="translate(-123.507 -109.989)" fill="#ffd517"/>
            <g id="Group_21" data-name="Group 21" transform="translate(6.694 32.413)">
            <path id="Path_10" data-name="Path 10" d="M180.312,407.953a1.153,1.153,0,0,0,.334.817,1.134,1.134,0,0,0,.81.336h10.465a1.134,1.134,0,0,0,.81-.336,1.153,1.153,0,0,0,.334-.817h0a1.153,1.153,0,0,0-.334-.817,1.135,1.135,0,0,0-.81-.336H181.5A1.18,1.18,0,0,0,180.312,407.953Z" transform="translate(-180.312 -406.8)" fill="#e5e5e5"/>
            <path id="Path_11" data-name="Path 11" d="M195.112,452.753a1.153,1.153,0,0,0,.334.817,1.135,1.135,0,0,0,.81.336h7.33a1.135,1.135,0,0,0,.81-.336,1.153,1.153,0,0,0,.334-.817h0a1.153,1.153,0,0,0-.334-.817,1.135,1.135,0,0,0-.81-.336h-7.33a1.134,1.134,0,0,0-.81.336A1.153,1.153,0,0,0,195.112,452.753Z" transform="translate(-193.544 -446.817)" fill="#e5e5e5"/>
            </g>
            <g id="Group_22" data-name="Group 22">
            <path id="Path_12" data-name="Path 12" d="M121.033,126.175a13.084,13.084,0,1,1,17.413.128c-2.076,2.093-1.864,6.534-1.864,6.577a1.025,1.025,0,0,1-.212.6.834.834,0,0,1-.593.256h-11.99a.833.833,0,0,1-.593-.256.8.8,0,0,1-.212-.6c0-.043.212-4.484-1.864-6.577C121.076,126.261,121.033,126.218,121.033,126.175Zm1.186-1.068a.426.426,0,0,1,.169.214c1.864,2.007,2.161,5.3,2.2,6.833h10.38c.042-1.58.381-5,2.373-7a11.633,11.633,0,0,0,2.642-14.043,11.5,11.5,0,1,0-17.768,14Z" transform="translate(-116.712 -103.2)" fill="#210b20"/>
            <path id="Path_13" data-name="Path 13" d="M242.923,135.2a.811.811,0,0,1,0,1.623,8.641,8.641,0,0,0-8.6,8.669.805.805,0,1,1-1.61,0A10.257,10.257,0,0,1,242.923,135.2Z" transform="translate(-229.831 -131.784)" fill="#210b20"/>
            <path id="Path_14" data-name="Path 14" d="M172.712,401.164a1.967,1.967,0,0,1,.569-1.391,1.936,1.936,0,0,1,1.38-.574h10.465a1.964,1.964,0,0,1,0,3.929H174.7a1.945,1.945,0,0,1-1.4-.561A1.977,1.977,0,0,1,172.712,401.164Zm1.991.342h10.422a.342.342,0,0,0,0-.683H174.7a.333.333,0,0,0-.241.1.338.338,0,0,0-.1.243c-.042.214.127.342.339.342Z" transform="translate(-166.823 -367.598)" fill="#210b20"/>
            <path id="Path_15" data-name="Path 15" d="M189.461,444h7.33a1.964,1.964,0,0,1,0,3.929h-7.33a1.935,1.935,0,0,1-1.38-.574,1.97,1.97,0,0,1,1.38-3.355Zm0,2.306h7.33a.342.342,0,0,0,0-.683h-7.33a.333.333,0,0,0-.241.1.338.338,0,0,0-.1.243.316.316,0,0,0,.09.251A.311.311,0,0,0,189.461,446.306Z" transform="translate(-180.055 -407.616)" fill="#210b20"/>
            </g>
        </g>
    </g>
</svg>
