<svg xmlns="http://www.w3.org/2000/svg" xmlns:xlink="http://www.w3.org/1999/xlink" width="50" height="50" viewBox="0 0 50 50">
    <path id="Path_24" data-name="Path 24" d="M349.756,11.134c-1.881-1.881-1.3-2.46-3.184-4.341s-2.46-1.3-4.341-3.184c-1.45-1.45-1.44-2.126-2.219-3.222a.84.84,0,0,0-1.339-.1c-3.591,4.651-2.217,12.37-2.217,12.37l.113,2.2L338.5,16.8l2.2.113s7.719,1.374,12.37-2.217a.84.84,0,0,0-.1-1.339c-1.1-.78-1.772-.77-3.222-2.22Zm0,0" transform="translate(-303.365 0)" fill="#cc98e8"/>
    <path id="Path_25" data-name="Path 25" d="M356.269,126.217c-.713-.508-1.248-.681-1.934-1.139-4.667,3.492-12.58,2.453-12.58,2.453l-1.91-.1.015.293,1.934,1.934,2.2.114s7.719,1.373,12.37-2.217a.839.839,0,0,0-.1-1.339Zm0,0" transform="translate(-306.656 -112.863)" fill="#bf80e2"/>
    <path id="Path_26" data-name="Path 26" d="M11.134,349.756c-1.881-1.881-2.46-1.3-4.341-3.184s-1.3-2.46-3.184-4.341c-1.45-1.45-2.126-1.44-3.222-2.219a.84.84,0,0,1-.1-1.339c4.651-3.591,12.37-2.217,12.37-2.217l2.2.113L16.8,338.5l.113,2.2s1.374,7.719-2.217,12.37a.84.84,0,0,1-1.339-.1c-.78-1.1-.77-1.772-2.22-3.222Zm0,0" transform="translate(0 -303.365)" fill="#cc98e8"/>
    <g id="Group_8" data-name="Group 8" transform="translate(8.486 8.293)">
    <path id="Path_27" data-name="Path 27" d="M127.578,356.37c3.591-4.651,2.217-12.37,2.217-12.37l-.113-2.2-1.934-1.934-.293-.015.1,1.91s1.062,7.921-2.451,12.584c.457.685.63,1.22,1.137,1.931a.84.84,0,0,0,1.339.1Zm0,0" transform="translate(-121.37 -314.952)" fill="#bf80e2"/>
    <path id="Path_28" data-name="Path 28" d="M346.623,91.72a.755.755,0,0,1-.729-.953,16.449,16.449,0,0,1,2.427-5.541.755.755,0,1,1,1.213.9,14.9,14.9,0,0,0-2.184,5.04.755.755,0,0,1-.727.557Zm0,0" transform="translate(-320.577 -84.92)" fill="#bf80e2"/>
    <path id="Path_29" data-name="Path 29" d="M361.622,134.453a.755.755,0,0,1-.189-1.485,14.229,14.229,0,0,0,5.089-2.216.754.754,0,1,1,.911,1.2,15.563,15.563,0,0,1-5.621,2.473.761.761,0,0,1-.19.024Zm0,0" transform="translate(-334.113 -126.139)" fill="#bf80e2"/>
    <path id="Path_30" data-name="Path 30" d="M87.649,349.858a.755.755,0,0,1-.436-1.371,16.82,16.82,0,0,1,5.356-2.293.755.755,0,0,1,.4,1.456,15.244,15.244,0,0,0-4.881,2.069A.749.749,0,0,1,87.649,349.858Zm0,0" transform="translate(-86.893 -320.655)" fill="#bf80e2"/>
    <path id="Path_31" data-name="Path 31" d="M133.083,367.83a.755.755,0,0,1-.612-1.195,14.559,14.559,0,0,0,2.078-4.9.755.755,0,1,1,1.461.38,15.9,15.9,0,0,1-2.313,5.4.753.753,0,0,1-.613.314Zm0,0" transform="translate(-127.891 -334.19)" fill="#bf80e2"/>
    </g>
    <path id="Path_32" data-name="Path 32" d="M130.282,109.451a14.733,14.733,0,1,0,0,20.835A14.732,14.732,0,0,0,130.282,109.451Zm0,0" transform="translate(-94.865 -94.868)" fill="#ff94d4"/>
    <path id="Path_33" data-name="Path 33" d="M160.2,139.366a14.979,14.979,0,0,0-1.2-1.077A14.734,14.734,0,0,1,138.289,159,14.733,14.733,0,1,0,160.2,139.366Zm0,0" transform="translate(-124.784 -124.784)" fill="#ff73c6"/>
    <path id="Path_34" data-name="Path 34" d="M109.451,159.233a14.791,14.791,0,0,0,1.334,1.183v-23.2a14.739,14.739,0,0,0-1.334,22.018Zm0,0" transform="translate(-94.868 -123.815)" fill="#ff73c6"/>
    <path id="Path_35" data-name="Path 35" d="M349.152,137.32V160.5a14.738,14.738,0,0,0,0-23.179Zm0,0" transform="translate(-315.055 -123.91)" fill="#ff73c6"/>
    <path id="Path_36" data-name="Path 36" d="M350.47,139.4a14.835,14.835,0,0,0-1.2-1.074,14.738,14.738,0,0,1-.123,18.579v4.5A14.736,14.736,0,0,0,350.47,139.4Zm0,0" transform="translate(-315.052 -124.816)" fill="#ff4fb8"/>
    <path id="Path_37" data-name="Path 37" d="M225.039,105.457V134.3a14.811,14.811,0,0,0,6.06,0V105.46a14.811,14.811,0,0,0-6.06,0Zm0,0" transform="translate(-203.063 -94.877)" fill="#ff73c6"/>
    <path id="Path_38" data-name="Path 38" d="M231.1,373.422a14.767,14.767,0,0,1-6.06.969v1.984h0a14.816,14.816,0,0,0,6.017.006l.042-.01Zm0,0" transform="translate(-203.063 -336.955)" fill="#ff4fb8"/>
</svg>
