<svg xmlns="http://www.w3.org/2000/svg" xmlns:xlink="http://www.w3.org/1999/xlink" width="49" height="50" viewBox="0 0 49 50">
    <path id="Path_8" data-name="Path 8" d="M165.423,31.6A13.018,13.018,0,1,1,147.33,19.558a13.019,13.019,0,0,1,9.19-.364h0a13.081,13.081,0,0,1,8.9,12.408Zm0,0" transform="translate(-125.836 -16.718)" fill="#f96eb3"/>
    <path id="Path_9" data-name="Path 9" d="M239.18,31.6a13.119,13.119,0,0,1-.5,3.582L222.2,32.115l-1.109-12.556a13.019,13.019,0,0,1,9.19-.364h0c-1.928,1.938-.861,6.176,3.512,8.526a12.668,12.668,0,0,0,5.168,1.465,13.135,13.135,0,0,1,.223,2.417Zm0,0" transform="translate(-199.592 -16.718)" fill="#d83a6f"/>
    <path id="Path_10" data-name="Path 10" d="M6.714,218.734a6.744,6.744,0,0,1,0-13.488H42.333a6.744,6.744,0,0,1,0,13.488" transform="translate(0 -185.202)" fill="#279e5c"/>
    <path id="Path_11" data-name="Path 11" d="M428.345,253.535a.764.764,0,0,1-.763-.766c0-2.292,1.129-3.1,1.8-3.384a3.1,3.1,0,0,1,3.287.741.769.769,0,0,1,0,1.083.761.761,0,0,1-1.079,0,1.566,1.566,0,0,0-1.624-.409c-.554.231-.86.93-.86,1.969A.764.764,0,0,1,428.345,253.535Zm0,0" transform="translate(-386.012 -224.849)" fill="#0c843d"/>
    <path id="Path_12" data-name="Path 12" d="M104.678,14.961V31.94a17.81,17.81,0,1,1-35.619.172V12.41A12.383,12.383,0,0,1,81.414,0h4.464a15.48,15.48,0,0,0,15.445,15.329,15.388,15.388,0,0,0,3.355-.368Zm0,0" transform="translate(-62.345)" fill="#75bc83"/>
    <path id="Path_13" data-name="Path 13" d="M26.819,253.535a.764.764,0,0,1-.763-.766c0-1.039-.305-1.738-.86-1.969a1.566,1.566,0,0,0-1.624.409.76.76,0,0,1-1.079,0,.768.768,0,0,1,0-1.083,3.1,3.1,0,0,1,3.287-.741c.673.28,1.8,1.092,1.8,3.384a.764.764,0,0,1-.763.766Zm0,0" transform="translate(-20.105 -224.849)" fill="#0c843d"/>
    <path id="Path_14" data-name="Path 14" d="M86.732,50A17.848,17.848,0,0,1,69.059,32.111V12.41A12.382,12.382,0,0,1,81.413,0H83.66c-4.013,0-7.268,5.556-7.268,12.41v19.7c0,9.8,4.616,17.763,10.34,17.888Zm0,0" transform="translate(-62.345)" fill="#279e5c"/>
    <path id="Path_15" data-name="Path 15" d="M298.222,219.378l-1.439,1.445-1.438-1.445a1.622,1.622,0,0,0-2.3,0,1.639,1.639,0,0,0,0,2.312l1.438,1.445-1.438,1.445a1.639,1.639,0,0,0,0,2.312,1.622,1.622,0,0,0,2.3,0l1.438-1.445,1.439,1.445a1.622,1.622,0,0,0,2.3,0,1.64,1.64,0,0,0,0-2.312l-1.438-1.445,1.438-1.445a1.64,1.64,0,0,0,0-2.312A1.622,1.622,0,0,0,298.222,219.378Zm0,0" transform="translate(-264.124 -197.523)" fill="#2a2d49"/>
    <path id="Path_16" data-name="Path 16" d="M130.832,219.378l-1.439,1.445-1.438-1.445a1.622,1.622,0,0,0-2.3,0,1.639,1.639,0,0,0,0,2.312l1.438,1.445-1.438,1.445a1.639,1.639,0,0,0,0,2.312,1.622,1.622,0,0,0,2.3,0l1.438-1.445,1.439,1.445a1.622,1.622,0,0,0,2.3,0,1.64,1.64,0,0,0,0-2.312l-1.438-1.445,1.438-1.445a1.64,1.64,0,0,0,0-2.312A1.622,1.622,0,0,0,130.832,219.378Zm0,0" transform="translate(-113.008 -197.523)" fill="#2a2d49"/>
    <path id="Path_17" data-name="Path 17" d="M80.224,34.265a3.884,3.884,0,0,1-6.92,2.443,12.409,12.409,0,0,1,3.917-6.247,3.9,3.9,0,0,1,3,3.8Zm0,0" transform="translate(-66.177 -27.486)" fill="#83c65d"/>
    <path id="Path_18" data-name="Path 18" d="M177.2,347h-6.586a5.154,5.154,0,0,0-5.142,5.165v1.694h16.87v-1.694A5.153,5.153,0,0,0,177.2,347Zm0,0" transform="translate(-149.388 -313.113)" fill="#2a2d49"/>
    <path id="Path_19" data-name="Path 19" d="M284.737,422.74A2.038,2.038,0,0,1,282.7,420.7v-3.459h4.068V420.7A2.039,2.039,0,0,1,284.737,422.74Zm0,0" transform="translate(-255.218 -376.492)" fill="#f96eb3"/>
    <path id="Path_20" data-name="Path 20" d="M193.744,381.969H179.625a7.83,7.83,0,0,1,7.059-3.817,9.306,9.306,0,0,1,2.085.234,7.338,7.338,0,0,1,4.974,3.583Zm0,0" transform="translate(-162.161 -341.223)" fill="#d83a6f"/>
    <path id="Path_21" data-name="Path 21" d="M232.465,384.129h-9.949a7.339,7.339,0,0,1,4.974-3.583,7.338,7.338,0,0,1,4.974,3.583Zm0,0" transform="translate(-200.882 -343.384)" fill="#f96eb3"/>
    <g id="Group_7" data-name="Group 7" transform="translate(11.135 7.151)">
    <path id="Path_22" data-name="Path 22" d="M119.51,130.3a2.489,2.489,0,1,1-2.489-2.5A2.5,2.5,0,0,1,119.51,130.3Zm0,0" transform="translate(-114.531 -122.471)" fill="#83c65d"/>
    <path id="Path_23" data-name="Path 23" d="M171.228,75.374a2.134,2.134,0,1,1-2.134-2.143A2.139,2.139,0,0,1,171.228,75.374Zm0,0" transform="translate(-161.863 -73.23)" fill="#83c65d"/>
    </g>
</svg>
