<?xml version="1.0" encoding="UTF-8"?>
<svg xmlns="http://www.w3.org/2000/svg" xmlns:xlink="http://www.w3.org/1999/xlink" width="50" height="58" viewBox="0 0 50 58" version="1.1">
<g id="surface1">
<path style=" stroke:none;fill-rule:nonzero;fill:rgb(82.352941%,60%,43.529412%);fill-opacity:1;" d="M 9.882812 18.261719 L 1.871094 26.191406 C 0.519531 27.53125 0.519531 29.703125 1.871094 31.042969 L 27.230469 56.144531 C 28.582031 57.484375 30.773438 57.484375 32.125 56.144531 L 48.121094 40.308594 C 49.472656 38.972656 49.472656 36.800781 48.121094 35.460938 L 31.925781 19.429688 C 31.316406 18.824219 30.402344 18.632812 29.597656 18.945312 C 21.921875 21.917969 16.601562 20.722656 12.640625 18.003906 C 11.777344 17.421875 10.617188 17.527344 9.882812 18.261719 Z M 9.882812 18.261719 "/>
<path style=" stroke:none;fill-rule:nonzero;fill:rgb(76.862745%,48.235294%,27.45098%);fill-opacity:1;" d="M 11.957031 17.695312 C 11.214844 17.507812 10.425781 17.726562 9.882812 18.261719 L 1.871094 26.191406 C 0.519531 27.53125 0.519531 29.703125 1.871094 31.042969 L 12.695312 41.757812 C 9.898438 34.554688 8.992188 24.683594 11.957031 17.695312 Z M 11.957031 17.695312 "/>
<path style=" stroke:none;fill-rule:nonzero;fill:rgb(76.862745%,48.235294%,27.45098%);fill-opacity:1;" d="M 16.351562 29.972656 L 12.34375 33.941406 C 11.589844 34.683594 10.375 34.683594 9.625 33.941406 L 5.613281 29.972656 C 4.863281 29.230469 4.863281 28.023438 5.613281 27.28125 L 9.621094 23.3125 C 10.375 22.570312 11.589844 22.570312 12.339844 23.3125 L 16.351562 27.28125 C 17.101562 28.023438 17.101562 29.230469 16.351562 29.972656 Z M 16.351562 29.972656 "/>
<path style=" stroke:none;fill-rule:nonzero;fill:rgb(76.862745%,48.235294%,27.45098%);fill-opacity:1;" d="M 25.691406 39.222656 L 21.683594 43.191406 C 20.933594 43.933594 19.714844 43.933594 18.964844 43.191406 L 14.957031 39.222656 C 14.207031 38.480469 14.207031 37.273438 14.957031 36.53125 L 18.964844 32.5625 C 19.714844 31.820312 20.933594 31.820312 21.683594 32.5625 L 25.691406 36.53125 C 26.445312 37.273438 26.445312 38.480469 25.691406 39.222656 Z M 25.691406 39.222656 "/>
<path style=" stroke:none;fill-rule:nonzero;fill:rgb(76.862745%,48.235294%,27.45098%);fill-opacity:1;" d="M 35.035156 29.972656 L 31.027344 33.941406 C 30.277344 34.683594 29.058594 34.683594 28.308594 33.941406 L 24.300781 29.972656 C 23.550781 29.230469 23.550781 28.023438 24.300781 27.28125 L 28.308594 23.3125 C 29.058594 22.570312 30.277344 22.570312 31.027344 23.3125 L 35.035156 27.28125 C 35.785156 28.023438 35.785156 29.230469 35.035156 29.972656 Z M 35.035156 29.972656 "/>
<path style=" stroke:none;fill-rule:nonzero;fill:rgb(76.862745%,48.235294%,27.45098%);fill-opacity:1;" d="M 35.035156 48.472656 L 31.027344 52.441406 C 30.277344 53.183594 29.058594 53.183594 28.308594 52.441406 L 24.300781 48.472656 C 23.550781 47.730469 23.550781 46.523438 24.300781 45.78125 L 28.308594 41.8125 C 29.058594 41.070312 30.277344 41.070312 31.027344 41.8125 L 35.035156 45.78125 C 35.785156 46.523438 35.785156 47.730469 35.035156 48.472656 Z M 35.035156 48.472656 "/>
<path style=" stroke:none;fill-rule:nonzero;fill:rgb(76.862745%,48.235294%,27.45098%);fill-opacity:1;" d="M 44.378906 39.222656 L 40.371094 43.191406 C 39.621094 43.933594 38.402344 43.933594 37.652344 43.191406 L 33.644531 39.222656 C 32.890625 38.480469 32.890625 37.273438 33.644531 36.53125 L 37.652344 32.5625 C 38.402344 31.820312 39.621094 31.820312 40.371094 32.5625 L 44.378906 36.53125 C 45.128906 37.273438 45.128906 38.480469 44.378906 39.222656 Z M 44.378906 39.222656 "/>
<path style=" stroke:none;fill-rule:nonzero;fill:rgb(76.862745%,48.235294%,27.45098%);fill-opacity:1;" d="M 14.421875 19.066406 C 14.320312 19.671875 14.519531 20.289062 14.957031 20.722656 L 18.964844 24.691406 C 19.714844 25.433594 20.933594 25.433594 21.683594 24.691406 L 25.691406 20.722656 C 25.882812 20.53125 26.03125 20.304688 26.128906 20.054688 C 21.265625 21.257812 17.476562 20.625 14.421875 19.066406 Z M 14.421875 19.066406 "/>
<path style=" stroke:none;fill-rule:nonzero;fill:rgb(82.352941%,60%,43.529412%);fill-opacity:1;" d="M 18.992188 4.277344 L 18.992188 12.058594 C 18.992188 12.453125 19.167969 12.828125 19.46875 13.082031 C 19.773438 13.335938 20.175781 13.445312 20.566406 13.378906 C 25.242188 12.59375 29.8125 9.871094 33.140625 2.753906 C 33.335938 2.339844 33.304688 1.855469 33.054688 1.46875 C 32.808594 1.085938 32.378906 0.851562 31.917969 0.847656 L 22.453125 0.851562 C 20.542969 0.851562 18.992188 2.382812 18.992188 4.277344 Z M 18.992188 4.277344 "/>
<path style=" stroke:none;fill-rule:nonzero;fill:rgb(76.862745%,48.235294%,27.45098%);fill-opacity:1;" d="M 22.414062 6.128906 L 22.414062 11.742188 C 22.414062 12.140625 22.539062 12.527344 22.777344 12.847656 C 26.050781 11.8125 29.179688 9.605469 31.757812 5.351562 C 31.449219 4.664062 30.761719 4.226562 30.003906 4.226562 L 24.335938 4.226562 C 23.273438 4.226562 22.414062 5.078125 22.414062 6.128906 Z M 22.414062 6.128906 "/>
<path style=" stroke:none;fill-rule:nonzero;fill:rgb(82.352941%,60%,43.529412%);fill-opacity:1;" d="M 32.128906 14.8125 L 32.128906 12.511719 C 32.128906 12.21875 32.285156 11.941406 32.539062 11.785156 C 32.792969 11.628906 33.109375 11.617188 33.375 11.746094 L 35.519531 12.796875 C 35.804688 12.9375 35.988281 13.21875 36 13.535156 C 36.011719 13.847656 35.847656 14.140625 35.574219 14.300781 L 33.429688 15.550781 C 33.164062 15.703125 32.832031 15.707031 32.566406 15.554688 C 32.296875 15.402344 32.128906 15.117188 32.128906 14.8125 Z M 32.128906 14.8125 "/>
<path style=" stroke:none;fill-rule:nonzero;fill:rgb(82.352941%,60%,43.529412%);fill-opacity:1;" d="M 36.761719 6.160156 L 37.570312 8.222656 C 37.6875 8.523438 37.960938 8.742188 38.28125 8.800781 C 38.605469 8.855469 38.9375 8.738281 39.152344 8.496094 L 40.835938 6.578125 C 41.070312 6.308594 41.132812 5.933594 40.992188 5.605469 C 40.855469 5.28125 40.542969 5.0625 40.183594 5.039062 L 37.691406 4.898438 C 37.371094 4.878906 37.066406 5.023438 36.878906 5.277344 C 36.691406 5.535156 36.648438 5.867188 36.761719 6.160156 Z M 36.761719 6.160156 "/>
<path style=" stroke:none;fill-rule:nonzero;fill:rgb(0%,0%,0%);fill-opacity:1;" d="M 18.917969 13.730469 C 19.414062 14.144531 20.070312 14.324219 20.710938 14.214844 C 21.496094 14.085938 22.265625 13.898438 23.023438 13.664062 C 23.03125 13.660156 23.039062 13.65625 23.046875 13.65625 C 27.730469 12.171875 31.304688 8.703125 33.917969 3.113281 C 34.238281 2.433594 34.183594 1.644531 33.777344 1.011719 C 33.371094 0.382812 32.671875 0 31.914062 0 L 22.453125 0 C 20.066406 0.00390625 18.136719 1.917969 18.132812 4.277344 L 18.132812 7.285156 C 18.132812 7.757812 18.515625 8.136719 18.992188 8.136719 C 19.464844 8.136719 19.847656 7.757812 19.847656 7.285156 L 19.847656 4.277344 C 19.851562 2.855469 21.015625 1.699219 22.453125 1.699219 L 31.914062 1.699219 C 32.082031 1.695312 32.242188 1.78125 32.328125 1.921875 C 32.421875 2.066406 32.433594 2.246094 32.359375 2.398438 C 32.117188 2.914062 31.867188 3.410156 31.609375 3.886719 C 31.140625 3.554688 30.582031 3.375 30.003906 3.375 L 24.335938 3.375 C 22.800781 3.378906 21.558594 4.609375 21.554688 6.128906 L 21.554688 11.742188 C 21.558594 11.925781 21.574219 12.109375 21.613281 12.292969 C 21.222656 12.386719 20.828125 12.472656 20.421875 12.539062 C 20.28125 12.566406 20.132812 12.523438 20.023438 12.433594 C 19.910156 12.339844 19.847656 12.203125 19.847656 12.058594 L 19.847656 11.238281 C 19.847656 10.769531 19.464844 10.390625 18.988281 10.390625 C 18.515625 10.390625 18.132812 10.769531 18.132812 11.238281 L 18.132812 12.058594 C 18.132812 12.703125 18.417969 13.316406 18.917969 13.730469 Z M 23.273438 6.128906 C 23.273438 5.546875 23.75 5.074219 24.335938 5.074219 L 30.003906 5.074219 C 30.277344 5.074219 30.539062 5.179688 30.738281 5.367188 C 28.730469 8.511719 26.261719 10.628906 23.273438 11.773438 C 23.273438 11.761719 23.273438 11.75 23.273438 11.742188 Z M 35.902344 12.035156 L 33.757812 10.984375 C 33.222656 10.722656 32.589844 10.753906 32.085938 11.066406 C 31.578125 11.375 31.273438 11.921875 31.269531 12.511719 L 31.269531 14.8125 C 31.269531 15.425781 31.597656 15.992188 32.136719 16.292969 C 32.671875 16.597656 33.332031 16.59375 33.867188 16.28125 L 36.007812 15.03125 C 36.554688 14.714844 36.878906 14.128906 36.855469 13.503906 C 36.835938 12.878906 36.46875 12.3125 35.902344 12.035156 Z M 35.140625 13.566406 L 32.988281 14.816406 C 32.988281 14.816406 32.988281 14.8125 32.988281 14.8125 L 32.996094 12.507812 L 35.140625 13.558594 C 35.144531 13.558594 35.144531 13.566406 35.140625 13.566406 Z M 35.960938 6.46875 L 36.769531 8.527344 C 36.996094 9.109375 37.515625 9.53125 38.136719 9.636719 C 38.238281 9.65625 38.34375 9.664062 38.449219 9.664062 C 38.96875 9.664062 39.460938 9.441406 39.796875 9.050781 L 41.484375 7.132812 C 41.933594 6.621094 42.050781 5.902344 41.785156 5.277344 C 41.519531 4.652344 40.917969 4.230469 40.234375 4.191406 L 37.738281 4.050781 C 37.128906 4.015625 36.542969 4.289062 36.183594 4.777344 C 35.824219 5.269531 35.742188 5.90625 35.960938 6.46875 Z M 37.574219 5.777344 C 37.585938 5.753906 37.613281 5.742188 37.640625 5.746094 L 40.132812 5.886719 C 40.164062 5.886719 40.195312 5.90625 40.203125 5.9375 C 40.21875 5.964844 40.210938 5.996094 40.191406 6.019531 L 38.503906 7.9375 C 38.488281 7.960938 38.457031 7.96875 38.429688 7.960938 C 38.402344 7.960938 38.378906 7.941406 38.371094 7.914062 L 37.5625 5.855469 C 37.550781 5.828125 37.554688 5.800781 37.574219 5.777344 Z M 32.222656 37.875 C 32.21875 38.605469 32.511719 39.308594 33.035156 39.824219 L 37.042969 43.792969 C 38.128906 44.867188 39.890625 44.867188 40.976562 43.792969 L 44.984375 39.824219 C 46.070312 38.75 46.070312 37.003906 44.984375 35.929688 L 40.976562 31.960938 C 39.890625 30.886719 38.132812 30.886719 37.042969 31.960938 L 33.035156 35.929688 C 32.511719 36.445312 32.21875 37.144531 32.222656 37.875 Z M 34.25 37.132812 L 38.257812 33.164062 C 38.675781 32.753906 39.347656 32.753906 39.761719 33.164062 L 43.769531 37.132812 C 43.972656 37.328125 44.082031 37.597656 44.082031 37.875 C 44.082031 38.15625 43.972656 38.425781 43.769531 38.621094 L 39.761719 42.589844 C 39.347656 43 38.671875 43 38.257812 42.589844 L 34.25 38.621094 C 34.050781 38.425781 33.9375 38.15625 33.9375 37.875 C 33.9375 37.597656 34.050781 37.328125 34.25 37.132812 Z M 18.359375 43.792969 C 19.445312 44.867188 21.207031 44.867188 22.292969 43.792969 L 26.300781 39.824219 C 27.386719 38.75 27.386719 37.003906 26.300781 35.929688 L 22.292969 31.960938 C 21.203125 30.886719 19.445312 30.886719 18.359375 31.960938 L 14.351562 35.929688 C 13.265625 37.003906 13.265625 38.746094 14.351562 39.824219 Z M 15.5625 37.132812 L 19.574219 33.164062 C 19.988281 32.753906 20.660156 32.753906 21.078125 33.164062 L 25.085938 37.132812 C 25.5 37.542969 25.5 38.210938 25.085938 38.621094 L 21.078125 42.589844 C 20.664062 43 19.988281 43 19.574219 42.589844 L 15.566406 38.621094 C 15.148438 38.210938 15.148438 37.542969 15.566406 37.132812 Z M 27.703125 53.042969 C 28.789062 54.113281 30.546875 54.113281 31.632812 53.042969 L 35.640625 49.074219 C 36.726562 48 36.726562 46.253906 35.640625 45.179688 L 31.632812 41.210938 C 30.546875 40.136719 28.789062 40.136719 27.703125 41.210938 L 23.695312 45.179688 C 22.609375 46.253906 22.609375 48 23.695312 49.074219 Z M 24.90625 46.382812 L 28.914062 42.414062 C 29.332031 42 30.003906 42 30.421875 42.414062 L 34.429688 46.382812 C 34.84375 46.792969 34.84375 47.460938 34.429688 47.871094 L 30.421875 51.839844 C 30.003906 52.25 29.332031 52.25 28.914062 51.839844 L 24.90625 47.871094 C 24.492188 47.460938 24.492188 46.792969 24.90625 46.382812 Z M 48.726562 34.859375 L 32.53125 18.828125 C 31.679688 17.984375 30.40625 17.71875 29.285156 18.15625 C 22.867188 20.640625 17.582031 20.363281 13.128906 17.308594 C 11.925781 16.488281 10.300781 16.636719 9.273438 17.664062 L 1.265625 25.59375 C -0.421875 27.261719 -0.421875 29.972656 1.265625 31.640625 L 26.621094 56.746094 C 28.308594 58.417969 31.046875 58.417969 32.734375 56.746094 L 35.023438 54.480469 C 35.347656 54.144531 35.34375 53.617188 35.011719 53.289062 C 34.679688 52.960938 34.144531 52.957031 33.808594 53.277344 L 31.519531 55.546875 C 30.5 56.550781 28.851562 56.550781 27.835938 55.546875 L 2.480469 30.441406 C 1.460938 29.433594 1.460938 27.800781 2.480469 26.792969 L 10.488281 18.863281 C 10.929688 18.417969 11.628906 18.351562 12.152344 18.703125 C 12.609375 19.015625 13.074219 19.304688 13.546875 19.566406 C 13.59375 20.226562 13.878906 20.851562 14.351562 21.320312 L 18.359375 25.289062 C 19.445312 26.363281 21.207031 26.363281 22.292969 25.289062 L 26.300781 21.320312 C 26.464844 21.160156 26.605469 20.976562 26.722656 20.78125 C 27.804688 20.492188 28.871094 20.140625 29.910156 19.734375 C 30.398438 19.546875 30.949219 19.660156 31.320312 20.027344 L 47.515625 36.0625 C 48.53125 37.070312 48.53125 38.703125 47.515625 39.710938 L 36.664062 50.453125 C 36.339844 50.785156 36.34375 51.316406 36.675781 51.644531 C 37.003906 51.96875 37.539062 51.976562 37.878906 51.652344 L 48.726562 40.910156 C 50.414062 39.242188 50.414062 36.53125 48.726562 34.859375 Z M 21.078125 24.089844 C 20.660156 24.5 19.988281 24.5 19.574219 24.089844 L 16.175781 20.726562 C 18.542969 21.519531 21.085938 21.730469 23.832031 21.363281 Z M 31.632812 22.710938 C 30.546875 21.636719 28.789062 21.636719 27.703125 22.710938 L 23.695312 26.679688 C 22.609375 27.753906 22.609375 29.496094 23.695312 30.574219 L 27.703125 34.542969 C 28.789062 35.613281 30.546875 35.613281 31.632812 34.542969 L 35.640625 30.574219 C 36.726562 29.496094 36.726562 27.757812 35.640625 26.679688 Z M 34.429688 29.371094 L 30.421875 33.339844 C 30.003906 33.75 29.332031 33.75 28.914062 33.339844 L 24.90625 29.371094 C 24.492188 28.960938 24.492188 28.292969 24.90625 27.882812 L 28.914062 23.914062 C 29.113281 23.714844 29.386719 23.605469 29.667969 23.605469 C 29.949219 23.605469 30.222656 23.714844 30.421875 23.914062 L 34.429688 27.882812 C 34.84375 28.292969 34.84375 28.960938 34.429688 29.371094 Z M 16.957031 30.574219 C 18.039062 29.496094 18.039062 27.757812 16.957031 26.679688 L 12.949219 22.710938 C 11.863281 21.636719 10.101562 21.636719 9.015625 22.710938 L 5.007812 26.679688 C 3.925781 27.757812 3.925781 29.496094 5.007812 30.574219 L 9.015625 34.542969 C 10.101562 35.613281 11.863281 35.613281 12.949219 34.542969 Z M 15.742188 29.371094 L 11.734375 33.339844 C 11.316406 33.75 10.644531 33.75 10.230469 33.339844 L 6.222656 29.371094 C 5.808594 28.960938 5.808594 28.292969 6.222656 27.882812 L 10.230469 23.914062 C 10.429688 23.714844 10.699219 23.605469 10.984375 23.605469 C 11.265625 23.605469 11.535156 23.714844 11.734375 23.914062 L 15.742188 27.882812 C 16.15625 28.292969 16.15625 28.960938 15.742188 29.371094 Z M 15.742188 29.371094 "/>
</g>
</svg>
