<?xml version="1.0" encoding="UTF-8"?>
<svg xmlns="http://www.w3.org/2000/svg" xmlns:xlink="http://www.w3.org/1999/xlink" width="50" height="41" viewBox="0 0 50 41" version="1.1">
<g id="surface1">
<path style=" stroke:none;fill-rule:nonzero;fill:rgb(100%,84.313725%,50.980392%);fill-opacity:1;" d="M 45.265625 11.648438 C 43.246094 11.648438 41.554688 10.136719 41.359375 8.160156 C 39.5 9.074219 37.238281 8.394531 36.210938 6.613281 C 35.183594 4.835938 35.746094 2.578125 37.496094 1.46875 C 30.214844 -0.621094 22.429688 2.535156 18.753906 9.0625 C 15.078125 15.589844 16.484375 23.757812 22.144531 28.726562 C 27.804688 33.695312 36.210938 34.144531 42.382812 29.808594 C 48.558594 25.472656 50.859375 17.503906 47.921875 10.621094 C 47.199219 11.28125 46.25 11.648438 45.265625 11.648438 Z M 45.265625 11.648438 "/>
<path style=" stroke:none;fill-rule:nonzero;fill:rgb(82.745098%,51.764706%,23.921569%);fill-opacity:1;" d="M 29.1875 26.242188 C 29.1875 33.941406 22.84375 40.183594 15.019531 40.183594 C 7.195312 40.183594 0.851562 33.941406 0.851562 26.242188 C 0.851562 18.546875 7.195312 12.304688 15.019531 12.304688 C 22.84375 12.304688 29.1875 18.546875 29.1875 26.242188 Z M 29.1875 26.242188 "/>
<path style=" stroke:none;fill-rule:nonzero;fill:rgb(70.980392%,33.333333%,30.588235%);fill-opacity:1;" d="M 26.6875 9.84375 C 26.6875 10.75 25.941406 11.484375 25.019531 11.484375 C 24.097656 11.484375 23.351562 10.75 23.351562 9.84375 C 23.351562 8.9375 24.097656 8.203125 25.019531 8.203125 C 25.941406 8.203125 26.6875 8.9375 26.6875 9.84375 Z M 26.6875 9.84375 "/>
<path style=" stroke:none;fill-rule:nonzero;fill:rgb(70.980392%,33.333333%,30.588235%);fill-opacity:1;" d="M 43.023438 23.980469 C 43.023438 25.503906 41.765625 26.738281 40.21875 26.738281 C 38.671875 26.738281 37.417969 25.503906 37.417969 23.980469 C 37.417969 22.457031 38.671875 21.222656 40.21875 21.222656 C 41.765625 21.222656 43.023438 22.457031 43.023438 23.980469 Z M 43.023438 23.980469 "/>
<path style=" stroke:none;fill-rule:nonzero;fill:rgb(82.745098%,51.764706%,23.921569%);fill-opacity:1;" d="M 31.40625 15.859375 L 33.246094 14.050781 C 34.050781 13.257812 35.355469 13.257812 36.164062 14.050781 C 36.96875 14.84375 36.96875 16.125 36.164062 16.917969 L 34.324219 18.726562 C 33.519531 19.519531 32.210938 19.519531 31.40625 18.726562 C 30.601562 17.9375 30.601562 16.652344 31.40625 15.859375 Z M 31.40625 15.859375 "/>
<path style=" stroke:none;fill-rule:nonzero;fill:rgb(100%,84.313725%,50.980392%);fill-opacity:1;" d="M 6.476562 29.320312 L 4.8125 27.679688 C 4.007812 26.886719 4.007812 25.601562 4.8125 24.808594 C 5.617188 24.015625 6.921875 24.015625 7.726562 24.808594 L 9.394531 26.449219 C 10.199219 27.242188 10.199219 28.527344 9.394531 29.320312 C 8.589844 30.113281 7.285156 30.113281 6.476562 29.320312 Z M 6.476562 29.320312 "/>
<path style=" stroke:none;fill-rule:nonzero;fill:rgb(70.980392%,33.333333%,30.588235%);fill-opacity:1;" d="M 14.1875 35.265625 C 14.1875 36.167969 13.441406 36.902344 12.519531 36.902344 C 11.597656 36.902344 10.851562 36.167969 10.851562 35.265625 C 10.851562 34.359375 11.597656 33.625 12.519531 33.625 C 13.441406 33.625 14.1875 34.359375 14.1875 35.265625 Z M 14.1875 35.265625 "/>
<path style=" stroke:none;fill-rule:nonzero;fill:rgb(70.980392%,33.333333%,30.588235%);fill-opacity:1;" d="M 22.519531 20.503906 C 22.519531 21.410156 21.773438 22.144531 20.851562 22.144531 C 19.933594 22.144531 19.1875 21.410156 19.1875 20.503906 C 19.1875 19.597656 19.933594 18.863281 20.851562 18.863281 C 21.773438 18.863281 22.519531 19.597656 22.519531 20.503906 Z M 22.519531 20.503906 "/>
<path style=" stroke:none;fill-rule:nonzero;fill:rgb(82.745098%,51.764706%,23.921569%);fill-opacity:1;" d="M 45.019531 18.863281 C 44.800781 18.863281 44.585938 18.777344 44.429688 18.625 L 42.765625 16.984375 C 42.449219 16.660156 42.453125 16.148438 42.773438 15.832031 C 43.097656 15.519531 43.617188 15.511719 43.941406 15.824219 L 45.609375 17.464844 C 45.847656 17.699219 45.917969 18.050781 45.789062 18.359375 C 45.660156 18.664062 45.355469 18.863281 45.019531 18.863281 Z M 45.019531 18.863281 "/>
<path style=" stroke:none;fill-rule:nonzero;fill:rgb(70.980392%,33.333333%,30.588235%);fill-opacity:1;" d="M 31.6875 30.34375 C 31.351562 30.34375 31.046875 30.144531 30.917969 29.835938 C 30.789062 29.53125 30.859375 29.179688 31.097656 28.945312 L 32.765625 27.304688 C 33.089844 26.992188 33.609375 26.996094 33.933594 27.3125 C 34.253906 27.628906 34.257812 28.140625 33.941406 28.464844 L 32.277344 30.101562 C 32.121094 30.257812 31.90625 30.34375 31.6875 30.34375 Z M 31.6875 30.34375 "/>
<path style=" stroke:none;fill-rule:nonzero;fill:rgb(70.980392%,33.333333%,30.588235%);fill-opacity:1;" d="M 14.1875 27.0625 C 13.851562 27.0625 13.546875 26.863281 13.417969 26.558594 C 13.289062 26.25 13.359375 25.898438 13.597656 25.664062 L 15.265625 24.023438 C 15.589844 23.714844 16.109375 23.71875 16.433594 24.035156 C 16.753906 24.351562 16.757812 24.863281 16.441406 25.183594 L 14.777344 26.824219 C 14.621094 26.976562 14.40625 27.0625 14.1875 27.0625 Z M 14.1875 27.0625 "/>
<path style=" stroke:none;fill-rule:nonzero;fill:rgb(70.980392%,33.333333%,30.588235%);fill-opacity:1;" d="M 25.851562 27.882812 C 25.632812 27.882812 25.421875 27.796875 25.265625 27.644531 L 23.597656 26.003906 C 23.28125 25.683594 23.285156 25.171875 23.609375 24.855469 C 23.929688 24.539062 24.449219 24.53125 24.777344 24.84375 L 26.441406 26.484375 C 26.679688 26.71875 26.753906 27.070312 26.625 27.378906 C 26.492188 27.683594 26.191406 27.882812 25.851562 27.882812 Z M 25.851562 27.882812 "/>
<path style=" stroke:none;fill-rule:nonzero;fill:rgb(82.745098%,51.764706%,23.921569%);fill-opacity:1;" d="M 32.519531 9.84375 C 32.242188 9.84375 31.980469 9.707031 31.824219 9.480469 L 30.160156 7.019531 C 29.902344 6.640625 30.007812 6.132812 30.390625 5.882812 C 30.773438 5.628906 31.289062 5.730469 31.546875 6.109375 L 33.210938 8.570312 C 33.382812 8.820312 33.398438 9.144531 33.253906 9.410156 C 33.109375 9.675781 32.828125 9.84375 32.519531 9.84375 Z M 32.519531 9.84375 "/>
<path style=" stroke:none;fill-rule:nonzero;fill:rgb(100%,84.313725%,50.980392%);fill-opacity:1;" d="M 18.351562 29.523438 L 18.351562 33.625 L 22.519531 33.625 Z M 18.351562 29.523438 "/>
<path style=" stroke:none;fill-rule:nonzero;fill:rgb(100%,84.313725%,50.980392%);fill-opacity:1;" d="M 13.351562 17.222656 L 9.1875 17.222656 L 9.1875 21.324219 Z M 13.351562 17.222656 "/>
<path style=" stroke:none;fill-rule:nonzero;fill:rgb(0%,0%,0%);fill-opacity:1;" d="M 25.019531 7.382812 C 23.640625 7.382812 22.519531 8.484375 22.519531 9.84375 C 22.519531 11.203125 23.640625 12.304688 25.019531 12.304688 C 26.402344 12.304688 27.519531 11.203125 27.519531 9.84375 C 27.519531 8.484375 26.402344 7.382812 25.019531 7.382812 Z M 25.019531 10.664062 C 24.558594 10.664062 24.1875 10.296875 24.1875 9.84375 C 24.1875 9.390625 24.558594 9.023438 25.019531 9.023438 C 25.480469 9.023438 25.851562 9.390625 25.851562 9.84375 C 25.851562 10.296875 25.480469 10.664062 25.019531 10.664062 Z M 25.019531 10.664062 "/>
<path style=" stroke:none;fill-rule:nonzero;fill:rgb(0%,0%,0%);fill-opacity:1;" d="M 48.097656 9.816406 C 47.832031 9.761719 47.554688 9.832031 47.355469 10.015625 C 46.496094 10.800781 45.257812 11.039062 44.160156 10.628906 C 43.066406 10.214844 42.300781 9.230469 42.1875 8.078125 C 42.164062 7.8125 42.007812 7.574219 41.769531 7.445312 C 41.53125 7.3125 41.246094 7.304688 41 7.417969 C 39.53125 8.152344 37.738281 7.621094 36.921875 6.210938 C 36.109375 4.804688 36.5625 3.015625 37.953125 2.148438 C 38.226562 1.972656 38.367188 1.660156 38.316406 1.34375 C 38.269531 1.027344 38.039062 0.769531 37.726562 0.679688 C 28.878906 -1.867188 19.574219 2.960938 16.710938 11.585938 C 9.171875 10.734375 2.171875 15.558594 0.410156 22.820312 C -1.351562 30.085938 2.675781 37.5 9.792969 40.089844 C 16.910156 42.683594 24.871094 39.636719 28.339844 32.996094 C 34.652344 34.730469 41.414062 32.761719 45.746094 27.925781 C 50.082031 23.089844 51.222656 16.242188 48.6875 10.300781 C 48.582031 10.054688 48.363281 9.875 48.097656 9.816406 Z M 15.019531 39.363281 C 7.65625 39.363281 1.6875 33.488281 1.6875 26.242188 C 1.6875 18.996094 7.65625 13.125 15.019531 13.125 C 22.382812 13.125 28.351562 18.996094 28.351562 26.242188 C 28.351562 33.488281 22.382812 39.363281 15.019531 39.363281 Z M 32.9375 31.984375 C 31.617188 31.980469 30.304688 31.8125 29.027344 31.480469 C 30.582031 27.496094 30.300781 23.042969 28.253906 19.277344 C 26.210938 15.511719 22.601562 12.808594 18.371094 11.867188 C 20.863281 4.738281 28.304688 0.496094 35.828125 1.914062 C 34.765625 3.335938 34.609375 5.222656 35.417969 6.796875 C 36.226562 8.371094 37.867188 9.363281 39.660156 9.363281 C 40.027344 9.363281 40.390625 9.320312 40.746094 9.238281 C 41.183594 10.558594 42.191406 11.621094 43.503906 12.132812 C 44.8125 12.648438 46.289062 12.5625 47.527344 11.898438 C 49.136719 16.535156 48.375 21.648438 45.480469 25.632812 C 42.585938 29.617188 37.914062 31.980469 32.9375 31.984375 Z M 32.9375 31.984375 "/>
<path style=" stroke:none;fill-rule:nonzero;fill:rgb(0%,0%,0%);fill-opacity:1;" d="M 40.222656 20.40625 C 38.214844 20.402344 36.585938 22.003906 36.582031 23.980469 C 36.582031 25.953125 38.207031 27.558594 40.214844 27.558594 C 42.222656 27.5625 43.851562 25.960938 43.851562 23.984375 L 43.851562 23.980469 C 43.851562 22.007812 42.226562 20.40625 40.222656 20.402344 Z M 40.222656 25.917969 C 39.132812 25.921875 38.25 25.054688 38.25 23.984375 C 38.246094 22.914062 39.128906 22.046875 40.214844 22.042969 C 41.300781 22.042969 42.183594 22.910156 42.1875 23.976562 L 42.1875 23.980469 C 42.183594 25.046875 41.304688 25.914062 40.222656 25.914062 Z M 40.222656 25.917969 "/>
<path style=" stroke:none;fill-rule:nonzero;fill:rgb(0%,0%,0%);fill-opacity:1;" d="M 36.75 17.5 C 37.898438 16.402344 37.921875 14.597656 36.804688 13.46875 C 35.6875 12.34375 33.851562 12.320312 32.707031 13.417969 C 32.691406 13.4375 32.671875 13.453125 32.65625 13.472656 L 30.816406 15.28125 C 30.074219 15.996094 29.777344 17.050781 30.042969 18.042969 C 30.3125 19.035156 31.097656 19.808594 32.105469 20.070312 C 33.109375 20.332031 34.183594 20.039062 34.910156 19.308594 Z M 35.574219 16.339844 L 33.734375 18.148438 C 33.25 18.605469 32.484375 18.605469 31.996094 18.148438 C 31.519531 17.675781 31.519531 16.910156 31.996094 16.4375 L 33.835938 14.628906 C 34.304688 14.148438 35.082031 14.132812 35.574219 14.59375 C 36.0625 15.054688 36.078125 15.820312 35.609375 16.304688 C 35.597656 16.316406 35.585938 16.328125 35.574219 16.339844 Z M 35.574219 16.339844 "/>
<path style=" stroke:none;fill-rule:nonzero;fill:rgb(0%,0%,0%);fill-opacity:1;" d="M 9.984375 25.867188 L 8.316406 24.230469 C 7.1875 23.117188 5.351562 23.117188 4.222656 24.230469 C 3.089844 25.34375 3.089844 27.148438 4.222656 28.257812 L 5.890625 29.898438 C 7.019531 31.011719 8.855469 31.011719 9.984375 29.898438 C 11.117188 28.785156 11.113281 26.980469 9.984375 25.867188 Z M 8.804688 28.738281 C 8.324219 29.210938 7.546875 29.210938 7.066406 28.738281 L 5.402344 27.097656 C 4.9375 26.625 4.945312 25.871094 5.417969 25.40625 C 5.890625 24.941406 6.65625 24.933594 7.140625 25.390625 L 8.804688 27.027344 C 9.285156 27.5 9.289062 28.261719 8.808594 28.734375 Z M 8.804688 28.738281 "/>
<path style=" stroke:none;fill-rule:nonzero;fill:rgb(0%,0%,0%);fill-opacity:1;" d="M 12.519531 32.804688 C 11.140625 32.804688 10.019531 33.90625 10.019531 35.265625 C 10.019531 36.621094 11.140625 37.722656 12.519531 37.722656 C 13.902344 37.722656 15.019531 36.621094 15.019531 35.265625 C 15.019531 33.90625 13.902344 32.804688 12.519531 32.804688 Z M 12.519531 36.082031 C 12.058594 36.082031 11.6875 35.714844 11.6875 35.265625 C 11.6875 34.8125 12.058594 34.445312 12.519531 34.445312 C 12.980469 34.445312 13.351562 34.8125 13.351562 35.265625 C 13.351562 35.714844 12.980469 36.082031 12.519531 36.082031 Z M 12.519531 36.082031 "/>
<path style=" stroke:none;fill-rule:nonzero;fill:rgb(0%,0%,0%);fill-opacity:1;" d="M 20.851562 22.964844 C 22.234375 22.964844 23.351562 21.863281 23.351562 20.503906 C 23.351562 19.144531 22.234375 18.042969 20.851562 18.042969 C 19.472656 18.042969 18.351562 19.144531 18.351562 20.503906 C 18.351562 21.863281 19.472656 22.964844 20.851562 22.964844 Z M 20.851562 19.683594 C 21.3125 19.683594 21.6875 20.050781 21.6875 20.503906 C 21.6875 20.957031 21.3125 21.324219 20.851562 21.324219 C 20.394531 21.324219 20.019531 20.957031 20.019531 20.503906 C 20.019531 20.050781 20.394531 19.683594 20.851562 19.683594 Z M 20.851562 19.683594 "/>
<path style=" stroke:none;fill-rule:nonzero;fill:rgb(0%,0%,0%);fill-opacity:1;" d="M 43.941406 15.824219 C 43.617188 15.511719 43.097656 15.519531 42.773438 15.832031 C 42.453125 16.148438 42.449219 16.660156 42.765625 16.984375 L 44.429688 18.625 C 44.757812 18.933594 45.277344 18.929688 45.597656 18.613281 C 45.921875 18.296875 45.925781 17.785156 45.609375 17.464844 Z M 43.941406 15.824219 "/>
<path style=" stroke:none;fill-rule:nonzero;fill:rgb(0%,0%,0%);fill-opacity:1;" d="M 32.765625 27.304688 L 31.097656 28.945312 C 30.765625 29.257812 30.757812 29.777344 31.078125 30.101562 C 31.398438 30.429688 31.925781 30.4375 32.253906 30.125 C 32.261719 30.117188 32.269531 30.109375 32.277344 30.101562 L 33.941406 28.464844 C 34.257812 28.140625 34.253906 27.628906 33.933594 27.3125 C 33.609375 26.996094 33.089844 26.992188 32.765625 27.304688 Z M 32.765625 27.304688 "/>
<path style=" stroke:none;fill-rule:nonzero;fill:rgb(0%,0%,0%);fill-opacity:1;" d="M 15.265625 24.023438 L 13.597656 25.664062 C 13.265625 25.980469 13.257812 26.496094 13.578125 26.824219 C 13.898438 27.148438 14.425781 27.15625 14.753906 26.84375 C 14.761719 26.835938 14.769531 26.832031 14.777344 26.824219 L 16.441406 25.183594 C 16.757812 24.859375 16.753906 24.351562 16.433594 24.035156 C 16.109375 23.71875 15.589844 23.710938 15.265625 24.023438 Z M 15.265625 24.023438 "/>
<path style=" stroke:none;fill-rule:nonzero;fill:rgb(0%,0%,0%);fill-opacity:1;" d="M 26.441406 26.484375 L 24.777344 24.84375 C 24.449219 24.53125 23.929688 24.539062 23.609375 24.855469 C 23.285156 25.171875 23.28125 25.683594 23.597656 26.003906 L 25.265625 27.644531 C 25.589844 27.953125 26.109375 27.949219 26.433594 27.632812 C 26.753906 27.316406 26.757812 26.804688 26.441406 26.484375 Z M 26.441406 26.484375 "/>
<path style=" stroke:none;fill-rule:nonzero;fill:rgb(0%,0%,0%);fill-opacity:1;" d="M 31.828125 9.480469 C 32.082031 9.855469 32.597656 9.957031 32.984375 9.707031 C 33.367188 9.453125 33.46875 8.945312 33.214844 8.570312 L 31.546875 6.109375 C 31.292969 5.730469 30.773438 5.628906 30.390625 5.882812 C 30.007812 6.132812 29.90625 6.640625 30.160156 7.019531 Z M 31.828125 9.480469 "/>
<path style=" stroke:none;fill-rule:nonzero;fill:rgb(0%,0%,0%);fill-opacity:1;" d="M 18.941406 28.945312 C 18.703125 28.710938 18.347656 28.640625 18.035156 28.765625 C 17.722656 28.894531 17.519531 29.191406 17.519531 29.523438 L 17.519531 33.625 C 17.519531 34.078125 17.894531 34.445312 18.351562 34.445312 L 22.519531 34.445312 C 22.855469 34.445312 23.160156 34.242188 23.289062 33.9375 C 23.417969 33.632812 23.347656 33.277344 23.109375 33.042969 Z M 19.1875 32.804688 L 19.1875 31.503906 L 20.507812 32.804688 Z M 19.1875 32.804688 "/>
<path style=" stroke:none;fill-rule:nonzero;fill:rgb(0%,0%,0%);fill-opacity:1;" d="M 8.867188 22.082031 C 9.179688 22.207031 9.539062 22.136719 9.777344 21.902344 L 13.941406 17.804688 C 14.179688 17.570312 14.253906 17.214844 14.125 16.910156 C 13.992188 16.605469 13.691406 16.402344 13.351562 16.402344 L 9.1875 16.402344 C 8.726562 16.402344 8.351562 16.769531 8.351562 17.222656 L 8.351562 21.324219 C 8.351562 21.65625 8.554688 21.953125 8.867188 22.082031 Z M 10.019531 18.042969 L 11.339844 18.042969 L 10.019531 19.34375 Z M 10.019531 18.042969 "/>
</g>
</svg>
