<?xml version="1.0" encoding="UTF-8"?>
<svg xmlns="http://www.w3.org/2000/svg" xmlns:xlink="http://www.w3.org/1999/xlink" width="50" height="50" viewBox="0 0 50 50" version="1.1">
<g id="surface1">
<path style=" stroke:none;fill-rule:nonzero;fill:rgb(94.117647%,85.882353%,76.078431%);fill-opacity:1;" d="M 0 22.882812 L 50.03125 22.882812 L 50.03125 44.914062 C 50.03125 47.722656 47.714844 50 44.855469 50 L 0 50 Z M 0 22.882812 "/>
<path style=" stroke:none;fill-rule:nonzero;fill:rgb(94.901961%,72.54902%,72.156863%);fill-opacity:1;" d="M 0 27.964844 L 42.269531 27.964844 C 43.699219 27.964844 44.855469 29.105469 44.855469 30.507812 L 44.855469 42.375 C 44.855469 43.777344 43.699219 44.914062 42.269531 44.914062 L 0 44.914062 Z M 0 27.964844 "/>
<path style=" stroke:none;fill-rule:nonzero;fill:rgb(94.901961%,72.54902%,72.156863%);fill-opacity:1;" d="M 0 27.964844 L 42.269531 27.964844 C 43.699219 27.964844 44.855469 29.105469 44.855469 30.507812 L 44.855469 42.375 C 44.855469 43.777344 43.699219 44.914062 42.269531 44.914062 L 0 44.914062 Z M 0 27.964844 "/>
<path style=" stroke:none;fill-rule:nonzero;fill:rgb(94.901961%,61.176471%,60.784314%);fill-opacity:1;" d="M 0 22.882812 L 30.191406 5.085938 C 40.460938 5.085938 49.046875 12.757812 50.023438 22.800781 L 50.03125 22.882812 Z M 0 22.882812 "/>
<path style=" stroke:none;fill-rule:nonzero;fill:rgb(94.117647%,38.039216%,29.019608%);fill-opacity:1;" d="M 44.855469 9.320312 C 44.855469 12.128906 42.539062 14.40625 39.679688 14.40625 C 36.820312 14.40625 34.503906 12.128906 34.503906 9.320312 C 34.503906 6.515625 36.820312 4.238281 39.679688 4.238281 C 42.539062 4.238281 44.855469 6.515625 44.855469 9.320312 Z M 44.855469 9.320312 "/>
<path style=" stroke:none;fill-rule:nonzero;fill:rgb(91.764706%,32.156863%,25.882353%);fill-opacity:1;" d="M 42.257812 4.914062 C 42.132812 8.695312 39.042969 11.730469 35.195312 11.851562 C 36.277344 13.714844 38.429688 14.707031 40.578125 14.339844 C 42.730469 13.96875 44.410156 12.316406 44.789062 10.207031 C 45.164062 8.09375 44.152344 5.976562 42.257812 4.914062 Z M 42.257812 4.914062 "/>
<path style=" stroke:none;fill-rule:nonzero;fill:rgb(58.823529%,34.117647%,20.784314%);fill-opacity:1;" d="M 40.542969 7.625 L 38.816406 7.625 C 38.824219 3.417969 42.296875 0.00390625 46.582031 0 L 46.582031 1.695312 C 43.25 1.699219 40.546875 4.351562 40.542969 7.625 Z M 40.542969 7.625 "/>
<path style=" stroke:none;fill-rule:nonzero;fill:rgb(58.823529%,34.117647%,20.784314%);fill-opacity:1;" d="M 32.527344 10.417969 L 31.308594 11.617188 L 28.71875 9.074219 L 29.9375 7.875 Z M 32.527344 10.417969 "/>
<path style=" stroke:none;fill-rule:nonzero;fill:rgb(58.823529%,34.117647%,20.784314%);fill-opacity:1;" d="M 23.039062 14.15625 L 20.453125 16.699219 L 19.230469 15.503906 L 21.820312 12.960938 Z M 23.039062 14.15625 "/>
<path style=" stroke:none;fill-rule:nonzero;fill:rgb(58.823529%,34.117647%,20.784314%);fill-opacity:1;" d="M 26.488281 18.894531 L 25.269531 20.089844 L 22.679688 17.550781 L 23.902344 16.351562 Z M 26.488281 18.894531 "/>
<path style=" stroke:none;fill-rule:nonzero;fill:rgb(58.823529%,34.117647%,20.784314%);fill-opacity:1;" d="M 30.800781 14.160156 L 28.214844 16.703125 L 26.992188 15.503906 L 29.582031 12.960938 Z M 30.800781 14.160156 "/>
<path style=" stroke:none;fill-rule:nonzero;fill:rgb(58.823529%,34.117647%,20.784314%);fill-opacity:1;" d="M 45.464844 17.546875 L 42.878906 20.089844 L 41.660156 18.890625 L 44.246094 16.347656 Z M 45.464844 17.546875 "/>
<path style=" stroke:none;fill-rule:nonzero;fill:rgb(58.823529%,34.117647%,20.784314%);fill-opacity:1;" d="M 35.976562 17.546875 L 33.390625 20.089844 L 32.171875 18.890625 L 34.757812 16.351562 Z M 35.976562 17.546875 "/>
<path style=" stroke:none;fill-rule:nonzero;fill:rgb(58.823529%,34.117647%,20.784314%);fill-opacity:1;" d="M 17 17.550781 L 14.410156 20.09375 L 13.191406 18.894531 L 15.78125 16.355469 Z M 17 17.550781 "/>
<path style=" stroke:none;fill-rule:nonzero;fill:rgb(92.156863%,82.745098%,71.764706%);fill-opacity:1;" d="M 31.644531 27.964844 L 42.269531 27.964844 C 43.699219 27.964844 44.855469 29.105469 44.855469 30.507812 L 44.855469 42.375 C 44.855469 43.777344 43.699219 44.914062 42.269531 44.914062 L 11.667969 44.914062 L 5.675781 50 L 44.855469 50 C 47.714844 50 50.03125 47.722656 50.03125 44.914062 L 50.03125 22.882812 L 37.636719 22.882812 Z M 31.644531 27.964844 "/>
<path style=" stroke:none;fill-rule:nonzero;fill:rgb(94.901961%,68.235294%,67.45098%);fill-opacity:1;" d="M 42.269531 44.914062 C 43.699219 44.914062 44.855469 43.777344 44.855469 42.375 L 44.855469 30.507812 C 44.855469 29.105469 43.699219 27.964844 42.269531 27.964844 L 31.644531 27.964844 L 11.667969 44.914062 Z M 42.269531 44.914062 "/>
<path style=" stroke:none;fill-rule:nonzero;fill:rgb(94.901961%,52.54902%,52.156863%);fill-opacity:1;" d="M 0 35.59375 L 44.855469 35.59375 L 44.855469 37.289062 L 0 37.289062 Z M 0 35.59375 "/>
</g>
</svg>
