<?xml version="1.0" encoding="UTF-8"?>
<svg xmlns="http://www.w3.org/2000/svg" xmlns:xlink="http://www.w3.org/1999/xlink" width="50" height="91" viewBox="0 0 50 91" version="1.1">
<g id="surface1">
<path style=" stroke:none;fill-rule:nonzero;fill:rgb(100%,76.078431%,60%);fill-opacity:1;" d="M 42.875 40.324219 L 38.316406 53.679688 L 36.722656 58.355469 L 35.804688 61.046875 L 33.777344 67 L 32.855469 69.695312 L 30.78125 75.792969 L 29.863281 78.484375 L 27.785156 84.578125 L 26.867188 87.273438 L 25.945312 89.972656 C 25.738281 90.585938 25.160156 91 24.507812 91 C 23.859375 91 23.28125 90.585938 23.070312 89.972656 L 21.363281 84.964844 L 20.144531 81.394531 L 17.363281 73.234375 L 16.125 69.59375 L 16.125 69.589844 L 13.367188 61.503906 L 12.132812 57.886719 L 10.644531 53.519531 L 6.144531 40.324219 Z M 42.875 40.324219 "/>
<path style=" stroke:none;fill-rule:nonzero;fill:rgb(100%,60.392157%,33.333333%);fill-opacity:1;" d="M 42.871094 40.324219 L 38.316406 53.679688 C 37.589844 53.773438 36.855469 53.816406 36.121094 53.816406 C 32.042969 53.820312 28.09375 52.371094 24.984375 49.730469 C 24.90625 49.796875 24.824219 49.863281 24.746094 49.929688 C 20.804688 53.144531 15.644531 54.457031 10.644531 53.519531 L 6.144531 40.324219 Z M 42.871094 40.324219 "/>
<path style=" stroke:none;fill-rule:nonzero;fill:rgb(100%,60.392157%,33.333333%);fill-opacity:1;" d="M 36.722656 58.355469 L 35.804688 61.046875 C 35.773438 61.039062 35.738281 61.023438 35.707031 61.011719 L 13.933594 51.703125 C 13.234375 51.378906 12.917969 50.558594 13.222656 49.851562 C 13.527344 49.144531 14.335938 48.808594 15.054688 49.089844 Z M 36.722656 58.355469 "/>
<path style=" stroke:none;fill-rule:nonzero;fill:rgb(56.078431%,89.803922%,84.705882%);fill-opacity:1;" d="M 39.257812 16.054688 C 39.253906 24.363281 32.894531 31.289062 24.609375 32.019531 C 16.320312 32.746094 8.851562 27.035156 7.390625 18.855469 C 5.929688 10.675781 10.964844 2.734375 18.996094 0.558594 C 27.023438 -1.617188 35.386719 2.691406 38.265625 10.484375 C 38.921875 12.269531 39.257812 14.152344 39.257812 16.054688 Z M 39.257812 16.054688 "/>
<path style=" stroke:none;fill-rule:nonzero;fill:rgb(38.823529%,80.784314%,75.686275%);fill-opacity:1;" d="M 38.210938 18.441406 C 33.46875 18.433594 28.878906 20.121094 25.269531 23.191406 C 20.332031 19.003906 13.671875 17.460938 7.398438 19.054688 C 8.863281 26.738281 15.660156 32.25 23.488281 32.105469 C 31.320312 31.957031 37.90625 26.195312 39.078125 18.460938 C 38.792969 18.445312 38.5 18.441406 38.210938 18.441406 Z M 38.210938 18.441406 "/>
<path style=" stroke:none;fill-rule:nonzero;fill:rgb(100%,65.098039%,71.764706%);fill-opacity:1;" d="M 38.265625 10.484375 L 30.375 10.484375 C 29.285156 10.484375 28.398438 11.371094 28.398438 12.460938 L 28.398438 13.121094 C 28.398438 14.363281 27.386719 15.375 26.140625 15.375 C 24.898438 15.375 23.886719 14.363281 23.886719 13.121094 L 23.886719 9.738281 C 23.886719 8.566406 22.933594 7.617188 21.761719 7.617188 C 20.589844 7.617188 19.636719 8.566406 19.636719 9.738281 L 19.636719 17.386719 C 19.636719 18.476562 18.75 19.363281 17.660156 19.363281 C 16.566406 19.363281 15.679688 18.476562 15.679688 17.386719 L 15.679688 12.460938 C 15.679688 11.371094 14.796875 10.484375 13.703125 10.488281 L 8.109375 10.484375 C 10.445312 4.183594 16.460938 0 23.1875 0 C 29.914062 0 35.929688 4.183594 38.265625 10.484375 Z M 38.265625 10.484375 "/>
<path style=" stroke:none;fill-rule:nonzero;fill:rgb(100%,78.823529%,53.333333%);fill-opacity:1;" d="M 27.675781 36.59375 C 27.675781 43.058594 23.1875 48.660156 16.875 50.078125 C 10.5625 51.5 4.105469 48.359375 1.332031 42.519531 C -1.441406 36.675781 0.207031 29.695312 5.304688 25.710938 C 10.398438 21.726562 17.578125 21.800781 22.589844 25.890625 C 25.8125 28.511719 27.679688 32.445312 27.675781 36.59375 Z M 27.675781 36.59375 "/>
<path style=" stroke:none;fill-rule:nonzero;fill:rgb(100%,71.372549%,30.196078%);fill-opacity:1;" d="M 27.675781 36.59375 C 27.679688 40.742188 25.8125 44.675781 22.589844 47.296875 C 17.617188 41.023438 17.617188 32.160156 22.589844 25.890625 C 25.8125 28.511719 27.679688 32.445312 27.675781 36.59375 Z M 27.675781 36.59375 "/>
<path style=" stroke:none;fill-rule:nonzero;fill:rgb(76.862745%,78.431373%,96.862745%);fill-opacity:1;" d="M 49.960938 36.59375 C 49.960938 44.226562 43.765625 50.417969 36.121094 50.417969 C 28.480469 50.417969 22.285156 44.226562 22.285156 36.59375 C 22.285156 28.960938 28.480469 22.769531 36.121094 22.769531 C 43.765625 22.769531 49.960938 28.960938 49.960938 36.59375 Z M 49.960938 36.59375 "/>
<path style=" stroke:none;fill-rule:nonzero;fill:rgb(65.098039%,68.235294%,94.901961%);fill-opacity:1;" d="M 40.910156 33.398438 L 40.652344 33.398438 C 40.136719 33.414062 39.652344 33.148438 39.386719 32.699219 C 39.125 32.253906 39.125 31.703125 39.386719 31.257812 C 39.652344 30.8125 40.136719 30.542969 40.652344 30.558594 L 40.910156 30.558594 C 41.429688 30.542969 41.914062 30.8125 42.175781 31.257812 C 42.4375 31.703125 42.4375 32.253906 42.175781 32.699219 C 41.914062 33.148438 41.429688 33.414062 40.910156 33.398438 Z M 40.910156 33.398438 "/>
<path style=" stroke:none;fill-rule:nonzero;fill:rgb(65.098039%,68.235294%,94.901961%);fill-opacity:1;" d="M 43.753906 37.449219 L 43.496094 37.449219 C 42.980469 37.464844 42.496094 37.195312 42.230469 36.75 C 41.96875 36.304688 41.96875 35.753906 42.230469 35.308594 C 42.496094 34.863281 42.980469 34.59375 43.496094 34.609375 L 43.753906 34.609375 C 44.273438 34.59375 44.757812 34.863281 45.019531 35.308594 C 45.285156 35.753906 45.285156 36.304688 45.019531 36.75 C 44.757812 37.195312 44.273438 37.464844 43.753906 37.449219 Z M 43.753906 37.449219 "/>
<path style=" stroke:none;fill-rule:nonzero;fill:rgb(100%,71.372549%,30.196078%);fill-opacity:1;" d="M 9.832031 44.609375 L 9.574219 44.609375 C 9.058594 44.625 8.574219 44.359375 8.308594 43.914062 C 8.046875 43.464844 8.046875 42.914062 8.308594 42.46875 C 8.574219 42.023438 9.058594 41.753906 9.574219 41.769531 L 9.832031 41.769531 C 10.351562 41.753906 10.835938 42.023438 11.097656 42.46875 C 11.363281 42.914062 11.363281 43.464844 11.097656 43.914062 C 10.835938 44.359375 10.351562 44.625 9.832031 44.609375 Z M 9.832031 44.609375 "/>
<path style=" stroke:none;fill-rule:nonzero;fill:rgb(100%,60.392157%,33.333333%);fill-opacity:1;" d="M 33.777344 67 L 32.859375 69.695312 C 32.824219 69.6875 32.796875 69.675781 32.765625 69.660156 L 21.734375 65.023438 C 21.015625 64.714844 20.683594 63.886719 20.984375 63.167969 C 21.289062 62.449219 22.117188 62.105469 22.839844 62.402344 Z M 33.777344 67 "/>
<path style=" stroke:none;fill-rule:nonzero;fill:rgb(100%,60.392157%,33.333333%);fill-opacity:1;" d="M 18.066406 61.9375 C 17.921875 62.285156 17.644531 62.5625 17.292969 62.703125 C 16.945312 62.847656 16.550781 62.84375 16.203125 62.699219 L 13.367188 61.503906 L 12.132812 57.886719 L 17.308594 60.078125 C 17.65625 60.222656 17.933594 60.503906 18.074219 60.851562 C 18.21875 61.199219 18.214844 61.59375 18.066406 61.9375 Z M 18.066406 61.9375 "/>
<path style=" stroke:none;fill-rule:nonzero;fill:rgb(100%,60.392157%,33.333333%);fill-opacity:1;" d="M 30.78125 75.792969 L 29.863281 78.484375 C 29.832031 78.472656 29.796875 78.464844 29.769531 78.449219 L 17.367188 73.234375 L 16.125 69.59375 C 16.714844 69.855469 17.183594 70.0625 17.359375 70.148438 Z M 30.78125 75.792969 "/>
<path style=" stroke:none;fill-rule:nonzero;fill:rgb(100%,60.392157%,33.333333%);fill-opacity:1;" d="M 27.785156 84.578125 L 26.867188 87.273438 C 26.835938 87.265625 26.800781 87.253906 26.773438 87.238281 L 21.363281 84.964844 L 21.363281 84.960938 L 20.144531 81.394531 Z M 27.785156 84.578125 "/>
<path style=" stroke:none;fill-rule:nonzero;fill:rgb(76.862745%,78.431373%,96.862745%);fill-opacity:1;" d="M 29.066406 43.410156 L 29.066406 50.082031 C 29.066406 52.003906 30.628906 53.5625 32.550781 53.5625 C 34.476562 53.5625 36.035156 52.003906 36.035156 50.082031 L 36.035156 50.007812 C 36.035156 49.066406 36.800781 48.304688 37.738281 48.304688 C 38.679688 48.304688 39.441406 49.066406 39.441406 50.007812 L 39.441406 56.980469 C 39.441406 58.683594 40.824219 60.0625 42.53125 60.0625 C 44.234375 60.0625 45.617188 58.683594 45.617188 56.980469 L 45.617188 38.914062 Z M 29.066406 43.410156 "/>
</g>
</svg>
