<?xml version="1.0" encoding="UTF-8"?>
<svg xmlns="http://www.w3.org/2000/svg" xmlns:xlink="http://www.w3.org/1999/xlink" width="50" height="45" viewBox="0 0 50 45" version="1.1">
<defs>
<linearGradient id="linear0" gradientUnits="userSpaceOnUse" x1="0.448" y1="0.353" x2="0.647" y2="1.261" gradientTransform="matrix(33.105469,0,0,27.726562,0,5.75)">
<stop offset="0" style="stop-color:rgb(54.901961%,38.431373%,22.352941%);stop-opacity:1;"/>
<stop offset="1" style="stop-color:rgb(25.882353%,12.941176%,4.313725%);stop-opacity:1;"/>
</linearGradient>
<linearGradient id="linear1" gradientUnits="userSpaceOnUse" x1="0.478" y1="0.359" x2="0.658" y2="1.53" gradientTransform="matrix(29.375,0,0,14.429688,1.863281,5.75)">
<stop offset="0" style="stop-color:rgb(54.901961%,38.431373%,22.352941%);stop-opacity:1;"/>
<stop offset="1" style="stop-color:rgb(25.882353%,12.941176%,4.313725%);stop-opacity:1;"/>
</linearGradient>
<linearGradient id="linear2" gradientUnits="userSpaceOnUse" x1="0.574" y1="0.664" x2="0.356" y2="0.043" gradientTransform="matrix(29.507812,0,0,32.585938,3.597656,0)">
<stop offset="0" style="stop-color:rgb(25.882353%,12.941176%,4.313725%);stop-opacity:0;"/>
<stop offset="1" style="stop-color:rgb(25.882353%,12.941176%,4.313725%);stop-opacity:1;"/>
</linearGradient>
<linearGradient id="linear3" gradientUnits="userSpaceOnUse" x1="0.462" y1="0.362" x2="0.627" y2="1.288" gradientTransform="matrix(25.90625,0,0,17.664062,3.597656,0)">
<stop offset="0" style="stop-color:rgb(54.901961%,38.431373%,22.352941%);stop-opacity:1;"/>
<stop offset="1" style="stop-color:rgb(25.882353%,12.941176%,4.313725%);stop-opacity:1;"/>
</linearGradient>
<linearGradient id="linear4" gradientUnits="userSpaceOnUse" x1="0.403" y1="0.429" x2="0.116" y2="0.22" gradientTransform="matrix(16.710938,0,0,13.527344,5.113281,0.167969)">
<stop offset="0" style="stop-color:rgb(25.882353%,12.941176%,4.313725%);stop-opacity:0;"/>
<stop offset="1" style="stop-color:rgb(25.882353%,12.941176%,4.313725%);stop-opacity:1;"/>
</linearGradient>
<linearGradient id="linear5" gradientUnits="userSpaceOnUse" x1="0.415" y1="0.145" x2="0.573" y2="0.797" gradientTransform="matrix(14.21875,0,0,11.039062,5.113281,0.164062)">
<stop offset="0" style="stop-color:rgb(97.254902%,92.156863%,88.235294%);stop-opacity:1;"/>
<stop offset="1" style="stop-color:rgb(98.431373%,81.960784%,63.529412%);stop-opacity:1;"/>
</linearGradient>
<linearGradient id="linear6" gradientUnits="userSpaceOnUse" x1="0.425" y1="0.439" x2="0.13" y2="0.208" gradientTransform="matrix(15.46875,0,0,15.070312,8.042969,0.574219)">
<stop offset="0" style="stop-color:rgb(25.882353%,12.941176%,4.313725%);stop-opacity:0;"/>
<stop offset="1" style="stop-color:rgb(25.882353%,12.941176%,4.313725%);stop-opacity:1;"/>
</linearGradient>
<linearGradient id="linear7" gradientUnits="userSpaceOnUse" x1="0.391" y1="0.135" x2="0.601" y2="0.829" gradientTransform="matrix(12.550781,0,0,12.171875,8.042969,0.574219)">
<stop offset="0" style="stop-color:rgb(97.254902%,92.156863%,88.235294%);stop-opacity:1;"/>
<stop offset="1" style="stop-color:rgb(98.431373%,81.960784%,63.529412%);stop-opacity:1;"/>
</linearGradient>
<linearGradient id="linear8" gradientUnits="userSpaceOnUse" x1="0.459" y1="0.474" x2="0.098" y2="0.202" gradientTransform="matrix(15.878906,0,0,14.523438,11.183594,1.8125)">
<stop offset="0" style="stop-color:rgb(25.882353%,12.941176%,4.313725%);stop-opacity:0;"/>
<stop offset="1" style="stop-color:rgb(25.882353%,12.941176%,4.313725%);stop-opacity:1;"/>
</linearGradient>
<linearGradient id="linear9" gradientUnits="userSpaceOnUse" x1="0.392" y1="0.121" x2="0.589" y2="0.82" gradientTransform="matrix(12.929688,0,0,11.589844,11.183594,1.8125)">
<stop offset="0" style="stop-color:rgb(97.254902%,92.156863%,88.235294%);stop-opacity:1;"/>
<stop offset="1" style="stop-color:rgb(98.431373%,81.960784%,63.529412%);stop-opacity:1;"/>
</linearGradient>
<linearGradient id="linear10" gradientUnits="userSpaceOnUse" x1="0.511" y1="0.504" x2="-0.009" y2="0.21" gradientTransform="matrix(12.066406,0,0,14.519531,16.535156,3.023438)">
<stop offset="0" style="stop-color:rgb(25.882353%,12.941176%,4.313725%);stop-opacity:0;"/>
<stop offset="1" style="stop-color:rgb(25.882353%,12.941176%,4.313725%);stop-opacity:1;"/>
</linearGradient>
<linearGradient id="linear11" gradientUnits="userSpaceOnUse" x1="0.346" y1="0.109" x2="0.645" y2="0.864" gradientTransform="matrix(9.203125,0,0,11.617187,16.535156,3.023438)">
<stop offset="0" style="stop-color:rgb(97.254902%,92.156863%,88.235294%);stop-opacity:1;"/>
<stop offset="1" style="stop-color:rgb(98.431373%,81.960784%,63.529412%);stop-opacity:1;"/>
</linearGradient>
<linearGradient id="linear12" gradientUnits="userSpaceOnUse" x1="0.669" y1="0.566" x2="-0.157" y2="0.263" gradientTransform="matrix(9.628906,0,0,12.460938,19.875,4.730469)">
<stop offset="0" style="stop-color:rgb(25.882353%,12.941176%,4.313725%);stop-opacity:0;"/>
<stop offset="1" style="stop-color:rgb(25.882353%,12.941176%,4.313725%);stop-opacity:1;"/>
</linearGradient>
<linearGradient id="linear13" gradientUnits="userSpaceOnUse" x1="0.329" y1="0.095" x2="0.647" y2="0.873" gradientTransform="matrix(7.898437,0,0,10.304688,19.875,4.730469)">
<stop offset="0" style="stop-color:rgb(97.254902%,92.156863%,88.235294%);stop-opacity:1;"/>
<stop offset="1" style="stop-color:rgb(98.431373%,81.960784%,63.529412%);stop-opacity:1;"/>
</linearGradient>
<linearGradient id="linear14" gradientUnits="userSpaceOnUse" x1="0.448" y1="0.353" x2="0.647" y2="1.261" gradientTransform="matrix(33.105469,0,0,27.726562,16.894531,17.25)">
<stop offset="0" style="stop-color:rgb(54.901961%,38.431373%,22.352941%);stop-opacity:1;"/>
<stop offset="1" style="stop-color:rgb(25.882353%,12.941176%,4.313725%);stop-opacity:1;"/>
</linearGradient>
<linearGradient id="linear15" gradientUnits="userSpaceOnUse" x1="0.478" y1="0.359" x2="0.658" y2="1.53" gradientTransform="matrix(29.371094,0,0,14.429688,18.761719,17.25)">
<stop offset="0" style="stop-color:rgb(54.901961%,38.431373%,22.352941%);stop-opacity:1;"/>
<stop offset="1" style="stop-color:rgb(25.882353%,12.941176%,4.313725%);stop-opacity:1;"/>
</linearGradient>
<linearGradient id="linear16" gradientUnits="userSpaceOnUse" x1="0.574" y1="0.664" x2="0.356" y2="0.043" gradientTransform="matrix(29.503906,0,0,32.589844,20.496094,11.5)">
<stop offset="0" style="stop-color:rgb(25.882353%,12.941176%,4.313725%);stop-opacity:0;"/>
<stop offset="1" style="stop-color:rgb(25.882353%,12.941176%,4.313725%);stop-opacity:1;"/>
</linearGradient>
<linearGradient id="linear17" gradientUnits="userSpaceOnUse" x1="0.462" y1="0.362" x2="0.627" y2="1.288" gradientTransform="matrix(25.90625,0,0,17.664062,20.496094,11.5)">
<stop offset="0" style="stop-color:rgb(54.901961%,38.431373%,22.352941%);stop-opacity:1;"/>
<stop offset="1" style="stop-color:rgb(25.882353%,12.941176%,4.313725%);stop-opacity:1;"/>
</linearGradient>
<linearGradient id="linear18" gradientUnits="userSpaceOnUse" x1="0.403" y1="0.429" x2="0.116" y2="0.22" gradientTransform="matrix(16.714844,0,0,13.527344,22.007813,11.667969)">
<stop offset="0" style="stop-color:rgb(25.882353%,12.941176%,4.313725%);stop-opacity:0;"/>
<stop offset="1" style="stop-color:rgb(25.882353%,12.941176%,4.313725%);stop-opacity:1;"/>
</linearGradient>
<linearGradient id="linear19" gradientUnits="userSpaceOnUse" x1="0.415" y1="0.145" x2="0.573" y2="0.797" gradientTransform="matrix(14.214844,0,0,11.035156,22.011719,11.667969)">
<stop offset="0" style="stop-color:rgb(97.254902%,92.156863%,88.235294%);stop-opacity:1;"/>
<stop offset="1" style="stop-color:rgb(98.431373%,81.960784%,63.529412%);stop-opacity:1;"/>
</linearGradient>
<linearGradient id="linear20" gradientUnits="userSpaceOnUse" x1="0.425" y1="0.439" x2="0.13" y2="0.208" gradientTransform="matrix(15.46875,0,0,15.070312,24.9375,12.074219)">
<stop offset="0" style="stop-color:rgb(25.882353%,12.941176%,4.313725%);stop-opacity:0;"/>
<stop offset="1" style="stop-color:rgb(25.882353%,12.941176%,4.313725%);stop-opacity:1;"/>
</linearGradient>
<linearGradient id="linear21" gradientUnits="userSpaceOnUse" x1="0.391" y1="0.135" x2="0.601" y2="0.829" gradientTransform="matrix(12.554687,0,0,12.171875,24.9375,12.074219)">
<stop offset="0" style="stop-color:rgb(97.254902%,92.156863%,88.235294%);stop-opacity:1;"/>
<stop offset="1" style="stop-color:rgb(98.431373%,81.960784%,63.529412%);stop-opacity:1;"/>
</linearGradient>
<linearGradient id="linear22" gradientUnits="userSpaceOnUse" x1="0.459" y1="0.474" x2="0.098" y2="0.202" gradientTransform="matrix(15.878906,0,0,14.527344,28.082031,13.3125)">
<stop offset="0" style="stop-color:rgb(25.882353%,12.941176%,4.313725%);stop-opacity:0;"/>
<stop offset="1" style="stop-color:rgb(25.882353%,12.941176%,4.313725%);stop-opacity:1;"/>
</linearGradient>
<linearGradient id="linear23" gradientUnits="userSpaceOnUse" x1="0.392" y1="0.121" x2="0.589" y2="0.82" gradientTransform="matrix(12.933594,0,0,11.59375,28.078125,13.3125)">
<stop offset="0" style="stop-color:rgb(97.254902%,92.156863%,88.235294%);stop-opacity:1;"/>
<stop offset="1" style="stop-color:rgb(98.431373%,81.960784%,63.529412%);stop-opacity:1;"/>
</linearGradient>
<linearGradient id="linear24" gradientUnits="userSpaceOnUse" x1="0.511" y1="0.504" x2="-0.009" y2="0.21" gradientTransform="matrix(12.070312,0,0,14.519531,33.429687,14.523437)">
<stop offset="0" style="stop-color:rgb(25.882353%,12.941176%,4.313725%);stop-opacity:0;"/>
<stop offset="1" style="stop-color:rgb(25.882353%,12.941176%,4.313725%);stop-opacity:1;"/>
</linearGradient>
<linearGradient id="linear25" gradientUnits="userSpaceOnUse" x1="0.346" y1="0.109" x2="0.645" y2="0.864" gradientTransform="matrix(9.203125,0,0,11.617187,33.429688,14.523438)">
<stop offset="0" style="stop-color:rgb(97.254902%,92.156863%,88.235294%);stop-opacity:1;"/>
<stop offset="1" style="stop-color:rgb(98.431373%,81.960784%,63.529412%);stop-opacity:1;"/>
</linearGradient>
<linearGradient id="linear26" gradientUnits="userSpaceOnUse" x1="0.669" y1="0.566" x2="-0.157" y2="0.263" gradientTransform="matrix(9.628906,0,0,12.460937,36.769531,16.234375)">
<stop offset="0" style="stop-color:rgb(25.882353%,12.941176%,4.313725%);stop-opacity:0;"/>
<stop offset="1" style="stop-color:rgb(25.882353%,12.941176%,4.313725%);stop-opacity:1;"/>
</linearGradient>
<linearGradient id="linear27" gradientUnits="userSpaceOnUse" x1="0.329" y1="0.095" x2="0.647" y2="0.873" gradientTransform="matrix(7.898438,0,0,10.304688,36.769531,16.230469)">
<stop offset="0" style="stop-color:rgb(97.254902%,92.156863%,88.235294%);stop-opacity:1;"/>
<stop offset="1" style="stop-color:rgb(98.431373%,81.960784%,63.529412%);stop-opacity:1;"/>
</linearGradient>
<linearGradient id="linear28" gradientUnits="userSpaceOnUse" x1="0.732" y1="1.206" x2="0.157" y2="-0.084" gradientTransform="matrix(18.117188,0,0,29.214844,29.8125,14.761719)">
<stop offset="0" style="stop-color:rgb(54.901961%,38.431373%,22.352941%);stop-opacity:1;"/>
<stop offset="1" style="stop-color:rgb(25.882353%,12.941176%,4.313725%);stop-opacity:1;"/>
</linearGradient>
<linearGradient id="linear29" gradientUnits="userSpaceOnUse" x1="1.258" y1="0.5" x2="0" y2="0.5" gradientTransform="matrix(16.175781,0,0,27.652344,30.84375,15.769531)">
<stop offset="0" style="stop-color:rgb(97.254902%,92.156863%,88.235294%);stop-opacity:1;"/>
<stop offset="1" style="stop-color:rgb(98.431373%,81.960784%,63.529412%);stop-opacity:1;"/>
</linearGradient>
<linearGradient id="linear30" gradientUnits="userSpaceOnUse" x1="0.485" y1="0.466" x2="0.377" y2="0.088" gradientTransform="matrix(16.175781,0,0,17.917969,30.84375,25.503906)">
<stop offset="0" style="stop-color:rgb(97.254902%,92.156863%,88.235294%);stop-opacity:0;"/>
<stop offset="1" style="stop-color:rgb(98.431373%,81.960784%,63.529412%);stop-opacity:1;"/>
</linearGradient>
<linearGradient id="linear31" gradientUnits="userSpaceOnUse" x1="0.585" y1="0.79" x2="0.409" y2="0.117" gradientTransform="matrix(16.175781,0,0,16.164063,30.84375,27.257812)">
<stop offset="0" style="stop-color:rgb(97.254902%,92.156863%,88.235294%);stop-opacity:0;"/>
<stop offset="1" style="stop-color:rgb(98.431373%,81.960784%,63.529412%);stop-opacity:1;"/>
</linearGradient>
<linearGradient id="linear32" gradientUnits="userSpaceOnUse" x1="0.148" y1="0.516" x2="0.839" y2="0.472" gradientTransform="matrix(10.796875,0,0,18.460938,34.636719,20.917969)">
<stop offset="0" style="stop-color:rgb(97.254902%,92.156863%,88.235294%);stop-opacity:0;"/>
<stop offset="1" style="stop-color:rgb(98.431373%,81.960784%,63.529412%);stop-opacity:1;"/>
</linearGradient>
<radialGradient id="radial0" gradientUnits="userSpaceOnUse" cx="1.047" cy="0.406" fx="1.047" fy="0.406" r="0.957" gradientTransform="matrix(15.071719,0,0,14.824219,32.503203,22.753906)">
<stop offset="0" style="stop-color:rgb(98.039216%,64.313725%,74.117647%);stop-opacity:1;"/>
<stop offset="0.231" style="stop-color:rgb(97.254902%,63.137255%,73.72549%);stop-opacity:1;"/>
<stop offset="0.405" style="stop-color:rgb(94.117647%,59.215686%,72.156863%);stop-opacity:1;"/>
<stop offset="0.562" style="stop-color:rgb(88.627451%,52.941176%,69.803922%);stop-opacity:1;"/>
<stop offset="0.707" style="stop-color:rgb(81.176471%,43.921569%,66.666667%);stop-opacity:1;"/>
<stop offset="0.844" style="stop-color:rgb(71.764706%,32.54902%,62.352941%);stop-opacity:1;"/>
<stop offset="0.975" style="stop-color:rgb(60%,18.431373%,57.254902%);stop-opacity:1;"/>
<stop offset="1" style="stop-color:rgb(57.647059%,15.294118%,56.078431%);stop-opacity:1;"/>
</radialGradient>
<linearGradient id="linear33" gradientUnits="userSpaceOnUse" x1="0.507" y1="0.578" x2="-1.015" y2="0.209" gradientTransform="matrix(13.082031,0,0,14.199219,30.84375,29.222656)">
<stop offset="0" style="stop-color:rgb(74.509804%,24.705882%,27.058824%);stop-opacity:0;"/>
<stop offset="1" style="stop-color:rgb(74.509804%,24.705882%,27.058824%);stop-opacity:1;"/>
</linearGradient>
</defs>
<g id="surface1">
<path style=" stroke:none;fill-rule:nonzero;fill:url(#linear0);" d="M 31.199219 12.429688 C 30.640625 8.695312 24.296875 5.75 16.550781 5.75 C 8.808594 5.75 2.460938 8.695312 1.90625 12.429688 C 1.890625 12.5 0.121094 22.570312 0.109375 22.640625 C 0.0351562 23.007812 0 23.378906 0 23.753906 C 0 29.125 7.410156 33.476562 16.550781 33.476562 C 25.695312 33.476562 33.105469 29.125 33.105469 23.753906 C 33.101562 23.378906 33.066406 23.007812 32.996094 22.640625 Z M 31.199219 12.429688 "/>
<path style=" stroke:none;fill-rule:nonzero;fill:url(#linear1);" d="M 31.238281 12.964844 C 31.238281 8.980469 24.664062 5.75 16.550781 5.75 C 8.441406 5.75 1.863281 8.980469 1.863281 12.964844 C 1.863281 16.949219 8.441406 20.179688 16.550781 20.179688 C 24.664062 20.179688 31.238281 16.949219 31.238281 12.964844 Z M 31.238281 12.964844 "/>
<path style=" stroke:none;fill-rule:nonzero;fill:url(#linear2);" d="M 16.113281 0.0078125 C 16.042969 0.0078125 15.96875 0.0117188 15.898438 0.0117188 C 15.855469 0.015625 15.8125 0.015625 15.769531 0.0195312 C 15.703125 0.0234375 15.640625 0.0234375 15.574219 0.0273438 C 15.527344 0.03125 15.484375 0.0351562 15.4375 0.0390625 C 15.375 0.0429688 15.3125 0.046875 15.253906 0.0507812 C 15.207031 0.0546875 15.160156 0.0585938 15.109375 0.0625 C 15.050781 0.0703125 14.992188 0.0742188 14.933594 0.078125 C 14.886719 0.0820312 14.839844 0.0898438 14.789062 0.09375 C 14.730469 0.101562 14.675781 0.105469 14.617188 0.113281 C 14.570312 0.121094 14.519531 0.125 14.472656 0.132812 C 14.414062 0.140625 14.359375 0.144531 14.304688 0.152344 C 14.253906 0.160156 14.207031 0.167969 14.15625 0.175781 C 14.101562 0.183594 14.046875 0.191406 13.992188 0.199219 C 13.945312 0.207031 13.894531 0.214844 13.84375 0.226562 C 13.792969 0.234375 13.738281 0.242188 13.683594 0.253906 C 13.632812 0.261719 13.585938 0.269531 13.535156 0.28125 C 13.484375 0.289062 13.429688 0.300781 13.378906 0.308594 C 13.328125 0.320312 13.277344 0.328125 13.230469 0.339844 C 13.179688 0.351562 13.128906 0.363281 13.074219 0.375 C 13.027344 0.382812 12.976562 0.394531 12.925781 0.40625 C 12.878906 0.417969 12.824219 0.429688 12.777344 0.441406 C 12.726562 0.453125 12.675781 0.464844 12.628906 0.476562 C 12.578125 0.492188 12.527344 0.503906 12.480469 0.515625 C 12.429688 0.53125 12.378906 0.542969 12.332031 0.554688 C 12.28125 0.570312 12.234375 0.582031 12.1875 0.597656 C 12.136719 0.609375 12.085938 0.625 12.035156 0.640625 C 11.988281 0.652344 11.941406 0.667969 11.898438 0.679688 C 11.847656 0.695312 11.796875 0.710938 11.746094 0.726562 C 11.703125 0.742188 11.65625 0.757812 11.609375 0.769531 C 11.558594 0.789062 11.511719 0.804688 11.460938 0.820312 C 11.417969 0.835938 11.371094 0.851562 11.328125 0.867188 C 11.277344 0.882812 11.226562 0.902344 11.175781 0.917969 C 11.136719 0.933594 11.09375 0.949219 11.050781 0.964844 C 11 0.984375 10.949219 1.003906 10.898438 1.023438 C 10.859375 1.039062 10.820312 1.054688 10.777344 1.070312 C 10.726562 1.089844 10.675781 1.109375 10.621094 1.132812 C 10.585938 1.148438 10.550781 1.160156 10.511719 1.175781 C 10.457031 1.199219 10.40625 1.222656 10.351562 1.246094 C 10.316406 1.257812 10.285156 1.273438 10.253906 1.289062 C 10.195312 1.3125 10.140625 1.339844 10.082031 1.363281 C 10.058594 1.375 10.035156 1.386719 10.011719 1.398438 C 9.949219 1.425781 9.882812 1.457031 9.816406 1.488281 C 9.816406 1.488281 9.8125 1.492188 9.808594 1.492188 C 9.472656 1.652344 9.144531 1.828125 8.832031 2.011719 C 8.828125 2.015625 8.828125 2.015625 8.824219 2.015625 C 8.753906 2.058594 8.6875 2.097656 8.617188 2.140625 C 8.605469 2.148438 8.59375 2.152344 8.585938 2.160156 C 8.519531 2.199219 8.457031 2.242188 8.394531 2.28125 L 8.347656 2.308594 C 8.289062 2.347656 8.226562 2.390625 8.167969 2.429688 C 8.148438 2.441406 8.132812 2.453125 8.117188 2.464844 C 8.058594 2.503906 8 2.542969 7.941406 2.585938 C 7.925781 2.597656 7.90625 2.609375 7.890625 2.621094 C 7.832031 2.660156 7.777344 2.703125 7.71875 2.742188 C 7.703125 2.757812 7.683594 2.769531 7.667969 2.78125 C 7.613281 2.824219 7.558594 2.863281 7.503906 2.90625 C 7.484375 2.921875 7.46875 2.933594 7.453125 2.945312 C 7.398438 2.988281 7.34375 3.03125 7.289062 3.074219 C 7.273438 3.089844 7.257812 3.101562 7.238281 3.117188 C 7.1875 3.160156 7.132812 3.203125 7.082031 3.246094 L 7.035156 3.289062 C 6.980469 3.332031 6.929688 3.378906 6.875 3.425781 L 6.832031 3.464844 C 6.78125 3.511719 6.730469 3.558594 6.675781 3.605469 C 6.664062 3.617188 6.652344 3.628906 6.636719 3.640625 C 6.585938 3.691406 6.535156 3.738281 6.484375 3.789062 C 6.472656 3.800781 6.460938 3.8125 6.449219 3.824219 C 6.398438 3.875 6.34375 3.925781 6.292969 3.976562 C 6.285156 3.988281 6.273438 3.996094 6.265625 4.007812 C 6.214844 4.058594 6.164062 4.113281 6.113281 4.167969 C 6.105469 4.175781 6.097656 4.1875 6.089844 4.195312 C 6.035156 4.25 5.984375 4.304688 5.933594 4.363281 C 5.929688 4.371094 5.925781 4.375 5.917969 4.382812 C 5.867188 4.441406 5.8125 4.5 5.761719 4.5625 C 5.761719 4.566406 5.757812 4.566406 5.753906 4.570312 C 4.707031 5.816406 3.996094 7.25 3.722656 8.792969 C 3.722656 8.792969 3.722656 8.792969 3.722656 8.796875 C 3.710938 8.875 3.695312 8.957031 3.683594 9.039062 C 3.671875 9.121094 3.664062 9.203125 3.652344 9.285156 L 3.652344 9.289062 C 3.644531 9.371094 3.636719 9.453125 3.628906 9.535156 C 3.609375 9.761719 3.597656 9.988281 3.597656 10.214844 C 3.597656 12.199219 4.316406 13.707031 5.554688 14.832031 L 23.476562 32.585938 C 29.160156 31.046875 33.105469 27.671875 33.105469 23.753906 C 33.105469 23.378906 33.066406 23.007812 32.996094 22.640625 L 31.199219 12.429688 C 31.042969 11.386719 30.4375 10.40625 29.476562 9.535156 C 29.304688 7.472656 28.355469 5.582031 26.863281 4.03125 C 26.816406 3.988281 26.773438 3.941406 26.726562 3.894531 C 26.703125 3.871094 26.679688 3.847656 26.65625 3.824219 C 26.585938 3.753906 26.515625 3.6875 26.445312 3.621094 C 26.433594 3.609375 26.421875 3.601562 26.410156 3.589844 C 26.347656 3.53125 26.285156 3.476562 26.222656 3.417969 C 26.195312 3.398438 26.171875 3.375 26.144531 3.355469 C 26.09375 3.308594 26.042969 3.265625 25.992188 3.21875 C 25.964844 3.199219 25.933594 3.175781 25.90625 3.152344 C 25.855469 3.105469 25.800781 3.0625 25.746094 3.019531 C 25.71875 3 25.695312 2.980469 25.667969 2.960938 C 25.59375 2.902344 25.519531 2.84375 25.445312 2.789062 C 25.4375 2.785156 25.433594 2.777344 25.425781 2.773438 C 25.34375 2.714844 25.261719 2.652344 25.175781 2.59375 C 25.152344 2.578125 25.128906 2.5625 25.105469 2.546875 C 25.042969 2.503906 24.980469 2.457031 24.917969 2.417969 C 24.886719 2.398438 24.859375 2.378906 24.832031 2.359375 C 24.769531 2.320312 24.707031 2.28125 24.644531 2.242188 C 24.617188 2.222656 24.59375 2.207031 24.5625 2.1875 C 24.492188 2.144531 24.417969 2.097656 24.339844 2.054688 C 24.324219 2.042969 24.3125 2.035156 24.292969 2.027344 C 24.203125 1.972656 24.109375 1.917969 24.015625 1.867188 C 24 1.855469 23.980469 1.847656 23.964844 1.835938 C 23.886719 1.796875 23.8125 1.753906 23.734375 1.714844 C 23.703125 1.699219 23.675781 1.683594 23.648438 1.667969 C 23.578125 1.632812 23.511719 1.597656 23.441406 1.566406 C 23.410156 1.550781 23.382812 1.535156 23.351562 1.519531 C 23.277344 1.484375 23.203125 1.449219 23.125 1.414062 L 23.058594 1.378906 C 22.957031 1.335938 22.855469 1.289062 22.753906 1.246094 C 22.746094 1.242188 22.738281 1.238281 22.734375 1.234375 C 22.640625 1.195312 22.546875 1.15625 22.453125 1.121094 C 22.425781 1.109375 22.394531 1.097656 22.363281 1.082031 C 22.289062 1.054688 22.21875 1.027344 22.140625 1 L 22.042969 0.960938 C 21.964844 0.933594 21.890625 0.90625 21.816406 0.878906 C 21.785156 0.867188 21.753906 0.859375 21.726562 0.847656 C 21.515625 0.773438 21.300781 0.707031 21.085938 0.644531 C 21.054688 0.632812 21.023438 0.625 20.996094 0.617188 C 20.914062 0.59375 20.835938 0.570312 20.757812 0.550781 C 20.71875 0.539062 20.683594 0.53125 20.648438 0.523438 C 20.570312 0.5 20.496094 0.480469 20.417969 0.464844 C 20.382812 0.453125 20.347656 0.445312 20.3125 0.4375 C 20.21875 0.414062 20.128906 0.394531 20.035156 0.375 C 20.015625 0.371094 19.996094 0.363281 19.976562 0.359375 C 19.863281 0.335938 19.75 0.3125 19.636719 0.292969 C 19.609375 0.285156 19.582031 0.28125 19.554688 0.277344 C 19.46875 0.261719 19.382812 0.246094 19.296875 0.230469 L 19.179688 0.210938 C 19.101562 0.199219 19.023438 0.183594 18.945312 0.175781 C 18.902344 0.167969 18.863281 0.164062 18.824219 0.15625 C 18.738281 0.144531 18.652344 0.132812 18.566406 0.121094 C 18.535156 0.121094 18.503906 0.113281 18.472656 0.109375 C 18.359375 0.0976562 18.242188 0.0859375 18.121094 0.0742188 C 18.101562 0.0703125 18.082031 0.0703125 18.058594 0.0703125 C 17.964844 0.0585938 17.867188 0.0507812 17.769531 0.0429688 C 17.726562 0.0429688 17.6875 0.0390625 17.648438 0.0351562 C 17.570312 0.03125 17.488281 0.0273438 17.40625 0.0234375 C 17.363281 0.0195312 17.320312 0.0195312 17.277344 0.015625 C 17.195312 0.0117188 17.113281 0.0117188 17.027344 0.0078125 L 16.914062 0.00390625 C 16.792969 0 16.671875 0 16.550781 0 C 16.441406 0 16.332031 0 16.222656 0.00390625 C 16.1875 0.00390625 16.148438 0.00390625 16.113281 0.0078125 Z M 16.113281 0.0078125 "/>
<path style=" stroke:none;fill-rule:nonzero;fill:url(#linear3);" d="M 29.503906 10.214844 C 29.503906 15.859375 23.707031 17.664062 16.550781 17.664062 C 9.398438 17.664062 3.597656 15.859375 3.597656 10.214844 C 3.597656 4.574219 9.398438 0 16.550781 0 C 23.707031 0 29.503906 4.574219 29.503906 10.214844 Z M 29.503906 10.214844 "/>
<path style=" stroke:none;fill-rule:nonzero;fill:url(#linear4);" d="M 19.328125 0.238281 C 19.109375 0.21875 18.890625 0.203125 18.667969 0.183594 C 18.558594 0.179688 18.449219 0.164062 18.335938 0.167969 L 18.003906 0.171875 L 17.667969 0.179688 C 17.558594 0.179688 17.445312 0.183594 17.335938 0.199219 L 16.667969 0.273438 C 15.78125 0.414062 14.910156 0.65625 14.082031 1 C 13.253906 1.359375 12.464844 1.796875 11.726562 2.3125 C 10.996094 2.832031 10.3125 3.414062 9.679688 4.046875 C 9.523438 4.207031 9.367188 4.363281 9.214844 4.527344 L 8.769531 5.023438 C 8.484375 5.367188 8.195312 5.707031 7.933594 6.0625 C 7.398438 6.773438 6.910156 7.511719 6.46875 8.277344 C 6.023438 9.039062 5.625 9.824219 5.269531 10.632812 C 5.214844 10.75 5.164062 10.871094 5.113281 10.996094 C 5.082031 11.066406 5.105469 11.148438 5.175781 11.191406 L 7.621094 13.617188 C 7.652344 13.664062 7.707031 13.695312 7.765625 13.695312 C 7.824219 13.691406 7.878906 13.660156 7.90625 13.609375 C 7.96875 13.496094 8.035156 13.382812 8.101562 13.273438 C 8.53125 12.515625 8.992188 11.78125 9.472656 11.0625 C 9.960938 10.347656 10.464844 9.648438 11.007812 8.976562 C 11.539062 8.304688 12.113281 7.664062 12.722656 7.058594 C 12.871094 6.902344 13.027344 6.757812 13.183594 6.609375 L 13.417969 6.390625 C 13.496094 6.316406 13.582031 6.25 13.660156 6.179688 C 13.824219 6.042969 13.980469 5.898438 14.148438 5.765625 L 14.65625 5.371094 C 15.34375 4.863281 16.070312 4.410156 16.828125 4.015625 L 17.414062 3.746094 C 17.460938 3.722656 17.511719 3.699219 17.558594 3.679688 L 17.710938 3.621094 L 18.011719 3.507812 L 18.304688 3.390625 C 18.308594 3.390625 18.3125 3.386719 18.316406 3.386719 L 18.621094 3.292969 L 18.929688 3.199219 C 19.03125 3.167969 19.132812 3.132812 19.242188 3.113281 L 19.875 2.964844 C 19.980469 2.9375 20.085938 2.917969 20.195312 2.90625 L 20.515625 2.855469 L 20.839844 2.800781 C 20.949219 2.785156 21.058594 2.78125 21.167969 2.773438 C 21.386719 2.75 21.605469 2.734375 21.824219 2.710938 Z M 19.328125 0.238281 "/>
<path style=" stroke:none;fill-rule:nonzero;fill:url(#linear5);" d="M 5.410156 11.136719 C 5.367188 11.210938 5.273438 11.242188 5.195312 11.203125 C 5.117188 11.164062 5.082031 11.074219 5.113281 10.992188 C 5.164062 10.871094 5.214844 10.75 5.269531 10.628906 C 5.625 9.824219 6.023438 9.039062 6.46875 8.277344 C 6.910156 7.511719 7.398438 6.773438 7.933594 6.0625 C 8.195312 5.707031 8.484375 5.367188 8.769531 5.023438 L 9.214844 4.527344 C 9.367188 4.363281 9.523438 4.207031 9.679688 4.046875 C 10.3125 3.414062 10.996094 2.832031 11.726562 2.3125 C 12.464844 1.796875 13.253906 1.359375 14.082031 1 C 14.914062 0.65625 15.78125 0.414062 16.667969 0.273438 L 17.335938 0.199219 C 17.445312 0.183594 17.558594 0.179688 17.671875 0.179688 L 18.335938 0.164062 C 18.449219 0.164062 18.558594 0.179688 18.667969 0.183594 C 18.890625 0.203125 19.109375 0.21875 19.332031 0.238281 C 19.109375 0.261719 18.890625 0.28125 18.671875 0.300781 C 18.5625 0.3125 18.453125 0.3125 18.34375 0.328125 L 18.019531 0.382812 L 17.699219 0.433594 C 17.589844 0.445312 17.484375 0.464844 17.378906 0.492188 L 16.746094 0.640625 C 16.640625 0.660156 16.535156 0.695312 16.433594 0.726562 L 16.125 0.820312 L 15.820312 0.914062 C 15.816406 0.914062 15.8125 0.917969 15.808594 0.917969 L 15.515625 1.035156 L 15.214844 1.148438 L 15.0625 1.207031 C 15.015625 1.226562 14.964844 1.25 14.917969 1.273438 L 14.332031 1.542969 C 13.574219 1.933594 12.84375 2.386719 12.160156 2.898438 L 11.652344 3.292969 C 11.484375 3.421875 11.328125 3.570312 11.164062 3.707031 C 11.085938 3.777344 11 3.84375 10.921875 3.917969 L 10.6875 4.136719 C 10.53125 4.285156 10.375 4.425781 10.226562 4.582031 C 9.617188 5.191406 9.042969 5.832031 8.511719 6.503906 C 7.96875 7.175781 7.464844 7.875 6.976562 8.589844 C 6.496094 9.308594 6.035156 10.042969 5.605469 10.796875 C 5.539062 10.910156 5.472656 11.023438 5.410156 11.136719 Z M 5.410156 11.136719 "/>
<path style=" stroke:none;fill-rule:nonzero;fill:url(#linear6);" d="M 20.59375 0.574219 C 20.164062 0.554688 19.730469 0.5625 19.296875 0.605469 C 18.863281 0.652344 18.433594 0.726562 18.007812 0.832031 C 17.585938 0.945312 17.167969 1.082031 16.761719 1.246094 C 16.355469 1.414062 15.960938 1.605469 15.578125 1.824219 C 14.046875 2.695312 12.753906 3.933594 11.683594 5.300781 C 10.628906 6.679688 9.75 8.179688 9.066406 9.769531 C 8.71875 10.554688 8.414062 11.359375 8.152344 12.175781 C 8.117188 12.296875 8.078125 12.421875 8.042969 12.542969 C 8.019531 12.613281 8.046875 12.691406 8.113281 12.730469 L 10.96875 15.5625 C 11 15.613281 11.058594 15.648438 11.121094 15.644531 C 11.1875 15.640625 11.242188 15.601562 11.265625 15.546875 C 11.316406 15.429688 11.367188 15.3125 11.421875 15.195312 C 11.765625 14.421875 12.132812 13.660156 12.519531 12.910156 C 13.289062 11.417969 14.1875 9.992188 15.210938 8.65625 C 16.238281 7.339844 17.421875 6.144531 18.8125 5.222656 C 19.507812 4.757812 20.253906 4.375 21.039062 4.078125 C 21.433594 3.929688 21.839844 3.804688 22.25 3.703125 C 22.664062 3.601562 23.082031 3.527344 23.511719 3.464844 Z M 20.59375 0.574219 "/>
<path style=" stroke:none;fill-rule:nonzero;fill:url(#linear7);" d="M 8.351562 12.65625 C 8.316406 12.734375 8.226562 12.773438 8.144531 12.746094 C 8.0625 12.714844 8.015625 12.628906 8.042969 12.542969 C 8.078125 12.421875 8.117188 12.300781 8.152344 12.175781 C 8.414062 11.359375 8.71875 10.554688 9.066406 9.765625 C 9.75 8.175781 10.628906 6.675781 11.683594 5.300781 C 12.753906 3.933594 14.046875 2.695312 15.578125 1.824219 C 15.960938 1.605469 16.355469 1.414062 16.761719 1.246094 C 17.167969 1.082031 17.585938 0.941406 18.007812 0.832031 C 18.433594 0.726562 18.863281 0.652344 19.296875 0.605469 C 19.730469 0.5625 20.164062 0.554688 20.59375 0.574219 C 20.167969 0.636719 19.746094 0.710938 19.335938 0.8125 C 18.921875 0.914062 18.519531 1.039062 18.125 1.1875 C 17.339844 1.484375 16.589844 1.867188 15.894531 2.332031 C 14.507812 3.257812 13.320312 4.453125 12.292969 5.769531 C 11.273438 7.105469 10.371094 8.527344 9.605469 10.023438 C 9.21875 10.769531 8.847656 11.53125 8.503906 12.308594 C 8.453125 12.421875 8.402344 12.539062 8.351562 12.65625 Z M 8.351562 12.65625 "/>
<path style=" stroke:none;fill-rule:nonzero;fill:url(#linear8);" d="M 24.117188 1.992188 C 23.265625 1.769531 22.378906 1.707031 21.507812 1.8125 C 20.621094 1.921875 19.761719 2.183594 18.964844 2.582031 C 18.566406 2.777344 18.183594 3 17.816406 3.253906 C 17.449219 3.5 17.097656 3.773438 16.765625 4.0625 C 16.433594 4.355469 16.117188 4.660156 15.8125 4.980469 C 15.511719 5.300781 15.226562 5.632812 14.953125 5.972656 C 13.878906 7.347656 12.976562 8.84375 12.265625 10.433594 C 11.902344 11.21875 11.585938 12.023438 11.304688 12.835938 C 11.261719 12.957031 11.222656 13.082031 11.183594 13.203125 C 11.15625 13.273438 11.1875 13.355469 11.253906 13.390625 L 14.144531 16.253906 C 14.175781 16.308594 14.234375 16.339844 14.292969 16.335938 C 14.355469 16.335938 14.410156 16.296875 14.4375 16.242188 C 14.492188 16.125 14.546875 16.011719 14.601562 15.894531 C 14.964844 15.121094 15.347656 14.363281 15.75 13.617188 C 16.5625 12.125 17.457031 10.683594 18.503906 9.367188 C 19.550781 8.058594 20.757812 6.871094 22.199219 6.027344 C 22.5625 5.820312 22.9375 5.636719 23.324219 5.480469 C 23.710938 5.320312 24.109375 5.195312 24.519531 5.101562 C 24.933594 5.007812 25.351562 4.941406 25.773438 4.914062 C 26.203125 4.886719 26.632812 4.886719 27.0625 4.914062 Z M 24.117188 1.992188 "/>
<path style=" stroke:none;fill-rule:nonzero;fill:url(#linear9);" d="M 11.488281 13.320312 C 11.453125 13.398438 11.363281 13.433594 11.28125 13.402344 C 11.199219 13.371094 11.15625 13.285156 11.183594 13.203125 C 11.222656 13.078125 11.261719 12.957031 11.304688 12.835938 C 11.585938 12.019531 11.902344 11.21875 12.265625 10.433594 C 12.976562 8.84375 13.878906 7.347656 14.949219 5.972656 C 15.226562 5.632812 15.511719 5.300781 15.8125 4.980469 C 16.117188 4.660156 16.433594 4.355469 16.765625 4.0625 C 17.097656 3.773438 17.449219 3.5 17.816406 3.253906 C 18.183594 3 18.566406 2.777344 18.964844 2.582031 C 19.761719 2.183594 20.621094 1.921875 21.507812 1.8125 C 22.378906 1.707031 23.265625 1.769531 24.113281 1.992188 C 23.6875 1.964844 23.257812 1.964844 22.828125 1.992188 C 22.402344 2.023438 21.984375 2.085938 21.570312 2.183594 C 21.164062 2.273438 20.761719 2.398438 20.375 2.558594 C 19.988281 2.714844 19.613281 2.898438 19.25 3.105469 C 17.8125 3.949219 16.601562 5.136719 15.554688 6.449219 C 14.507812 7.761719 13.613281 9.203125 12.800781 10.695312 C 12.402344 11.441406 12.015625 12.203125 11.652344 12.972656 C 11.597656 13.089844 11.542969 13.203125 11.488281 13.320312 Z M 11.488281 13.320312 "/>
<path style=" stroke:none;fill-rule:nonzero;fill:url(#linear10);" d="M 28.589844 6.464844 L 28.601562 6.460938 C 28.335938 5.933594 28.023438 5.433594 27.664062 4.960938 L 25.738281 3.054688 C 25.375 2.976562 25 2.964844 24.632812 3.023438 C 24.257812 3.078125 23.894531 3.171875 23.542969 3.304688 C 23.195312 3.449219 22.855469 3.617188 22.535156 3.8125 C 22.214844 4.011719 21.914062 4.234375 21.625 4.476562 C 21.058594 4.960938 20.542969 5.503906 20.085938 6.097656 C 19.640625 6.6875 19.238281 7.308594 18.875 7.953125 C 18.175781 9.242188 17.605469 10.597656 17.179688 12 C 16.925781 12.804688 16.710938 13.621094 16.535156 14.449219 C 16.515625 14.519531 16.550781 14.59375 16.617188 14.625 L 19.5625 17.542969 C 19.847656 17.519531 20.128906 17.492188 20.40625 17.460938 C 20.644531 16.820312 20.882812 16.1875 21.136719 15.558594 C 21.660156 14.234375 22.265625 12.9375 22.941406 11.683594 C 23.121094 11.378906 23.289062 11.0625 23.484375 10.769531 C 23.578125 10.621094 23.664062 10.464844 23.765625 10.324219 L 24.066406 9.886719 C 24.472656 9.3125 24.925781 8.773438 25.421875 8.273438 C 25.917969 7.777344 26.480469 7.347656 27.09375 7.007812 C 27.402344 6.835938 27.730469 6.695312 28.070312 6.589844 C 28.238281 6.535156 28.414062 6.492188 28.589844 6.464844 Z M 28.589844 6.464844 "/>
<path style=" stroke:none;fill-rule:nonzero;fill:url(#linear11);" d="M 25.738281 3.054688 C 25.554688 3.050781 25.375 3.066406 25.199219 3.101562 C 25.019531 3.132812 24.847656 3.171875 24.675781 3.226562 C 24.339844 3.332031 24.011719 3.472656 23.703125 3.644531 C 23.085938 3.988281 22.523438 4.414062 22.03125 4.914062 C 21.535156 5.414062 21.082031 5.953125 20.675781 6.523438 L 20.375 6.960938 C 20.273438 7.105469 20.1875 7.257812 20.089844 7.40625 C 19.894531 7.703125 19.730469 8.015625 19.550781 8.320312 C 18.871094 9.578125 18.269531 10.871094 17.746094 12.195312 C 17.433594 12.96875 17.140625 13.75 16.851562 14.539062 C 16.820312 14.617188 16.734375 14.664062 16.652344 14.640625 C 16.566406 14.617188 16.519531 14.53125 16.535156 14.449219 C 16.710938 13.621094 16.925781 12.804688 17.179688 11.996094 C 17.605469 10.597656 18.175781 9.242188 18.875 7.953125 C 19.238281 7.308594 19.640625 6.6875 20.085938 6.097656 C 20.542969 5.503906 21.058594 4.960938 21.628906 4.476562 C 21.914062 4.234375 22.21875 4.011719 22.535156 3.8125 C 22.855469 3.617188 23.195312 3.445312 23.542969 3.304688 C 23.894531 3.171875 24.257812 3.074219 24.632812 3.023438 C 25 2.964844 25.375 2.976562 25.738281 3.054688 Z M 25.738281 3.054688 "/>
<path style=" stroke:none;fill-rule:nonzero;fill:url(#linear12);" d="M 27.824219 5.179688 C 27.804688 5.164062 27.789062 5.144531 27.773438 5.125 C 27.707031 5.078125 27.644531 5.03125 27.574219 4.988281 C 27.503906 4.945312 27.433594 4.90625 27.359375 4.871094 C 27.28125 4.835938 27.203125 4.808594 27.125 4.785156 C 27.042969 4.761719 26.960938 4.742188 26.878906 4.730469 C 26.535156 4.6875 26.1875 4.726562 25.863281 4.851562 C 25.546875 4.96875 25.246094 5.132812 24.976562 5.339844 C 24.707031 5.535156 24.457031 5.757812 24.226562 5.996094 C 23.777344 6.46875 23.367188 6.984375 23.011719 7.527344 C 22.65625 8.066406 22.328125 8.625 22.03125 9.199219 C 21.445312 10.335938 20.941406 11.515625 20.523438 12.722656 C 20.285156 13.421875 20.0625 14.125 19.875 14.835938 C 19.851562 14.914062 19.890625 14.996094 19.964844 15.027344 L 22.152344 17.191406 C 23.613281 16.910156 24.921875 16.488281 26.015625 15.898438 C 26.34375 15.199219 26.679688 14.507812 27.035156 13.824219 C 27.179688 13.546875 27.324219 13.273438 27.476562 13 C 27.628906 12.726562 27.785156 12.460938 27.945312 12.195312 C 28.261719 11.664062 28.613281 11.15625 29 10.671875 C 29.15625 10.476562 29.324219 10.289062 29.503906 10.113281 C 29.480469 8.320312 28.875 6.636719 27.824219 5.179688 Z M 27.824219 5.179688 "/>
<path style=" stroke:none;fill-rule:nonzero;fill:url(#linear13);" d="M 20.183594 14.945312 C 20.152344 15.023438 20.0625 15.0625 19.980469 15.035156 C 19.898438 15.003906 19.851562 14.921875 19.875 14.835938 C 20.0625 14.125 20.285156 13.421875 20.523438 12.722656 C 20.941406 11.515625 21.445312 10.335938 22.03125 9.199219 C 22.328125 8.625 22.65625 8.066406 23.011719 7.527344 C 23.367188 6.980469 23.777344 6.46875 24.226562 5.996094 C 24.457031 5.757812 24.707031 5.535156 24.976562 5.339844 C 25.246094 5.132812 25.546875 4.96875 25.863281 4.851562 C 26.1875 4.726562 26.535156 4.6875 26.878906 4.730469 C 27.042969 4.757812 27.203125 4.804688 27.359375 4.871094 C 27.433594 4.90625 27.503906 4.945312 27.574219 4.988281 C 27.644531 5.03125 27.707031 5.078125 27.773438 5.125 C 27.488281 4.996094 27.179688 4.933594 26.867188 4.941406 C 26.566406 4.960938 26.277344 5.046875 26.019531 5.195312 C 25.496094 5.480469 25.066406 5.921875 24.679688 6.394531 C 24.296875 6.878906 23.945312 7.386719 23.628906 7.914062 C 23.46875 8.179688 23.3125 8.449219 23.160156 8.722656 C 23.007812 8.992188 22.859375 9.269531 22.714844 9.546875 C 22.140625 10.65625 21.605469 11.796875 21.085938 12.945312 C 20.785156 13.609375 20.484375 14.277344 20.1875 14.945312 Z M 20.183594 14.945312 "/>
<path style=" stroke:none;fill-rule:nonzero;fill:url(#linear14);" d="M 48.09375 23.929688 C 47.539062 20.195312 41.191406 17.25 33.449219 17.25 C 25.703125 17.25 19.359375 20.195312 18.800781 23.929688 C 18.789062 24 17.015625 34.074219 17.003906 34.140625 C 16.933594 34.507812 16.898438 34.882812 16.894531 35.253906 C 16.894531 40.625 24.308594 44.976562 33.449219 44.976562 C 42.589844 44.976562 50 40.625 50 35.253906 C 50 34.878906 49.964844 34.507812 49.890625 34.140625 Z M 48.09375 23.929688 "/>
<path style=" stroke:none;fill-rule:nonzero;fill:url(#linear15);" d="M 48.132812 24.464844 C 48.132812 20.480469 41.558594 17.25 33.449219 17.25 C 25.335938 17.25 18.761719 20.480469 18.761719 24.464844 C 18.761719 28.449219 25.335938 31.679688 33.449219 31.679688 C 41.558594 31.679688 48.132812 28.449219 48.132812 24.464844 Z M 48.132812 24.464844 "/>
<path style=" stroke:none;fill-rule:nonzero;fill:url(#linear16);" d="M 33.007812 11.507812 C 32.9375 11.507812 32.867188 11.511719 32.792969 11.515625 C 32.75 11.515625 32.707031 11.519531 32.664062 11.519531 C 32.597656 11.523438 32.535156 11.527344 32.46875 11.53125 C 32.425781 11.53125 32.378906 11.535156 32.332031 11.539062 C 32.269531 11.542969 32.210938 11.546875 32.148438 11.550781 C 32.101562 11.554688 32.054688 11.558594 32.007812 11.5625 C 31.949219 11.570312 31.890625 11.574219 31.832031 11.578125 C 31.78125 11.585938 31.734375 11.589844 31.683594 11.59375 C 31.628906 11.601562 31.570312 11.609375 31.511719 11.613281 C 31.464844 11.621094 31.414062 11.625 31.367188 11.632812 C 31.3125 11.640625 31.253906 11.648438 31.199219 11.65625 C 31.148438 11.660156 31.101562 11.667969 31.050781 11.675781 C 30.996094 11.683594 30.941406 11.691406 30.886719 11.699219 C 30.839844 11.710938 30.789062 11.71875 30.738281 11.726562 C 30.6875 11.734375 30.632812 11.742188 30.578125 11.753906 C 30.53125 11.761719 30.480469 11.769531 30.429688 11.78125 C 30.378906 11.789062 30.324219 11.800781 30.273438 11.8125 C 30.222656 11.820312 30.175781 11.832031 30.125 11.839844 C 30.074219 11.851562 30.023438 11.863281 29.972656 11.875 C 29.921875 11.886719 29.871094 11.894531 29.820312 11.90625 C 29.773438 11.917969 29.722656 11.929688 29.671875 11.941406 C 29.621094 11.957031 29.570312 11.96875 29.523438 11.980469 C 29.472656 11.992188 29.421875 12.003906 29.375 12.019531 C 29.324219 12.03125 29.273438 12.042969 29.226562 12.058594 C 29.175781 12.070312 29.128906 12.082031 29.082031 12.097656 C 29.03125 12.109375 28.980469 12.125 28.933594 12.140625 C 28.886719 12.152344 28.839844 12.167969 28.792969 12.183594 C 28.742188 12.195312 28.691406 12.210938 28.640625 12.226562 C 28.597656 12.242188 28.550781 12.257812 28.507812 12.273438 C 28.457031 12.289062 28.40625 12.304688 28.355469 12.320312 C 28.3125 12.335938 28.269531 12.351562 28.222656 12.367188 C 28.171875 12.382812 28.121094 12.402344 28.074219 12.421875 C 28.03125 12.433594 27.988281 12.449219 27.945312 12.464844 C 27.894531 12.484375 27.84375 12.503906 27.792969 12.523438 C 27.753906 12.539062 27.714844 12.554688 27.675781 12.570312 C 27.621094 12.589844 27.570312 12.613281 27.515625 12.632812 C 27.480469 12.648438 27.445312 12.664062 27.410156 12.679688 C 27.355469 12.699219 27.300781 12.722656 27.246094 12.746094 C 27.214844 12.761719 27.183594 12.773438 27.148438 12.789062 C 27.09375 12.8125 27.035156 12.839844 26.976562 12.867188 C 26.953125 12.875 26.929688 12.886719 26.90625 12.898438 C 26.84375 12.929688 26.777344 12.957031 26.714844 12.988281 C 26.710938 12.992188 26.707031 12.992188 26.703125 12.992188 C 26.367188 13.15625 26.042969 13.328125 25.726562 13.515625 L 25.71875 13.519531 C 25.652344 13.558594 25.582031 13.601562 25.511719 13.644531 C 25.5 13.648438 25.492188 13.65625 25.480469 13.664062 C 25.414062 13.703125 25.351562 13.742188 25.289062 13.785156 C 25.273438 13.792969 25.257812 13.804688 25.242188 13.8125 C 25.183594 13.851562 25.121094 13.890625 25.0625 13.929688 C 25.046875 13.941406 25.027344 13.953125 25.011719 13.964844 C 24.953125 14.003906 24.894531 14.046875 24.835938 14.085938 C 24.820312 14.097656 24.800781 14.109375 24.785156 14.121094 C 24.726562 14.164062 24.671875 14.203125 24.617188 14.246094 C 24.597656 14.257812 24.582031 14.269531 24.5625 14.285156 C 24.507812 14.324219 24.453125 14.367188 24.398438 14.410156 C 24.378906 14.421875 24.363281 14.433594 24.347656 14.449219 C 24.292969 14.492188 24.238281 14.535156 24.183594 14.578125 C 24.167969 14.589844 24.152344 14.605469 24.136719 14.617188 C 24.082031 14.660156 24.027344 14.707031 23.976562 14.75 C 23.960938 14.761719 23.945312 14.777344 23.929688 14.789062 C 23.875 14.835938 23.824219 14.878906 23.773438 14.925781 C 23.757812 14.9375 23.742188 14.953125 23.726562 14.964844 C 23.675781 15.011719 23.625 15.058594 23.574219 15.105469 L 23.535156 15.144531 C 23.480469 15.191406 23.429688 15.242188 23.378906 15.289062 C 23.367188 15.300781 23.355469 15.3125 23.34375 15.324219 C 23.292969 15.375 23.242188 15.425781 23.191406 15.480469 C 23.179688 15.488281 23.171875 15.5 23.160156 15.507812 C 23.109375 15.5625 23.058594 15.617188 23.007812 15.667969 C 23 15.679688 22.992188 15.6875 22.984375 15.695312 C 22.933594 15.75 22.878906 15.808594 22.832031 15.863281 C 22.824219 15.871094 22.820312 15.878906 22.8125 15.882812 C 22.761719 15.941406 22.710938 16.003906 22.660156 16.0625 C 22.65625 16.066406 22.652344 16.070312 22.648438 16.074219 C 21.605469 17.316406 20.894531 18.75 20.621094 20.292969 C 20.621094 20.296875 20.621094 20.296875 20.621094 20.296875 C 20.605469 20.378906 20.59375 20.457031 20.582031 20.539062 C 20.582031 20.539062 20.582031 20.539062 20.582031 20.542969 C 20.570312 20.621094 20.558594 20.703125 20.550781 20.785156 L 20.550781 20.789062 C 20.539062 20.871094 20.53125 20.953125 20.523438 21.035156 C 20.507812 21.261719 20.496094 21.488281 20.496094 21.71875 C 20.496094 23.699219 21.210938 25.207031 22.453125 26.332031 L 40.371094 44.089844 C 46.054688 42.546875 50 39.171875 50 35.253906 C 50 34.878906 49.964844 34.507812 49.890625 34.140625 L 48.09375 23.929688 C 47.941406 22.890625 47.332031 21.910156 46.371094 21.035156 C 46.199219 18.976562 45.253906 17.082031 43.757812 15.535156 C 43.714844 15.488281 43.667969 15.441406 43.625 15.394531 C 43.597656 15.371094 43.574219 15.347656 43.550781 15.324219 C 43.484375 15.257812 43.414062 15.1875 43.339844 15.121094 C 43.328125 15.109375 43.316406 15.101562 43.304688 15.089844 C 43.246094 15.035156 43.183594 14.976562 43.117188 14.921875 C 43.09375 14.898438 43.066406 14.875 43.042969 14.855469 C 42.992188 14.808594 42.9375 14.765625 42.886719 14.722656 C 42.859375 14.699219 42.832031 14.675781 42.804688 14.652344 C 42.75 14.609375 42.695312 14.5625 42.640625 14.519531 C 42.617188 14.5 42.589844 14.480469 42.566406 14.460938 C 42.492188 14.402344 42.417969 14.347656 42.34375 14.289062 C 42.335938 14.285156 42.328125 14.28125 42.324219 14.277344 C 42.242188 14.214844 42.15625 14.152344 42.070312 14.09375 C 42.050781 14.078125 42.027344 14.0625 42.003906 14.046875 C 41.941406 14.003906 41.875 13.960938 41.8125 13.917969 C 41.785156 13.898438 41.757812 13.878906 41.726562 13.863281 C 41.667969 13.820312 41.605469 13.78125 41.542969 13.742188 C 41.515625 13.726562 41.488281 13.707031 41.460938 13.691406 C 41.386719 13.644531 41.3125 13.597656 41.238281 13.554688 C 41.222656 13.546875 41.207031 13.535156 41.191406 13.527344 C 41.097656 13.472656 41.007812 13.417969 40.910156 13.367188 C 40.894531 13.355469 40.875 13.347656 40.859375 13.339844 C 40.785156 13.296875 40.707031 13.253906 40.628906 13.214844 C 40.601562 13.199219 40.574219 13.183594 40.542969 13.167969 C 40.476562 13.132812 40.40625 13.101562 40.339844 13.066406 L 40.246094 13.019531 C 40.171875 12.984375 40.097656 12.949219 40.023438 12.914062 C 40 12.902344 39.976562 12.890625 39.953125 12.882812 C 39.855469 12.835938 39.753906 12.789062 39.652344 12.746094 C 39.644531 12.742188 39.636719 12.742188 39.628906 12.738281 C 39.535156 12.699219 39.441406 12.660156 39.351562 12.621094 L 39.261719 12.585938 C 39.1875 12.554688 39.113281 12.527344 39.039062 12.5 L 38.9375 12.460938 C 38.863281 12.433594 38.785156 12.40625 38.710938 12.378906 C 38.683594 12.371094 38.652344 12.359375 38.621094 12.347656 C 38.410156 12.277344 38.199219 12.207031 37.980469 12.144531 C 37.953125 12.136719 37.921875 12.128906 37.890625 12.117188 C 37.8125 12.097656 37.734375 12.074219 37.652344 12.050781 C 37.617188 12.042969 37.582031 12.03125 37.542969 12.023438 C 37.46875 12.003906 37.390625 11.984375 37.3125 11.964844 L 37.207031 11.9375 C 37.117188 11.917969 37.023438 11.894531 36.933594 11.875 C 36.914062 11.871094 36.894531 11.867188 36.871094 11.863281 C 36.761719 11.835938 36.648438 11.816406 36.535156 11.792969 C 36.507812 11.789062 36.476562 11.78125 36.449219 11.777344 C 36.363281 11.761719 36.277344 11.746094 36.191406 11.730469 C 36.152344 11.722656 36.113281 11.71875 36.074219 11.710938 C 35.996094 11.699219 35.917969 11.6875 35.839844 11.675781 C 35.800781 11.667969 35.761719 11.664062 35.722656 11.65625 C 35.636719 11.644531 35.550781 11.636719 35.464844 11.625 C 35.433594 11.621094 35.402344 11.617188 35.371094 11.613281 C 35.253906 11.597656 35.136719 11.585938 35.019531 11.574219 C 35 11.574219 34.976562 11.570312 34.957031 11.570312 C 34.859375 11.5625 34.761719 11.554688 34.664062 11.546875 C 34.625 11.542969 34.585938 11.539062 34.546875 11.539062 C 34.464844 11.53125 34.382812 11.527344 34.304688 11.523438 C 34.261719 11.519531 34.21875 11.519531 34.175781 11.515625 C 34.089844 11.515625 34.007812 11.511719 33.925781 11.507812 C 33.886719 11.507812 33.847656 11.503906 33.808594 11.503906 C 33.691406 11.503906 33.570312 11.5 33.449219 11.5 C 33.339844 11.5 33.230469 11.503906 33.121094 11.503906 C 33.082031 11.503906 33.046875 11.507812 33.007812 11.507812 Z M 33.007812 11.507812 "/>
<path style=" stroke:none;fill-rule:nonzero;fill:url(#linear17);" d="M 46.402344 21.71875 C 46.402344 27.359375 40.601562 29.164062 33.449219 29.164062 C 26.292969 29.164062 20.496094 27.359375 20.496094 21.71875 C 20.496094 16.074219 26.292969 11.5 33.449219 11.5 C 40.601562 11.5 46.402344 16.074219 46.402344 21.71875 Z M 46.402344 21.71875 "/>
<path style=" stroke:none;fill-rule:nonzero;fill:url(#linear18);" d="M 36.226562 11.738281 C 36.007812 11.71875 35.785156 11.703125 35.566406 11.6875 C 35.453125 11.679688 35.34375 11.667969 35.234375 11.667969 L 34.898438 11.671875 L 34.566406 11.679688 C 34.453125 11.679688 34.34375 11.6875 34.230469 11.699219 L 33.566406 11.773438 C 32.675781 11.914062 31.808594 12.160156 30.976562 12.503906 C 30.148438 12.859375 29.359375 13.296875 28.625 13.8125 C 27.894531 14.332031 27.207031 14.914062 26.574219 15.546875 C 26.421875 15.707031 26.261719 15.863281 26.109375 16.027344 L 25.664062 16.527344 C 25.378906 16.867188 25.089844 17.207031 24.828125 17.566406 C 24.296875 18.273438 23.804688 19.011719 23.363281 19.777344 C 22.921875 20.539062 22.519531 21.324219 22.164062 22.132812 C 22.113281 22.253906 22.0625 22.375 22.007812 22.496094 C 21.976562 22.566406 22.003906 22.652344 22.070312 22.691406 L 24.515625 25.117188 C 24.546875 25.167969 24.601562 25.195312 24.660156 25.195312 C 24.71875 25.195312 24.773438 25.164062 24.800781 25.113281 C 24.867188 25 24.929688 24.886719 24.996094 24.773438 C 25.425781 24.019531 25.886719 23.285156 26.367188 22.5625 C 26.855469 21.847656 27.363281 21.148438 27.902344 20.480469 C 28.4375 19.808594 29.007812 19.164062 29.617188 18.558594 C 29.765625 18.402344 29.921875 18.257812 30.078125 18.113281 L 30.3125 17.890625 C 30.390625 17.816406 30.476562 17.753906 30.554688 17.679688 C 30.71875 17.542969 30.878906 17.398438 31.046875 17.265625 L 31.550781 16.871094 C 32.238281 16.363281 32.964844 15.910156 33.726562 15.515625 L 34.308594 15.246094 C 34.359375 15.226562 34.40625 15.199219 34.457031 15.179688 L 34.605469 15.125 L 34.90625 15.007812 L 35.203125 14.890625 C 35.207031 14.890625 35.210938 14.890625 35.214844 14.886719 L 35.515625 14.792969 L 35.824219 14.699219 C 35.929688 14.667969 36.03125 14.632812 36.136719 14.613281 L 36.769531 14.464844 C 36.875 14.4375 36.980469 14.417969 37.089844 14.40625 L 37.738281 14.304688 C 37.84375 14.285156 37.953125 14.285156 38.0625 14.273438 C 38.28125 14.253906 38.5 14.234375 38.722656 14.210938 Z M 36.226562 11.738281 "/>
<path style=" stroke:none;fill-rule:nonzero;fill:url(#linear19);" d="M 22.304688 22.636719 C 22.261719 22.714844 22.167969 22.742188 22.089844 22.703125 C 22.011719 22.667969 21.976562 22.574219 22.011719 22.496094 C 22.0625 22.375 22.113281 22.253906 22.164062 22.132812 C 22.519531 21.324219 22.921875 20.539062 23.363281 19.777344 C 23.804688 19.011719 24.296875 18.273438 24.828125 17.566406 C 25.09375 17.207031 25.378906 16.867188 25.664062 16.527344 L 26.109375 16.027344 C 26.261719 15.863281 26.421875 15.707031 26.574219 15.546875 C 27.207031 14.914062 27.894531 14.332031 28.625 13.8125 C 29.363281 13.296875 30.148438 12.859375 30.976562 12.503906 C 31.808594 12.15625 32.675781 11.914062 33.566406 11.773438 L 34.230469 11.699219 C 34.34375 11.6875 34.453125 11.679688 34.566406 11.679688 L 34.898438 11.671875 L 35.234375 11.667969 C 35.34375 11.667969 35.453125 11.679688 35.566406 11.683594 C 35.785156 11.703125 36.007812 11.71875 36.226562 11.738281 C 36.003906 11.761719 35.785156 11.78125 35.566406 11.800781 C 35.460938 11.8125 35.347656 11.8125 35.242188 11.832031 L 34.59375 11.933594 C 34.488281 11.945312 34.378906 11.964844 34.273438 11.992188 L 33.640625 12.140625 C 33.535156 12.160156 33.433594 12.195312 33.328125 12.226562 L 33.019531 12.320312 L 32.71875 12.414062 C 32.714844 12.417969 32.710938 12.417969 32.707031 12.417969 L 32.410156 12.535156 L 32.109375 12.652344 L 31.960938 12.707031 C 31.910156 12.726562 31.863281 12.75 31.8125 12.773438 L 31.230469 13.042969 C 30.46875 13.4375 29.742188 13.890625 29.054688 14.398438 L 28.550781 14.792969 C 28.382812 14.921875 28.222656 15.070312 28.0625 15.207031 C 27.980469 15.277344 27.898438 15.34375 27.820312 15.417969 L 27.585938 15.636719 C 27.429688 15.785156 27.269531 15.929688 27.121094 16.085938 C 26.515625 16.691406 25.941406 17.332031 25.40625 18.003906 C 24.867188 18.675781 24.359375 19.375 23.875 20.089844 C 23.394531 20.808594 22.933594 21.546875 22.5 22.300781 C 22.4375 22.410156 22.371094 22.523438 22.304688 22.636719 Z M 22.304688 22.636719 "/>
<path style=" stroke:none;fill-rule:nonzero;fill:url(#linear20);" d="M 37.492188 12.074219 C 37.058594 12.054688 36.625 12.066406 36.195312 12.105469 C 35.761719 12.152344 35.328125 12.230469 34.90625 12.332031 C 34.480469 12.445312 34.066406 12.582031 33.65625 12.746094 C 33.25 12.914062 32.855469 13.109375 32.472656 13.328125 C 30.941406 14.199219 29.648438 15.433594 28.582031 16.804688 C 27.523438 18.179688 26.644531 19.679688 25.960938 21.269531 C 25.617188 22.054688 25.3125 22.859375 25.050781 23.675781 C 25.011719 23.800781 24.972656 23.921875 24.9375 24.046875 C 24.914062 24.117188 24.941406 24.191406 25.007812 24.230469 L 27.867188 27.0625 C 27.898438 27.117188 27.957031 27.148438 28.019531 27.144531 C 28.082031 27.140625 28.136719 27.105469 28.160156 27.046875 C 28.214844 26.929688 28.265625 26.8125 28.316406 26.699219 C 28.660156 25.921875 29.03125 25.164062 29.417969 24.414062 C 30.183594 22.917969 31.082031 21.496094 32.105469 20.15625 C 33.132812 18.839844 34.316406 17.648438 35.707031 16.722656 C 36.402344 16.257812 37.148438 15.875 37.933594 15.578125 C 38.332031 15.429688 38.734375 15.304688 39.144531 15.203125 C 39.558594 15.101562 39.980469 15.027344 40.40625 14.964844 Z M 37.492188 12.074219 "/>
<path style=" stroke:none;fill-rule:nonzero;fill:url(#linear21);" d="M 25.246094 24.15625 C 25.210938 24.234375 25.121094 24.273438 25.039062 24.246094 C 24.957031 24.214844 24.914062 24.128906 24.9375 24.046875 C 24.972656 23.921875 25.011719 23.800781 25.050781 23.675781 C 25.3125 22.859375 25.613281 22.054688 25.960938 21.269531 C 26.644531 19.679688 27.523438 18.179688 28.582031 16.804688 C 29.648438 15.433594 30.941406 14.199219 32.472656 13.324219 C 32.855469 13.105469 33.25 12.914062 33.65625 12.746094 C 34.0625 12.582031 34.480469 12.445312 34.90625 12.332031 C 35.328125 12.226562 35.757812 12.152344 36.195312 12.105469 C 36.625 12.0625 37.058594 12.054688 37.492188 12.074219 C 37.0625 12.140625 36.644531 12.214844 36.230469 12.3125 C 35.820312 12.417969 35.414062 12.542969 35.019531 12.6875 C 34.234375 12.984375 33.488281 13.367188 32.792969 13.832031 C 31.402344 14.757812 30.21875 15.953125 29.191406 17.269531 C 28.167969 18.605469 27.269531 20.027344 26.503906 21.523438 C 26.113281 22.273438 25.746094 23.03125 25.402344 23.808594 C 25.351562 23.925781 25.296875 24.039062 25.246094 24.15625 Z M 25.246094 24.15625 "/>
<path style=" stroke:none;fill-rule:nonzero;fill:url(#linear22);" d="M 41.011719 13.492188 C 40.160156 13.269531 39.277344 13.210938 38.402344 13.3125 C 37.519531 13.421875 36.660156 13.683594 35.863281 14.082031 C 35.464844 14.277344 35.078125 14.503906 34.710938 14.753906 C 34.34375 15.003906 33.996094 15.273438 33.660156 15.566406 C 33.328125 15.855469 33.011719 16.160156 32.707031 16.480469 C 32.410156 16.800781 32.121094 17.132812 31.847656 17.476562 C 30.773438 18.847656 29.871094 20.34375 29.164062 21.933594 C 28.800781 22.71875 28.484375 23.523438 28.203125 24.335938 C 28.160156 24.457031 28.121094 24.582031 28.082031 24.703125 C 28.054688 24.773438 28.082031 24.855469 28.148438 24.890625 L 31.039062 27.757812 C 31.070312 27.808594 31.128906 27.839844 31.191406 27.839844 C 31.253906 27.835938 31.308594 27.800781 31.335938 27.742188 C 31.386719 27.628906 31.441406 27.511719 31.5 27.394531 C 31.859375 26.625 32.246094 25.863281 32.648438 25.117188 C 33.457031 23.625 34.351562 22.183594 35.398438 20.871094 C 36.445312 19.558594 37.65625 18.371094 39.097656 17.527344 C 39.457031 17.320312 39.832031 17.136719 40.21875 16.980469 C 40.605469 16.820312 41.007812 16.695312 41.417969 16.605469 C 41.828125 16.507812 42.25 16.445312 42.671875 16.414062 C 43.101562 16.386719 43.53125 16.386719 43.960938 16.414062 Z M 41.011719 13.492188 "/>
<path style=" stroke:none;fill-rule:nonzero;fill:url(#linear23);" d="M 28.386719 24.820312 C 28.347656 24.898438 28.257812 24.9375 28.175781 24.90625 C 28.09375 24.875 28.054688 24.785156 28.078125 24.703125 C 28.121094 24.582031 28.160156 24.457031 28.199219 24.335938 C 28.484375 23.523438 28.796875 22.71875 29.160156 21.933594 C 29.871094 20.34375 30.773438 18.847656 31.847656 17.476562 C 32.121094 17.132812 32.40625 16.800781 32.707031 16.480469 C 33.011719 16.160156 33.328125 15.855469 33.660156 15.566406 C 33.996094 15.273438 34.34375 15.003906 34.710938 14.753906 C 35.078125 14.503906 35.464844 14.277344 35.863281 14.082031 C 36.660156 13.683594 37.519531 13.421875 38.402344 13.3125 C 39.277344 13.210938 40.160156 13.269531 41.011719 13.492188 C 40.582031 13.46875 40.152344 13.46875 39.722656 13.492188 C 39.300781 13.523438 38.878906 13.585938 38.46875 13.683594 C 38.058594 13.773438 37.65625 13.898438 37.269531 14.058594 C 36.882812 14.214844 36.507812 14.398438 36.148438 14.605469 C 34.707031 15.449219 33.496094 16.636719 32.449219 17.949219 C 31.402344 19.265625 30.507812 20.707031 29.699219 22.195312 C 29.296875 22.945312 28.910156 23.703125 28.550781 24.476562 C 28.496094 24.589844 28.441406 24.707031 28.386719 24.820312 Z M 28.386719 24.820312 "/>
<path style=" stroke:none;fill-rule:nonzero;fill:url(#linear24);" d="M 45.484375 17.964844 C 45.488281 17.964844 45.492188 17.960938 45.5 17.960938 C 45.230469 17.433594 44.917969 16.933594 44.558594 16.464844 L 42.632812 14.554688 C 42.269531 14.476562 41.894531 14.464844 41.527344 14.523438 C 41.15625 14.578125 40.789062 14.671875 40.441406 14.808594 C 40.089844 14.949219 39.753906 15.117188 39.429688 15.3125 C 39.113281 15.511719 38.808594 15.734375 38.523438 15.976562 C 37.953125 16.460938 37.4375 17.003906 36.984375 17.597656 C 36.539062 18.1875 36.132812 18.808594 35.769531 19.453125 C 35.070312 20.742188 34.503906 22.097656 34.074219 23.5 C 33.820312 24.308594 33.605469 25.125 33.429688 25.949219 C 33.414062 26.019531 33.445312 26.09375 33.511719 26.125 L 36.457031 29.042969 C 36.742188 29.019531 37.023438 28.992188 37.304688 28.960938 C 37.539062 28.324219 37.78125 27.6875 38.03125 27.058594 C 38.558594 25.734375 39.160156 24.441406 39.835938 23.183594 C 40.019531 22.878906 40.183594 22.566406 40.378906 22.269531 C 40.472656 22.121094 40.5625 21.96875 40.664062 21.824219 L 40.964844 21.386719 C 41.371094 20.816406 41.824219 20.277344 42.320312 19.777344 C 42.8125 19.277344 43.375 18.851562 43.992188 18.507812 C 44.300781 18.335938 44.625 18.195312 44.964844 18.089844 C 45.136719 18.035156 45.308594 17.996094 45.484375 17.964844 Z M 45.484375 17.964844 "/>
<path style=" stroke:none;fill-rule:nonzero;fill:url(#linear25);" d="M 42.632812 14.554688 C 42.453125 14.554688 42.273438 14.570312 42.09375 14.601562 C 41.917969 14.632812 41.742188 14.675781 41.570312 14.730469 C 41.234375 14.835938 40.90625 14.972656 40.597656 15.144531 C 39.984375 15.488281 39.421875 15.914062 38.925781 16.414062 C 38.429688 16.914062 37.976562 17.453125 37.570312 18.023438 L 37.269531 18.460938 C 37.167969 18.605469 37.082031 18.761719 36.984375 18.910156 C 36.792969 19.203125 36.625 19.515625 36.445312 19.820312 C 35.769531 21.078125 35.164062 22.371094 34.640625 23.699219 C 34.328125 24.472656 34.039062 25.253906 33.746094 26.039062 C 33.71875 26.121094 33.628906 26.164062 33.546875 26.140625 C 33.464844 26.117188 33.414062 26.035156 33.429688 25.949219 C 33.605469 25.125 33.820312 24.308594 34.074219 23.5 C 34.503906 22.097656 35.070312 20.742188 35.769531 19.453125 C 36.132812 18.808594 36.539062 18.1875 36.984375 17.597656 C 37.4375 17.003906 37.953125 16.460938 38.523438 15.976562 C 38.808594 15.734375 39.113281 15.511719 39.429688 15.3125 C 39.753906 15.117188 40.089844 14.949219 40.4375 14.804688 C 40.789062 14.671875 41.15625 14.578125 41.527344 14.523438 C 41.894531 14.464844 42.269531 14.476562 42.632812 14.554688 Z M 42.632812 14.554688 "/>
<path style=" stroke:none;fill-rule:nonzero;fill:url(#linear26);" d="M 44.71875 16.679688 C 44.703125 16.664062 44.683594 16.644531 44.667969 16.628906 C 44.605469 16.582031 44.539062 16.53125 44.472656 16.488281 C 44.402344 16.445312 44.328125 16.40625 44.253906 16.371094 C 44.179688 16.335938 44.101562 16.308594 44.019531 16.289062 C 43.9375 16.261719 43.855469 16.246094 43.773438 16.234375 C 43.429688 16.1875 43.082031 16.230469 42.761719 16.351562 C 42.441406 16.472656 42.144531 16.636719 41.871094 16.839844 C 41.605469 17.039062 41.355469 17.257812 41.125 17.496094 C 40.671875 17.972656 40.265625 18.484375 39.90625 19.03125 C 39.550781 19.570312 39.222656 20.125 38.929688 20.699219 C 38.34375 21.835938 37.839844 23.015625 37.421875 24.226562 C 37.179688 24.921875 36.957031 25.625 36.769531 26.339844 C 36.746094 26.414062 36.785156 26.496094 36.863281 26.527344 L 39.046875 28.695312 C 40.507812 28.410156 41.816406 27.988281 42.910156 27.398438 C 43.238281 26.699219 43.574219 26.007812 43.929688 25.328125 C 44.074219 25.050781 44.222656 24.773438 44.375 24.503906 C 44.523438 24.230469 44.679688 23.960938 44.84375 23.695312 C 45.160156 23.164062 45.511719 22.65625 45.894531 22.175781 C 46.054688 21.980469 46.222656 21.792969 46.398438 21.613281 C 46.378906 19.820312 45.769531 18.140625 44.71875 16.679688 Z M 44.71875 16.679688 "/>
<path style=" stroke:none;fill-rule:nonzero;fill:url(#linear27);" d="M 37.082031 26.445312 C 37.046875 26.523438 36.957031 26.5625 36.875 26.535156 C 36.792969 26.507812 36.75 26.421875 36.769531 26.339844 C 36.960938 25.625 37.179688 24.921875 37.421875 24.222656 C 37.839844 23.015625 38.34375 21.835938 38.929688 20.699219 C 39.222656 20.125 39.550781 19.566406 39.90625 19.03125 C 40.265625 18.484375 40.671875 17.96875 41.125 17.496094 C 41.355469 17.257812 41.605469 17.035156 41.871094 16.839844 C 42.144531 16.636719 42.441406 16.472656 42.761719 16.351562 C 43.082031 16.230469 43.429688 16.1875 43.773438 16.230469 C 43.855469 16.242188 43.941406 16.261719 44.019531 16.285156 C 44.101562 16.308594 44.179688 16.335938 44.253906 16.371094 C 44.328125 16.40625 44.402344 16.445312 44.472656 16.488281 C 44.539062 16.53125 44.605469 16.582031 44.667969 16.625 C 44.386719 16.496094 44.074219 16.433594 43.761719 16.441406 C 43.464844 16.460938 43.175781 16.546875 42.914062 16.695312 C 42.394531 16.980469 41.960938 17.421875 41.578125 17.894531 C 41.191406 18.378906 40.839844 18.886719 40.523438 19.417969 C 40.363281 19.679688 40.207031 19.949219 40.054688 20.222656 C 39.902344 20.496094 39.753906 20.769531 39.613281 21.046875 C 39.035156 22.15625 38.503906 23.296875 37.980469 24.445312 C 37.679688 25.109375 37.382812 25.777344 37.082031 26.445312 Z M 37.082031 26.445312 "/>
<path style=" stroke:none;fill-rule:nonzero;fill:url(#linear28);" d="M 47.929688 35.546875 C 47.710938 33.148438 47.269531 26.898438 47.269531 26.898438 L 45.800781 25.046875 C 45.109375 19.179688 42.070312 14.761719 38.425781 14.761719 C 34.273438 14.761719 30.90625 20.5 30.90625 27.585938 C 30.90625 28.054688 30.917969 28.519531 30.949219 28.976562 L 29.8125 31.402344 L 29.8125 38.164062 C 29.8125 40.707031 29.59375 42.960938 33.042969 43.976562 C 36.488281 44.996094 44.1875 43.175781 47.269531 39.179688 C 47.269531 39.179688 48.152344 37.945312 47.929688 35.546875 Z M 47.929688 35.546875 "/>
<path style=" stroke:none;fill-rule:nonzero;fill:url(#linear29);" d="M 47.019531 35.445312 C 46.820312 33.171875 46.429688 27.257812 46.429688 27.257812 L 45.117188 25.503906 C 44.5 19.953125 41.789062 15.769531 38.535156 15.769531 C 34.824219 15.769531 31.816406 21.203125 31.816406 27.910156 C 31.816406 28.351562 31.832031 28.792969 31.855469 29.222656 L 30.84375 31.523438 L 30.84375 37.921875 C 30.84375 40.328125 30.648438 42.460938 33.726562 43.421875 C 36.800781 44.386719 43.679688 42.667969 46.429688 38.882812 C 46.429688 38.882812 47.214844 37.714844 47.019531 35.445312 Z M 47.019531 35.445312 "/>
<path style=" stroke:none;fill-rule:nonzero;fill:url(#linear30);" d="M 31.855469 29.222656 L 30.84375 31.523438 L 30.84375 37.921875 C 30.84375 40.328125 30.648438 42.460938 33.726562 43.421875 C 36.800781 44.386719 43.679688 42.667969 46.429688 38.882812 C 46.429688 38.882812 47.214844 37.714844 47.019531 35.445312 C 46.820312 33.171875 46.429688 27.257812 46.429688 27.257812 L 45.117188 25.503906 C 45.117188 25.503906 44.550781 29.1875 31.855469 29.222656 Z M 31.855469 29.222656 "/>
<path style=" stroke:none;fill-rule:nonzero;fill:url(#linear31);" d="M 33.726562 43.421875 C 36.804688 44.386719 43.679688 42.667969 46.429688 38.882812 C 46.429688 38.882812 47.214844 37.714844 47.019531 35.441406 C 46.820312 33.171875 46.429688 27.257812 46.429688 27.257812 C 46.429688 27.257812 45.332031 31.007812 30.84375 31.523438 L 30.84375 37.921875 C 30.84375 40.328125 30.648438 42.460938 33.726562 43.421875 Z M 33.726562 43.421875 "/>
<path style=" stroke:none;fill-rule:nonzero;fill:url(#linear32);" d="M 45.433594 34.050781 C 45.304688 32.535156 45.042969 28.585938 45.042969 28.585938 L 44.167969 27.417969 C 43.753906 23.710938 41.941406 20.917969 39.769531 20.917969 C 37.292969 20.917969 35.289062 24.546875 35.289062 29.023438 C 35.289062 29.320312 35.296875 29.613281 35.3125 29.902344 L 34.636719 31.433594 L 34.636719 35.707031 C 34.636719 37.3125 34.507812 38.734375 36.5625 39.378906 C 38.617188 40.023438 43.207031 38.875 45.042969 36.347656 C 45.042969 36.347656 45.566406 35.566406 45.433594 34.050781 Z M 45.433594 34.050781 "/>
<path style=" stroke:none;fill-rule:nonzero;fill:url(#radial0);" d="M 44.375 33.300781 C 44.269531 32.085938 44.058594 28.914062 44.058594 28.914062 L 43.355469 27.972656 C 43.023438 24.996094 41.570312 22.753906 39.824219 22.753906 C 37.835938 22.753906 36.226562 25.667969 36.226562 29.261719 C 36.226562 29.5 36.230469 29.734375 36.246094 29.964844 L 35.703125 31.199219 L 35.703125 34.628906 C 35.703125 35.917969 35.597656 37.0625 37.246094 37.578125 C 38.898438 38.09375 42.582031 37.171875 44.058594 35.144531 C 44.058594 35.144531 44.480469 34.519531 44.375 33.300781 Z M 44.375 33.300781 "/>
<path style=" stroke:none;fill-rule:nonzero;fill:url(#linear33);" d="M 43.925781 41.1875 L 31.855469 29.222656 L 30.84375 31.523438 L 30.84375 37.921875 C 30.84375 40.328125 30.648438 42.460938 33.726562 43.421875 C 36.085938 44.160156 40.675781 43.320312 43.925781 41.1875 Z M 43.925781 41.1875 "/>
</g>
</svg>
