<?xml version="1.0" encoding="UTF-8"?>
<svg xmlns="http://www.w3.org/2000/svg" xmlns:xlink="http://www.w3.org/1999/xlink" width="50" height="50" viewBox="0 0 50 50" version="1.1">
<g id="surface1">
<path style=" stroke:none;fill-rule:nonzero;fill:rgb(52.941176%,32.941176%,31.372549%);fill-opacity:1;" d="M 1.449219 49.902344 L 0.0976562 48.550781 C 0.0351562 48.488281 0 48.402344 0 48.3125 C 0 48.222656 0.0351562 48.136719 0.0976562 48.074219 L 21.816406 26.355469 L 23.640625 28.183594 L 1.925781 49.902344 C 1.792969 50.03125 1.578125 50.03125 1.449219 49.902344 Z M 1.449219 49.902344 "/>
<path style=" stroke:none;fill-rule:nonzero;fill:rgb(96.862745%,97.254902%,92.156863%);fill-opacity:1;" d="M 50 16.703125 C 50 25.929688 42.519531 33.40625 33.296875 33.40625 C 24.070312 33.40625 16.59375 25.929688 16.59375 16.703125 C 16.59375 7.480469 24.070312 0 33.296875 0 C 42.519531 0 50 7.480469 50 16.703125 Z M 50 16.703125 "/>
<path style=" stroke:none;fill-rule:nonzero;fill:rgb(94.117647%,26.27451%,28.235294%);fill-opacity:1;" d="M 50 16.703125 C 49.992188 21.859375 47.609375 26.726562 43.539062 29.886719 C 39.46875 33.050781 34.167969 34.160156 29.167969 32.894531 C 41.410156 32.316406 47.492188 23.09375 45.546875 14.109375 C 44.4375 9.03125 40.53125 5.359375 35.457031 4.410156 C 30.539062 3.617188 25.761719 5.605469 23.34375 10.371094 C 22.042969 12.886719 21.929688 15.851562 23.027344 18.460938 C 24.296875 21.316406 26.832031 23.375 30.003906 23.695312 C 33.8125 24.011719 37.9375 21.316406 37.777344 17.191406 C 37.617188 15.445312 36.824219 13.703125 35.242188 12.75 C 33.8125 11.957031 32.386719 11.957031 31.117188 13.066406 C 30.480469 13.703125 30.003906 14.496094 30.164062 15.445312 C 30.324219 16.082031 31.273438 16.558594 31.96875 16.070312 C 32.394531 15.652344 33.046875 15.691406 33.480469 16.285156 C 34.128906 17.351562 33.65625 18.9375 32.542969 19.570312 C 31.433594 20.046875 30.164062 20.207031 29.054688 19.730469 C 26.355469 18.460938 25.246094 14.972656 26.355469 12.273438 C 27.625 9.417969 30.957031 7.675781 34.128906 7.992188 C 36.667969 8.308594 38.726562 9.578125 40.316406 11.640625 C 42.21875 14.335938 42.535156 17.351562 41.742188 20.363281 C 39.839844 26.710938 32.386719 29.722656 26.355469 27.503906 C 19.695312 25.28125 16.523438 17.828125 18.265625 11.324219 C 19.054688 8.441406 20.597656 5.988281 22.570312 3.898438 C 27.546875 -0.269531 34.484375 -1.175781 40.363281 1.570312 C 46.242188 4.3125 50 10.214844 50 16.703125 Z M 50 16.703125 "/>
<path style=" stroke:none;fill-rule:nonzero;fill:rgb(84.705882%,23.921569%,28.627451%);fill-opacity:1;" d="M 32.542969 19.570312 C 33.65625 18.9375 34.128906 17.351562 33.480469 16.285156 C 33.046875 15.691406 32.394531 15.652344 31.96875 16.070312 C 31.730469 16.238281 31.433594 16.304688 31.144531 16.253906 C 31.152344 16.265625 31.160156 16.273438 31.164062 16.285156 C 31.816406 17.351562 31.339844 18.9375 30.230469 19.570312 C 29.960938 19.6875 29.6875 19.78125 29.402344 19.855469 C 30.425781 20.167969 31.546875 19.996094 32.542969 19.570312 Z M 32.542969 19.570312 "/>
<path style=" stroke:none;fill-rule:nonzero;fill:rgb(84.705882%,23.921569%,28.627451%);fill-opacity:1;" d="M 41.742188 20.363281 C 42.535156 17.351562 42.21875 14.335938 40.316406 11.640625 C 38.730469 9.578125 36.667969 8.3125 34.128906 7.992188 C 33.480469 7.929688 32.828125 7.949219 32.1875 8.046875 C 34.554688 8.441406 36.492188 9.679688 38.003906 11.640625 C 39.90625 14.335938 40.222656 17.351562 39.429688 20.363281 C 38.0625 24.914062 33.84375 27.753906 29.339844 28.171875 C 34.632812 28.667969 40.144531 25.691406 41.742188 20.363281 Z M 41.742188 20.363281 "/>
<path style=" stroke:none;fill-rule:nonzero;fill:rgb(84.705882%,23.921569%,28.627451%);fill-opacity:1;" d="M 33.296875 0 C 32.902344 0 32.515625 0.0117188 32.128906 0.0390625 C 40.882812 0.640625 47.679688 7.917969 47.683594 16.695312 C 47.691406 25.472656 40.898438 32.757812 32.144531 33.367188 C 32.523438 33.394531 32.910156 33.40625 33.296875 33.40625 C 42.507812 33.386719 49.960938 25.914062 49.960938 16.703125 C 49.960938 7.492188 42.503906 0.0234375 33.296875 0 Z M 33.296875 0 "/>
</g>
</svg>
