<?xml version="1.0" encoding="UTF-8"?>
<svg xmlns="http://www.w3.org/2000/svg" xmlns:xlink="http://www.w3.org/1999/xlink" width="50" height="49" viewBox="0 0 50 49" version="1.1">
<defs>
<radialGradient id="radial0" gradientUnits="userSpaceOnUse" cx="0.5" cy="0.5" fx="0.5" fy="0.5" r="0.523" gradientTransform="matrix(48.367188,0,0,-48.152344,0.816406,48.049949)">
<stop offset="0" style="stop-color:rgb(100%,90.588235%,64.705882%);stop-opacity:1;"/>
<stop offset="0.479" style="stop-color:rgb(100%,90.196078%,63.921569%);stop-opacity:1;"/>
<stop offset="0.652" style="stop-color:rgb(100%,88.627451%,61.176471%);stop-opacity:1;"/>
<stop offset="0.775" style="stop-color:rgb(100%,86.27451%,56.862745%);stop-opacity:1;"/>
<stop offset="0.874" style="stop-color:rgb(100%,82.745098%,50.196078%);stop-opacity:1;"/>
<stop offset="0.958" style="stop-color:rgb(100%,78.039216%,41.568627%);stop-opacity:1;"/>
<stop offset="1" style="stop-color:rgb(100%,74.901961%,36.078431%);stop-opacity:1;"/>
</radialGradient>
<radialGradient id="radial1" gradientUnits="userSpaceOnUse" cx="0.5" cy="0.5" fx="0.5" fy="0.5" r="0.5" gradientTransform="matrix(39.015625,0,0,-38.847656,5.492188,43.380156)">
<stop offset="0" style="stop-color:rgb(100%,36.470588%,0%);stop-opacity:1;"/>
<stop offset="0.218" style="stop-color:rgb(100%,42.745098%,5.882353%);stop-opacity:0.780392;"/>
<stop offset="0.643" style="stop-color:rgb(100%,59.215686%,21.568627%);stop-opacity:0.356863;"/>
<stop offset="1" style="stop-color:rgb(100%,74.901961%,36.078431%);stop-opacity:0;"/>
</radialGradient>
<linearGradient id="linear0" gradientUnits="userSpaceOnUse" x1="0.498" y1="0.682" x2="0.498" y2="0.167" gradientTransform="matrix(50,0,0,43.386719,0,-0.000000000000000075)">
<stop offset="0" style="stop-color:rgb(39.607843%,30.588235%,28.235294%);stop-opacity:1;"/>
<stop offset="1" style="stop-color:rgb(31.372549%,21.960784%,21.568627%);stop-opacity:1;"/>
</linearGradient>
<radialGradient id="radial2" gradientUnits="userSpaceOnUse" cx="0.5" cy="0.5" fx="0.5" fy="0.5" r="0.404" gradientTransform="matrix(38.07925,0,0,-37.921875,5.960375,44.296844)">
<stop offset="0" style="stop-color:rgb(31.372549%,21.960784%,21.568627%);stop-opacity:1;"/>
<stop offset="0.492" style="stop-color:rgb(30.196078%,21.176471%,20.392157%);stop-opacity:0.509804;"/>
<stop offset="0.873" style="stop-color:rgb(26.27451%,19.215686%,17.254902%);stop-opacity:0.129412;"/>
<stop offset="1" style="stop-color:rgb(24.313725%,18.039216%,15.686275%);stop-opacity:0;"/>
</radialGradient>
<linearGradient id="linear1" gradientUnits="userSpaceOnUse" x1="0.756" y1="1.289" x2="0.168" y2="1.533" gradientTransform="matrix(3.863281,0,0,5.199219,1.421875,19.710937)">
<stop offset="0" style="stop-color:rgb(24.313725%,18.039216%,15.686275%);stop-opacity:0;"/>
<stop offset="1" style="stop-color:rgb(31.372549%,21.960784%,21.568627%);stop-opacity:1;"/>
</linearGradient>
<linearGradient id="linear2" gradientUnits="userSpaceOnUse" x1="0.768" y1="-0.302" x2="0.339" y2="0.028" gradientTransform="matrix(3.902344,0,0,5.003906,9.105469,23.667969)">
<stop offset="0" style="stop-color:rgb(24.313725%,18.039216%,15.686275%);stop-opacity:0;"/>
<stop offset="1" style="stop-color:rgb(31.372549%,21.960784%,21.568627%);stop-opacity:1;"/>
</linearGradient>
<linearGradient id="linear3" gradientUnits="userSpaceOnUse" x1="0.67" y1="2.284" x2="0.025" y2="2.68" gradientTransform="matrix(3.324219,0,0,5.394531,7.191406,16.800781)">
<stop offset="0" style="stop-color:rgb(24.313725%,18.039216%,15.686275%);stop-opacity:0;"/>
<stop offset="1" style="stop-color:rgb(31.372549%,21.960784%,21.568627%);stop-opacity:1;"/>
</linearGradient>
<linearGradient id="linear4" gradientUnits="userSpaceOnUse" x1="0.6" y1="-0.779" x2="0.462" y2="-0.334" gradientTransform="matrix(4.886719,0,0,4.0625,3.714844,24.582031)">
<stop offset="0" style="stop-color:rgb(24.313725%,18.039216%,15.686275%);stop-opacity:0;"/>
<stop offset="1" style="stop-color:rgb(31.372549%,21.960784%,21.568627%);stop-opacity:1;"/>
</linearGradient>
<linearGradient id="linear5" gradientUnits="userSpaceOnUse" x1="0.554" y1="2.019" x2="0.417" y2="2.444" gradientTransform="matrix(5.234375,0,0,3.816406,11.71875,19.355469)">
<stop offset="0" style="stop-color:rgb(24.313725%,18.039216%,15.686275%);stop-opacity:0;"/>
<stop offset="1" style="stop-color:rgb(31.372549%,21.960784%,21.568627%);stop-opacity:1;"/>
</linearGradient>
<linearGradient id="linear6" gradientUnits="userSpaceOnUse" x1="0.747" y1="5.926" x2="0.159" y2="6.171" gradientTransform="matrix(3.863281,0,0,5.203125,10.535156,7.613281)">
<stop offset="0" style="stop-color:rgb(24.313725%,18.039216%,15.686275%);stop-opacity:0;"/>
<stop offset="1" style="stop-color:rgb(31.372549%,21.960784%,21.568627%);stop-opacity:1;"/>
</linearGradient>
<linearGradient id="linear7" gradientUnits="userSpaceOnUse" x1="0.759" y1="4.358" x2="0.33" y2="4.688" gradientTransform="matrix(3.898438,0,0,5.003906,18.21875,11.574219)">
<stop offset="0" style="stop-color:rgb(24.313725%,18.039216%,15.686275%);stop-opacity:0;"/>
<stop offset="1" style="stop-color:rgb(31.372549%,21.960784%,21.568627%);stop-opacity:1;"/>
</linearGradient>
<linearGradient id="linear8" gradientUnits="userSpaceOnUse" x1="0.66" y1="6.736" x2="0.015" y2="7.132" gradientTransform="matrix(3.324219,0,0,5.398438,16.304687,4.703125)">
<stop offset="0" style="stop-color:rgb(24.313725%,18.039216%,15.686275%);stop-opacity:0;"/>
<stop offset="1" style="stop-color:rgb(31.372549%,21.960784%,21.568627%);stop-opacity:1;"/>
</linearGradient>
<linearGradient id="linear9" gradientUnits="userSpaceOnUse" x1="0.592" y1="4.959" x2="0.455" y2="5.404" gradientTransform="matrix(4.886719,0,0,4.058594,12.828125,12.488281)">
<stop offset="0" style="stop-color:rgb(24.313725%,18.039216%,15.686275%);stop-opacity:0;"/>
<stop offset="1" style="stop-color:rgb(31.372549%,21.960784%,21.568627%);stop-opacity:1;"/>
</linearGradient>
<linearGradient id="linear10" gradientUnits="userSpaceOnUse" x1="0.547" y1="8.193" x2="0.41" y2="8.618" gradientTransform="matrix(5.238281,0,0,3.820312,20.828125,7.257812)">
<stop offset="0" style="stop-color:rgb(24.313725%,18.039216%,15.686275%);stop-opacity:0;"/>
<stop offset="1" style="stop-color:rgb(31.372549%,21.960784%,21.568627%);stop-opacity:1;"/>
</linearGradient>
<linearGradient id="linear11" gradientUnits="userSpaceOnUse" x1="0.731" y1="5.882" x2="0.143" y2="6.126" gradientTransform="matrix(3.863281,0,0,5.199219,26.539062,7.730469)">
<stop offset="0" style="stop-color:rgb(24.313725%,18.039216%,15.686275%);stop-opacity:0;"/>
<stop offset="1" style="stop-color:rgb(31.372549%,21.960784%,21.568627%);stop-opacity:1;"/>
</linearGradient>
<linearGradient id="linear12" gradientUnits="userSpaceOnUse" x1="0.743" y1="4.313" x2="0.314" y2="4.644" gradientTransform="matrix(3.902344,0,0,5.003906,34.222656,11.691406)">
<stop offset="0" style="stop-color:rgb(24.313725%,18.039216%,15.686275%);stop-opacity:0;"/>
<stop offset="1" style="stop-color:rgb(31.372549%,21.960784%,21.568627%);stop-opacity:1;"/>
</linearGradient>
<linearGradient id="linear13" gradientUnits="userSpaceOnUse" x1="0.641" y1="6.693" x2="-0.004" y2="7.09" gradientTransform="matrix(3.324219,0,0,5.394531,32.308594,4.820312)">
<stop offset="0" style="stop-color:rgb(24.313725%,18.039216%,15.686275%);stop-opacity:0;"/>
<stop offset="1" style="stop-color:rgb(31.372549%,21.960784%,21.568627%);stop-opacity:1;"/>
</linearGradient>
<linearGradient id="linear14" gradientUnits="userSpaceOnUse" x1="0.58" y1="4.903" x2="0.443" y2="5.349" gradientTransform="matrix(4.886719,0,0,4.058594,28.832031,12.605469)">
<stop offset="0" style="stop-color:rgb(24.313725%,18.039216%,15.686275%);stop-opacity:0;"/>
<stop offset="1" style="stop-color:rgb(31.372549%,21.960784%,21.568627%);stop-opacity:1;"/>
</linearGradient>
<linearGradient id="linear15" gradientUnits="userSpaceOnUse" x1="0.535" y1="8.134" x2="0.399" y2="8.559" gradientTransform="matrix(5.234375,0,0,3.820313,36.835938,7.375)">
<stop offset="0" style="stop-color:rgb(24.313725%,18.039216%,15.686275%);stop-opacity:0;"/>
<stop offset="1" style="stop-color:rgb(31.372549%,21.960784%,21.568627%);stop-opacity:1;"/>
</linearGradient>
<linearGradient id="linear16" gradientUnits="userSpaceOnUse" x1="0.724" y1="1.512" x2="0.136" y2="1.756" gradientTransform="matrix(3.863281,0,0,5.199219,34.015625,19.128906)">
<stop offset="0" style="stop-color:rgb(24.313725%,18.039216%,15.686275%);stop-opacity:0;"/>
<stop offset="1" style="stop-color:rgb(31.372549%,21.960784%,21.568627%);stop-opacity:1;"/>
</linearGradient>
<linearGradient id="linear17" gradientUnits="userSpaceOnUse" x1="0.736" y1="-0.078" x2="0.307" y2="0.252" gradientTransform="matrix(3.902344,0,0,5.003906,41.699219,23.085938)">
<stop offset="0" style="stop-color:rgb(24.313725%,18.039216%,15.686275%);stop-opacity:0;"/>
<stop offset="1" style="stop-color:rgb(31.372549%,21.960784%,21.568627%);stop-opacity:1;"/>
</linearGradient>
<linearGradient id="linear18" gradientUnits="userSpaceOnUse" x1="0.632" y1="2.498" x2="-0.013" y2="2.894" gradientTransform="matrix(3.324219,0,0,5.394531,39.785156,16.21875)">
<stop offset="0" style="stop-color:rgb(24.313725%,18.039216%,15.686275%);stop-opacity:0;"/>
<stop offset="1" style="stop-color:rgb(31.372549%,21.960784%,21.568627%);stop-opacity:1;"/>
</linearGradient>
<linearGradient id="linear19" gradientUnits="userSpaceOnUse" x1="0.575" y1="-0.503" x2="0.437" y2="-0.058" gradientTransform="matrix(4.886719,0,0,4.0625,36.308594,24)">
<stop offset="0" style="stop-color:rgb(24.313725%,18.039216%,15.686275%);stop-opacity:0;"/>
<stop offset="1" style="stop-color:rgb(31.372549%,21.960784%,21.568627%);stop-opacity:1;"/>
</linearGradient>
<linearGradient id="linear20" gradientUnits="userSpaceOnUse" x1="0.53" y1="2.316" x2="0.393" y2="2.741" gradientTransform="matrix(5.234375,0,0,3.820312,44.3125,18.773438)">
<stop offset="0" style="stop-color:rgb(24.313725%,18.039216%,15.686275%);stop-opacity:0;"/>
<stop offset="1" style="stop-color:rgb(31.372549%,21.960784%,21.568627%);stop-opacity:1;"/>
</linearGradient>
</defs>
<g id="surface1">
<path style=" stroke:none;fill-rule:nonzero;fill:url(#radial0);" d="M 25 0.8125 C 11.644531 0.8125 0.816406 11.59375 0.816406 24.890625 C 0.816406 38.183594 11.644531 48.964844 25 48.964844 C 38.355469 48.964844 49.183594 38.183594 49.183594 24.890625 C 49.183594 11.59375 38.355469 0.8125 25 0.8125 Z M 25 33.40625 C 20.273438 33.40625 16.445312 29.59375 16.445312 24.890625 C 16.445312 20.183594 20.273438 16.371094 25 16.371094 C 29.726562 16.371094 33.554688 20.183594 33.554688 24.890625 C 33.554688 29.59375 29.726562 33.40625 25 33.40625 Z M 25 33.40625 "/>
<path style=" stroke:none;fill-rule:nonzero;fill:url(#radial1);" d="M 25 5.464844 C 14.226562 5.464844 5.492188 14.160156 5.492188 24.890625 C 5.492188 35.617188 14.226562 44.3125 25 44.3125 C 35.773438 44.3125 44.507812 35.617188 44.507812 24.890625 C 44.507812 14.164062 35.773438 5.464844 25 5.464844 Z M 25 33.40625 C 20.273438 33.40625 16.445312 29.59375 16.445312 24.890625 C 16.445312 20.183594 20.273438 16.371094 25 16.371094 C 29.726562 16.371094 33.554688 20.183594 33.554688 24.890625 C 33.554688 29.59375 29.726562 33.40625 25 33.40625 Z M 25 33.40625 "/>
<path style=" stroke:none;fill-rule:nonzero;fill:url(#linear0);" d="M 24.953125 0 C 11.324219 0.0273438 -0.0273438 11.371094 0 24.9375 C 0.00390625 26.917969 0.242188 28.890625 0.714844 30.8125 C 1.480469 33.902344 4.269531 36.066406 7.464844 36.058594 C 9.449219 36.058594 11.054688 34.457031 11.058594 32.484375 C 11.058594 31.277344 12.039062 30.300781 13.246094 30.300781 C 14.457031 30.300781 15.4375 31.277344 15.4375 32.484375 L 15.4375 38.625 C 15.4375 41.253906 17.578125 43.386719 20.21875 43.386719 C 22.859375 43.386719 25 41.253906 25 38.625 L 25 38.539062 C 25 37.265625 26.035156 36.234375 27.316406 36.234375 C 28.59375 36.234375 29.632812 37.265625 29.632812 38.539062 C 29.632812 39.992188 30.816406 41.171875 32.273438 41.171875 L 32.59375 41.171875 C 34.054688 41.171875 35.238281 39.992188 35.238281 38.539062 L 35.238281 33.53125 C 35.238281 32.132812 36.375 31 37.78125 31 C 39.183594 31 40.320312 32.132812 40.320312 33.53125 L 40.320312 33.703125 C 40.320312 34.226562 40.539062 34.730469 40.890625 35.203125 C 41.003906 35.351562 41.125 35.496094 41.257812 35.628906 C 43.3125 37.734375 47.011719 37.066406 48.179688 34.234375 C 48.183594 34.222656 48.191406 34.207031 48.195312 34.195312 C 49.390625 31.238281 50.003906 28.078125 50 24.890625 C 50 11.125 38.78125 -0.0273438 24.953125 0 Z M 25 33.40625 C 20.273438 33.40625 16.445312 29.59375 16.445312 24.890625 C 16.445312 20.183594 20.273438 16.371094 25 16.371094 C 29.726562 16.371094 33.554688 20.183594 33.554688 24.890625 C 33.554688 29.59375 29.726562 33.40625 25 33.40625 Z M 25 33.40625 "/>
<path style=" stroke:none;fill-rule:nonzero;fill:url(#radial2);" d="M 25 5.464844 C 14.226562 5.464844 5.492188 14.160156 5.492188 24.890625 C 5.484375 28.773438 6.65625 32.570312 8.847656 35.785156 C 10.183594 35.226562 11.054688 33.925781 11.058594 32.484375 C 11.058594 31.277344 12.039062 30.300781 13.246094 30.300781 C 14.457031 30.300781 15.4375 31.277344 15.4375 32.484375 L 15.4375 38.625 C 15.4375 41.253906 17.578125 43.386719 20.21875 43.386719 C 22.859375 43.386719 25 41.253906 25 38.625 L 25 38.539062 C 25 37.265625 26.035156 36.234375 27.316406 36.234375 C 28.59375 36.234375 29.632812 37.265625 29.632812 38.539062 C 29.632812 39.992188 30.816406 41.171875 32.273438 41.171875 L 32.59375 41.171875 C 34.054688 41.171875 35.238281 39.992188 35.238281 38.539062 L 35.238281 33.53125 C 35.238281 32.132812 36.375 31 37.78125 31 C 39.183594 31 40.320312 32.132812 40.320312 33.53125 L 40.320312 33.703125 C 40.320312 34.226562 40.539062 34.730469 40.890625 35.203125 C 41.003906 35.351562 41.125 35.496094 41.257812 35.628906 C 43.382812 32.449219 44.515625 28.710938 44.507812 24.890625 C 44.507812 14.164062 35.773438 5.464844 25 5.464844 Z M 25 33.40625 C 20.273438 33.40625 16.445312 29.59375 16.445312 24.890625 C 16.445312 20.183594 20.273438 16.371094 25 16.371094 C 29.726562 16.371094 33.554688 20.183594 33.554688 24.890625 C 33.554688 29.59375 29.726562 33.40625 25 33.40625 Z M 25 33.40625 "/>
<path style=" stroke:none;fill-rule:nonzero;fill:url(#linear1);" d="M 3.445312 19.875 C 3.34375 19.753906 3.1875 19.691406 3.03125 19.710938 C 2.875 19.730469 2.738281 19.824219 2.667969 19.964844 L 1.421875 22.46875 C 1.332031 22.648438 1.371094 22.867188 1.519531 23.007812 L 3.265625 24.746094 C 3.367188 24.867188 3.523438 24.929688 3.679688 24.910156 C 3.835938 24.890625 3.972656 24.796875 4.042969 24.65625 L 5.285156 22.152344 C 5.375 21.972656 5.335938 21.753906 5.191406 21.613281 Z M 3.445312 19.875 "/>
<path style=" stroke:none;fill-rule:nonzero;fill:url(#linear2);" d="M 9.851562 23.722656 C 9.691406 23.554688 9.433594 23.535156 9.246094 23.667969 C 9.058594 23.804688 9 24.054688 9.105469 24.257812 L 10.394531 26.738281 C 10.425781 26.792969 10.464844 26.84375 10.511719 26.882812 L 12.261719 28.621094 C 12.421875 28.785156 12.679688 28.808594 12.867188 28.671875 C 13.054688 28.539062 13.113281 28.285156 13.007812 28.082031 L 11.714844 25.605469 C 11.6875 25.550781 11.648438 25.5 11.597656 25.460938 Z M 9.851562 23.722656 "/>
<path style=" stroke:none;fill-rule:nonzero;fill:url(#linear3);" d="M 8.632812 16.945312 C 8.515625 16.8125 8.335938 16.757812 8.167969 16.800781 C 7.996094 16.839844 7.863281 16.976562 7.824219 17.144531 L 7.191406 19.863281 C 7.152344 20.027344 7.207031 20.195312 7.328125 20.308594 L 9.078125 22.046875 C 9.191406 22.179688 9.371094 22.238281 9.542969 22.195312 C 9.710938 22.152344 9.84375 22.019531 9.882812 21.847656 L 10.515625 19.128906 C 10.554688 18.96875 10.503906 18.796875 10.378906 18.683594 Z M 8.632812 16.945312 "/>
<path style=" stroke:none;fill-rule:nonzero;fill:url(#linear4);" d="M 6.792969 26.167969 C 6.765625 26.136719 6.734375 26.109375 6.699219 26.085938 L 4.339844 24.582031 C 4.132812 24.453125 3.863281 24.5 3.714844 24.695312 C 3.566406 24.886719 3.59375 25.160156 3.777344 25.320312 L 5.523438 27.058594 C 5.550781 27.089844 5.582031 27.117188 5.617188 27.140625 L 7.976562 28.644531 C 8.183594 28.777344 8.457031 28.726562 8.601562 28.535156 C 8.75 28.339844 8.722656 28.066406 8.539062 27.90625 Z M 6.792969 26.167969 "/>
<path style=" stroke:none;fill-rule:nonzero;fill:url(#linear5);" d="M 15.046875 19.453125 C 14.90625 19.308594 14.691406 19.265625 14.507812 19.355469 L 11.980469 20.5625 C 11.835938 20.628906 11.738281 20.765625 11.71875 20.921875 C 11.695312 21.078125 11.757812 21.234375 11.878906 21.335938 L 13.625 23.074219 C 13.765625 23.21875 13.980469 23.261719 14.164062 23.171875 L 16.691406 21.964844 C 16.835938 21.898438 16.933594 21.761719 16.953125 21.605469 C 16.976562 21.449219 16.914062 21.292969 16.792969 21.191406 Z M 15.046875 19.453125 "/>
<path style=" stroke:none;fill-rule:nonzero;fill:rgb(49.411765%,80%,99.215686%);fill-opacity:1;" d="M 1.636719 23.089844 C 1.402344 22.976562 1.308594 22.699219 1.421875 22.46875 L 2.667969 19.964844 C 2.78125 19.734375 3.0625 19.640625 3.292969 19.753906 C 3.523438 19.871094 3.621094 20.148438 3.503906 20.378906 L 2.261719 22.882812 C 2.148438 23.109375 1.867188 23.207031 1.636719 23.089844 Z M 1.636719 23.089844 "/>
<path style=" stroke:none;fill-rule:nonzero;fill:rgb(88.627451%,92.941176%,94.901961%);fill-opacity:1;" d="M 11.027344 26.9375 C 10.796875 27.054688 10.515625 26.964844 10.394531 26.738281 L 9.105469 24.257812 C 8.984375 24.03125 9.074219 23.75 9.304688 23.632812 C 9.535156 23.515625 9.816406 23.601562 9.933594 23.832031 L 11.226562 26.308594 C 11.34375 26.535156 11.253906 26.816406 11.027344 26.9375 Z M 11.027344 26.9375 "/>
<path style=" stroke:none;fill-rule:nonzero;fill:rgb(100%,48.235294%,67.45098%);fill-opacity:1;" d="M 7.539062 20.421875 C 7.289062 20.363281 7.132812 20.113281 7.191406 19.863281 L 7.824219 17.144531 C 7.886719 16.898438 8.136719 16.742188 8.386719 16.800781 C 8.636719 16.859375 8.792969 17.105469 8.734375 17.355469 L 8.101562 20.074219 C 8.042969 20.324219 7.792969 20.480469 7.539062 20.421875 Z M 7.539062 20.421875 "/>
<path style=" stroke:none;fill-rule:nonzero;fill:rgb(100%,90.588235%,64.705882%);fill-opacity:1;" d="M 3.691406 24.722656 C 3.832031 24.507812 4.121094 24.445312 4.339844 24.582031 L 6.699219 26.085938 C 6.914062 26.226562 6.976562 26.511719 6.839844 26.726562 C 6.699219 26.941406 6.414062 27.007812 6.195312 26.871094 L 3.835938 25.367188 C 3.617188 25.226562 3.554688 24.941406 3.691406 24.722656 Z M 3.691406 24.722656 "/>
<path style=" stroke:none;fill-rule:nonzero;fill:rgb(61.960784%,71.372549%,26.666667%);fill-opacity:1;" d="M 15.128906 19.570312 C 15.242188 19.804688 15.144531 20.082031 14.910156 20.191406 L 12.382812 21.398438 C 12.148438 21.511719 11.871094 21.414062 11.757812 21.179688 C 11.648438 20.949219 11.746094 20.671875 11.980469 20.5625 L 14.507812 19.355469 C 14.738281 19.242188 15.019531 19.339844 15.128906 19.570312 Z M 15.128906 19.570312 "/>
<path style=" stroke:none;fill-rule:nonzero;fill:url(#linear6);" d="M 12.554688 7.777344 C 12.453125 7.65625 12.300781 7.597656 12.140625 7.613281 C 11.984375 7.632812 11.847656 7.730469 11.777344 7.871094 L 10.535156 10.371094 C 10.445312 10.554688 10.484375 10.773438 10.632812 10.914062 L 12.378906 12.652344 C 12.480469 12.773438 12.636719 12.832031 12.792969 12.816406 C 12.949219 12.796875 13.085938 12.699219 13.15625 12.558594 L 14.398438 10.058594 C 14.488281 9.875 14.449219 9.65625 14.300781 9.515625 Z M 12.554688 7.777344 "/>
<path style=" stroke:none;fill-rule:nonzero;fill:url(#linear7);" d="M 18.964844 11.625 C 18.804688 11.460938 18.542969 11.4375 18.355469 11.574219 C 18.167969 11.707031 18.109375 11.960938 18.21875 12.164062 L 19.507812 14.640625 C 19.539062 14.695312 19.578125 14.746094 19.625 14.785156 L 21.371094 16.523438 C 21.535156 16.691406 21.792969 16.710938 21.980469 16.578125 C 22.167969 16.441406 22.226562 16.191406 22.117188 15.988281 L 20.828125 13.507812 C 20.800781 13.453125 20.757812 13.402344 20.710938 13.363281 Z M 18.964844 11.625 "/>
<path style=" stroke:none;fill-rule:nonzero;fill:url(#linear8);" d="M 17.742188 4.851562 C 17.628906 4.71875 17.449219 4.660156 17.277344 4.703125 C 17.109375 4.746094 16.976562 4.878906 16.9375 5.050781 L 16.304688 7.769531 C 16.265625 7.929688 16.320312 8.101562 16.441406 8.214844 L 18.1875 9.953125 C 18.304688 10.085938 18.484375 10.140625 18.652344 10.101562 C 18.824219 10.058594 18.957031 9.921875 18.996094 9.753906 L 19.628906 7.035156 C 19.667969 6.871094 19.613281 6.703125 19.492188 6.589844 Z M 17.742188 4.851562 "/>
<path style=" stroke:none;fill-rule:nonzero;fill:url(#linear9);" d="M 15.90625 14.070312 C 15.878906 14.039062 15.847656 14.015625 15.8125 13.992188 L 13.449219 12.488281 C 13.246094 12.355469 12.972656 12.40625 12.828125 12.597656 C 12.679688 12.792969 12.707031 13.066406 12.890625 13.226562 L 14.636719 14.964844 C 14.664062 14.996094 14.695312 15.023438 14.730469 15.046875 L 17.089844 16.546875 C 17.296875 16.679688 17.566406 16.632812 17.714844 16.4375 C 17.863281 16.246094 17.835938 15.972656 17.652344 15.808594 Z M 15.90625 14.070312 "/>
<path style=" stroke:none;fill-rule:nonzero;fill:url(#linear10);" d="M 24.160156 7.359375 C 24.019531 7.210938 23.800781 7.171875 23.621094 7.257812 L 21.089844 8.464844 C 20.949219 8.53125 20.851562 8.667969 20.828125 8.824219 C 20.808594 8.980469 20.871094 9.136719 20.992188 9.238281 L 22.738281 10.976562 C 22.875 11.125 23.09375 11.164062 23.277344 11.078125 L 25.804688 9.871094 C 25.949219 9.804688 26.046875 9.667969 26.066406 9.511719 C 26.085938 9.355469 26.027344 9.199219 25.90625 9.097656 Z M 24.160156 7.359375 "/>
<path style=" stroke:none;fill-rule:nonzero;fill:rgb(49.411765%,80%,99.215686%);fill-opacity:1;" d="M 10.746094 10.996094 C 10.515625 10.882812 10.421875 10.601562 10.535156 10.371094 L 11.777344 7.871094 C 11.894531 7.640625 12.175781 7.546875 12.40625 7.660156 C 12.636719 7.773438 12.730469 8.054688 12.617188 8.285156 L 11.375 10.785156 C 11.257812 11.015625 10.980469 11.109375 10.746094 10.996094 Z M 10.746094 10.996094 "/>
<path style=" stroke:none;fill-rule:nonzero;fill:rgb(88.627451%,92.941176%,94.901961%);fill-opacity:1;" d="M 20.136719 14.839844 C 19.910156 14.957031 19.628906 14.871094 19.507812 14.640625 L 18.21875 12.164062 C 18.097656 11.9375 18.1875 11.65625 18.417969 11.535156 C 18.644531 11.417969 18.929688 11.507812 19.046875 11.734375 L 20.339844 14.214844 C 20.457031 14.441406 20.367188 14.722656 20.136719 14.839844 Z M 20.136719 14.839844 "/>
<path style=" stroke:none;fill-rule:nonzero;fill:rgb(100%,48.235294%,67.45098%);fill-opacity:1;" d="M 16.652344 8.328125 C 16.402344 8.269531 16.246094 8.019531 16.304688 7.769531 L 16.9375 5.050781 C 16.976562 4.886719 17.097656 4.757812 17.257812 4.707031 C 17.417969 4.660156 17.589844 4.699219 17.714844 4.8125 C 17.835938 4.929688 17.886719 5.097656 17.847656 5.261719 L 17.214844 7.980469 C 17.15625 8.230469 16.90625 8.386719 16.652344 8.328125 Z M 16.652344 8.328125 "/>
<path style=" stroke:none;fill-rule:nonzero;fill:rgb(100%,90.588235%,64.705882%);fill-opacity:1;" d="M 12.804688 12.628906 C 12.945312 12.414062 13.234375 12.347656 13.449219 12.488281 L 15.8125 13.992188 C 16.027344 14.128906 16.089844 14.417969 15.953125 14.632812 C 15.8125 14.847656 15.527344 14.910156 15.308594 14.773438 L 12.945312 13.273438 C 12.730469 13.132812 12.667969 12.84375 12.804688 12.628906 Z M 12.804688 12.628906 "/>
<path style=" stroke:none;fill-rule:nonzero;fill:rgb(61.960784%,71.372549%,26.666667%);fill-opacity:1;" d="M 24.242188 7.476562 C 24.355469 7.707031 24.257812 7.988281 24.023438 8.097656 L 21.496094 9.304688 C 21.261719 9.414062 20.984375 9.316406 20.871094 9.085938 C 20.761719 8.855469 20.859375 8.578125 21.089844 8.464844 L 23.621094 7.257812 C 23.851562 7.148438 24.132812 7.246094 24.242188 7.476562 Z M 24.242188 7.476562 "/>
<path style=" stroke:none;fill-rule:nonzero;fill:url(#linear11);" d="M 28.558594 7.894531 C 28.460938 7.773438 28.304688 7.710938 28.148438 7.730469 C 27.988281 7.75 27.851562 7.847656 27.785156 7.988281 L 26.539062 10.488281 C 26.449219 10.671875 26.488281 10.890625 26.636719 11.027344 L 28.382812 12.769531 C 28.484375 12.886719 28.640625 12.949219 28.796875 12.929688 C 28.953125 12.914062 29.089844 12.816406 29.160156 12.675781 L 30.402344 10.171875 C 30.492188 9.992188 30.453125 9.773438 30.308594 9.632812 Z M 28.558594 7.894531 "/>
<path style=" stroke:none;fill-rule:nonzero;fill:url(#linear12);" d="M 34.96875 11.742188 C 34.808594 11.578125 34.550781 11.554688 34.363281 11.691406 C 34.175781 11.824219 34.113281 12.074219 34.222656 12.28125 L 35.511719 14.757812 C 35.542969 14.8125 35.582031 14.863281 35.628906 14.902344 L 37.375 16.640625 C 37.539062 16.804688 37.796875 16.828125 37.984375 16.695312 C 38.171875 16.558594 38.230469 16.308594 38.125 16.101562 L 36.832031 13.625 C 36.804688 13.570312 36.765625 13.519531 36.714844 13.480469 Z M 34.96875 11.742188 "/>
<path style=" stroke:none;fill-rule:nonzero;fill:url(#linear13);" d="M 33.75 4.96875 C 33.632812 4.835938 33.453125 4.777344 33.285156 4.820312 C 33.113281 4.863281 32.980469 4.996094 32.941406 5.167969 L 32.308594 7.886719 C 32.269531 8.046875 32.324219 8.21875 32.445312 8.332031 L 34.195312 10.070312 C 34.308594 10.203125 34.488281 10.257812 34.660156 10.214844 C 34.828125 10.175781 34.960938 10.039062 35 9.871094 L 35.632812 7.152344 C 35.671875 6.988281 35.621094 6.820312 35.496094 6.707031 Z M 33.75 4.96875 "/>
<path style=" stroke:none;fill-rule:nonzero;fill:url(#linear14);" d="M 31.910156 14.1875 C 31.882812 14.15625 31.851562 14.128906 31.816406 14.109375 L 29.457031 12.605469 C 29.25 12.472656 28.976562 12.519531 28.832031 12.714844 C 28.683594 12.90625 28.710938 13.179688 28.894531 13.34375 L 30.640625 15.082031 C 30.667969 15.113281 30.699219 15.140625 30.734375 15.160156 L 33.09375 16.664062 C 33.300781 16.796875 33.574219 16.75 33.71875 16.554688 C 33.867188 16.359375 33.839844 16.085938 33.65625 15.925781 Z M 31.910156 14.1875 "/>
<path style=" stroke:none;fill-rule:nonzero;fill:url(#linear15);" d="M 40.164062 7.476562 C 40.023438 7.328125 39.804688 7.289062 39.625 7.375 L 37.097656 8.582031 C 36.953125 8.648438 36.855469 8.785156 36.835938 8.941406 C 36.8125 9.097656 36.875 9.253906 36.996094 9.355469 L 38.742188 11.09375 C 38.882812 11.242188 39.097656 11.28125 39.28125 11.195312 L 41.808594 9.988281 C 41.953125 9.921875 42.050781 9.785156 42.070312 9.628906 C 42.09375 9.472656 42.03125 9.316406 41.910156 9.214844 Z M 40.164062 7.476562 "/>
<path style=" stroke:none;fill-rule:nonzero;fill:rgb(49.411765%,80%,99.215686%);fill-opacity:1;" d="M 26.75 11.113281 C 26.519531 11 26.425781 10.71875 26.539062 10.488281 L 27.785156 7.988281 C 27.898438 7.757812 28.179688 7.664062 28.410156 7.777344 C 28.640625 7.890625 28.734375 8.167969 28.621094 8.398438 L 27.378906 10.902344 C 27.261719 11.132812 26.984375 11.226562 26.75 11.113281 Z M 26.75 11.113281 "/>
<path style=" stroke:none;fill-rule:nonzero;fill:rgb(88.627451%,92.941176%,94.901961%);fill-opacity:1;" d="M 36.140625 14.957031 C 35.914062 15.074219 35.632812 14.984375 35.511719 14.757812 L 34.222656 12.28125 C 34.101562 12.050781 34.191406 11.769531 34.421875 11.652344 C 34.648438 11.535156 34.933594 11.625 35.050781 11.851562 L 36.34375 14.328125 C 36.460938 14.558594 36.371094 14.839844 36.140625 14.957031 Z M 36.140625 14.957031 "/>
<path style=" stroke:none;fill-rule:nonzero;fill:rgb(100%,48.235294%,67.45098%);fill-opacity:1;" d="M 32.65625 8.445312 C 32.40625 8.386719 32.25 8.136719 32.308594 7.886719 L 32.941406 5.167969 C 33 4.917969 33.253906 4.761719 33.503906 4.820312 C 33.753906 4.878906 33.910156 5.128906 33.851562 5.375 L 33.21875 8.097656 C 33.160156 8.347656 32.910156 8.5 32.65625 8.445312 Z M 32.65625 8.445312 "/>
<path style=" stroke:none;fill-rule:nonzero;fill:rgb(100%,90.588235%,64.705882%);fill-opacity:1;" d="M 28.808594 12.746094 C 28.949219 12.527344 29.238281 12.464844 29.457031 12.605469 L 31.816406 14.109375 C 31.960938 14.195312 32.042969 14.355469 32.035156 14.519531 C 32.027344 14.6875 31.929688 14.839844 31.78125 14.914062 C 31.632812 14.992188 31.453125 14.984375 31.3125 14.890625 L 28.953125 13.386719 C 28.734375 13.25 28.671875 12.960938 28.808594 12.746094 Z M 28.808594 12.746094 "/>
<path style=" stroke:none;fill-rule:nonzero;fill:rgb(61.960784%,71.372549%,26.666667%);fill-opacity:1;" d="M 40.246094 7.59375 C 40.359375 7.824219 40.261719 8.101562 40.027344 8.214844 L 37.5 9.421875 C 37.265625 9.53125 36.988281 9.433594 36.875 9.203125 C 36.765625 8.96875 36.863281 8.691406 37.097656 8.582031 L 39.625 7.375 C 39.855469 7.265625 40.136719 7.363281 40.246094 7.59375 Z M 40.246094 7.59375 "/>
<path style=" stroke:none;fill-rule:nonzero;fill:url(#linear16);" d="M 36.035156 19.292969 C 35.9375 19.171875 35.78125 19.109375 35.625 19.128906 C 35.464844 19.148438 35.332031 19.242188 35.261719 19.386719 L 34.015625 21.886719 C 33.925781 22.066406 33.964844 22.285156 34.113281 22.425781 L 35.859375 24.164062 C 35.960938 24.285156 36.117188 24.347656 36.273438 24.328125 C 36.429688 24.308594 36.566406 24.214844 36.636719 24.074219 L 37.878906 21.570312 C 37.96875 21.390625 37.929688 21.171875 37.78125 21.03125 Z M 36.035156 19.292969 "/>
<path style=" stroke:none;fill-rule:nonzero;fill:url(#linear17);" d="M 42.445312 23.140625 C 42.285156 22.972656 42.027344 22.953125 41.839844 23.085938 C 41.652344 23.222656 41.589844 23.472656 41.699219 23.675781 L 42.988281 26.15625 C 43.019531 26.210938 43.058594 26.261719 43.105469 26.300781 L 44.851562 28.039062 C 45.015625 28.203125 45.273438 28.226562 45.460938 28.089844 C 45.648438 27.957031 45.707031 27.703125 45.601562 27.5 L 44.308594 25.023438 C 44.28125 24.96875 44.242188 24.917969 44.191406 24.878906 Z M 42.445312 23.140625 "/>
<path style=" stroke:none;fill-rule:nonzero;fill:url(#linear18);" d="M 41.226562 16.363281 C 41.109375 16.230469 40.929688 16.175781 40.761719 16.21875 C 40.589844 16.257812 40.457031 16.394531 40.417969 16.5625 L 39.785156 19.28125 C 39.746094 19.445312 39.800781 19.613281 39.921875 19.726562 L 41.671875 21.464844 C 41.785156 21.597656 41.964844 21.65625 42.136719 21.613281 C 42.304688 21.570312 42.4375 21.4375 42.476562 21.265625 L 43.109375 18.546875 C 43.148438 18.386719 43.09375 18.214844 42.972656 18.101562 Z M 41.226562 16.363281 "/>
<path style=" stroke:none;fill-rule:nonzero;fill:url(#linear19);" d="M 39.386719 25.585938 C 39.359375 25.554688 39.328125 25.527344 39.292969 25.503906 L 36.933594 24 C 36.726562 23.871094 36.453125 23.917969 36.308594 24.113281 C 36.160156 24.304688 36.1875 24.578125 36.371094 24.738281 L 38.117188 26.480469 C 38.144531 26.507812 38.175781 26.535156 38.210938 26.558594 L 40.570312 28.0625 C 40.777344 28.195312 41.050781 28.144531 41.195312 27.953125 C 41.34375 27.757812 41.316406 27.484375 41.132812 27.324219 Z M 39.386719 25.585938 "/>
<path style=" stroke:none;fill-rule:nonzero;fill:url(#linear20);" d="M 47.640625 18.871094 C 47.5 18.726562 47.285156 18.6875 47.101562 18.773438 L 44.574219 19.980469 C 44.429688 20.046875 44.332031 20.183594 44.3125 20.339844 C 44.289062 20.496094 44.351562 20.652344 44.472656 20.753906 L 46.21875 22.492188 C 46.359375 22.636719 46.574219 22.679688 46.757812 22.59375 L 49.285156 21.386719 C 49.429688 21.316406 49.527344 21.183594 49.546875 21.027344 C 49.570312 20.871094 49.507812 20.714844 49.386719 20.613281 Z M 47.640625 18.871094 "/>
<path style=" stroke:none;fill-rule:nonzero;fill:rgb(49.411765%,80%,99.215686%);fill-opacity:1;" d="M 34.226562 22.511719 C 33.996094 22.394531 33.902344 22.117188 34.015625 21.886719 L 35.261719 19.386719 C 35.375 19.15625 35.65625 19.058594 35.886719 19.175781 C 36.117188 19.289062 36.210938 19.566406 36.097656 19.796875 L 34.855469 22.300781 C 34.738281 22.53125 34.460938 22.625 34.226562 22.511719 Z M 34.226562 22.511719 "/>
<path style=" stroke:none;fill-rule:nonzero;fill:rgb(88.627451%,92.941176%,94.901961%);fill-opacity:1;" d="M 43.621094 26.355469 C 43.390625 26.472656 43.109375 26.382812 42.988281 26.15625 L 41.699219 23.675781 C 41.578125 23.449219 41.667969 23.167969 41.898438 23.050781 C 42.128906 22.933594 42.410156 23.019531 42.527344 23.25 L 43.820312 25.726562 C 43.9375 25.953125 43.847656 26.234375 43.621094 26.355469 Z M 43.621094 26.355469 "/>
<path style=" stroke:none;fill-rule:nonzero;fill:rgb(100%,48.235294%,67.45098%);fill-opacity:1;" d="M 40.132812 19.839844 C 39.882812 19.785156 39.726562 19.535156 39.785156 19.28125 L 40.417969 16.5625 C 40.476562 16.316406 40.730469 16.160156 40.980469 16.21875 C 41.230469 16.277344 41.386719 16.523438 41.328125 16.773438 L 40.695312 19.492188 C 40.636719 19.742188 40.386719 19.898438 40.132812 19.839844 Z M 40.132812 19.839844 "/>
<path style=" stroke:none;fill-rule:nonzero;fill:rgb(100%,90.588235%,64.705882%);fill-opacity:1;" d="M 36.285156 24.144531 C 36.425781 23.925781 36.714844 23.863281 36.933594 24 L 39.292969 25.503906 C 39.507812 25.644531 39.570312 25.929688 39.433594 26.144531 C 39.292969 26.363281 39.007812 26.425781 38.789062 26.289062 L 36.429688 24.785156 C 36.210938 24.648438 36.148438 24.359375 36.285156 24.144531 Z M 36.285156 24.144531 "/>
<path style=" stroke:none;fill-rule:nonzero;fill:rgb(61.960784%,71.372549%,26.666667%);fill-opacity:1;" d="M 47.726562 18.992188 C 47.835938 19.222656 47.738281 19.5 47.503906 19.613281 L 44.976562 20.820312 C 44.746094 20.929688 44.464844 20.832031 44.355469 20.601562 C 44.242188 20.367188 44.339844 20.089844 44.574219 19.980469 L 47.101562 18.773438 C 47.332031 18.660156 47.613281 18.757812 47.726562 18.992188 Z M 47.726562 18.992188 "/>
</g>
</svg>
