<?xml version="1.0" encoding="UTF-8"?>
<svg xmlns="http://www.w3.org/2000/svg" xmlns:xlink="http://www.w3.org/1999/xlink" width="50" height="59" viewBox="0 0 50 59" version="1.1">
<g id="surface1">
<path style=" stroke:none;fill-rule:nonzero;fill:rgb(63.529412%,85.490196%,90.588235%);fill-opacity:1;" d="M 9 20 L 41 20 C 43.761719 20 46 22.238281 46 25 C 46 27.761719 43.761719 30 41 30 L 9 30 C 6.238281 30 4 27.761719 4 25 C 4 22.238281 6.238281 20 9 20 Z M 9 20 "/>
<path style=" stroke:none;fill-rule:nonzero;fill:rgb(63.529412%,85.490196%,90.588235%);fill-opacity:1;" d="M 16 10 L 34 10 C 36.761719 10 39 12.238281 39 15 C 39 17.761719 36.761719 20 34 20 L 16 20 C 13.238281 20 11 17.761719 11 15 C 11 12.238281 13.238281 10 16 10 Z M 16 10 "/>
<path style=" stroke:none;fill-rule:nonzero;fill:rgb(63.529412%,85.490196%,90.588235%);fill-opacity:1;" d="M 24.628906 3 C 23.402344 3.023438 22.324219 2.183594 22.046875 0.988281 C 21.980469 0.660156 21.980469 0.324219 22.046875 0 L 22 0 C 19.867188 -0.0234375 17.960938 1.320312 17.269531 3.335938 C 16.738281 4.867188 16.980469 6.5625 17.917969 7.886719 C 18.855469 9.210938 20.378906 9.996094 22 10 L 33 10 C 33 6.132812 29.867188 3 26 3 Z M 24.628906 3 "/>
<path style=" stroke:none;fill-rule:nonzero;fill:rgb(98.823529%,53.333333%,63.137255%);fill-opacity:1;" d="M 9 25 L 11 25 L 11 27 L 9 27 Z M 9 25 "/>
<path style=" stroke:none;fill-rule:nonzero;fill:rgb(98.823529%,53.333333%,63.137255%);fill-opacity:1;" d="M 14 23 L 16 23 L 16 25 L 14 25 Z M 14 23 "/>
<path style=" stroke:none;fill-rule:nonzero;fill:rgb(98.823529%,53.333333%,63.137255%);fill-opacity:1;" d="M 20 25 L 22 25 L 22 27 L 20 27 Z M 20 25 "/>
<path style=" stroke:none;fill-rule:nonzero;fill:rgb(98.823529%,53.333333%,63.137255%);fill-opacity:1;" d="M 26 23 L 28 23 L 28 25 L 26 25 Z M 26 23 "/>
<path style=" stroke:none;fill-rule:nonzero;fill:rgb(98.823529%,53.333333%,63.137255%);fill-opacity:1;" d="M 33 23 L 35 23 L 35 25 L 33 25 Z M 33 23 "/>
<path style=" stroke:none;fill-rule:nonzero;fill:rgb(98.823529%,53.333333%,63.137255%);fill-opacity:1;" d="M 38 25 L 40 25 L 40 27 L 38 27 Z M 38 25 "/>
<path style=" stroke:none;fill-rule:nonzero;fill:rgb(98.823529%,53.333333%,63.137255%);fill-opacity:1;" d="M 26 5 L 28 5 L 28 7 L 26 7 Z M 26 5 "/>
<path style=" stroke:none;fill-rule:nonzero;fill:rgb(98.823529%,53.333333%,63.137255%);fill-opacity:1;" d="M 18 13 L 20 13 L 20 15 L 18 15 Z M 18 13 "/>
<path style=" stroke:none;fill-rule:nonzero;fill:rgb(98.823529%,53.333333%,63.137255%);fill-opacity:1;" d="M 23 15 L 25 15 L 25 17 L 23 17 Z M 23 15 "/>
<path style=" stroke:none;fill-rule:nonzero;fill:rgb(98.823529%,53.333333%,63.137255%);fill-opacity:1;" d="M 32 13 L 34 13 L 34 15 L 32 15 Z M 32 13 "/>
<path style=" stroke:none;fill-rule:nonzero;fill:rgb(100%,95.294118%,78.823529%);fill-opacity:1;" d="M 5 30 L 45 30 C 47.761719 30 50 32.238281 50 35 C 50 37.761719 47.761719 40 45 40 L 5 40 C 2.238281 40 0 37.761719 0 35 C 0 32.238281 2.238281 30 5 30 Z M 5 30 "/>
<path style=" stroke:none;fill-rule:nonzero;fill:rgb(100%,91.764706%,72.156863%);fill-opacity:1;" d="M 45 30 L 39.992188 30 C 36.089844 34.242188 31.363281 37.644531 26.101562 40 L 45 40 C 47.761719 40 50 37.761719 50 35 C 50 32.238281 47.761719 30 45 30 Z M 45 30 "/>
<path style=" stroke:none;fill-rule:nonzero;fill:rgb(98.823529%,53.333333%,63.137255%);fill-opacity:1;" d="M 41 58 L 9 58 L 2 38 C 2.753906 36.996094 3.90625 36.367188 5.160156 36.277344 C 6.414062 36.1875 7.648438 36.648438 8.535156 37.535156 L 9 38 L 9.933594 37.066406 C 11.628906 35.375 14.371094 35.375 16.066406 37.066406 L 17 38 L 17.933594 37.066406 C 19.628906 35.375 22.371094 35.375 24.066406 37.066406 L 25 38 L 25.933594 37.066406 C 27.628906 35.375 30.371094 35.375 32.066406 37.066406 L 33 38 L 33.933594 37.066406 C 35.628906 35.375 38.371094 35.375 40.066406 37.066406 L 41 38 L 41.464844 37.535156 C 42.351562 36.648438 43.582031 36.1875 44.835938 36.277344 C 46.09375 36.367188 47.246094 36.996094 48 38 Z M 41 58 "/>
<path style=" stroke:none;fill-rule:nonzero;fill:rgb(98.823529%,48.235294%,59.215686%);fill-opacity:1;" d="M 48 38 C 47.246094 36.992188 46.09375 36.363281 44.835938 36.277344 C 43.582031 36.1875 42.351562 36.648438 41.464844 37.535156 L 41 38 L 40.066406 37.066406 C 39.390625 36.394531 38.511719 35.96875 37.566406 35.851562 C 31.5625 45.484375 22.902344 53.179688 12.628906 58 L 41 58 Z M 48 38 "/>
<path style=" stroke:none;fill-rule:nonzero;fill:rgb(94.117647%,28.235294%,33.333333%);fill-opacity:1;" d="M 25 59 C 24.449219 59 24 58.550781 24 58 L 24 38 C 24 37.449219 24.449219 37 25 37 C 25.550781 37 26 37.449219 26 38 L 26 58 C 26 58.550781 25.550781 59 25 59 Z M 25 59 "/>
<path style=" stroke:none;fill-rule:nonzero;fill:rgb(94.117647%,28.235294%,33.333333%);fill-opacity:1;" d="M 18 59 C 17.464844 59 17.027344 58.582031 17 58.050781 L 16 38.050781 C 15.972656 37.5 16.398438 37.027344 16.949219 37 C 17.5 36.972656 17.972656 37.398438 18 37.949219 L 19 57.949219 C 19.027344 58.5 18.605469 58.972656 18.050781 59 Z M 18 59 "/>
<path style=" stroke:none;fill-rule:nonzero;fill:rgb(94.117647%,28.235294%,33.333333%);fill-opacity:1;" d="M 32 59 L 31.949219 59 C 31.398438 58.972656 30.972656 58.503906 31 57.953125 C 31 57.953125 31 57.949219 31 57.949219 L 32 37.949219 C 32.027344 37.398438 32.496094 36.972656 33.050781 37 C 33.601562 37.027344 34.027344 37.5 34 38.050781 L 33 58.050781 C 32.972656 58.582031 32.535156 59 32 59 Z M 32 59 "/>
<path style=" stroke:none;fill-rule:nonzero;fill:rgb(94.117647%,28.235294%,33.333333%);fill-opacity:1;" d="M 12 59 C 11.503906 59 11.085938 58.636719 11.011719 58.148438 L 8.011719 38.148438 C 7.929688 37.601562 8.304688 37.09375 8.851562 37.007812 C 9.398438 36.925781 9.90625 37.300781 9.992188 37.847656 L 12.992188 57.847656 C 13.074219 58.394531 12.695312 58.902344 12.148438 58.984375 C 12.101562 58.992188 12.050781 59 12 59 Z M 12 59 "/>
<path style=" stroke:none;fill-rule:nonzero;fill:rgb(94.117647%,28.235294%,33.333333%);fill-opacity:1;" d="M 38 59 C 37.949219 59 37.898438 58.996094 37.851562 58.988281 C 37.304688 58.90625 36.929688 58.398438 37.011719 57.851562 L 40.011719 37.851562 C 40.09375 37.304688 40.601562 36.929688 41.148438 37.011719 C 41.695312 37.09375 42.070312 37.605469 41.988281 38.152344 L 38.988281 58.152344 C 38.914062 58.640625 38.492188 59 38 59 Z M 38 59 "/>
</g>
</svg>
