<?xml version="1.0" encoding="UTF-8"?>
<svg xmlns="http://www.w3.org/2000/svg" xmlns:xlink="http://www.w3.org/1999/xlink" width="50" height="50" viewBox="0 0 50 50" version="1.1">
<g id="surface1">
<path style=" stroke:none;fill-rule:nonzero;fill:rgb(80%,59.607843%,90.980392%);fill-opacity:1;" d="M 46.390625 11.132812 C 44.511719 9.253906 45.089844 8.675781 43.207031 6.792969 C 41.324219 4.910156 40.746094 5.492188 38.867188 3.609375 C 37.414062 2.160156 37.425781 1.484375 36.648438 0.386719 C 36.503906 0.164062 36.265625 0.0234375 36.003906 0.00390625 C 35.738281 -0.015625 35.480469 0.0898438 35.308594 0.285156 C 31.71875 4.9375 33.089844 12.65625 33.089844 12.65625 L 33.203125 14.855469 L 35.136719 16.800781 L 37.335938 16.914062 C 37.335938 16.914062 45.054688 18.285156 49.703125 14.695312 C 49.902344 14.523438 50.007812 14.265625 49.988281 14 C 49.96875 13.738281 49.828125 13.5 49.605469 13.355469 C 48.503906 12.578125 47.832031 12.585938 46.382812 11.136719 Z M 46.390625 11.132812 "/>
<path style=" stroke:none;fill-rule:nonzero;fill:rgb(74.901961%,50.196078%,88.627451%);fill-opacity:1;" d="M 49.613281 13.355469 C 48.898438 12.847656 48.363281 12.671875 47.679688 12.214844 C 43.011719 15.707031 35.097656 14.667969 35.097656 14.667969 L 33.1875 14.566406 L 33.203125 14.859375 L 35.136719 16.796875 L 37.339844 16.910156 C 37.339844 16.910156 45.058594 18.28125 49.707031 14.691406 C 49.90625 14.519531 50.011719 14.261719 49.992188 13.996094 C 49.972656 13.734375 49.832031 13.496094 49.609375 13.351562 Z M 49.613281 13.355469 "/>
<path style=" stroke:none;fill-rule:nonzero;fill:rgb(80%,59.607843%,90.980392%);fill-opacity:1;" d="M 11.132812 46.390625 C 9.253906 44.511719 8.675781 45.089844 6.792969 43.207031 C 4.910156 41.324219 5.492188 40.746094 3.609375 38.867188 C 2.160156 37.414062 1.484375 37.425781 0.386719 36.648438 C 0.164062 36.503906 0.0234375 36.265625 0.00390625 36.003906 C -0.015625 35.738281 0.0898438 35.480469 0.285156 35.308594 C 4.9375 31.71875 12.65625 33.089844 12.65625 33.089844 L 14.855469 33.203125 L 16.800781 35.136719 L 16.914062 37.335938 C 16.914062 37.335938 18.285156 45.054688 14.695312 49.703125 C 14.523438 49.902344 14.265625 50.007812 14 49.988281 C 13.738281 49.96875 13.5 49.828125 13.355469 49.605469 C 12.578125 48.503906 12.585938 47.832031 11.136719 46.382812 Z M 11.132812 46.390625 "/>
<path style=" stroke:none;fill-rule:nonzero;fill:rgb(74.901961%,50.196078%,88.627451%);fill-opacity:1;" d="M 14.695312 49.710938 C 18.285156 45.058594 16.910156 37.339844 16.910156 37.339844 L 16.796875 35.140625 L 14.863281 33.207031 L 14.570312 33.191406 L 14.671875 35.101562 C 14.671875 35.101562 15.734375 43.023438 12.21875 47.6875 C 12.675781 48.371094 12.851562 48.90625 13.355469 49.617188 C 13.5 49.839844 13.738281 49.980469 14 50 C 14.265625 50.019531 14.523438 49.914062 14.695312 49.71875 Z M 14.695312 49.710938 "/>
<path style=" stroke:none;fill-rule:nonzero;fill:rgb(74.901961%,50.196078%,88.627451%);fill-opacity:1;" d="M 34.53125 15.09375 C 34.296875 15.09375 34.074219 14.984375 33.933594 14.796875 C 33.789062 14.609375 33.742188 14.367188 33.804688 14.140625 C 34.261719 12.160156 35.085938 10.28125 36.230469 8.597656 C 36.480469 8.265625 36.953125 8.195312 37.285156 8.441406 C 37.621094 8.691406 37.691406 9.164062 37.441406 9.5 C 36.410156 11.027344 35.667969 12.738281 35.257812 14.539062 C 35.167969 14.867188 34.871094 15.09375 34.53125 15.097656 Z M 34.53125 15.09375 "/>
<path style=" stroke:none;fill-rule:nonzero;fill:rgb(74.901961%,50.196078%,88.627451%);fill-opacity:1;" d="M 35.996094 16.605469 C 35.617188 16.605469 35.296875 16.324219 35.25 15.949219 C 35.203125 15.570312 35.441406 15.21875 35.804688 15.121094 C 37.632812 14.722656 39.359375 13.972656 40.894531 12.90625 C 41.109375 12.730469 41.402344 12.683594 41.660156 12.789062 C 41.914062 12.890625 42.09375 13.128906 42.125 13.402344 C 42.15625 13.679688 42.035156 13.949219 41.804688 14.105469 C 40.113281 15.296875 38.203125 16.136719 36.183594 16.578125 C 36.121094 16.59375 36.058594 16.601562 35.996094 16.601562 Z M 35.996094 16.605469 "/>
<path style=" stroke:none;fill-rule:nonzero;fill:rgb(74.901961%,50.196078%,88.627451%);fill-opacity:1;" d="M 9.242188 37.496094 C 8.914062 37.496094 8.621094 37.28125 8.523438 36.96875 C 8.421875 36.65625 8.539062 36.316406 8.804688 36.125 C 10.445312 35.054688 12.257812 34.277344 14.160156 33.832031 C 14.5625 33.726562 14.972656 33.960938 15.082031 34.363281 C 15.195312 34.761719 14.960938 35.175781 14.5625 35.289062 C 12.828125 35.6875 11.175781 36.386719 9.679688 37.355469 C 9.554688 37.449219 9.398438 37.496094 9.242188 37.496094 Z M 9.242188 37.496094 "/>
<path style=" stroke:none;fill-rule:nonzero;fill:rgb(74.901961%,50.196078%,88.627451%);fill-opacity:1;" d="M 13.679688 41.933594 C 13.394531 41.933594 13.132812 41.773438 13.003906 41.519531 C 12.875 41.265625 12.898438 40.960938 13.066406 40.734375 C 14.054688 39.242188 14.757812 37.582031 15.144531 35.832031 C 15.207031 35.566406 15.410156 35.355469 15.671875 35.28125 C 15.9375 35.207031 16.21875 35.277344 16.414062 35.472656 C 16.605469 35.667969 16.679688 35.949219 16.605469 36.214844 C 16.175781 38.140625 15.390625 39.972656 14.292969 41.613281 C 14.148438 41.808594 13.921875 41.925781 13.679688 41.925781 Z M 13.679688 41.933594 "/>
<path style=" stroke:none;fill-rule:nonzero;fill:rgb(100%,58.039216%,83.137255%);fill-opacity:1;" d="M 35.417969 14.582031 C 29.664062 8.828125 20.335938 8.828125 14.582031 14.582031 C 8.828125 20.335938 8.828125 29.664062 14.582031 35.417969 C 20.335938 41.171875 29.664062 41.171875 35.417969 35.417969 C 41.171875 29.664062 41.171875 20.335938 35.417969 14.582031 Z M 35.417969 14.582031 "/>
<path style=" stroke:none;fill-rule:nonzero;fill:rgb(100%,45.098039%,77.647059%);fill-opacity:1;" d="M 35.414062 14.582031 C 35.035156 14.203125 34.636719 13.84375 34.214844 13.503906 C 38.910156 19.367188 38.445312 27.824219 33.136719 33.136719 C 27.824219 38.445312 19.367188 38.910156 13.503906 34.214844 C 16.917969 38.476562 22.40625 40.5 27.765625 39.476562 C 33.128906 38.453125 37.484375 34.550781 39.085938 29.332031 C 40.691406 24.117188 39.277344 18.4375 35.414062 14.582031 Z M 35.414062 14.582031 "/>
<path style=" stroke:none;fill-rule:nonzero;fill:rgb(100%,45.098039%,77.647059%);fill-opacity:1;" d="M 14.582031 35.417969 C 15.003906 35.839844 15.449219 36.234375 15.917969 36.601562 L 15.917969 13.402344 C 12.597656 16.003906 10.550781 19.902344 10.296875 24.109375 C 10.042969 28.320312 11.601562 32.4375 14.582031 35.417969 Z M 14.582031 35.417969 "/>
<path style=" stroke:none;fill-rule:nonzero;fill:rgb(100%,45.098039%,77.647059%);fill-opacity:1;" d="M 34.097656 13.410156 L 34.097656 36.589844 C 37.652344 33.796875 39.730469 29.523438 39.730469 25 C 39.730469 20.476562 37.652344 16.207031 34.097656 13.410156 Z M 34.097656 13.410156 "/>
<path style=" stroke:none;fill-rule:nonzero;fill:rgb(100%,30.980392%,72.156863%);fill-opacity:1;" d="M 35.417969 14.585938 C 35.039062 14.203125 34.636719 13.847656 34.21875 13.511719 C 38.578125 18.953125 38.527344 26.703125 34.09375 32.089844 L 34.09375 36.589844 C 37.40625 33.988281 39.449219 30.089844 39.699219 25.886719 C 39.953125 21.679688 38.394531 17.570312 35.417969 14.589844 Z M 35.417969 14.585938 "/>
<path style=" stroke:none;fill-rule:nonzero;fill:rgb(100%,45.098039%,77.647059%);fill-opacity:1;" d="M 21.976562 10.578125 L 21.976562 39.421875 C 23.972656 39.839844 26.039062 39.839844 28.035156 39.421875 L 28.035156 10.582031 C 26.039062 10.164062 23.972656 10.164062 21.976562 10.582031 Z M 21.976562 10.578125 "/>
<path style=" stroke:none;fill-rule:nonzero;fill:rgb(100%,30.980392%,72.156863%);fill-opacity:1;" d="M 28.035156 36.46875 C 26.105469 37.210938 24.042969 37.539062 21.976562 37.4375 L 21.976562 39.421875 C 23.960938 39.832031 26.007812 39.835938 27.992188 39.425781 L 28.035156 39.414062 Z M 28.035156 36.46875 "/>
</g>
</svg>
