<?xml version="1.0" encoding="UTF-8"?>
<svg xmlns="http://www.w3.org/2000/svg" xmlns:xlink="http://www.w3.org/1999/xlink" width="50" height="43" viewBox="0 0 50 43" version="1.1">
<g id="surface1">
<path style=" stroke:none;fill-rule:nonzero;fill:rgb(95.686275%,23.137255%,23.137255%);fill-opacity:1;" d="M 37.191406 0.273438 C 44.832031 4.121094 50 11.492188 50 19.945312 C 50 32.382812 38.808594 42.464844 25 42.464844 C 11.191406 42.464844 0 32.378906 0 19.945312 C 0 11.285156 5.421875 3.769531 13.371094 0 C 15.417969 0.953125 17.757812 1.070312 19.890625 0.324219 C 21.101562 3.351562 17.699219 4.257812 17.320312 8.179688 C 17.90625 7.675781 20.824219 7.839844 21.707031 7.652344 C 25.128906 6.898438 25.457031 3 26.242188 2.972656 C 28.433594 6.292969 31.511719 6.652344 32.710938 7.183594 C 33.722656 7.882812 34.632812 8.710938 35.425781 9.648438 C 36.191406 6.210938 34.632812 2.675781 31.570312 0.914062 C 33.460938 1.179688 35.390625 0.9375 37.15625 0.214844 Z M 37.191406 0.273438 "/>
</g>
</svg>
