<svg xmlns="http://www.w3.org/2000/svg" xmlns:xlink="http://www.w3.org/1999/xlink" width="44" height="50" viewBox="0 0 44 50">
    <path id="Path_908" data-name="Path 908" d="M127.555,23.366a10.7,10.7,0,0,1-3.175-3.034c.749.059,2.187.754,2.989.754,2.728,0,4.728-2.823,9.6-1.078l-1.757-7.553a1.275,1.275,0,1,1,2.48-.59l1.647,6.64h0c3.329-1.108,5.729,1.15,8.119,1.828a8.931,8.931,0,0,0,5.288-.322A11.8,11.8,0,0,1,149,23.329q-.255.124-.507.228a9.475,9.475,0,0,1-4.915.617,7.13,7.13,0,0,1,3.393,7.719,12.281,12.281,0,0,0-2.39-2.179c-1.054-.47-3.763-.787-5.692-3.72-.693.022-.978,3.466-3.992,4.133-.774.171-3.344.023-3.859.467.333-3.466,3.326-4.266,2.262-6.941a7.6,7.6,0,0,1-5.738-.287h0Z" transform="translate(-115.789 -10.883)" fill="#97c447"/>
    <path id="Path_909" data-name="Path 909" d="M328.741,160.512c-.282-.019-.517-.047-.691-.071a7.261,7.261,0,0,1,1.174.854A7.04,7.04,0,0,0,328.741,160.512Z" transform="translate(-298.715 -145.18)" fill="#7c993c"/>
    <path id="Path_910" data-name="Path 910" d="M128.92,23.056c2.728,0,4.728-2.823,9.6-1.078l-1.757-7.553a1.274,1.274,0,0,1,1.179-1.557l-.249-1a1.275,1.275,0,1,0-2.48.59l1.757,7.553c-4.877-1.746-6.877,1.078-9.6,1.078-.8,0-2.241-.695-2.989-.754a13.952,13.952,0,0,0,1.749,2A22.085,22.085,0,0,0,128.92,23.056Z" transform="translate(-115.789 -10.883)" fill="#7c993c"/>
    <path id="Path_911" data-name="Path 911" d="M72.752,133.453c6.725,3.405,11.272,9.913,11.272,17.383,0,10.993-9.848,19.9-22,19.9s-22-8.911-22-19.9c0-7.652,4.771-14.294,11.766-17.626h0a7.6,7.6,0,0,0,5.738.287c1.064,2.674-1.929,3.475-2.262,6.941.515-.444,3.085-.3,3.859-.467,3.014-.666,3.3-4.11,3.992-4.133,1.929,2.934,4.638,3.25,5.692,3.72a12.281,12.281,0,0,1,2.39,2.179,7.13,7.13,0,0,0-3.393-7.719,9.475,9.475,0,0,0,4.915-.617Z" transform="translate(-40.03 -120.728)" fill="#f43b3b"/>
    <path id="Path_912" data-name="Path 912" d="M70.369,165.054c-12.149,0-22-8.911-22-19.9a18.4,18.4,0,0,1,3.041-10.1c-6.785,3.389-11.383,9.927-11.383,17.438,0,10.993,9.848,19.9,22,19.9a22.512,22.512,0,0,0,18.955-9.8A23.726,23.726,0,0,1,70.369,165.054Z" transform="translate(-40.03 -122.376)" fill="#d61d1d"/>
    <g id="Group_4293" data-name="Group 4293" transform="translate(7.553 39.235)" opacity="0.8">
    <path id="Path_913" data-name="Path 913" d="M116.871,399.373a.609.609,0,0,1-.456-.2,20.754,20.754,0,0,1-2.134-2.847.611.611,0,1,1,1.037-.647,19.516,19.516,0,0,0,2.008,2.678.612.612,0,0,1-.455,1.02Z" transform="translate(-114.189 -395.386)" fill="#e9e9e9"/>
    </g>
    <g id="Group_4294" data-name="Group 4294" transform="translate(4.744 23.436)" opacity="0.8">
    <path id="Path_914" data-name="Path 914" d="M88.21,253.762a.611.611,0,0,1-.578-.413,18.819,18.819,0,0,1,.05-12.381.611.611,0,1,1,1.153.408,17.591,17.591,0,0,0-.047,11.574.613.613,0,0,1-.578.812Z" transform="translate(-86.61 -240.559)" fill="#e9e9e9"/>
    </g>
</svg>
