<svg height="512" viewBox="0 0 128 128" width="512" xmlns="http://www.w3.org/2000/svg"><g><path d="m92.873 54.886c-11.632-2.086-22.645 9.046-28.873 17.898-6.228-8.852-17.241-19.985-28.873-17.9l-21.643 3.887 10.024 5.688a19.73 19.73 0 0 1 9.992 17.159v13.9a19 19 0 0 0 19 19h23a19 19 0 0 0 19-19v-13.9a19.73 19.73 0 0 1 9.992-17.159l10.024-5.688z" fill="#c6ea4b"/><path d="m75.5 108.265a1.75 1.75 0 0 1 0-3.5 9.26 9.26 0 0 0 9.25-9.25 1.75 1.75 0 1 1 3.5 0 12.765 12.765 0 0 1 -12.75 12.75z" fill="#a6d12b"/><path d="m57.458 79.138a1.747 1.747 0 0 1 -1.432-.743c-4.107-5.837-8.87-10.434-13.07-12.611a1.75 1.75 0 0 1 1.61-3.107c6.651 3.446 12.232 10.731 14.322 13.7a1.75 1.75 0 0 1 -1.43 2.757z" fill="#a6d12b"/><path d="m54.063 114.515h19.875a0 0 0 0 1 0 0v6.735a5 5 0 0 1 -5 5h-9.876a5 5 0 0 1 -5-5v-6.735a0 0 0 0 1 0 0z" fill="#5ab267"/><path d="m64 72.784c5.715-8.123 15.459-18.158 26.013-18.145l-2.713-23.689a38.238 38.238 0 0 0 -10.878-22.867c-3.552-3.518-7.828-6.333-12.422-6.333s-8.87 2.815-12.422 6.333a38.238 38.238 0 0 0 -10.878 22.867l-2.713 23.689c10.554-.013 20.298 10.022 26.013 18.145z" fill="#ffdd46"/><g fill="#ffbe40"><path d="m67.25 23h-2.375a5.732 5.732 0 0 1 -4-1.623 5.732 5.732 0 0 1 -4 1.623h-4.437a1.75 1.75 0 0 1 0-3.5h4.437a2.253 2.253 0 0 0 2.25-2.25v-2.843a1.75 1.75 0 1 1 3.5 0v2.844a2.253 2.253 0 0 0 2.25 2.25h2.375a1.75 1.75 0 0 1 0 3.5z"/><path d="m78.813 37.876h-4.438a5.732 5.732 0 0 1 -4-1.623 5.732 5.732 0 0 1 -4 1.623h-2.375a1.75 1.75 0 0 1 0-3.5h2.375a2.253 2.253 0 0 0 2.25-2.25v-2.844a1.75 1.75 0 1 1 3.5 0v2.844a2.253 2.253 0 0 0 2.25 2.25h4.438a1.75 1.75 0 0 1 0 3.5z"/><path d="m63.438 52.628h-4.438a5.732 5.732 0 0 1 -4-1.623 5.732 5.732 0 0 1 -4 1.623h-2.375a1.75 1.75 0 0 1 0-3.5h2.375a2.253 2.253 0 0 0 2.25-2.25v-2.844a1.75 1.75 0 1 1 3.5 0v2.844a2.253 2.253 0 0 0 2.25 2.25h4.438a1.75 1.75 0 0 1 0 3.5z"/><path d="m77.75 52.628h-5.375a1.75 1.75 0 0 1 0-3.5h5.375a1.75 1.75 0 0 1 0 3.5z"/><path d="m55.25 37.876h-5.75a1.75 1.75 0 0 1 0-3.5h5.75a1.75 1.75 0 0 1 0 3.5z"/></g></g></svg>