<?xml version="1.0" encoding="UTF-8"?>
<svg xmlns="http://www.w3.org/2000/svg" xmlns:xlink="http://www.w3.org/1999/xlink" width="50" height="71" viewBox="0 0 50 71" version="1.1">
<g id="surface1">
<path style=" stroke:none;fill-rule:nonzero;fill:rgb(24.313725%,61.960784%,30.588235%);fill-opacity:1;" d="M 45.476562 8.847656 C 50.011719 11.1875 50.339844 16.804688 49.683594 19.570312 L 48.261719 17.046875 L 47.179688 15.125 C 47.128906 15.035156 47.035156 14.972656 46.929688 14.964844 C 46.824219 14.953125 46.71875 15 46.652344 15.078125 L 43.601562 18.804688 L 42.167969 13.476562 C 42.140625 13.378906 42.054688 13.308594 41.953125 13.300781 C 41.851562 13.292969 41.757812 13.351562 41.71875 13.445312 C 41.023438 15.101562 39.832031 16.589844 38.1875 18.140625 C 38.1875 18.140625 37.644531 15.304688 37.769531 13.476562 C 37.78125 13.328125 37.707031 13.183594 37.578125 13.105469 C 37.449219 13.023438 37.285156 13.019531 37.15625 13.097656 C 36.65625 13.382812 35.980469 13.820312 35.003906 14.515625 C 34.367188 14.972656 33.597656 15.539062 32.667969 16.25 C 32.667969 11.808594 36.214844 7.898438 40.636719 7.792969 C 40.734375 7 40.6875 6.375 40.6875 5.597656 C 40.6875 2.488281 39.167969 0 42.28125 0 C 45.003906 0 45.578125 2.488281 45.578125 5.597656 C 45.578125 6.75 45.59375 7.792969 45.476562 8.847656 Z M 45.476562 8.847656 "/>
<path style=" stroke:none;fill-rule:nonzero;fill:rgb(7.45098%,41.960784%,3.921569%);fill-opacity:1;" d="M 45.476562 8.847656 C 45.59375 7.792969 45.578125 6.75 45.578125 5.597656 C 45.578125 2.726562 45.085938 0.390625 42.875 0.046875 C 44.445312 1.242188 44.175781 3.632812 43.347656 6.351562 C 42.980469 7.558594 42.664062 8.648438 42.207031 9.71875 L 42.210938 9.71875 C 44.269531 13.039062 44.957031 14.925781 44.636719 17.542969 L 46.652344 15.078125 C 46.722656 15 46.824219 14.953125 46.929688 14.964844 C 47.035156 14.972656 47.128906 15.035156 47.179688 15.125 L 48.261719 17.046875 L 49.683594 19.570312 C 50.339844 16.804688 50.011719 11.1875 45.476562 8.847656 Z M 45.476562 8.847656 "/>
<path style=" stroke:none;fill-rule:nonzero;fill:rgb(27.843137%,10.588235%,47.843137%);fill-opacity:1;" d="M 48.261719 17.046875 C 48.339844 55.835938 29.828125 71 16.464844 71 C 7.371094 71 0 64.042969 0 55.460938 C 0 48.652344 4.640625 42.863281 11.097656 40.765625 C 13.28125 39.875 15.867188 38.929688 18.480469 37.683594 C 21.097656 36.4375 23.742188 34.882812 26.042969 32.777344 C 33.519531 25.941406 34.242188 17.882812 35.003906 14.515625 C 35.980469 13.820312 36.65625 13.382812 37.15625 13.097656 C 37.285156 13.019531 37.449219 13.023438 37.578125 13.105469 C 37.707031 13.183594 37.78125 13.328125 37.769531 13.476562 C 37.644531 15.304688 38.1875 18.140625 38.1875 18.140625 C 39.832031 16.589844 41.023438 15.101562 41.71875 13.445312 C 41.757812 13.351562 41.851562 13.292969 41.953125 13.300781 C 42.054688 13.308594 42.140625 13.378906 42.167969 13.476562 L 43.601562 18.804688 L 46.652344 15.078125 C 46.71875 15 46.824219 14.953125 46.929688 14.964844 C 47.035156 14.972656 47.128906 15.035156 47.179688 15.125 Z M 48.261719 17.046875 "/>
<path style=" stroke:none;fill-rule:nonzero;fill:rgb(37.647059%,21.568627%,60.784314%);fill-opacity:1;" d="M 47.179688 15.125 C 47.160156 15.089844 47.132812 15.058594 47.101562 15.035156 C 38.5625 51.699219 17.609375 62.25 4.730469 59.453125 C 3.144531 59.109375 1.609375 58.542969 0.183594 57.773438 C 1.367188 65.257812 8.203125 71 16.464844 71 C 29.828125 71 48.339844 55.835938 48.261719 17.046875 Z M 47.179688 15.125 "/>
<path style=" stroke:none;fill-rule:nonzero;fill:rgb(91.372549%,91.372549%,91.372549%);fill-opacity:1;" d="M 19.097656 65.929688 C 18.675781 65.929688 18.3125 65.628906 18.234375 65.21875 C 18.15625 64.804688 18.390625 64.394531 18.785156 64.246094 C 19.808594 63.855469 20.804688 63.398438 21.765625 62.871094 C 22.191406 62.640625 22.726562 62.796875 22.957031 63.214844 C 23.191406 63.636719 23.035156 64.164062 22.613281 64.398438 C 21.582031 64.960938 20.511719 65.453125 19.410156 65.871094 C 19.3125 65.910156 19.203125 65.929688 19.097656 65.929688 Z M 19.097656 65.929688 "/>
<path style=" stroke:none;fill-rule:nonzero;fill:rgb(91.372549%,91.372549%,91.372549%);fill-opacity:1;" d="M 26.015625 61.992188 C 25.640625 61.992188 25.308594 61.757812 25.1875 61.40625 C 25.0625 61.054688 25.179688 60.667969 25.472656 60.4375 C 26.367188 59.746094 27.21875 59.003906 28.027344 58.21875 C 30.433594 55.855469 32.515625 53.191406 34.21875 50.289062 C 34.375 50.019531 34.667969 49.855469 34.984375 49.855469 C 35.296875 49.859375 35.585938 50.027344 35.742188 50.300781 C 35.894531 50.574219 35.890625 50.90625 35.726562 51.175781 C 33.945312 54.207031 31.769531 56.992188 29.25 59.460938 C 28.394531 60.292969 27.496094 61.074219 26.554688 61.808594 C 26.398438 61.925781 26.210938 61.992188 26.015625 61.992188 Z M 26.015625 61.992188 "/>
</g>
</svg>
