<?xml version="1.0" encoding="UTF-8"?>
<svg xmlns="http://www.w3.org/2000/svg" xmlns:xlink="http://www.w3.org/1999/xlink" width="50" height="43" viewBox="0 0 50 43" version="1.1">
<g id="surface1">
<path style=" stroke:none;fill-rule:nonzero;fill:rgb(94.117647%,65.098039%,37.254902%);fill-opacity:1;" d="M 24.054688 0 C 18.917969 -0.0390625 14.199219 2.777344 11.867188 7.273438 C 9.921875 11.015625 7.589844 14.558594 4.742188 17.695312 C 2.355469 20.324219 0.0976562 24.214844 0.00390625 29.574219 C 0 29.691406 0 29.804688 0 29.921875 C 0 37.128906 5.941406 42.96875 13.273438 42.96875 C 13.289062 42.96875 13.300781 42.96875 13.316406 42.96875 C 13.417969 42.96875 13.515625 42.96875 13.617188 42.964844 C 26.847656 42.785156 37.515625 32.191406 37.515625 19.144531 L 37.515625 13.496094 C 37.515625 6.148438 31.53125 0.0546875 24.054688 0 Z M 24.054688 0 "/>
<path style=" stroke:none;fill-rule:nonzero;fill:rgb(88.627451%,52.156863%,25.098039%);fill-opacity:1;" d="M 37.515625 19.144531 L 37.515625 13.496094 C 37.515625 9.152344 35.398438 5.066406 31.820312 2.511719 C 33.539062 4.832031 34.460938 7.625 34.457031 10.496094 L 34.457031 11.867188 C 34.457031 14.28125 32.6875 16.347656 30.265625 16.761719 C 29.027344 16.976562 27.78125 17.117188 26.53125 17.1875 C 22.597656 17.386719 18.875 18.984375 16.054688 21.683594 C 15.980469 21.753906 15.902344 21.828125 15.828125 21.902344 C 13.515625 24.160156 12.222656 27.234375 12.230469 30.4375 C 12.230469 32.328125 12.777344 34.039062 13.460938 35.441406 C 14.476562 37.523438 12.96875 39.953125 10.617188 39.960938 L 10.5625 39.960938 C 6.960938 39.960938 4.664062 39.058594 2.484375 37.523438 C 4.976562 40.945312 8.996094 42.972656 13.273438 42.96875 C 26.484375 42.90625 37.515625 32.175781 37.515625 19.144531 Z M 37.515625 19.144531 "/>
<path style=" stroke:none;fill-rule:nonzero;fill:rgb(88.627451%,52.156863%,25.098039%);fill-opacity:1;" d="M 30.488281 19.429688 C 30.167969 19.425781 29.878906 19.230469 29.769531 18.929688 C 29.320312 17.917969 28.457031 17.140625 27.390625 16.789062 C 26.996094 16.652344 26.785156 16.226562 26.921875 15.835938 C 27.0625 15.445312 27.496094 15.238281 27.894531 15.375 C 30.394531 16.230469 31.175781 18.339844 31.207031 18.429688 C 31.289062 18.660156 31.253906 18.914062 31.109375 19.109375 C 30.96875 19.308594 30.734375 19.425781 30.488281 19.429688 Z M 30.488281 19.429688 "/>
<path style=" stroke:none;fill-rule:nonzero;fill:rgb(94.117647%,65.098039%,37.254902%);fill-opacity:1;" d="M 47.023438 19.886719 C 44.242188 17.109375 40.101562 16.113281 36.328125 17.316406 C 33.183594 18.316406 29.945312 19 26.644531 19.183594 C 23.882812 19.335938 20.492188 20.25 17.460938 23.125 C 17.394531 23.1875 17.332031 23.25 17.265625 23.3125 C 13.261719 27.25 13.261719 33.628906 17.265625 37.5625 C 17.273438 37.570312 17.28125 37.578125 17.289062 37.585938 C 17.34375 37.636719 17.398438 37.691406 17.453125 37.742188 C 24.777344 44.746094 36.488281 44.683594 43.734375 37.5625 L 46.875 34.480469 C 50.957031 30.464844 51.074219 23.929688 47.023438 19.886719 Z M 47.023438 19.886719 "/>
<path style=" stroke:none;fill-rule:nonzero;fill:rgb(88.627451%,52.156863%,25.098039%);fill-opacity:1;" d="M 47.023438 19.886719 C 46.589844 19.457031 46.121094 19.0625 45.621094 18.710938 C 48.539062 22.757812 48.082031 28.425781 44.398438 32.046875 L 41.261719 35.128906 C 34.429688 41.84375 23.636719 42.28125 16.285156 36.449219 C 16.578125 36.898438 17.398438 37.691406 17.453125 37.742188 C 24.777344 44.746094 36.488281 44.683594 43.734375 37.5625 L 46.875 34.480469 C 50.957031 30.464844 51.074219 23.929688 47.023438 19.886719 Z M 47.023438 19.886719 "/>
<path style=" stroke:none;fill-rule:nonzero;fill:rgb(88.627451%,52.156863%,25.098039%);fill-opacity:1;" d="M 14.992188 4.144531 C 15.007812 4.140625 16.648438 4.035156 18.238281 4.59375 C 18.636719 4.734375 19.070312 4.53125 19.214844 4.144531 C 19.355469 3.753906 19.148438 3.324219 18.753906 3.183594 C 17.816406 2.867188 16.832031 2.6875 15.839844 2.648438 C 15.320312 3.027344 14.832031 3.445312 14.371094 3.894531 C 14.527344 4.070312 14.757812 4.160156 14.992188 4.144531 Z M 14.992188 4.144531 "/>
<path style=" stroke:none;fill-rule:nonzero;fill:rgb(88.627451%,52.156863%,25.098039%);fill-opacity:1;" d="M 19.511719 16.628906 C 19.261719 16.632812 19.03125 16.511719 18.886719 16.308594 C 17.820312 14.804688 15.460938 14.734375 15.4375 14.734375 C 15.015625 14.730469 14.679688 14.394531 14.679688 13.980469 C 14.683594 13.566406 15.027344 13.230469 15.445312 13.234375 L 15.457031 13.234375 C 15.585938 13.234375 18.609375 13.296875 20.136719 15.453125 C 20.300781 15.683594 20.320312 15.980469 20.1875 16.226562 C 20.058594 16.476562 19.796875 16.628906 19.511719 16.628906 Z M 19.511719 16.628906 "/>
<path style=" stroke:none;fill-rule:nonzero;fill:rgb(88.627451%,52.156863%,25.098039%);fill-opacity:1;" d="M 29.980469 9.640625 C 29.628906 9.636719 29.320312 9.402344 29.238281 9.066406 C 28.820312 7.371094 26.859375 6.945312 26.777344 6.925781 C 26.363281 6.84375 26.097656 6.445312 26.183594 6.042969 C 26.265625 5.636719 26.671875 5.375 27.082031 5.457031 C 27.203125 5.480469 30.070312 6.082031 30.71875 8.710938 C 30.820312 9.113281 30.570312 9.519531 30.160156 9.617188 C 30.101562 9.632812 30.039062 9.640625 29.980469 9.640625 Z M 29.980469 9.640625 "/>
<path style=" stroke:none;fill-rule:nonzero;fill:rgb(88.627451%,52.156863%,25.098039%);fill-opacity:1;" d="M 10.265625 25.421875 C 9.917969 25.421875 9.617188 25.191406 9.527344 24.867188 C 8.960938 22.796875 6.230469 22.421875 6.203125 22.417969 C 5.785156 22.367188 5.492188 21.992188 5.542969 21.582031 C 5.597656 21.171875 5.976562 20.878906 6.394531 20.933594 C 6.550781 20.949219 10.164062 21.429688 11 24.476562 C 11.0625 24.703125 11.011719 24.941406 10.867188 25.128906 C 10.726562 25.3125 10.5 25.421875 10.265625 25.421875 Z M 10.265625 25.421875 "/>
<path style=" stroke:none;fill-rule:nonzero;fill:rgb(88.627451%,52.156863%,25.098039%);fill-opacity:1;" d="M 38.917969 16.835938 C 38.222656 16.878906 37.535156 16.988281 36.863281 17.164062 C 36.921875 17.394531 37.089844 17.585938 37.316406 17.675781 C 37.339844 17.683594 39.726562 18.65625 39.996094 20.769531 C 40.042969 21.144531 40.367188 21.425781 40.75 21.425781 C 40.785156 21.425781 40.816406 21.421875 40.847656 21.417969 C 41.265625 21.367188 41.5625 20.992188 41.507812 20.582031 C 41.261719 18.675781 39.898438 17.46875 38.914062 16.835938 Z M 38.917969 16.835938 "/>
<path style=" stroke:none;fill-rule:nonzero;fill:rgb(88.627451%,52.156863%,25.098039%);fill-opacity:1;" d="M 33.433594 26.820312 C 33.039062 26.820312 32.707031 26.519531 32.675781 26.132812 C 32.511719 24.214844 30.199219 23.167969 30.175781 23.15625 C 29.792969 22.988281 29.621094 22.546875 29.792969 22.167969 C 29.960938 21.789062 30.414062 21.621094 30.796875 21.789062 C 30.925781 21.847656 33.957031 23.199219 34.195312 26.007812 C 34.210938 26.207031 34.148438 26.402344 34.015625 26.554688 C 33.886719 26.707031 33.699219 26.800781 33.5 26.816406 C 33.476562 26.816406 33.457031 26.820312 33.433594 26.820312 Z M 33.433594 26.820312 "/>
<path style=" stroke:none;fill-rule:nonzero;fill:rgb(88.627451%,52.156863%,25.098039%);fill-opacity:1;" d="M 41.359375 29.015625 C 40.972656 29.015625 40.648438 28.730469 40.605469 28.351562 C 40.449219 27.042969 39.179688 26.335938 39.164062 26.328125 C 38.796875 26.128906 38.660156 25.675781 38.863281 25.3125 C 39.0625 24.949219 39.527344 24.8125 39.894531 25.011719 C 39.976562 25.054688 41.875 26.085938 42.117188 28.179688 C 42.144531 28.394531 42.074219 28.605469 41.929688 28.765625 C 41.785156 28.925781 41.578125 29.015625 41.359375 29.015625 Z M 41.359375 29.015625 "/>
<path style=" stroke:none;fill-rule:nonzero;fill:rgb(88.627451%,52.156863%,25.098039%);fill-opacity:1;" d="M 19.714844 26.519531 C 19.308594 26.519531 18.972656 26.207031 18.953125 25.808594 C 18.882812 24.410156 17.132812 24.054688 17.117188 24.050781 C 16.703125 23.96875 16.4375 23.574219 16.515625 23.167969 C 16.597656 22.761719 17 22.5 17.414062 22.578125 C 18.425781 22.777344 20.371094 23.691406 20.476562 25.734375 C 20.488281 25.929688 20.417969 26.125 20.28125 26.273438 C 20.144531 26.421875 19.957031 26.507812 19.753906 26.519531 C 19.742188 26.519531 19.726562 26.519531 19.714844 26.519531 Z M 19.714844 26.519531 "/>
<path style=" stroke:none;fill-rule:nonzero;fill:rgb(88.627451%,52.156863%,25.098039%);fill-opacity:1;" d="M 32.84375 38.042969 C 32.722656 37.644531 32.300781 37.417969 31.898438 37.539062 C 31.492188 37.65625 31.261719 38.074219 31.382812 38.46875 C 32.046875 40.667969 30.765625 42.308594 30.703125 42.382812 C 30.574219 42.542969 30.519531 42.746094 30.546875 42.949219 C 31.097656 42.949219 31.652344 42.921875 32.203125 42.871094 C 32.691406 42.070312 33.519531 40.269531 32.84375 38.042969 Z M 32.84375 38.042969 "/>
</g>
</svg>
