<?xml version="1.0" encoding="UTF-8"?>
<svg xmlns="http://www.w3.org/2000/svg" xmlns:xlink="http://www.w3.org/1999/xlink" width="50" height="48" viewBox="0 0 50 48" version="1.1">
<g id="surface1">
<path style=" stroke:none;fill-rule:nonzero;fill:rgb(23.137255%,73.72549%,33.72549%);fill-opacity:1;" d="M 45.0625 11.273438 C 44.710938 11.125 44.46875 10.800781 44.4375 10.425781 C 44.164062 7.308594 41.589844 4.867188 38.402344 4.707031 C 37.886719 4.671875 37.441406 4.332031 37.285156 3.847656 C 35.605469 -0.910156 28.996094 -1.316406 26.609375 2.96875 L 26.550781 3.070312 L 26.664062 3.109375 C 29.109375 3.925781 30.820312 6.101562 31.003906 8.632812 C 35.046875 9.804688 38.601562 12.210938 41.164062 15.496094 L 41.285156 15.65625 L 41.339844 15.460938 C 41.699219 14.140625 42.703125 11.882812 45.386719 11.628906 L 45.726562 11.589844 C 45.320312 11.390625 45.203125 11.335938 45.0625 11.273438 Z M 45.0625 11.273438 "/>
<path style=" stroke:none;fill-rule:nonzero;fill:rgb(18.823529%,66.666667%,26.666667%);fill-opacity:1;" d="M 35.792969 1.550781 C 33.167969 -0.886719 28.527344 -0.472656 26.609375 2.96875 L 26.550781 3.070312 L 26.664062 3.109375 C 27.375 3.34375 28.035156 3.699219 28.617188 4.164062 C 30.109375 1.496094 33.242188 0.652344 35.792969 1.550781 Z M 35.792969 1.550781 "/>
<path style=" stroke:none;fill-rule:nonzero;fill:rgb(18.823529%,66.666667%,26.666667%);fill-opacity:1;" d="M 6.253906 29.21875 L 6.261719 29.222656 L 6.289062 29.027344 Z M 6.253906 29.21875 "/>
<path style=" stroke:none;fill-rule:nonzero;fill:rgb(18.823529%,66.666667%,26.666667%);fill-opacity:1;" d="M 5.773438 29.167969 C 5.78125 29.050781 5.777344 29.089844 5.777344 28.96875 Z M 5.773438 29.167969 "/>
<path style=" stroke:none;fill-rule:nonzero;fill:rgb(18.823529%,66.666667%,26.666667%);fill-opacity:1;" d="M 25.03125 2.605469 C 23.15625 2.503906 21.328125 3.195312 20.007812 4.5 C 19.605469 4.917969 18.984375 5.054688 18.441406 4.839844 C 15.148438 3.496094 11.347656 4.738281 9.539062 7.753906 C 9.316406 8.117188 8.910156 8.335938 8.476562 8.316406 C 1.746094 8.050781 -2.382812 15.507812 1.5 20.894531 C 1.980469 21.554688 2.074219 22.414062 1.742188 23.15625 C 0.753906 25.320312 1.226562 28.019531 3.363281 29.742188 C 3.976562 29.402344 4.664062 29.203125 5.367188 29.164062 C 4.386719 17.402344 13.804688 7.820312 25.292969 7.820312 C 27.300781 7.816406 29.292969 8.113281 31.210938 8.691406 C 30.941406 5.121094 28.136719 2.769531 25.03125 2.605469 Z M 25.03125 2.605469 "/>
<path style=" stroke:none;fill-rule:nonzero;fill:rgb(13.72549%,60.784314%,19.215686%);fill-opacity:1;" d="M 3.746094 23.046875 C 4.078125 22.289062 3.984375 21.417969 3.503906 20.742188 C 0.203125 16.085938 2.691406 9.90625 7.644531 8.324219 C 1.414062 8.671875 -2.222656 15.734375 1.5 20.894531 C 1.980469 21.554688 2.074219 22.414062 1.742188 23.15625 C 0.753906 25.320312 1.226562 28.019531 3.363281 29.742188 C 3.8125 29.496094 4.304688 29.320312 4.8125 29.230469 C 3.226562 27.5625 2.808594 25.128906 3.746094 23.046875 Z M 3.746094 23.046875 "/>
<path style=" stroke:none;fill-rule:nonzero;fill:rgb(51.372549%,80%,55.686275%);fill-opacity:1;" d="M 41.320312 15.375 C 39.460938 13.007812 37.089844 11.082031 34.371094 9.730469 C 31.558594 8.335938 28.445312 7.613281 25.292969 7.621094 C 19.628906 7.625 14.226562 9.960938 10.402344 14.058594 C 6.574219 18.15625 4.675781 23.640625 5.167969 29.175781 L 5.265625 29.171875 C 7.996094 28.984375 9.90625 31.585938 9.925781 31.613281 L 9.953125 31.652344 L 10 31.652344 C 12.289062 31.824219 14.101562 33.101562 15.386719 35.453125 C 15.984375 36.554688 16.40625 37.738281 16.644531 38.964844 L 16.65625 39.042969 L 16.734375 39.046875 C 20.675781 39.292969 23.585938 43.195312 25.238281 46.738281 C 26.699219 41.703125 30.027344 37.46875 35.269531 36.609375 L 35.363281 36.59375 L 35.351562 36.5 C 35.339844 36.417969 34.296875 28.492188 38.90625 25.640625 L 38.972656 25.597656 L 38.945312 25.523438 C 38.921875 25.457031 36.667969 19.109375 41.140625 16.265625 L 41.179688 16.238281 L 41.183594 16.191406 C 41.21875 15.945312 41.269531 15.703125 41.339844 15.460938 L 41.351562 15.414062 Z M 41.320312 15.375 "/>
<path style=" stroke:none;fill-rule:nonzero;fill:rgb(47.058824%,75.686275%,50.588235%);fill-opacity:1;" d="M 27.113281 7.699219 C 26.511719 7.648438 25.90625 7.621094 25.292969 7.621094 C 19.628906 7.625 14.226562 9.960938 10.402344 14.058594 C 6.574219 18.15625 4.675781 23.640625 5.167969 29.175781 L 5.265625 29.171875 C 5.960938 29.128906 6.65625 29.253906 7.292969 29.53125 C 6.613281 17.78125 15.792969 8.300781 27.113281 7.699219 Z M 27.113281 7.699219 "/>
<path style=" stroke:none;fill-rule:nonzero;fill:rgb(23.137255%,73.72549%,33.72549%);fill-opacity:1;" d="M 23.351562 43.105469 C 21.59375 40.730469 19.566406 39.300781 17.445312 38.933594 C 17.078125 38.871094 16.78125 38.605469 16.691406 38.25 C 15.875 35.066406 13.921875 32.070312 10.589844 31.527344 C 10.257812 31.472656 9.953125 31.308594 9.730469 31.0625 C 7.769531 28.898438 5.136719 28.191406 2.582031 29.996094 C -1.667969 33.003906 1.988281 36.777344 5.910156 36.003906 C 7.054688 35.777344 7.710938 37.082031 8.621094 38.886719 C 9.621094 40.875 10.867188 43.351562 13.371094 45.164062 C 15.542969 46.738281 18.257812 47.519531 21.601562 47.519531 C 22.957031 47.507812 24.304688 47.398438 25.640625 47.1875 C 25.195312 46.046875 24.328125 44.433594 23.351562 43.105469 Z M 23.351562 43.105469 "/>
<path style=" stroke:none;fill-rule:nonzero;fill:rgb(18.823529%,66.666667%,26.666667%);fill-opacity:1;" d="M 23.605469 47.421875 C 20.261719 47.421875 17.546875 46.640625 15.375 45.066406 C 12.871094 43.253906 11.625 40.777344 10.625 38.789062 C 9.714844 36.984375 9.058594 35.679688 7.914062 35.90625 C 3.988281 36.679688 0.335938 32.902344 4.585938 29.898438 C 5.121094 29.511719 5.71875 29.21875 6.359375 29.039062 C 5.140625 28.824219 3.851562 29.097656 2.582031 29.996094 C -1.667969 33.003906 1.984375 36.777344 5.910156 36.003906 C 7.054688 35.777344 7.710938 37.082031 8.621094 38.886719 C 9.621094 40.875 10.867188 43.351562 13.371094 45.167969 C 15.542969 46.738281 18.257812 47.519531 21.601562 47.519531 C 22.335938 47.519531 23.042969 47.480469 23.75 47.417969 C 23.703125 47.417969 23.652344 47.421875 23.605469 47.421875 Z M 23.605469 47.421875 "/>
<path style=" stroke:none;fill-rule:nonzero;fill:rgb(60.784314%,87.843137%,63.921569%);fill-opacity:1;" d="M 35.316406 17.929688 C 35.121094 17.570312 34.667969 17.433594 34.300781 17.621094 C 29.957031 19.882812 27.839844 23.253906 26.832031 25.6875 C 26.585938 26.277344 26.378906 26.875 26.203125 27.488281 C 25.507812 25.636719 24.625 23.859375 23.570312 22.183594 C 23.730469 21.421875 24.738281 17.25 28.148438 14.453125 C 28.363281 14.285156 28.464844 14.019531 28.421875 13.757812 C 28.375 13.492188 28.1875 13.273438 27.933594 13.183594 C 27.675781 13.09375 27.390625 13.148438 27.183594 13.324219 C 24.367188 15.636719 23.035156 18.71875 22.457031 20.539062 C 19.371094 16.296875 16.171875 14.226562 16.023438 14.132812 C 15.675781 13.910156 15.210938 14.007812 14.984375 14.351562 C 14.757812 14.691406 14.859375 15.148438 15.207031 15.371094 C 15.230469 15.382812 16.707031 16.339844 18.589844 18.265625 C 15.683594 17.941406 13.429688 18.671875 13.3125 18.710938 C 13.054688 18.792969 12.863281 19.003906 12.808594 19.261719 C 12.753906 19.523438 12.84375 19.792969 13.050781 19.96875 C 13.253906 20.140625 13.539062 20.195312 13.792969 20.105469 C 13.824219 20.097656 16.835938 19.125 20.214844 20.078125 C 20.867188 20.871094 21.476562 21.699219 22.035156 22.558594 C 22.636719 23.476562 23.179688 24.425781 23.664062 25.40625 C 18.585938 23.085938 11.839844 25.65625 11.515625 25.785156 C 11.136719 25.9375 10.953125 26.363281 11.105469 26.738281 C 11.257812 27.109375 11.683594 27.296875 12.070312 27.152344 C 12.152344 27.121094 20.335938 24 24.71875 27.828125 C 25.460938 29.792969 25.984375 31.832031 26.273438 33.910156 C 24.757812 33.113281 21.878906 31.933594 18.558594 32.226562 C 18.292969 32.25 18.054688 32.410156 17.941406 32.648438 C 17.828125 32.890625 17.855469 33.171875 18.011719 33.386719 C 18.164062 33.601562 18.425781 33.71875 18.695312 33.695312 C 22.613281 33.351562 25.957031 35.398438 26.476562 35.738281 C 26.691406 38.492188 26.546875 41.5625 25.871094 44.9375 C 25.789062 45.335938 26.054688 45.726562 26.460938 45.804688 C 26.867188 45.882812 27.265625 45.621094 27.34375 45.222656 C 28.3125 40.40625 28.324219 35.777344 27.378906 31.460938 C 27.3125 31.167969 27.242188 30.875 27.167969 30.582031 C 27.171875 30.570312 27.171875 30.558594 27.171875 30.546875 C 27.175781 30.46875 27.453125 22.851562 35.007812 18.925781 C 35.371094 18.734375 35.511719 18.289062 35.316406 17.929688 Z M 35.316406 17.929688 "/>
<path style=" stroke:none;fill-rule:nonzero;fill:rgb(23.137255%,73.72549%,33.72549%);fill-opacity:1;" d="M 48.234375 26.738281 C 48.101562 23.390625 47.375 19.832031 46.742188 17.90625 L 46.667969 17.910156 C 43.265625 17.980469 42.851562 23.757812 42.835938 24.007812 C 42.597656 28.992188 35.695312 36.167969 35.246094 36.613281 C 29.75 37.539062 26.148438 42.210938 24.960938 47.035156 C 25.714844 47.417969 27.550781 48.011719 29.878906 48.011719 C 30.066406 48.011719 30.257812 48.007812 30.457031 48 C 33.488281 47.875 38.167969 46.691406 43.265625 41.757812 C 47.289062 37.859375 48.460938 32.238281 48.234375 26.738281 Z M 48.234375 26.738281 "/>
<path style=" stroke:none;fill-rule:nonzero;fill:rgb(18.823529%,66.666667%,26.666667%);fill-opacity:1;" d="M 28.644531 43.683594 C 29.984375 40.675781 32.183594 38.035156 35.117188 36.636719 C 29.695312 37.613281 26.136719 42.25 24.960938 47.035156 C 25.714844 47.417969 27.550781 48.011719 29.878906 48.011719 C 30.066406 48.011719 30.257812 48.007812 30.457031 48 C 30.695312 47.992188 30.945312 47.972656 31.203125 47.949219 L 31.152344 47.945312 C 29.0625 47.726562 27.804688 45.574219 28.644531 43.683594 Z M 28.644531 43.683594 "/>
<path style=" stroke:none;fill-rule:nonzero;fill:rgb(18.823529%,66.666667%,26.666667%);fill-opacity:1;" d="M 49.988281 14.035156 C 49.863281 12.640625 48.65625 11.699219 46.679688 11.457031 C 43.644531 11.085938 41.710938 12.898438 41.074219 15.679688 C 41.011719 15.957031 40.851562 16.207031 40.621094 16.382812 C 38.980469 17.617188 38.125 19.535156 38.144531 21.964844 C 38.164062 23.039062 38.320312 24.105469 38.617188 25.140625 C 38.679688 25.363281 38.59375 25.601562 38.402344 25.738281 C 36.675781 27.003906 35.566406 29.195312 35.183594 32.117188 C 35.003906 33.613281 35.023438 35.125 35.246094 36.613281 C 40.015625 34.894531 43.183594 32.484375 44.6875 29.316406 C 45.960938 26.625 45.847656 23.945312 45.757812 21.792969 C 45.675781 19.839844 45.617188 18.429688 46.699219 18.101562 C 48.695312 17.492188 50.140625 15.707031 49.988281 14.035156 Z M 49.988281 14.035156 "/>
<path style=" stroke:none;fill-rule:nonzero;fill:rgb(13.72549%,60.784314%,19.215686%);fill-opacity:1;" d="M 37.265625 32.117188 C 37.644531 29.199219 38.757812 27.003906 40.484375 25.738281 C 40.675781 25.601562 40.757812 25.363281 40.695312 25.140625 C 40.402344 24.105469 40.242188 23.039062 40.226562 21.964844 C 40.207031 19.535156 41.0625 17.617188 42.703125 16.382812 C 42.933594 16.207031 43.09375 15.957031 43.15625 15.679688 C 43.65625 13.484375 44.96875 11.894531 46.992188 11.503906 C 46.890625 11.484375 46.785156 11.472656 46.679688 11.457031 C 43.644531 11.085938 41.710938 12.898438 41.074219 15.679688 C 41.011719 15.957031 40.851562 16.207031 40.621094 16.382812 C 38.980469 17.617188 38.125 19.535156 38.144531 21.964844 C 38.164062 23.039062 38.320312 24.105469 38.617188 25.140625 C 38.679688 25.363281 38.59375 25.601562 38.402344 25.738281 C 36.675781 27.003906 35.566406 29.199219 35.183594 32.117188 C 35.003906 33.613281 35.023438 35.125 35.246094 36.613281 C 35.9375 36.363281 36.597656 36.097656 37.226562 35.820312 C 37.101562 34.585938 37.113281 33.347656 37.265625 32.117188 Z M 37.265625 32.117188 "/>
</g>
</svg>
