<?xml version="1.0" encoding="UTF-8"?>
<svg xmlns="http://www.w3.org/2000/svg" xmlns:xlink="http://www.w3.org/1999/xlink" width="50" height="45" viewBox="0 0 50 45" version="1.1">
<g id="surface1">
<path style=" stroke:none;fill-rule:nonzero;fill:rgb(91.372549%,45.490196%,14.117647%);fill-opacity:1;" d="M 39.734375 7.5 C 38.332031 7.242188 36.894531 7.242188 35.496094 7.5 C 33.300781 6.332031 27.492188 3.644531 21.9375 5.832031 C 21.347656 6.066406 20.78125 6.34375 20.242188 6.667969 C 19.761719 6.441406 15.210938 4.386719 11.765625 6.667969 C 11.097656 7.113281 10.523438 7.675781 10.070312 8.332031 C 3.550781 10.972656 2 14.660156 1.597656 15.832031 C 0.9375 17.757812 0.882812 20.214844 0.75 24.167969 C 0.699219 25.617188 0.707031 27.007812 0.75 28.332031 L 0.75 29.167969 C 0.75 33.308594 4.164062 37.5 8.378906 37.5 C 8.636719 37.5 8.898438 37.488281 9.160156 37.460938 C 10.4375 40.03125 13.09375 41.664062 16.003906 41.667969 L 18.546875 41.667969 C 19.855469 43.945312 22.476562 45 25.328125 45 C 27.59375 45.140625 29.796875 44.214844 31.257812 42.5 C 32.558594 43.175781 34.03125 43.464844 35.496094 43.332031 C 39.109375 43.339844 42.257812 40.917969 43.121094 37.46875 C 47.019531 37.132812 49.902344 33.332031 49.902344 28.332031 C 49.902344 23.332031 52.191406 9.316406 39.734375 7.5 Z M 39.734375 7.5 "/>
<path style=" stroke:none;fill-rule:nonzero;fill:rgb(88.235294%,27.45098%,16.862745%);fill-opacity:1;" d="M 29.714844 13.109375 L 28.519531 11.488281 C 29.199219 10.734375 29.933594 10.023438 30.710938 9.363281 C 31.820312 8.4375 33.054688 7.664062 34.378906 7.0625 C 34.589844 6.972656 34.828125 6.96875 35.042969 7.058594 C 35.253906 7.144531 35.421875 7.3125 35.503906 7.523438 C 35.667969 7.941406 35.46875 8.414062 35.050781 8.59375 C 33.882812 9.128906 32.789062 9.8125 31.808594 10.632812 C 31.066406 11.421875 30.367188 12.25 29.714844 13.109375 Z M 29.714844 13.109375 "/>
<path style=" stroke:none;fill-rule:nonzero;fill:rgb(55.686275%,75.686275%,24.705882%);fill-opacity:1;" d="M 27.019531 13.332031 C 27.636719 13.835938 28.203125 14.394531 28.714844 15 C 29.417969 14.296875 30.226562 13.703125 31.109375 13.238281 C 30.042969 12.746094 29.195312 11.890625 28.714844 10.832031 C 27.566406 7.933594 30.519531 4.398438 32.105469 2.5 L 32.132812 2.464844 C 32.960938 1.480469 31.710938 0 30.410156 0 L 27.867188 0 C 25.617188 0 22.566406 4.894531 22.785156 10 C 22.640625 10.871094 22.355469 11.71875 21.9375 12.5 C 23.667969 11.960938 25.558594 12.269531 27.019531 13.332031 Z M 27.019531 13.332031 "/>
<path style=" stroke:none;fill-rule:nonzero;fill:rgb(97.647059%,73.333333%,29.411765%);fill-opacity:1;" d="M 42.277344 24.230469 L 40.582031 24.101562 C 40.628906 23.476562 40.75 20.238281 38.320312 18.125 C 37.460938 17.386719 36.425781 16.878906 35.3125 16.648438 L 35.675781 15.019531 C 37.070312 15.3125 38.371094 15.953125 39.445312 16.875 C 42.472656 19.515625 42.332031 23.464844 42.277344 24.230469 Z M 42.277344 24.230469 "/>
<path style=" stroke:none;fill-rule:nonzero;fill:rgb(97.647059%,73.333333%,29.411765%);fill-opacity:1;" d="M 40.582031 25.832031 L 42.277344 25.832031 L 42.277344 27.5 L 40.582031 27.5 Z M 40.582031 25.832031 "/>
<path style=" stroke:none;fill-rule:nonzero;fill:rgb(97.647059%,73.333333%,29.411765%);fill-opacity:1;" d="M 21.9375 35.832031 L 23.632812 35.832031 L 23.632812 37.5 L 21.9375 37.5 Z M 21.9375 35.832031 "/>
<path style=" stroke:none;fill-rule:nonzero;fill:rgb(97.647059%,73.333333%,29.411765%);fill-opacity:1;" d="M 19.394531 31.667969 L 21.089844 31.667969 L 21.089844 33.332031 L 19.394531 33.332031 Z M 19.394531 31.667969 "/>
<path style=" stroke:none;fill-rule:nonzero;fill:rgb(88.235294%,27.45098%,16.862745%);fill-opacity:1;" d="M 9.246094 37.488281 C 9.042969 37.597656 8.804688 37.617188 8.585938 37.546875 C 8.367188 37.480469 8.1875 37.324219 8.089844 37.125 C 7.410156 35.695312 6.9375 34.179688 6.691406 32.625 C 6.191406 29.320312 6.675781 25.945312 8.089844 22.910156 C 8.183594 22.703125 8.363281 22.542969 8.582031 22.464844 C 8.796875 22.390625 9.039062 22.40625 9.246094 22.511719 C 9.648438 22.707031 9.820312 23.179688 9.640625 23.582031 C 8.359375 26.328125 7.917969 29.382812 8.367188 32.371094 C 8.589844 33.761719 9.007812 35.109375 9.609375 36.382812 C 9.808594 36.789062 9.648438 37.277344 9.246094 37.488281 Z M 9.246094 37.488281 "/>
<path style=" stroke:none;fill-rule:nonzero;fill:rgb(88.235294%,27.45098%,16.862745%);fill-opacity:1;" d="M 45.648438 20.660156 C 44.910156 17.253906 43.707031 14.921875 41.964844 13.523438 C 38.019531 10.355469 33.253906 11.550781 32.726562 11.699219 C 31.269531 12.113281 29.921875 12.839844 28.78125 13.824219 C 28.398438 13.402344 27.976562 13.011719 27.523438 12.660156 C 25.878906 11.453125 23.75 11.085938 21.789062 11.679688 C 21.085938 11.804688 20.402344 12.027344 19.761719 12.335938 C 18.699219 10.75 16.40625 8.085938 12.75 7.507812 C 12.136719 7.414062 11.511719 7.378906 10.886719 7.414062 C 10.644531 7.425781 10.421875 7.535156 10.265625 7.71875 C 10.113281 7.902344 10.046875 8.140625 10.082031 8.378906 C 10.148438 8.796875 10.523438 9.097656 10.953125 9.078125 C 11.464844 9.050781 11.976562 9.074219 12.484375 9.152344 C 14.375 9.503906 16.082031 10.484375 17.320312 11.933594 C 16.324219 11.746094 15.3125 11.65625 14.300781 11.667969 C 11.800781 11.699219 9.339844 12.304688 7.117188 13.4375 C 1.765625 16.355469 0.359375 22.511719 0.0078125 24.886719 C -0.0273438 25.328125 0.285156 25.71875 0.730469 25.78125 C 1.171875 25.847656 1.589844 25.5625 1.683594 25.128906 C 1.988281 23.015625 3.222656 17.464844 7.9375 14.894531 C 9.914062 13.902344 12.097656 13.367188 14.316406 13.332031 C 15.476562 13.320312 16.632812 13.453125 17.753906 13.730469 C 17.503906 13.960938 17.265625 14.210938 17.046875 14.46875 C 16 15.796875 15.347656 17.382812 15.164062 19.050781 C 14.347656 26.488281 15.136719 34.007812 17.476562 41.121094 C 17.554688 41.421875 17.792969 41.652344 18.097656 41.722656 C 18.402344 41.796875 18.722656 41.695312 18.929688 41.464844 C 19.140625 41.234375 19.199219 40.910156 19.089844 40.621094 C 16.824219 33.746094 16.058594 26.476562 16.84375 19.289062 C 16.988281 17.925781 17.511719 16.628906 18.351562 15.539062 C 19.289062 14.386719 20.613281 13.601562 22.089844 13.328125 C 22.117188 13.324219 22.21875 13.296875 22.25 13.289062 C 23.710938 12.851562 25.296875 13.121094 26.523438 14.015625 C 27.082031 14.480469 27.601562 14.992188 28.070312 15.546875 C 29.707031 17.636719 30.808594 20.085938 31.277344 22.683594 C 31.867188 25.359375 32.144531 28.089844 32.105469 30.824219 C 32.0625 34.425781 31.574219 38.003906 30.65625 41.492188 C 30.539062 41.929688 30.800781 42.378906 31.242188 42.5 C 31.464844 42.558594 31.699219 42.53125 31.894531 42.417969 C 32.09375 42.308594 32.238281 42.121094 32.296875 41.90625 C 33.25 38.292969 33.753906 34.578125 33.800781 30.84375 C 33.839844 27.980469 33.550781 25.121094 32.933594 22.324219 C 32.4375 19.726562 31.386719 17.261719 29.855469 15.09375 C 30.816406 14.261719 31.953125 13.648438 33.183594 13.300781 C 35.851562 12.605469 38.699219 13.164062 40.894531 14.8125 C 42.308594 15.945312 43.351562 18.03125 43.992188 21.007812 C 45 26.171875 44.527344 31.515625 42.625 36.433594 C 42.46875 36.863281 42.695312 37.339844 43.132812 37.496094 C 43.570312 37.652344 44.054688 37.433594 44.21875 37.003906 C 46.226562 31.789062 46.722656 26.132812 45.648438 20.660156 Z M 45.648438 20.660156 "/>
</g>
</svg>
