<?xml version="1.0" encoding="UTF-8"?>
<svg xmlns="http://www.w3.org/2000/svg" xmlns:xlink="http://www.w3.org/1999/xlink" width="50" height="62" viewBox="0 0 50 62" version="1.1">
<defs>
<filter id="alpha" filterUnits="objectBoundingBox" x="0%" y="0%" width="100%" height="100%">
  <feColorMatrix type="matrix" in="SourceGraphic" values="0 0 0 0 1 0 0 0 0 1 0 0 0 0 1 0 0 0 1 0"/>
</filter>
<mask id="mask0">
  <g filter="url(#alpha)">
<rect x="0" y="0" width="50" height="62" style="fill:rgb(0%,0%,0%);fill-opacity:0.6;stroke:none;"/>
  </g>
</mask>
<clipPath id="clip1">
  <rect x="0" y="0" width="50" height="62"/>
</clipPath>
<g id="surface5" clip-path="url(#clip1)">
<path style=" stroke:none;fill-rule:nonzero;fill:rgb(27.058824%,64.705882%,20.392157%);fill-opacity:1;" d="M 14.339844 37.289062 C 10.625 28.816406 6.988281 21.136719 6.609375 14.933594 C -2.695312 17.457031 -0.152344 27.179688 2.175781 38.707031 C 4.523438 50.316406 9.71875 59.207031 15.449219 58.550781 C 16.511719 59.65625 17.636719 60.269531 18.738281 60.273438 C 20.253906 60.273438 20.714844 59.957031 22.464844 60.195312 C 24.578125 60.484375 25.617188 62 27.480469 62 C 29.546875 62 30.773438 61.28125 31.699219 59.910156 C 25.605469 56.925781 19.167969 48.296875 14.339844 37.289062 Z M 14.339844 37.289062 "/>
</g>
<mask id="mask1">
  <g filter="url(#alpha)">
<rect x="0" y="0" width="50" height="62" style="fill:rgb(0%,0%,0%);fill-opacity:0.6;stroke:none;"/>
  </g>
</mask>
<clipPath id="clip2">
  <rect x="0" y="0" width="50" height="62"/>
</clipPath>
<g id="surface8" clip-path="url(#clip2)">
<path style=" stroke:none;fill-rule:nonzero;fill:rgb(91.372549%,91.372549%,91.372549%);fill-opacity:1;" d="M 14.480469 42.347656 C 14.074219 42.34375 13.738281 42.03125 13.71875 41.628906 C 13.667969 40.792969 13.644531 39.945312 13.644531 39.105469 C 13.644531 38.40625 13.644531 37.738281 13.640625 37.09375 C 13.636719 36.152344 13.632812 35.265625 13.636719 34.402344 C 13.640625 33.988281 13.984375 33.648438 14.40625 33.648438 L 14.410156 33.648438 C 14.832031 33.652344 15.175781 33.992188 15.171875 34.414062 C 15.167969 35.269531 15.171875 36.152344 15.175781 37.085938 C 15.175781 37.734375 15.179688 38.40625 15.179688 39.105469 C 15.179688 39.914062 15.203125 40.734375 15.25 41.542969 C 15.273438 41.960938 14.949219 42.320312 14.527344 42.34375 C 14.511719 42.34375 14.496094 42.347656 14.480469 42.347656 Z M 14.480469 42.347656 "/>
</g>
</defs>
<g id="surface1">
<path style=" stroke:none;fill-rule:nonzero;fill:rgb(56.078431%,72.941176%,22.352941%);fill-opacity:1;" d="M 25.832031 13.226562 C 26.515625 14.554688 28.109375 14.839844 29.679688 14.742188 C 31.03125 14.632812 32.363281 14.332031 33.632812 13.855469 C 31.429688 16.632812 33 18.800781 33 18.800781 C 32.160156 18.53125 31.277344 18.394531 30.394531 18.398438 C 28.179688 18.398438 26.078125 20.101562 24.296875 19.941406 C 22.28125 19.761719 21.417969 17.738281 18.347656 17.300781 C 20.957031 16.285156 20.46875 12.011719 18.789062 8.84375 C 17.609375 6.613281 15.84375 4.929688 14.15625 5.304688 C 14.15625 5.304688 12.324219 7.027344 11.402344 3.753906 C 11.039062 2.453125 11.0625 1.570312 11.195312 0.992188 C 11.328125 0.410156 11.847656 0 12.449219 0 C 17.128906 0.0234375 20.816406 3.878906 23.292969 7.984375 C 24.296875 9.652344 25.144531 11.40625 25.832031 13.226562 Z M 25.832031 13.226562 "/>
<path style=" stroke:none;fill-rule:nonzero;fill:rgb(40%,49.803922%,16.078431%);fill-opacity:1;" d="M 33.632812 13.855469 C 32.363281 14.332031 31.03125 14.632812 29.679688 14.742188 C 28.109375 14.839844 26.515625 14.554688 25.832031 13.226562 C 25.144531 11.40625 24.296875 9.652344 23.292969 7.984375 C 20.816406 3.878906 17.128906 0.0234375 12.449219 0 C 11.847656 0 11.328125 0.410156 11.195312 0.992188 C 11.164062 1.128906 11.140625 1.265625 11.128906 1.40625 C 15.394531 1.867188 18.78125 5.496094 21.101562 9.339844 C 22.101562 11.011719 22.953125 12.765625 23.640625 14.582031 C 24.324219 15.914062 25.917969 16.199219 27.488281 16.097656 C 28.839844 15.988281 30.171875 15.691406 31.441406 15.214844 C 30.46875 16.441406 30.230469 17.546875 30.269531 18.402344 C 30.3125 18.398438 30.351562 18.398438 30.394531 18.398438 C 31.277344 18.394531 32.160156 18.53125 33 18.800781 C 33 18.800781 31.429688 16.632812 33.632812 13.855469 Z M 33.632812 13.855469 "/>
<path style=" stroke:none;fill-rule:nonzero;fill:rgb(7.45098%,41.960784%,3.921569%);fill-opacity:1;" d="M 15.449219 58.550781 C 9.71875 59.207031 4.523438 50.316406 2.175781 38.707031 C -0.179688 27.039062 -2.757812 17.21875 6.953125 14.84375 C 7.320312 14.761719 7.695312 14.726562 8.070312 14.746094 C 10.042969 14.800781 12.851562 15.886719 14.554688 17.960938 C 11.695312 19.777344 10.484375 24.570312 10.054688 28.214844 C 9.628906 31.832031 9.730469 34.894531 9.730469 39.105469 C 9.730469 47.851562 12.335938 55.316406 15.449219 58.550781 Z M 15.449219 58.550781 "/>
<path style=" stroke:none;fill-rule:nonzero;fill:rgb(2.745098%,51.764706%,2.745098%);fill-opacity:1;" d="M 15.449219 58.550781 C 12.335938 55.316406 9.730469 47.851562 9.730469 39.105469 C 9.730469 34.894531 9.628906 31.832031 10.054688 28.214844 C 10.484375 24.570312 11.695312 19.777344 14.554688 17.960938 C 15.320312 17.472656 16.210938 17.214844 17.121094 17.21875 C 17.53125 17.21875 17.941406 17.246094 18.347656 17.300781 C 21.417969 17.738281 22.28125 19.761719 24.296875 19.941406 C 26.078125 20.101562 28.179688 18.398438 30.394531 18.398438 C 31.277344 18.394531 32.160156 18.53125 33 18.800781 C 34.324219 19.246094 35.511719 20.027344 36.4375 21.0625 C 39.730469 24.640625 41.996094 29.445312 39.308594 40.558594 C 38.703125 43.074219 36.148438 48.394531 35.359375 50.476562 C 33.804688 54.570312 33.078125 57.671875 31.886719 59.621094 C 30.9375 61.179688 29.6875 62 27.480469 62 C 25.617188 62 24.578125 60.484375 22.464844 60.195312 C 20.714844 59.957031 20.253906 60.273438 18.738281 60.273438 C 17.636719 60.269531 16.511719 59.65625 15.449219 58.550781 Z M 15.449219 58.550781 "/>
<use xlink:href="#surface5" mask="url(#mask0)"/>
<path style=" stroke:none;fill-rule:nonzero;fill:rgb(7.45098%,41.960784%,3.921569%);fill-opacity:1;" d="M 45.59375 15.042969 C 52.246094 16.746094 49.988281 28.144531 47.644531 39.742188 C 45.839844 48.671875 43.515625 56.472656 37.902344 58.945312 C 35.691406 59.917969 33.476562 59.828125 31.886719 59.621094 C 33.078125 57.671875 33.804688 54.570312 35.359375 50.476562 C 36.148438 48.394531 38.703125 43.074219 39.308594 40.558594 C 41.996094 29.445312 39.730469 24.640625 36.4375 21.0625 C 35.511719 20.027344 34.324219 19.246094 33 18.800781 C 35.066406 16.289062 43.609375 14.574219 45.476562 15.011719 C 45.515625 15.023438 45.554688 15.03125 45.59375 15.042969 Z M 45.59375 15.042969 "/>
<path style=" stroke:none;fill-rule:nonzero;fill:rgb(2.745098%,51.764706%,2.745098%);fill-opacity:1;" d="M 45.601562 15 L 45.59375 15.042969 C 45.554688 15.03125 45.515625 15.023438 45.476562 15.011719 C 43.609375 14.574219 35.066406 16.289062 33 18.800781 C 33 18.800781 31.429688 16.632812 33.632812 13.855469 C 32.363281 14.332031 31.03125 14.632812 29.679688 14.742188 C 29.820312 13.738281 30.53125 12.726562 31.578125 11.878906 C 33.363281 10.429688 36.136719 9.457031 38.757812 9.824219 C 42.507812 10.351562 45.363281 12.578125 45.601562 15 Z M 45.601562 15 "/>
<path style=" stroke:none;fill-rule:nonzero;fill:rgb(7.843137%,49.803922%,3.529412%);fill-opacity:1;" d="M 31.429688 11.808594 L 31.578125 11.878906 C 30.53125 12.726562 29.820312 13.738281 29.679688 14.742188 C 28.109375 14.839844 26.515625 14.554688 25.832031 13.226562 C 25.144531 11.40625 24.296875 9.652344 23.292969 7.984375 C 26.265625 7.6875 29.855469 8.128906 31.429688 11.808594 Z M 31.429688 11.808594 "/>
<path style=" stroke:none;fill-rule:nonzero;fill:rgb(2.745098%,51.764706%,2.745098%);fill-opacity:1;" d="M 18.789062 8.84375 C 20.46875 12.011719 20.957031 16.285156 18.347656 17.300781 C 17.941406 17.246094 17.53125 17.21875 17.121094 17.21875 C 16.210938 17.214844 15.320312 17.472656 14.554688 17.960938 C 12.851562 15.886719 10.042969 14.800781 8.070312 14.746094 L 8.070312 14.742188 C 9.1875 11.375 13.660156 9.960938 18.789062 8.84375 Z M 18.789062 8.84375 "/>
<use xlink:href="#surface8" mask="url(#mask1)"/>
</g>
</svg>
