<?xml version="1.0" encoding="UTF-8"?>
<svg xmlns="http://www.w3.org/2000/svg" xmlns:xlink="http://www.w3.org/1999/xlink" width="50" height="43" viewBox="0 0 50 43" version="1.1">
<g id="surface1">
<path style=" stroke:none;fill-rule:nonzero;fill:rgb(30.588235%,56.470588%,11.764706%);fill-opacity:1;" d="M 22.34375 21.757812 L 22.34375 27.28125 C 22.34375 29.53125 20.765625 31.519531 18.335938 32.746094 C 17.847656 32.992188 17.339844 33.199219 16.820312 33.371094 C 15.949219 33.660156 15.046875 33.851562 14.128906 33.945312 L 14.09375 33.949219 C 13.621094 33.996094 13.144531 34.023438 12.667969 34.023438 L 12.582031 34.023438 C 12.109375 34.019531 11.636719 33.992188 11.167969 33.941406 C 10.65625 33.886719 10.152344 33.800781 9.652344 33.6875 C 8.78125 33.492188 7.933594 33.195312 7.128906 32.808594 C 6.59375 32.550781 6.089844 32.246094 5.613281 31.894531 C 3.988281 30.6875 2.992188 29.066406 2.992188 27.28125 L 2.992188 21.757812 Z M 22.34375 21.757812 "/>
<path style=" stroke:none;fill-rule:nonzero;fill:rgb(36.862745%,67.45098%,14.117647%);fill-opacity:1;" d="M 22.34375 21.757812 L 22.34375 27.28125 C 22.34375 29.53125 20.765625 31.519531 18.335938 32.746094 C 17.847656 32.992188 17.339844 33.199219 16.820312 33.371094 C 15.949219 33.660156 15.046875 33.851562 14.128906 33.945312 C 14.117188 33.945312 14.105469 33.941406 14.09375 33.941406 C 13.585938 33.886719 13.082031 33.800781 12.582031 33.6875 C 11.707031 33.492188 10.859375 33.195312 10.058594 32.808594 C 9.523438 32.550781 9.015625 32.246094 8.542969 31.894531 C 6.917969 30.6875 5.921875 29.066406 5.921875 27.28125 L 5.921875 21.757812 Z M 22.34375 21.757812 "/>
<path style=" stroke:none;fill-rule:nonzero;fill:rgb(30.588235%,56.470588%,11.764706%);fill-opacity:1;" d="M 49.996094 9.566406 C 49.996094 10.839844 49.738281 12.097656 49.234375 13.269531 C 47.753906 16.707031 44.28125 19.136719 40.261719 19.136719 L 9.734375 19.136719 C 4.382812 19.132812 0 14.832031 0 9.566406 C 0 7.773438 0.515625 6.015625 1.488281 4.496094 C 1.878906 3.886719 2.339844 3.320312 2.859375 2.808594 L 2.886719 2.785156 C 4.703125 1 7.167969 0 9.734375 0 L 40.261719 0 C 45.617188 0 49.996094 4.304688 49.996094 9.566406 Z M 49.996094 9.566406 "/>
<path style=" stroke:none;fill-rule:nonzero;fill:rgb(36.862745%,67.45098%,14.117647%);fill-opacity:1;" d="M 49.996094 9.566406 C 49.996094 10.839844 49.738281 12.097656 49.234375 13.269531 C 47.414062 15.054688 44.953125 16.058594 42.382812 16.058594 L 11.855469 16.058594 C 6.5 16.058594 2.121094 11.753906 2.121094 6.492188 C 2.121094 5.261719 2.363281 4.046875 2.832031 2.910156 C 2.851562 2.867188 2.867188 2.824219 2.886719 2.785156 C 4.703125 1 7.167969 0 9.734375 0 L 40.261719 0 C 45.617188 0 49.996094 4.304688 49.996094 9.566406 Z M 49.996094 9.566406 "/>
<path style=" stroke:none;fill-rule:nonzero;fill:rgb(56.862745%,86.27451%,35.294118%);fill-opacity:1;" d="M 50 9.566406 C 50 14.820312 45.667969 19.078125 40.324219 19.078125 C 34.980469 19.078125 30.648438 14.820312 30.648438 9.566406 C 30.648438 4.316406 34.980469 0.0585938 40.324219 0.0585938 C 45.667969 0.0585938 50 4.316406 50 9.566406 Z M 50 9.566406 "/>
<path style=" stroke:none;fill-rule:nonzero;fill:rgb(27.843137%,50.980392%,10.980392%);fill-opacity:1;" d="M 13.539062 5.242188 C 13.539062 5.652344 13.199219 5.984375 12.78125 5.984375 L 0.710938 5.984375 C 0.925781 5.46875 1.1875 4.96875 1.488281 4.496094 L 12.78125 4.496094 C 13.203125 4.496094 13.539062 4.832031 13.539062 5.242188 Z M 13.539062 5.242188 "/>
<path style=" stroke:none;fill-rule:nonzero;fill:rgb(27.843137%,50.980392%,10.980392%);fill-opacity:1;" d="M 15.8125 5.988281 L 23.585938 5.988281 C 24.003906 5.988281 24.34375 5.652344 24.34375 5.242188 C 24.34375 4.832031 24.003906 4.496094 23.585938 4.496094 L 15.8125 4.496094 C 15.394531 4.496094 15.054688 4.832031 15.054688 5.242188 C 15.054688 5.652344 15.394531 5.988281 15.8125 5.988281 Z M 15.8125 5.988281 "/>
<path style=" stroke:none;fill-rule:nonzero;fill:rgb(27.843137%,50.980392%,10.980392%);fill-opacity:1;" d="M 12.042969 11.113281 L 8.207031 11.113281 C 7.789062 11.113281 7.449219 11.445312 7.449219 11.859375 C 7.449219 12.269531 7.789062 12.601562 8.207031 12.601562 L 12.042969 12.601562 C 12.460938 12.601562 12.800781 12.269531 12.800781 11.859375 C 12.800781 11.445312 12.460938 11.113281 12.042969 11.113281 Z M 12.042969 11.113281 "/>
<path style=" stroke:none;fill-rule:nonzero;fill:rgb(27.843137%,50.980392%,10.980392%);fill-opacity:1;" d="M 27.929688 11.113281 L 15.070312 11.113281 C 14.652344 11.113281 14.3125 11.445312 14.3125 11.859375 C 14.3125 12.269531 14.652344 12.601562 15.070312 12.601562 L 27.929688 12.601562 C 28.347656 12.601562 28.683594 12.269531 28.683594 11.859375 C 28.683594 11.445312 28.347656 11.113281 27.929688 11.113281 Z M 27.929688 11.113281 "/>
<path style=" stroke:none;fill-rule:nonzero;fill:rgb(56.862745%,86.27451%,35.294118%);fill-opacity:1;" d="M 22.34375 21.722656 C 22.34375 18 18.011719 14.984375 12.667969 14.984375 C 7.324219 14.984375 2.992188 18 2.992188 21.722656 C 2.992188 25.445312 7.324219 28.464844 12.667969 28.464844 C 18.011719 28.464844 22.34375 25.445312 22.34375 21.722656 Z M 22.34375 21.722656 "/>
<path style=" stroke:none;fill-rule:nonzero;fill:rgb(71.372549%,90.980392%,57.254902%);fill-opacity:1;" d="M 20.457031 21.625 C 20.457031 18.863281 16.976562 16.625 12.683594 16.625 C 8.386719 16.625 4.90625 18.863281 4.90625 21.625 C 4.90625 24.386719 8.386719 26.625 12.683594 26.625 C 16.976562 26.625 20.457031 24.386719 20.457031 21.625 Z M 20.457031 21.625 "/>
<path style=" stroke:none;fill-rule:nonzero;fill:rgb(42.745098%,78.431373%,16.470588%);fill-opacity:1;" d="M 12.824219 19.519531 C 12.824219 19.074219 12.351562 18.710938 11.765625 18.710938 C 11.179688 18.710938 10.703125 19.074219 10.703125 19.519531 C 10.703125 19.96875 11.179688 20.332031 11.765625 20.332031 C 12.351562 20.332031 12.824219 19.96875 12.824219 19.519531 Z M 12.824219 19.519531 "/>
<path style=" stroke:none;fill-rule:nonzero;fill:rgb(42.745098%,78.431373%,16.470588%);fill-opacity:1;" d="M 11.851562 23.382812 C 11.851562 22.929688 11.375 22.558594 10.789062 22.558594 C 10.203125 22.558594 9.730469 22.929688 9.730469 23.382812 C 9.730469 23.835938 10.203125 24.207031 10.789062 24.207031 C 11.375 24.207031 11.851562 23.835938 11.851562 23.382812 Z M 11.851562 23.382812 "/>
<path style=" stroke:none;fill-rule:nonzero;fill:rgb(42.745098%,78.431373%,16.470588%);fill-opacity:1;" d="M 16.730469 21.945312 C 16.730469 21.460938 16.253906 21.070312 15.667969 21.070312 C 15.082031 21.070312 14.609375 21.460938 14.609375 21.945312 C 14.609375 22.425781 15.082031 22.816406 15.667969 22.816406 C 16.253906 22.816406 16.730469 22.425781 16.730469 21.945312 Z M 16.730469 21.945312 "/>
<path style=" stroke:none;fill-rule:nonzero;fill:rgb(30.588235%,56.470588%,11.764706%);fill-opacity:1;" d="M 39.507812 30.691406 L 39.507812 36.210938 C 39.507812 37.328125 39.117188 38.382812 38.429688 39.308594 C 38 39.875 37.488281 40.382812 36.914062 40.804688 C 36.261719 41.289062 35.546875 41.691406 34.792969 42 C 34.300781 42.207031 33.796875 42.378906 33.277344 42.511719 C 32.628906 42.683594 31.964844 42.804688 31.296875 42.875 L 31.234375 42.882812 C 30.769531 42.929688 30.300781 42.953125 29.832031 42.953125 C 29.796875 42.953125 29.757812 42.953125 29.71875 42.953125 C 26.980469 42.933594 24.519531 42.117188 22.777344 40.824219 C 22.203125 40.40625 21.691406 39.90625 21.261719 39.34375 C 20.554688 38.40625 20.15625 37.34375 20.15625 36.210938 L 20.15625 30.691406 Z M 39.507812 30.691406 "/>
<path style=" stroke:none;fill-rule:nonzero;fill:rgb(36.862745%,67.45098%,14.117647%);fill-opacity:1;" d="M 39.507812 30.691406 L 39.507812 36.210938 C 39.507812 37.328125 39.117188 38.382812 38.429688 39.308594 C 38 39.875 37.488281 40.382812 36.914062 40.804688 C 36.261719 41.289062 35.546875 41.691406 34.792969 42 C 34.300781 42.207031 33.796875 42.378906 33.277344 42.511719 C 32.628906 42.683594 31.964844 42.804688 31.296875 42.875 C 29.105469 42.644531 27.15625 41.902344 25.707031 40.824219 C 25.132812 40.40625 24.621094 39.90625 24.191406 39.34375 C 23.484375 38.40625 23.085938 37.34375 23.085938 36.210938 L 23.085938 30.691406 Z M 39.507812 30.691406 "/>
<path style=" stroke:none;fill-rule:nonzero;fill:rgb(56.862745%,86.27451%,35.294118%);fill-opacity:1;" d="M 39.507812 30.65625 C 39.507812 26.933594 35.175781 23.914062 29.832031 23.914062 C 24.488281 23.914062 20.160156 26.933594 20.160156 30.65625 C 20.160156 34.378906 24.488281 37.398438 29.832031 37.398438 C 35.175781 37.398438 39.507812 34.378906 39.507812 30.65625 Z M 39.507812 30.65625 "/>
<path style=" stroke:none;fill-rule:nonzero;fill:rgb(71.372549%,90.980392%,57.254902%);fill-opacity:1;" d="M 37.621094 30.558594 C 37.621094 27.796875 34.140625 25.558594 29.847656 25.558594 C 25.554688 25.558594 22.070312 27.796875 22.070312 30.558594 C 22.070312 33.320312 25.554688 35.558594 29.847656 35.558594 C 34.140625 35.558594 37.621094 33.320312 37.621094 30.558594 Z M 37.621094 30.558594 "/>
<path style=" stroke:none;fill-rule:nonzero;fill:rgb(42.745098%,78.431373%,16.470588%);fill-opacity:1;" d="M 29.988281 28.453125 C 29.988281 28.003906 29.515625 27.640625 28.929688 27.640625 C 28.34375 27.640625 27.871094 28.003906 27.871094 28.453125 C 27.871094 28.898438 28.34375 29.261719 28.929688 29.261719 C 29.515625 29.261719 29.988281 28.898438 29.988281 28.453125 Z M 29.988281 28.453125 "/>
<path style=" stroke:none;fill-rule:nonzero;fill:rgb(42.745098%,78.431373%,16.470588%);fill-opacity:1;" d="M 29.015625 32.316406 C 29.015625 31.859375 28.539062 31.492188 27.953125 31.492188 C 27.367188 31.492188 26.894531 31.859375 26.894531 32.316406 C 26.894531 32.769531 27.367188 33.136719 27.953125 33.136719 C 28.539062 33.136719 29.015625 32.769531 29.015625 32.316406 Z M 29.015625 32.316406 "/>
<path style=" stroke:none;fill-rule:nonzero;fill:rgb(42.745098%,78.431373%,16.470588%);fill-opacity:1;" d="M 33.894531 30.875 C 33.894531 30.394531 33.417969 30.003906 32.835938 30.003906 C 32.25 30.003906 31.773438 30.394531 31.773438 30.875 C 31.773438 31.359375 32.25 31.746094 32.835938 31.746094 C 33.417969 31.746094 33.894531 31.359375 33.894531 30.875 Z M 33.894531 30.875 "/>
<path style=" stroke:none;fill-rule:nonzero;fill:rgb(71.372549%,90.980392%,57.254902%);fill-opacity:1;" d="M 48.382812 9.601562 C 48.382812 14.011719 44.746094 17.585938 40.257812 17.585938 C 35.769531 17.585938 32.132812 14.011719 32.132812 9.601562 C 32.132812 5.191406 35.769531 1.613281 40.257812 1.613281 C 44.746094 1.613281 48.382812 5.191406 48.382812 9.601562 Z M 48.382812 9.601562 "/>
<path style=" stroke:none;fill-rule:nonzero;fill:rgb(42.745098%,78.431373%,16.470588%);fill-opacity:1;" d="M 41.609375 4.996094 C 41.609375 5.570312 41.136719 6.035156 40.550781 6.035156 C 39.964844 6.035156 39.488281 5.570312 39.488281 4.996094 C 39.488281 4.417969 39.964844 3.953125 40.550781 3.953125 C 41.136719 3.953125 41.609375 4.417969 41.609375 4.996094 Z M 41.609375 4.996094 "/>
<path style=" stroke:none;fill-rule:nonzero;fill:rgb(42.745098%,78.431373%,16.470588%);fill-opacity:1;" d="M 38.023438 8.46875 C 38.023438 9.042969 37.550781 9.507812 36.964844 9.507812 C 36.378906 9.507812 35.90625 9.042969 35.90625 8.46875 C 35.90625 7.890625 36.378906 7.425781 36.964844 7.425781 C 37.550781 7.425781 38.023438 7.890625 38.023438 8.46875 Z M 38.023438 8.46875 "/>
<path style=" stroke:none;fill-rule:nonzero;fill:rgb(42.745098%,78.431373%,16.470588%);fill-opacity:1;" d="M 40.398438 14.125 C 40.398438 14.699219 39.921875 15.167969 39.335938 15.167969 C 38.753906 15.167969 38.277344 14.699219 38.277344 14.125 C 38.277344 13.546875 38.753906 13.082031 39.335938 13.082031 C 39.921875 13.082031 40.398438 13.546875 40.398438 14.125 Z M 40.398438 14.125 "/>
<path style=" stroke:none;fill-rule:nonzero;fill:rgb(42.745098%,78.431373%,16.470588%);fill-opacity:1;" d="M 46.757812 10.03125 C 46.757812 10.605469 46.285156 11.074219 45.699219 11.074219 C 45.113281 11.074219 44.640625 10.605469 44.640625 10.03125 C 44.640625 9.457031 45.113281 8.988281 45.699219 8.988281 C 46.285156 8.988281 46.757812 9.457031 46.757812 10.03125 Z M 46.757812 10.03125 "/>
<path style=" stroke:none;fill-rule:nonzero;fill:rgb(27.843137%,50.980392%,10.980392%);fill-opacity:1;" d="M 14.09375 32.113281 L 14.09375 33.949219 C 13.621094 33.996094 13.144531 34.023438 12.667969 34.023438 L 12.582031 34.023438 L 12.582031 32.113281 C 12.582031 31.699219 12.917969 31.367188 13.339844 31.367188 C 13.757812 31.367188 14.09375 31.699219 14.09375 32.113281 Z M 14.09375 32.113281 "/>
<path style=" stroke:none;fill-rule:nonzero;fill:rgb(27.843137%,50.980392%,10.980392%);fill-opacity:1;" d="M 38.429688 37.371094 L 38.429688 39.308594 C 38 39.875 37.488281 40.382812 36.914062 40.804688 L 36.914062 37.371094 C 36.917969 36.964844 37.257812 36.636719 37.671875 36.636719 C 38.085938 36.636719 38.425781 36.964844 38.429688 37.371094 Z M 38.429688 37.371094 "/>
<path style=" stroke:none;fill-rule:nonzero;fill:rgb(27.843137%,50.980392%,10.980392%);fill-opacity:1;" d="M 31.234375 38.710938 L 31.234375 42.882812 C 30.769531 42.929688 30.300781 42.953125 29.832031 42.953125 C 29.796875 42.953125 29.757812 42.953125 29.71875 42.953125 L 29.71875 38.710938 C 29.726562 38.304688 30.0625 37.976562 30.476562 37.976562 C 30.894531 37.976562 31.230469 38.304688 31.234375 38.710938 Z M 31.234375 38.710938 "/>
<path style=" stroke:none;fill-rule:nonzero;fill:rgb(27.843137%,50.980392%,10.980392%);fill-opacity:1;" d="M 34.792969 40.148438 L 34.792969 42 C 34.300781 42.207031 33.796875 42.378906 33.28125 42.511719 L 33.28125 40.148438 C 33.285156 39.742188 33.621094 39.414062 34.035156 39.414062 C 34.453125 39.414062 34.789062 39.742188 34.792969 40.148438 Z M 34.792969 40.148438 "/>
<path style=" stroke:none;fill-rule:nonzero;fill:rgb(27.843137%,50.980392%,10.980392%);fill-opacity:1;" d="M 18.335938 29.730469 L 18.335938 32.746094 C 17.847656 32.992188 17.339844 33.199219 16.820312 33.371094 L 16.820312 29.730469 C 16.828125 29.320312 17.164062 28.992188 17.578125 28.992188 C 17.992188 28.992188 18.332031 29.320312 18.335938 29.730469 Z M 18.335938 29.730469 "/>
</g>
</svg>
