<?xml version="1.0" encoding="UTF-8"?>
<svg xmlns="http://www.w3.org/2000/svg" xmlns:xlink="http://www.w3.org/1999/xlink" width="50" height="61" viewBox="0 0 50 61" version="1.1">
<g id="surface1">
<path style=" stroke:none;fill-rule:nonzero;fill:rgb(77.647059%,91.764706%,29.411765%);fill-opacity:1;" d="M 39.300781 25.929688 C 33.542969 24.914062 28.089844 30.34375 25.007812 34.664062 C 21.925781 30.34375 16.472656 24.910156 10.714844 25.929688 L 0 27.828125 L 4.960938 30.601562 C 8.019531 32.3125 9.910156 35.511719 9.910156 38.976562 L 9.910156 45.757812 C 9.910156 50.878906 14.121094 55.03125 19.316406 55.03125 L 30.699219 55.03125 C 35.894531 55.03125 40.105469 50.878906 40.105469 45.757812 L 40.105469 38.976562 C 40.105469 35.511719 41.996094 32.3125 45.054688 30.601562 L 50.015625 27.828125 Z M 39.300781 25.929688 "/>
<path style=" stroke:none;fill-rule:nonzero;fill:rgb(65.098039%,81.960784%,16.862745%);fill-opacity:1;" d="M 30.699219 51.980469 C 30.222656 51.980469 29.835938 51.597656 29.835938 51.125 C 29.835938 50.652344 30.222656 50.269531 30.699219 50.269531 C 33.230469 50.269531 35.277344 48.25 35.28125 45.757812 C 35.28125 45.285156 35.667969 44.902344 36.148438 44.902344 C 36.625 44.902344 37.011719 45.285156 37.011719 45.757812 C 37.007812 49.191406 34.183594 51.976562 30.699219 51.980469 Z M 30.699219 51.980469 "/>
<path style=" stroke:none;fill-rule:nonzero;fill:rgb(65.098039%,81.960784%,16.862745%);fill-opacity:1;" d="M 21.769531 37.765625 C 21.488281 37.765625 21.222656 37.628906 21.058594 37.402344 C 19.027344 34.554688 16.667969 32.3125 14.589844 31.25 C 14.308594 31.113281 14.125 30.835938 14.109375 30.527344 C 14.09375 30.21875 14.246094 29.925781 14.511719 29.761719 C 14.777344 29.597656 15.113281 29.585938 15.386719 29.730469 C 18.679688 31.414062 21.441406 34.96875 22.476562 36.417969 C 22.664062 36.679688 22.6875 37.019531 22.539062 37.300781 C 22.390625 37.585938 22.09375 37.761719 21.769531 37.761719 Z M 21.769531 37.765625 "/>
<path style=" stroke:none;fill-rule:nonzero;fill:rgb(35.294118%,69.803922%,40.392157%);fill-opacity:1;" d="M 20.089844 55.03125 L 29.925781 55.03125 L 29.925781 58.316406 C 29.925781 59.664062 28.820312 60.757812 27.453125 60.757812 L 22.5625 60.757812 C 21.195312 60.757812 20.089844 59.664062 20.089844 58.316406 Z M 20.089844 55.03125 "/>
<path style=" stroke:none;fill-rule:nonzero;fill:rgb(100%,86.666667%,27.45098%);fill-opacity:1;" d="M 25.007812 34.664062 C 27.835938 30.699219 32.660156 25.804688 37.886719 25.808594 L 36.542969 14.25 C 36.085938 10.035156 34.1875 6.097656 31.15625 3.089844 C 29.398438 1.375 27.28125 0 25.007812 0 C 22.734375 0 20.617188 1.375 18.859375 3.089844 C 15.828125 6.097656 13.929688 10.035156 13.472656 14.25 L 12.128906 25.808594 C 17.355469 25.804688 22.179688 30.699219 25.007812 34.664062 Z M 25.007812 34.664062 "/>
<path style=" stroke:none;fill-rule:nonzero;fill:rgb(100%,74.509804%,25.098039%);fill-opacity:1;" d="M 26.617188 10.371094 L 25.441406 10.371094 C 24.703125 10.371094 23.992188 10.085938 23.460938 9.578125 C 22.929688 10.085938 22.21875 10.371094 21.480469 10.371094 L 19.285156 10.371094 C 18.804688 10.371094 18.417969 9.988281 18.417969 9.515625 C 18.417969 9.042969 18.804688 8.660156 19.285156 8.660156 L 21.480469 8.660156 C 22.09375 8.660156 22.59375 8.171875 22.59375 7.5625 L 22.59375 6.175781 C 22.59375 5.703125 22.984375 5.324219 23.460938 5.324219 C 23.9375 5.324219 24.328125 5.703125 24.328125 6.175781 L 24.328125 7.566406 C 24.328125 8.171875 24.828125 8.660156 25.441406 8.664062 L 26.617188 8.664062 C 27.09375 8.664062 27.484375 9.042969 27.484375 9.515625 C 27.484375 9.988281 27.09375 10.371094 26.617188 10.371094 Z M 26.617188 10.371094 "/>
<path style=" stroke:none;fill-rule:nonzero;fill:rgb(100%,74.509804%,25.098039%);fill-opacity:1;" d="M 32.339844 17.628906 L 30.144531 17.628906 C 29.40625 17.628906 28.695312 17.347656 28.164062 16.835938 C 27.632812 17.347656 26.921875 17.628906 26.183594 17.628906 L 25.007812 17.628906 C 24.53125 17.628906 24.140625 17.246094 24.140625 16.777344 C 24.140625 16.304688 24.53125 15.921875 25.007812 15.921875 L 26.183594 15.921875 C 26.796875 15.921875 27.296875 15.429688 27.296875 14.824219 L 27.296875 13.4375 C 27.296875 12.964844 27.683594 12.582031 28.164062 12.582031 C 28.640625 12.582031 29.03125 12.964844 29.03125 13.4375 L 29.03125 14.824219 C 29.03125 15.429688 29.527344 15.921875 30.144531 15.921875 L 32.339844 15.921875 C 32.820312 15.921875 33.207031 16.304688 33.207031 16.777344 C 33.207031 17.246094 32.820312 17.628906 32.339844 17.628906 Z M 32.339844 17.628906 "/>
<path style=" stroke:none;fill-rule:nonzero;fill:rgb(100%,74.509804%,25.098039%);fill-opacity:1;" d="M 24.730469 24.828125 L 22.53125 24.828125 C 21.792969 24.828125 21.082031 24.542969 20.550781 24.035156 C 20.023438 24.542969 19.3125 24.828125 18.574219 24.824219 L 17.398438 24.824219 C 16.917969 24.824219 16.53125 24.445312 16.53125 23.972656 C 16.53125 23.5 16.917969 23.117188 17.398438 23.117188 L 18.574219 23.117188 C 19.1875 23.117188 19.683594 22.625 19.6875 22.019531 L 19.6875 20.632812 C 19.6875 20.164062 20.074219 19.78125 20.550781 19.78125 C 21.03125 19.78125 21.417969 20.164062 21.417969 20.632812 L 21.417969 22.023438 C 21.417969 22.628906 21.917969 23.121094 22.53125 23.121094 L 24.730469 23.121094 C 25.207031 23.121094 25.597656 23.503906 25.597656 23.972656 C 25.597656 24.445312 25.207031 24.828125 24.730469 24.828125 Z M 24.730469 24.828125 "/>
<path style=" stroke:none;fill-rule:nonzero;fill:rgb(100%,74.509804%,25.098039%);fill-opacity:1;" d="M 31.816406 24.828125 L 29.152344 24.828125 C 28.675781 24.828125 28.289062 24.445312 28.289062 23.972656 C 28.289062 23.503906 28.675781 23.121094 29.152344 23.121094 L 31.816406 23.121094 C 32.292969 23.121094 32.679688 23.503906 32.679688 23.972656 C 32.679688 24.445312 32.292969 24.828125 31.816406 24.828125 Z M 31.816406 24.828125 "/>
<path style=" stroke:none;fill-rule:nonzero;fill:rgb(100%,74.509804%,25.098039%);fill-opacity:1;" d="M 20.675781 17.628906 L 17.828125 17.628906 C 17.351562 17.628906 16.964844 17.246094 16.964844 16.777344 C 16.964844 16.304688 17.351562 15.921875 17.828125 15.921875 L 20.675781 15.921875 C 21.15625 15.921875 21.542969 16.304688 21.542969 16.777344 C 21.542969 17.246094 21.15625 17.628906 20.675781 17.628906 Z M 20.675781 17.628906 "/>
</g>
</svg>
