<?xml version="1.0" encoding="UTF-8"?>
<svg xmlns="http://www.w3.org/2000/svg" xmlns:xlink="http://www.w3.org/1999/xlink" width="50" height="61" viewBox="0 0 50 61" version="1.1">
<g id="surface1">
<path style=" stroke:none;fill-rule:nonzero;fill:rgb(55.294118%,77.647059%,21.568627%);fill-opacity:1;" d="M 35.917969 1.761719 C 36.777344 0.75 38.011719 0.121094 39.347656 0.015625 C 40.679688 -0.0898438 42 0.339844 43.007812 1.207031 C 45.074219 2.980469 45.261719 6.089844 43.503906 8.164062 L 31.945312 21.785156 L 29.683594 19.910156 L 33.925781 14.90625 C 34.519531 14.203125 34.480469 13.167969 33.835938 12.503906 C 33.824219 12.496094 33.816406 12.484375 33.808594 12.476562 C 32.933594 11.546875 32.546875 10.269531 32.757812 9.019531 C 32.972656 7.769531 33.761719 6.691406 34.894531 6.097656 C 34.515625 4.574219 34.898438 2.964844 35.917969 1.761719 Z M 35.917969 1.761719 "/>
<path style=" stroke:none;fill-rule:nonzero;fill:rgb(50.980392%,71.764706%,19.607843%);fill-opacity:1;" d="M 43.507812 8.164062 L 31.945312 21.785156 L 30.113281 20.265625 L 40.898438 7.554688 C 42.65625 5.484375 42.464844 2.375 40.398438 0.601562 C 40.132812 0.371094 39.84375 0.171875 39.539062 0.00390625 C 40.808594 -0.046875 42.050781 0.382812 43.007812 1.207031 C 45.074219 2.980469 45.261719 6.09375 43.507812 8.164062 Z M 43.507812 8.164062 "/>
<path style=" stroke:none;fill-rule:nonzero;fill:rgb(60%,83.529412%,23.137255%);fill-opacity:1;" d="M 48.875 16.648438 C 49.707031 15.667969 50.105469 14.402344 49.980469 13.132812 C 49.859375 11.859375 49.222656 10.691406 48.21875 9.886719 C 46.167969 8.242188 43.148438 8.585938 41.449219 10.585938 L 28.769531 25.527344 L 30.957031 27.339844 L 36.570312 20.722656 C 37.148438 20.046875 38.152344 19.910156 38.894531 20.40625 C 38.90625 20.414062 38.917969 20.421875 38.929688 20.429688 C 39.96875 21.09375 41.261719 21.246094 42.425781 20.835938 C 43.59375 20.425781 44.5 19.5 44.878906 18.335938 C 46.410156 18.433594 47.894531 17.808594 48.875 16.648438 Z M 48.875 16.648438 "/>
<path style=" stroke:none;fill-rule:nonzero;fill:rgb(55.294118%,77.647059%,21.568627%);fill-opacity:1;" d="M 48.878906 16.648438 C 47.894531 17.808594 46.410156 18.433594 44.878906 18.335938 C 44.5 19.5 43.59375 20.425781 42.425781 20.835938 C 41.261719 21.246094 39.96875 21.09375 38.929688 20.429688 L 38.894531 20.40625 C 38.152344 19.910156 37.148438 20.046875 36.570312 20.722656 L 30.953125 27.339844 L 28.769531 25.527344 L 35.269531 17.867188 C 35.761719 17.742188 36.28125 17.832031 36.699219 18.109375 L 36.734375 18.128906 C 37.660156 18.726562 38.796875 18.914062 39.867188 18.644531 C 40.941406 18.378906 41.851562 17.683594 42.386719 16.726562 C 42.613281 16.328125 43.019531 16.066406 43.480469 16.023438 C 45.015625 15.871094 46.382812 15 47.15625 13.679688 C 47.933594 12.359375 48.019531 10.75 47.394531 9.355469 C 47.6875 9.503906 47.964844 9.683594 48.21875 9.886719 C 49.222656 10.691406 49.855469 11.859375 49.980469 13.132812 C 50.105469 14.402344 49.707031 15.667969 48.875 16.648438 Z M 48.878906 16.648438 "/>
<path style=" stroke:none;fill-rule:nonzero;fill:rgb(73.72549%,91.764706%,45.098039%);fill-opacity:1;" d="M 28.769531 25.527344 L 30.957031 27.339844 L 40.617188 15.953125 C 41.121094 15.359375 41.042969 14.46875 40.441406 13.96875 C 39.835938 13.46875 38.9375 13.546875 38.433594 14.140625 Z M 28.769531 25.527344 "/>
<path style=" stroke:none;fill-rule:nonzero;fill:rgb(50.980392%,71.764706%,19.607843%);fill-opacity:1;" d="M 44.285156 13.339844 C 43.832031 13.339844 43.441406 13.015625 43.367188 12.570312 C 43.292969 12.128906 43.550781 11.695312 43.980469 11.546875 L 44.363281 11.417969 C 44.679688 11.308594 45.027344 11.375 45.28125 11.589844 C 45.535156 11.804688 45.648438 12.136719 45.585938 12.460938 C 45.523438 12.785156 45.289062 13.050781 44.972656 13.15625 L 44.589844 13.289062 C 44.492188 13.320312 44.390625 13.339844 44.285156 13.339844 Z M 44.285156 13.339844 "/>
<path style=" stroke:none;fill-rule:nonzero;fill:rgb(63.921569%,89.411765%,25.098039%);fill-opacity:1;" d="M 40.042969 12.242188 C 40.945312 11.101562 40.789062 9.457031 39.679688 8.507812 C 38.570312 7.558594 36.902344 7.640625 35.890625 8.6875 C 35.882812 8.695312 35.878906 8.703125 35.871094 8.707031 C 35.566406 9.046875 35.070312 9.140625 34.660156 8.941406 C 32.882812 8.039062 30.710938 8.445312 29.390625 9.929688 C 28.070312 11.417969 27.945312 13.601562 29.082031 15.226562 C 28.652344 16.3125 28.972656 17.546875 29.875 18.292969 L 29.882812 18.300781 C 30.242188 18.597656 30.289062 19.125 29.988281 19.480469 L 26.476562 23.621094 L 28.773438 25.527344 Z M 40.042969 12.242188 "/>
<path style=" stroke:none;fill-rule:nonzero;fill:rgb(60%,83.529412%,23.137255%);fill-opacity:1;" d="M 33.753906 14.996094 L 30.265625 19.109375 C 30.222656 19.15625 30.179688 19.199219 30.132812 19.238281 C 30.257812 18.90625 30.15625 18.527344 29.882812 18.300781 L 29.875 18.296875 C 29.601562 18.070312 29.378906 17.792969 29.210938 17.484375 L 32.328125 13.8125 C 32.566406 13.53125 32.679688 13.171875 32.648438 12.808594 C 32.617188 12.445312 32.441406 12.109375 32.15625 11.875 C 31.769531 11.546875 31.71875 10.96875 32.046875 10.582031 C 32.378906 10.195312 32.960938 10.144531 33.355469 10.464844 C 34.730469 11.605469 34.910156 13.632812 33.753906 14.996094 Z M 33.753906 14.996094 "/>
<path style=" stroke:none;fill-rule:nonzero;fill:rgb(85.882353%,94.901961%,70.588235%);fill-opacity:1;" d="M 26.476562 23.621094 L 28.769531 25.527344 L 35.699219 17.363281 C 36.046875 16.960938 36.148438 16.402344 35.964844 15.902344 C 35.78125 15.402344 35.34375 15.035156 34.8125 14.945312 C 34.28125 14.855469 33.746094 15.050781 33.402344 15.460938 Z M 26.476562 23.621094 "/>
<path style=" stroke:none;fill-rule:nonzero;fill:rgb(98.823529%,65.098039%,18.431373%);fill-opacity:1;" d="M 0.0664062 59.226562 C -0.140625 57.238281 0.136719 55.234375 0.871094 53.371094 C 4.226562 44.867188 14.546875 20.488281 23.089844 19.175781 C 27.28125 18.535156 35.996094 25.765625 36.082031 29.957031 C 36.261719 38.566406 11.527344 55.265625 3.136719 60.675781 C 2.554688 61.054688 1.816406 61.101562 1.191406 60.804688 C 0.5625 60.507812 0.136719 59.910156 0.0664062 59.226562 Z M 0.0664062 59.226562 "/>
<path style=" stroke:none;fill-rule:nonzero;fill:rgb(98.431373%,60%,15.294118%);fill-opacity:1;" d="M 3.136719 60.675781 C 2.554688 61.054688 1.816406 61.101562 1.191406 60.804688 C 0.5625 60.507812 0.136719 59.910156 0.0664062 59.226562 C 0.0117188 58.714844 -0.0078125 58.203125 0.00390625 57.6875 C 0.140625 57.636719 0.273438 57.570312 0.398438 57.492188 C 8.785156 52.078125 33.519531 35.378906 33.339844 26.773438 C 33.320312 25.847656 32.882812 24.773438 32.164062 23.667969 C 34.378906 25.742188 36.046875 28.136719 36.082031 29.957031 C 36.261719 38.566406 11.527344 55.265625 3.136719 60.675781 Z M 3.136719 60.675781 "/>
<path style=" stroke:none;fill-rule:nonzero;fill:rgb(98.823529%,75.686275%,42.745098%);fill-opacity:1;" d="M 25.921875 28.742188 C 25.59375 29.132812 25.003906 29.183594 24.609375 28.855469 L 17.402344 22.851562 C 17.847656 22.378906 18.289062 21.945312 18.734375 21.554688 L 25.808594 27.445312 C 26.203125 27.773438 26.253906 28.351562 25.921875 28.742188 Z M 25.921875 28.742188 "/>
<path style=" stroke:none;fill-rule:nonzero;fill:rgb(98.431373%,60%,15.294118%);fill-opacity:1;" d="M 25.746094 34.398438 C 25.527344 34.398438 25.316406 34.320312 25.148438 34.183594 L 19.769531 29.71875 C 19.375 29.390625 19.324219 28.8125 19.65625 28.421875 C 19.984375 28.03125 20.574219 27.980469 20.964844 28.308594 L 26.347656 32.773438 C 26.644531 33.019531 26.757812 33.429688 26.621094 33.792969 C 26.488281 34.15625 26.140625 34.398438 25.746094 34.398438 Z M 25.746094 34.398438 "/>
<path style=" stroke:none;fill-rule:nonzero;fill:rgb(97.647059%,53.333333%,14.117647%);fill-opacity:1;" d="M 26.988281 42.921875 C 26.53125 43.335938 26.066406 43.753906 25.59375 44.167969 L 18.164062 38.03125 C 17.773438 37.703125 17.726562 37.125 18.054688 36.738281 C 18.382812 36.351562 18.964844 36.300781 19.359375 36.621094 Z M 26.988281 42.921875 "/>
<path style=" stroke:none;fill-rule:nonzero;fill:rgb(98.431373%,60%,15.294118%);fill-opacity:1;" d="M 14.804688 46.179688 C 14.476562 46.566406 13.890625 46.621094 13.496094 46.292969 L 6.472656 40.496094 C 6.746094 39.929688 7.023438 39.359375 7.308594 38.785156 L 14.691406 44.882812 C 15.085938 45.210938 15.136719 45.789062 14.804688 46.179688 Z M 14.804688 46.179688 "/>
<path style=" stroke:none;fill-rule:nonzero;fill:rgb(98.823529%,70.588235%,30.196078%);fill-opacity:1;" d="M 11.519531 49.539062 C 11.300781 49.539062 11.089844 49.464844 10.921875 49.324219 L 7.792969 46.726562 C 7.40625 46.398438 7.355469 45.824219 7.683594 45.4375 C 8.011719 45.050781 8.59375 44.996094 8.988281 45.316406 L 12.117188 47.914062 C 12.417969 48.164062 12.527344 48.570312 12.394531 48.933594 C 12.261719 49.296875 11.910156 49.539062 11.519531 49.539062 Z M 11.519531 49.539062 "/>
<path style=" stroke:none;fill-rule:nonzero;fill:rgb(97.647059%,53.333333%,14.117647%);fill-opacity:1;" d="M 19.429688 43.515625 C 19.210938 43.515625 19 43.4375 18.832031 43.296875 L 18.265625 42.828125 C 17.871094 42.5 17.820312 41.921875 18.152344 41.53125 C 18.480469 41.140625 19.070312 41.089844 19.460938 41.417969 L 20.03125 41.886719 C 20.332031 42.136719 20.441406 42.546875 20.308594 42.910156 C 20.171875 43.273438 19.824219 43.515625 19.429688 43.515625 Z M 19.429688 43.515625 "/>
<path style=" stroke:none;fill-rule:nonzero;fill:rgb(97.647059%,53.333333%,14.117647%);fill-opacity:1;" d="M 29.011719 32.226562 C 28.792969 32.226562 28.578125 32.148438 28.414062 32.011719 L 27.84375 31.539062 C 27.449219 31.210938 27.398438 30.632812 27.730469 30.242188 C 28.058594 29.851562 28.648438 29.800781 29.042969 30.128906 L 29.609375 30.601562 C 29.910156 30.847656 30.019531 31.257812 29.886719 31.621094 C 29.75 31.984375 29.402344 32.226562 29.011719 32.226562 Z M 29.011719 32.226562 "/>
</g>
</svg>
