<svg height="512" viewBox="0 0 64 64" width="512" xmlns="http://www.w3.org/2000/svg"><g id="flat"><path d="m49 14a13.565 13.565 0 0 0 -5 0c-2.589-1.4-9.444-4.627-16-2a13.562 13.562 0 0 0 -2 1c-.566-.27-5.934-2.735-10 0a7.492 7.492 0 0 0 -2 2c-7.693 3.166-9.525 7.591-10 9-.778 2.308-.843 5.259-1 10-.058 1.742-.053 3.411 0 5v1c0 4.971 4.029 10 9 10a9.1 9.1 0 0 0 .924-.047 8.992 8.992 0 0 0 8.076 5.047h3c1.544 2.734 4.636 4 8 4a8.431 8.431 0 0 0 7-3 8.986 8.986 0 0 0 5 1 9.25 9.25 0 0 0 9-7.039c4.6-.4 8-4.961 8-10.961 0-6 2.7-22.819-12-25z" fill="#e97424"/><path d="m37.178 20.733-1.412-1.948a27.627 27.627 0 0 1 2.586-2.547 18.779 18.779 0 0 1 4.332-2.761.994.994 0 0 1 1.327.55 1.008 1.008 0 0 1 -.534 1.286 16.85 16.85 0 0 0 -3.829 2.448 35.505 35.505 0 0 0 -2.47 2.972z" fill="#e1462b"/><path d="m34 21a15.542 15.542 0 0 1 2 2 11.735 11.735 0 0 1 2.824-2.115 5.793 5.793 0 0 1 -2.824-2.885c-1.358-3.482 2.127-7.721 4-10l.034-.041c.975-1.181-.502-2.959-2.034-2.959h-3c-2.658 0-6.258 5.872-6 12a9.8 9.8 0 0 1 -1 3 6.693 6.693 0 0 1 6 1z" fill="#8ec13f"/><g fill="#f9bb4b"><path d="m52 34.076-2-.152c.058-.753.2-4.636-2.666-7.175a7.89 7.89 0 0 0 -3.551-1.772l.428-1.954a9.9 9.9 0 0 1 4.449 2.228c3.575 3.166 3.407 7.907 3.34 8.825z"/><path d="m50 36h2v2h-2z"/><path d="m28 48h2v2h-2z"/><path d="m25 43h2v2h-2z"/></g><path d="m13.024 49.987a.994.994 0 0 1 -1.365-.439 19.952 19.952 0 0 1 -1.647-5.4 20.71 20.71 0 0 1 1.648-11.657 1 1 0 0 1 1.364-.479.99.99 0 0 1 .465 1.287 18.736 18.736 0 0 0 -1.5 10.548 17.993 17.993 0 0 0 1.464 4.814 1.007 1.007 0 0 1 -.428 1.326z" fill="#e1462b"/><path d="m55.979 29.792c-.868-4.085-2.29-6.888-4.346-8.566-4.654-3.8-10.278-2.365-10.9-2.188a12.193 12.193 0 0 0 -4.654 2.552 12.433 12.433 0 0 0 -1.486-1.4 7.594 7.594 0 0 0 -6.768-1.176 9.11 9.11 0 0 0 -2.389.789c-1.257-1.905-3.962-5.1-8.274-5.792a10.414 10.414 0 0 0 -2.2-.116 1.011 1.011 0 0 0 -.95 1.158.99.99 0 0 0 1.028.841 8.487 8.487 0 0 1 1.806.091 9.814 9.814 0 0 1 5.705 3.335 17.744 17.744 0 0 0 -3.56-.32 18.942 18.942 0 0 0 -8.476 2.125c-6.318 3.5-7.977 10.891-8.39 13.741a1 1 0 0 0 .912 1.134.993.993 0 0 0 1.063-.844c.36-2.539 1.819-9.2 7.382-12.281a17.15 17.15 0 0 1 7.527-1.875 15.937 15.937 0 0 1 4.057.475 10.4 10.4 0 0 0 -.837.888 10.9 10.9 0 0 0 -2.219 5.5 63.822 63.822 0 0 0 2.727 26.484 1.009 1.009 0 0 0 1.276.653 1 1 0 0 0 .629-1.255 61.724 61.724 0 0 1 -2.652-25.6 9.008 9.008 0 0 1 1.781-4.5 7.4 7.4 0 0 1 4.408-2.653c.035-.006.155-.038.189-.048a5.679 5.679 0 0 1 5.043.873 14.577 14.577 0 0 1 1.825 1.837 19.631 19.631 0 0 1 3.786 8.566 43.2 43.2 0 0 1 .978 9.769 53.607 53.607 0 0 1 -1.71 12.8.992.992 0 0 0 .692 1.211 1.009 1.009 0 0 0 1.244-.713 55.575 55.575 0 0 0 1.774-13.276 45.288 45.288 0 0 0 -1.022-10.224 22.5 22.5 0 0 0 -3.635-8.676 10.2 10.2 0 0 1 3.928-2.149 10.549 10.549 0 0 1 9.1 1.813c1.666 1.36 2.9 3.861 3.653 7.433a34.05 34.05 0 0 1 -1.611 18.51 1 1 0 0 0 .573 1.276 1.007 1.007 0 0 0 1.306-.591 36.06 36.06 0 0 0 1.687-19.611z" fill="#e1462b"/></g></svg>