<?xml version="1.0" encoding="UTF-8"?>
<svg xmlns="http://www.w3.org/2000/svg" xmlns:xlink="http://www.w3.org/1999/xlink" width="50" height="50" viewBox="0 0 50 50" version="1.1">
<defs>
<linearGradient id="linear0" gradientUnits="userSpaceOnUse" x1="3.333" y1="68.882" x2="112.131" y2="68.882" gradientTransform="matrix(0.0980392,0,0,0.0980392,0,0)">
<stop offset="0" style="stop-color:rgb(91.764706%,96.470588%,100%);stop-opacity:1;"/>
<stop offset="0.5213" style="stop-color:rgb(84.705882%,92.54902%,99.607843%);stop-opacity:1;"/>
<stop offset="1" style="stop-color:rgb(70.196078%,85.490196%,99.607843%);stop-opacity:1;"/>
</linearGradient>
<linearGradient id="linear1" gradientUnits="userSpaceOnUse" x1="-18.667" y1="72.419" x2="88.019" y2="72.419" gradientTransform="matrix(0.0980392,0,0,0.0980392,0,0)">
<stop offset="0" style="stop-color:rgb(91.764706%,96.470588%,100%);stop-opacity:1;"/>
<stop offset="0.5213" style="stop-color:rgb(84.705882%,92.54902%,99.607843%);stop-opacity:1;"/>
<stop offset="1" style="stop-color:rgb(70.196078%,85.490196%,99.607843%);stop-opacity:1;"/>
</linearGradient>
<linearGradient id="linear2" gradientUnits="userSpaceOnUse" x1="-8.26" y1="255" x2="508.137" y2="255" gradientTransform="matrix(0.0980392,0,0,0.0980392,0,0)">
<stop offset="0" style="stop-color:rgb(99.607843%,94.117647%,33.72549%);stop-opacity:1;"/>
<stop offset="0.5213" style="stop-color:rgb(95.686275%,85.098039%,0.784314%);stop-opacity:1;"/>
<stop offset="1" style="stop-color:rgb(99.607843%,59.215686%,21.960784%);stop-opacity:1;"/>
</linearGradient>
<linearGradient id="linear3" gradientUnits="userSpaceOnUse" x1="-109" y1="457.007" x2="597.375" y2="457.007" gradientTransform="matrix(0.0980392,0,0,0.0980392,0,0)">
<stop offset="0" style="stop-color:rgb(98.431373%,77.254902%,42.745098%);stop-opacity:1;"/>
<stop offset="0.5841" style="stop-color:rgb(99.607843%,59.215686%,21.960784%);stop-opacity:1;"/>
<stop offset="0.9984" style="stop-color:rgb(98.431373%,16.862745%,22.745098%);stop-opacity:1;"/>
</linearGradient>
<linearGradient id="linear4" gradientUnits="userSpaceOnUse" x1="-109" y1="52.418" x2="597.375" y2="52.418" gradientTransform="matrix(0.0980392,0,0,0.0980392,0,0)">
<stop offset="0" style="stop-color:rgb(98.431373%,77.254902%,42.745098%);stop-opacity:1;"/>
<stop offset="0.5841" style="stop-color:rgb(99.607843%,59.215686%,21.960784%);stop-opacity:1;"/>
<stop offset="0.9984" style="stop-color:rgb(98.431373%,16.862745%,22.745098%);stop-opacity:1;"/>
</linearGradient>
<linearGradient id="linear5" gradientUnits="userSpaceOnUse" x1="-109" y1="168.034" x2="597.375" y2="168.034" gradientTransform="matrix(0.0980392,0,0,0.0980392,0,0)">
<stop offset="0" style="stop-color:rgb(98.431373%,77.254902%,42.745098%);stop-opacity:1;"/>
<stop offset="0.5841" style="stop-color:rgb(99.607843%,59.215686%,21.960784%);stop-opacity:1;"/>
<stop offset="0.9984" style="stop-color:rgb(98.431373%,16.862745%,22.745098%);stop-opacity:1;"/>
</linearGradient>
<linearGradient id="linear6" gradientUnits="userSpaceOnUse" x1="-111.838" y1="255" x2="468.681" y2="255" gradientTransform="matrix(0.0980392,0,0,0.0980392,0,0)">
<stop offset="0" style="stop-color:rgb(99.607843%,94.117647%,33.72549%);stop-opacity:1;"/>
<stop offset="0.5213" style="stop-color:rgb(95.686275%,85.098039%,0.784314%);stop-opacity:1;"/>
<stop offset="1" style="stop-color:rgb(99.607843%,59.215686%,21.960784%);stop-opacity:1;"/>
</linearGradient>
<linearGradient id="linear7" gradientUnits="userSpaceOnUse" x1="-109" y1="384.44" x2="597.375" y2="384.44" gradientTransform="matrix(0.0980392,0,0,0.0980392,0,0)">
<stop offset="0" style="stop-color:rgb(98.431373%,77.254902%,42.745098%);stop-opacity:1;"/>
<stop offset="0.5841" style="stop-color:rgb(99.607843%,59.215686%,21.960784%);stop-opacity:1;"/>
<stop offset="0.9984" style="stop-color:rgb(98.431373%,16.862745%,22.745098%);stop-opacity:1;"/>
</linearGradient>
<linearGradient id="linear8" gradientUnits="userSpaceOnUse" x1="-19.5" y1="401.426" x2="220.857" y2="401.426" gradientTransform="matrix(0.0980392,0,0,0.0980392,0,0)">
<stop offset="0" style="stop-color:rgb(99.215686%,50.196078%,52.941176%);stop-opacity:1;"/>
<stop offset="0.5213" style="stop-color:rgb(98.431373%,16.862745%,22.745098%);stop-opacity:1;"/>
<stop offset="1" style="stop-color:rgb(85.098039%,5.098039%,50.196078%);stop-opacity:1;"/>
</linearGradient>
<linearGradient id="linear9" gradientUnits="userSpaceOnUse" x1="-42.682" y1="457.007" x2="428.405" y2="457.007" gradientTransform="matrix(0.0980392,0,0,0.0980392,0,0)">
<stop offset="0" style="stop-color:rgb(98.431373%,77.254902%,42.745098%);stop-opacity:1;"/>
<stop offset="0.5841" style="stop-color:rgb(99.607843%,59.215686%,21.960784%);stop-opacity:1;"/>
<stop offset="0.9984" style="stop-color:rgb(98.431373%,16.862745%,22.745098%);stop-opacity:1;"/>
</linearGradient>
<linearGradient id="linear10" gradientUnits="userSpaceOnUse" x1="-109" y1="261.827" x2="597.375" y2="261.827" gradientTransform="matrix(0.0980392,0,0,0.0980392,0,0)">
<stop offset="0" style="stop-color:rgb(98.431373%,77.254902%,42.745098%);stop-opacity:1;"/>
<stop offset="0.5841" style="stop-color:rgb(99.607843%,59.215686%,21.960784%);stop-opacity:1;"/>
<stop offset="0.9984" style="stop-color:rgb(98.431373%,16.862745%,22.745098%);stop-opacity:1;"/>
</linearGradient>
<linearGradient id="linear11" gradientUnits="userSpaceOnUse" x1="-127" y1="168.034" x2="487.359" y2="168.034" gradientTransform="matrix(0.0980392,0,0,0.0980392,0,0)">
<stop offset="0" style="stop-color:rgb(98.431373%,77.254902%,42.745098%);stop-opacity:1;"/>
<stop offset="0.5841" style="stop-color:rgb(99.607843%,59.215686%,21.960784%);stop-opacity:1;"/>
<stop offset="0.9984" style="stop-color:rgb(98.431373%,16.862745%,22.745098%);stop-opacity:1;"/>
</linearGradient>
<linearGradient id="linear12" gradientUnits="userSpaceOnUse" x1="-6" y1="48.776" x2="428.005" y2="48.776" gradientTransform="matrix(0.0980392,0,0,0.0980392,0,0)">
<stop offset="0" style="stop-color:rgb(98.431373%,77.254902%,42.745098%);stop-opacity:1;"/>
<stop offset="0.5841" style="stop-color:rgb(99.607843%,59.215686%,21.960784%);stop-opacity:1;"/>
<stop offset="0.9984" style="stop-color:rgb(98.431373%,16.862745%,22.745098%);stop-opacity:1;"/>
</linearGradient>
<linearGradient id="linear13" gradientUnits="userSpaceOnUse" x1="370.554" y1="440.277" x2="510" y2="440.277" gradientTransform="matrix(0.0980392,0,0,0.0980392,0,0)">
<stop offset="0" style="stop-color:rgb(91.764706%,96.470588%,100%);stop-opacity:1;"/>
<stop offset="0.5213" style="stop-color:rgb(84.705882%,92.54902%,99.607843%);stop-opacity:1;"/>
<stop offset="1" style="stop-color:rgb(70.196078%,85.490196%,99.607843%);stop-opacity:1;"/>
</linearGradient>
<linearGradient id="linear14" gradientUnits="userSpaceOnUse" x1="322" y1="440.277" x2="466.087" y2="440.277" gradientTransform="matrix(0.0980392,0,0,0.0980392,0,0)">
<stop offset="0" style="stop-color:rgb(91.764706%,96.470588%,100%);stop-opacity:1;"/>
<stop offset="0.5213" style="stop-color:rgb(84.705882%,92.54902%,99.607843%);stop-opacity:1;"/>
<stop offset="1" style="stop-color:rgb(70.196078%,85.490196%,99.607843%);stop-opacity:1;"/>
</linearGradient>
<linearGradient id="linear15" gradientUnits="userSpaceOnUse" x1="322" y1="438.75" x2="466.087" y2="438.75" gradientTransform="matrix(0.0980392,0,0,0.0980392,0,0)">
<stop offset="0" style="stop-color:rgb(91.764706%,96.470588%,100%);stop-opacity:1;"/>
<stop offset="0.5213" style="stop-color:rgb(84.705882%,92.54902%,99.607843%);stop-opacity:1;"/>
<stop offset="1" style="stop-color:rgb(70.196078%,85.490196%,99.607843%);stop-opacity:1;"/>
</linearGradient>
<linearGradient id="linear16" gradientUnits="userSpaceOnUse" x1="322" y1="409.25" x2="466.087" y2="409.25" gradientTransform="matrix(0.0980392,0,0,0.0980392,0,0)">
<stop offset="0" style="stop-color:rgb(91.764706%,96.470588%,100%);stop-opacity:1;"/>
<stop offset="0.5213" style="stop-color:rgb(84.705882%,92.54902%,99.607843%);stop-opacity:1;"/>
<stop offset="1" style="stop-color:rgb(70.196078%,85.490196%,99.607843%);stop-opacity:1;"/>
</linearGradient>
</defs>
<g id="surface1">
<path style=" stroke:none;fill-rule:nonzero;fill:url(#linear0);" d="M 11.230469 6.753906 C 11.230469 9.464844 9.035156 11.660156 6.324219 11.660156 C 3.613281 11.660156 1.414062 9.464844 1.414062 6.753906 C 1.414062 4.042969 3.613281 1.84375 6.324219 1.84375 C 9.035156 1.84375 11.230469 4.042969 11.230469 6.753906 Z M 11.230469 6.753906 "/>
<path style=" stroke:none;fill-rule:nonzero;fill:url(#linear1);" d="M 2.117188 9.28125 C 3.949219 6.664062 6.226562 4.378906 8.839844 2.539062 C 10.273438 3.394531 11.230469 4.960938 11.230469 6.753906 C 11.230469 9.464844 9.035156 11.660156 6.324219 11.660156 C 4.539062 11.660156 2.972656 10.707031 2.117188 9.28125 Z M 2.117188 9.28125 "/>
<path style=" stroke:none;fill-rule:nonzero;fill:url(#linear2);" d="M 50 25 C 50 38.808594 38.808594 50 25 50 C 11.191406 50 0 38.808594 0 25 C 0 11.191406 11.191406 0 25 0 C 38.808594 0 50 11.191406 50 25 Z M 50 25 "/>
<path style=" stroke:none;fill-rule:nonzero;fill:url(#linear3);" d="M 4.710938 39.609375 C 9.253906 45.902344 16.648438 50 25 50 C 33.351562 50 40.746094 45.902344 45.289062 39.609375 C 40.253906 41.332031 33.027344 42.410156 25 42.410156 C 16.972656 42.410156 9.746094 41.332031 4.710938 39.609375 Z M 4.710938 39.609375 "/>
<path style=" stroke:none;fill-rule:nonzero;fill:url(#linear4);" d="M 43.390625 8.066406 C 38.820312 3.105469 32.273438 0 25 0 C 17.726562 0 11.179688 3.105469 6.609375 8.066406 C 11.488281 9.441406 17.933594 10.277344 25 10.277344 C 32.066406 10.277344 38.511719 9.441406 43.390625 8.066406 Z M 43.390625 8.066406 "/>
<path style=" stroke:none;fill-rule:nonzero;fill:url(#linear5);" d="M 25 18.210938 C 25 19.453125 26.023438 20.445312 27.265625 20.414062 C 33.992188 20.246094 40.269531 19.335938 45.136719 17.808594 C 46.246094 17.457031 47.410156 17.035156 48.527344 16.527344 C 48.023438 15.132812 47.402344 13.796875 46.671875 12.53125 C 45.886719 12.882812 44.945312 13.242188 43.816406 13.597656 C 39.324219 15.007812 33.472656 15.851562 27.148438 16.003906 C 25.953125 16.035156 25 17.015625 25 18.210938 Z M 25 18.210938 "/>
<path style=" stroke:none;fill-rule:nonzero;fill:url(#linear6);" d="M 25 0 C 24.339844 0 23.6875 0.0273438 23.039062 0.078125 C 25.777344 0.289062 28.394531 0.941406 30.816406 1.96875 C 39.152344 5.5 36.820312 17.910156 27.769531 18.195312 C 26.859375 18.222656 25.933594 18.238281 25 18.238281 C 15.585938 18.238281 7.28125 16.753906 2.3125 14.488281 C 0.828125 17.683594 0 21.246094 0 25 C 0 26.496094 0.132812 27.964844 0.382812 29.386719 C 4.914062 32.214844 14.234375 34.15625 25 34.15625 C 30.609375 34.15625 35.824219 33.628906 40.175781 32.726562 C 42.457031 32.25 44.269531 34.636719 43.175781 36.695312 C 43.164062 36.722656 43.148438 36.75 43.132812 36.773438 C 42.765625 37.464844 42.128906 37.96875 41.367188 38.15625 C 36.734375 39.292969 31.03125 39.910156 25 39.910156 C 17.859375 39.910156 11.179688 39.046875 6.183594 37.476562 C 4.667969 37 3.484375 36.515625 2.570312 36.050781 C 3.703125 38.347656 5.179688 40.445312 6.929688 42.277344 C 12.035156 43.601562 18.355469 44.324219 25 44.324219 C 25.046875 44.324219 25.09375 44.324219 25.136719 44.324219 C 28.363281 44.316406 28.820312 48.996094 25.648438 49.582031 C 24.792969 49.742188 23.921875 49.855469 23.039062 49.921875 C 23.6875 49.972656 24.339844 50 25 50 C 38.808594 50 50 38.808594 50 25 C 50 11.191406 38.808594 0 25 0 Z M 25 0 "/>
<path style=" stroke:none;fill-rule:nonzero;fill:url(#linear7);" d="M 17.972656 39.636719 C 17.972656 38.515625 17.128906 37.570312 16.011719 37.449219 C 12.347656 37.039062 8.996094 36.378906 6.183594 35.496094 C 3.960938 34.796875 2.457031 34.078125 1.460938 33.441406 C 2.265625 35.683594 3.382812 37.777344 4.757812 39.671875 C 7.851562 40.652344 11.519531 41.480469 15.515625 41.925781 C 16.824219 42.074219 17.972656 40.957031 17.972656 39.636719 Z M 17.972656 39.636719 "/>
<path style=" stroke:none;fill-rule:nonzero;fill:url(#linear8);" d="M 15.902344 38.421875 C 14.335938 38.246094 12.84375 38.03125 11.425781 37.773438 C 10.65625 37.632812 9.949219 38.226562 9.949219 39.003906 C 9.949219 39.601562 10.371094 40.121094 10.960938 40.234375 C 12.5 40.535156 14.066406 40.777344 15.625 40.953125 C 15.664062 40.957031 15.707031 40.960938 15.746094 40.960938 C 16.0625 40.960938 16.367188 40.824219 16.609375 40.574219 C 16.851562 40.320312 16.992188 39.980469 16.992188 39.636719 C 16.992188 39.015625 16.523438 38.492188 15.902344 38.421875 Z M 15.902344 38.421875 "/>
<path style=" stroke:none;fill-rule:nonzero;fill:url(#linear9);" d="M 45.289062 39.609375 C 40.253906 41.332031 33.027344 42.410156 25 42.410156 C 16.972656 42.410156 9.746094 41.332031 4.714844 39.609375 C 5.390625 40.550781 6.132812 41.441406 6.929688 42.277344 C 12.035156 43.601562 18.355469 44.324219 25 44.324219 C 25.046875 44.324219 25.09375 44.324219 25.136719 44.324219 C 28.363281 44.316406 28.820312 48.996094 25.648438 49.582031 C 24.792969 49.742188 23.921875 49.855469 23.039062 49.921875 C 23.6875 49.972656 24.339844 50 25 50 C 33.351562 50 40.746094 45.902344 45.289062 39.609375 Z M 45.289062 39.609375 "/>
<path style=" stroke:none;fill-rule:nonzero;fill:url(#linear10);" d="M 49.96875 23.769531 C 49.890625 22.125 49.652344 20.523438 49.269531 18.980469 C 48.335938 19.734375 46.671875 20.660156 43.816406 21.558594 C 38.820312 23.128906 32.140625 23.992188 25 23.992188 C 17.859375 23.992188 11.179688 23.128906 6.183594 21.558594 C 3.328125 20.660156 1.664062 19.734375 0.730469 18.980469 C 0.347656 20.523438 0.113281 22.125 0.03125 23.769531 C 1.558594 24.609375 3.265625 25.265625 4.863281 25.765625 C 8.039062 26.765625 11.8125 27.5 15.921875 27.933594 C 17.015625 28.050781 17.84375 28.976562 17.84375 30.078125 C 17.84375 31.222656 18.738281 32.167969 19.878906 32.226562 C 21.558594 32.3125 23.269531 32.359375 25 32.359375 C 33.417969 32.359375 41.363281 31.316406 47.375 29.429688 C 48.152344 29.1875 48.949219 28.90625 49.742188 28.597656 C 49.910156 27.421875 50 26.222656 50 25 C 50 24.585938 49.988281 24.175781 49.96875 23.769531 Z M 49.96875 23.769531 "/>
<path style=" stroke:none;fill-rule:nonzero;fill:url(#linear11);" d="M 43.816406 13.597656 C 40.925781 14.507812 37.46875 15.179688 33.6875 15.582031 C 32.292969 17.09375 30.292969 18.113281 27.769531 18.195312 C 26.859375 18.222656 25.933594 18.238281 25 18.238281 C 25.015625 19.464844 26.035156 20.445312 27.265625 20.414062 C 33.992188 20.246094 40.269531 19.335938 45.136719 17.808594 C 46.246094 17.457031 47.410156 17.035156 48.527344 16.527344 C 48.023438 15.136719 47.402344 13.796875 46.671875 12.53125 C 45.886719 12.882812 44.945312 13.242188 43.816406 13.597656 Z M 43.816406 13.597656 "/>
<path style=" stroke:none;fill-rule:nonzero;fill:url(#linear12);" d="M 23.039062 0.078125 C 25.78125 0.289062 28.394531 0.945312 30.816406 1.96875 C 34.320312 3.453125 35.9375 6.503906 35.964844 9.5625 C 38.699219 9.191406 41.203125 8.683594 43.390625 8.066406 C 38.820312 3.105469 32.273438 0 25 0 C 24.339844 0 23.6875 0.0273438 23.039062 0.078125 Z M 23.039062 0.078125 "/>
<path style=" stroke:none;fill-rule:nonzero;fill:url(#linear13);" d="M 50 43.164062 C 50 46.941406 46.941406 50 43.164062 50 C 39.390625 50 36.328125 46.941406 36.328125 43.164062 C 36.328125 39.390625 39.390625 36.328125 43.164062 36.328125 C 46.941406 36.328125 50 39.390625 50 43.164062 Z M 50 43.164062 "/>
<path style=" stroke:none;fill-rule:nonzero;fill:url(#linear14);" d="M 43.164062 36.328125 C 42.746094 36.328125 42.335938 36.367188 41.9375 36.441406 C 45.128906 37.019531 47.546875 39.808594 47.546875 43.164062 C 47.546875 44.257812 47.289062 45.289062 46.832031 46.207031 C 46.601562 45.164062 45.644531 44.398438 44.519531 44.464844 C 43.425781 44.53125 42.523438 45.410156 42.433594 46.5 C 42.386719 47.074219 42.558594 47.609375 42.871094 48.027344 C 43.371094 48.691406 43.019531 49.652344 42.207031 49.832031 C 42.121094 49.851562 42.027344 49.871094 41.9375 49.886719 C 42.335938 49.960938 42.746094 50 43.164062 50 C 46.941406 50 50 46.941406 50 43.164062 C 50 39.390625 46.941406 36.328125 43.164062 36.328125 Z M 43.164062 36.328125 "/>
<path style=" stroke:none;fill-rule:nonzero;fill:url(#linear15);" d="M 41.152344 43.015625 C 41.152344 43.8125 40.507812 44.460938 39.707031 44.460938 C 38.910156 44.460938 38.261719 43.8125 38.261719 43.015625 C 38.261719 42.214844 38.910156 41.570312 39.707031 41.570312 C 40.507812 41.570312 41.152344 42.214844 41.152344 43.015625 Z M 41.152344 43.015625 "/>
<path style=" stroke:none;fill-rule:nonzero;fill:url(#linear16);" d="M 45.558594 40.121094 C 45.558594 40.921875 44.910156 41.570312 44.113281 41.570312 C 43.3125 41.570312 42.667969 40.921875 42.667969 40.121094 C 42.667969 39.324219 43.3125 38.675781 44.113281 38.675781 C 44.910156 38.675781 45.558594 39.324219 45.558594 40.121094 Z M 45.558594 40.121094 "/>
</g>
</svg>
