<?xml version="1.0" encoding="UTF-8"?>
<svg xmlns="http://www.w3.org/2000/svg" xmlns:xlink="http://www.w3.org/1999/xlink" width="50" height="50" viewBox="0 0 50 50" version="1.1">
<g id="surface1">
<path style=" stroke:none;fill-rule:nonzero;fill:rgb(100%,30.980392%,9.803922%);fill-opacity:1;" d="M 2.578125 36.066406 C 2.511719 35.929688 2.445312 35.796875 2.382812 35.660156 C 2.445312 35.796875 2.511719 35.929688 2.578125 36.066406 Z M 2.578125 36.066406 "/>
<path style=" stroke:none;fill-rule:nonzero;fill:rgb(100%,30.980392%,9.803922%);fill-opacity:1;" d="M 2.324219 35.539062 C 2.265625 35.40625 2.203125 35.277344 2.144531 35.144531 C 2.203125 35.277344 2.265625 35.40625 2.324219 35.539062 Z M 2.324219 35.539062 "/>
<path style=" stroke:none;fill-rule:nonzero;fill:rgb(100%,30.980392%,9.803922%);fill-opacity:1;" d="M 2.085938 35.011719 C 2.03125 34.878906 1.972656 34.75 1.917969 34.617188 C 1.972656 34.75 2.03125 34.878906 2.085938 35.011719 Z M 2.085938 35.011719 "/>
<path style=" stroke:none;fill-rule:nonzero;fill:rgb(100%,30.980392%,9.803922%);fill-opacity:1;" d="M 1.859375 34.476562 C 1.808594 34.34375 1.753906 34.214844 1.699219 34.082031 C 1.753906 34.214844 1.808594 34.34375 1.859375 34.476562 Z M 1.859375 34.476562 "/>
<path style=" stroke:none;fill-rule:nonzero;fill:rgb(100%,30.980392%,9.803922%);fill-opacity:1;" d="M 31.621094 0.886719 C 35.636719 1.992188 39.25 4.070312 42.1875 6.855469 C 41.195312 6.734375 40.191406 6.667969 39.167969 6.667969 C 26.222656 6.667969 15.574219 16.503906 14.296875 29.113281 C 14.296875 29.117188 14.296875 29.117188 14.292969 29.121094 C 14.292969 29.125 14.292969 29.125 14.292969 29.125 C 17.59375 29.699219 21.277344 30 25 30 C 29.359375 30 33.625 29.589844 37.328125 28.816406 C 38.792969 28.511719 40.164062 28.152344 41.40625 27.742188 C 41.84375 27.597656 42.316406 27.835938 42.457031 28.273438 C 42.601562 28.710938 42.363281 29.183594 41.925781 29.324219 C 41.117188 29.59375 40.25 29.835938 39.347656 30.0625 C 39.339844 30.070312 39.332031 30.082031 39.320312 30.089844 L 37.691406 31.3125 L 39.386719 31.78125 C 39.753906 31.882812 40.003906 32.214844 40 32.59375 C 39.996094 32.972656 39.738281 33.300781 39.367188 33.394531 C 35.164062 34.445312 30.195312 35 25 35 C 24.632812 35 24.308594 34.761719 24.203125 34.410156 C 24.097656 34.058594 24.234375 33.675781 24.539062 33.472656 C 24.804688 33.296875 24.796875 33.03125 24.777344 32.925781 C 24.761719 32.820312 24.691406 32.5625 24.382812 32.476562 L 19.820312 31.46875 C 19.8125 31.464844 19.808594 31.460938 19.800781 31.460938 C 17.859375 31.3125 15.96875 31.097656 14.183594 30.796875 C 14.171875 31.085938 14.167969 31.375 14.167969 31.667969 C 14.167969 37.3125 16.042969 42.519531 19.199219 46.703125 C 21.136719 45.820312 23.125 44.925781 25.035156 45 C 28.039062 45.132812 29.570312 44.285156 29.585938 44.277344 C 29.984375 44.054688 30.492188 44.191406 30.71875 44.585938 C 30.949219 44.984375 30.816406 45.488281 30.421875 45.71875 C 30.34375 45.765625 28.511719 46.816406 24.964844 46.664062 C 23.566406 46.59375 21.914062 47.300781 20.285156 48.039062 C 20.820312 48.65625 21.386719 49.25 21.980469 49.8125 C 20.640625 49.648438 19.332031 49.382812 18.066406 49.019531 C 18.0625 49.015625 18.058594 49.015625 18.054688 49.015625 C 17.847656 48.953125 17.640625 48.890625 17.433594 48.824219 C 17.304688 48.785156 17.175781 48.742188 17.046875 48.699219 C 17 48.683594 16.949219 48.667969 16.898438 48.652344 C 16.339844 48.460938 15.785156 48.253906 15.246094 48.023438 C 15.25 48.023438 15.257812 48.023438 15.265625 48.023438 C 10.109375 45.84375 5.839844 41.984375 3.140625 37.132812 C 7.40625 44.808594 15.597656 50 25 50 C 38.808594 50 50 38.808594 50 25 C 50 13.484375 42.214844 3.789062 31.621094 0.886719 Z M 28.332031 24.167969 C 28.304688 24.167969 28.261719 24.164062 28.226562 24.164062 C 27.035156 24.164062 26.304688 24.539062 25.457031 24.972656 C 24.558594 25.429688 23.5625 25.9375 22.03125 25.9375 C 21.625 25.9375 21.183594 25.902344 20.695312 25.820312 C 20.242188 25.746094 19.9375 25.316406 20.011719 24.863281 C 20.085938 24.410156 20.515625 24.097656 20.96875 24.179688 C 22.761719 24.476562 23.660156 24.019531 24.699219 23.488281 C 25.628906 23.011719 26.652344 22.453125 28.347656 22.5 C 28.808594 22.507812 29.175781 22.886719 29.167969 23.347656 C 29.160156 23.800781 28.789062 24.167969 28.332031 24.167969 Z M 34.820312 23.015625 C 34.074219 23.96875 32.25 24.136719 31.710938 24.164062 C 31.695312 24.167969 31.679688 24.167969 31.664062 24.167969 C 31.226562 24.167969 30.859375 23.824219 30.835938 23.378906 C 30.808594 22.917969 31.160156 22.527344 31.621094 22.5 C 32.417969 22.457031 33.339844 22.207031 33.511719 21.984375 C 33.796875 21.625 34.320312 21.558594 34.683594 21.84375 C 35.042969 22.128906 35.105469 22.652344 34.820312 23.015625 Z M 21.425781 34.75 C 21.265625 34.90625 21.050781 35 20.832031 35 C 20.617188 35 20.398438 34.90625 20.242188 34.757812 C 20.089844 34.597656 20 34.382812 20 34.167969 C 20 33.949219 20.089844 33.734375 20.242188 33.574219 C 20.550781 33.265625 21.109375 33.265625 21.425781 33.574219 C 21.582031 33.734375 21.667969 33.949219 21.667969 34.167969 C 21.667969 34.382812 21.582031 34.597656 21.425781 34.75 Z M 32.257812 38.917969 C 32.097656 39.074219 31.882812 39.167969 31.667969 39.167969 C 31.449219 39.167969 31.234375 39.074219 31.074219 38.925781 C 30.925781 38.765625 30.832031 38.550781 30.832031 38.332031 C 30.832031 38.117188 30.925781 37.898438 31.074219 37.742188 C 31.382812 37.433594 31.941406 37.433594 32.257812 37.742188 C 32.417969 37.898438 32.5 38.117188 32.5 38.332031 C 32.5 38.550781 32.417969 38.765625 32.257812 38.917969 Z M 38.925781 20.574219 C 38.765625 20.730469 38.550781 20.824219 38.332031 20.824219 C 38.117188 20.824219 37.898438 20.730469 37.742188 20.582031 C 37.589844 20.421875 37.5 20.207031 37.5 19.988281 C 37.5 19.773438 37.589844 19.554688 37.742188 19.398438 C 38.050781 19.089844 38.609375 19.089844 38.925781 19.398438 C 39.082031 19.554688 39.167969 19.773438 39.167969 19.988281 C 39.167969 20.207031 39.082031 20.421875 38.925781 20.574219 Z M 42.257812 23.917969 C 42.097656 24.074219 41.882812 24.167969 41.667969 24.167969 C 41.449219 24.167969 41.234375 24.074219 41.074219 23.925781 C 40.925781 23.765625 40.832031 23.550781 40.832031 23.332031 C 40.832031 23.117188 40.925781 22.898438 41.074219 22.742188 C 41.382812 22.433594 41.941406 22.433594 42.257812 22.742188 C 42.417969 22.898438 42.5 23.117188 42.5 23.332031 C 42.5 23.550781 42.417969 23.765625 42.257812 23.917969 Z M 38.519531 13.597656 C 38.457031 13.613281 38.394531 13.617188 38.332031 13.617188 C 37.953125 13.617188 37.609375 13.355469 37.519531 12.96875 C 37.417969 12.523438 37.699219 12.074219 38.148438 11.972656 C 40.730469 11.382812 42.972656 10.652344 44.855469 9.816406 C 45.199219 10.265625 45.53125 10.726562 45.84375 11.203125 C 43.804688 12.144531 41.347656 12.949219 38.519531 13.597656 Z M 38.519531 13.597656 "/>
<path style=" stroke:none;fill-rule:nonzero;fill:rgb(100%,30.980392%,9.803922%);fill-opacity:1;" d="M 2.84375 36.585938 C 2.769531 36.445312 2.699219 36.308594 2.628906 36.167969 C 2.699219 36.308594 2.769531 36.445312 2.84375 36.585938 Z M 2.84375 36.585938 "/>
<path style=" stroke:none;fill-rule:nonzero;fill:rgb(100%,30.980392%,9.803922%);fill-opacity:1;" d="M 3.117188 37.097656 C 3.039062 36.953125 2.960938 36.804688 2.882812 36.660156 C 2.960938 36.804688 3.039062 36.953125 3.117188 37.097656 Z M 3.117188 37.097656 "/>
<path style=" stroke:none;fill-rule:nonzero;fill:rgb(100%,30.980392%,9.803922%);fill-opacity:1;" d="M 0.3125 28.953125 C 0.296875 28.859375 0.28125 28.765625 0.269531 28.671875 C 0.28125 28.765625 0.296875 28.859375 0.3125 28.953125 Z M 0.3125 28.953125 "/>
<path style=" stroke:none;fill-rule:nonzero;fill:rgb(100%,30.980392%,9.803922%);fill-opacity:1;" d="M 28.714844 0.273438 C 28.855469 0.296875 28.996094 0.320312 29.136719 0.34375 C 28.996094 0.320312 28.855469 0.296875 28.714844 0.273438 Z M 28.714844 0.273438 "/>
<path style=" stroke:none;fill-rule:nonzero;fill:rgb(100%,30.980392%,9.803922%);fill-opacity:1;" d="M 29.3125 0.371094 C 29.460938 0.398438 29.613281 0.425781 29.761719 0.453125 C 29.613281 0.425781 29.460938 0.398438 29.3125 0.371094 Z M 29.3125 0.371094 "/>
<path style=" stroke:none;fill-rule:nonzero;fill:rgb(100%,30.980392%,9.803922%);fill-opacity:1;" d="M 0.046875 26.488281 C 0.0390625 26.40625 0.0351562 26.324219 0.03125 26.242188 C 0.0351562 26.324219 0.0390625 26.40625 0.046875 26.488281 Z M 0.046875 26.488281 "/>
<path style=" stroke:none;fill-rule:nonzero;fill:rgb(100%,30.980392%,9.803922%);fill-opacity:1;" d="M 0.015625 25.832031 C 0.0117188 25.761719 0.0078125 25.691406 0.0078125 25.621094 C 0.0078125 25.691406 0.0117188 25.761719 0.015625 25.832031 Z M 0.015625 25.832031 "/>
<path style=" stroke:none;fill-rule:nonzero;fill:rgb(100%,30.980392%,9.803922%);fill-opacity:1;" d="M 28.113281 0.191406 C 28.242188 0.207031 28.375 0.226562 28.503906 0.246094 C 28.375 0.226562 28.242188 0.207031 28.113281 0.191406 Z M 28.113281 0.191406 "/>
<path style=" stroke:none;fill-rule:nonzero;fill:rgb(100%,30.980392%,9.803922%);fill-opacity:1;" d="M 25.632812 0.0078125 C 25.714844 0.0117188 25.792969 0.015625 25.871094 0.015625 C 25.792969 0.015625 25.714844 0.0117188 25.632812 0.0078125 Z M 25.632812 0.0078125 "/>
<path style=" stroke:none;fill-rule:nonzero;fill:rgb(100%,30.980392%,9.803922%);fill-opacity:1;" d="M 26.261719 0.03125 C 26.359375 0.0351562 26.460938 0.0429688 26.558594 0.0507812 C 26.460938 0.0429688 26.359375 0.0351562 26.261719 0.03125 Z M 26.261719 0.03125 "/>
<path style=" stroke:none;fill-rule:nonzero;fill:rgb(100%,30.980392%,9.803922%);fill-opacity:1;" d="M 29.902344 0.480469 C 30.0625 0.511719 30.222656 0.546875 30.378906 0.582031 C 30.222656 0.546875 30.0625 0.511719 29.902344 0.480469 Z M 29.902344 0.480469 "/>
<path style=" stroke:none;fill-rule:nonzero;fill:rgb(100%,30.980392%,9.803922%);fill-opacity:1;" d="M 30.484375 0.605469 C 30.652344 0.644531 30.824219 0.683594 30.992188 0.722656 C 30.824219 0.683594 30.652344 0.644531 30.484375 0.605469 Z M 30.484375 0.605469 "/>
<path style=" stroke:none;fill-rule:nonzero;fill:rgb(100%,30.980392%,9.803922%);fill-opacity:1;" d="M 31.054688 0.742188 C 31.238281 0.785156 31.417969 0.832031 31.597656 0.882812 C 31.417969 0.832031 31.238281 0.785156 31.054688 0.742188 Z M 31.054688 0.742188 "/>
<path style=" stroke:none;fill-rule:nonzero;fill:rgb(100%,30.980392%,9.803922%);fill-opacity:1;" d="M 0.222656 28.347656 C 0.210938 28.257812 0.199219 28.164062 0.1875 28.070312 C 0.199219 28.164062 0.210938 28.257812 0.222656 28.347656 Z M 0.222656 28.347656 "/>
<path style=" stroke:none;fill-rule:nonzero;fill:rgb(100%,30.980392%,9.803922%);fill-opacity:1;" d="M 0.148438 27.738281 C 0.140625 27.648438 0.128906 27.554688 0.121094 27.464844 C 0.128906 27.554688 0.140625 27.648438 0.148438 27.738281 Z M 0.148438 27.738281 "/>
<path style=" stroke:none;fill-rule:nonzero;fill:rgb(100%,30.980392%,9.803922%);fill-opacity:1;" d="M 0.0898438 27.117188 C 0.0820312 27.03125 0.0742188 26.941406 0.0703125 26.855469 C 0.0742188 26.941406 0.0820312 27.03125 0.0898438 27.117188 Z M 0.0898438 27.117188 "/>
<path style=" stroke:none;fill-rule:nonzero;fill:rgb(100%,30.980392%,9.803922%);fill-opacity:1;" d="M 26.882812 0.0703125 C 26.996094 0.078125 27.105469 0.0898438 27.21875 0.0976562 C 27.105469 0.0898438 26.996094 0.078125 26.882812 0.0703125 Z M 26.882812 0.0703125 "/>
<path style=" stroke:none;fill-rule:nonzero;fill:rgb(100%,30.980392%,9.803922%);fill-opacity:1;" d="M 0.804688 31.316406 C 0.78125 31.214844 0.753906 31.117188 0.730469 31.015625 C 0.753906 31.117188 0.78125 31.214844 0.804688 31.316406 Z M 0.804688 31.316406 "/>
<path style=" stroke:none;fill-rule:nonzero;fill:rgb(100%,30.980392%,9.803922%);fill-opacity:1;" d="M 1.652344 33.949219 C 1.597656 33.8125 1.546875 33.675781 1.496094 33.535156 C 1.546875 33.675781 1.597656 33.8125 1.652344 33.949219 Z M 1.652344 33.949219 "/>
<path style=" stroke:none;fill-rule:nonzero;fill:rgb(100%,30.980392%,9.803922%);fill-opacity:1;" d="M 0.960938 31.890625 C 0.933594 31.785156 0.902344 31.679688 0.875 31.574219 C 0.902344 31.679688 0.933594 31.785156 0.960938 31.890625 Z M 0.960938 31.890625 "/>
<path style=" stroke:none;fill-rule:nonzero;fill:rgb(100%,30.980392%,9.803922%);fill-opacity:1;" d="M 0.660156 30.734375 C 0.636719 30.636719 0.617188 30.539062 0.59375 30.441406 C 0.617188 30.539062 0.636719 30.636719 0.660156 30.734375 Z M 0.660156 30.734375 "/>
<path style=" stroke:none;fill-rule:nonzero;fill:rgb(100%,30.980392%,9.803922%);fill-opacity:1;" d="M 1.46875 33.460938 C 1.308594 33.011719 1.160156 32.554688 1.023438 32.09375 C 1.160156 32.554688 1.308594 33.011719 1.46875 33.460938 Z M 1.46875 33.460938 "/>
<path style=" stroke:none;fill-rule:nonzero;fill:rgb(100%,30.980392%,9.803922%);fill-opacity:1;" d="M 0.53125 30.144531 C 0.511719 30.050781 0.492188 29.953125 0.472656 29.859375 C 0.492188 29.953125 0.511719 30.050781 0.53125 30.144531 Z M 0.53125 30.144531 "/>
<path style=" stroke:none;fill-rule:nonzero;fill:rgb(100%,30.980392%,9.803922%);fill-opacity:1;" d="M 0.414062 29.550781 C 0.398438 29.457031 0.378906 29.363281 0.363281 29.269531 C 0.378906 29.363281 0.398438 29.457031 0.414062 29.550781 Z M 0.414062 29.550781 "/>
<path style=" stroke:none;fill-rule:nonzero;fill:rgb(100%,30.980392%,9.803922%);fill-opacity:1;" d="M 27.5 0.125 C 27.625 0.136719 27.746094 0.152344 27.867188 0.164062 C 27.746094 0.152344 27.625 0.136719 27.5 0.125 Z M 27.5 0.125 "/>
<path style=" stroke:none;fill-rule:nonzero;fill:rgb(85.882353%,24.705882%,23.921569%);fill-opacity:1;" d="M 15.265625 48.023438 C 15.257812 48.023438 15.25 48.023438 15.246094 48.023438 C 15.785156 48.253906 16.339844 48.460938 16.898438 48.652344 C 16.949219 48.667969 17 48.683594 17.046875 48.699219 C 17.175781 48.742188 17.304688 48.785156 17.433594 48.824219 C 17.640625 48.890625 17.847656 48.953125 18.054688 49.015625 C 18.058594 49.015625 18.0625 49.015625 18.066406 49.019531 C 19.332031 49.382812 20.640625 49.648438 21.980469 49.8125 C 21.386719 49.25 20.820312 48.65625 20.285156 48.039062 C 20.132812 48.109375 19.980469 48.179688 19.828125 48.246094 C 19.230469 48.519531 18.644531 48.785156 18.078125 49.015625 C 17.996094 48.992188 17.917969 48.96875 17.839844 48.945312 C 17.558594 48.863281 17.277344 48.769531 17 48.679688 C 16.824219 48.617188 16.644531 48.5625 16.464844 48.496094 C 16.273438 48.425781 16.082031 48.347656 15.890625 48.273438 C 15.683594 48.191406 15.472656 48.113281 15.265625 48.023438 C 16.230469 48.046875 17.703125 47.382812 19.136719 46.730469 C 19.160156 46.71875 19.183594 46.710938 19.207031 46.699219 C 19.550781 47.15625 19.910156 47.609375 20.285156 48.039062 C 21.914062 47.300781 23.566406 46.59375 24.964844 46.664062 C 28.511719 46.816406 30.34375 45.765625 30.417969 45.71875 C 30.816406 45.488281 30.949219 44.984375 30.71875 44.585938 C 30.492188 44.191406 29.984375 44.054688 29.585938 44.277344 C 29.570312 44.285156 28.035156 45.132812 25.035156 45 C 23.125 44.925781 21.136719 45.820312 19.199219 46.703125 C 16.042969 42.519531 14.167969 37.3125 14.167969 31.667969 C 14.167969 31.375 14.171875 31.085938 14.183594 30.796875 C 15.96875 31.097656 17.859375 31.316406 19.800781 31.460938 C 19.808594 31.460938 19.8125 31.464844 19.820312 31.46875 L 24.382812 32.476562 C 24.691406 32.5625 24.761719 32.820312 24.777344 32.925781 C 24.792969 33.03125 24.804688 33.296875 24.539062 33.472656 C 24.234375 33.675781 24.097656 34.058594 24.203125 34.410156 C 24.308594 34.761719 24.632812 35 25 35 C 30.195312 35 35.164062 34.445312 39.367188 33.394531 C 39.734375 33.300781 39.996094 32.972656 40 32.59375 C 40.003906 32.214844 39.753906 31.882812 39.386719 31.78125 L 37.691406 31.3125 L 39.320312 30.089844 C 39.332031 30.082031 39.339844 30.070312 39.347656 30.0625 C 40.25 29.835938 41.117188 29.59375 41.925781 29.324219 C 42.363281 29.183594 42.601562 28.710938 42.457031 28.273438 C 42.3125 27.835938 41.84375 27.597656 41.40625 27.742188 C 40.164062 28.152344 38.792969 28.511719 37.328125 28.816406 C 33.625 29.589844 29.359375 30 25 30 C 21.277344 30 17.59375 29.699219 14.292969 29.125 C 14.292969 29.125 14.292969 29.125 14.292969 29.121094 C 14.238281 29.671875 14.207031 30.230469 14.1875 30.792969 C 13.851562 30.734375 13.507812 30.679688 13.179688 30.617188 C 12.726562 30.53125 12.429688 30.097656 12.515625 29.644531 C 12.601562 29.191406 13.035156 28.894531 13.488281 28.980469 C 13.75 29.03125 14.03125 29.066406 14.296875 29.113281 C 15.574219 16.503906 26.222656 6.667969 39.167969 6.667969 C 40.191406 6.667969 41.195312 6.734375 42.1875 6.855469 C 39.25 4.070312 35.636719 1.992188 31.621094 0.886719 C 31.613281 0.886719 31.605469 0.882812 31.597656 0.882812 C 31.417969 0.832031 31.238281 0.785156 31.054688 0.742188 C 31.035156 0.734375 31.011719 0.730469 30.992188 0.722656 C 30.824219 0.683594 30.652344 0.644531 30.484375 0.605469 C 30.449219 0.597656 30.414062 0.589844 30.378906 0.582031 C 30.222656 0.546875 30.0625 0.511719 29.902344 0.480469 C 29.855469 0.472656 29.808594 0.464844 29.761719 0.453125 C 29.613281 0.425781 29.460938 0.398438 29.3125 0.371094 C 29.253906 0.363281 29.195312 0.351562 29.136719 0.34375 C 28.996094 0.320312 28.855469 0.296875 28.714844 0.273438 C 28.644531 0.265625 28.574219 0.253906 28.503906 0.246094 C 28.375 0.226562 28.242188 0.207031 28.113281 0.191406 C 28.03125 0.183594 27.949219 0.175781 27.867188 0.164062 C 27.746094 0.152344 27.625 0.136719 27.5 0.125 C 27.40625 0.113281 27.3125 0.109375 27.21875 0.0976562 C 27.109375 0.0898438 26.996094 0.078125 26.882812 0.0703125 C 26.777344 0.0625 26.667969 0.0546875 26.558594 0.0507812 C 26.460938 0.0429688 26.359375 0.0351562 26.261719 0.03125 C 26.132812 0.0234375 26 0.0195312 25.871094 0.015625 C 25.792969 0.015625 25.714844 0.0117188 25.632812 0.0078125 C 25.421875 0.00390625 25.210938 0 25 0 C 14.0625 0 4.765625 7.027344 1.375 16.8125 C 1.421875 16.671875 1.472656 16.53125 1.523438 16.390625 C 1.539062 16.40625 1.5625 16.414062 1.582031 16.429688 C 2.914062 17.855469 5.339844 19.175781 8.597656 20.242188 C 9.035156 20.386719 9.273438 20.859375 9.128906 21.292969 C 9.011719 21.644531 8.6875 21.867188 8.335938 21.867188 C 8.25 21.867188 8.164062 21.855469 8.078125 21.828125 C 4.972656 20.808594 2.539062 19.542969 0.960938 18.144531 C 1.085938 17.699219 1.222656 17.257812 1.371094 16.824219 C 0.484375 19.386719 0 22.136719 0 25 C 0 25.207031 0.00390625 25.414062 0.0078125 25.621094 C 0.0078125 25.691406 0.0117188 25.761719 0.015625 25.832031 C 0.0195312 25.96875 0.0234375 26.105469 0.03125 26.242188 C 0.0351562 26.324219 0.0390625 26.40625 0.046875 26.488281 C 0.0507812 26.609375 0.0585938 26.734375 0.0703125 26.855469 C 0.0742188 26.941406 0.0820312 27.03125 0.0898438 27.117188 C 0.101562 27.234375 0.109375 27.351562 0.121094 27.464844 C 0.128906 27.554688 0.140625 27.648438 0.148438 27.738281 C 0.160156 27.847656 0.175781 27.960938 0.1875 28.070312 C 0.199219 28.164062 0.210938 28.257812 0.222656 28.347656 C 0.238281 28.457031 0.253906 28.566406 0.269531 28.671875 C 0.28125 28.765625 0.296875 28.859375 0.3125 28.953125 C 0.328125 29.058594 0.347656 29.164062 0.363281 29.269531 C 0.378906 29.363281 0.398438 29.457031 0.414062 29.550781 C 0.433594 29.652344 0.453125 29.753906 0.472656 29.859375 C 0.492188 29.953125 0.511719 30.050781 0.53125 30.144531 C 0.550781 30.246094 0.574219 30.34375 0.597656 30.441406 C 0.617188 30.539062 0.640625 30.636719 0.660156 30.734375 C 0.683594 30.828125 0.707031 30.921875 0.730469 31.015625 C 0.753906 31.117188 0.78125 31.214844 0.804688 31.316406 C 0.828125 31.402344 0.851562 31.488281 0.875 31.574219 C 0.90625 31.679688 0.933594 31.785156 0.964844 31.890625 C 0.980469 31.960938 1.003906 32.027344 1.023438 32.09375 C 1.160156 32.554688 1.308594 33.011719 1.46875 33.460938 C 1.480469 33.484375 1.488281 33.511719 1.496094 33.535156 C 1.546875 33.675781 1.597656 33.8125 1.652344 33.949219 C 1.667969 33.992188 1.683594 34.035156 1.703125 34.082031 C 1.753906 34.214844 1.808594 34.34375 1.859375 34.476562 C 1.878906 34.523438 1.898438 34.570312 1.917969 34.617188 C 1.972656 34.746094 2.03125 34.878906 2.085938 35.007812 C 2.105469 35.054688 2.125 35.097656 2.144531 35.144531 C 2.203125 35.277344 2.265625 35.40625 2.324219 35.539062 C 2.34375 35.578125 2.363281 35.621094 2.382812 35.660156 C 2.445312 35.796875 2.511719 35.929688 2.578125 36.066406 C 2.59375 36.097656 2.613281 36.132812 2.628906 36.167969 C 2.699219 36.304688 2.769531 36.445312 2.84375 36.582031 C 2.855469 36.609375 2.867188 36.632812 2.882812 36.660156 C 2.960938 36.804688 3.039062 36.953125 3.117188 37.097656 C 3.125 37.109375 3.132812 37.121094 3.140625 37.132812 C 5.839844 41.984375 10.109375 45.84375 15.265625 48.023438 Z M 17.742188 7.742188 C 18.050781 7.433594 18.609375 7.433594 18.925781 7.742188 C 19.082031 7.898438 19.167969 8.117188 19.167969 8.332031 C 19.167969 8.550781 19.082031 8.765625 18.925781 8.917969 C 18.765625 9.074219 18.550781 9.167969 18.332031 9.167969 C 18.117188 9.167969 17.898438 9.074219 17.742188 8.925781 C 17.589844 8.765625 17.5 8.550781 17.5 8.332031 C 17.5 8.117188 17.589844 7.898438 17.742188 7.742188 Z M 10.921875 11.042969 C 11.566406 10.03125 12.71875 9.609375 13.496094 10.101562 C 14.273438 10.597656 14.378906 11.820312 13.734375 12.835938 C 13.085938 13.847656 11.933594 14.269531 11.15625 13.777344 C 10.382812 13.28125 10.273438 12.058594 10.921875 11.042969 Z M 5.796875 28.625 C 5.589844 27.671875 6.015625 26.769531 6.746094 26.609375 C 7.476562 26.453125 8.238281 27.097656 8.445312 28.054688 C 8.648438 29.007812 8.226562 29.910156 7.492188 30.070312 C 6.761719 30.226562 6 29.582031 5.796875 28.625 Z M 5.796875 28.625 "/>
<path style=" stroke:none;fill-rule:nonzero;fill:rgb(85.882353%,24.705882%,23.921569%);fill-opacity:1;" d="M 28.347656 22.5 C 26.652344 22.453125 25.628906 23.011719 24.699219 23.488281 C 23.660156 24.019531 22.761719 24.476562 20.96875 24.179688 C 20.515625 24.097656 20.085938 24.410156 20.011719 24.863281 C 19.9375 25.316406 20.242188 25.746094 20.695312 25.820312 C 21.183594 25.902344 21.625 25.9375 22.03125 25.9375 C 23.5625 25.9375 24.558594 25.429688 25.457031 24.972656 C 26.304688 24.539062 27.035156 24.164062 28.226562 24.164062 C 28.261719 24.164062 28.304688 24.167969 28.332031 24.167969 C 28.789062 24.167969 29.160156 23.800781 29.167969 23.347656 C 29.175781 22.886719 28.808594 22.507812 28.347656 22.5 Z M 28.347656 22.5 "/>
<path style=" stroke:none;fill-rule:nonzero;fill:rgb(85.882353%,24.705882%,23.921569%);fill-opacity:1;" d="M 34.683594 21.84375 C 34.320312 21.558594 33.796875 21.625 33.511719 21.984375 C 33.339844 22.207031 32.417969 22.457031 31.621094 22.5 C 31.160156 22.527344 30.808594 22.921875 30.835938 23.378906 C 30.859375 23.824219 31.226562 24.167969 31.664062 24.167969 C 31.679688 24.167969 31.695312 24.167969 31.710938 24.164062 C 32.25 24.136719 34.074219 23.96875 34.820312 23.015625 C 35.105469 22.652344 35.042969 22.128906 34.683594 21.84375 Z M 34.683594 21.84375 "/>
<path style=" stroke:none;fill-rule:nonzero;fill:rgb(62.745098%,22.352941%,22.352941%);fill-opacity:1;" d="M 11.15625 13.777344 C 11.933594 14.269531 13.085938 13.847656 13.730469 12.835938 C 14.378906 11.820312 14.269531 10.597656 13.496094 10.101562 C 12.71875 9.609375 11.566406 10.03125 10.917969 11.042969 C 10.273438 12.058594 10.378906 13.28125 11.15625 13.777344 Z M 11.15625 13.777344 "/>
<path style=" stroke:none;fill-rule:nonzero;fill:rgb(62.745098%,22.352941%,22.352941%);fill-opacity:1;" d="M 8.445312 28.054688 C 8.238281 27.097656 7.476562 26.453125 6.746094 26.609375 C 6.015625 26.769531 5.589844 27.671875 5.796875 28.625 C 6.003906 29.582031 6.761719 30.226562 7.492188 30.070312 C 8.226562 29.910156 8.652344 29.007812 8.445312 28.054688 Z M 8.445312 28.054688 "/>
<path style=" stroke:none;fill-rule:nonzero;fill:rgb(62.745098%,22.352941%,22.352941%);fill-opacity:1;" d="M 18.332031 9.167969 C 18.550781 9.167969 18.765625 9.074219 18.925781 8.917969 C 19.082031 8.765625 19.167969 8.550781 19.167969 8.332031 C 19.167969 8.117188 19.082031 7.898438 18.925781 7.742188 C 18.609375 7.433594 18.050781 7.433594 17.742188 7.742188 C 17.589844 7.898438 17.5 8.117188 17.5 8.332031 C 17.5 8.550781 17.589844 8.765625 17.742188 8.925781 C 17.898438 9.074219 18.117188 9.167969 18.332031 9.167969 Z M 18.332031 9.167969 "/>
<path style=" stroke:none;fill-rule:nonzero;fill:rgb(85.882353%,24.705882%,23.921569%);fill-opacity:1;" d="M 37.742188 19.398438 C 37.589844 19.554688 37.5 19.773438 37.5 19.988281 C 37.5 20.207031 37.589844 20.421875 37.742188 20.582031 C 37.898438 20.730469 38.117188 20.824219 38.332031 20.824219 C 38.550781 20.824219 38.765625 20.730469 38.925781 20.574219 C 39.082031 20.421875 39.167969 20.207031 39.167969 19.988281 C 39.167969 19.773438 39.082031 19.554688 38.925781 19.398438 C 38.609375 19.089844 38.050781 19.089844 37.742188 19.398438 Z M 37.742188 19.398438 "/>
<path style=" stroke:none;fill-rule:nonzero;fill:rgb(85.882353%,24.705882%,23.921569%);fill-opacity:1;" d="M 41.074219 22.742188 C 40.925781 22.898438 40.832031 23.117188 40.832031 23.332031 C 40.832031 23.550781 40.925781 23.765625 41.074219 23.925781 C 41.234375 24.074219 41.449219 24.167969 41.667969 24.167969 C 41.882812 24.167969 42.097656 24.074219 42.257812 23.917969 C 42.417969 23.765625 42.5 23.550781 42.5 23.332031 C 42.5 23.117188 42.417969 22.898438 42.257812 22.742188 C 41.941406 22.433594 41.382812 22.433594 41.074219 22.742188 Z M 41.074219 22.742188 "/>
<path style=" stroke:none;fill-rule:nonzero;fill:rgb(85.882353%,24.705882%,23.921569%);fill-opacity:1;" d="M 20.242188 33.574219 C 20.089844 33.734375 20 33.949219 20 34.167969 C 20 34.382812 20.089844 34.597656 20.242188 34.757812 C 20.398438 34.90625 20.617188 35 20.832031 35 C 21.050781 35 21.265625 34.90625 21.425781 34.75 C 21.582031 34.601562 21.667969 34.382812 21.667969 34.167969 C 21.667969 33.949219 21.582031 33.734375 21.425781 33.574219 C 21.109375 33.265625 20.550781 33.265625 20.242188 33.574219 Z M 20.242188 33.574219 "/>
<path style=" stroke:none;fill-rule:nonzero;fill:rgb(85.882353%,24.705882%,23.921569%);fill-opacity:1;" d="M 31.074219 37.742188 C 30.925781 37.898438 30.832031 38.117188 30.832031 38.332031 C 30.832031 38.550781 30.925781 38.765625 31.074219 38.925781 C 31.234375 39.074219 31.449219 39.167969 31.667969 39.167969 C 31.882812 39.167969 32.097656 39.074219 32.257812 38.917969 C 32.417969 38.765625 32.5 38.550781 32.5 38.332031 C 32.5 38.117188 32.417969 37.898438 32.257812 37.742188 C 31.941406 37.433594 31.382812 37.433594 31.074219 37.742188 Z M 31.074219 37.742188 "/>
<path style=" stroke:none;fill-rule:nonzero;fill:rgb(62.745098%,22.352941%,22.352941%);fill-opacity:1;" d="M 12.515625 29.644531 C 12.429688 30.097656 12.726562 30.53125 13.179688 30.617188 C 13.507812 30.679688 13.851562 30.734375 14.1875 30.792969 C 14.207031 30.230469 14.238281 29.671875 14.292969 29.121094 C 14.296875 29.117188 14.296875 29.117188 14.296875 29.113281 C 14.03125 29.066406 13.75 29.03125 13.488281 28.980469 C 13.035156 28.894531 12.601562 29.191406 12.515625 29.644531 Z M 12.515625 29.644531 "/>
<path style=" stroke:none;fill-rule:nonzero;fill:rgb(62.745098%,22.352941%,22.352941%);fill-opacity:1;" d="M 8.078125 21.828125 C 8.164062 21.855469 8.25 21.867188 8.335938 21.867188 C 8.6875 21.867188 9.011719 21.644531 9.128906 21.292969 C 9.273438 20.859375 9.035156 20.386719 8.597656 20.242188 C 5.339844 19.175781 2.914062 17.855469 1.582031 16.429688 C 1.5625 16.414062 1.539062 16.40625 1.523438 16.390625 C 1.472656 16.53125 1.421875 16.671875 1.375 16.8125 C 1.371094 16.816406 1.371094 16.820312 1.371094 16.824219 C 1.222656 17.257812 1.085938 17.699219 0.960938 18.144531 C 2.539062 19.542969 4.972656 20.808594 8.078125 21.828125 Z M 8.078125 21.828125 "/>
<path style=" stroke:none;fill-rule:nonzero;fill:rgb(62.745098%,22.352941%,22.352941%);fill-opacity:1;" d="M 19.207031 46.699219 C 19.183594 46.710938 19.160156 46.71875 19.136719 46.730469 C 17.703125 47.382812 16.230469 48.046875 15.265625 48.023438 C 15.472656 48.113281 15.683594 48.191406 15.890625 48.273438 C 16.082031 48.347656 16.273438 48.425781 16.464844 48.496094 C 16.644531 48.5625 16.824219 48.617188 17 48.679688 C 17.277344 48.769531 17.558594 48.863281 17.839844 48.945312 C 17.917969 48.96875 17.996094 48.992188 18.078125 49.015625 C 18.644531 48.785156 19.230469 48.519531 19.828125 48.246094 C 19.980469 48.179688 20.132812 48.109375 20.285156 48.039062 C 19.910156 47.609375 19.550781 47.15625 19.207031 46.699219 Z M 19.207031 46.699219 "/>
<path style=" stroke:none;fill-rule:nonzero;fill:rgb(85.882353%,24.705882%,23.921569%);fill-opacity:1;" d="M 44.855469 9.816406 C 42.972656 10.652344 40.730469 11.382812 38.148438 11.972656 C 37.699219 12.074219 37.417969 12.523438 37.519531 12.96875 C 37.609375 13.355469 37.953125 13.617188 38.332031 13.617188 C 38.394531 13.617188 38.457031 13.613281 38.519531 13.597656 C 41.347656 12.949219 43.804688 12.144531 45.84375 11.203125 C 45.53125 10.726562 45.199219 10.265625 44.855469 9.816406 Z M 44.855469 9.816406 "/>
</g>
</svg>
