<?xml version="1.0" encoding="UTF-8"?>
<svg xmlns="http://www.w3.org/2000/svg" xmlns:xlink="http://www.w3.org/1999/xlink" width="50" height="50" viewBox="0 0 50 50" version="1.1">
<defs>
<linearGradient id="linear0" gradientUnits="userSpaceOnUse" x1="-8.26" y1="255" x2="508.137" y2="255" gradientTransform="matrix(0.0980392,0,0,0.0980392,0,0)">
<stop offset="0" style="stop-color:rgb(37.647059%,71.764706%,100%);stop-opacity:1;"/>
<stop offset="0.5857" style="stop-color:rgb(0.392157%,50.980392%,98.823529%);stop-opacity:1;"/>
<stop offset="1" style="stop-color:rgb(15.294118%,25.098039%,69.019608%);stop-opacity:1;"/>
</linearGradient>
<linearGradient id="linear1" gradientUnits="userSpaceOnUse" x1="-99" y1="70.963" x2="483.308" y2="70.963" gradientTransform="matrix(0.0980392,0,0,0.0980392,0,0)">
<stop offset="0" style="stop-color:rgb(37.647059%,71.764706%,100%);stop-opacity:1;"/>
<stop offset="0.5857" style="stop-color:rgb(0.392157%,50.980392%,98.823529%);stop-opacity:1;"/>
<stop offset="1" style="stop-color:rgb(15.294118%,25.098039%,69.019608%);stop-opacity:1;"/>
</linearGradient>
<linearGradient id="linear2" gradientUnits="userSpaceOnUse" x1="157" y1="168.034" x2="450.015" y2="168.034" gradientTransform="matrix(0.0980392,0,0,0.0980392,0,0)">
<stop offset="0" style="stop-color:rgb(37.647059%,71.764706%,100%);stop-opacity:1;"/>
<stop offset="0.5857" style="stop-color:rgb(0.392157%,50.980392%,98.823529%);stop-opacity:1;"/>
<stop offset="1" style="stop-color:rgb(15.294118%,25.098039%,69.019608%);stop-opacity:1;"/>
</linearGradient>
<linearGradient id="linear3" gradientUnits="userSpaceOnUse" x1="-111.838" y1="255" x2="468.681" y2="255" gradientTransform="matrix(0.0980392,0,0,0.0980392,0,0)">
<stop offset="0" style="stop-color:rgb(37.647059%,71.764706%,100%);stop-opacity:1;"/>
<stop offset="0.5857" style="stop-color:rgb(0.392157%,50.980392%,98.823529%);stop-opacity:1;"/>
<stop offset="1" style="stop-color:rgb(15.294118%,25.098039%,69.019608%);stop-opacity:1;"/>
</linearGradient>
<linearGradient id="linear4" gradientUnits="userSpaceOnUse" x1="-235" y1="457.007" x2="422.368" y2="457.007" gradientTransform="matrix(0.0980392,0,0,0.0980392,0,0)">
<stop offset="0" style="stop-color:rgb(37.647059%,71.764706%,100%);stop-opacity:1;"/>
<stop offset="0.5857" style="stop-color:rgb(0.392157%,50.980392%,98.823529%);stop-opacity:1;"/>
<stop offset="1" style="stop-color:rgb(15.294118%,25.098039%,69.019608%);stop-opacity:1;"/>
</linearGradient>
<linearGradient id="linear5" gradientUnits="userSpaceOnUse" x1="-109.003" y1="261.83" x2="597.375" y2="261.83" gradientTransform="matrix(0.0980392,0,0,0.0980392,0,0)">
<stop offset="0" style="stop-color:rgb(37.647059%,71.764706%,100%);stop-opacity:1;"/>
<stop offset="0.5857" style="stop-color:rgb(0.392157%,50.980392%,98.823529%);stop-opacity:1;"/>
<stop offset="1" style="stop-color:rgb(15.294118%,25.098039%,69.019608%);stop-opacity:1;"/>
</linearGradient>
<linearGradient id="linear6" gradientUnits="userSpaceOnUse" x1="-104.667" y1="283.025" x2="456.048" y2="283.025" gradientTransform="matrix(0.0980392,0,0,0.0980392,0,0)">
<stop offset="0" style="stop-color:rgb(37.647059%,71.764706%,100%);stop-opacity:1;"/>
<stop offset="0.5857" style="stop-color:rgb(0.392157%,50.980392%,98.823529%);stop-opacity:1;"/>
<stop offset="1" style="stop-color:rgb(15.294118%,25.098039%,69.019608%);stop-opacity:1;"/>
</linearGradient>
<linearGradient id="linear7" gradientUnits="userSpaceOnUse" x1="-104.667" y1="261.416" x2="456.048" y2="261.416" gradientTransform="matrix(0.0980392,0,0,0.0980392,0,0)">
<stop offset="0" style="stop-color:rgb(37.647059%,71.764706%,100%);stop-opacity:1;"/>
<stop offset="0.5857" style="stop-color:rgb(0.392157%,50.980392%,98.823529%);stop-opacity:1;"/>
<stop offset="1" style="stop-color:rgb(15.294118%,25.098039%,69.019608%);stop-opacity:1;"/>
</linearGradient>
<linearGradient id="linear8" gradientUnits="userSpaceOnUse" x1="-343" y1="168.034" x2="460.421" y2="168.034" gradientTransform="matrix(0.0980392,0,0,0.0980392,0,0)">
<stop offset="0" style="stop-color:rgb(37.647059%,71.764706%,100%);stop-opacity:1;"/>
<stop offset="0.5857" style="stop-color:rgb(0.392157%,50.980392%,98.823529%);stop-opacity:1;"/>
<stop offset="1" style="stop-color:rgb(15.294118%,25.098039%,69.019608%);stop-opacity:1;"/>
</linearGradient>
<linearGradient id="linear9" gradientUnits="userSpaceOnUse" x1="-6" y1="48.776" x2="428.005" y2="48.776" gradientTransform="matrix(0.0980392,0,0,0.0980392,0,0)">
<stop offset="0" style="stop-color:rgb(37.647059%,71.764706%,100%);stop-opacity:1;"/>
<stop offset="0.5857" style="stop-color:rgb(0.392157%,50.980392%,98.823529%);stop-opacity:1;"/>
<stop offset="1" style="stop-color:rgb(15.294118%,25.098039%,69.019608%);stop-opacity:1;"/>
</linearGradient>
</defs>
<g id="surface1">
<path style=" stroke:none;fill-rule:nonzero;fill:url(#linear0);" d="M 50 25 C 50 38.808594 38.808594 50 25 50 C 11.191406 50 0 38.808594 0 25 C 0 11.191406 11.191406 0 25 0 C 38.808594 0 50 11.191406 50 25 Z M 50 25 "/>
<path style=" stroke:none;fill-rule:nonzero;fill:url(#linear1);" d="M 27.660156 11.949219 C 28.78125 10.824219 30.269531 10.136719 31.855469 10.007812 C 36.207031 9.65625 40.144531 8.980469 43.390625 8.066406 C 38.820312 3.105469 32.273438 0 25 0 C 19.78125 0 14.9375 1.597656 10.929688 4.332031 C 8.445312 6.03125 8.117188 9.574219 10.246094 11.703125 C 11.304688 12.761719 13.023438 12.761719 14.082031 11.703125 C 15.136719 10.648438 16.84375 10.640625 17.90625 11.6875 C 18.003906 11.785156 18.101562 11.878906 18.203125 11.980469 C 20.824219 14.570312 25.050781 14.558594 27.660156 11.949219 Z M 27.660156 11.949219 "/>
<path style=" stroke:none;fill-rule:nonzero;fill:url(#linear2);" d="M 25 18.210938 C 25 19.453125 26.023438 20.445312 27.265625 20.414062 C 33.992188 20.246094 40.269531 19.335938 45.136719 17.808594 C 46.246094 17.457031 47.410156 17.035156 48.527344 16.527344 C 48.023438 15.132812 47.402344 13.796875 46.671875 12.53125 C 45.886719 12.882812 44.945312 13.242188 43.816406 13.597656 C 39.324219 15.007812 33.472656 15.851562 27.148438 16.003906 C 25.953125 16.035156 25 17.015625 25 18.210938 Z M 25 18.210938 "/>
<path style=" stroke:none;fill-rule:nonzero;fill:url(#linear3);" d="M 25 0 C 24.339844 0 23.6875 0.0273438 23.039062 0.078125 C 25.777344 0.289062 28.394531 0.945312 30.816406 1.96875 C 39.152344 5.5 36.820312 17.910156 27.769531 18.195312 C 26.859375 18.222656 25.933594 18.238281 25 18.238281 C 15.585938 18.238281 7.28125 16.753906 2.3125 14.488281 C 0.828125 17.683594 0 21.246094 0 25 L 0 25.042969 C 0.00390625 27.589844 0.96875 30.039062 2.667969 31.929688 L 3.316406 32.65625 C 4.394531 33.859375 6.113281 34.199219 7.601562 33.570312 C 8.863281 33.039062 10.308594 33.230469 11.386719 34.070312 C 13.4375 35.664062 16.097656 36.246094 18.59375 35.527344 L 21.050781 34.820312 C 22.507812 34.402344 24.066406 34.816406 25.140625 35.882812 C 25.917969 36.652344 26.96875 37.085938 28.0625 37.085938 L 29.949219 37.085938 C 31.878906 37.085938 33.710938 36.304688 35.082031 34.945312 C 36.121094 33.917969 37.449219 33.226562 38.890625 32.96875 C 39.367188 32.882812 39.832031 32.796875 40.175781 32.726562 C 42.457031 32.25 44.269531 34.636719 43.175781 36.695312 C 43.164062 36.722656 43.148438 36.75 43.132812 36.773438 C 42.761719 37.46875 42.117188 37.972656 41.351562 38.160156 C 38.328125 38.902344 34.851562 39.421875 31.128906 39.691406 C 29.601562 39.804688 28.066406 39.667969 26.578125 39.304688 C 25.140625 38.953125 23.660156 38.820312 22.1875 38.90625 L 16.753906 39.230469 C 15.707031 39.292969 14.667969 39.039062 13.769531 38.5 C 13.398438 38.277344 12.992188 38.03125 12.589844 37.792969 C 11.207031 36.957031 9.511719 36.820312 8.007812 37.414062 C 7.429688 37.644531 6.789062 37.667969 6.195312 37.480469 L 6.183594 37.476562 C 4.667969 37 3.484375 36.515625 2.570312 36.050781 C 3.703125 38.347656 5.179688 40.445312 6.929688 42.277344 C 12.035156 43.601562 18.355469 44.324219 25 44.324219 C 25.046875 44.324219 25.09375 44.324219 25.140625 44.324219 C 28.375 44.316406 28.800781 49.003906 25.617188 49.589844 C 24.769531 49.742188 23.910156 49.855469 23.039062 49.921875 C 23.6875 49.972656 24.339844 50 25 50 C 38.808594 50 50 38.808594 50 25 C 50 11.191406 38.808594 0 25 0 Z M 25 0 "/>
<path style=" stroke:none;fill-rule:nonzero;fill:url(#linear4);" d="M 45.289062 39.609375 C 40.253906 41.332031 33.027344 42.410156 25 42.410156 C 16.972656 42.410156 9.746094 41.332031 4.714844 39.609375 C 5.390625 40.550781 6.132812 41.441406 6.929688 42.277344 C 12.035156 43.601562 18.355469 44.324219 25 44.324219 C 25.046875 44.324219 25.09375 44.324219 25.136719 44.324219 C 28.363281 44.316406 28.820312 48.996094 25.648438 49.582031 C 24.792969 49.742188 23.921875 49.855469 23.039062 49.921875 C 23.6875 49.972656 24.339844 50 25 50 C 33.351562 50 40.746094 45.902344 45.289062 39.609375 Z M 45.289062 39.609375 "/>
<path style=" stroke:none;fill-rule:nonzero;fill:url(#linear5);" d="M 50 25 C 50 26.222656 49.910156 27.421875 49.742188 28.597656 C 48.945312 28.90625 48.148438 29.183594 47.375 29.429688 C 41.363281 31.320312 33.417969 32.359375 25 32.359375 C 23.269531 32.359375 21.558594 32.316406 19.878906 32.226562 C 18.738281 32.167969 17.84375 31.21875 17.84375 30.078125 C 17.84375 28.976562 17.015625 28.050781 15.921875 27.933594 C 11.8125 27.5 8.039062 26.765625 4.863281 25.765625 C 3.265625 25.265625 1.558594 24.609375 0.03125 23.769531 C 0.113281 22.125 0.347656 20.523438 0.730469 18.980469 C 1.21875 19.375 2.726562 20.121094 3.742188 20.601562 C 4.386719 20.910156 4.945312 21.371094 5.375 21.945312 L 5.546875 22.175781 C 6.652344 23.65625 8.5625 24.289062 10.332031 23.757812 C 11.488281 23.410156 12.742188 23.589844 13.753906 24.246094 L 14.195312 24.53125 C 15.246094 25.214844 16.617188 25.167969 17.621094 24.414062 C 18.191406 23.988281 18.898438 23.777344 19.613281 23.824219 C 21.363281 23.933594 23.167969 23.992188 25 23.992188 C 32.140625 23.992188 38.820312 23.128906 43.816406 21.558594 C 46.671875 20.660156 48.335938 19.734375 49.269531 18.980469 C 49.648438 20.523438 49.890625 22.125 49.96875 23.769531 C 49.988281 24.175781 50 24.585938 50 25 Z M 50 25 "/>
<path style=" stroke:none;fill-rule:nonzero;fill:url(#linear6);" d="M 37.058594 25.109375 C 33.378906 25.691406 29.269531 26.003906 25 26.003906 C 24.621094 26.003906 24.242188 26 23.863281 25.996094 C 22.636719 25.980469 21.632812 26.972656 21.632812 28.199219 L 21.632812 28.203125 C 21.632812 29.410156 22.605469 30.390625 23.8125 30.40625 C 24.207031 30.414062 24.601562 30.414062 25 30.414062 C 29.488281 30.414062 33.828125 30.085938 37.746094 29.464844 C 38.816406 29.292969 39.609375 28.371094 39.609375 27.285156 C 39.609375 25.929688 38.398438 24.894531 37.058594 25.109375 Z M 37.058594 25.109375 "/>
<path style=" stroke:none;fill-rule:nonzero;fill:url(#linear7);" d="M 44.542969 23.332031 C 44.308594 23.410156 44.066406 23.488281 43.816406 23.570312 C 43.648438 23.621094 43.476562 23.671875 43.304688 23.722656 C 42.371094 24.003906 41.730469 24.863281 41.730469 25.835938 L 41.730469 25.839844 C 41.730469 27.3125 43.148438 28.375 44.5625 27.953125 C 44.757812 27.894531 44.949219 27.835938 45.136719 27.777344 C 45.410156 27.691406 45.6875 27.601562 45.96875 27.507812 C 46.855469 27.203125 47.449219 26.363281 47.449219 25.421875 C 47.449219 23.914062 45.972656 22.84375 44.542969 23.332031 Z M 44.542969 23.332031 "/>
<path style=" stroke:none;fill-rule:nonzero;fill:url(#linear8);" d="M 43.816406 13.597656 C 40.925781 14.507812 37.46875 15.179688 33.6875 15.582031 C 32.292969 17.09375 30.292969 18.113281 27.769531 18.195312 C 26.859375 18.222656 25.933594 18.238281 25 18.238281 C 25.015625 19.464844 26.035156 20.445312 27.265625 20.414062 C 33.992188 20.246094 40.269531 19.335938 45.136719 17.808594 C 46.246094 17.457031 47.410156 17.035156 48.527344 16.527344 C 48.023438 15.136719 47.402344 13.796875 46.671875 12.53125 C 45.886719 12.882812 44.945312 13.242188 43.816406 13.597656 Z M 43.816406 13.597656 "/>
<path style=" stroke:none;fill-rule:nonzero;fill:url(#linear9);" d="M 23.039062 0.078125 C 25.78125 0.289062 28.394531 0.945312 30.816406 1.96875 C 34.320312 3.453125 35.9375 6.503906 35.964844 9.5625 C 38.699219 9.191406 41.203125 8.683594 43.390625 8.066406 C 38.820312 3.105469 32.273438 0 25 0 C 24.339844 0 23.6875 0.0273438 23.039062 0.078125 Z M 23.039062 0.078125 "/>
</g>
</svg>
