<svg id="Layer_1" enable-background="new 0 0 512 512" height="512" viewBox="0 0 512 512" width="512" xmlns="http://www.w3.org/2000/svg"><g><path d="m31.768 340.012c52.61-71.178 361.593-187.061 448.464-167.981l30.155-10.936c-20.852-51.978-180.814-2.79-277.231 31.994-64.994 24.308-124.385 52.352-167.235 78.968-51.687 32.106-72.121 57.174-64.308 78.891z" fill="#f68d36"/><circle cx="256" cy="256" fill="#00d7c6" r="195.497"/><path d="m256 60.503c-5.201 0-10.354.208-15.453.607 100.746 7.879 180.044 92.122 180.044 194.89s-79.299 187.012-180.044 194.89c5.099.399 10.252.607 15.453.607 107.97 0 195.497-87.527 195.497-195.497s-87.527-195.497-195.497-195.497z" fill="#02bab7"/><circle cx="86.467" cy="470.793" fill="#ffd54f" r="41.207"/><path d="m86.467 429.586c-5.466 0-10.679 1.074-15.453 3.007 15.099 6.114 25.755 20.909 25.755 38.2s-10.655 32.086-25.755 38.2c4.773 1.933 9.986 3.007 15.453 3.007 22.758 0 41.207-18.449 41.207-41.207s-18.449-41.207-41.207-41.207z" fill="#ffc128"/><circle cx="358.305" cy="62.841" fill="#f68d36" r="62.841"/><path d="m358.305 0c-5.335 0-10.512.67-15.458 1.921 27.231 6.888 47.383 31.548 47.383 60.92s-20.153 54.031-47.383 60.92c4.946 1.251 10.123 1.921 15.458 1.921 34.706 0 62.841-28.135 62.841-62.841s-28.135-62.841-62.841-62.841z" fill="#f66f1c"/><path d="m480.232 172.031c-3.377 6.376-17.676 22.311-58.708 46.721-79.24 47.908-224.056 102.144-315.302 118.006-46.627 8.446-67.746 5.831-74.453 3.255l-30.156 10.935c6.349 17.999 29.522 22.652 51.744 22.401 102.986-1.232 299.478-74.817 392.721-133.363 51.688-32.106 72.122-57.174 64.309-78.891z" fill="#f68d36"/></g></svg>