<?xml version="1.0" encoding="UTF-8"?>
<svg xmlns="http://www.w3.org/2000/svg" xmlns:xlink="http://www.w3.org/1999/xlink" width="50" height="50" viewBox="0 0 50 50" version="1.1">
<g id="surface1">
<path style=" stroke:none;fill-rule:nonzero;fill:rgb(96.470588%,55.294118%,21.176471%);fill-opacity:1;" d="M 3.101562 33.203125 C 8.238281 26.253906 38.414062 14.9375 46.898438 16.800781 L 49.84375 15.730469 C 47.804688 10.65625 32.183594 15.460938 22.769531 18.855469 C 16.421875 21.230469 10.621094 23.96875 6.4375 26.566406 C 1.390625 29.703125 -0.605469 32.152344 0.15625 34.273438 Z M 3.101562 33.203125 "/>
<path style=" stroke:none;fill-rule:nonzero;fill:rgb(0%,84.313725%,77.647059%);fill-opacity:1;" d="M 44.089844 25 C 44.089844 35.542969 35.542969 44.089844 25 44.089844 C 14.457031 44.089844 5.910156 35.542969 5.910156 25 C 5.910156 14.457031 14.457031 5.910156 25 5.910156 C 35.542969 5.910156 44.089844 14.457031 44.089844 25 Z M 44.089844 25 "/>
<path style=" stroke:none;fill-rule:nonzero;fill:rgb(0.784314%,72.941176%,71.764706%);fill-opacity:1;" d="M 25 5.910156 C 24.492188 5.910156 23.988281 5.929688 23.492188 5.96875 C 33.328125 6.738281 41.074219 14.964844 41.074219 25 C 41.074219 35.035156 33.328125 43.261719 23.492188 44.03125 C 23.988281 44.070312 24.492188 44.089844 25 44.089844 C 35.542969 44.089844 44.089844 35.542969 44.089844 25 C 44.089844 14.457031 35.542969 5.910156 25 5.910156 Z M 25 5.910156 "/>
<path style=" stroke:none;fill-rule:nonzero;fill:rgb(100%,83.529412%,30.980392%);fill-opacity:1;" d="M 12.46875 45.976562 C 12.46875 48.199219 10.667969 50 8.445312 50 C 6.222656 50 4.421875 48.199219 4.421875 45.976562 C 4.421875 43.753906 6.222656 41.953125 8.445312 41.953125 C 10.667969 41.953125 12.46875 43.753906 12.46875 45.976562 Z M 12.46875 45.976562 "/>
<path style=" stroke:none;fill-rule:nonzero;fill:rgb(100%,75.686275%,15.686275%);fill-opacity:1;" d="M 8.445312 41.953125 C 7.910156 41.953125 7.402344 42.054688 6.933594 42.246094 C 8.410156 42.84375 9.449219 44.289062 9.449219 45.976562 C 9.449219 47.664062 8.410156 49.109375 6.933594 49.707031 C 7.402344 49.894531 7.910156 50 8.445312 50 C 10.667969 50 12.46875 48.199219 12.46875 45.976562 C 12.46875 43.753906 10.667969 41.953125 8.445312 41.953125 Z M 8.445312 41.953125 "/>
<path style=" stroke:none;fill-rule:nonzero;fill:rgb(96.470588%,55.294118%,21.176471%);fill-opacity:1;" d="M 41.128906 6.136719 C 41.128906 9.527344 38.378906 12.273438 34.992188 12.273438 C 31.601562 12.273438 28.855469 9.527344 28.855469 6.136719 C 28.855469 2.746094 31.601562 0 34.992188 0 C 38.378906 0 41.128906 2.746094 41.128906 6.136719 Z M 41.128906 6.136719 "/>
<path style=" stroke:none;fill-rule:nonzero;fill:rgb(96.470588%,43.529412%,10.980392%);fill-opacity:1;" d="M 34.992188 0 C 34.46875 0 33.964844 0.0664062 33.480469 0.1875 C 36.140625 0.859375 38.109375 3.269531 38.109375 6.136719 C 38.109375 9.003906 36.140625 11.414062 33.480469 12.085938 C 33.964844 12.207031 34.46875 12.273438 34.992188 12.273438 C 38.378906 12.273438 41.128906 9.527344 41.128906 6.136719 C 41.128906 2.746094 38.378906 0 34.992188 0 Z M 34.992188 0 "/>
<path style=" stroke:none;fill-rule:nonzero;fill:rgb(96.470588%,55.294118%,21.176471%);fill-opacity:1;" d="M 46.898438 16.800781 C 46.566406 17.421875 45.171875 18.980469 41.164062 21.363281 C 33.425781 26.042969 19.285156 31.335938 10.375 32.886719 C 5.820312 33.710938 3.757812 33.457031 3.101562 33.203125 L 0.15625 34.273438 C 0.777344 36.03125 3.039062 36.484375 5.210938 36.460938 C 15.269531 36.339844 34.457031 29.152344 43.5625 23.4375 C 48.609375 20.300781 50.605469 17.851562 49.84375 15.730469 Z M 46.898438 16.800781 "/>
</g>
</svg>
