<?xml version="1.0" encoding="UTF-8"?>
<svg xmlns="http://www.w3.org/2000/svg" xmlns:xlink="http://www.w3.org/1999/xlink" width="50" height="50" viewBox="0 0 50 50" version="1.1">
<g id="surface1">
<path style=" stroke:none;fill-rule:nonzero;fill:rgb(39.607843%,69.411765%,93.72549%);fill-opacity:1;" d="M 49.996094 25 C 49.996094 38.804688 38.804688 50 25 50 C 11.191406 50 0 38.804688 0 25 C 0 11.195312 11.191406 0 25 0 C 38.804688 0 49.996094 11.195312 49.996094 25 Z M 49.996094 25 "/>
<path style=" stroke:none;fill-rule:nonzero;fill:rgb(91.372549%,93.72549%,95.686275%);fill-opacity:1;" d="M 12.851562 45.976562 C 12.84375 45.988281 12.839844 45.992188 12.835938 46.003906 C 12.871094 46.011719 12.90625 46.023438 12.945312 46.03125 Z M 12.851562 45.976562 "/>
<path style=" stroke:none;fill-rule:nonzero;fill:rgb(91.372549%,93.72549%,95.686275%);fill-opacity:1;" d="M 11.277344 10.742188 L 11.226562 10.640625 C 11.644531 10.578125 11.671875 10.285156 11.992188 10.175781 C 12.351562 10.058594 12.226562 10.1875 12.582031 10.175781 C 12.871094 10.164062 13.046875 10.375 13.375 10.222656 C 13.296875 10.363281 13.164062 10.457031 13.035156 10.554688 C 12.765625 10.746094 12.488281 10.945312 12.164062 11.019531 C 11.84375 11.09375 11.464844 11.015625 11.277344 10.742188 Z M 11.277344 10.742188 "/>
<path style=" stroke:none;fill-rule:nonzero;fill:rgb(91.372549%,93.72549%,95.686275%);fill-opacity:1;" d="M 16.277344 33.027344 C 16.273438 33.246094 16.140625 33.4375 16.027344 33.625 C 15.527344 34.445312 15.222656 35.394531 15.15625 36.355469 C 15.085938 37.277344 15.128906 38.414062 14.324219 38.867188 C 13.867188 39.125 13.222656 39.078125 12.917969 39.507812 C 12.820312 39.636719 12.777344 39.800781 12.730469 39.957031 C 12.535156 40.675781 12.335938 41.390625 12.136719 42.109375 C 11.882812 42.089844 11.621094 42.058594 11.371094 42.03125 C 11.667969 42.128906 11.878906 42.535156 11.699219 42.8125 C 11.410156 42.660156 11.03125 42.839844 10.871094 43.128906 C 10.71875 43.417969 10.742188 43.769531 10.828125 44.085938 C 11.085938 45.027344 11.890625 45.78125 12.835938 46.007812 C 12.671875 46.320312 12.167969 46.183594 11.863281 45.976562 C 9.671875 44.496094 8.019531 42.242188 7.265625 39.707031 C 7 38.8125 6.832031 37.863281 6.308594 37.09375 C 5.875 36.445312 5.21875 35.96875 4.78125 35.320312 C 4.171875 34.386719 4.058594 33.179688 3.351562 32.324219 C 2.953125 31.839844 2.34375 31.242188 2.691406 30.71875 C 2.832031 30.507812 3.132812 30.304688 3.015625 30.074219 C 2.976562 30.003906 2.894531 29.957031 2.832031 29.894531 C 2.597656 29.640625 2.761719 29.238281 2.878906 28.910156 C 3.078125 28.339844 3.078125 27.730469 2.992188 27.117188 C 2.398438 26.585938 1.929688 25.925781 1.632812 25.183594 C 1.457031 24.734375 1.226562 24.167969 0.738281 24.160156 C 0.613281 23.8125 0.484375 23.460938 0.359375 23.109375 C 0.316406 23.234375 0.191406 23.3125 0.0546875 23.332031 C 0.429688 17.601562 2.738281 12.402344 6.335938 8.375 C 6.414062 8.339844 6.492188 8.296875 6.570312 8.25 C 7.425781 7.753906 8.105469 7.007812 8.929688 6.464844 C 9.097656 6.351562 9.289062 6.242188 9.5 6.265625 C 9.703125 6.28125 9.894531 6.492188 9.820312 6.683594 C 9.792969 6.761719 9.726562 6.824219 9.65625 6.875 C 8.691406 7.695312 7.632812 8.414062 6.507812 9.011719 C 6.375 9.078125 6.230469 9.15625 6.171875 9.292969 C 6.058594 9.523438 6.25 9.8125 6.492188 9.898438 C 6.734375 9.980469 7.007812 9.929688 7.257812 9.875 C 7.046875 10.175781 6.984375 10.578125 7.09375 10.925781 C 7.324219 10.949219 7.398438 10.632812 7.46875 10.410156 C 7.75 9.535156 9.144531 9.179688 9.054688 8.253906 C 9.433594 8.453125 9.820312 8.011719 10.050781 7.648438 C 10.28125 7.28125 10.796875 6.921875 11.078125 7.242188 C 11.09375 7.421875 11.117188 7.605469 11.132812 7.785156 C 11.632812 7.660156 12.136719 7.53125 12.632812 7.40625 C 12.351562 7.605469 12.253906 8.027344 12.417969 8.332031 C 12.582031 8.640625 12.988281 8.792969 13.3125 8.667969 C 13.304688 8.933594 13.070312 9.136719 12.851562 9.292969 C 12.304688 9.707031 11.71875 10.132812 11.078125 10.335938 L 11.226562 10.640625 C 11.210938 10.648438 11.191406 10.652344 11.175781 10.652344 C 10.769531 10.691406 10.339844 10.398438 9.902344 10.457031 C 9.636719 10.488281 9.308594 10.488281 9.15625 10.761719 C 9.136719 10.796875 9.039062 11.269531 9.105469 11.230469 C 9.34375 11.09375 9.582031 10.957031 9.8125 10.824219 C 9.886719 11.015625 9.902344 11.230469 9.863281 11.441406 C 10.152344 11.410156 10.453125 11.472656 10.707031 11.625 C 10.441406 12.242188 9.757812 12.65625 9.085938 12.605469 C 9.078125 12.402344 9.066406 12.199219 9.0625 11.992188 C 8.507812 11.949219 8.054688 12.425781 7.777344 12.898438 C 7.496094 13.378906 7.28125 13.929688 6.816406 14.234375 C 6.535156 14.425781 6.191406 14.5 5.886719 14.660156 C 5.585938 14.824219 5.308594 15.132812 5.371094 15.46875 C 5.398438 15.625 5.5 15.773438 5.496094 15.9375 C 5.480469 16.242188 5.125 16.382812 4.886719 16.582031 C 4.480469 16.921875 4.378906 17.542969 3.941406 17.84375 C 3.628906 18.0625 3.207031 18.058594 2.839844 18.171875 C 2.472656 18.285156 2.105469 18.652344 2.253906 19.007812 C 2.070312 19.070312 1.851562 18.933594 1.832031 18.742188 C 1.183594 20.019531 0.753906 21.410156 0.582031 22.835938 C 0.902344 23.0625 1.230469 22.546875 1.292969 22.160156 C 1.359375 21.769531 1.699219 21.257812 2.015625 21.492188 C 1.941406 22.050781 1.867188 22.605469 1.796875 23.164062 C 1.777344 23.273438 1.769531 23.386719 1.820312 23.480469 C 1.882812 23.597656 2.015625 23.648438 2.121094 23.734375 C 2.40625 23.984375 2.367188 24.425781 2.386719 24.804688 C 2.402344 25.265625 2.558594 25.71875 2.800781 26.113281 C 2.777344 26.035156 2.761719 25.957031 2.742188 25.875 C 3.183594 25.933594 3.644531 25.789062 3.976562 25.496094 C 4.152344 25.339844 4.296875 25.132812 4.519531 25.054688 C 4.746094 24.96875 4.996094 25.03125 5.226562 25.09375 C 5.945312 25.292969 6.707031 25.511719 7.1875 26.078125 C 7.429688 26.363281 7.585938 26.726562 7.875 26.964844 C 8.53125 27.519531 9.640625 27.273438 10.238281 27.890625 C 10.71875 28.386719 10.628906 29.191406 10.5 29.875 C 10.171875 29.695312 9.730469 30.144531 9.921875 30.46875 C 10.097656 30.277344 10.300781 30.074219 10.558594 30.074219 C 10.816406 30.066406 11.042969 30.421875 10.851562 30.585938 C 11.304688 30.011719 12.410156 30.25 12.585938 30.964844 C 13.21875 31.011719 13.859375 31.054688 14.492188 31.105469 C 14.371094 32.035156 16.316406 32.089844 16.277344 33.027344 Z M 16.277344 33.027344 "/>
<path style=" stroke:none;fill-rule:nonzero;fill:rgb(91.372549%,93.72549%,95.686275%);fill-opacity:1;" d="M 12.425781 6.863281 C 12.179688 6.984375 11.84375 6.847656 11.753906 6.59375 C 11.660156 6.335938 11.835938 6.019531 12.101562 5.957031 C 12.269531 5.917969 12.5 5.9375 12.550781 5.773438 C 12.566406 5.722656 12.558594 5.667969 12.558594 5.617188 C 12.550781 5.304688 12.828125 5.050781 13.128906 4.972656 C 13.425781 4.894531 13.742188 4.953125 14.046875 5.011719 C 14.15625 5.238281 14.1875 5.496094 14.132812 5.738281 C 13.925781 5.75 13.71875 5.757812 13.511719 5.765625 C 13.527344 6.113281 13.496094 6.546875 13.171875 6.675781 C 12.886719 6.789062 12.511719 6.578125 12.269531 6.769531 "/>
<path style=" stroke:none;fill-rule:nonzero;fill:rgb(91.372549%,93.72549%,95.686275%);fill-opacity:1;" d="M 15.664062 3.410156 C 16.234375 3.140625 16.714844 2.710938 17.273438 2.421875 C 18.238281 1.929688 19.363281 1.882812 20.445312 1.851562 C 22.910156 1.773438 25.375 1.695312 27.839844 1.621094 C 27.265625 1.933594 26.695312 2.246094 26.125 2.558594 C 25.65625 2.816406 25.125 3.078125 24.613281 2.933594 C 24.605469 3.34375 24.976562 3.726562 25.390625 3.722656 C 24.378906 4.351562 22.972656 3.710938 21.90625 4.234375 C 21.457031 4.457031 21.097656 4.871094 20.601562 4.949219 C 20.316406 4.996094 20.023438 4.917969 19.738281 4.980469 C 19.265625 5.085938 18.964844 5.535156 18.617188 5.871094 C 18.210938 6.257812 17.617188 6.519531 17.089844 6.335938 C 16.5625 6.152344 16.289062 5.367188 16.710938 5 C 16.917969 4.820312 17.21875 4.792969 17.460938 4.664062 C 17.707031 4.539062 17.902344 4.203125 17.71875 3.996094 C 17.636719 3.910156 17.507812 3.875 17.433594 3.777344 C 17.351562 3.675781 17.359375 3.527344 17.296875 3.414062 C 17.042969 2.976562 16.347656 3.566406 15.875 3.390625 "/>
<path style=" stroke:none;fill-rule:nonzero;fill:rgb(91.372549%,93.72549%,95.686275%);fill-opacity:1;" d="M 23.148438 5.492188 C 23.480469 5.414062 23.773438 5.21875 24.082031 5.074219 C 24.394531 4.929688 24.765625 4.84375 25.070312 4.996094 C 25.160156 5.222656 24.898438 5.429688 24.667969 5.511719 C 24.226562 5.667969 23.75 5.707031 23.289062 5.632812 "/>
<path style=" stroke:none;fill-rule:nonzero;fill:rgb(91.372549%,93.72549%,95.686275%);fill-opacity:1;" d="M 43.296875 7.976562 C 43.207031 7.988281 43.113281 7.984375 43.015625 7.960938 C 42.589844 7.871094 42.269531 7.542969 41.90625 7.304688 C 41.066406 6.75 39.925781 6.679688 39.023438 7.128906 C 39.234375 6.820312 39.34375 6.433594 39.320312 6.054688 L 39.191406 6.101562 C 37.707031 5.242188 35.972656 4.351562 34.355469 4.925781 C 33.980469 5.0625 33.644531 5.265625 33.265625 5.398438 C 32.863281 5.539062 32.417969 5.59375 32.074219 5.84375 C 31.722656 6.09375 31.535156 6.640625 31.835938 6.941406 C 32.089844 7.195312 32.5 7.128906 32.855469 7.160156 C 33.207031 7.195312 33.609375 7.546875 33.414062 7.847656 C 31.867188 8.570312 30.3125 9.300781 28.761719 10.03125 C 29.476562 10.261719 29.945312 11.070312 29.792969 11.804688 C 29.273438 11.898438 28.769531 11.582031 28.242188 11.546875 C 27.480469 11.507812 26.75 12.179688 26.734375 12.945312 C 26.714844 13.707031 27.414062 14.414062 28.179688 14.402344 C 28.75 14.394531 29.308594 14.050781 29.863281 14.195312 C 29.886719 13.675781 30.242188 13.234375 30.609375 12.863281 C 31.320312 12.148438 32.335938 11.503906 33.289062 11.855469 C 33.601562 11.96875 33.867188 12.175781 34.125 12.386719 C 34.695312 12.835938 35.269531 13.292969 35.839844 13.753906 C 36.023438 13.566406 36.203125 13.378906 36.382812 13.199219 C 36.695312 13.527344 37.007812 13.855469 37.320312 14.1875 C 37.480469 14.078125 37.644531 13.976562 37.800781 13.871094 C 37.914062 14.164062 38.035156 14.453125 38.148438 14.746094 C 38.195312 14.425781 38.234375 14.109375 38.273438 13.789062 C 38.644531 13.800781 39.042969 13.8125 39.378906 13.644531 C 39.71875 13.480469 39.96875 13.070312 39.824219 12.722656 C 39.753906 12.535156 39.578125 12.386719 39.542969 12.1875 C 39.46875 11.792969 40.035156 11.523438 40.402344 11.703125 C 40.761719 11.878906 40.945312 12.292969 41.097656 12.667969 C 41.183594 12.285156 41.261719 11.90625 41.347656 11.519531 C 41.699219 12.449219 42.210938 13.320312 42.84375 14.085938 C 41.683594 13.863281 40.460938 13.992188 39.378906 14.4375 C 39.722656 14.921875 40.316406 15.210938 40.910156 15.1875 C 41.179688 15.179688 41.472656 15.121094 41.675781 15.289062 C 41.828125 15.417969 41.867188 15.628906 41.894531 15.820312 C 41.988281 16.363281 42.078125 16.902344 42.160156 17.4375 C 41.550781 16.933594 40.667969 16.992188 39.871094 16.976562 C 39.074219 16.953125 38.140625 16.734375 37.847656 15.992188 C 37.53125 16.351562 37.390625 16.859375 37.480469 17.335938 C 36.652344 17.136719 35.703125 16.820312 35.464844 16.003906 C 34.820312 16.242188 34.019531 15.832031 33.84375 15.171875 C 33.78125 14.9375 33.765625 14.65625 33.5625 14.53125 C 33.4375 14.457031 33.277344 14.46875 33.128906 14.488281 C 31.902344 14.628906 30.679688 14.765625 29.460938 14.90625 C 28.792969 14.988281 28.105469 15.066406 27.515625 15.394531 C 26.925781 15.714844 26.460938 16.351562 26.527344 17.019531 C 25.402344 17.6875 24.449219 18.652344 23.804688 19.789062 C 23.597656 20.140625 23.425781 20.542969 23.503906 20.941406 C 23.558594 21.246094 23.765625 21.503906 23.828125 21.804688 C 23.933594 22.320312 23.640625 22.816406 23.515625 23.324219 C 23.167969 24.773438 24.265625 26.136719 25.28125 27.230469 C 25.761719 27.738281 26.320312 28.292969 27.019531 28.320312 C 27.453125 28.339844 27.867188 28.148438 28.273438 27.988281 C 29.4375 27.527344 30.707031 27.320312 31.957031 27.367188 C 31.671875 27.589844 31.964844 28.070312 32.316406 28.144531 C 32.667969 28.21875 33.046875 28.101562 33.386719 28.222656 C 34.160156 28.5 34.054688 29.636719 33.703125 30.375 C 33.878906 30.34375 34.0625 30.308594 34.242188 30.273438 C 34.144531 30.523438 34.046875 30.773438 33.953125 31.015625 C 35.015625 31.148438 35.417969 32.546875 35.171875 33.59375 C 34.929688 34.640625 34.308594 35.597656 34.289062 36.675781 C 34.285156 37.261719 34.464844 37.835938 34.648438 38.394531 C 35.101562 39.8125 35.550781 41.230469 36.007812 42.65625 C 37.273438 42.808594 38 41.195312 39.179688 40.691406 C 39.621094 40.5 40.140625 40.460938 40.484375 40.132812 C 40.816406 39.816406 40.710938 39.074219 40.28125 39.074219 C 40.863281 39.011719 41.359375 38.480469 41.378906 37.890625 C 41.382812 37.726562 41.359375 37.5625 41.382812 37.398438 C 41.421875 37.167969 41.570312 36.964844 41.710938 36.765625 C 42.609375 35.476562 43.191406 34 43.773438 32.539062 C 43.925781 32.148438 44.078125 31.765625 44.230469 31.375 C 44.804688 29.921875 45.375 28.472656 45.953125 27.019531 C 46.175781 26.449219 46.402344 25.882812 46.628906 25.3125 C 46.316406 25.828125 45.503906 25.757812 45.039062 25.375 C 44.570312 24.992188 44.324219 24.40625 43.957031 23.925781 C 43.648438 23.511719 43.226562 23.148438 43.082031 22.644531 C 42.996094 22.355469 43.011719 22.042969 42.960938 21.742188 C 42.847656 21.09375 42.417969 20.550781 42.125 19.964844 C 41.832031 19.375 41.675781 18.613281 42.089844 18.097656 C 43.277344 20.171875 44.359375 22.308594 45.339844 24.496094 C 45.445312 24.15625 45.695312 23.863281 46.011719 23.699219 C 46.242188 23.574219 46.503906 23.523438 46.746094 23.421875 C 47.390625 23.136719 47.835938 22.453125 47.835938 21.753906 C 47.832031 21.050781 47.386719 20.367188 46.734375 20.089844 C 46.410156 19.957031 46.042969 19.910156 45.738281 19.722656 C 45.433594 19.542969 45.214844 19.128906 45.40625 18.832031 C 45.585938 18.546875 46.023438 18.554688 46.320312 18.710938 C 46.621094 18.875 46.84375 19.152344 47.125 19.339844 C 47.328125 19.476562 47.566406 19.5625 47.785156 19.6875 C 48.980469 20.375 49.273438 21.929688 49.523438 23.285156 C 49.660156 24.015625 49.8125 24.738281 49.996094 25.449219 C 50 25.296875 50 25.140625 50 24.988281 C 49.992188 18.414062 47.449219 12.4375 43.296875 7.976562 Z M 45.585938 16.191406 C 45.421875 16.179688 45.269531 16.074219 45.140625 15.972656 C 44.925781 15.800781 44.710938 15.605469 44.648438 15.335938 C 44.574219 15.023438 44.726562 14.660156 44.554688 14.378906 C 44.476562 14.242188 44.335938 14.15625 44.214844 14.0625 C 43.90625 13.8125 43.679688 13.457031 43.59375 13.070312 C 43.519531 12.730469 43.625 12.28125 43.972656 12.222656 C 44.136719 12.195312 44.316406 12.285156 44.390625 12.4375 L 44.160156 12.5625 C 44.546875 12.609375 44.730469 13.195312 44.429688 13.449219 C 44.390625 13.488281 44.339844 13.523438 44.339844 13.582031 C 44.339844 13.613281 44.363281 13.648438 44.390625 13.671875 C 44.632812 13.9375 44.996094 14.03125 45.3125 14.203125 C 45.628906 14.367188 45.941406 14.671875 45.890625 15.023438 C 45.789062 15.0625 45.695312 15.09375 45.59375 15.132812 C 45.484375 15.242188 45.570312 15.433594 45.683594 15.542969 C 45.796875 15.648438 45.941406 15.753906 45.949219 15.914062 C 45.949219 16.085938 45.757812 16.203125 45.585938 16.191406 Z M 45.585938 16.191406 "/>
<path style=" stroke:none;fill-rule:nonzero;fill:rgb(91.372549%,93.72549%,95.686275%);fill-opacity:1;" d="M 45.75 33.589844 L 45.339844 33.878906 C 45.484375 34.378906 45.199219 34.964844 44.714844 35.160156 C 44.460938 35.265625 44.121094 35.308594 44.035156 35.570312 C 43.964844 35.792969 44.136719 36.019531 44.160156 36.25 C 44.195312 36.636719 43.835938 36.921875 43.578125 37.210938 C 43.316406 37.496094 43.179688 38.035156 43.523438 38.207031 C 43.605469 38.246094 43.695312 38.253906 43.785156 38.261719 C 44.160156 38.296875 44.574219 38.304688 44.878906 38.085938 C 45.757812 37.460938 44.921875 35.757812 45.792969 35.113281 C 45.914062 35.023438 46.070312 34.957031 46.136719 34.820312 C 46.34375 34.414062 45.585938 34.011719 45.75 33.589844 Z M 45.75 33.589844 "/>
</g>
</svg>
