<svg id="Capa_1" enable-background="new 0 0 510 510" height="512" viewBox="0 0 510 510" width="512" xmlns="http://www.w3.org/2000/svg" xmlns:xlink="http://www.w3.org/1999/xlink"><linearGradient id="lg1"><stop offset="0" stop-color="#feca9c"/><stop offset=".5213" stop-color="#fd8087"/><stop offset="1" stop-color="#f46700"/></linearGradient><linearGradient id="SVGID_1_" gradientUnits="userSpaceOnUse" x1="-8.26" x2="566.05" xlink:href="#lg1" y1="255" y2="255"/><linearGradient id="SVGID_2_" gradientUnits="userSpaceOnUse" x1="-78.92" x2="522.58" xlink:href="#lg1" y1="126.771" y2="126.771"/><linearGradient id="SVGID_3_" gradientUnits="userSpaceOnUse" x1="-78.92" x2="522.58" xlink:href="#lg1" y1="255" y2="255"/><linearGradient id="SVGID_4_" gradientUnits="userSpaceOnUse" x1="-78.92" x2="522.58" xlink:href="#lg1" y1="360.676" y2="360.676"/><linearGradient id="SVGID_5_" gradientUnits="userSpaceOnUse" x1="-78.92" x2="522.58" xlink:href="#lg1" y1="447.145" y2="447.145"/><linearGradient id="SVGID_6_" gradientUnits="userSpaceOnUse" x1="-78.92" x2="522.58" xlink:href="#lg1" y1="315.727" y2="315.727"/><linearGradient id="SVGID_7_" gradientUnits="userSpaceOnUse" x1="-99.918" x2="442.304" xlink:href="#lg1" y1="341.305" y2="341.305"/><linearGradient id="SVGID_8_" gradientUnits="userSpaceOnUse" x1="-285.909" x2="324.577" xlink:href="#lg1" y1="341.296" y2="341.296"/><g><circle cx="255" cy="255" fill="url(#SVGID_1_)" r="255"/><g><path d="m26.998 187.202c44.588-.668 97.637-14.032 149.375-37.629 27.039-12.332 52.201-26.767 74.308-42.482 11.006-7.823 12.598-23.559 3.459-33.499-7.649-8.319-20.301-9.697-29.512-3.15-19.715 14.013-42.387 26.995-66.929 38.188-46.208 21.075-92.865 33-131.375 33.577-.022 0-.044 0-.066 0-6.992 14.153-12.712 29.045-17.004 44.533 4.617.319 9.38.487 14.3.487 1.139.001 2.289-.008 3.444-.025z" fill="url(#SVGID_2_)"/><path d="m255 0c-6.735 0-13.407.266-20.01.778 28.116 2.182 54.953 8.926 79.771 19.49 51.035 21.723 60.257 90.457 16.735 124.84-.353.279-.698.547-1.035.806-30.802 23.632-67.585 45.489-107.902 63.878-11.091 5.059-22.204 9.74-33.281 14.033-8.653 3.354-14.348 11.681-14.348 20.961 0 15.807 15.874 26.699 30.614 20.991 11.901-4.609 23.818-9.628 35.689-15.042 58.218-26.553 110.003-60.175 149.045-96.472 2.109-1.96 5.257-5.159 8.853-8.935 15.12-15.874 41.525-11.164 50.191 8.973.052.122.104.243.156.365 4.471 10.441 2.93 22.54-4.171 31.405-2.704 3.376-5.588 6.779-8.649 10.2-1.684 1.881-3.415 3.758-5.182 5.631-8.674-12.866-24.859-20.249-42.267-15.858-17.096 4.312-28.797 20.107-28.691 37.738.001.138.002.276.005.414.371 22.884-11.383 44.196-31.248 55.563-5.286 3.025-10.666 5.993-16.135 8.9-9.448 5.022-14.458 15.912-11.543 26.208 3.921 13.847 19.577 20.465 32.203 13.76 6.658-3.536 13.203-7.161 19.624-10.867 21.349-12.324 47.976 3.444 47.562 28.091-.219 13.039-8.404 24.567-20.594 29.2-25.291 9.612-43.637 33.597-45.009 61.761-.674 13.839 2.716 26.826 9.046 37.921-32.538 19.209-69.709 31.403-109.438 34.487 6.602.514 13.274.78 20.009.78 140.833 0 255-114.167 255-255s-114.167-255-255-255z" fill="url(#SVGID_3_)"/><path d="m258.828 336.515c-4.944-10.406-16.965-15.422-27.815-11.547-48.728 17.404-96.202 27.077-137.247 27.692-1.313.02-2.609.03-3.902.03-36.38-.001-64.264-7.785-78.263-21.438 6.887 22.007 16.678 42.73 28.922 61.723 14.767 3.116 31.241 4.716 49.257 4.716 1.541 0 3.097-.012 4.661-.035 45.77-.686 98.192-11.261 151.531-30.267 12.584-4.485 18.589-18.808 12.856-30.874z" fill="url(#SVGID_4_)"/><path d="m281.919 448.86c0-21.418-17.363-38.781-38.781-38.781-10.103 0-19.3 3.866-26.202 10.195-4.414-8.115-13.015-13.624-22.902-13.624-14.389 0-26.053 11.665-26.053 26.054s11.665 26.053 26.053 26.053c3.949 0 7.69-.883 11.044-2.456 3.472 17.857 19.188 31.339 38.06 31.339 21.418.001 38.781-17.362 38.781-38.78z" fill="url(#SVGID_5_)"/><path d="m48.647 315.728c0 14.389 11.664 26.053 26.053 26.053s26.053-11.665 26.053-26.053c0-14.389-11.665-26.054-26.053-26.054s-26.053 11.665-26.053 26.054z" fill="url(#SVGID_6_)"/></g><g><path d="m196.034 229.195c-40.02 24.491-52.609 76.787-28.118 116.807l53.86 88.012c19.235 31.432 60.309 41.319 91.741 22.084l88.012-53.86c40.02-24.491 52.609-76.787 28.118-116.807-24.491-40.02-76.787-52.609-116.807-28.118-24.49-40.02-76.786-52.609-116.806-28.118z" fill="url(#SVGID_7_)"/><path d="m429.647 285.431c-24.491-40.02-76.787-52.609-116.807-28.118-24.491-40.02-76.787-52.609-116.807-28.118-.087.053-.169.112-.255.165 23.359-1.24 46.658 7.218 63.808 23.913 8.567 8.339 20.897 11.483 32.309 7.919 36.287-11.332 76.985 2.885 97.731 36.786 24.491 40.02 11.902 92.316-28.118 116.807l-83.523 51.113c12.122.139 24.428-3.005 35.531-9.8l88.012-53.86c40.021-24.491 52.61-76.787 28.119-116.807z" fill="url(#SVGID_8_)"/></g></g></svg>