<?xml version="1.0" encoding="UTF-8"?>
<svg xmlns="http://www.w3.org/2000/svg" xmlns:xlink="http://www.w3.org/1999/xlink" width="50" height="50" viewBox="0 0 50 50" version="1.1">
<defs>
<linearGradient id="linear0" gradientUnits="userSpaceOnUse" x1="-8.26" y1="255" x2="566.05" y2="255" gradientTransform="matrix(0.0980392,0,0,0.0980392,0,0)">
<stop offset="0" style="stop-color:rgb(99.607843%,79.215686%,61.176471%);stop-opacity:1;"/>
<stop offset="0.5213" style="stop-color:rgb(99.215686%,50.196078%,52.941176%);stop-opacity:1;"/>
<stop offset="1" style="stop-color:rgb(95.686275%,40.392157%,0%);stop-opacity:1;"/>
</linearGradient>
<linearGradient id="linear1" gradientUnits="userSpaceOnUse" x1="-78.92" y1="126.771" x2="522.58" y2="126.771" gradientTransform="matrix(0.0980392,0,0,0.0980392,0,0)">
<stop offset="0" style="stop-color:rgb(99.607843%,79.215686%,61.176471%);stop-opacity:1;"/>
<stop offset="0.5213" style="stop-color:rgb(99.215686%,50.196078%,52.941176%);stop-opacity:1;"/>
<stop offset="1" style="stop-color:rgb(95.686275%,40.392157%,0%);stop-opacity:1;"/>
</linearGradient>
<linearGradient id="linear2" gradientUnits="userSpaceOnUse" x1="-78.92" y1="255" x2="522.58" y2="255" gradientTransform="matrix(0.0980392,0,0,0.0980392,0,0)">
<stop offset="0" style="stop-color:rgb(99.607843%,79.215686%,61.176471%);stop-opacity:1;"/>
<stop offset="0.5213" style="stop-color:rgb(99.215686%,50.196078%,52.941176%);stop-opacity:1;"/>
<stop offset="1" style="stop-color:rgb(95.686275%,40.392157%,0%);stop-opacity:1;"/>
</linearGradient>
<linearGradient id="linear3" gradientUnits="userSpaceOnUse" x1="-78.92" y1="360.676" x2="522.58" y2="360.676" gradientTransform="matrix(0.0980392,0,0,0.0980392,0,0)">
<stop offset="0" style="stop-color:rgb(99.607843%,79.215686%,61.176471%);stop-opacity:1;"/>
<stop offset="0.5213" style="stop-color:rgb(99.215686%,50.196078%,52.941176%);stop-opacity:1;"/>
<stop offset="1" style="stop-color:rgb(95.686275%,40.392157%,0%);stop-opacity:1;"/>
</linearGradient>
<linearGradient id="linear4" gradientUnits="userSpaceOnUse" x1="-78.92" y1="447.145" x2="522.58" y2="447.145" gradientTransform="matrix(0.0980392,0,0,0.0980392,0,0)">
<stop offset="0" style="stop-color:rgb(99.607843%,79.215686%,61.176471%);stop-opacity:1;"/>
<stop offset="0.5213" style="stop-color:rgb(99.215686%,50.196078%,52.941176%);stop-opacity:1;"/>
<stop offset="1" style="stop-color:rgb(95.686275%,40.392157%,0%);stop-opacity:1;"/>
</linearGradient>
<linearGradient id="linear5" gradientUnits="userSpaceOnUse" x1="-78.92" y1="315.727" x2="522.58" y2="315.727" gradientTransform="matrix(0.0980392,0,0,0.0980392,0,0)">
<stop offset="0" style="stop-color:rgb(99.607843%,79.215686%,61.176471%);stop-opacity:1;"/>
<stop offset="0.5213" style="stop-color:rgb(99.215686%,50.196078%,52.941176%);stop-opacity:1;"/>
<stop offset="1" style="stop-color:rgb(95.686275%,40.392157%,0%);stop-opacity:1;"/>
</linearGradient>
<linearGradient id="linear6" gradientUnits="userSpaceOnUse" x1="-99.918" y1="341.305" x2="442.304" y2="341.305" gradientTransform="matrix(0.0980392,0,0,0.0980392,0,0)">
<stop offset="0" style="stop-color:rgb(99.607843%,79.215686%,61.176471%);stop-opacity:1;"/>
<stop offset="0.5213" style="stop-color:rgb(99.215686%,50.196078%,52.941176%);stop-opacity:1;"/>
<stop offset="1" style="stop-color:rgb(95.686275%,40.392157%,0%);stop-opacity:1;"/>
</linearGradient>
<linearGradient id="linear7" gradientUnits="userSpaceOnUse" x1="-285.909" y1="341.296" x2="324.577" y2="341.296" gradientTransform="matrix(0.0980392,0,0,0.0980392,0,0)">
<stop offset="0" style="stop-color:rgb(99.607843%,79.215686%,61.176471%);stop-opacity:1;"/>
<stop offset="0.5213" style="stop-color:rgb(99.215686%,50.196078%,52.941176%);stop-opacity:1;"/>
<stop offset="1" style="stop-color:rgb(95.686275%,40.392157%,0%);stop-opacity:1;"/>
</linearGradient>
</defs>
<g id="surface1">
<path style=" stroke:none;fill-rule:nonzero;fill:url(#linear0);" d="M 50 25 C 50 38.808594 38.808594 50 25 50 C 11.191406 50 0 38.808594 0 25 C 0 11.191406 11.191406 0 25 0 C 38.808594 0 50 11.191406 50 25 Z M 50 25 "/>
<path style=" stroke:none;fill-rule:nonzero;fill:url(#linear1);" d="M 2.648438 18.351562 C 7.019531 18.289062 12.21875 16.976562 17.292969 14.664062 C 19.941406 13.453125 22.410156 12.039062 24.578125 10.5 C 25.65625 9.730469 25.8125 8.1875 24.914062 7.214844 C 24.164062 6.398438 22.925781 6.265625 22.023438 6.90625 C 20.089844 8.28125 17.867188 9.550781 15.460938 10.648438 C 10.929688 12.714844 6.355469 13.886719 2.582031 13.941406 C 2.578125 13.941406 2.578125 13.941406 2.574219 13.941406 C 1.890625 15.328125 1.328125 16.789062 0.90625 18.308594 C 1.359375 18.339844 1.828125 18.355469 2.308594 18.355469 C 2.421875 18.355469 2.535156 18.355469 2.648438 18.351562 Z M 2.648438 18.351562 "/>
<path style=" stroke:none;fill-rule:nonzero;fill:url(#linear2);" d="M 25 0 C 24.339844 0 23.6875 0.0273438 23.039062 0.078125 C 25.792969 0.289062 28.425781 0.953125 30.859375 1.988281 C 35.863281 4.117188 36.765625 10.855469 32.5 14.226562 C 32.464844 14.253906 32.429688 14.28125 32.398438 14.304688 C 29.378906 16.621094 25.773438 18.765625 21.820312 20.566406 C 20.730469 21.0625 19.644531 21.523438 18.558594 21.945312 C 17.707031 22.273438 17.148438 23.089844 17.148438 24 C 17.148438 25.546875 18.707031 26.617188 20.152344 26.054688 C 21.316406 25.605469 22.488281 25.113281 23.648438 24.582031 C 29.359375 21.980469 34.433594 18.683594 38.261719 15.125 C 38.46875 14.933594 38.777344 14.617188 39.128906 14.246094 C 40.613281 12.691406 43.203125 13.152344 44.050781 15.128906 C 44.054688 15.140625 44.0625 15.152344 44.066406 15.164062 C 44.503906 16.1875 44.355469 17.375 43.65625 18.242188 C 43.390625 18.574219 43.109375 18.90625 42.808594 19.242188 C 42.644531 19.425781 42.476562 19.609375 42.300781 19.792969 C 41.453125 18.53125 39.863281 17.808594 38.15625 18.238281 C 36.480469 18.664062 35.335938 20.210938 35.34375 21.9375 C 35.34375 21.953125 35.34375 21.964844 35.34375 21.980469 C 35.382812 24.222656 34.230469 26.3125 32.28125 27.425781 C 31.761719 27.722656 31.234375 28.015625 30.699219 28.300781 C 29.773438 28.792969 29.28125 29.859375 29.566406 30.871094 C 29.953125 32.226562 31.488281 32.875 32.726562 32.21875 C 33.378906 31.871094 34.019531 31.515625 34.648438 31.152344 C 36.742188 29.945312 39.351562 31.492188 39.3125 33.90625 C 39.289062 35.183594 38.488281 36.316406 37.292969 36.769531 C 34.8125 37.710938 33.015625 40.0625 32.878906 42.824219 C 32.816406 44.179688 33.148438 45.453125 33.765625 46.542969 C 30.578125 48.425781 26.933594 49.621094 23.039062 49.921875 C 23.6875 49.972656 24.339844 50 25 50 C 38.808594 50 50 38.808594 50 25 C 50 11.191406 38.808594 0 25 0 Z M 25 0 "/>
<path style=" stroke:none;fill-rule:nonzero;fill:url(#linear3);" d="M 25.375 32.992188 C 24.890625 31.972656 23.710938 31.480469 22.648438 31.859375 C 17.871094 33.566406 13.214844 34.515625 9.191406 34.574219 C 9.0625 34.578125 8.9375 34.578125 8.808594 34.578125 C 5.242188 34.578125 2.511719 33.8125 1.136719 32.476562 C 1.8125 34.632812 2.773438 36.664062 3.972656 38.527344 C 5.421875 38.832031 7.035156 38.988281 8.800781 38.988281 C 8.953125 38.988281 9.105469 38.988281 9.257812 38.984375 C 13.746094 38.917969 18.886719 37.882812 24.113281 36.019531 C 25.347656 35.578125 25.9375 34.175781 25.375 32.992188 Z M 25.375 32.992188 "/>
<path style=" stroke:none;fill-rule:nonzero;fill:url(#linear4);" d="M 27.640625 44.007812 C 27.640625 41.90625 25.9375 40.203125 23.835938 40.203125 C 22.847656 40.203125 21.945312 40.582031 21.269531 41.203125 C 20.835938 40.40625 19.992188 39.867188 19.023438 39.867188 C 17.613281 39.867188 16.46875 41.011719 16.46875 42.421875 C 16.46875 43.832031 17.613281 44.976562 19.023438 44.976562 C 19.410156 44.976562 19.777344 44.890625 20.105469 44.734375 C 20.445312 46.484375 21.988281 47.808594 23.835938 47.808594 C 25.9375 47.808594 27.640625 46.105469 27.640625 44.007812 Z M 27.640625 44.007812 "/>
<path style=" stroke:none;fill-rule:nonzero;fill:url(#linear5);" d="M 4.769531 30.953125 C 4.769531 32.363281 5.914062 33.507812 7.324219 33.507812 C 8.734375 33.507812 9.878906 32.363281 9.878906 30.953125 C 9.878906 29.542969 8.734375 28.398438 7.324219 28.398438 C 5.914062 28.398438 4.769531 29.542969 4.769531 30.953125 Z M 4.769531 30.953125 "/>
<path style=" stroke:none;fill-rule:nonzero;fill:url(#linear6);" d="M 19.21875 22.46875 C 15.296875 24.871094 14.0625 30 16.460938 33.921875 L 21.742188 42.550781 C 23.628906 45.632812 27.65625 46.601562 30.738281 44.714844 L 39.367188 39.433594 C 43.289062 37.035156 44.523438 31.90625 42.121094 27.984375 C 39.722656 24.058594 34.59375 22.824219 30.671875 25.226562 C 28.269531 21.304688 23.140625 20.070312 19.21875 22.46875 Z M 19.21875 22.46875 "/>
<path style=" stroke:none;fill-rule:nonzero;fill:url(#linear7);" d="M 42.121094 27.984375 C 39.722656 24.058594 34.59375 22.824219 30.671875 25.226562 C 28.269531 21.304688 23.140625 20.070312 19.21875 22.46875 C 19.210938 22.476562 19.203125 22.480469 19.195312 22.484375 C 21.484375 22.363281 23.769531 23.195312 25.449219 24.832031 C 26.289062 25.648438 27.5 25.957031 28.617188 25.605469 C 32.175781 24.496094 36.164062 25.890625 38.199219 29.214844 C 40.601562 33.136719 39.367188 38.265625 35.441406 40.664062 L 27.253906 45.675781 C 28.441406 45.691406 29.648438 45.382812 30.738281 44.714844 L 39.367188 39.433594 C 43.289062 37.035156 44.523438 31.90625 42.121094 27.984375 Z M 42.121094 27.984375 "/>
</g>
</svg>
