<?xml version="1.0" encoding="UTF-8"?>
<svg xmlns="http://www.w3.org/2000/svg" xmlns:xlink="http://www.w3.org/1999/xlink" width="50" height="50" viewBox="0 0 50 50" version="1.1">
<g id="surface1">
<path style=" stroke:none;fill-rule:nonzero;fill:rgb(99.607843%,91.372549%,49.019608%);fill-opacity:1;" d="M 2.722656 34.171875 L 6.863281 38.902344 C 7.230469 37.878906 7.757812 36.742188 8.4375 35.511719 L 35.890625 8.230469 C 37.027344 7.621094 38.082031 7.148438 39.03125 6.816406 L 35.070312 2.296875 C 33.121094 3.1875 31.0625 4.324219 28.945312 5.683594 L 15.113281 15.417969 L 5.773438 28.808594 C 4.582031 30.652344 3.5625 32.449219 2.722656 34.171875 Z M 2.722656 34.171875 "/>
<path style=" stroke:none;fill-rule:nonzero;fill:rgb(99.215686%,72.54902%,49.411765%);fill-opacity:1;" d="M 44.019531 25.546875 L 38.503906 13.167969 L 38.503906 10.121094 C 36.84375 8.714844 34.957031 7.574219 32.902344 6.769531 L 32.144531 7.160156 L 26.078125 6.1875 L 25.699219 5.414062 C 14.691406 5.414062 5.769531 14.425781 5.769531 25.546875 C 5.769531 25.589844 5.769531 25.636719 5.769531 25.679688 L 6.519531 25.976562 L 7.742188 31.234375 L 7.171875 32.960938 L 7.167969 32.964844 C 7.980469 35.035156 9.125 36.9375 10.535156 38.605469 L 13.722656 38.414062 L 27.058594 43.511719 L 26.804688 45.644531 C 36.90625 45.085938 45.011719 36.910156 45.59375 26.710938 Z M 44.019531 25.546875 "/>
<path style=" stroke:none;fill-rule:nonzero;fill:rgb(99.607843%,79.215686%,61.176471%);fill-opacity:1;" d="M 38.503906 10.121094 C 30.703125 20.605469 21.414062 30.085938 10.621094 38.527344 L 10.53125 38.605469 L 13.722656 38.414062 L 27.058594 43.511719 L 26.804688 45.648438 L 27.390625 45.277344 C 35.179688 39.964844 41.285156 33.789062 45.582031 26.734375 L 45.59375 26.710938 C 45.617188 26.324219 45.628906 25.9375 45.628906 25.546875 C 45.628906 19.351562 42.859375 13.8125 38.503906 10.121094 Z M 38.503906 10.121094 "/>
<path style=" stroke:none;fill-rule:nonzero;fill:rgb(99.607843%,79.215686%,61.176471%);fill-opacity:1;" d="M 25.699219 5.414062 C 28.238281 5.414062 30.667969 5.894531 32.902344 6.769531 C 25.597656 16.367188 17.027344 25.105469 7.171875 32.960938 L 7.164062 32.964844 C 6.28125 30.707031 5.789062 28.25 5.769531 25.679688 C 13.175781 19.445312 19.816406 12.6875 25.699219 5.414062 Z M 25.699219 5.414062 "/>
<path style=" stroke:none;fill-rule:nonzero;fill:rgb(99.607843%,66.27451%,36.078431%);fill-opacity:1;" d="M 7.164062 32.964844 C 7.980469 35.035156 9.125 36.9375 10.53125 38.605469 L 12.726562 38.160156 L 26.433594 44.425781 L 26.804688 45.648438 C 31.660156 45.378906 36.042969 43.355469 39.359375 40.191406 C 37.886719 40.542969 36.359375 40.730469 34.777344 40.730469 C 23.773438 40.730469 14.847656 31.71875 14.847656 20.597656 C 14.847656 14.828125 17.257812 9.621094 21.109375 5.949219 C 12.316406 8.042969 5.769531 16.023438 5.769531 25.546875 C 5.769531 25.589844 5.769531 25.636719 5.769531 25.679688 L 6.519531 25.976562 L 7.742188 31.234375 L 7.171875 32.960938 Z M 7.164062 32.964844 "/>
<path style=" stroke:none;fill-rule:nonzero;fill:rgb(99.215686%,72.54902%,49.411765%);fill-opacity:1;" d="M 18.382812 32.046875 C 15.890625 34.269531 13.300781 36.433594 10.621094 38.527344 L 10.53125 38.605469 C 14.1875 42.933594 19.625 45.675781 25.699219 45.675781 C 26.070312 45.675781 26.4375 45.667969 26.804688 45.648438 L 27.390625 45.277344 C 29.539062 43.8125 31.558594 42.28125 33.449219 40.683594 C 27.203125 40.269531 21.746094 36.949219 18.382812 32.046875 Z M 18.382812 32.046875 "/>
<path style=" stroke:none;fill-rule:nonzero;fill:rgb(99.607843%,91.372549%,49.019608%);fill-opacity:1;" d="M 48.371094 1.628906 C 45.898438 -0.84375 40.988281 -0.40625 35.074219 2.296875 L 39.03125 6.816406 C 41.117188 6.09375 42.695312 6.074219 43.523438 6.902344 C 46.179688 9.558594 40.136719 19.910156 30.023438 30.023438 C 19.910156 40.136719 9.558594 46.179688 6.902344 43.523438 C 6.058594 42.675781 6.09375 41.050781 6.863281 38.902344 L 2.722656 34.171875 C -0.355469 40.488281 -0.96875 45.773438 1.628906 48.371094 C 6.519531 53.261719 20.949219 46.765625 33.859375 33.859375 C 46.765625 20.949219 53.261719 6.519531 48.371094 1.628906 Z M 48.371094 1.628906 "/>
<path style=" stroke:none;fill-rule:nonzero;fill:rgb(99.215686%,72.54902%,49.411765%);fill-opacity:1;" d="M 14.847656 20.597656 C 14.847656 19.40625 14.953125 18.238281 15.148438 17.101562 C 12.171875 20.0625 9.046875 22.921875 5.769531 25.679688 C 5.789062 28.25 6.28125 30.707031 7.164062 32.964844 L 7.171875 32.960938 C 10.066406 30.652344 12.851562 28.269531 15.523438 25.808594 C 15.085938 24.148438 14.847656 22.402344 14.847656 20.597656 Z M 14.847656 20.597656 "/>
</g>
</svg>
