<?xml version="1.0" encoding="UTF-8"?>
<svg xmlns="http://www.w3.org/2000/svg" xmlns:xlink="http://www.w3.org/1999/xlink" width="50" height="50" viewBox="0 0 50 50" version="1.1">
<defs>
<linearGradient id="linear0" gradientUnits="userSpaceOnUse" x1="31.724" y1="97.273" x2="140.522" y2="97.273" gradientTransform="matrix(0.098039,0,0,0.098039,0,0)">
<stop offset="0" style="stop-color:rgb(91.764706%,96.470588%,100%);stop-opacity:1;"/>
<stop offset="0.5213" style="stop-color:rgb(84.705882%,92.54902%,99.607843%);stop-opacity:1;"/>
<stop offset="1" style="stop-color:rgb(70.196078%,85.490196%,99.607843%);stop-opacity:1;"/>
</linearGradient>
<linearGradient id="linear1" gradientUnits="userSpaceOnUse" x1="9.724" y1="100.809" x2="116.41" y2="100.809" gradientTransform="matrix(0.098039,0,0,0.098039,0,0)">
<stop offset="0" style="stop-color:rgb(91.764706%,96.470588%,100%);stop-opacity:1;"/>
<stop offset="0.5213" style="stop-color:rgb(84.705882%,92.54902%,99.607843%);stop-opacity:1;"/>
<stop offset="1" style="stop-color:rgb(70.196078%,85.490196%,99.607843%);stop-opacity:1;"/>
</linearGradient>
<linearGradient id="linear2" gradientUnits="userSpaceOnUse" x1="36.099" y1="255.001" x2="473.904" y2="255.001" gradientTransform="matrix(0.098039,0,0,0.098039,0,0)">
<stop offset="0" style="stop-color:rgb(37.647059%,71.764706%,100%);stop-opacity:1;"/>
<stop offset="0.5857" style="stop-color:rgb(0.392157%,50.980392%,98.823529%);stop-opacity:1;"/>
<stop offset="1" style="stop-color:rgb(15.294118%,25.098039%,69.019608%);stop-opacity:1;"/>
</linearGradient>
<linearGradient id="linear3" gradientUnits="userSpaceOnUse" x1="-86.666" y1="187.928" x2="454.352" y2="187.928" gradientTransform="matrix(0.098039,0,0,0.098039,0,0)">
<stop offset="0" style="stop-color:rgb(37.647059%,71.764706%,100%);stop-opacity:1;"/>
<stop offset="0.5857" style="stop-color:rgb(0.392157%,50.980392%,98.823529%);stop-opacity:1;"/>
<stop offset="1" style="stop-color:rgb(15.294118%,25.098039%,69.019608%);stop-opacity:1;"/>
</linearGradient>
<linearGradient id="linear4" gradientUnits="userSpaceOnUse" x1="-86.666" y1="291.156" x2="454.352" y2="291.156" gradientTransform="matrix(0.098039,0,0,0.098039,0,0)">
<stop offset="0" style="stop-color:rgb(37.647059%,71.764706%,100%);stop-opacity:1;"/>
<stop offset="0.5857" style="stop-color:rgb(0.392157%,50.980392%,98.823529%);stop-opacity:1;"/>
<stop offset="1" style="stop-color:rgb(15.294118%,25.098039%,69.019608%);stop-opacity:1;"/>
</linearGradient>
<linearGradient id="linear5" gradientUnits="userSpaceOnUse" x1="-86.666" y1="85.576" x2="454.352" y2="85.576" gradientTransform="matrix(0.098039,0,0,0.098039,0,0)">
<stop offset="0" style="stop-color:rgb(37.647059%,71.764706%,100%);stop-opacity:1;"/>
<stop offset="0.5857" style="stop-color:rgb(0.392157%,50.980392%,98.823529%);stop-opacity:1;"/>
<stop offset="1" style="stop-color:rgb(15.294118%,25.098039%,69.019608%);stop-opacity:1;"/>
</linearGradient>
<linearGradient id="linear6" gradientUnits="userSpaceOnUse" x1="-86.66" y1="255.001" x2="454.349" y2="255.001" gradientTransform="matrix(0.098039,0,0,0.098039,0,0)">
<stop offset="0" style="stop-color:rgb(37.647059%,71.764706%,100%);stop-opacity:1;"/>
<stop offset="0.5857" style="stop-color:rgb(0.392157%,50.980392%,98.823529%);stop-opacity:1;"/>
<stop offset="1" style="stop-color:rgb(15.294118%,25.098039%,69.019608%);stop-opacity:1;"/>
</linearGradient>
<linearGradient id="linear7" gradientUnits="userSpaceOnUse" x1="-13.87" y1="255.003" x2="594.002" y2="255.003" gradientTransform="matrix(0.098039,0,0,0.098039,0,0)">
<stop offset="0" style="stop-color:rgb(91.764706%,96.470588%,100%);stop-opacity:1;"/>
<stop offset="0.5213" style="stop-color:rgb(84.705882%,92.54902%,99.607843%);stop-opacity:1;"/>
<stop offset="1" style="stop-color:rgb(70.196078%,85.490196%,99.607843%);stop-opacity:1;"/>
</linearGradient>
<linearGradient id="linear8" gradientUnits="userSpaceOnUse" x1="-1.999" y1="255.003" x2="384.106" y2="255.003" gradientTransform="matrix(0.098039,0,0,0.098039,0,0)">
<stop offset="0" style="stop-color:rgb(91.764706%,96.470588%,100%);stop-opacity:1;"/>
<stop offset="0.5213" style="stop-color:rgb(84.705882%,92.54902%,99.607843%);stop-opacity:1;"/>
<stop offset="1" style="stop-color:rgb(70.196078%,85.490196%,99.607843%);stop-opacity:1;"/>
</linearGradient>
<linearGradient id="linear9" gradientUnits="userSpaceOnUse" x1="-130.999" y1="321.141" x2="89.385" y2="321.141" gradientTransform="matrix(0.098039,0,0,0.098039,0,0)">
<stop offset="0" style="stop-color:rgb(91.764706%,96.470588%,100%);stop-opacity:1;"/>
<stop offset="0.5213" style="stop-color:rgb(84.705882%,92.54902%,99.607843%);stop-opacity:1;"/>
<stop offset="1" style="stop-color:rgb(70.196078%,85.490196%,99.607843%);stop-opacity:1;"/>
</linearGradient>
<linearGradient id="linear10" gradientUnits="userSpaceOnUse" x1="370.554" y1="440.277" x2="510.001" y2="440.277" gradientTransform="matrix(0.098039,0,0,0.098039,0,0)">
<stop offset="0" style="stop-color:rgb(91.764706%,96.470588%,100%);stop-opacity:1;"/>
<stop offset="0.5213" style="stop-color:rgb(84.705882%,92.54902%,99.607843%);stop-opacity:1;"/>
<stop offset="1" style="stop-color:rgb(70.196078%,85.490196%,99.607843%);stop-opacity:1;"/>
</linearGradient>
<linearGradient id="linear11" gradientUnits="userSpaceOnUse" x1="322.001" y1="440.277" x2="466.088" y2="440.277" gradientTransform="matrix(0.098039,0,0,0.098039,0,0)">
<stop offset="0" style="stop-color:rgb(91.764706%,96.470588%,100%);stop-opacity:1;"/>
<stop offset="0.5213" style="stop-color:rgb(84.705882%,92.54902%,99.607843%);stop-opacity:1;"/>
<stop offset="1" style="stop-color:rgb(70.196078%,85.490196%,99.607843%);stop-opacity:1;"/>
</linearGradient>
<linearGradient id="linear12" gradientUnits="userSpaceOnUse" x1="322.001" y1="438.751" x2="466.088" y2="438.751" gradientTransform="matrix(0.098039,0,0,0.098039,0,0)">
<stop offset="0" style="stop-color:rgb(91.764706%,96.470588%,100%);stop-opacity:1;"/>
<stop offset="0.5213" style="stop-color:rgb(84.705882%,92.54902%,99.607843%);stop-opacity:1;"/>
<stop offset="1" style="stop-color:rgb(70.196078%,85.490196%,99.607843%);stop-opacity:1;"/>
</linearGradient>
<linearGradient id="linear13" gradientUnits="userSpaceOnUse" x1="322.001" y1="409.251" x2="466.088" y2="409.251" gradientTransform="matrix(0.098039,0,0,0.098039,0,0)">
<stop offset="0" style="stop-color:rgb(91.764706%,96.470588%,100%);stop-opacity:1;"/>
<stop offset="0.5213" style="stop-color:rgb(84.705882%,92.54902%,99.607843%);stop-opacity:1;"/>
<stop offset="1" style="stop-color:rgb(70.196078%,85.490196%,99.607843%);stop-opacity:1;"/>
</linearGradient>
<linearGradient id="linear14" gradientUnits="userSpaceOnUse" x1="381.119" y1="26.054" x2="434.128" y2="26.054" gradientTransform="matrix(0.098039,0,0,0.098039,0,0)">
<stop offset="0" style="stop-color:rgb(91.764706%,96.470588%,100%);stop-opacity:1;"/>
<stop offset="0.5213" style="stop-color:rgb(84.705882%,92.54902%,99.607843%);stop-opacity:1;"/>
<stop offset="1" style="stop-color:rgb(70.196078%,85.490196%,99.607843%);stop-opacity:1;"/>
</linearGradient>
<linearGradient id="linear15" gradientUnits="userSpaceOnUse" x1="-12.162" y1="483.947" x2="40.848" y2="483.947" gradientTransform="matrix(0.098039,0,0,0.098039,0,0)">
<stop offset="0" style="stop-color:rgb(91.764706%,96.470588%,100%);stop-opacity:1;"/>
<stop offset="0.5213" style="stop-color:rgb(84.705882%,92.54902%,99.607843%);stop-opacity:1;"/>
<stop offset="1" style="stop-color:rgb(70.196078%,85.490196%,99.607843%);stop-opacity:1;"/>
</linearGradient>
</defs>
<g id="surface1">
<path style=" stroke:none;fill-rule:nonzero;fill:url(#linear0);" d="M 14.015625 9.535156 C 14.015625 12.246094 11.816406 14.445312 9.105469 14.445312 C 6.394531 14.445312 4.199219 12.246094 4.199219 9.535156 C 4.199219 6.824219 6.394531 4.628906 9.105469 4.628906 C 11.816406 4.628906 14.015625 6.824219 14.015625 9.535156 Z M 14.015625 9.535156 "/>
<path style=" stroke:none;fill-rule:nonzero;fill:url(#linear1);" d="M 4.898438 12.066406 C 6.730469 9.445312 9.007812 7.160156 11.621094 5.320312 C 13.054688 6.179688 14.015625 7.746094 14.015625 9.535156 C 14.015625 12.246094 11.816406 14.445312 9.105469 14.445312 C 7.320312 14.445312 5.757812 13.492188 4.898438 12.066406 Z M 4.898438 12.066406 "/>
<path style=" stroke:none;fill-rule:nonzero;fill:url(#linear2);" d="M 46.460938 25 C 46.460938 36.851562 36.851562 46.460938 25 46.460938 C 13.148438 46.460938 3.539062 36.851562 3.539062 25 C 3.539062 13.148438 13.148438 3.539062 25 3.539062 C 36.851562 3.539062 46.460938 13.148438 46.460938 25 Z M 46.460938 25 "/>
<path style=" stroke:none;fill-rule:nonzero;fill:url(#linear3);" d="M 9.804688 20.863281 C 10.515625 20.65625 11.230469 20.429688 11.945312 20.191406 C 13.109375 19.800781 13.730469 18.53125 13.324219 17.371094 L 13.320312 17.371094 C 12.925781 16.234375 11.6875 15.625 10.546875 16.007812 C 9.882812 16.230469 9.222656 16.441406 8.566406 16.632812 C 7.5625 16.929688 6.902344 17.890625 6.988281 18.933594 C 7.105469 20.320312 8.46875 21.257812 9.804688 20.863281 Z M 9.804688 20.863281 "/>
<path style=" stroke:none;fill-rule:nonzero;fill:url(#linear4);" d="M 16.484375 29.753906 C 16.484375 29.015625 16.316406 28.316406 16.015625 27.695312 C 17.421875 27.683594 18.554688 26.546875 18.554688 25.140625 C 18.554688 23.730469 17.414062 22.585938 16 22.585938 C 14.589844 22.585938 13.449219 23.730469 13.449219 25.140625 C 13.449219 25.203125 13.449219 25.261719 13.453125 25.324219 C 12.921875 25.117188 12.339844 25 11.734375 25 C 9.109375 25 6.980469 27.128906 6.980469 29.753906 C 6.980469 32.375 9.109375 34.503906 11.734375 34.503906 C 14.359375 34.503906 16.484375 32.375 16.484375 29.753906 Z M 16.484375 29.753906 "/>
<path style=" stroke:none;fill-rule:nonzero;fill:url(#linear5);" d="M 21.890625 8.390625 C 21.890625 9.800781 20.746094 10.945312 19.335938 10.945312 C 17.925781 10.945312 16.78125 9.800781 16.78125 8.390625 C 16.78125 6.980469 17.925781 5.835938 19.335938 5.835938 C 20.746094 5.835938 21.890625 6.980469 21.890625 8.390625 Z M 21.890625 8.390625 "/>
<path style=" stroke:none;fill-rule:nonzero;fill:url(#linear6);" d="M 25 3.539062 C 24.339844 3.539062 23.683594 3.570312 23.039062 3.628906 C 25.925781 3.84375 26.871094 7.574219 24.492188 9.175781 C 22.996094 10.179688 21.394531 11.140625 19.710938 12.042969 C 18.617188 12.625 18.171875 14.003906 18.726562 15.109375 C 19.097656 15.855469 19.839844 16.28125 20.613281 16.28125 C 20.945312 16.28125 21.289062 16.199219 21.605469 16.03125 C 23.691406 14.921875 25.664062 13.722656 27.492188 12.460938 C 28.550781 11.730469 29.992188 11.929688 30.820312 12.914062 C 31.21875 13.386719 31.410156 13.957031 31.410156 14.527344 C 31.410156 15.304688 31.050781 16.074219 30.363281 16.566406 C 29.453125 17.21875 28.496094 17.855469 27.5 18.472656 C 26.613281 19.019531 26.191406 20.101562 26.535156 21.085938 C 27.015625 22.453125 28.605469 22.972656 29.789062 22.238281 C 32.804688 20.375 35.496094 18.332031 37.738281 16.203125 C 38.757812 15.234375 40.425781 15.601562 40.953125 16.898438 C 40.960938 16.910156 40.964844 16.925781 40.96875 16.9375 C 41.261719 17.652344 41.113281 18.46875 40.589844 19.035156 C 39.984375 19.691406 39.207031 20.519531 38.804688 20.894531 C 36.621094 22.949219 33.957031 24.917969 30.953125 26.703125 C 30.5 25.007812 28.898438 23.78125 27.03125 23.898438 C 25.097656 24.027344 23.550781 25.621094 23.484375 27.558594 C 23.449219 28.519531 23.777344 29.40625 24.332031 30.089844 C 23.621094 30.402344 22.910156 30.699219 22.195312 30.976562 C 21.085938 31.414062 20.472656 32.636719 20.859375 33.765625 C 21.265625 34.957031 22.582031 35.5625 23.75 35.105469 C 24.855469 34.675781 25.964844 34.207031 27.070312 33.703125 C 33.1875 30.914062 38.578125 27.324219 42.484375 23.472656 C 42.519531 23.976562 42.539062 24.488281 42.539062 25 C 42.539062 25.503906 42.519531 26.003906 42.484375 26.5 C 39.445312 29.605469 35.269531 32.5625 30.488281 34.972656 C 24.902344 37.792969 19.210938 39.503906 14.429688 39.808594 C 14.351562 39.8125 14.273438 39.816406 14.195312 39.820312 C 12.160156 39.933594 10.402344 39.765625 9.046875 39.355469 C 10.824219 41.328125 12.960938 42.96875 15.359375 44.175781 C 16.867188 44.050781 18.4375 43.804688 20.054688 43.449219 C 24.050781 42.574219 28.3125 41.03125 32.484375 38.925781 C 32.511719 38.914062 32.542969 38.898438 32.570312 38.882812 C 34.445312 37.933594 36.078125 40.484375 34.4375 41.792969 C 31.25 44.332031 27.328125 45.980469 23.039062 46.371094 C 23.683594 46.429688 24.339844 46.460938 25 46.460938 C 36.851562 46.460938 46.460938 36.851562 46.460938 25 C 46.460938 13.148438 36.851562 3.539062 25 3.539062 Z M 33.714844 13.03125 C 32.304688 13.03125 31.160156 11.886719 31.160156 10.476562 C 31.160156 9.066406 32.304688 7.921875 33.714844 7.921875 C 35.125 7.921875 36.269531 9.066406 36.269531 10.476562 C 36.269531 11.886719 35.125 13.03125 33.714844 13.03125 Z M 38.882812 38.835938 C 37.472656 38.835938 36.328125 37.695312 36.328125 36.285156 C 36.328125 34.871094 37.472656 33.726562 38.882812 33.726562 C 40.292969 33.726562 41.4375 34.871094 41.4375 36.285156 C 41.4375 37.695312 40.292969 38.835938 38.882812 38.835938 Z M 38.882812 38.835938 "/>
<path style=" stroke:none;fill-rule:nonzero;fill:url(#linear7);" d="M 49.21875 12.78125 C 47.570312 9.511719 43.605469 7.804688 38.007812 7.929688 C 39.839844 9.328125 41.441406 11.015625 42.742188 12.921875 C 43.980469 13.332031 44.855469 13.960938 45.265625 14.773438 C 45.675781 15.585938 45.660156 16.660156 45.257812 17.898438 C 44.808594 19.289062 43.871094 20.882812 42.5 22.542969 C 42.449219 22.601562 42.398438 22.660156 42.351562 22.71875 C 39.265625 26.390625 34.503906 29.949219 28.917969 32.769531 C 23.335938 35.585938 17.644531 37.296875 12.859375 37.601562 C 12.785156 37.605469 12.707031 37.613281 12.628906 37.617188 C 10.476562 37.734375 8.640625 37.539062 7.257812 37.078125 C 6.019531 36.664062 5.144531 36.039062 4.734375 35.226562 C 4.324219 34.414062 4.339844 33.339844 4.742188 32.101562 C 3.996094 29.972656 3.578125 27.691406 3.542969 25.320312 C 0.113281 29.75 -0.867188 33.953125 0.78125 37.21875 C 2.375 40.378906 6.125 42.078125 11.425781 42.078125 C 11.613281 42.078125 11.800781 42.074219 11.992188 42.070312 C 12.28125 42.066406 12.574219 42.054688 12.871094 42.039062 C 14.652344 41.941406 16.539062 41.671875 18.488281 41.242188 C 22.480469 40.367188 26.742188 38.828125 30.914062 36.722656 C 35.085938 34.617188 38.859375 32.105469 41.933594 29.414062 C 43.4375 28.097656 44.777344 26.742188 45.910156 25.363281 C 46.101562 25.136719 46.285156 24.910156 46.457031 24.679688 C 48.800781 21.65625 50 18.738281 50 16.148438 C 50 14.945312 49.742188 13.816406 49.21875 12.78125 Z M 49.21875 12.78125 "/>
<path style=" stroke:none;fill-rule:nonzero;fill:url(#linear8);" d="M 50 16.148438 C 50 18.738281 48.800781 21.65625 46.457031 24.679688 C 46.285156 24.910156 46.101562 25.136719 45.910156 25.363281 C 44.777344 26.742188 43.4375 28.097656 41.933594 29.414062 C 38.859375 32.105469 35.085938 34.617188 30.914062 36.722656 C 26.742188 38.828125 22.480469 40.367188 18.488281 41.242188 C 16.539062 41.671875 14.652344 41.941406 12.871094 42.039062 C 12.574219 42.054688 12.28125 42.066406 11.992188 42.070312 C 11.800781 42.074219 11.613281 42.078125 11.425781 42.078125 C 10.769531 42.078125 10.132812 42.050781 9.523438 42 C 10.207031 41.949219 10.902344 41.875 11.613281 41.773438 C 12.574219 41.640625 13.5625 41.464844 14.5625 41.242188 C 18.558594 40.367188 22.820312 38.828125 26.992188 36.722656 C 31.160156 34.617188 34.933594 32.105469 38.011719 29.414062 C 39.515625 28.097656 40.851562 26.742188 41.988281 25.363281 C 43.792969 23.179688 45.011719 21.042969 45.621094 19.035156 C 45.921875 18.035156 46.078125 17.070312 46.078125 16.148438 C 46.078125 14.945312 45.816406 13.816406 45.296875 12.78125 C 44.113281 10.4375 41.742188 8.898438 38.429688 8.257812 C 38.292969 8.148438 38.152344 8.039062 38.007812 7.929688 C 43.605469 7.804688 47.570312 9.511719 49.21875 12.78125 C 49.742188 13.816406 50 14.945312 50 16.148438 Z M 50 16.148438 "/>
<path style=" stroke:none;fill-rule:nonzero;fill:url(#linear9);" d="M 7.257812 37.078125 C 6.019531 36.664062 5.144531 36.039062 4.734375 35.226562 C 4.324219 34.414062 4.339844 33.339844 4.742188 32.101562 C 4.390625 31.097656 4.109375 30.058594 3.910156 28.996094 C 3.6875 27.800781 3.558594 26.574219 3.542969 25.320312 C 2.667969 26.449219 1.953125 27.566406 1.398438 28.65625 C 1.496094 29.226562 1.617188 29.789062 1.757812 30.339844 C 2.023438 31.371094 2.082031 32.441406 1.996094 33.5 C 1.941406 34.15625 2.035156 34.738281 2.28125 35.226562 C 2.957031 36.5625 4.886719 37.398438 7.625 37.601562 C 8.433594 37.660156 9.308594 37.667969 10.242188 37.613281 C 9.101562 37.539062 8.097656 37.359375 7.257812 37.078125 Z M 7.257812 37.078125 "/>
<path style=" stroke:none;fill-rule:nonzero;fill:url(#linear10);" d="M 50 43.164062 C 50 46.941406 46.941406 50 43.164062 50 C 39.390625 50 36.328125 46.941406 36.328125 43.164062 C 36.328125 39.390625 39.390625 36.328125 43.164062 36.328125 C 46.941406 36.328125 50 39.390625 50 43.164062 Z M 50 43.164062 "/>
<path style=" stroke:none;fill-rule:nonzero;fill:url(#linear11);" d="M 43.164062 36.328125 C 42.746094 36.328125 42.335938 36.367188 41.9375 36.441406 C 45.128906 37.019531 47.546875 39.808594 47.546875 43.164062 C 47.546875 44.257812 47.289062 45.289062 46.832031 46.207031 C 46.601562 45.164062 45.644531 44.398438 44.519531 44.464844 C 43.425781 44.53125 42.523438 45.410156 42.433594 46.5 C 42.386719 47.074219 42.558594 47.609375 42.871094 48.027344 C 43.371094 48.691406 43.019531 49.652344 42.207031 49.832031 C 42.121094 49.851562 42.027344 49.871094 41.9375 49.886719 C 42.335938 49.960938 42.746094 50 43.164062 50 C 46.941406 50 50 46.941406 50 43.164062 C 50 39.390625 46.941406 36.328125 43.164062 36.328125 Z M 43.164062 36.328125 "/>
<path style=" stroke:none;fill-rule:nonzero;fill:url(#linear12);" d="M 41.152344 43.015625 C 41.152344 43.8125 40.507812 44.460938 39.707031 44.460938 C 38.910156 44.460938 38.261719 43.8125 38.261719 43.015625 C 38.261719 42.214844 38.910156 41.570312 39.707031 41.570312 C 40.507812 41.570312 41.152344 42.214844 41.152344 43.015625 Z M 41.152344 43.015625 "/>
<path style=" stroke:none;fill-rule:nonzero;fill:url(#linear13);" d="M 45.558594 40.121094 C 45.558594 40.921875 44.910156 41.570312 44.113281 41.570312 C 43.3125 41.570312 42.667969 40.921875 42.667969 40.121094 C 42.667969 39.324219 43.3125 38.675781 44.113281 38.675781 C 44.910156 38.675781 45.558594 39.324219 45.558594 40.121094 Z M 45.558594 40.121094 "/>
<path style=" stroke:none;fill-rule:nonzero;fill:url(#linear14);" d="M 43.664062 2.554688 C 43.664062 3.964844 42.523438 5.109375 41.109375 5.109375 C 39.699219 5.109375 38.558594 3.964844 38.558594 2.554688 C 38.558594 1.144531 39.699219 0 41.109375 0 C 42.523438 0 43.664062 1.144531 43.664062 2.554688 Z M 43.664062 2.554688 "/>
<path style=" stroke:none;fill-rule:nonzero;fill:url(#linear15);" d="M 5.109375 47.445312 C 5.109375 48.855469 3.964844 50 2.554688 50 C 1.144531 50 0 48.855469 0 47.445312 C 0 46.035156 1.144531 44.890625 2.554688 44.890625 C 3.964844 44.890625 5.109375 46.035156 5.109375 47.445312 Z M 5.109375 47.445312 "/>
</g>
</svg>
