<?xml version="1.0" encoding="UTF-8"?>
<svg xmlns="http://www.w3.org/2000/svg" xmlns:xlink="http://www.w3.org/1999/xlink" width="50" height="50" viewBox="0 0 50 50" version="1.1">
<g id="surface1">
<path style=" stroke:none;fill-rule:nonzero;fill:rgb(41.568627%,86.666667%,78.039216%);fill-opacity:1;" d="M 33.320312 23.871094 L 33.324219 23.847656 C 36.515625 24.4375 42.699219 22.480469 45.644531 21.242188 C 46.5625 20.617188 47.410156 19.902344 48.183594 19.101562 C 48.773438 21.421875 49.015625 23.816406 48.898438 26.207031 C 46.5625 27.765625 43.953125 28.871094 41.210938 29.472656 L 41.164062 29.445312 C 36.085938 31.007812 28.074219 28.113281 24.953125 26.804688 L 24.945312 26.816406 C 23.722656 26.085938 22.570312 25.242188 21.507812 24.292969 C 19.847656 22.816406 20.347656 20.101562 22.421875 19.300781 L 22.429688 19.296875 C 23.496094 18.890625 24.707031 19.125 25.542969 19.910156 C 26.335938 20.652344 27.195312 21.375 27.929688 21.8125 C 28.765625 22.304688 31.464844 23.472656 33.320312 23.871094 Z M 33.320312 23.871094 "/>
<path style=" stroke:none;fill-rule:nonzero;fill:rgb(63.529412%,40.392157%,95.686275%);fill-opacity:1;" d="M 24.945312 26.816406 L 24.953125 26.804688 C 28.074219 28.113281 36.085938 31.007812 41.164062 29.445312 L 41.210938 29.472656 C 43.953125 28.871094 46.5625 27.765625 48.894531 26.207031 C 48.785156 28.484375 48.34375 30.738281 47.585938 32.890625 C 44.757812 34.613281 37.96875 35.523438 34.71875 35.792969 L 34.707031 35.773438 C 34.132812 35.761719 30.585938 35.410156 29.03125 35.265625 C 26.105469 34.8125 24.019531 34.203125 23.628906 34.046875 C 22.183594 33.457031 20.535156 34.128906 19.914062 35.558594 C 19.292969 36.988281 19.925781 38.652344 21.339844 39.308594 C 21.851562 39.546875 22.773438 39.84375 23.996094 40.140625 L 23.988281 40.1875 C 26.515625 40.570312 33.046875 41.449219 36.101562 41.316406 L 36.105469 41.355469 C 37.738281 41.152344 42.0625 40.5625 43.578125 40.078125 C 41.308594 42.878906 38.433594 45.128906 35.167969 46.65625 C 35.167969 46.65625 28.625 45.308594 25.046875 44.484375 L 25 44.511719 C 23.226562 43.976562 21.578125 43.339844 20.421875 42.617188 C 20.230469 42.496094 20.003906 42.433594 19.777344 42.433594 C 19.398438 42.4375 19.03125 42.59375 18.761719 42.863281 C 18.441406 43.183594 18.296875 43.636719 18.367188 44.085938 C 18.441406 44.53125 18.722656 44.917969 19.128906 45.121094 C 22.386719 46.738281 25.859375 47.878906 29.4375 48.507812 C 22.519531 49.8125 15.371094 48.003906 9.90625 43.558594 C 4.441406 39.113281 1.210938 32.488281 1.078125 25.445312 L 1.152344 25.445312 C 1.152344 25.445312 1.671875 26.972656 2.914062 29.257812 C 3.203125 29.789062 3.757812 30.121094 4.363281 30.125 C 4.96875 30.125 5.53125 29.800781 5.824219 29.269531 C 6.121094 28.738281 6.101562 28.089844 5.78125 27.578125 C 3.691406 24.230469 2.027344 18.308594 2.027344 18.308594 C 2.59375 16.375 3.398438 14.519531 4.429688 12.789062 C 4.527344 12.625 4.625 12.464844 4.726562 12.308594 C 4.707031 13.167969 4.765625 14.027344 4.894531 14.878906 L 4.929688 14.894531 C 5.480469 17.347656 6.703125 22.066406 7.511719 24.238281 C 7.875 25.210938 8.886719 25.785156 9.910156 25.601562 C 10.933594 25.414062 11.679688 24.523438 11.679688 23.484375 C 11.679688 23.144531 11.601562 22.8125 11.445312 22.515625 C 11.15625 21.949219 9.5625 17.195312 9.179688 16.191406 C 9.113281 15.878906 9.050781 15.5625 8.992188 15.25 C 8.863281 14.519531 8.765625 13.789062 8.695312 13.050781 C 8.523438 11.167969 8.558594 9.269531 8.796875 7.394531 C 10.46875 5.851562 12.351562 4.5625 14.390625 3.558594 C 14.15625 4.847656 14.035156 6.15625 14.03125 7.46875 C 13.996094 9.15625 15.335938 10.550781 17.023438 10.585938 C 18.710938 10.621094 20.105469 9.28125 20.140625 7.59375 C 20.164062 6.949219 20.492188 4.078125 20.554688 3.371094 L 20.558594 3.335938 C 20.675781 2.671875 20.855469 2.023438 21.097656 1.398438 C 22.976562 1.085938 24.882812 1 26.78125 1.140625 C 26.511719 2.046875 26.359375 2.984375 26.332031 3.929688 L 26.320312 3.957031 C 26.421875 4.753906 26.710938 7.246094 26.984375 8.003906 C 27.429688 9.242188 28.773438 9.90625 30.027344 9.515625 C 31.285156 9.125 32.007812 7.8125 31.671875 6.542969 C 31.21875 4.699219 31.765625 2.851562 32.15625 2.195312 L 32.164062 2.171875 C 35.703125 3.289062 38.9375 5.207031 41.613281 7.78125 L 41.597656 7.800781 C 41.101562 8.636719 38.625 9.945312 37.84375 10.402344 C 37.246094 10.507812 36.636719 10.515625 36.039062 10.425781 C 35.007812 10.253906 33.992188 10.808594 33.574219 11.765625 L 33.511719 11.914062 C 33.242188 12.546875 33.269531 13.265625 33.59375 13.871094 C 33.914062 14.480469 34.492188 14.90625 35.167969 15.039062 C 35.835938 15.171875 36.515625 15.242188 37.199219 15.25 C 37.222656 15.199219 37.25 15.152344 37.277344 15.101562 C 38.050781 13.796875 39.738281 13.367188 41.039062 14.144531 C 41.183594 14.230469 41.320312 14.328125 41.445312 14.4375 C 42.816406 13.882812 44.054688 13.058594 45.09375 12.011719 C 46.5 14.191406 47.542969 16.585938 48.183594 19.101562 C 47.410156 19.902344 46.5625 20.617188 45.644531 21.246094 C 42.699219 22.480469 36.515625 24.441406 33.324219 23.847656 L 33.320312 23.871094 C 31.464844 23.476562 28.765625 22.304688 27.929688 21.8125 C 27.195312 21.375 26.335938 20.652344 25.542969 19.910156 C 24.707031 19.125 23.496094 18.890625 22.429688 19.300781 L 22.421875 19.300781 C 20.347656 20.101562 19.847656 22.816406 21.507812 24.296875 C 22.570312 25.242188 23.722656 26.085938 24.945312 26.816406 Z M 14.09375 41.085938 C 14.421875 40.761719 14.59375 40.316406 14.578125 39.855469 C 14.558594 39.394531 14.351562 38.964844 14 38.664062 C 13.101562 37.898438 12.269531 37.117188 11.496094 36.332031 C 11.183594 36.011719 9.328125 33.867188 9.035156 33.546875 L 9.023438 33.554688 C 8.449219 32.859375 7.421875 32.757812 6.71875 33.324219 C 6.019531 33.894531 5.90625 34.917969 6.46875 35.625 C 7.070312 36.382812 7.726562 37.15625 8.445312 37.929688 L 8.449219 37.9375 C 8.898438 38.359375 11.378906 40.773438 11.867188 41.183594 C 12.523438 41.734375 13.488281 41.691406 14.09375 41.085938 Z M 14.09375 41.085938 "/>
<path style=" stroke:none;fill-rule:nonzero;fill:rgb(41.568627%,86.666667%,78.039216%);fill-opacity:1;" d="M 29.03125 35.265625 C 30.585938 35.410156 34.132812 35.761719 34.707031 35.773438 L 34.71875 35.789062 C 37.96875 35.523438 44.757812 34.613281 47.585938 32.890625 C 46.671875 35.5 45.3125 37.929688 43.578125 40.074219 C 42.0625 40.5625 37.738281 41.152344 36.105469 41.355469 L 36.101562 41.316406 C 33.046875 41.449219 26.515625 40.570312 23.988281 40.1875 L 23.996094 40.140625 C 22.773438 39.84375 21.851562 39.546875 21.339844 39.308594 C 19.925781 38.652344 19.292969 36.988281 19.914062 35.558594 C 20.535156 34.128906 22.183594 33.457031 23.628906 34.046875 C 24.019531 34.203125 26.105469 34.8125 29.027344 35.265625 Z M 29.03125 35.265625 "/>
<path style=" stroke:none;fill-rule:nonzero;fill:rgb(41.568627%,86.666667%,78.039216%);fill-opacity:1;" d="M 37.84375 10.402344 L 37.84375 10.398438 C 38.625 9.945312 41.101562 8.632812 41.597656 7.800781 L 41.613281 7.78125 C 42.933594 9.050781 44.101562 10.472656 45.09375 12.011719 C 44.054688 13.058594 42.816406 13.882812 41.445312 14.4375 C 41.320312 14.328125 41.183594 14.230469 41.039062 14.144531 C 39.738281 13.367188 38.050781 13.796875 37.277344 15.101562 C 37.25 15.148438 37.222656 15.199219 37.199219 15.246094 C 36.515625 15.242188 35.835938 15.171875 35.167969 15.039062 C 34.492188 14.90625 33.914062 14.480469 33.59375 13.871094 C 33.269531 13.265625 33.242188 12.546875 33.511719 11.914062 L 33.574219 11.765625 C 33.992188 10.808594 35.007812 10.253906 36.039062 10.425781 C 36.636719 10.515625 37.246094 10.507812 37.839844 10.402344 Z M 37.84375 10.402344 "/>
<path style=" stroke:none;fill-rule:nonzero;fill:rgb(41.568627%,86.666667%,78.039216%);fill-opacity:1;" d="M 32.164062 2.171875 L 32.15625 2.195312 C 31.765625 2.851562 31.21875 4.699219 31.671875 6.539062 C 32.007812 7.8125 31.285156 9.125 30.027344 9.515625 C 28.773438 9.90625 27.429688 9.242188 26.984375 8.003906 C 26.710938 7.246094 26.421875 4.753906 26.320312 3.953125 L 26.332031 3.929688 C 26.359375 2.984375 26.511719 2.046875 26.78125 1.140625 C 28.609375 1.273438 30.414062 1.621094 32.164062 2.171875 Z M 32.164062 2.171875 "/>
<path style=" stroke:none;fill-rule:nonzero;fill:rgb(41.568627%,86.666667%,78.039216%);fill-opacity:1;" d="M 25.046875 44.484375 C 28.625 45.304688 35.167969 46.65625 35.167969 46.65625 C 33.34375 47.511719 31.417969 48.132812 29.441406 48.507812 C 25.859375 47.878906 22.386719 46.738281 19.128906 45.121094 C 18.722656 44.917969 18.441406 44.53125 18.367188 44.085938 C 18.296875 43.636719 18.441406 43.183594 18.765625 42.863281 C 19.03125 42.59375 19.398438 42.4375 19.777344 42.433594 C 20.003906 42.433594 20.230469 42.496094 20.421875 42.617188 C 21.578125 43.339844 23.222656 43.976562 25 44.511719 Z M 25.046875 44.484375 "/>
<path style=" stroke:none;fill-rule:nonzero;fill:rgb(41.568627%,86.666667%,78.039216%);fill-opacity:1;" d="M 21.101562 1.398438 C 20.855469 2.023438 20.675781 2.671875 20.558594 3.332031 L 20.554688 3.367188 C 20.492188 4.078125 20.164062 6.949219 20.140625 7.59375 C 20.082031 9.261719 18.695312 10.578125 17.023438 10.542969 C 15.351562 10.507812 14.019531 9.140625 14.027344 7.46875 C 14.035156 6.15625 14.15625 4.847656 14.390625 3.558594 C 16.507812 2.511719 18.769531 1.785156 21.097656 1.398438 Z M 21.101562 1.398438 "/>
<path style=" stroke:none;fill-rule:nonzero;fill:rgb(41.568627%,86.666667%,78.039216%);fill-opacity:1;" d="M 9.023438 33.554688 L 9.035156 33.546875 C 9.328125 33.867188 11.183594 36.011719 11.496094 36.332031 C 12.269531 37.117188 13.101562 37.898438 14 38.664062 C 14.679688 39.257812 14.757812 40.285156 14.175781 40.976562 C 13.59375 41.664062 12.566406 41.757812 11.867188 41.183594 C 11.378906 40.773438 8.898438 38.359375 8.449219 37.9375 L 8.445312 37.929688 C 7.726562 37.15625 7.070312 36.382812 6.46875 35.625 C 5.90625 34.917969 6.019531 33.894531 6.71875 33.324219 C 7.421875 32.757812 8.449219 32.859375 9.023438 33.550781 Z M 9.023438 33.554688 "/>
<path style=" stroke:none;fill-rule:nonzero;fill:rgb(41.568627%,86.666667%,78.039216%);fill-opacity:1;" d="M 9.179688 16.191406 C 9.5625 17.195312 11.15625 21.945312 11.445312 22.515625 C 11.601562 22.8125 11.679688 23.144531 11.679688 23.484375 C 11.679688 24.523438 10.933594 25.414062 9.910156 25.601562 C 8.886719 25.785156 7.875 25.210938 7.511719 24.234375 C 6.703125 22.066406 5.480469 17.347656 4.933594 14.890625 L 4.894531 14.878906 C 4.765625 14.027344 4.707031 13.167969 4.726562 12.308594 C 5.855469 10.492188 7.226562 8.839844 8.796875 7.390625 L 8.800781 7.394531 C 8.558594 9.269531 8.523438 11.167969 8.695312 13.050781 C 8.765625 13.789062 8.863281 14.519531 8.992188 15.25 C 9.050781 15.5625 9.113281 15.878906 9.179688 16.191406 Z M 9.179688 16.191406 "/>
<path style=" stroke:none;fill-rule:nonzero;fill:rgb(41.568627%,86.666667%,78.039216%);fill-opacity:1;" d="M 6.03125 28.460938 C 6.03125 29.222656 5.515625 29.886719 4.78125 30.070312 C 4.042969 30.257812 3.273438 29.921875 2.914062 29.257812 C 1.671875 26.972656 1.152344 25.441406 1.152344 25.441406 L 1.078125 25.445312 C 1.03125 23.03125 1.351562 20.625 2.027344 18.308594 C 2.027344 18.308594 3.6875 24.226562 5.78125 27.578125 C 5.945312 27.84375 6.03125 28.148438 6.035156 28.460938 Z M 6.03125 28.460938 "/>
<path style=" stroke:none;fill-rule:nonzero;fill:rgb(93.333333%,87.843137%,31.764706%);fill-opacity:1;" d="M 21.582031 15.039062 C 21.582031 16.820312 20.140625 18.261719 18.359375 18.261719 C 16.578125 18.261719 15.136719 16.820312 15.136719 15.039062 C 15.136719 13.257812 16.578125 11.816406 18.359375 11.816406 C 20.140625 11.816406 21.582031 13.257812 21.582031 15.039062 Z M 21.582031 15.039062 "/>
<path style=" stroke:none;fill-rule:nonzero;fill:rgb(93.333333%,87.843137%,31.764706%);fill-opacity:1;" d="M 16.601562 30.566406 C 16.601562 31.859375 15.550781 32.910156 14.257812 32.910156 C 12.964844 32.910156 11.914062 31.859375 11.914062 30.566406 C 11.914062 29.273438 12.964844 28.222656 14.257812 28.222656 C 15.550781 28.222656 16.601562 29.273438 16.601562 30.566406 Z M 16.601562 30.566406 "/>
<path style=" stroke:none;fill-rule:nonzero;fill:rgb(93.333333%,87.843137%,31.764706%);fill-opacity:1;" d="M 42.480469 16.699219 C 42.480469 18.210938 41.257812 19.433594 39.746094 19.433594 C 38.234375 19.433594 37.011719 18.210938 37.011719 16.699219 C 37.011719 15.1875 38.234375 13.964844 39.746094 13.964844 C 41.257812 13.964844 42.480469 15.1875 42.480469 16.699219 Z M 42.480469 16.699219 "/>
<path style=" stroke:none;fill-rule:nonzero;fill:rgb(84.313725%,62.352941%,100%);fill-opacity:1;" d="M 12.3125 7.882812 C 12.875 7.363281 13.457031 6.878906 14.058594 6.421875 C 14.109375 5.460938 14.21875 4.503906 14.390625 3.554688 C 12.351562 4.5625 10.46875 5.851562 8.796875 7.390625 L 8.796875 7.394531 C 8.59375 8.984375 8.539062 10.589844 8.632812 12.1875 C 9.683594 10.609375 10.917969 9.164062 12.3125 7.882812 Z M 12.3125 7.882812 "/>
<path style=" stroke:none;fill-rule:nonzero;fill:rgb(84.313725%,62.352941%,100%);fill-opacity:1;" d="M 5.730469 18.183594 C 5.410156 16.945312 5.128906 15.773438 4.933594 14.890625 L 4.894531 14.878906 C 4.765625 14.027344 4.707031 13.167969 4.726562 12.308594 C 4.625 12.464844 4.527344 12.625 4.429688 12.789062 C 3.398438 14.519531 2.59375 16.375 2.027344 18.308594 C 2.027344 18.308594 3.09375 22.105469 4.589844 25.335938 C 4.601562 23.125 4.921875 20.921875 5.542969 18.796875 C 5.601562 18.589844 5.664062 18.386719 5.730469 18.183594 Z M 5.730469 18.183594 "/>
<path style=" stroke:none;fill-rule:nonzero;fill:rgb(84.313725%,62.352941%,100%);fill-opacity:1;" d="M 5.019531 29.992188 C 4.234375 30.328125 3.320312 30.007812 2.910156 29.257812 C 1.671875 26.972656 1.148438 25.441406 1.148438 25.441406 L 1.078125 25.445312 C 1.316406 37.882812 11.042969 48.066406 23.457031 48.875 C 14.085938 46.835938 6.832031 39.410156 5.019531 29.992188 Z M 5.019531 29.992188 "/>
<path style=" stroke:none;fill-rule:nonzero;fill:rgb(84.313725%,62.352941%,100%);fill-opacity:1;" d="M 26.648438 1.636719 C 26.6875 1.472656 26.730469 1.304688 26.78125 1.140625 C 24.882812 1 22.976562 1.085938 21.101562 1.398438 C 20.90625 1.882812 20.757812 2.386719 20.648438 2.898438 C 21.941406 2.449219 23.265625 2.109375 24.613281 1.886719 C 25.289062 1.773438 25.964844 1.691406 26.648438 1.636719 Z M 26.648438 1.636719 "/>
<path style=" stroke:none;fill-rule:nonzero;fill:rgb(52.156863%,100%,90.980392%);fill-opacity:1;" d="M 4.929688 14.890625 C 5.128906 15.773438 5.410156 16.945312 5.730469 18.183594 C 6.28125 16.46875 7.027344 14.824219 7.945312 13.277344 C 8.042969 13.113281 8.140625 12.953125 8.242188 12.796875 C 8.367188 12.589844 8.5 12.386719 8.632812 12.1875 C 8.539062 10.589844 8.59375 8.984375 8.796875 7.394531 L 8.796875 7.390625 C 7.226562 8.839844 5.855469 10.492188 4.726562 12.308594 C 4.707031 13.167969 4.765625 14.027344 4.894531 14.878906 Z M 4.929688 14.890625 "/>
<path style=" stroke:none;fill-rule:nonzero;fill:rgb(52.156863%,100%,90.980392%);fill-opacity:1;" d="M 14.058594 6.421875 C 16.058594 4.910156 18.28125 3.71875 20.648438 2.898438 C 20.757812 2.386719 20.90625 1.882812 21.097656 1.398438 C 18.769531 1.785156 16.507812 2.511719 14.390625 3.554688 C 14.21875 4.503906 14.109375 5.460938 14.058594 6.421875 Z M 14.058594 6.421875 "/>
<path style=" stroke:none;fill-rule:nonzero;fill:rgb(52.156863%,100%,90.980392%);fill-opacity:1;" d="M 5.019531 29.992188 C 4.765625 28.652344 4.621094 27.296875 4.59375 25.933594 C 4.589844 25.734375 4.589844 25.535156 4.589844 25.335938 C 3.09375 22.105469 2.027344 18.308594 2.027344 18.308594 C 1.351562 20.625 1.03125 23.03125 1.078125 25.445312 L 1.148438 25.441406 C 1.148438 25.441406 1.671875 26.972656 2.914062 29.257812 C 3.320312 30.007812 4.234375 30.328125 5.023438 29.992188 Z M 5.019531 29.992188 "/>
<path style=" stroke:none;fill-rule:nonzero;fill:rgb(50.588235%,30.588235%,81.960784%);fill-opacity:1;" d="M 37.199219 15.835938 L 37.195312 15.835938 C 36.476562 15.828125 35.757812 15.753906 35.050781 15.613281 C 34.203125 15.449219 33.476562 14.90625 33.074219 14.144531 C 32.667969 13.382812 32.632812 12.476562 32.972656 11.683594 L 33.035156 11.535156 C 33.5625 10.332031 34.832031 9.636719 36.128906 9.84375 C 36.664062 9.925781 37.210938 9.921875 37.742188 9.824219 C 38.0625 9.765625 38.367188 9.976562 38.421875 10.296875 C 38.480469 10.617188 38.269531 10.921875 37.949219 10.976562 C 37.289062 11.097656 36.613281 11.105469 35.949219 11.003906 C 35.183594 10.878906 34.425781 11.285156 34.113281 11.996094 L 34.050781 12.144531 C 33.847656 12.609375 33.867188 13.140625 34.105469 13.589844 C 34.34375 14.042969 34.777344 14.367188 35.28125 14.464844 C 35.914062 14.589844 36.558594 14.65625 37.207031 14.664062 C 37.527344 14.664062 37.789062 14.925781 37.789062 15.25 C 37.789062 15.574219 37.523438 15.835938 37.199219 15.835938 Z M 37.199219 15.835938 "/>
<path style=" stroke:none;fill-rule:nonzero;fill:rgb(50.588235%,30.588235%,81.960784%);fill-opacity:1;" d="M 37.078125 18.078125 C 36.835938 18.078125 36.617188 17.929688 36.53125 17.703125 C 36.085938 16.550781 36.316406 15.242188 37.128906 14.3125 C 37.945312 13.378906 39.207031 12.976562 40.410156 13.265625 C 41.617188 13.550781 42.5625 14.480469 42.867188 15.679688 C 42.945312 15.992188 42.753906 16.3125 42.441406 16.390625 C 42.128906 16.46875 41.8125 16.28125 41.730469 15.96875 C 41.53125 15.191406 40.921875 14.589844 40.140625 14.402344 C 39.359375 14.21875 38.539062 14.480469 38.011719 15.082031 C 37.484375 15.6875 37.335938 16.535156 37.625 17.28125 C 37.695312 17.460938 37.671875 17.664062 37.5625 17.824219 C 37.453125 17.984375 37.269531 18.078125 37.078125 18.078125 Z M 37.078125 18.078125 "/>
<path style=" stroke:none;fill-rule:nonzero;fill:rgb(50.588235%,30.588235%,81.960784%);fill-opacity:1;" d="M 39.640625 19.835938 C 39.039062 19.835938 38.453125 19.675781 37.9375 19.367188 C 37.660156 19.203125 37.566406 18.84375 37.734375 18.566406 C 37.898438 18.285156 38.257812 18.195312 38.535156 18.359375 C 39.433594 18.894531 40.582031 18.710938 41.265625 17.921875 C 41.402344 17.765625 41.617188 17.691406 41.820312 17.730469 C 42.027344 17.769531 42.195312 17.917969 42.265625 18.117188 C 42.332031 18.3125 42.289062 18.535156 42.152344 18.691406 C 41.519531 19.417969 40.601562 19.835938 39.640625 19.835938 Z M 39.640625 19.835938 "/>
<path style=" stroke:none;fill-rule:nonzero;fill:rgb(50.588235%,30.588235%,81.960784%);fill-opacity:1;" d="M 36.335938 24.710938 C 35.289062 24.710938 34.246094 24.613281 33.21875 24.421875 C 32.898438 24.363281 32.691406 24.058594 32.75 23.738281 C 32.808594 23.421875 33.113281 23.210938 33.433594 23.269531 C 36.488281 23.839844 39.644531 23.496094 42.507812 22.289062 C 42.808594 22.164062 43.152344 22.304688 43.277344 22.601562 C 43.402344 22.898438 43.261719 23.242188 42.964844 23.367188 C 40.867188 24.253906 38.613281 24.710938 36.335938 24.710938 Z M 36.335938 24.710938 "/>
<path style=" stroke:none;fill-rule:nonzero;fill:rgb(50.588235%,30.588235%,81.960784%);fill-opacity:1;" d="M 24.996094 27.433594 C 24.890625 27.433594 24.789062 27.40625 24.699219 27.351562 C 23.425781 26.59375 22.226562 25.71875 21.117188 24.734375 C 20.195312 23.90625 19.765625 22.65625 19.988281 21.4375 C 20.210938 20.21875 21.054688 19.199219 22.210938 18.753906 C 23.492188 18.265625 24.9375 18.546875 25.941406 19.480469 C 26.851562 20.332031 27.625 20.945312 28.230469 21.308594 C 29.023438 21.78125 29.855469 22.183594 30.71875 22.507812 C 30.917969 22.582031 31.058594 22.757812 31.09375 22.964844 C 31.125 23.171875 31.046875 23.378906 30.882812 23.511719 C 30.722656 23.644531 30.5 23.679688 30.304688 23.605469 C 29.378906 23.253906 28.484375 22.820312 27.632812 22.316406 C 26.953125 21.914062 26.113281 21.246094 25.140625 20.339844 C 24.519531 19.734375 23.613281 19.515625 22.785156 19.769531 C 21.953125 20.019531 21.324219 20.703125 21.136719 21.554688 C 20.953125 22.402344 21.246094 23.285156 21.898438 23.855469 C 22.949219 24.792969 24.085938 25.625 25.296875 26.34375 C 25.523438 26.476562 25.632812 26.746094 25.5625 27.003906 C 25.492188 27.257812 25.261719 27.433594 24.996094 27.433594 Z M 24.996094 27.433594 "/>
<path style=" stroke:none;fill-rule:nonzero;fill:rgb(50.588235%,30.588235%,81.960784%);fill-opacity:1;" d="M 36.394531 30.578125 C 33.367188 30.578125 30.371094 29.976562 27.582031 28.800781 C 27.285156 28.675781 27.144531 28.335938 27.269531 28.035156 C 27.394531 27.738281 27.734375 27.597656 28.035156 27.722656 C 31.003906 28.96875 34.214844 29.535156 37.433594 29.378906 C 37.757812 29.363281 38.03125 29.613281 38.046875 29.9375 C 38.058594 30.261719 37.8125 30.535156 37.488281 30.550781 C 37.121094 30.566406 36.757812 30.578125 36.394531 30.578125 Z M 36.394531 30.578125 "/>
<path style=" stroke:none;fill-rule:nonzero;fill:rgb(50.588235%,30.588235%,81.960784%);fill-opacity:1;" d="M 16.792969 18.359375 C 16.6875 18.359375 16.582031 18.332031 16.492188 18.277344 C 14.695312 17.210938 14.101562 14.886719 15.167969 13.085938 C 15.335938 12.8125 15.691406 12.722656 15.96875 12.886719 C 16.246094 13.050781 16.339844 13.40625 16.175781 13.683594 C 15.4375 14.925781 15.847656 16.53125 17.089844 17.269531 C 17.320312 17.40625 17.425781 17.675781 17.355469 17.929688 C 17.289062 18.183594 17.054688 18.359375 16.792969 18.359375 Z M 16.792969 18.359375 "/>
<path style=" stroke:none;fill-rule:nonzero;fill:rgb(50.588235%,30.588235%,81.960784%);fill-opacity:1;" d="M 20.464844 18.078125 C 20.21875 18.078125 19.996094 17.925781 19.914062 17.691406 C 19.828125 17.457031 19.902344 17.199219 20.089844 17.042969 C 20.75 16.5 21.101562 15.671875 21.039062 14.820312 C 20.972656 13.96875 20.496094 13.203125 19.765625 12.769531 C 19.488281 12.601562 19.398438 12.246094 19.5625 11.96875 C 19.726562 11.691406 20.085938 11.601562 20.363281 11.761719 C 21.421875 12.394531 22.109375 13.5 22.203125 14.730469 C 22.300781 15.960938 21.789062 17.160156 20.835938 17.945312 C 20.730469 18.03125 20.601562 18.078125 20.464844 18.078125 Z M 20.464844 18.078125 "/>
<path style=" stroke:none;fill-rule:nonzero;fill:rgb(50.588235%,30.588235%,81.960784%);fill-opacity:1;" d="M 9.542969 26.222656 C 9.402344 26.222656 9.265625 26.210938 9.128906 26.191406 C 8.140625 26.054688 7.304688 25.382812 6.964844 24.441406 C 5.949219 21.71875 5.191406 19.265625 4.71875 17.144531 C 4.671875 16.9375 4.734375 16.722656 4.890625 16.582031 C 5.046875 16.4375 5.265625 16.386719 5.464844 16.453125 C 5.664062 16.515625 5.816406 16.679688 5.863281 16.886719 C 6.324219 18.957031 7.0625 21.359375 8.0625 24.03125 C 8.261719 24.566406 8.734375 24.949219 9.300781 25.03125 C 9.863281 25.117188 10.429688 24.882812 10.773438 24.429688 C 11.136719 23.953125 11.195312 23.316406 10.925781 22.78125 C 10.613281 22.175781 10.320312 21.546875 10.058594 20.917969 C 9.9375 20.621094 10.078125 20.28125 10.375 20.15625 C 10.671875 20.03125 11.011719 20.171875 11.140625 20.464844 C 11.390625 21.066406 11.671875 21.667969 11.96875 22.246094 C 12.441406 23.179688 12.339844 24.300781 11.707031 25.136719 C 11.199219 25.820312 10.394531 26.222656 9.542969 26.222656 Z M 9.542969 26.222656 "/>
<path style=" stroke:none;fill-rule:nonzero;fill:rgb(50.588235%,30.588235%,81.960784%);fill-opacity:1;" d="M 34.707031 36.359375 L 34.695312 36.359375 C 34.023438 36.34375 33.328125 36.3125 32.636719 36.261719 C 32.3125 36.238281 32.070312 35.960938 32.09375 35.636719 C 32.117188 35.3125 32.394531 35.070312 32.71875 35.09375 C 33.394531 35.140625 34.066406 35.171875 34.71875 35.1875 C 35.042969 35.191406 35.300781 35.457031 35.296875 35.777344 C 35.292969 36.101562 35.03125 36.363281 34.707031 36.359375 Z M 34.707031 36.359375 "/>
<path style=" stroke:none;fill-rule:nonzero;fill:rgb(50.588235%,30.588235%,81.960784%);fill-opacity:1;" d="M 23.996094 40.726562 C 23.949219 40.726562 23.902344 40.71875 23.855469 40.710938 C 22.660156 40.417969 21.675781 40.109375 21.09375 39.839844 C 20.25 39.445312 19.597656 38.730469 19.289062 37.855469 C 18.980469 36.976562 19.035156 36.011719 19.445312 35.175781 C 20.253906 33.558594 22.167969 32.828125 23.847656 33.5 C 24.1875 33.640625 26.335938 34.265625 29.328125 34.714844 C 29.535156 34.746094 29.710938 34.886719 29.789062 35.082031 C 29.867188 35.277344 29.832031 35.5 29.703125 35.664062 C 29.570312 35.828125 29.363281 35.90625 29.15625 35.875 C 26.046875 35.410156 23.855469 34.769531 23.410156 34.589844 C 22.296875 34.144531 21.03125 34.625 20.5 35.695312 C 20.226562 36.246094 20.1875 36.882812 20.394531 37.464844 C 20.597656 38.042969 21.027344 38.515625 21.585938 38.777344 C 22.09375 39.011719 23.023438 39.300781 24.132812 39.570312 C 24.421875 39.640625 24.613281 39.914062 24.578125 40.210938 C 24.542969 40.503906 24.292969 40.726562 23.996094 40.726562 Z M 23.996094 40.726562 "/>
<path style=" stroke:none;fill-rule:nonzero;fill:rgb(50.588235%,30.588235%,81.960784%);fill-opacity:1;" d="M 34.398438 41.9375 C 32.066406 41.929688 29.738281 41.753906 27.433594 41.402344 C 27.113281 41.355469 26.894531 41.054688 26.941406 40.734375 C 26.992188 40.414062 27.289062 40.195312 27.609375 40.242188 C 30.410156 40.671875 33.246094 40.835938 36.074219 40.730469 C 36.285156 40.71875 36.488281 40.820312 36.601562 41 C 36.714844 41.175781 36.722656 41.402344 36.625 41.589844 C 36.527344 41.773438 36.335938 41.894531 36.125 41.902344 C 35.539062 41.925781 34.964844 41.9375 34.398438 41.9375 Z M 34.398438 41.9375 "/>
<path style=" stroke:none;fill-rule:nonzero;fill:rgb(50.588235%,30.588235%,81.960784%);fill-opacity:1;" d="M 12.113281 30.957031 C 12.09375 30.957031 12.078125 30.957031 12.058594 30.953125 C 11.738281 30.925781 11.5 30.640625 11.53125 30.316406 C 11.65625 28.96875 12.734375 27.90625 14.085938 27.800781 C 15.4375 27.695312 16.664062 28.582031 16.996094 29.894531 C 17.050781 30.097656 16.988281 30.3125 16.839844 30.457031 C 16.6875 30.605469 16.472656 30.660156 16.269531 30.601562 C 16.066406 30.546875 15.914062 30.382812 15.863281 30.179688 C 15.667969 29.421875 14.957031 28.910156 14.175781 28.96875 C 13.394531 29.03125 12.769531 29.644531 12.695312 30.425781 C 12.667969 30.726562 12.417969 30.957031 12.113281 30.957031 Z M 12.113281 30.957031 "/>
<path style=" stroke:none;fill-rule:nonzero;fill:rgb(50.588235%,30.588235%,81.960784%);fill-opacity:1;" d="M 14.304688 33.355469 C 13.472656 33.355469 12.683594 32.984375 12.152344 32.34375 C 11.949219 32.09375 11.984375 31.726562 12.234375 31.519531 C 12.480469 31.316406 12.851562 31.351562 13.054688 31.597656 C 13.453125 32.078125 14.089844 32.289062 14.695312 32.136719 C 15.007812 32.0625 15.320312 32.25 15.398438 32.5625 C 15.480469 32.875 15.292969 33.191406 14.980469 33.273438 C 14.761719 33.328125 14.535156 33.355469 14.304688 33.355469 Z M 14.304688 33.355469 "/>
<path style=" stroke:none;fill-rule:nonzero;fill:rgb(50.588235%,30.588235%,81.960784%);fill-opacity:1;" d="M 8.445312 38.515625 C 8.28125 38.515625 8.125 38.445312 8.015625 38.328125 C 7.320312 37.582031 6.644531 36.792969 6.007812 35.988281 C 5.25 35.027344 5.414062 33.632812 6.371094 32.867188 C 7.328125 32.101562 8.722656 32.253906 9.496094 33.203125 C 9.699219 33.453125 9.65625 33.820312 9.40625 34.023438 C 9.15625 34.226562 8.789062 34.1875 8.585938 33.941406 C 8.21875 33.488281 7.554688 33.414062 7.097656 33.777344 C 6.644531 34.140625 6.566406 34.804688 6.925781 35.261719 C 7.546875 36.042969 8.199219 36.804688 8.875 37.53125 C 9.03125 37.703125 9.074219 37.949219 8.980469 38.164062 C 8.886719 38.378906 8.675781 38.515625 8.445312 38.515625 Z M 8.445312 38.515625 "/>
<path style=" stroke:none;fill-rule:nonzero;fill:rgb(50.588235%,30.588235%,81.960784%);fill-opacity:1;" d="M 12.929688 42.160156 C 12.402344 42.160156 11.894531 41.972656 11.492188 41.632812 C 11.007812 41.226562 10.523438 40.800781 10.058594 40.371094 C 9.820312 40.148438 9.804688 39.777344 10.027344 39.542969 C 10.246094 39.304688 10.617188 39.289062 10.855469 39.511719 C 11.304688 39.929688 11.773438 40.34375 12.246094 40.734375 C 12.566406 41.007812 13.019531 41.058594 13.398438 40.875 C 13.777344 40.6875 14.011719 40.296875 13.992188 39.875 C 13.980469 39.578125 13.847656 39.300781 13.621094 39.109375 C 12.746094 38.367188 11.890625 37.570312 11.078125 36.742188 C 10.769531 36.425781 10.457031 36.097656 10.15625 35.765625 C 9.9375 35.527344 9.953125 35.15625 10.195312 34.9375 C 10.433594 34.71875 10.804688 34.738281 11.023438 34.976562 C 11.3125 35.296875 11.613281 35.613281 11.917969 35.921875 C 12.703125 36.722656 13.53125 37.496094 14.378906 38.21875 C 15.089844 38.828125 15.347656 39.816406 15.023438 40.695312 C 14.699219 41.570312 13.863281 42.15625 12.929688 42.160156 Z M 12.929688 42.160156 "/>
<path style=" stroke:none;fill-rule:nonzero;fill:rgb(50.588235%,30.588235%,81.960784%);fill-opacity:1;" d="M 26.316406 4.515625 C 26.320312 4.515625 26.328125 4.515625 26.332031 4.515625 C 26.648438 4.515625 26.910156 4.261719 26.917969 3.945312 C 26.945312 3.050781 27.085938 2.164062 27.34375 1.304688 C 27.355469 1.269531 27.363281 1.230469 27.363281 1.191406 C 27.171875 1.171875 26.976562 1.152344 26.78125 1.140625 C 26.582031 1.125 26.382812 1.113281 26.183594 1.105469 C 25.921875 2.019531 25.777344 2.960938 25.746094 3.910156 C 25.738281 4.234375 25.992188 4.503906 26.316406 4.515625 Z M 26.316406 4.515625 "/>
<path style=" stroke:none;fill-rule:nonzero;fill:rgb(50.588235%,30.588235%,81.960784%);fill-opacity:1;" d="M 31.105469 6.679688 C 31.347656 7.617188 30.84375 8.585938 29.941406 8.929688 C 29.472656 9.097656 28.957031 9.074219 28.503906 8.867188 C 28.054688 8.65625 27.703125 8.273438 27.535156 7.804688 C 27.277344 7.085938 27.097656 6.34375 27 5.585938 C 26.976562 5.375 26.839844 5.191406 26.644531 5.109375 C 26.449219 5.027344 26.226562 5.054688 26.058594 5.183594 C 25.890625 5.316406 25.804688 5.523438 25.835938 5.734375 C 25.945312 6.578125 26.144531 7.402344 26.433594 8.203125 C 26.707031 8.964844 27.273438 9.585938 28.007812 9.929688 C 28.742188 10.273438 29.582031 10.308594 30.34375 10.027344 C 31.808594 9.484375 32.628906 7.917969 32.242188 6.398438 C 31.824219 4.707031 32.351562 3.007812 32.660156 2.492188 C 32.683594 2.449219 32.703125 2.402344 32.71875 2.355469 C 32.535156 2.292969 32.347656 2.230469 32.164062 2.171875 C 31.972656 2.109375 31.78125 2.054688 31.59375 2 C 31.132812 2.859375 30.632812 4.777344 31.105469 6.683594 Z M 31.105469 6.679688 "/>
<path style=" stroke:none;fill-rule:nonzero;fill:rgb(50.588235%,30.588235%,81.960784%);fill-opacity:1;" d="M 41.09375 7.5 C 40.667969 8.21875 40.0625 8.816406 39.339844 9.238281 C 39.058594 9.402344 38.964844 9.757812 39.125 10.039062 C 39.289062 10.320312 39.648438 10.414062 39.925781 10.253906 C 40.789062 9.75 41.511719 9.046875 42.035156 8.199219 C 41.898438 8.058594 41.757812 7.917969 41.613281 7.78125 C 41.476562 7.648438 41.332031 7.515625 41.1875 7.382812 C 41.152344 7.417969 41.121094 7.457031 41.09375 7.5 Z M 41.09375 7.5 "/>
<path style=" stroke:none;fill-rule:nonzero;fill:rgb(50.588235%,30.588235%,81.960784%);fill-opacity:1;" d="M 41.226562 13.894531 L 41.667969 14.980469 C 43.0625 14.414062 44.335938 13.578125 45.414062 12.523438 C 45.308594 12.351562 45.203125 12.179688 45.097656 12.011719 C 44.988281 11.84375 44.875 11.679688 44.765625 11.515625 C 43.761719 12.542969 42.558594 13.355469 41.226562 13.894531 Z M 41.226562 13.894531 "/>
<path style=" stroke:none;fill-rule:nonzero;fill:rgb(50.588235%,30.588235%,81.960784%);fill-opacity:1;" d="M 20.449219 3.910156 C 20.601562 3.9375 20.761719 3.90625 20.886719 3.820312 C 21.015625 3.730469 21.105469 3.597656 21.132812 3.445312 C 21.242188 2.820312 21.414062 2.210938 21.640625 1.621094 C 21.679688 1.523438 21.695312 1.414062 21.679688 1.308594 C 21.484375 1.335938 21.292969 1.367188 21.097656 1.398438 C 20.875 1.433594 20.648438 1.476562 20.425781 1.519531 C 20.238281 2.078125 20.089844 2.644531 19.984375 3.226562 C 19.921875 3.542969 20.132812 3.851562 20.449219 3.910156 Z M 20.449219 3.910156 "/>
<path style=" stroke:none;fill-rule:nonzero;fill:rgb(50.588235%,30.588235%,81.960784%);fill-opacity:1;" d="M 14.984375 10.460938 C 15.59375 10.894531 16.324219 11.128906 17.074219 11.132812 C 17.496094 11.132812 17.917969 11.058594 18.316406 10.914062 C 19.722656 10.417969 20.679688 9.105469 20.726562 7.613281 C 20.75 6.902344 20.789062 6.21875 20.847656 5.589844 C 20.875 5.265625 20.636719 4.980469 20.316406 4.953125 C 19.992188 4.925781 19.707031 5.164062 19.679688 5.484375 C 19.621094 6.136719 19.578125 6.839844 19.554688 7.574219 C 19.511719 8.929688 18.386719 9.996094 17.03125 9.96875 C 15.679688 9.9375 14.597656 8.824219 14.613281 7.46875 C 14.621094 6.191406 14.738281 4.917969 14.964844 3.660156 C 14.988281 3.539062 14.972656 3.414062 14.917969 3.304688 C 14.742188 3.386719 14.566406 3.46875 14.390625 3.558594 C 14.171875 3.664062 13.953125 3.777344 13.738281 3.890625 C 13.546875 5.074219 13.449219 6.269531 13.441406 7.464844 C 13.4375 8.65625 14.011719 9.773438 14.984375 10.460938 Z M 14.984375 10.460938 "/>
<path style=" stroke:none;fill-rule:nonzero;fill:rgb(50.588235%,30.588235%,81.960784%);fill-opacity:1;" d="M 45.28125 20.785156 C 45.105469 20.902344 45.003906 21.101562 45.019531 21.3125 C 45.035156 21.523438 45.160156 21.710938 45.351562 21.800781 C 45.539062 21.890625 45.765625 21.875 45.9375 21.753906 C 46.796875 21.167969 47.601562 20.503906 48.34375 19.773438 C 48.292969 19.546875 48.238281 19.324219 48.183594 19.101562 C 48.132812 18.914062 48.082031 18.726562 48.03125 18.539062 C 47.929688 18.5625 47.835938 18.617188 47.761719 18.695312 C 47.007812 19.472656 46.175781 20.175781 45.28125 20.785156 Z M 45.28125 20.785156 "/>
<path style=" stroke:none;fill-rule:nonzero;fill:rgb(50.588235%,30.588235%,81.960784%);fill-opacity:1;" d="M 48.917969 25.621094 C 48.792969 25.617188 48.671875 25.652344 48.570312 25.71875 C 46.296875 27.238281 43.757812 28.320312 41.085938 28.898438 C 40.769531 28.96875 40.566406 29.28125 40.636719 29.597656 C 40.707031 29.914062 41.019531 30.113281 41.335938 30.042969 C 44.003906 29.464844 46.546875 28.410156 48.847656 26.9375 C 48.867188 26.691406 48.882812 26.449219 48.898438 26.207031 C 48.90625 26.011719 48.914062 25.816406 48.917969 25.621094 Z M 48.917969 25.621094 "/>
<path style=" stroke:none;fill-rule:nonzero;fill:rgb(50.588235%,30.588235%,81.960784%);fill-opacity:1;" d="M 8.113281 13.101562 C 8.179688 13.855469 8.285156 14.609375 8.417969 15.351562 C 8.53125 15.992188 8.671875 16.640625 8.835938 17.273438 C 8.914062 17.585938 9.234375 17.773438 9.546875 17.695312 C 9.863281 17.613281 10.050781 17.292969 9.96875 16.980469 C 9.816406 16.375 9.679688 15.757812 9.570312 15.144531 C 9.441406 14.4375 9.34375 13.714844 9.28125 12.996094 C 9.109375 11.15625 9.144531 9.300781 9.378906 7.46875 C 9.402344 7.300781 9.347656 7.128906 9.234375 7.003906 C 9.085938 7.128906 8.941406 7.261719 8.796875 7.394531 C 8.574219 7.597656 8.351562 7.8125 8.136719 8.027344 C 7.964844 9.714844 7.957031 11.414062 8.113281 13.105469 Z M 8.113281 13.101562 "/>
<path style=" stroke:none;fill-rule:nonzero;fill:rgb(50.588235%,30.588235%,81.960784%);fill-opacity:1;" d="M 4.890625 15.464844 C 4.921875 15.464844 4.949219 15.464844 4.976562 15.460938 C 5.296875 15.414062 5.519531 15.117188 5.472656 14.796875 C 5.347656 13.972656 5.292969 13.140625 5.3125 12.308594 C 5.316406 12.109375 5.21875 11.917969 5.050781 11.804688 C 4.941406 11.96875 4.832031 12.136719 4.726562 12.304688 C 4.625 12.464844 4.527344 12.625 4.429688 12.789062 C 4.335938 12.949219 4.242188 13.113281 4.148438 13.273438 C 4.175781 13.800781 4.226562 14.363281 4.3125 14.960938 C 4.355469 15.25 4.601562 15.464844 4.890625 15.464844 Z M 4.890625 15.464844 "/>
<path style=" stroke:none;fill-rule:nonzero;fill:rgb(50.588235%,30.588235%,81.960784%);fill-opacity:1;" d="M 47.316406 32.371094 C 44.886719 33.875 41.816406 34.789062 38.1875 35.089844 C 37.875 35.113281 37.640625 35.382812 37.652344 35.695312 C 37.664062 36.007812 37.921875 36.257812 38.238281 36.257812 C 38.253906 36.257812 38.269531 36.257812 38.285156 36.257812 C 41.777344 35.96875 44.789062 35.128906 47.261719 33.757812 C 47.375 33.46875 47.484375 33.183594 47.585938 32.890625 C 47.65625 32.695312 47.71875 32.5 47.785156 32.304688 C 47.625 32.261719 47.457031 32.285156 47.316406 32.371094 Z M 47.316406 32.371094 "/>
<path style=" stroke:none;fill-rule:nonzero;fill:rgb(50.588235%,30.588235%,81.960784%);fill-opacity:1;" d="M 43.398438 39.515625 C 41.890625 39.992188 40.339844 40.324219 38.769531 40.507812 C 38.460938 40.546875 38.238281 40.816406 38.253906 41.125 C 38.273438 41.433594 38.53125 41.675781 38.839844 41.675781 C 38.863281 41.675781 38.890625 41.675781 38.914062 41.671875 C 40.253906 41.511719 41.578125 41.25 42.882812 40.894531 C 43.117188 40.625 43.351562 40.355469 43.574219 40.078125 C 43.699219 39.925781 43.820312 39.769531 43.941406 39.613281 C 43.789062 39.492188 43.585938 39.457031 43.398438 39.515625 Z M 43.398438 39.515625 "/>
<path style=" stroke:none;fill-rule:nonzero;fill:rgb(50.588235%,30.588235%,81.960784%);fill-opacity:1;" d="M 4.367188 30.707031 C 4.394531 30.707031 4.421875 30.707031 4.445312 30.707031 C 5.25 30.679688 5.976562 30.226562 6.355469 29.515625 C 6.734375 28.808594 6.703125 27.949219 6.277344 27.269531 C 4.257812 24.027344 2.609375 18.207031 2.589844 18.148438 C 2.539062 17.957031 2.390625 17.804688 2.199219 17.746094 C 2.140625 17.933594 2.082031 18.121094 2.027344 18.308594 C 1.921875 18.667969 1.824219 19.03125 1.738281 19.394531 C 2.300781 21.210938 3.648438 25.273438 5.28125 27.886719 C 5.476562 28.195312 5.5 28.578125 5.347656 28.910156 C 5.179688 29.28125 4.816406 29.523438 4.410156 29.535156 C 4 29.550781 3.621094 29.332031 3.425781 28.976562 C 2.234375 26.78125 1.714844 25.28125 1.703125 25.253906 C 1.613281 24.992188 1.351562 24.828125 1.074219 24.863281 C 1.074219 25.058594 1.074219 25.25 1.078125 25.445312 C 1.089844 25.976562 1.117188 26.507812 1.164062 27.039062 C 1.453125 27.691406 1.855469 28.542969 2.398438 29.535156 C 2.789062 30.261719 3.546875 30.710938 4.367188 30.707031 Z M 4.367188 30.707031 "/>
<path style=" stroke:none;fill-rule:nonzero;fill:rgb(50.588235%,30.588235%,81.960784%);fill-opacity:1;" d="M 35.246094 46.074219 C 35.214844 46.070312 32.027344 45.640625 28.515625 44.828125 C 28.203125 44.761719 27.890625 44.957031 27.816406 45.269531 C 27.746094 45.582031 27.941406 45.898438 28.253906 45.972656 C 30.671875 46.53125 32.941406 46.910156 34.160156 47.097656 C 34.5 46.960938 34.835938 46.8125 35.167969 46.65625 C 35.34375 46.574219 35.519531 46.488281 35.695312 46.398438 C 35.609375 46.222656 35.441406 46.101562 35.246094 46.074219 Z M 35.246094 46.074219 "/>
<path style=" stroke:none;fill-rule:nonzero;fill:rgb(50.588235%,30.588235%,81.960784%);fill-opacity:1;" d="M 29.550781 47.929688 C 26.023438 47.3125 22.601562 46.1875 19.390625 44.597656 C 19.152344 44.480469 18.988281 44.253906 18.945312 43.992188 C 18.90625 43.730469 18.992188 43.464844 19.179688 43.277344 C 19.441406 43.015625 19.84375 42.945312 20.109375 43.113281 C 21.199219 43.796875 22.789062 44.453125 24.832031 45.070312 C 25.140625 45.164062 25.46875 44.988281 25.5625 44.679688 C 25.65625 44.371094 25.480469 44.042969 25.167969 43.949219 C 23.226562 43.363281 21.734375 42.746094 20.734375 42.121094 C 20.003906 41.660156 19 41.800781 18.351562 42.449219 C 17.894531 42.902344 17.6875 43.546875 17.789062 44.179688 C 17.890625 44.8125 18.292969 45.359375 18.867188 45.644531 C 21.683594 47.046875 24.667969 48.09375 27.742188 48.761719 C 28.3125 48.699219 28.878906 48.613281 29.441406 48.503906 C 29.632812 48.46875 29.828125 48.429688 30.023438 48.386719 C 29.972656 48.152344 29.785156 47.972656 29.550781 47.929688 Z M 29.550781 47.929688 "/>
</g>
</svg>
