<?xml version="1.0" encoding="UTF-8"?>
<svg xmlns="http://www.w3.org/2000/svg" xmlns:xlink="http://www.w3.org/1999/xlink" width="50" height="65" viewBox="0 0 50 65" version="1.1">
<g id="surface1">
<path style=" stroke:none;fill-rule:nonzero;fill:rgb(95.294118%,43.921569%,35.294118%);fill-opacity:1;" d="M 9.933594 59.125 C 6.734375 55.828125 4.050781 52.082031 1.972656 48.003906 C 0.03125 43.417969 -0.492188 38.371094 0.464844 33.496094 C 1.453125 28.585938 3.621094 23.980469 6.78125 20.066406 C 6.542969 23.539062 7.726562 26.960938 10.070312 29.558594 C 8.867188 22.863281 10.785156 15.988281 15.292969 10.847656 C 19.828125 5.863281 25.597656 2.125 32.03125 0 C 28.875 3.25 28.460938 8.410156 29.699219 12.738281 C 30.941406 17.070312 33.539062 20.878906 35.871094 24.808594 C 38.207031 28.742188 40.40625 32.8125 40.539062 37.289062 C 41.90625 35.003906 43.058594 32.597656 43.976562 30.101562 C 44.90625 27.585938 45.097656 24.859375 44.527344 22.242188 C 46.902344 25.03125 48.46875 28.402344 49.054688 32.003906 C 49.648438 35.820312 49.695312 39.699219 49.191406 43.527344 C 48.789062 47.796875 47.429688 51.917969 45.210938 55.601562 C 42.335938 59.769531 38.132812 62.871094 33.269531 64.414062 C 24.753906 65.910156 16.382812 64.683594 9.933594 59.125 Z M 9.933594 59.125 "/>
<path style=" stroke:none;fill-rule:nonzero;fill:rgb(100%,81.960784%,36.078431%);fill-opacity:1;" d="M 20.367188 64.140625 C 31.621094 68.484375 42.734375 55.332031 36.5625 45.160156 C 36.5625 45.027344 36.421875 45.027344 36.421875 44.886719 C 36.972656 50.449219 35.601562 54.515625 32.996094 56.820312 C 34.367188 53.570312 33.40625 49.773438 31.757812 46.519531 C 30.113281 43.398438 27.777344 40.550781 25.996094 37.566406 C 24.207031 34.445312 22.835938 30.921875 23.660156 27.394531 C 20.363281 29.894531 18.039062 33.4375 17.074219 37.433594 C 16.144531 41.449219 16.628906 45.660156 18.445312 49.367188 C 16.304688 47.835938 14.949219 45.457031 14.738281 42.855469 C 12.472656 45.457031 11.25 48.785156 11.304688 52.21875 C 11.304688 57.5 15.554688 62.246094 20.367188 64.140625 Z M 20.367188 64.140625 "/>
</g>
</svg>
