<?xml version="1.0" encoding="UTF-8"?>
<svg xmlns="http://www.w3.org/2000/svg" xmlns:xlink="http://www.w3.org/1999/xlink" width="50" height="86" viewBox="0 0 50 86" version="1.1">
<g id="surface1">
<path style=" stroke:none;fill-rule:nonzero;fill:rgb(69.803922%,92.941176%,100%);fill-opacity:1;" d="M 25.101562 86 C 38.945312 85.851562 50.078125 74.601562 50.054688 60.792969 C 49.90625 41.648438 32.242188 21.328125 26.261719 0.925781 C 26.105469 0.375 25.601562 -0.00390625 25.027344 -0.00390625 C 24.453125 -0.00390625 23.949219 0.375 23.792969 0.925781 C 17.8125 21.332031 0.148438 41.648438 0 60.78125 C -0.0273438 74.59375 11.109375 85.851562 24.953125 86 "/>
<path style=" stroke:none;fill-rule:nonzero;fill:rgb(90.980392%,98.039216%,100%);fill-opacity:1;" d="M 33.371094 79.121094 C 32.414062 79.121094 31.578125 78.464844 31.347656 77.535156 C 31.121094 76.605469 31.558594 75.640625 32.410156 75.195312 C 36.53125 73.054688 39.515625 69.234375 40.589844 64.722656 C 40.875 63.625 41.984375 62.953125 43.089844 63.214844 C 44.195312 63.472656 44.890625 64.570312 44.652344 65.675781 C 43.300781 71.367188 39.535156 76.1875 34.335938 78.886719 C 34.039062 79.039062 33.707031 79.121094 33.371094 79.121094 Z M 33.371094 79.121094 "/>
<path style=" stroke:none;fill-rule:nonzero;fill:rgb(34.901961%,84.705882%,100%);fill-opacity:1;" d="M 33.445312 83.226562 L 33.292969 83.226562 C 19.550781 83.1875 8.238281 70.992188 8.34375 56.394531 C 8.453125 41.257812 18.238281 25.414062 25.707031 9.363281 C 26.910156 6.726562 27.113281 3.742188 26.273438 0.96875 C 26.273438 0.953125 26.273438 0.941406 26.261719 0.929688 C 26.105469 0.378906 25.601562 0 25.027344 0 C 24.453125 0 23.949219 0.378906 23.792969 0.929688 C 17.425781 22.65625 -2.195312 44.28125 0.199219 64.5 C 1.824219 76.875 12.445312 86.097656 24.953125 86 L 25.101562 86 C 29.257812 85.984375 33.339844 84.917969 36.96875 82.902344 C 35.804688 83.105469 34.628906 83.214844 33.445312 83.226562 Z M 33.445312 83.226562 "/>
</g>
</svg>
