<?xml version="1.0" encoding="UTF-8"?>
<svg xmlns="http://www.w3.org/2000/svg" xmlns:xlink="http://www.w3.org/1999/xlink" width="50" height="58" viewBox="0 0 50 58" version="1.1">
<g id="surface1">
<path style=" stroke:none;fill-rule:nonzero;fill:rgb(0%,66.666667%,58.431373%);fill-opacity:1;" d="M 9.03125 58 L 2.425781 44.382812 C -2.429688 34.359375 0.1875 22.324219 8.765625 15.203125 C 14.015625 10.910156 18.957031 6.253906 23.558594 1.277344 L 24.722656 0 L 27.429688 3.566406 C 30.660156 7.71875 33.160156 12.390625 34.820312 17.382812 Z M 9.03125 58 "/>
<path style=" stroke:none;fill-rule:nonzero;fill:rgb(0%,80%,46.27451%);fill-opacity:1;" d="M 49.347656 16.984375 L 48.46875 12.601562 C 44.125 22.820312 32.976562 28.25 26.582031 35.296875 C 20.113281 42.367188 14.242188 49.960938 9.03125 58 L 15.644531 58 C 45.046875 58 53.601562 38.203125 49.347656 16.984375 Z M 49.347656 16.984375 "/>
<path style=" stroke:none;fill-rule:nonzero;fill:rgb(64.705882%,90.980392%,52.941176%);fill-opacity:1;" d="M 48.46875 12.601562 L 46.867188 13.242188 C 42.914062 14.816406 38.890625 16.179688 34.816406 17.382812 C 32.386719 18.097656 29.9375 18.753906 27.472656 19.351562 C 16.636719 22.035156 9.03125 31.738281 9.03125 42.875 L 9.03125 58 C 9.03125 58 36.523438 40.691406 48.46875 12.601562 Z M 48.46875 12.601562 "/>
</g>
</svg>
