<svg id="Capa_1" enable-background="new 0 0 512 512" height="512" viewBox="0 0 512 512" width="512" xmlns="http://www.w3.org/2000/svg"><g><g><path d="m374.581 342.634 26.618 15.368c-.007.067-.009.134-.013.202.013-.202 9.563 20.882 18.859 26.25 18.219 10.518 41.515 8.172 52.033-10.046 1.805-3.127 3.947-13.395 3.947-21.801-2.424-9.649-8.593-18.346-17.889-23.713-13.477-7.781-29.727-6.381-41.534 2.244l-26.663-15.394 20.705-9.967c7.705-3.709 10.944-12.963 7.235-20.668-3.71-7.705-12.963-10.947-20.668-7.235l-39.734 19.128-70.507-40.707 70.216-40.54 39.501 19.016c2.166 1.042 4.453 1.536 6.706 1.536 5.762 0 11.295-3.231 13.963-8.771 3.709-7.705.47-16.958-7.235-20.668l-20.472-9.855 38.388-22.161-15.577-26.936s.006.109.012.163l-38.432 22.189 1.72-22.914c.64-8.528-5.754-15.959-14.281-16.6-8.523-.642-15.96 5.754-16.6 14.281l-3.302 43.974-70.093 40.468v-68.955l36.219-24.7c7.066-4.818 8.887-14.451 4.069-21.516-4.819-7.066-14.451-8.886-21.516-4.068l-18.771 12.801v-50.194l-30.968.093v50.245l-18.984-12.947c-7.064-4.819-16.698-2.997-21.516 4.068s-2.996 16.698 4.068 21.516l36.432 24.846v68.807l-70.093-40.468-3.301-43.974c-.64-8.528-8.078-14.932-16.6-14.282-8.527.64-14.921 8.072-14.281 16.6l1.72 22.914-38.432-22.188c.006-.055.012-.164.012-.164l-15.576 26.936 38.386 22.162-20.472 9.855c-7.705 3.71-10.944 12.963-7.235 20.668 2.667 5.54 8.199 8.771 13.962 8.771 2.253 0 4.54-.493 6.705-1.536l39.501-19.017 70.223 40.543-70.513 40.71-39.734-19.129c-7.706-3.71-16.959-.47-20.667 7.235-3.71 7.705-.47 16.958 7.235 20.668l20.705 9.968-26.664 15.395c-11.806-8.626-28.057-10.025-41.534-2.244-9.297 5.367-15.465 14.064-17.889 23.713 0 6.914 2.142 15.613 3.947 18.739 10.519 18.219 33.815 24.461 52.033 13.942 9.297-5.368 18.859-27.084 18.859-27.084-.007-.067-.007-.134-.013-.201l26.617-15.368-1.701 22.656c-.64 8.527 5.754 15.96 14.281 16.6.395.03.786.044 1.176.044 8.025 0 14.814-6.193 15.424-14.326l3.281-43.716 70.636-40.782v68.219l-36.432 24.846c-7.065 4.818-8.887 14.452-4.068 21.516 2.998 4.396 7.859 6.762 12.806 6.762 3.004 0 6.041-.873 8.71-2.693l18.984-12.947v50.245c-10.628 4.698-18.686 14.116-21.556 25.592 0 21.939 19.117 37.765 36.936 37.765s36.936-18.059 36.936-37.764c-2.85-11.402-10.823-20.772-21.349-25.5v-50.193l18.771 12.801c7.065 4.819 16.697 2.996 21.516-4.069s2.997-16.698-4.069-21.516l-36.219-24.7v-68.368l70.635 40.781 3.282 43.717c.611 8.133 7.398 14.325 15.425 14.325.388 0 .781-.015 1.175-.044 8.527-.64 14.921-8.072 14.281-16.6z" fill="#92e0ff"/><g><path d="m255.897 493.419c-17.819 0-32.776-12.237-36.937-28.766-.741 2.965-1.154 6.06-1.154 9.255 0 21.037 17.054 38.091 38.091 38.091s38.091-17.054 38.091-38.091c0-3.195-.413-6.289-1.155-9.254-4.161 16.529-19.117 28.765-36.936 28.765z" fill="#75d5f2"/></g><path d="m91.955 376.29c-18.219 10.519-41.515 4.276-52.033-13.942-1.805-3.127-3.105-6.404-3.947-9.74-2.326 9.261-1.204 19.398 3.947 28.32 10.519 18.219 33.814 24.461 52.033 13.942 15.092-8.714 21.954-26.193 17.889-42.294-2.423 9.65-8.592 18.347-17.889 23.714z" fill="#75d5f2"/><path d="m472.078 362.345c-10.518 18.219-33.815 24.461-52.033 13.942-9.297-5.368-15.465-14.064-17.889-23.713-4.065 16.1 2.797 33.58 17.889 42.294 18.219 10.519 41.515 4.276 52.033-13.942 5.151-8.922 6.273-19.059 3.947-28.32-.842 3.335-2.142 6.613-3.947 9.739z" fill="#75d5f2"/><g fill="#92e0ff"><path d="m42.936 168.082c18.219 10.518 41.946-2.293 52.465-20.512 1.804-3.126 3.193-6.558 3.193-12.871-2.42-9.651-8.591-18.347-17.888-23.716-18.219-10.518-41.515-4.276-52.033 13.942-1.805 3.127-3.105 6.404-3.947 9.74 0 11.789 8.914 28.049 18.21 33.417z"/><path d="m417.352 152.268c10.519 18.219 33.815 24.658 52.033 14.139 9.297-5.367 17.889-13.395 17.889-31.739-.842-3.336-2.142-6.613-3.947-9.74-10.518-18.219-33.814-24.461-52.033-13.942-9.298 5.368-15.468 14.065-17.888 23.716-.001 10.124 2.141 14.44 3.946 17.566z"/><path d="m255.897 66.315c17.832 0 36.945-13.823 36.945-37.514-4.148-16.546-19.113-28.801-36.945-28.801s-32.797 12.255-36.945 28.801c0 22.2 19.113 37.514 36.945 37.514z"/></g><path d="m255.897 57.601c-17.832 0-32.797-12.255-36.945-28.801-.746 2.974-1.146 6.085-1.146 9.29 0 21.037 17.054 38.091 38.091 38.091s38.091-17.054 38.091-38.091c0-3.205-.401-6.316-1.146-9.29-4.148 16.546-19.113 28.801-36.945 28.801z" fill="#75d5f2"/><path d="m94.649 144.436c-10.519 18.219-33.815 24.461-52.033 13.942-9.297-5.368-15.465-14.064-17.889-23.713-4.065 16.1 2.797 33.58 17.889 42.294 18.219 10.518 41.515 4.276 52.033-13.942 5.151-8.922 6.273-19.059 3.947-28.32-.843 3.335-2.143 6.613-3.947 9.739z" fill="#75d5f2"/><path d="m469.385 158.381c-18.219 10.519-41.515 4.277-52.033-13.942-1.805-3.126-3.105-6.404-3.947-9.739-2.326 9.26-1.204 19.398 3.947 28.32 10.519 18.219 33.815 24.461 52.033 13.942 15.092-8.714 21.954-26.194 17.889-42.294-2.424 9.649-8.592 18.346-17.889 23.713z" fill="#75d5f2"/></g></g></svg>