<?xml version="1.0" encoding="UTF-8"?>
<svg xmlns="http://www.w3.org/2000/svg" xmlns:xlink="http://www.w3.org/1999/xlink" width="50" height="55" viewBox="0 0 50 55" version="1.1">
<g id="surface1">
<path style=" stroke:none;fill-rule:nonzero;fill:rgb(57.254902%,87.843137%,100%);fill-opacity:1;" d="M 38.089844 36.808594 L 40.976562 38.457031 L 40.976562 38.480469 C 41.453125 39.550781 42.148438 40.511719 43.023438 41.296875 C 45 42.429688 47.527344 42.179688 48.667969 40.21875 C 48.960938 39.472656 49.105469 38.679688 49.097656 37.878906 C 48.761719 36.558594 47.789062 35.492188 46.496094 35.027344 C 45.203125 34.566406 43.765625 34.769531 42.65625 35.570312 L 39.757812 33.917969 L 42.007812 32.84375 C 42.84375 32.445312 43.195312 31.453125 42.792969 30.625 C 42.390625 29.796875 41.386719 29.449219 40.550781 29.847656 L 36.230469 31.898438 L 28.578125 27.523438 L 36.199219 23.171875 L 40.484375 25.214844 C 41.320312 25.613281 42.324219 25.265625 42.726562 24.441406 C 43.128906 23.613281 42.777344 22.617188 41.941406 22.21875 L 39.722656 21.160156 L 43.886719 18.777344 L 42.199219 15.886719 L 42.199219 15.902344 L 38.027344 18.289062 L 38.214844 15.828125 C 38.285156 14.910156 37.589844 14.113281 36.664062 14.042969 C 35.738281 13.972656 34.933594 14.660156 34.863281 15.578125 L 34.503906 20.300781 L 26.898438 24.652344 L 26.898438 17.242188 L 30.832031 14.59375 C 31.574219 14.066406 31.757812 13.046875 31.242188 12.300781 C 30.726562 11.554688 29.703125 11.351562 28.9375 11.84375 L 26.898438 13.21875 L 26.898438 7.828125 L 23.542969 7.835938 L 23.542969 13.238281 L 21.480469 11.84375 C 20.710938 11.351562 19.691406 11.558594 19.175781 12.304688 C 18.664062 13.054688 18.847656 14.070312 19.589844 14.59375 L 23.542969 17.261719 L 23.542969 24.652344 L 15.941406 20.300781 L 15.578125 15.582031 C 15.511719 14.664062 14.703125 13.976562 13.777344 14.046875 C 12.851562 14.117188 12.160156 14.914062 12.230469 15.832031 L 12.414062 18.292969 L 8.242188 15.90625 C 8.242188 15.902344 8.242188 15.894531 8.242188 15.890625 L 6.554688 18.78125 L 10.71875 21.160156 L 8.496094 22.222656 C 7.664062 22.621094 7.3125 23.617188 7.714844 24.441406 C 8.117188 25.269531 9.121094 25.617188 9.957031 25.21875 L 14.238281 23.175781 L 21.859375 27.53125 L 14.207031 31.898438 L 9.898438 29.847656 C 9.0625 29.449219 8.058594 29.796875 7.65625 30.625 C 7.253906 31.453125 7.605469 32.445312 8.441406 32.84375 L 10.691406 33.917969 L 7.796875 35.570312 C 6.6875 34.765625 5.246094 34.5625 3.953125 35.023438 C 2.664062 35.484375 1.6875 36.554688 1.351562 37.871094 C 1.351562 38.566406 1.496094 39.253906 1.777344 39.894531 C 2.917969 41.847656 5.445312 42.515625 7.421875 41.386719 C 8.425781 40.8125 9.464844 38.476562 9.464844 38.476562 L 9.464844 38.457031 L 12.351562 36.804688 L 12.171875 39.238281 C 12.136719 39.679688 12.28125 40.113281 12.574219 40.449219 C 12.863281 40.78125 13.277344 40.988281 13.722656 41.019531 C 13.765625 41.019531 13.808594 41.019531 13.847656 41.019531 C 14.726562 41.023438 15.457031 40.351562 15.523438 39.480469 L 15.878906 34.785156 L 23.542969 30.40625 L 23.542969 37.730469 L 19.585938 40.40625 C 18.976562 40.820312 18.707031 41.574219 18.925781 42.273438 C 19.144531 42.972656 19.796875 43.449219 20.535156 43.445312 C 20.875 43.449219 21.203125 43.347656 21.480469 43.15625 L 23.542969 41.765625 L 23.542969 47.164062 C 22.375 47.675781 21.511719 48.691406 21.199219 49.914062 C 21.230469 52.109375 22.992188 53.894531 25.207031 53.972656 C 27.386719 53.8125 29.105469 52.070312 29.21875 49.914062 C 28.910156 48.695312 28.058594 47.6875 26.902344 47.175781 L 26.902344 41.785156 L 28.9375 43.160156 C 29.703125 43.652344 30.726562 43.449219 31.242188 42.699219 C 31.753906 41.953125 31.570312 40.9375 30.828125 40.410156 L 26.898438 37.757812 L 26.898438 30.414062 L 34.566406 34.792969 L 34.921875 39.488281 C 34.984375 40.355469 35.71875 41.027344 36.597656 41.027344 C 36.636719 41.027344 36.679688 41.027344 36.722656 41.027344 C 37.648438 40.957031 38.339844 40.160156 38.273438 39.246094 Z M 38.089844 36.808594 "/>
<path style=" stroke:none;fill-rule:nonzero;fill:rgb(45.882353%,83.529412%,94.901961%);fill-opacity:1;" d="M 25.207031 53.003906 C 23.3125 53.003906 21.664062 51.730469 21.199219 49.914062 C 21.117188 50.238281 21.074219 50.574219 21.074219 50.910156 C 21.113281 53.144531 22.953125 54.933594 25.207031 54.933594 C 27.464844 54.933594 29.304688 53.144531 29.34375 50.910156 C 29.339844 50.574219 29.296875 50.238281 29.214844 49.914062 C 28.753906 51.730469 27.101562 53.003906 25.207031 53.003906 Z M 25.207031 53.003906 "/>
<path style=" stroke:none;fill-rule:nonzero;fill:rgb(45.882353%,83.529412%,94.901961%);fill-opacity:1;" d="M 7.421875 40.421875 C 6.296875 41.0625 4.9375 41.148438 3.742188 40.648438 C 2.546875 40.148438 1.660156 39.121094 1.34375 37.878906 C 0.921875 39.53125 1.582031 41.269531 3 42.238281 C 4.414062 43.210938 6.289062 43.210938 7.707031 42.238281 C 9.121094 41.269531 9.78125 39.53125 9.359375 37.878906 C 9.089844 38.949219 8.390625 39.871094 7.421875 40.421875 Z M 7.421875 40.421875 "/>
<path style=" stroke:none;fill-rule:nonzero;fill:rgb(45.882353%,83.529412%,94.901961%);fill-opacity:1;" d="M 48.664062 38.925781 C 47.824219 40.367188 46.179688 41.164062 44.511719 40.929688 C 42.84375 40.699219 41.488281 39.488281 41.078125 37.871094 C 40.65625 39.527344 41.316406 41.265625 42.734375 42.234375 C 44.148438 43.207031 46.023438 43.207031 47.441406 42.234375 C 48.855469 41.265625 49.515625 39.527344 49.09375 37.871094 C 49 38.242188 48.855469 38.597656 48.664062 38.925781 Z M 48.664062 38.925781 "/>
<path style=" stroke:none;fill-rule:nonzero;fill:rgb(57.254902%,87.843137%,100%);fill-opacity:1;" d="M 2.097656 18.054688 C 4.078125 19.183594 6.65625 17.808594 7.792969 15.855469 C 8.042969 15.4375 8.164062 14.957031 8.140625 14.472656 C 7.679688 12.652344 6.027344 11.378906 4.132812 11.378906 C 2.238281 11.378906 0.585938 12.652344 0.125 14.472656 C 0.214844 15.894531 0.9375 17.207031 2.097656 18.054688 Z M 2.097656 18.054688 "/>
<path style=" stroke:none;fill-rule:nonzero;fill:rgb(57.254902%,87.843137%,100%);fill-opacity:1;" d="M 42.730469 16.359375 C 43.867188 18.320312 46.394531 18.996094 48.375 17.875 C 49.660156 17.230469 50.425781 15.886719 50.316406 14.464844 C 49.855469 12.644531 48.203125 11.367188 46.308594 11.367188 C 44.410156 11.367188 42.757812 12.644531 42.300781 14.464844 C 42.25 15.125 42.398438 15.78125 42.730469 16.359375 Z M 42.730469 16.359375 "/>
<path style=" stroke:none;fill-rule:nonzero;fill:rgb(57.254902%,87.843137%,100%);fill-opacity:1;" d="M 25.207031 7.125 C 26.28125 7.125 27.3125 6.699219 28.066406 5.941406 C 28.820312 5.183594 29.238281 4.160156 29.21875 3.09375 C 28.757812 1.277344 27.105469 0 25.210938 0 C 23.316406 0 21.664062 1.277344 21.203125 3.09375 C 21.222656 5.285156 22.992188 7.066406 25.207031 7.125 Z M 25.207031 7.125 "/>
<path style=" stroke:none;fill-rule:nonzero;fill:rgb(45.882353%,83.529412%,94.901961%);fill-opacity:1;" d="M 25.207031 6.1875 C 23.3125 6.1875 21.664062 4.914062 21.199219 3.09375 C 21.117188 3.421875 21.074219 3.753906 21.074219 4.089844 C 21.050781 5.570312 21.832031 6.945312 23.121094 7.691406 C 24.410156 8.4375 26.007812 8.4375 27.296875 7.691406 C 28.585938 6.945312 29.367188 5.570312 29.34375 4.089844 C 29.34375 3.753906 29.300781 3.421875 29.214844 3.09375 C 28.753906 4.914062 27.101562 6.1875 25.207031 6.1875 Z M 25.207031 6.1875 "/>
<path style=" stroke:none;fill-rule:nonzero;fill:rgb(45.882353%,83.529412%,94.901961%);fill-opacity:1;" d="M 7.710938 15.515625 C 6.867188 16.957031 5.226562 17.75 3.5625 17.523438 C 1.894531 17.292969 0.535156 16.082031 0.125 14.46875 C -0.292969 16.121094 0.367188 17.855469 1.78125 18.828125 C 3.195312 19.796875 5.070312 19.796875 6.484375 18.828125 C 7.898438 17.855469 8.558594 16.121094 8.140625 14.46875 C 8.046875 14.835938 7.902344 15.1875 7.710938 15.515625 Z M 7.710938 15.515625 "/>
<path style=" stroke:none;fill-rule:nonzero;fill:rgb(45.882353%,83.529412%,94.901961%);fill-opacity:1;" d="M 48.375 17.015625 C 47.253906 17.65625 45.890625 17.738281 44.699219 17.238281 C 43.507812 16.738281 42.617188 15.714844 42.300781 14.472656 C 41.878906 16.125 42.539062 17.863281 43.953125 18.835938 C 45.371094 19.804688 47.246094 19.804688 48.660156 18.835938 C 50.078125 17.863281 50.734375 16.125 50.316406 14.472656 C 50.042969 15.542969 49.34375 16.460938 48.375 17.015625 Z M 48.375 17.015625 "/>
</g>
</svg>
