<?xml version="1.0" encoding="UTF-8"?>
<svg xmlns="http://www.w3.org/2000/svg" xmlns:xlink="http://www.w3.org/1999/xlink" width="50" height="67" viewBox="0 0 50 67" version="1.1">
<g id="surface1">
<path style=" stroke:none;fill-rule:nonzero;fill:rgb(38.039216%,42.745098%,46.666667%);fill-opacity:1;" d="M 45.484375 12.707031 L 49.957031 34.046875 L 38.152344 27.605469 Z M 45.484375 12.707031 "/>
<path style=" stroke:none;fill-rule:nonzero;fill:rgb(31.372549%,36.078431%,38.823529%);fill-opacity:1;" d="M 49.957031 34.046875 L 47.613281 53.335938 L 38.148438 27.605469 Z M 49.957031 34.046875 "/>
<path style=" stroke:none;fill-rule:nonzero;fill:rgb(47.45098%,52.941176%,58.431373%);fill-opacity:1;" d="M 38.152344 27.605469 L 47.613281 53.335938 L 21.128906 46.699219 L 14.191406 37.871094 Z M 38.152344 27.605469 "/>
<path style=" stroke:none;fill-rule:nonzero;fill:rgb(38.039216%,42.745098%,46.666667%);fill-opacity:1;" d="M 47.613281 53.335938 L 40.375 65.195312 L 20.632812 59.242188 L 21.128906 46.699219 Z M 47.613281 53.335938 "/>
<path style=" stroke:none;fill-rule:nonzero;fill:rgb(55.686275%,60%,63.921569%);fill-opacity:1;" d="M 45.484375 12.707031 L 38.152344 27.605469 L 30.207031 12.65625 L 30.242188 0 Z M 45.484375 12.707031 "/>
<path style=" stroke:none;fill-rule:nonzero;fill:rgb(31.372549%,36.078431%,38.823529%);fill-opacity:1;" d="M 40.375 65.195312 L 17.703125 67.675781 L 4.546875 61.097656 L 20.636719 59.246094 Z M 40.375 65.195312 "/>
<path style=" stroke:none;fill-rule:nonzero;fill:rgb(38.039216%,42.745098%,46.666667%);fill-opacity:1;" d="M 30.207031 12.652344 L 38.152344 27.605469 L 14.191406 37.867188 L 14.804688 25.578125 Z M 30.207031 12.652344 "/>
<path style=" stroke:none;fill-rule:nonzero;fill:rgb(57.647059%,63.137255%,67.843137%);fill-opacity:1;" d="M 30.234375 0 L 30.207031 12.652344 L 17.304688 9.566406 Z M 30.234375 0 "/>
<path style=" stroke:none;fill-rule:nonzero;fill:rgb(47.45098%,52.941176%,58.431373%);fill-opacity:1;" d="M 30.207031 12.652344 L 14.800781 25.582031 L 4.582031 14.949219 L 17.304688 9.566406 Z M 30.207031 12.652344 "/>
<path style=" stroke:none;fill-rule:nonzero;fill:rgb(55.686275%,60%,63.921569%);fill-opacity:1;" d="M 14.191406 37.871094 L 21.128906 46.699219 L 20.628906 59.242188 L 4.546875 61.097656 L 0 44.726562 Z M 14.191406 37.871094 "/>
<path style=" stroke:none;fill-rule:nonzero;fill:rgb(57.647059%,63.137255%,67.843137%);fill-opacity:1;" d="M 4.582031 14.953125 L 14.796875 25.582031 L 14.191406 37.871094 L 0 44.726562 Z M 4.582031 14.953125 "/>
<path style=" stroke:none;fill-rule:nonzero;fill:rgb(25.490196%,29.019608%,30.980392%);fill-opacity:1;" d="M 11.019531 60.347656 L 4.542969 61.09375 L 17.703125 67.671875 L 23.25 67.058594 Z M 11.019531 60.347656 "/>
<path style=" stroke:none;fill-rule:nonzero;fill:rgb(45.490196%,50.196078%,53.72549%);fill-opacity:1;" d="M 30.234375 0 L 17.304688 9.566406 L 22.976562 10.925781 L 30.21875 5.769531 Z M 30.234375 0 "/>
<path style=" stroke:none;fill-rule:nonzero;fill:rgb(47.45098%,51.764706%,54.901961%);fill-opacity:1;" d="M 8.546875 19.078125 L 4.574219 14.953125 L 0 44.726562 L 5.871094 41.890625 Z M 8.546875 19.078125 "/>
<path style=" stroke:none;fill-rule:nonzero;fill:rgb(36.862745%,41.568627%,45.882353%);fill-opacity:1;" d="M 22.976562 10.925781 L 17.304688 9.566406 L 4.582031 14.949219 L 8.546875 19.078125 Z M 22.976562 10.925781 "/>
<path style=" stroke:none;fill-rule:nonzero;fill:rgb(45.490196%,48.627451%,50.980392%);fill-opacity:1;" d="M 0 44.726562 L 4.546875 61.097656 L 11.027344 60.351562 L 5.871094 41.890625 Z M 0 44.726562 "/>
<path style=" stroke:none;fill-rule:nonzero;fill:rgb(95.686275%,97.254902%,98.823529%);fill-opacity:1;" d="M 6.371094 22.984375 C 6.324219 22.984375 6.277344 22.980469 6.230469 22.972656 C 6.011719 22.933594 5.820312 22.816406 5.691406 22.636719 C 5.5625 22.457031 5.511719 22.234375 5.546875 22.019531 L 5.632812 21.523438 C 5.707031 21.070312 6.136719 20.765625 6.589844 20.839844 C 7.042969 20.914062 7.351562 21.34375 7.273438 21.796875 L 7.191406 22.292969 C 7.121094 22.6875 6.777344 22.980469 6.371094 22.984375 Z M 6.371094 22.984375 "/>
<path style=" stroke:none;fill-rule:nonzero;fill:rgb(95.686275%,97.254902%,98.823529%);fill-opacity:1;" d="M 4.398438 34.863281 C 4.347656 34.867188 4.300781 34.863281 4.253906 34.851562 C 4.039062 34.816406 3.84375 34.695312 3.714844 34.519531 C 3.585938 34.339844 3.535156 34.117188 3.574219 33.902344 L 5.121094 24.65625 C 5.195312 24.207031 5.621094 23.90625 6.070312 23.980469 C 6.523438 24.054688 6.824219 24.480469 6.75 24.929688 L 5.222656 34.171875 C 5.152344 34.574219 4.804688 34.863281 4.398438 34.863281 Z M 4.398438 34.863281 "/>
</g>
</svg>
