<?xml version="1.0" encoding="UTF-8"?>
<svg xmlns="http://www.w3.org/2000/svg" xmlns:xlink="http://www.w3.org/1999/xlink" width="50" height="44" viewBox="0 0 50 44" version="1.1">
<g id="surface1">
<path style=" stroke:none;fill-rule:nonzero;fill:rgb(74.509804%,85.098039%,99.215686%);fill-opacity:1;" d="M 28.070312 27.371094 C 24.875 27.273438 21.757812 26.351562 19.023438 24.699219 C 16.136719 23.085938 13.050781 21.550781 10.042969 21.210938 C 6.757812 20.847656 3.496094 22.078125 1.261719 24.515625 C 0.964844 24.785156 0.511719 24.773438 0.230469 24.488281 C -0.046875 24.203125 -0.0507812 23.746094 0.222656 23.457031 C 2.765625 20.691406 6.476562 19.308594 10.210938 19.734375 C 13.480469 20.101562 16.726562 21.714844 19.746094 23.398438 C 22.441406 25.0625 25.554688 25.917969 28.71875 25.867188 C 32.007812 25.695312 35.144531 24.132812 38.035156 21.21875 C 38.324219 20.925781 38.792969 20.925781 39.085938 21.214844 C 39.378906 21.503906 39.378906 21.972656 39.089844 22.265625 C 35.929688 25.449219 32.464844 27.160156 28.796875 27.355469 C 28.554688 27.367188 28.3125 27.371094 28.070312 27.371094 Z M 28.070312 27.371094 "/>
<path style=" stroke:none;fill-rule:nonzero;fill:rgb(74.509804%,85.098039%,99.215686%);fill-opacity:1;" d="M 24.054688 19.492188 C 23.648438 19.492188 23.242188 19.46875 22.839844 19.421875 C 20.191406 18.972656 17.628906 18.128906 15.230469 16.917969 C 10.382812 14.785156 5.804688 12.769531 1.230469 16.796875 C 1.03125 16.972656 0.753906 17.03125 0.5 16.945312 C 0.246094 16.859375 0.0585938 16.644531 0.0078125 16.382812 C -0.0429688 16.121094 0.0507812 15.851562 0.25 15.679688 C 2.386719 13.667969 5.304688 12.707031 8.214844 13.058594 C 10.863281 13.507812 13.425781 14.351562 15.824219 15.558594 C 20.667969 17.691406 25.246094 19.707031 29.824219 15.679688 C 30.132812 15.40625 30.601562 15.4375 30.875 15.746094 C 31.144531 16.054688 31.113281 16.523438 30.804688 16.796875 C 28.976562 18.515625 26.566406 19.480469 24.054688 19.492188 Z M 24.054688 19.492188 "/>
<path style=" stroke:none;fill-rule:nonzero;fill:rgb(74.509804%,85.098039%,99.215686%);fill-opacity:1;" d="M 23.890625 12.859375 C 21.78125 12.75 19.71875 12.175781 17.859375 11.175781 C 17.488281 10.996094 17.335938 10.550781 17.511719 10.179688 C 17.691406 9.8125 18.136719 9.65625 18.503906 9.835938 C 21.78125 11.421875 23.527344 11.464844 24.679688 11.320312 C 26.914062 10.972656 28.902344 9.71875 30.179688 7.851562 C 30.875 6.8125 31.027344 5.503906 30.589844 4.332031 C 30.179688 3.355469 29.289062 2.660156 28.238281 2.496094 C 27.386719 2.347656 26.515625 2.628906 25.910156 3.246094 C 25.371094 3.839844 25.25 4.707031 25.613281 5.421875 C 25.839844 5.78125 26.199219 6.03125 26.613281 6.121094 C 26.945312 6.210938 27.300781 6.164062 27.597656 5.984375 C 27.9375 5.761719 28.398438 5.855469 28.625 6.199219 C 28.851562 6.542969 28.753906 7.003906 28.410156 7.226562 C 27.777344 7.632812 27 7.757812 26.269531 7.566406 C 25.460938 7.382812 24.757812 6.878906 24.324219 6.167969 C 23.644531 4.894531 23.835938 3.328125 24.800781 2.253906 C 25.742188 1.261719 27.113281 0.804688 28.460938 1.03125 C 30.046875 1.273438 31.386719 2.339844 31.984375 3.828125 C 32.570312 5.425781 32.371094 7.203125 31.445312 8.628906 C 29.925781 10.878906 27.539062 12.390625 24.855469 12.796875 C 24.535156 12.835938 24.214844 12.855469 23.890625 12.859375 Z M 23.890625 12.859375 "/>
<path style=" stroke:none;fill-rule:nonzero;fill:rgb(74.509804%,85.098039%,99.215686%);fill-opacity:1;" d="M 5.09375 35.96875 C 4.871094 35.96875 4.652344 35.953125 4.433594 35.917969 C 2.84375 35.675781 1.503906 34.609375 0.910156 33.117188 C 0.320312 31.523438 0.519531 29.742188 1.449219 28.316406 C 2.96875 26.070312 5.355469 24.558594 8.039062 24.148438 C 10.480469 24.019531 12.90625 24.585938 15.039062 25.773438 C 15.410156 25.953125 15.5625 26.398438 15.386719 26.769531 C 15.207031 27.136719 14.761719 27.292969 14.390625 27.113281 C 11.113281 25.527344 9.367188 25.484375 8.214844 25.625 C 5.980469 25.976562 3.992188 27.230469 2.714844 29.09375 C 2.019531 30.132812 1.867188 31.445312 2.300781 32.617188 C 2.714844 33.597656 3.609375 34.289062 4.660156 34.449219 C 5.511719 34.59375 6.382812 34.3125 6.988281 33.699219 C 7.527344 33.105469 7.648438 32.238281 7.289062 31.523438 C 7.058594 31.164062 6.699219 30.914062 6.289062 30.820312 C 5.953125 30.734375 5.601562 30.78125 5.304688 30.960938 C 4.960938 31.183594 4.5 31.089844 4.273438 30.746094 C 4.050781 30.402344 4.144531 29.941406 4.488281 29.71875 C 5.125 29.308594 5.902344 29.1875 6.632812 29.378906 C 7.441406 29.5625 8.140625 30.066406 8.574219 30.777344 C 9.257812 32.054688 9.0625 33.621094 8.089844 34.695312 C 7.3125 35.519531 6.226562 35.984375 5.09375 35.96875 Z M 5.09375 35.96875 "/>
<path style=" stroke:none;fill-rule:nonzero;fill:rgb(43.921569%,77.647059%,85.882353%);fill-opacity:1;" d="M 49.53125 1.191406 C 49.414062 0.851562 49.144531 0.582031 48.804688 0.46875 C 45.8125 -0.585938 42.484375 0.171875 40.242188 2.414062 C 38 4.65625 37.246094 7.984375 38.300781 10.976562 C 38.421875 11.316406 38.6875 11.582031 39.027344 11.703125 C 42.019531 12.757812 45.347656 12 47.589844 9.757812 C 49.832031 7.511719 50.585938 4.179688 49.53125 1.191406 Z M 49.53125 1.191406 "/>
<path style=" stroke:none;fill-rule:nonzero;fill:rgb(39.215686%,69.019608%,79.607843%);fill-opacity:1;" d="M 49.53125 1.191406 C 49.429688 0.90625 49.226562 0.671875 48.960938 0.535156 C 49.453125 3.414062 48.382812 6.335938 46.148438 8.21875 C 43.917969 10.101562 40.855469 10.660156 38.101562 9.6875 C 38.046875 9.667969 37.996094 9.644531 37.949219 9.617188 C 38.023438 10.078125 38.140625 10.535156 38.296875 10.976562 C 38.417969 11.3125 38.683594 11.582031 39.023438 11.703125 C 42.015625 12.757812 45.347656 12 47.589844 9.757812 C 49.832031 7.515625 50.585938 4.179688 49.53125 1.191406 Z M 49.53125 1.191406 "/>
<path style=" stroke:none;fill-rule:nonzero;fill:rgb(36.470588%,56.862745%,72.54902%);fill-opacity:1;" d="M 49.613281 1.4375 L 36.6875 14.363281 C 36.546875 14.503906 36.359375 14.582031 36.160156 14.582031 C 35.859375 14.578125 35.589844 14.398438 35.476562 14.121094 C 35.363281 13.84375 35.425781 13.523438 35.636719 13.3125 L 48.5625 0.386719 C 48.644531 0.410156 48.726562 0.4375 48.808594 0.46875 C 49.148438 0.585938 49.414062 0.855469 49.53125 1.195312 C 49.5625 1.273438 49.585938 1.355469 49.613281 1.4375 Z M 49.613281 1.4375 "/>
<path style=" stroke:none;fill-rule:nonzero;fill:rgb(28.627451%,50.196078%,67.45098%);fill-opacity:1;" d="M 49.613281 1.4375 L 49.078125 1.972656 C 49.082031 1.492188 49.042969 1.007812 48.960938 0.535156 C 48.976562 0.542969 48.992188 0.554688 49.011719 0.5625 C 49.089844 0.609375 49.164062 0.664062 49.230469 0.730469 C 49.257812 0.753906 49.285156 0.78125 49.308594 0.808594 C 49.320312 0.824219 49.332031 0.835938 49.34375 0.851562 C 49.355469 0.867188 49.386719 0.910156 49.410156 0.941406 C 49.457031 1.019531 49.5 1.105469 49.53125 1.195312 C 49.5625 1.273438 49.585938 1.355469 49.613281 1.4375 Z M 49.613281 1.4375 "/>
<path style=" stroke:none;fill-rule:nonzero;fill:rgb(28.627451%,50.196078%,67.45098%);fill-opacity:1;" d="M 40.898438 10.152344 L 36.6875 14.363281 C 36.550781 14.503906 36.359375 14.582031 36.160156 14.582031 C 35.863281 14.578125 35.589844 14.398438 35.476562 14.121094 C 35.363281 13.84375 35.425781 13.523438 35.640625 13.3125 L 39 9.945312 C 39.621094 10.085938 40.261719 10.15625 40.898438 10.152344 Z M 40.898438 10.152344 "/>
<path style=" stroke:none;fill-rule:nonzero;fill:rgb(28.627451%,50.196078%,67.45098%);fill-opacity:1;" d="M 49.613281 1.4375 L 49.078125 1.972656 C 49.082031 1.492188 49.042969 1.007812 48.960938 0.535156 C 49.09375 0.601562 49.210938 0.695312 49.308594 0.808594 C 49.457031 0.992188 49.558594 1.207031 49.613281 1.4375 Z M 49.613281 1.4375 "/>
<path style=" stroke:none;fill-rule:nonzero;fill:rgb(43.921569%,77.647059%,85.882353%);fill-opacity:1;" d="M 35.007812 43.367188 C 35.347656 43.25 35.617188 42.980469 35.734375 42.644531 C 36.789062 39.652344 36.03125 36.320312 33.789062 34.078125 C 31.546875 31.835938 28.21875 31.078125 25.226562 32.132812 C 24.886719 32.253906 24.621094 32.519531 24.5 32.859375 C 23.445312 35.851562 24.203125 39.179688 26.445312 41.421875 C 28.6875 43.664062 32.015625 44.421875 35.007812 43.367188 Z M 35.007812 43.367188 "/>
<path style=" stroke:none;fill-rule:nonzero;fill:rgb(39.215686%,69.019608%,79.607843%);fill-opacity:1;" d="M 35.007812 43.367188 C 35.292969 43.269531 35.527344 43.0625 35.664062 42.796875 C 32.785156 43.289062 29.863281 42.21875 27.980469 39.984375 C 26.101562 37.75 25.542969 34.691406 26.515625 31.9375 C 26.535156 31.886719 26.558594 31.832031 26.582031 31.785156 C 26.121094 31.863281 25.667969 31.980469 25.226562 32.136719 C 24.886719 32.253906 24.621094 32.519531 24.5 32.859375 C 23.445312 35.851562 24.203125 39.179688 26.445312 41.421875 C 28.6875 43.664062 32.015625 44.421875 35.007812 43.367188 Z M 35.007812 43.367188 "/>
<path style=" stroke:none;fill-rule:nonzero;fill:rgb(36.470588%,56.862745%,72.54902%);fill-opacity:1;" d="M 35.816406 42.398438 C 35.789062 42.480469 35.761719 42.5625 35.734375 42.640625 C 35.613281 42.980469 35.347656 43.246094 35.007812 43.367188 C 34.925781 43.398438 34.84375 43.425781 34.765625 43.449219 L 24.417969 33.105469 L 21.835938 30.523438 C 21.546875 30.234375 21.546875 29.761719 21.835938 29.472656 C 22.125 29.183594 22.597656 29.183594 22.886719 29.472656 L 25.46875 32.054688 Z M 35.816406 42.398438 "/>
<path style=" stroke:none;fill-rule:nonzero;fill:rgb(28.627451%,50.196078%,67.45098%);fill-opacity:1;" d="M 26.253906 32.839844 C 26.113281 33.460938 26.042969 34.097656 26.046875 34.734375 L 21.835938 30.523438 C 21.546875 30.230469 21.546875 29.761719 21.835938 29.472656 C 22.125 29.179688 22.597656 29.179688 22.886719 29.472656 Z M 26.253906 32.839844 "/>
<path style=" stroke:none;fill-rule:nonzero;fill:rgb(28.627451%,50.196078%,67.45098%);fill-opacity:1;" d="M 35.664062 42.796875 C 35.613281 42.894531 35.550781 42.988281 35.472656 43.070312 C 35.277344 43.257812 35.03125 43.390625 34.765625 43.449219 L 34.226562 42.917969 C 34.707031 42.917969 35.191406 42.878906 35.664062 42.796875 Z M 35.664062 42.796875 "/>
</g>
</svg>
