<?xml version="1.0" encoding="UTF-8"?>
<svg xmlns="http://www.w3.org/2000/svg" xmlns:xlink="http://www.w3.org/1999/xlink" width="50" height="56" viewBox="0 0 50 56" version="1.1">
<g id="surface1">
<path style=" stroke:none;fill-rule:nonzero;fill:rgb(45.882353%,36.862745%,31.764706%);fill-opacity:1;" d="M 26.84375 29.960938 L 42.230469 29.980469 L 26.84375 39.425781 Z M 26.84375 29.960938 "/>
<path style=" stroke:none;fill-rule:nonzero;fill:rgb(45.882353%,36.862745%,31.764706%);fill-opacity:1;" d="M 35.351562 13.886719 L 47.710938 13.886719 L 35.351562 23.890625 Z M 35.351562 13.886719 "/>
<path style=" stroke:none;fill-rule:nonzero;fill:rgb(56.862745%,45.490196%,39.215686%);fill-opacity:1;" d="M 26.84375 18.03125 L 12.0625 18.03125 L 11.949219 17.535156 L 48.863281 0.871094 L 49.15625 1.289062 L 35.878906 14.261719 L 35.878906 23.460938 L 26.84375 30.769531 Z M 26.84375 18.03125 "/>
<path style=" stroke:none;fill-rule:nonzero;fill:rgb(74.901961%,60%,51.764706%);fill-opacity:1;" d="M 15.191406 35.136719 L 1.871094 35.136719 L 27.375 17.265625 L 27.375 39.09375 L 15.191406 46.566406 Z M 15.191406 35.136719 "/>
<path style=" stroke:none;fill-rule:nonzero;fill:rgb(56.862745%,45.490196%,39.215686%);fill-opacity:1;" d="M 0.910156 54.746094 L 15.722656 34.054688 L 15.722656 46.242188 L 1.261719 55.113281 Z M 0.910156 54.746094 "/>
<path style=" stroke:none;fill-rule:nonzero;fill:rgb(0%,0%,0%);fill-opacity:1;" d="M 49.898438 0.476562 C 49.585938 0.0351562 49 -0.121094 48.503906 0.101562 L 11.597656 16.761719 C 11.117188 16.980469 10.855469 17.496094 10.96875 18.003906 C 11.082031 18.511719 11.535156 18.875 12.0625 18.878906 L 23.59375 18.878906 L 2.050781 33.972656 C 1.648438 34.25 1.472656 34.753906 1.621094 35.214844 C 1.769531 35.675781 2.207031 35.988281 2.699219 35.988281 L 13.289062 35.988281 L 0.207031 54.253906 C -0.101562 54.683594 -0.0585938 55.269531 0.308594 55.652344 C 0.671875 56.035156 1.261719 56.109375 1.71875 55.832031 L 41.898438 31.179688 C 42.308594 30.933594 42.511719 30.453125 42.402344 29.992188 C 42.296875 29.53125 41.902344 29.1875 41.421875 29.136719 L 41.398438 29.136719 C 41.375 29.136719 41.347656 29.136719 41.324219 29.136719 L 41.308594 29.136719 L 30.246094 29.121094 L 47.691406 15.007812 C 48.054688 14.710938 48.191406 14.21875 48.03125 13.777344 C 47.871094 13.339844 47.449219 13.046875 46.976562 13.042969 L 38.347656 13.050781 L 49.761719 1.894531 C 50.144531 1.511719 50.203125 0.921875 49.898438 0.476562 Z M 14.332031 45.480469 L 5.242188 51.058594 L 14.332031 38.363281 Z M 25.988281 30.21875 L 25.988281 38.332031 L 16.578125 44.101562 L 16.578125 34.832031 C 16.582031 34.816406 16.582031 34.804688 16.578125 34.789062 C 16.570312 34.699219 16.554688 34.609375 16.523438 34.523438 L 16.511719 34.496094 C 16.496094 34.457031 16.480469 34.421875 16.460938 34.382812 C 16.460938 34.382812 16.460938 34.375 16.460938 34.371094 C 16.441406 34.332031 16.417969 34.292969 16.390625 34.25 C 16.382812 34.246094 16.378906 34.234375 16.375 34.226562 L 16.304688 34.144531 L 16.277344 34.117188 C 16.246094 34.085938 16.214844 34.054688 16.179688 34.027344 L 16.164062 34.015625 C 16.136719 33.992188 16.101562 33.96875 16.066406 33.949219 C 16.058594 33.941406 16.046875 33.9375 16.039062 33.929688 C 16.003906 33.90625 15.964844 33.890625 15.925781 33.875 C 15.925781 33.875 15.925781 33.875 15.914062 33.867188 C 15.871094 33.847656 15.824219 33.835938 15.78125 33.820312 C 15.773438 33.820312 15.761719 33.820312 15.753906 33.8125 C 15.71875 33.804688 15.679688 33.796875 15.640625 33.792969 C 15.628906 33.792969 15.621094 33.792969 15.605469 33.792969 C 15.558594 33.78125 15.511719 33.777344 15.464844 33.777344 L 6.21875 33.777344 L 19.613281 24.382812 L 19.613281 30.855469 C 19.613281 31.46875 20.117188 31.964844 20.738281 31.964844 C 21.359375 31.964844 21.859375 31.46875 21.859375 30.855469 L 21.859375 22.804688 L 25.988281 19.914062 Z M 28.234375 31.328125 L 37.382812 31.34375 L 28.230469 36.960938 Z M 43.832031 15.253906 L 36.738281 20.996094 L 36.738281 15.261719 Z M 34.820312 13.367188 C 34.785156 13.402344 34.753906 13.4375 34.722656 13.476562 C 34.714844 13.488281 34.710938 13.496094 34.699219 13.503906 C 34.671875 13.542969 34.648438 13.582031 34.625 13.625 C 34.601562 13.667969 34.585938 13.714844 34.566406 13.757812 C 34.5625 13.765625 34.558594 13.773438 34.558594 13.78125 C 34.523438 13.875 34.503906 13.96875 34.496094 14.066406 L 34.496094 14.113281 C 34.496094 14.125 34.496094 14.136719 34.496094 14.152344 L 34.496094 22.8125 L 28.246094 27.875 L 28.246094 17.753906 C 28.246094 17.726562 28.246094 17.695312 28.246094 17.671875 C 28.246094 17.644531 28.246094 17.648438 28.246094 17.636719 C 28.246094 17.625 28.246094 17.59375 28.238281 17.570312 C 28.226562 17.546875 28.238281 17.542969 28.226562 17.53125 C 28.222656 17.511719 28.21875 17.492188 28.210938 17.472656 C 28.210938 17.460938 28.207031 17.449219 28.199219 17.433594 C 28.191406 17.40625 28.179688 17.375 28.171875 17.347656 C 28.164062 17.335938 28.15625 17.324219 28.152344 17.308594 L 28.125 17.253906 L 28.101562 17.222656 C 28.09375 17.203125 28.085938 17.183594 28.074219 17.167969 C 28.066406 17.15625 28.058594 17.148438 28.050781 17.136719 C 28.035156 17.121094 28.023438 17.097656 28.011719 17.082031 C 28.003906 17.074219 27.996094 17.066406 27.992188 17.058594 C 27.949219 17.011719 27.902344 16.964844 27.851562 16.925781 L 27.828125 16.902344 L 27.773438 16.863281 C 27.761719 16.855469 27.75 16.851562 27.738281 16.839844 C 27.722656 16.832031 27.707031 16.820312 27.691406 16.8125 C 27.679688 16.804688 27.667969 16.800781 27.65625 16.792969 C 27.632812 16.78125 27.613281 16.769531 27.589844 16.761719 C 27.578125 16.757812 27.566406 16.75 27.554688 16.746094 L 27.4375 16.707031 L 27.375 16.691406 C 27.359375 16.683594 27.339844 16.679688 27.320312 16.679688 C 27.296875 16.675781 27.277344 16.671875 27.253906 16.671875 C 27.242188 16.671875 27.230469 16.671875 27.21875 16.671875 C 27.183594 16.667969 27.148438 16.664062 27.117188 16.664062 L 17.210938 16.664062 L 43.683594 4.710938 Z M 34.820312 13.367188 "/>
<path style=" stroke:none;fill-rule:nonzero;fill:rgb(0%,0%,0%);fill-opacity:1;" d="M 20.738281 33.769531 C 20.132812 33.789062 19.648438 34.28125 19.648438 34.878906 C 19.648438 35.476562 20.132812 35.964844 20.738281 35.984375 C 21.34375 35.964844 21.824219 35.476562 21.824219 34.878906 C 21.824219 34.28125 21.34375 33.789062 20.738281 33.769531 Z M 20.738281 33.769531 "/>
</g>
</svg>
