<?xml version="1.0" encoding="UTF-8"?>
<svg xmlns="http://www.w3.org/2000/svg" xmlns:xlink="http://www.w3.org/1999/xlink" width="50" height="50" viewBox="0 0 50 50" version="1.1">
<g id="surface1">
<path style=" stroke:none;fill-rule:nonzero;fill:rgb(100%,65.098039%,0%);fill-opacity:1;" d="M 49.4375 29.453125 L 44.089844 24.734375 L 49.242188 19.8125 C 49.433594 19.632812 49.511719 19.367188 49.449219 19.113281 C 49.386719 18.859375 49.191406 18.65625 48.941406 18.585938 L 42.074219 16.601562 L 44.613281 9.957031 C 44.703125 9.714844 44.660156 9.4375 44.496094 9.238281 C 44.328125 9.035156 44.070312 8.9375 43.8125 8.976562 L 36.753906 10.113281 L 36.179688 3.027344 C 36.15625 2.765625 35.996094 2.535156 35.757812 2.425781 C 35.519531 2.3125 35.242188 2.335938 35.027344 2.484375 L 29.140625 6.523438 L 25.566406 0.367188 C 25.433594 0.140625 25.191406 0 24.929688 0 C 24.664062 0 24.421875 0.140625 24.289062 0.367188 L 20.191406 7.433594 L 13.089844 3.332031 C 12.867188 3.199219 12.585938 3.199219 12.359375 3.328125 C 12.132812 3.460938 11.992188 3.699219 11.992188 3.960938 L 11.972656 11.070312 L 4.84375 10.488281 C 4.582031 10.464844 4.328125 10.585938 4.179688 10.796875 C 4.03125 11.011719 4.003906 11.289062 4.113281 11.527344 L 7.171875 17.957031 L 0.480469 20.464844 C 0.234375 20.558594 0.0546875 20.773438 0.0117188 21.03125 C -0.03125 21.289062 0.0703125 21.550781 0.273438 21.714844 L 5.800781 26.222656 L 0.84375 31.339844 C 0.660156 31.527344 0.59375 31.796875 0.667969 32.050781 C 0.738281 32.300781 0.941406 32.492188 1.195312 32.554688 L 8.128906 34.269531 L 5.855469 41.007812 C 5.769531 41.257812 5.824219 41.53125 6 41.726562 C 6.175781 41.925781 6.441406 42.011719 6.699219 41.957031 L 13.707031 40.546875 L 14.558594 47.605469 C 14.585938 47.867188 14.757812 48.089844 14.996094 48.191406 C 15.238281 48.292969 15.515625 48.261719 15.726562 48.105469 L 21.445312 43.84375 L 25.261719 49.660156 C 25.398438 49.871094 25.632812 50 25.882812 50 L 25.910156 50 C 26.171875 49.988281 26.410156 49.839844 26.535156 49.609375 L 29.863281 43.515625 L 35.902344 47.316406 C 36.125 47.457031 36.402344 47.46875 36.636719 47.347656 C 36.871094 47.226562 37.019531 46.992188 37.03125 46.730469 L 37.332031 39.628906 L 44.429688 40.492188 C 44.691406 40.523438 44.949219 40.414062 45.105469 40.203125 C 45.265625 39.996094 45.296875 39.71875 45.195312 39.480469 L 42.398438 32.9375 L 49.179688 30.699219 C 49.425781 30.617188 49.613281 30.410156 49.664062 30.152344 C 49.71875 29.898438 49.632812 29.632812 49.4375 29.457031 Z M 49.4375 29.453125 "/>
<path style=" stroke:none;fill-rule:nonzero;fill:rgb(100%,85.882353%,17.647059%);fill-opacity:1;" d="M 39.820312 24.871094 C 39.828125 16.503906 33.054688 9.71875 24.6875 9.714844 C 16.320312 9.710938 9.539062 16.488281 9.535156 24.855469 C 9.535156 33.21875 16.316406 40 24.683594 40 C 33.039062 40.003906 39.820312 33.230469 39.820312 24.871094 Z M 39.820312 24.871094 "/>
<path style=" stroke:none;fill-rule:nonzero;fill:rgb(100%,79.215686%,0%);fill-opacity:1;" d="M 24.683594 9.742188 C 24.304688 9.742188 23.929688 9.753906 23.554688 9.78125 C 31.457031 10.363281 37.570312 16.945312 37.570312 24.871094 C 37.570312 32.796875 31.457031 39.378906 23.554688 39.960938 C 23.929688 39.988281 24.304688 40.003906 24.683594 40.003906 C 33.039062 40.003906 39.8125 33.230469 39.8125 24.871094 C 39.8125 16.515625 33.039062 9.742188 24.683594 9.742188 Z M 24.683594 9.742188 "/>
</g>
</svg>
