<?xml version="1.0" encoding="UTF-8"?>
<svg xmlns="http://www.w3.org/2000/svg" xmlns:xlink="http://www.w3.org/1999/xlink" width="50" height="79" viewBox="0 0 50 79" version="1.1">
<g id="surface1">
<path style=" stroke:none;fill-rule:evenodd;fill:rgb(79.607843%,89.803922%,34.509804%);fill-opacity:1;" d="M 48.429688 71.628906 C 48.441406 72.554688 48.382812 73.476562 48.25 74.394531 C 48.171875 75.019531 48.003906 75.628906 47.746094 76.203125 C 47.597656 76.582031 47.347656 76.910156 47.023438 77.160156 C 46.75 77.355469 46.417969 77.457031 46.082031 77.457031 L 3.96875 77.457031 C 3.648438 77.453125 3.339844 77.347656 3.082031 77.160156 C 2.824219 76.980469 2.582031 76.660156 2.359375 76.203125 C 2.105469 75.628906 1.9375 75.019531 1.859375 74.394531 C 1.726562 73.476562 1.667969 72.554688 1.679688 71.628906 C 1.664062 70.683594 1.710938 69.742188 1.816406 68.804688 C 1.886719 68.171875 2.050781 67.554688 2.300781 66.972656 C 2.46875 66.582031 2.722656 66.238281 3.042969 65.957031 C 3.300781 65.746094 3.628906 65.632812 3.96875 65.640625 L 18.1875 65.640625 L 18.1875 16.582031 L 5.957031 23.265625 C 5.070312 23.683594 4.328125 23.964844 3.765625 24.0625 C 3.183594 24.140625 2.742188 24.042969 2.402344 23.703125 C 2.078125 23.367188 1.859375 22.808594 1.738281 21.992188 C 1.597656 20.851562 1.539062 19.703125 1.558594 18.550781 C 1.558594 17.617188 1.578125 16.839844 1.617188 16.246094 C 1.640625 15.722656 1.742188 15.207031 1.917969 14.710938 C 2.042969 14.3125 2.261719 13.953125 2.5625 13.65625 C 2.898438 13.332031 3.269531 13.035156 3.664062 12.78125 L 20.011719 2.300781 C 20.230469 2.132812 20.476562 2.007812 20.738281 1.921875 C 21.117188 1.804688 21.507812 1.722656 21.902344 1.683594 C 22.363281 1.621094 22.984375 1.582031 23.75 1.5625 C 24.511719 1.542969 25.496094 1.542969 26.722656 1.542969 C 28.207031 1.542969 29.414062 1.5625 30.335938 1.621094 C 31.039062 1.648438 31.742188 1.75 32.425781 1.921875 C 32.90625 2.058594 33.207031 2.238281 33.367188 2.476562 C 33.535156 2.738281 33.621094 3.042969 33.609375 3.351562 L 33.609375 65.640625 L 46.058594 65.640625 C 46.414062 65.636719 46.761719 65.746094 47.042969 65.957031 C 47.378906 66.230469 47.640625 66.578125 47.808594 66.972656 C 48.058594 67.554688 48.222656 68.171875 48.289062 68.804688 C 48.394531 69.742188 48.441406 70.683594 48.429688 71.628906 Z M 48.429688 71.628906 "/>
<path style=" stroke:none;fill-rule:nonzero;fill:rgb(0%,0%,0%);fill-opacity:1;" d="M 49.835938 68.601562 C 49.746094 67.820312 49.539062 67.054688 49.222656 66.332031 C 49.222656 66.324219 49.21875 66.316406 49.214844 66.308594 C 48.863281 65.585938 48.46875 65.078125 47.964844 64.714844 C 47.414062 64.308594 46.746094 64.09375 46.0625 64.097656 L 35.167969 64.097656 L 35.167969 3.351562 C 35.179688 2.738281 35.003906 2.136719 34.664062 1.621094 C 34.292969 1.070312 33.707031 0.683594 32.871094 0.441406 C 32.074219 0.234375 31.257812 0.113281 30.4375 0.0820312 C 29.554688 0.0273438 28.40625 0 26.722656 0 C 25.476562 0 24.492188 0 23.707031 0.0195312 C 22.886719 0.0429688 22.210938 0.0859375 21.707031 0.152344 C 21.210938 0.207031 20.722656 0.308594 20.242188 0.457031 L 20.210938 0.46875 C 19.820312 0.601562 19.449219 0.792969 19.113281 1.039062 L 2.820312 11.488281 C 2.804688 11.496094 2.789062 11.507812 2.777344 11.515625 C 2.296875 11.828125 1.847656 12.1875 1.441406 12.585938 C 0.988281 13.042969 0.648438 13.59375 0.449219 14.203125 C 0.226562 14.828125 0.0976562 15.480469 0.0625 16.140625 C 0.0234375 16.773438 0 17.582031 0 18.550781 C -0.0195312 19.777344 0.046875 21 0.195312 22.21875 C 0.363281 23.347656 0.714844 24.179688 1.265625 24.761719 C 1.277344 24.773438 1.289062 24.785156 1.300781 24.796875 C 1.984375 25.472656 2.882812 25.742188 3.976562 25.589844 C 4 25.589844 4.019531 25.585938 4.039062 25.582031 C 4.722656 25.460938 5.570312 25.160156 6.625 24.660156 C 6.652344 24.644531 6.679688 24.632812 6.707031 24.617188 L 16.625 19.195312 L 16.625 34.167969 C 16.625 35.019531 17.324219 35.710938 18.183594 35.710938 C 19.042969 35.710938 19.742188 35.019531 19.742188 34.167969 L 19.742188 16.582031 C 19.742188 16.035156 19.449219 15.53125 18.976562 15.253906 C 18.5 14.976562 17.914062 14.96875 17.429688 15.230469 L 5.242188 21.894531 C 4.320312 22.328125 3.800781 22.484375 3.523438 22.539062 C 3.507812 22.539062 3.492188 22.539062 3.476562 22.542969 C 3.375 22.292969 3.308594 22.035156 3.277344 21.769531 C 3.152344 20.703125 3.097656 19.628906 3.113281 18.550781 C 3.113281 17.652344 3.132812 16.910156 3.171875 16.347656 C 3.183594 15.976562 3.253906 15.613281 3.375 15.261719 C 3.382812 15.234375 3.394531 15.207031 3.402344 15.179688 C 3.449219 15.019531 3.539062 14.871094 3.664062 14.75 C 3.675781 14.734375 3.6875 14.722656 3.703125 14.707031 C 3.960938 14.46875 4.238281 14.253906 4.535156 14.0625 L 20.859375 3.59375 C 20.902344 3.566406 20.945312 3.535156 20.984375 3.503906 C 21.066406 3.449219 21.152344 3.40625 21.242188 3.378906 C 21.523438 3.296875 21.8125 3.242188 22.101562 3.210938 C 22.507812 3.160156 23.074219 3.125 23.789062 3.105469 C 24.53125 3.085938 25.5 3.085938 26.722656 3.085938 C 28.335938 3.085938 29.421875 3.109375 30.234375 3.164062 C 31.296875 3.230469 31.777344 3.339844 31.972656 3.398438 L 31.988281 3.402344 C 32.011719 3.410156 32.03125 3.414062 32.050781 3.421875 L 32.050781 65.640625 C 32.050781 66.492188 32.75 67.183594 33.609375 67.183594 L 46.058594 67.183594 C 46.070312 67.183594 46.082031 67.183594 46.09375 67.183594 C 46.105469 67.191406 46.113281 67.195312 46.125 67.203125 C 46.242188 67.324219 46.335938 67.46875 46.394531 67.625 C 46.578125 68.066406 46.695312 68.527344 46.746094 69 C 46.839844 69.871094 46.882812 70.75 46.871094 71.628906 C 46.882812 72.472656 46.828125 73.316406 46.710938 74.152344 C 46.585938 74.945312 46.445312 75.328125 46.355469 75.515625 C 46.339844 75.539062 46.328125 75.5625 46.320312 75.589844 C 46.277344 75.699219 46.214844 75.800781 46.136719 75.890625 L 46.117188 75.902344 C 46.109375 75.914062 46.09375 75.917969 46.082031 75.914062 L 4.003906 75.914062 C 4 75.910156 3.996094 75.90625 3.988281 75.902344 C 3.898438 75.792969 3.824219 75.667969 3.765625 75.539062 C 3.761719 75.53125 3.757812 75.523438 3.753906 75.515625 C 3.660156 75.328125 3.523438 74.945312 3.398438 74.152344 C 3.277344 73.316406 3.226562 72.472656 3.234375 71.628906 C 3.222656 70.753906 3.265625 69.875 3.363281 69.003906 C 3.414062 68.53125 3.53125 68.070312 3.710938 67.628906 C 3.78125 67.464844 3.875 67.316406 3.992188 67.183594 L 18.1875 67.183594 C 19.046875 67.183594 19.742188 66.492188 19.742188 65.640625 L 19.742188 48.054688 C 19.742188 47.203125 19.046875 46.511719 18.1875 46.511719 C 17.324219 46.511719 16.628906 47.203125 16.628906 48.054688 L 16.628906 64.097656 L 3.96875 64.097656 C 3.273438 64.089844 2.597656 64.324219 2.058594 64.761719 C 1.558594 65.183594 1.160156 65.710938 0.894531 66.308594 C 0.890625 66.316406 0.886719 66.324219 0.882812 66.332031 C 0.566406 67.054688 0.363281 67.820312 0.273438 68.605469 C 0.160156 69.609375 0.109375 70.617188 0.121094 71.628906 C 0.109375 72.632812 0.175781 73.636719 0.320312 74.632812 C 0.472656 75.601562 0.679688 76.316406 0.960938 76.878906 C 1.300781 77.582031 1.703125 78.082031 2.1875 78.421875 C 2.707031 78.792969 3.328125 78.996094 3.96875 79 L 46.082031 79 C 46.742188 79 47.382812 78.800781 47.921875 78.421875 C 48.46875 78.019531 48.898438 77.480469 49.160156 76.855469 C 49.4375 76.292969 49.636719 75.585938 49.789062 74.632812 C 49.933594 73.640625 50 72.632812 49.988281 71.628906 C 50 70.617188 49.949219 69.605469 49.835938 68.601562 Z M 49.835938 68.601562 "/>
<path style=" stroke:none;fill-rule:nonzero;fill:rgb(0%,0%,0%);fill-opacity:1;" d="M 18.1875 42.652344 C 19.046875 42.652344 19.746094 41.964844 19.746094 41.109375 C 19.746094 40.257812 19.046875 39.566406 18.1875 39.566406 C 17.324219 39.570312 16.628906 40.257812 16.628906 41.113281 C 16.628906 41.964844 17.328125 42.65625 18.1875 42.652344 Z M 18.1875 42.652344 "/>
<path style=" stroke:none;fill-rule:evenodd;fill:rgb(79.607843%,89.803922%,34.509804%);fill-opacity:1;" d="M 48.429688 71.628906 C 48.441406 72.554688 48.382812 73.476562 48.25 74.394531 C 48.171875 75.019531 48.003906 75.628906 47.746094 76.203125 C 47.597656 76.582031 47.347656 76.910156 47.023438 77.160156 C 46.75 77.355469 46.417969 77.457031 46.082031 77.457031 L 3.96875 77.457031 C 3.648438 77.453125 3.339844 77.347656 3.082031 77.160156 C 2.824219 76.980469 2.582031 76.660156 2.359375 76.203125 C 2.105469 75.628906 1.9375 75.019531 1.859375 74.394531 C 1.726562 73.476562 1.667969 72.554688 1.679688 71.628906 C 1.664062 70.683594 1.710938 69.742188 1.816406 68.804688 C 1.886719 68.171875 2.050781 67.554688 2.300781 66.972656 C 2.46875 66.582031 2.722656 66.238281 3.042969 65.957031 C 3.300781 65.746094 3.628906 65.632812 3.96875 65.640625 L 18.1875 65.640625 L 18.1875 16.582031 L 5.957031 23.265625 C 5.070312 23.683594 4.328125 23.964844 3.765625 24.0625 C 3.183594 24.140625 2.742188 24.042969 2.402344 23.703125 C 2.078125 23.367188 1.859375 22.808594 1.738281 21.992188 C 1.597656 20.851562 1.539062 19.703125 1.558594 18.550781 C 1.558594 17.617188 1.578125 16.839844 1.617188 16.246094 C 1.640625 15.722656 1.742188 15.207031 1.917969 14.710938 C 2.042969 14.3125 2.261719 13.953125 2.5625 13.65625 C 2.898438 13.332031 3.269531 13.035156 3.664062 12.78125 L 20.011719 2.300781 C 20.230469 2.132812 20.476562 2.007812 20.738281 1.921875 C 21.117188 1.804688 21.507812 1.722656 21.902344 1.683594 C 22.363281 1.621094 22.984375 1.582031 23.75 1.5625 C 24.511719 1.542969 25.496094 1.542969 26.722656 1.542969 C 28.207031 1.542969 29.414062 1.5625 30.335938 1.621094 C 31.039062 1.648438 31.742188 1.75 32.425781 1.921875 C 32.90625 2.058594 33.207031 2.238281 33.367188 2.476562 C 33.535156 2.738281 33.621094 3.042969 33.609375 3.351562 L 33.609375 65.640625 L 46.058594 65.640625 C 46.414062 65.636719 46.761719 65.746094 47.042969 65.957031 C 47.378906 66.230469 47.640625 66.578125 47.808594 66.972656 C 48.058594 67.554688 48.222656 68.171875 48.289062 68.804688 C 48.394531 69.742188 48.441406 70.683594 48.429688 71.628906 Z M 48.429688 71.628906 "/>
<path style=" stroke:none;fill-rule:nonzero;fill:rgb(0%,0%,0%);fill-opacity:1;" d="M 49.835938 68.601562 C 49.746094 67.820312 49.539062 67.054688 49.222656 66.332031 C 49.222656 66.324219 49.21875 66.316406 49.214844 66.308594 C 48.863281 65.585938 48.46875 65.078125 47.964844 64.714844 C 47.414062 64.308594 46.746094 64.09375 46.0625 64.097656 L 35.167969 64.097656 L 35.167969 3.351562 C 35.179688 2.738281 35.003906 2.136719 34.664062 1.621094 C 34.292969 1.070312 33.707031 0.683594 32.871094 0.441406 C 32.074219 0.234375 31.257812 0.113281 30.4375 0.0820312 C 29.554688 0.0273438 28.40625 0 26.722656 0 C 25.476562 0 24.492188 0 23.707031 0.0195312 C 22.886719 0.0429688 22.210938 0.0859375 21.707031 0.152344 C 21.210938 0.207031 20.722656 0.308594 20.242188 0.457031 L 20.210938 0.46875 C 19.820312 0.601562 19.449219 0.792969 19.113281 1.039062 L 2.820312 11.488281 C 2.804688 11.496094 2.789062 11.507812 2.777344 11.515625 C 2.296875 11.828125 1.847656 12.1875 1.441406 12.585938 C 0.988281 13.042969 0.648438 13.59375 0.449219 14.203125 C 0.226562 14.828125 0.0976562 15.480469 0.0625 16.140625 C 0.0234375 16.773438 0 17.582031 0 18.550781 C -0.0195312 19.777344 0.046875 21 0.195312 22.21875 C 0.363281 23.347656 0.714844 24.179688 1.265625 24.761719 C 1.277344 24.773438 1.289062 24.785156 1.300781 24.796875 C 1.984375 25.472656 2.882812 25.742188 3.976562 25.589844 C 4 25.589844 4.019531 25.585938 4.039062 25.582031 C 4.722656 25.460938 5.570312 25.160156 6.625 24.660156 C 6.652344 24.644531 6.679688 24.632812 6.707031 24.617188 L 16.625 19.195312 L 16.625 34.167969 C 16.625 35.019531 17.324219 35.710938 18.183594 35.710938 C 19.042969 35.710938 19.742188 35.019531 19.742188 34.167969 L 19.742188 16.582031 C 19.742188 16.035156 19.449219 15.53125 18.976562 15.253906 C 18.5 14.976562 17.914062 14.96875 17.429688 15.230469 L 5.242188 21.894531 C 4.320312 22.328125 3.800781 22.484375 3.523438 22.539062 C 3.507812 22.539062 3.492188 22.539062 3.476562 22.542969 C 3.375 22.292969 3.308594 22.035156 3.277344 21.769531 C 3.152344 20.703125 3.097656 19.628906 3.113281 18.550781 C 3.113281 17.652344 3.132812 16.910156 3.171875 16.347656 C 3.183594 15.976562 3.253906 15.613281 3.375 15.261719 C 3.382812 15.234375 3.394531 15.207031 3.402344 15.179688 C 3.449219 15.019531 3.539062 14.871094 3.664062 14.75 C 3.675781 14.734375 3.6875 14.722656 3.703125 14.707031 C 3.960938 14.46875 4.238281 14.253906 4.535156 14.0625 L 20.859375 3.59375 C 20.902344 3.566406 20.945312 3.535156 20.984375 3.503906 C 21.066406 3.449219 21.152344 3.40625 21.242188 3.378906 C 21.523438 3.296875 21.8125 3.242188 22.101562 3.210938 C 22.507812 3.160156 23.074219 3.125 23.789062 3.105469 C 24.53125 3.085938 25.5 3.085938 26.722656 3.085938 C 28.335938 3.085938 29.421875 3.109375 30.234375 3.164062 C 31.296875 3.230469 31.777344 3.339844 31.972656 3.398438 L 31.988281 3.402344 C 32.011719 3.410156 32.03125 3.414062 32.050781 3.421875 L 32.050781 65.640625 C 32.050781 66.492188 32.75 67.183594 33.609375 67.183594 L 46.058594 67.183594 C 46.070312 67.183594 46.082031 67.183594 46.09375 67.183594 C 46.105469 67.191406 46.113281 67.195312 46.125 67.203125 C 46.242188 67.324219 46.335938 67.46875 46.394531 67.625 C 46.578125 68.066406 46.695312 68.527344 46.746094 69 C 46.839844 69.871094 46.882812 70.75 46.871094 71.628906 C 46.882812 72.472656 46.828125 73.316406 46.710938 74.152344 C 46.585938 74.945312 46.445312 75.328125 46.355469 75.515625 C 46.339844 75.539062 46.328125 75.5625 46.320312 75.589844 C 46.277344 75.699219 46.214844 75.800781 46.136719 75.890625 L 46.117188 75.902344 C 46.109375 75.914062 46.09375 75.917969 46.082031 75.914062 L 4.003906 75.914062 C 4 75.910156 3.996094 75.90625 3.988281 75.902344 C 3.898438 75.792969 3.824219 75.667969 3.765625 75.539062 C 3.761719 75.53125 3.757812 75.523438 3.753906 75.515625 C 3.660156 75.328125 3.523438 74.945312 3.398438 74.152344 C 3.277344 73.316406 3.226562 72.472656 3.234375 71.628906 C 3.222656 70.753906 3.265625 69.875 3.363281 69.003906 C 3.414062 68.53125 3.53125 68.070312 3.710938 67.628906 C 3.78125 67.464844 3.875 67.316406 3.992188 67.183594 L 18.1875 67.183594 C 19.046875 67.183594 19.742188 66.492188 19.742188 65.640625 L 19.742188 48.054688 C 19.742188 47.203125 19.046875 46.511719 18.1875 46.511719 C 17.324219 46.511719 16.628906 47.203125 16.628906 48.054688 L 16.628906 64.097656 L 3.96875 64.097656 C 3.273438 64.089844 2.597656 64.324219 2.058594 64.761719 C 1.558594 65.183594 1.160156 65.710938 0.894531 66.308594 C 0.890625 66.316406 0.886719 66.324219 0.882812 66.332031 C 0.566406 67.054688 0.363281 67.820312 0.273438 68.605469 C 0.160156 69.609375 0.109375 70.617188 0.121094 71.628906 C 0.109375 72.632812 0.175781 73.636719 0.320312 74.632812 C 0.472656 75.601562 0.679688 76.316406 0.960938 76.878906 C 1.300781 77.582031 1.703125 78.082031 2.1875 78.421875 C 2.707031 78.792969 3.328125 78.996094 3.96875 79 L 46.082031 79 C 46.742188 79 47.382812 78.800781 47.921875 78.421875 C 48.46875 78.019531 48.898438 77.480469 49.160156 76.855469 C 49.4375 76.292969 49.636719 75.585938 49.789062 74.632812 C 49.933594 73.640625 50 72.632812 49.988281 71.628906 C 50 70.617188 49.949219 69.605469 49.835938 68.601562 Z M 49.835938 68.601562 "/>
<path style=" stroke:none;fill-rule:nonzero;fill:rgb(0%,0%,0%);fill-opacity:1;" d="M 18.1875 42.652344 C 19.046875 42.652344 19.746094 41.964844 19.746094 41.109375 C 19.746094 40.257812 19.046875 39.566406 18.1875 39.566406 C 17.324219 39.570312 16.628906 40.257812 16.628906 41.113281 C 16.628906 41.964844 17.328125 42.65625 18.1875 42.652344 Z M 18.1875 42.652344 "/>
</g>
</svg>
