<?xml version="1.0" encoding="UTF-8"?>
<svg xmlns="http://www.w3.org/2000/svg" xmlns:xlink="http://www.w3.org/1999/xlink" width="50" height="74" viewBox="0 0 50 74" version="1.1">
<g id="surface1">
<path style=" stroke:none;fill-rule:evenodd;fill:rgb(100%,35.294118%,34.509804%);fill-opacity:1;" d="M 48.609375 66.765625 C 48.621094 67.664062 48.578125 68.566406 48.480469 69.457031 C 48.40625 70.074219 48.269531 70.679688 48.070312 71.265625 C 47.933594 71.65625 47.691406 72 47.367188 72.261719 C 47.078125 72.457031 46.734375 72.558594 46.382812 72.554688 L 5.957031 72.554688 C 5.265625 72.566406 4.574219 72.492188 3.898438 72.332031 C 3.355469 72.207031 2.863281 71.917969 2.492188 71.503906 C 2.121094 71.078125 1.859375 70.488281 1.695312 69.699219 C 1.527344 68.90625 1.453125 67.871094 1.453125 66.617188 C 1.441406 65.597656 1.5 64.574219 1.621094 63.558594 C 1.707031 62.777344 1.90625 62.015625 2.214844 61.292969 C 2.519531 60.613281 2.890625 59.964844 3.324219 59.355469 C 3.863281 58.617188 4.460938 57.921875 5.105469 57.273438 L 17.28125 44.335938 C 19.710938 41.808594 21.675781 39.523438 23.160156 37.441406 C 24.640625 35.375 25.808594 33.476562 26.644531 31.765625 C 27.394531 30.261719 27.96875 28.679688 28.347656 27.046875 C 28.652344 25.695312 28.804688 24.316406 28.8125 22.933594 C 28.820312 21.785156 28.625 20.644531 28.238281 19.5625 C 27.875 18.535156 27.300781 17.59375 26.550781 16.796875 C 25.765625 15.980469 24.8125 15.34375 23.75 14.9375 C 22.640625 14.492188 21.324219 14.273438 19.785156 14.273438 C 17.652344 14.273438 15.761719 14.546875 14.113281 15.082031 C 12.617188 15.558594 11.164062 16.160156 9.777344 16.890625 C 8.515625 17.570312 7.476562 18.179688 6.644531 18.734375 C 5.808594 19.304688 5.160156 19.582031 4.695312 19.582031 C 4.378906 19.585938 4.074219 19.464844 3.84375 19.25 C 3.601562 19.046875 3.417969 18.675781 3.269531 18.179688 C 3.105469 17.507812 2.988281 16.824219 2.917969 16.132812 C 2.820312 15.105469 2.777344 14.070312 2.789062 13.035156 C 2.789062 12.207031 2.804688 11.507812 2.863281 10.933594 C 2.910156 10.445312 2.996094 9.957031 3.121094 9.480469 C 3.207031 9.097656 3.351562 8.734375 3.546875 8.394531 C 3.820312 7.992188 4.140625 7.621094 4.492188 7.289062 C 4.957031 6.863281 5.789062 6.3125 6.996094 5.648438 C 8.433594 4.871094 9.933594 4.21875 11.480469 3.695312 C 13.398438 3.027344 15.363281 2.492188 17.355469 2.089844 C 19.554688 1.65625 21.789062 1.441406 24.03125 1.445312 C 27.699219 1.445312 30.886719 1.90625 33.632812 2.828125 C 36.355469 3.75 38.636719 5.019531 40.453125 6.660156 C 42.238281 8.261719 43.621094 10.257812 44.492188 12.484375 C 45.394531 14.800781 45.847656 17.265625 45.828125 19.75 C 45.828125 21.992188 45.609375 24.234375 45.179688 26.4375 C 44.734375 28.648438 43.824219 31.011719 42.453125 33.554688 C 41.082031 36.078125 39.136719 38.898438 36.632812 41.976562 C 34.132812 45.054688 30.8125 48.628906 26.679688 52.703125 L 18.46875 61.054688 L 46.160156 61.054688 C 46.523438 61.050781 46.875 61.167969 47.164062 61.386719 C 47.515625 61.636719 47.792969 61.984375 47.960938 62.382812 C 48.183594 62.824219 48.332031 63.414062 48.441406 64.152344 C 48.5625 65.019531 48.617188 65.894531 48.609375 66.769531 Z M 48.609375 66.765625 "/>
<path style=" stroke:none;fill-rule:nonzero;fill:rgb(0%,0%,0%);fill-opacity:1;" d="M 49.878906 63.933594 C 49.738281 62.996094 49.542969 62.300781 49.265625 61.746094 C 48.992188 61.125 48.550781 60.589844 47.996094 60.199219 C 47.464844 59.8125 46.820312 59.605469 46.160156 59.609375 L 21.921875 59.609375 L 27.710938 53.722656 C 31.859375 49.632812 35.242188 45.988281 37.765625 42.886719 C 40.308594 39.753906 42.320312 36.84375 43.734375 34.234375 C 45.191406 31.535156 46.132812 29.078125 46.605469 26.710938 C 47.054688 24.417969 47.28125 22.085938 47.28125 19.746094 C 47.300781 17.085938 46.8125 14.441406 45.847656 11.957031 C 44.890625 9.523438 43.378906 7.34375 41.429688 5.589844 C 39.488281 3.835938 37.023438 2.449219 34.097656 1.457031 C 31.214844 0.492188 27.828125 0 24.03125 0 C 21.691406 -0.00390625 19.355469 0.222656 17.0625 0.675781 C 15.003906 1.089844 12.976562 1.644531 10.996094 2.332031 C 9.371094 2.882812 7.796875 3.570312 6.292969 4.382812 C 4.992188 5.101562 4.082031 5.703125 3.507812 6.226562 C 3.496094 6.238281 3.480469 6.253906 3.464844 6.265625 C 3.03125 6.675781 2.648438 7.132812 2.316406 7.628906 C 2.308594 7.640625 2.300781 7.648438 2.296875 7.660156 C 2.027344 8.121094 1.828125 8.621094 1.710938 9.136719 C 1.570312 9.683594 1.46875 10.238281 1.414062 10.796875 C 1.359375 11.375 1.335938 12.066406 1.335938 13.039062 C 1.324219 14.125 1.371094 15.207031 1.472656 16.289062 C 1.546875 17.042969 1.679688 17.792969 1.859375 18.53125 C 1.863281 18.550781 1.871094 18.570312 1.875 18.589844 C 2.113281 19.390625 2.433594 19.945312 2.878906 20.332031 C 3.375 20.785156 4.027344 21.03125 4.699219 21.027344 C 5.488281 21.027344 6.363281 20.679688 7.457031 19.929688 C 8.238281 19.414062 9.222656 18.835938 10.464844 18.164062 C 11.777344 17.476562 13.148438 16.90625 14.5625 16.457031 C 16.078125 15.96875 17.835938 15.71875 19.785156 15.71875 C 21.125 15.71875 22.277344 15.90625 23.203125 16.273438 C 24.066406 16.605469 24.847656 17.121094 25.488281 17.78125 C 26.101562 18.4375 26.574219 19.210938 26.871094 20.054688 C 27.203125 20.980469 27.367188 21.957031 27.359375 22.9375 C 27.351562 24.214844 27.207031 25.492188 26.929688 26.738281 C 26.574219 28.261719 26.039062 29.738281 25.335938 31.136719 C 25.097656 31.601562 25.132812 32.160156 25.425781 32.59375 C 25.71875 33.027344 26.222656 33.269531 26.746094 33.230469 C 27.269531 33.1875 27.730469 32.867188 27.953125 32.394531 C 28.753906 30.792969 29.363281 29.101562 29.769531 27.355469 C 30.09375 25.902344 30.257812 24.421875 30.265625 22.9375 C 30.273438 21.625 30.050781 20.320312 29.609375 19.085938 C 29.179688 17.871094 28.5 16.753906 27.613281 15.816406 C 26.683594 14.839844 25.550781 14.082031 24.292969 13.59375 C 23.011719 13.085938 21.496094 12.828125 19.785156 12.828125 C 17.527344 12.828125 15.46875 13.125 13.664062 13.710938 C 12.082031 14.210938 10.546875 14.851562 9.082031 15.621094 C 7.753906 16.339844 6.691406 16.964844 5.835938 17.53125 L 5.820312 17.542969 C 5.503906 17.777344 5.15625 17.96875 4.785156 18.109375 C 4.742188 18.007812 4.703125 17.90625 4.671875 17.800781 C 4.527344 17.199219 4.421875 16.59375 4.363281 15.980469 C 4.269531 15 4.230469 14.019531 4.242188 13.039062 C 4.242188 12.171875 4.261719 11.550781 4.308594 11.082031 C 4.347656 10.664062 4.421875 10.25 4.527344 9.847656 C 4.53125 9.832031 4.535156 9.816406 4.539062 9.800781 C 4.589844 9.570312 4.675781 9.351562 4.789062 9.144531 C 5 8.851562 5.234375 8.578125 5.496094 8.332031 C 5.734375 8.121094 6.324219 7.667969 7.707031 6.90625 C 9.070312 6.171875 10.496094 5.554688 11.96875 5.054688 C 13.820312 4.414062 15.71875 3.894531 17.640625 3.507812 C 19.746094 3.09375 21.886719 2.886719 24.03125 2.890625 C 27.511719 2.890625 30.585938 3.332031 33.164062 4.195312 C 35.707031 5.054688 37.832031 6.246094 39.476562 7.730469 C 41.097656 9.183594 42.355469 10.992188 43.140625 13.015625 C 43.976562 15.164062 44.394531 17.445312 44.375 19.746094 C 44.375 21.898438 44.164062 24.042969 43.753906 26.15625 C 43.339844 28.226562 42.492188 30.421875 41.175781 32.867188 C 39.847656 35.316406 37.9375 38.074219 35.503906 41.066406 C 33.046875 44.089844 29.734375 47.660156 25.65625 51.675781 C 25.652344 51.683594 25.648438 51.6875 25.640625 51.691406 L 17.429688 60.042969 C 17.023438 60.457031 16.902344 61.078125 17.128906 61.613281 C 17.355469 62.148438 17.886719 62.5 18.46875 62.5 L 46.160156 62.5 C 46.210938 62.496094 46.253906 62.511719 46.289062 62.542969 C 46.316406 62.5625 46.34375 62.582031 46.375 62.597656 C 46.386719 62.605469 46.492188 62.683594 46.648438 63.007812 C 46.652344 63.015625 46.65625 63.019531 46.660156 63.027344 C 46.835938 63.453125 46.953125 63.90625 47.003906 64.367188 C 47.113281 65.160156 47.164062 65.964844 47.15625 66.769531 C 47.164062 67.605469 47.125 68.445312 47.035156 69.28125 C 46.976562 69.78125 46.867188 70.277344 46.710938 70.757812 C 46.664062 70.875 46.601562 70.988281 46.519531 71.085938 C 46.476562 71.105469 46.429688 71.113281 46.382812 71.109375 L 5.957031 71.109375 C 5.386719 71.121094 4.820312 71.0625 4.261719 70.933594 C 4.003906 70.878906 3.769531 70.75 3.589844 70.558594 C 3.386719 70.328125 3.230469 69.941406 3.117188 69.402344 C 2.976562 68.742188 2.90625 67.804688 2.90625 66.621094 C 2.898438 65.660156 2.949219 64.703125 3.0625 63.746094 C 3.128906 63.105469 3.292969 62.476562 3.539062 61.878906 C 3.808594 61.289062 4.132812 60.726562 4.507812 60.195312 C 5.003906 59.519531 5.550781 58.878906 6.144531 58.285156 C 6.152344 58.277344 6.160156 58.269531 6.164062 58.261719 L 18.339844 45.328125 C 18.957031 44.683594 19.550781 44.050781 20.097656 43.449219 C 20.632812 42.859375 20.585938 41.949219 19.992188 41.414062 C 19.402344 40.878906 18.484375 40.921875 17.945312 41.507812 C 17.414062 42.09375 16.835938 42.710938 16.230469 43.335938 L 16.222656 43.347656 L 4.054688 56.277344 C 3.359375 56.976562 2.71875 57.726562 2.136719 58.523438 C 1.648438 59.210938 1.230469 59.941406 0.886719 60.707031 C 0.523438 61.554688 0.285156 62.457031 0.179688 63.375 C 0.0507812 64.449219 -0.0078125 65.535156 0 66.621094 C 0 68.023438 0.0898438 69.125 0.273438 69.996094 C 0.492188 71.035156 0.859375 71.839844 1.390625 72.449219 C 1.957031 73.085938 2.707031 73.535156 3.539062 73.734375 C 4.328125 73.921875 5.144531 74.011719 5.957031 74 L 46.382812 74 C 47.027344 74.003906 47.660156 73.8125 48.191406 73.449219 C 48.203125 73.441406 48.214844 73.433594 48.226562 73.425781 C 48.769531 73.007812 49.183594 72.445312 49.421875 71.800781 C 49.429688 71.78125 49.4375 71.757812 49.445312 71.738281 C 49.675781 71.054688 49.835938 70.351562 49.921875 69.636719 C 50.027344 68.683594 50.074219 67.726562 50.0625 66.769531 C 50.070312 65.820312 50.007812 64.875 49.878906 63.933594 Z M 49.878906 63.933594 "/>
<path style=" stroke:none;fill-rule:nonzero;fill:rgb(0%,0%,0%);fill-opacity:1;" d="M 24.613281 37.441406 C 24.613281 36.644531 23.960938 35.996094 23.160156 35.996094 L 23.15625 35.996094 C 22.355469 35.996094 21.703125 36.644531 21.707031 37.441406 C 21.707031 38.242188 22.355469 38.886719 23.160156 38.886719 C 23.960938 38.886719 24.613281 38.242188 24.613281 37.441406 Z M 24.613281 37.441406 "/>
<path style=" stroke:none;fill-rule:evenodd;fill:rgb(100%,35.294118%,34.509804%);fill-opacity:1;" d="M 48.609375 66.765625 C 48.621094 67.664062 48.578125 68.566406 48.480469 69.457031 C 48.40625 70.074219 48.269531 70.679688 48.070312 71.265625 C 47.933594 71.65625 47.691406 72 47.367188 72.261719 C 47.078125 72.457031 46.734375 72.558594 46.382812 72.554688 L 5.957031 72.554688 C 5.265625 72.566406 4.574219 72.492188 3.898438 72.332031 C 3.355469 72.207031 2.863281 71.917969 2.492188 71.503906 C 2.121094 71.078125 1.859375 70.488281 1.695312 69.699219 C 1.527344 68.90625 1.453125 67.871094 1.453125 66.617188 C 1.441406 65.597656 1.5 64.574219 1.621094 63.558594 C 1.707031 62.777344 1.90625 62.015625 2.214844 61.292969 C 2.519531 60.613281 2.890625 59.964844 3.324219 59.355469 C 3.863281 58.617188 4.460938 57.921875 5.105469 57.273438 L 17.28125 44.335938 C 19.710938 41.808594 21.675781 39.523438 23.160156 37.441406 C 24.640625 35.375 25.808594 33.476562 26.644531 31.765625 C 27.394531 30.261719 27.96875 28.679688 28.347656 27.046875 C 28.652344 25.695312 28.804688 24.316406 28.8125 22.933594 C 28.820312 21.785156 28.625 20.644531 28.238281 19.5625 C 27.875 18.535156 27.300781 17.59375 26.550781 16.796875 C 25.765625 15.980469 24.8125 15.34375 23.75 14.9375 C 22.640625 14.492188 21.324219 14.273438 19.785156 14.273438 C 17.652344 14.273438 15.761719 14.546875 14.113281 15.082031 C 12.617188 15.558594 11.164062 16.160156 9.777344 16.890625 C 8.515625 17.570312 7.476562 18.179688 6.644531 18.734375 C 5.808594 19.304688 5.160156 19.582031 4.695312 19.582031 C 4.378906 19.585938 4.074219 19.464844 3.84375 19.25 C 3.601562 19.046875 3.417969 18.675781 3.269531 18.179688 C 3.105469 17.507812 2.988281 16.824219 2.917969 16.132812 C 2.820312 15.105469 2.777344 14.070312 2.789062 13.035156 C 2.789062 12.207031 2.804688 11.507812 2.863281 10.933594 C 2.910156 10.445312 2.996094 9.957031 3.121094 9.480469 C 3.207031 9.097656 3.351562 8.734375 3.546875 8.394531 C 3.820312 7.992188 4.140625 7.621094 4.492188 7.289062 C 4.957031 6.863281 5.789062 6.3125 6.996094 5.648438 C 8.433594 4.871094 9.933594 4.21875 11.480469 3.695312 C 13.398438 3.027344 15.363281 2.492188 17.355469 2.089844 C 19.554688 1.65625 21.789062 1.441406 24.03125 1.445312 C 27.699219 1.445312 30.886719 1.90625 33.632812 2.828125 C 36.355469 3.75 38.636719 5.019531 40.453125 6.660156 C 42.238281 8.261719 43.621094 10.257812 44.492188 12.484375 C 45.394531 14.800781 45.847656 17.265625 45.828125 19.75 C 45.828125 21.992188 45.609375 24.234375 45.179688 26.4375 C 44.734375 28.648438 43.824219 31.011719 42.453125 33.554688 C 41.082031 36.078125 39.136719 38.898438 36.632812 41.976562 C 34.132812 45.054688 30.8125 48.628906 26.679688 52.703125 L 18.46875 61.054688 L 46.160156 61.054688 C 46.523438 61.050781 46.875 61.167969 47.164062 61.386719 C 47.515625 61.636719 47.792969 61.984375 47.960938 62.382812 C 48.183594 62.824219 48.332031 63.414062 48.441406 64.152344 C 48.5625 65.019531 48.617188 65.894531 48.609375 66.769531 Z M 48.609375 66.765625 "/>
<path style=" stroke:none;fill-rule:nonzero;fill:rgb(0%,0%,0%);fill-opacity:1;" d="M 49.878906 63.933594 C 49.738281 62.996094 49.542969 62.300781 49.265625 61.746094 C 48.992188 61.125 48.550781 60.589844 47.996094 60.199219 C 47.464844 59.8125 46.820312 59.605469 46.160156 59.609375 L 21.921875 59.609375 L 27.710938 53.722656 C 31.859375 49.632812 35.242188 45.988281 37.765625 42.886719 C 40.308594 39.753906 42.320312 36.84375 43.734375 34.234375 C 45.191406 31.535156 46.132812 29.078125 46.605469 26.710938 C 47.054688 24.417969 47.28125 22.085938 47.28125 19.746094 C 47.300781 17.085938 46.8125 14.441406 45.847656 11.957031 C 44.890625 9.523438 43.378906 7.34375 41.429688 5.589844 C 39.488281 3.835938 37.023438 2.449219 34.097656 1.457031 C 31.214844 0.492188 27.828125 0 24.03125 0 C 21.691406 -0.00390625 19.355469 0.222656 17.0625 0.675781 C 15.003906 1.089844 12.976562 1.644531 10.996094 2.332031 C 9.371094 2.882812 7.796875 3.570312 6.292969 4.382812 C 4.992188 5.101562 4.082031 5.703125 3.507812 6.226562 C 3.496094 6.238281 3.480469 6.253906 3.464844 6.265625 C 3.03125 6.675781 2.648438 7.132812 2.316406 7.628906 C 2.308594 7.640625 2.300781 7.648438 2.296875 7.660156 C 2.027344 8.121094 1.828125 8.621094 1.710938 9.136719 C 1.570312 9.683594 1.46875 10.238281 1.414062 10.796875 C 1.359375 11.375 1.335938 12.066406 1.335938 13.039062 C 1.324219 14.125 1.371094 15.207031 1.472656 16.289062 C 1.546875 17.042969 1.679688 17.792969 1.859375 18.53125 C 1.863281 18.550781 1.871094 18.570312 1.875 18.589844 C 2.113281 19.390625 2.433594 19.945312 2.878906 20.332031 C 3.375 20.785156 4.027344 21.03125 4.699219 21.027344 C 5.488281 21.027344 6.363281 20.679688 7.457031 19.929688 C 8.238281 19.414062 9.222656 18.835938 10.464844 18.164062 C 11.777344 17.476562 13.148438 16.90625 14.5625 16.457031 C 16.078125 15.96875 17.835938 15.71875 19.785156 15.71875 C 21.125 15.71875 22.277344 15.90625 23.203125 16.273438 C 24.066406 16.605469 24.847656 17.121094 25.488281 17.78125 C 26.101562 18.4375 26.574219 19.210938 26.871094 20.054688 C 27.203125 20.980469 27.367188 21.957031 27.359375 22.9375 C 27.351562 24.214844 27.207031 25.492188 26.929688 26.738281 C 26.574219 28.261719 26.039062 29.738281 25.335938 31.136719 C 25.097656 31.601562 25.132812 32.160156 25.425781 32.59375 C 25.71875 33.027344 26.222656 33.269531 26.746094 33.230469 C 27.269531 33.1875 27.730469 32.867188 27.953125 32.394531 C 28.753906 30.792969 29.363281 29.101562 29.769531 27.355469 C 30.09375 25.902344 30.257812 24.421875 30.265625 22.9375 C 30.273438 21.625 30.050781 20.320312 29.609375 19.085938 C 29.179688 17.871094 28.5 16.753906 27.613281 15.816406 C 26.683594 14.839844 25.550781 14.082031 24.292969 13.59375 C 23.011719 13.085938 21.496094 12.828125 19.785156 12.828125 C 17.527344 12.828125 15.46875 13.125 13.664062 13.710938 C 12.082031 14.210938 10.546875 14.851562 9.082031 15.621094 C 7.753906 16.339844 6.691406 16.964844 5.835938 17.53125 L 5.820312 17.542969 C 5.503906 17.777344 5.15625 17.96875 4.785156 18.109375 C 4.742188 18.007812 4.703125 17.90625 4.671875 17.800781 C 4.527344 17.199219 4.421875 16.59375 4.363281 15.980469 C 4.269531 15 4.230469 14.019531 4.242188 13.039062 C 4.242188 12.171875 4.261719 11.550781 4.308594 11.082031 C 4.347656 10.664062 4.421875 10.25 4.527344 9.847656 C 4.53125 9.832031 4.535156 9.816406 4.539062 9.800781 C 4.589844 9.570312 4.675781 9.351562 4.789062 9.144531 C 5 8.851562 5.234375 8.578125 5.496094 8.332031 C 5.734375 8.121094 6.324219 7.667969 7.707031 6.90625 C 9.070312 6.171875 10.496094 5.554688 11.96875 5.054688 C 13.820312 4.414062 15.71875 3.894531 17.640625 3.507812 C 19.746094 3.09375 21.886719 2.886719 24.03125 2.890625 C 27.511719 2.890625 30.585938 3.332031 33.164062 4.195312 C 35.707031 5.054688 37.832031 6.246094 39.476562 7.730469 C 41.097656 9.183594 42.355469 10.992188 43.140625 13.015625 C 43.976562 15.164062 44.394531 17.445312 44.375 19.746094 C 44.375 21.898438 44.164062 24.042969 43.753906 26.15625 C 43.339844 28.226562 42.492188 30.421875 41.175781 32.867188 C 39.847656 35.316406 37.9375 38.074219 35.503906 41.066406 C 33.046875 44.089844 29.734375 47.660156 25.65625 51.675781 C 25.652344 51.683594 25.648438 51.6875 25.640625 51.691406 L 17.429688 60.042969 C 17.023438 60.457031 16.902344 61.078125 17.128906 61.613281 C 17.355469 62.148438 17.886719 62.5 18.46875 62.5 L 46.160156 62.5 C 46.210938 62.496094 46.253906 62.511719 46.289062 62.542969 C 46.316406 62.5625 46.34375 62.582031 46.375 62.597656 C 46.386719 62.605469 46.492188 62.683594 46.648438 63.007812 C 46.652344 63.015625 46.65625 63.019531 46.660156 63.027344 C 46.835938 63.453125 46.953125 63.90625 47.003906 64.367188 C 47.113281 65.160156 47.164062 65.964844 47.15625 66.769531 C 47.164062 67.605469 47.125 68.445312 47.035156 69.28125 C 46.976562 69.78125 46.867188 70.277344 46.710938 70.757812 C 46.664062 70.875 46.601562 70.988281 46.519531 71.085938 C 46.476562 71.105469 46.429688 71.113281 46.382812 71.109375 L 5.957031 71.109375 C 5.386719 71.121094 4.820312 71.0625 4.261719 70.933594 C 4.003906 70.878906 3.769531 70.75 3.589844 70.558594 C 3.386719 70.328125 3.230469 69.941406 3.117188 69.402344 C 2.976562 68.742188 2.90625 67.804688 2.90625 66.621094 C 2.898438 65.660156 2.949219 64.703125 3.0625 63.746094 C 3.128906 63.105469 3.292969 62.476562 3.539062 61.878906 C 3.808594 61.289062 4.132812 60.726562 4.507812 60.195312 C 5.003906 59.519531 5.550781 58.878906 6.144531 58.285156 C 6.152344 58.277344 6.160156 58.269531 6.164062 58.261719 L 18.339844 45.328125 C 18.957031 44.683594 19.550781 44.050781 20.097656 43.449219 C 20.632812 42.859375 20.585938 41.949219 19.992188 41.414062 C 19.402344 40.878906 18.484375 40.921875 17.945312 41.507812 C 17.414062 42.09375 16.835938 42.710938 16.230469 43.335938 L 16.222656 43.347656 L 4.054688 56.277344 C 3.359375 56.976562 2.71875 57.726562 2.136719 58.523438 C 1.648438 59.210938 1.230469 59.941406 0.886719 60.707031 C 0.523438 61.554688 0.285156 62.457031 0.179688 63.375 C 0.0507812 64.449219 -0.0078125 65.535156 0 66.621094 C 0 68.023438 0.0898438 69.125 0.273438 69.996094 C 0.492188 71.035156 0.859375 71.839844 1.390625 72.449219 C 1.957031 73.085938 2.707031 73.535156 3.539062 73.734375 C 4.328125 73.921875 5.144531 74.011719 5.957031 74 L 46.382812 74 C 47.027344 74.003906 47.660156 73.8125 48.191406 73.449219 C 48.203125 73.441406 48.214844 73.433594 48.226562 73.425781 C 48.769531 73.007812 49.183594 72.445312 49.421875 71.800781 C 49.429688 71.78125 49.4375 71.757812 49.445312 71.738281 C 49.675781 71.054688 49.835938 70.351562 49.921875 69.636719 C 50.027344 68.683594 50.074219 67.726562 50.0625 66.769531 C 50.070312 65.820312 50.007812 64.875 49.878906 63.933594 Z M 49.878906 63.933594 "/>
<path style=" stroke:none;fill-rule:nonzero;fill:rgb(0%,0%,0%);fill-opacity:1;" d="M 24.613281 37.441406 C 24.613281 36.644531 23.960938 35.996094 23.160156 35.996094 L 23.15625 35.996094 C 22.355469 35.996094 21.703125 36.644531 21.707031 37.441406 C 21.707031 38.242188 22.355469 38.886719 23.160156 38.886719 C 23.960938 38.886719 24.613281 38.242188 24.613281 37.441406 Z M 24.613281 37.441406 "/>
</g>
</svg>
