<?xml version="1.0" encoding="UTF-8"?>
<svg xmlns="http://www.w3.org/2000/svg" xmlns:xlink="http://www.w3.org/1999/xlink" width="50" height="75" viewBox="0 0 50 75" version="1.1">
<g id="surface1">
<path style=" stroke:none;fill-rule:evenodd;fill:rgb(53.333333%,87.45098%,55.686275%);fill-opacity:1;" d="M 48.585938 51.953125 C 48.585938 55.425781 47.917969 58.503906 46.578125 61.191406 C 45.253906 63.839844 43.332031 66.15625 40.960938 67.953125 C 38.558594 69.769531 35.695312 71.160156 32.363281 72.121094 C 29.015625 73.058594 25.363281 73.527344 21.40625 73.535156 C 19.144531 73.546875 16.886719 73.375 14.65625 73.019531 C 12.765625 72.726562 10.902344 72.296875 9.074219 71.734375 C 7.695312 71.328125 6.355469 70.800781 5.074219 70.15625 C 4.03125 69.625 3.34375 69.199219 3.007812 68.925781 C 2.691406 68.65625 2.4375 68.324219 2.265625 67.953125 C 2.09375 67.546875 1.953125 67.128906 1.835938 66.703125 C 1.691406 66.101562 1.597656 65.484375 1.558594 64.867188 C 1.503906 64.148438 1.484375 63.25 1.484375 62.222656 C 1.484375 60.511719 1.632812 59.320312 1.910156 58.660156 C 2.210938 57.996094 2.65625 57.667969 3.230469 57.667969 C 3.585938 57.667969 4.21875 57.90625 5.109375 58.382812 C 6.21875 58.957031 7.351562 59.472656 8.515625 59.925781 C 10.097656 60.542969 11.71875 61.058594 13.371094 61.46875 C 15.230469 61.945312 17.332031 62.183594 19.695312 62.183594 C 21.6875 62.183594 23.453125 61.945312 24.980469 61.488281 C 26.390625 61.078125 27.714844 60.417969 28.886719 59.539062 C 29.921875 58.730469 30.746094 57.683594 31.285156 56.492188 C 31.820312 55.230469 32.085938 53.875 32.066406 52.503906 C 32.089844 51.007812 31.765625 49.523438 31.117188 48.171875 C 30.457031 46.859375 29.480469 45.730469 28.273438 44.882812 C 27.027344 43.964844 25.445312 43.265625 23.527344 42.769531 C 21.628906 42.277344 19.378906 42.019531 16.792969 42.019531 L 10.691406 42.019531 C 10.28125 42.03125 9.871094 41.96875 9.484375 41.835938 C 9.125 41.671875 8.835938 41.394531 8.664062 41.042969 C 8.417969 40.53125 8.257812 39.976562 8.199219 39.410156 C 8.097656 38.515625 8.054688 37.613281 8.070312 36.710938 C 8.054688 35.859375 8.097656 35.003906 8.199219 34.15625 C 8.292969 33.496094 8.441406 32.980469 8.644531 32.632812 C 8.796875 32.304688 9.058594 32.035156 9.390625 31.878906 C 9.742188 31.726562 10.121094 31.652344 10.507812 31.660156 L 16.644531 31.660156 C 18.746094 31.660156 20.609375 31.421875 22.226562 30.925781 C 23.722656 30.511719 25.121094 29.804688 26.335938 28.847656 C 27.421875 27.96875 28.28125 26.847656 28.847656 25.582031 C 29.441406 24.242188 29.742188 22.796875 29.722656 21.335938 C 29.726562 20.191406 29.523438 19.054688 29.128906 17.976562 C 28.746094 16.945312 28.140625 16.003906 27.359375 15.222656 C 26.503906 14.398438 25.476562 13.769531 24.347656 13.386719 C 23.117188 12.925781 21.667969 12.707031 19.992188 12.707031 C 18.183594 12.691406 16.386719 12.976562 14.671875 13.550781 C 13.136719 14.046875 11.636719 14.652344 10.191406 15.367188 C 8.871094 16.046875 7.753906 16.671875 6.824219 17.242188 C 5.894531 17.8125 5.222656 18.105469 4.777344 18.105469 C 4.515625 18.113281 4.257812 18.050781 4.03125 17.921875 C 3.769531 17.746094 3.574219 17.488281 3.476562 17.1875 C 3.3125 16.679688 3.207031 16.15625 3.160156 15.625 C 3.074219 14.742188 3.039062 13.851562 3.046875 12.964844 C 3.046875 12.0625 3.066406 11.328125 3.101562 10.722656 C 3.125 10.21875 3.199219 9.722656 3.324219 9.234375 C 3.421875 8.875 3.558594 8.53125 3.734375 8.207031 C 3.949219 7.859375 4.214844 7.542969 4.515625 7.269531 C 4.886719 6.921875 5.632812 6.425781 6.75 5.746094 C 8.101562 4.960938 9.519531 4.296875 10.988281 3.761719 C 12.914062 3.066406 14.894531 2.519531 16.90625 2.125 C 19.300781 1.667969 21.738281 1.449219 24.179688 1.464844 C 27.582031 1.464844 30.597656 1.867188 33.238281 2.660156 C 35.863281 3.449219 38.074219 4.585938 39.878906 6.074219 C 41.667969 7.554688 43.066406 9.4375 43.953125 11.566406 C 44.882812 13.753906 45.347656 16.195312 45.347656 18.929688 C 45.363281 20.929688 45.085938 22.921875 44.53125 24.84375 C 44.027344 26.605469 43.214844 28.265625 42.128906 29.75 C 41.066406 31.210938 39.726562 32.457031 38.1875 33.421875 C 36.503906 34.472656 34.65625 35.238281 32.71875 35.679688 L 32.71875 35.847656 C 35.191406 36.140625 37.40625 36.746094 39.378906 37.703125 C 41.246094 38.578125 42.9375 39.785156 44.363281 41.265625 C 45.707031 42.675781 46.769531 44.328125 47.488281 46.132812 C 48.226562 47.984375 48.597656 49.960938 48.585938 51.953125 Z M 48.585938 51.953125 "/>
<path style=" stroke:none;fill-rule:nonzero;fill:rgb(0%,0%,0%);fill-opacity:1;" d="M 48.867188 45.59375 C 48.078125 43.621094 46.917969 41.8125 45.445312 40.265625 C 43.898438 38.65625 42.0625 37.339844 40.03125 36.386719 C 39.261719 36.015625 38.46875 35.691406 37.65625 35.421875 C 38.117188 35.183594 38.5625 34.925781 38.992188 34.652344 C 40.6875 33.589844 42.160156 32.214844 43.335938 30.605469 C 44.515625 28.988281 45.402344 27.175781 45.953125 25.257812 C 46.550781 23.199219 46.847656 21.070312 46.832031 18.929688 C 46.832031 16.023438 46.324219 13.355469 45.324219 11.003906 C 44.34375 8.660156 42.800781 6.582031 40.832031 4.949219 C 38.882812 3.34375 36.472656 2.101562 33.667969 1.257812 C 30.878906 0.421875 27.6875 0 24.179688 0 C 21.636719 -0.015625 19.097656 0.214844 16.601562 0.691406 C 14.511719 1.097656 12.457031 1.667969 10.457031 2.394531 C 8.902344 2.964844 7.402344 3.667969 5.96875 4.496094 C 4.648438 5.300781 3.929688 5.796875 3.496094 6.207031 C 3.484375 6.214844 3.476562 6.222656 3.464844 6.234375 C 3.0625 6.605469 2.714844 7.03125 2.433594 7.5 C 2.203125 7.921875 2.023438 8.367188 1.898438 8.832031 C 1.898438 8.835938 1.894531 8.84375 1.894531 8.847656 C 1.742188 9.433594 1.652344 10.03125 1.621094 10.632812 C 1.582031 11.273438 1.5625 12.035156 1.5625 12.960938 C 1.554688 13.902344 1.59375 14.84375 1.683594 15.78125 C 1.742188 16.425781 1.875 17.058594 2.074219 17.671875 C 2.082031 17.691406 2.089844 17.710938 2.097656 17.730469 C 2.3125 18.324219 2.722656 18.832031 3.261719 19.171875 C 3.71875 19.441406 4.242188 19.582031 4.777344 19.570312 C 5.519531 19.570312 6.363281 19.246094 7.605469 18.484375 C 8.53125 17.917969 9.628906 17.308594 10.871094 16.667969 C 12.253906 15.988281 13.6875 15.40625 15.15625 14.933594 C 16.714844 14.410156 18.347656 14.152344 19.992188 14.167969 C 21.496094 14.167969 22.785156 14.363281 23.820312 14.753906 L 23.839844 14.757812 C 24.296875 14.921875 24.738281 15.125 25.152344 15.371094 C 25.851562 15.753906 26.734375 15.519531 27.148438 14.84375 C 27.558594 14.167969 27.351562 13.289062 26.679688 12.859375 C 26.101562 12.519531 25.496094 12.238281 24.863281 12.011719 C 23.472656 11.492188 21.878906 11.242188 19.992188 11.242188 C 18.027344 11.226562 16.070312 11.539062 14.203125 12.160156 C 12.597656 12.679688 11.03125 13.316406 9.519531 14.0625 L 9.503906 14.070312 C 8.195312 14.742188 7.03125 15.390625 6.039062 15.996094 C 5.667969 16.242188 5.265625 16.449219 4.84375 16.613281 C 4.738281 16.238281 4.667969 15.859375 4.632812 15.472656 C 4.554688 14.636719 4.523438 13.800781 4.53125 12.960938 C 4.53125 12.09375 4.546875 11.390625 4.582031 10.8125 C 4.601562 10.414062 4.65625 10.015625 4.753906 9.625 C 4.820312 9.382812 4.910156 9.148438 5.027344 8.921875 C 5.03125 8.914062 5.039062 8.90625 5.042969 8.894531 C 5.1875 8.683594 5.359375 8.488281 5.550781 8.320312 C 5.816406 8.074219 6.480469 7.628906 7.515625 6.996094 C 8.792969 6.261719 10.132812 5.636719 11.515625 5.128906 C 13.367188 4.460938 15.265625 3.9375 17.195312 3.5625 C 19.496094 3.125 21.835938 2.914062 24.179688 2.929688 C 27.394531 2.929688 30.296875 3.3125 32.804688 4.058594 C 35.226562 4.789062 37.285156 5.84375 38.921875 7.195312 C 40.53125 8.527344 41.785156 10.21875 42.585938 12.132812 C 43.445312 14.15625 43.867188 16.378906 43.867188 18.929688 C 43.878906 20.792969 43.621094 22.648438 43.105469 24.4375 C 42.648438 26.035156 41.914062 27.539062 40.933594 28.882812 L 40.921875 28.902344 C 39.96875 30.214844 38.765625 31.332031 37.382812 32.191406 C 35.839844 33.152344 34.144531 33.851562 32.367188 34.257812 C 31.703125 34.417969 31.234375 35.003906 31.234375 35.679688 L 31.234375 35.847656 C 31.234375 36.585938 31.796875 37.210938 32.539062 37.300781 C 34.894531 37.582031 36.917969 38.140625 38.730469 39.019531 C 40.433594 39.816406 41.976562 40.917969 43.28125 42.265625 C 44.5 43.542969 45.460938 45.039062 46.109375 46.671875 C 46.777344 48.355469 47.113281 50.148438 47.101562 51.953125 C 47.101562 55.1875 46.476562 58.078125 45.25 60.539062 C 44.023438 62.984375 42.246094 65.125 40.054688 66.789062 C 37.800781 68.5 35.074219 69.820312 31.960938 70.710938 C 28.738281 71.613281 25.1875 72.070312 21.40625 72.070312 C 19.230469 72.082031 17.050781 71.917969 14.902344 71.578125 C 13.082031 71.292969 11.285156 70.878906 9.527344 70.339844 L 9.511719 70.335938 C 8.21875 69.957031 6.960938 69.460938 5.757812 68.855469 C 4.777344 68.355469 4.199219 67.992188 3.976562 67.8125 C 3.828125 67.691406 3.710938 67.535156 3.625 67.363281 C 3.484375 67.03125 3.367188 66.6875 3.273438 66.335938 C 3.148438 65.816406 3.070312 65.285156 3.039062 64.753906 C 2.988281 64.140625 2.96875 63.335938 2.96875 62.222656 C 2.96875 60.230469 3.175781 59.476562 3.273438 59.238281 C 3.289062 59.210938 3.300781 59.1875 3.308594 59.167969 C 3.6875 59.304688 4.054688 59.472656 4.40625 59.671875 C 5.558594 60.269531 6.746094 60.808594 7.957031 61.28125 C 9.601562 61.921875 11.285156 62.460938 12.996094 62.886719 C 14.972656 63.390625 17.226562 63.648438 19.695312 63.648438 C 21.808594 63.648438 23.734375 63.394531 25.410156 62.886719 C 26.996094 62.425781 28.480469 61.683594 29.796875 60.695312 C 29.800781 60.691406 29.808594 60.683594 29.816406 60.679688 C 31.035156 59.722656 32.003906 58.488281 32.640625 57.085938 C 32.644531 57.082031 32.644531 57.078125 32.648438 57.070312 C 33.261719 55.625 33.570312 54.070312 33.550781 52.503906 C 33.574219 50.785156 33.199219 49.085938 32.453125 47.53125 C 32.449219 47.527344 32.449219 47.519531 32.445312 47.515625 C 31.675781 46 30.546875 44.6875 29.148438 43.703125 C 27.769531 42.6875 26.003906 41.898438 23.90625 41.355469 C 21.871094 40.824219 19.480469 40.554688 16.792969 40.554688 L 10.691406 40.554688 C 10.480469 40.5625 10.269531 40.539062 10.066406 40.484375 C 10.027344 40.445312 9.996094 40.402344 9.972656 40.355469 C 9.808594 39.996094 9.707031 39.609375 9.671875 39.21875 C 9.578125 38.386719 9.539062 37.546875 9.554688 36.710938 C 9.539062 35.925781 9.578125 35.140625 9.667969 34.359375 C 9.761719 33.691406 9.890625 33.429688 9.929688 33.367188 C 9.945312 33.339844 9.960938 33.316406 9.972656 33.289062 C 9.988281 33.257812 10.003906 33.230469 10.023438 33.203125 C 10.179688 33.144531 10.34375 33.117188 10.507812 33.125 L 16.644531 33.125 C 18.902344 33.125 20.925781 32.855469 22.65625 32.328125 C 24.34375 31.855469 25.914062 31.054688 27.285156 29.976562 C 28.351562 29.105469 29.234375 28.039062 29.882812 26.832031 C 30.265625 26.117188 29.988281 25.230469 29.261719 24.851562 C 28.539062 24.476562 27.640625 24.75 27.257812 25.464844 C 26.796875 26.328125 26.164062 27.09375 25.398438 27.714844 C 24.335938 28.550781 23.113281 29.164062 21.804688 29.519531 C 21.796875 29.523438 21.792969 29.523438 21.785156 29.527344 C 20.335938 29.96875 18.609375 30.195312 16.644531 30.195312 L 10.507812 30.195312 C 9.910156 30.1875 9.320312 30.304688 8.777344 30.546875 C 8.148438 30.832031 7.640625 31.324219 7.339844 31.9375 C 7.046875 32.449219 6.847656 33.109375 6.730469 33.957031 C 6.617188 34.871094 6.570312 35.789062 6.585938 36.710938 C 6.570312 37.675781 6.617188 38.640625 6.726562 39.601562 C 6.808594 40.339844 7.019531 41.058594 7.351562 41.726562 C 7.355469 41.730469 7.359375 41.738281 7.363281 41.746094 C 7.695312 42.390625 8.246094 42.898438 8.917969 43.1875 C 8.925781 43.191406 8.9375 43.195312 8.945312 43.199219 C 9.503906 43.402344 10.097656 43.5 10.691406 43.484375 L 16.792969 43.484375 C 19.222656 43.484375 21.359375 43.71875 23.152344 44.1875 C 24.886719 44.636719 26.308594 45.265625 27.382812 46.058594 L 27.402344 46.070312 C 28.417969 46.777344 29.234375 47.722656 29.785156 48.820312 C 30.335938 49.96875 30.609375 51.230469 30.582031 52.503906 C 30.601562 53.671875 30.375 54.828125 29.925781 55.902344 C 29.484375 56.875 28.8125 57.730469 27.964844 58.390625 C 26.9375 59.15625 25.78125 59.730469 24.546875 60.085938 C 23.148438 60.507812 21.515625 60.71875 19.695312 60.71875 C 17.476562 60.71875 15.472656 60.496094 13.742188 60.050781 C 12.15625 59.65625 10.59375 59.160156 9.070312 58.566406 C 7.960938 58.136719 6.875 57.644531 5.816406 57.09375 C 4.664062 56.476562 3.863281 56.203125 3.230469 56.203125 C 2.0625 56.203125 1.085938 56.878906 0.554688 58.0625 C 0.550781 58.074219 0.546875 58.082031 0.542969 58.09375 C 0.175781 58.957031 0 60.308594 0 62.222656 C 0 63.410156 0.0234375 64.289062 0.078125 64.976562 C 0.121094 65.6875 0.230469 66.390625 0.40625 67.082031 C 0.535156 67.570312 0.699219 68.050781 0.898438 68.519531 C 0.902344 68.53125 0.90625 68.542969 0.914062 68.550781 C 1.171875 69.113281 1.550781 69.613281 2.023438 70.019531 C 2.035156 70.03125 2.046875 70.039062 2.058594 70.050781 C 2.511719 70.421875 3.296875 70.898438 4.382812 71.453125 C 5.742188 72.136719 7.164062 72.699219 8.625 73.132812 C 10.519531 73.710938 12.453125 74.15625 14.410156 74.464844 C 16.722656 74.832031 19.0625 75.011719 21.40625 75 C 25.460938 75 29.28125 74.503906 32.777344 73.527344 C 36.257812 72.53125 39.3125 71.046875 41.863281 69.113281 C 44.414062 67.175781 46.480469 64.691406 47.90625 61.839844 C 49.34375 58.96875 50.070312 55.640625 50.070312 51.953125 C 50.082031 49.777344 49.675781 47.621094 48.867188 45.59375 Z M 48.867188 45.59375 "/>
<path style=" stroke:none;fill-rule:nonzero;fill:rgb(0%,0%,0%);fill-opacity:1;" d="M 31.058594 19.628906 C 31.058594 18.820312 30.394531 18.164062 29.574219 18.164062 C 28.753906 18.167969 28.09375 18.824219 28.09375 19.632812 C 28.09375 20.441406 28.757812 21.097656 29.578125 21.09375 C 30.394531 21.09375 31.058594 20.441406 31.058594 19.628906 Z M 31.058594 19.628906 "/>
<path style=" stroke:none;fill-rule:evenodd;fill:rgb(53.333333%,87.45098%,55.686275%);fill-opacity:1;" d="M 48.585938 51.953125 C 48.585938 55.425781 47.917969 58.503906 46.578125 61.191406 C 45.253906 63.839844 43.332031 66.15625 40.960938 67.953125 C 38.558594 69.769531 35.695312 71.160156 32.363281 72.121094 C 29.015625 73.058594 25.363281 73.527344 21.40625 73.535156 C 19.144531 73.546875 16.886719 73.375 14.65625 73.019531 C 12.765625 72.726562 10.902344 72.296875 9.074219 71.734375 C 7.695312 71.328125 6.355469 70.800781 5.074219 70.15625 C 4.03125 69.625 3.34375 69.199219 3.007812 68.925781 C 2.691406 68.65625 2.4375 68.324219 2.265625 67.953125 C 2.09375 67.546875 1.953125 67.128906 1.835938 66.703125 C 1.691406 66.101562 1.597656 65.484375 1.558594 64.867188 C 1.503906 64.148438 1.484375 63.25 1.484375 62.222656 C 1.484375 60.511719 1.632812 59.320312 1.910156 58.660156 C 2.210938 57.996094 2.65625 57.667969 3.230469 57.667969 C 3.585938 57.667969 4.21875 57.90625 5.109375 58.382812 C 6.21875 58.957031 7.351562 59.472656 8.515625 59.925781 C 10.097656 60.542969 11.71875 61.058594 13.371094 61.46875 C 15.230469 61.945312 17.332031 62.183594 19.695312 62.183594 C 21.6875 62.183594 23.453125 61.945312 24.980469 61.488281 C 26.390625 61.078125 27.714844 60.417969 28.886719 59.539062 C 29.921875 58.730469 30.746094 57.683594 31.285156 56.492188 C 31.820312 55.230469 32.085938 53.875 32.066406 52.503906 C 32.089844 51.007812 31.765625 49.523438 31.117188 48.171875 C 30.457031 46.859375 29.480469 45.730469 28.273438 44.882812 C 27.027344 43.964844 25.445312 43.265625 23.527344 42.769531 C 21.628906 42.277344 19.378906 42.019531 16.792969 42.019531 L 10.691406 42.019531 C 10.28125 42.03125 9.871094 41.96875 9.484375 41.835938 C 9.125 41.671875 8.835938 41.394531 8.664062 41.042969 C 8.417969 40.53125 8.257812 39.976562 8.199219 39.410156 C 8.097656 38.515625 8.054688 37.613281 8.070312 36.710938 C 8.054688 35.859375 8.097656 35.003906 8.199219 34.15625 C 8.292969 33.496094 8.441406 32.980469 8.644531 32.632812 C 8.796875 32.304688 9.058594 32.035156 9.390625 31.878906 C 9.742188 31.726562 10.121094 31.652344 10.507812 31.660156 L 16.644531 31.660156 C 18.746094 31.660156 20.609375 31.421875 22.226562 30.925781 C 23.722656 30.511719 25.121094 29.804688 26.335938 28.847656 C 27.421875 27.96875 28.28125 26.847656 28.847656 25.582031 C 29.441406 24.242188 29.742188 22.796875 29.722656 21.335938 C 29.726562 20.191406 29.523438 19.054688 29.128906 17.976562 C 28.746094 16.945312 28.140625 16.003906 27.359375 15.222656 C 26.503906 14.398438 25.476562 13.769531 24.347656 13.386719 C 23.117188 12.925781 21.667969 12.707031 19.992188 12.707031 C 18.183594 12.691406 16.386719 12.976562 14.671875 13.550781 C 13.136719 14.046875 11.636719 14.652344 10.191406 15.367188 C 8.871094 16.046875 7.753906 16.671875 6.824219 17.242188 C 5.894531 17.8125 5.222656 18.105469 4.777344 18.105469 C 4.515625 18.113281 4.257812 18.050781 4.03125 17.921875 C 3.769531 17.746094 3.574219 17.488281 3.476562 17.1875 C 3.3125 16.679688 3.207031 16.15625 3.160156 15.625 C 3.074219 14.742188 3.039062 13.851562 3.046875 12.964844 C 3.046875 12.0625 3.066406 11.328125 3.101562 10.722656 C 3.125 10.21875 3.199219 9.722656 3.324219 9.234375 C 3.421875 8.875 3.558594 8.53125 3.734375 8.207031 C 3.949219 7.859375 4.214844 7.542969 4.515625 7.269531 C 4.886719 6.921875 5.632812 6.425781 6.75 5.746094 C 8.101562 4.960938 9.519531 4.296875 10.988281 3.761719 C 12.914062 3.066406 14.894531 2.519531 16.90625 2.125 C 19.300781 1.667969 21.738281 1.449219 24.179688 1.464844 C 27.582031 1.464844 30.597656 1.867188 33.238281 2.660156 C 35.863281 3.449219 38.074219 4.585938 39.878906 6.074219 C 41.667969 7.554688 43.066406 9.4375 43.953125 11.566406 C 44.882812 13.753906 45.347656 16.195312 45.347656 18.929688 C 45.363281 20.929688 45.085938 22.921875 44.53125 24.84375 C 44.027344 26.605469 43.214844 28.265625 42.128906 29.75 C 41.066406 31.210938 39.726562 32.457031 38.1875 33.421875 C 36.503906 34.472656 34.65625 35.238281 32.71875 35.679688 L 32.71875 35.847656 C 35.191406 36.140625 37.40625 36.746094 39.378906 37.703125 C 41.246094 38.578125 42.9375 39.785156 44.363281 41.265625 C 45.707031 42.675781 46.769531 44.328125 47.488281 46.132812 C 48.226562 47.984375 48.597656 49.960938 48.585938 51.953125 Z M 48.585938 51.953125 "/>
<path style=" stroke:none;fill-rule:nonzero;fill:rgb(0%,0%,0%);fill-opacity:1;" d="M 48.867188 45.59375 C 48.078125 43.621094 46.917969 41.8125 45.445312 40.265625 C 43.898438 38.65625 42.0625 37.339844 40.03125 36.386719 C 39.261719 36.015625 38.46875 35.691406 37.65625 35.421875 C 38.117188 35.183594 38.5625 34.925781 38.992188 34.652344 C 40.6875 33.589844 42.160156 32.214844 43.335938 30.605469 C 44.515625 28.988281 45.402344 27.175781 45.953125 25.257812 C 46.550781 23.199219 46.847656 21.070312 46.832031 18.929688 C 46.832031 16.023438 46.324219 13.355469 45.324219 11.003906 C 44.34375 8.660156 42.800781 6.582031 40.832031 4.949219 C 38.882812 3.34375 36.472656 2.101562 33.667969 1.257812 C 30.878906 0.421875 27.6875 0 24.179688 0 C 21.636719 -0.015625 19.097656 0.214844 16.601562 0.691406 C 14.511719 1.097656 12.457031 1.667969 10.457031 2.394531 C 8.902344 2.964844 7.402344 3.667969 5.96875 4.496094 C 4.648438 5.300781 3.929688 5.796875 3.496094 6.207031 C 3.484375 6.214844 3.476562 6.222656 3.464844 6.234375 C 3.0625 6.605469 2.714844 7.03125 2.433594 7.5 C 2.203125 7.921875 2.023438 8.367188 1.898438 8.832031 C 1.898438 8.835938 1.894531 8.84375 1.894531 8.847656 C 1.742188 9.433594 1.652344 10.03125 1.621094 10.632812 C 1.582031 11.273438 1.5625 12.035156 1.5625 12.960938 C 1.554688 13.902344 1.59375 14.84375 1.683594 15.78125 C 1.742188 16.425781 1.875 17.058594 2.074219 17.671875 C 2.082031 17.691406 2.089844 17.710938 2.097656 17.730469 C 2.3125 18.324219 2.722656 18.832031 3.261719 19.171875 C 3.71875 19.441406 4.242188 19.582031 4.777344 19.570312 C 5.519531 19.570312 6.363281 19.246094 7.605469 18.484375 C 8.53125 17.917969 9.628906 17.308594 10.871094 16.667969 C 12.253906 15.988281 13.6875 15.40625 15.15625 14.933594 C 16.714844 14.410156 18.347656 14.152344 19.992188 14.167969 C 21.496094 14.167969 22.785156 14.363281 23.820312 14.753906 L 23.839844 14.757812 C 24.296875 14.921875 24.738281 15.125 25.152344 15.371094 C 25.851562 15.753906 26.734375 15.519531 27.148438 14.84375 C 27.558594 14.167969 27.351562 13.289062 26.679688 12.859375 C 26.101562 12.519531 25.496094 12.238281 24.863281 12.011719 C 23.472656 11.492188 21.878906 11.242188 19.992188 11.242188 C 18.027344 11.226562 16.070312 11.539062 14.203125 12.160156 C 12.597656 12.679688 11.03125 13.316406 9.519531 14.0625 L 9.503906 14.070312 C 8.195312 14.742188 7.03125 15.390625 6.039062 15.996094 C 5.667969 16.242188 5.265625 16.449219 4.84375 16.613281 C 4.738281 16.238281 4.667969 15.859375 4.632812 15.472656 C 4.554688 14.636719 4.523438 13.800781 4.53125 12.960938 C 4.53125 12.09375 4.546875 11.390625 4.582031 10.8125 C 4.601562 10.414062 4.65625 10.015625 4.753906 9.625 C 4.820312 9.382812 4.910156 9.148438 5.027344 8.921875 C 5.03125 8.914062 5.039062 8.90625 5.042969 8.894531 C 5.1875 8.683594 5.359375 8.488281 5.550781 8.320312 C 5.816406 8.074219 6.480469 7.628906 7.515625 6.996094 C 8.792969 6.261719 10.132812 5.636719 11.515625 5.128906 C 13.367188 4.460938 15.265625 3.9375 17.195312 3.5625 C 19.496094 3.125 21.835938 2.914062 24.179688 2.929688 C 27.394531 2.929688 30.296875 3.3125 32.804688 4.058594 C 35.226562 4.789062 37.285156 5.84375 38.921875 7.195312 C 40.53125 8.527344 41.785156 10.21875 42.585938 12.132812 C 43.445312 14.15625 43.867188 16.378906 43.867188 18.929688 C 43.878906 20.792969 43.621094 22.648438 43.105469 24.4375 C 42.648438 26.035156 41.914062 27.539062 40.933594 28.882812 L 40.921875 28.902344 C 39.96875 30.214844 38.765625 31.332031 37.382812 32.191406 C 35.839844 33.152344 34.144531 33.851562 32.367188 34.257812 C 31.703125 34.417969 31.234375 35.003906 31.234375 35.679688 L 31.234375 35.847656 C 31.234375 36.585938 31.796875 37.210938 32.539062 37.300781 C 34.894531 37.582031 36.917969 38.140625 38.730469 39.019531 C 40.433594 39.816406 41.976562 40.917969 43.28125 42.265625 C 44.5 43.542969 45.460938 45.039062 46.109375 46.671875 C 46.777344 48.355469 47.113281 50.148438 47.101562 51.953125 C 47.101562 55.1875 46.476562 58.078125 45.25 60.539062 C 44.023438 62.984375 42.246094 65.125 40.054688 66.789062 C 37.800781 68.5 35.074219 69.820312 31.960938 70.710938 C 28.738281 71.613281 25.1875 72.070312 21.40625 72.070312 C 19.230469 72.082031 17.050781 71.917969 14.902344 71.578125 C 13.082031 71.292969 11.285156 70.878906 9.527344 70.339844 L 9.511719 70.335938 C 8.21875 69.957031 6.960938 69.460938 5.757812 68.855469 C 4.777344 68.355469 4.199219 67.992188 3.976562 67.8125 C 3.828125 67.691406 3.710938 67.535156 3.625 67.363281 C 3.484375 67.03125 3.367188 66.6875 3.273438 66.335938 C 3.148438 65.816406 3.070312 65.285156 3.039062 64.753906 C 2.988281 64.140625 2.96875 63.335938 2.96875 62.222656 C 2.96875 60.230469 3.175781 59.476562 3.273438 59.238281 C 3.289062 59.210938 3.300781 59.1875 3.308594 59.167969 C 3.6875 59.304688 4.054688 59.472656 4.40625 59.671875 C 5.558594 60.269531 6.746094 60.808594 7.957031 61.28125 C 9.601562 61.921875 11.285156 62.460938 12.996094 62.886719 C 14.972656 63.390625 17.226562 63.648438 19.695312 63.648438 C 21.808594 63.648438 23.734375 63.394531 25.410156 62.886719 C 26.996094 62.425781 28.480469 61.683594 29.796875 60.695312 C 29.800781 60.691406 29.808594 60.683594 29.816406 60.679688 C 31.035156 59.722656 32.003906 58.488281 32.640625 57.085938 C 32.644531 57.082031 32.644531 57.078125 32.648438 57.070312 C 33.261719 55.625 33.570312 54.070312 33.550781 52.503906 C 33.574219 50.785156 33.199219 49.085938 32.453125 47.53125 C 32.449219 47.527344 32.449219 47.519531 32.445312 47.515625 C 31.675781 46 30.546875 44.6875 29.148438 43.703125 C 27.769531 42.6875 26.003906 41.898438 23.90625 41.355469 C 21.871094 40.824219 19.480469 40.554688 16.792969 40.554688 L 10.691406 40.554688 C 10.480469 40.5625 10.269531 40.539062 10.066406 40.484375 C 10.027344 40.445312 9.996094 40.402344 9.972656 40.355469 C 9.808594 39.996094 9.707031 39.609375 9.671875 39.21875 C 9.578125 38.386719 9.539062 37.546875 9.554688 36.710938 C 9.539062 35.925781 9.578125 35.140625 9.667969 34.359375 C 9.761719 33.691406 9.890625 33.429688 9.929688 33.367188 C 9.945312 33.339844 9.960938 33.316406 9.972656 33.289062 C 9.988281 33.257812 10.003906 33.230469 10.023438 33.203125 C 10.179688 33.144531 10.34375 33.117188 10.507812 33.125 L 16.644531 33.125 C 18.902344 33.125 20.925781 32.855469 22.65625 32.328125 C 24.34375 31.855469 25.914062 31.054688 27.285156 29.976562 C 28.351562 29.105469 29.234375 28.039062 29.882812 26.832031 C 30.265625 26.117188 29.988281 25.230469 29.261719 24.851562 C 28.539062 24.476562 27.640625 24.75 27.257812 25.464844 C 26.796875 26.328125 26.164062 27.09375 25.398438 27.714844 C 24.335938 28.550781 23.113281 29.164062 21.804688 29.519531 C 21.796875 29.523438 21.792969 29.523438 21.785156 29.527344 C 20.335938 29.96875 18.609375 30.195312 16.644531 30.195312 L 10.507812 30.195312 C 9.910156 30.1875 9.320312 30.304688 8.777344 30.546875 C 8.148438 30.832031 7.640625 31.324219 7.339844 31.9375 C 7.046875 32.449219 6.847656 33.109375 6.730469 33.957031 C 6.617188 34.871094 6.570312 35.789062 6.585938 36.710938 C 6.570312 37.675781 6.617188 38.640625 6.726562 39.601562 C 6.808594 40.339844 7.019531 41.058594 7.351562 41.726562 C 7.355469 41.730469 7.359375 41.738281 7.363281 41.746094 C 7.695312 42.390625 8.246094 42.898438 8.917969 43.1875 C 8.925781 43.191406 8.9375 43.195312 8.945312 43.199219 C 9.503906 43.402344 10.097656 43.5 10.691406 43.484375 L 16.792969 43.484375 C 19.222656 43.484375 21.359375 43.71875 23.152344 44.1875 C 24.886719 44.636719 26.308594 45.265625 27.382812 46.058594 L 27.402344 46.070312 C 28.417969 46.777344 29.234375 47.722656 29.785156 48.820312 C 30.335938 49.96875 30.609375 51.230469 30.582031 52.503906 C 30.601562 53.671875 30.375 54.828125 29.925781 55.902344 C 29.484375 56.875 28.8125 57.730469 27.964844 58.390625 C 26.9375 59.15625 25.78125 59.730469 24.546875 60.085938 C 23.148438 60.507812 21.515625 60.71875 19.695312 60.71875 C 17.476562 60.71875 15.472656 60.496094 13.742188 60.050781 C 12.15625 59.65625 10.59375 59.160156 9.070312 58.566406 C 7.960938 58.136719 6.875 57.644531 5.816406 57.09375 C 4.664062 56.476562 3.863281 56.203125 3.230469 56.203125 C 2.0625 56.203125 1.085938 56.878906 0.554688 58.0625 C 0.550781 58.074219 0.546875 58.082031 0.542969 58.09375 C 0.175781 58.957031 0 60.308594 0 62.222656 C 0 63.410156 0.0234375 64.289062 0.078125 64.976562 C 0.121094 65.6875 0.230469 66.390625 0.40625 67.082031 C 0.535156 67.570312 0.699219 68.050781 0.898438 68.519531 C 0.902344 68.53125 0.90625 68.542969 0.914062 68.550781 C 1.171875 69.113281 1.550781 69.613281 2.023438 70.019531 C 2.035156 70.03125 2.046875 70.039062 2.058594 70.050781 C 2.511719 70.421875 3.296875 70.898438 4.382812 71.453125 C 5.742188 72.136719 7.164062 72.699219 8.625 73.132812 C 10.519531 73.710938 12.453125 74.15625 14.410156 74.464844 C 16.722656 74.832031 19.0625 75.011719 21.40625 75 C 25.460938 75 29.28125 74.503906 32.777344 73.527344 C 36.257812 72.53125 39.3125 71.046875 41.863281 69.113281 C 44.414062 67.175781 46.480469 64.691406 47.90625 61.839844 C 49.34375 58.96875 50.070312 55.640625 50.070312 51.953125 C 50.082031 49.777344 49.675781 47.621094 48.867188 45.59375 Z M 48.867188 45.59375 "/>
<path style=" stroke:none;fill-rule:nonzero;fill:rgb(0%,0%,0%);fill-opacity:1;" d="M 31.058594 19.628906 C 31.058594 18.820312 30.394531 18.164062 29.574219 18.164062 C 28.753906 18.167969 28.09375 18.824219 28.09375 19.632812 C 28.09375 20.441406 28.757812 21.097656 29.578125 21.09375 C 30.394531 21.09375 31.058594 20.441406 31.058594 19.628906 Z M 31.058594 19.628906 "/>
</g>
</svg>
