<?xml version="1.0" encoding="UTF-8"?>
<svg xmlns="http://www.w3.org/2000/svg" xmlns:xlink="http://www.w3.org/1999/xlink" width="50" height="67" viewBox="0 0 50 67" version="1.1">
<g id="surface1">
<path style=" stroke:none;fill-rule:evenodd;fill:rgb(100%,46.27451%,30.588235%);fill-opacity:1;" d="M 48.648438 47.023438 C 48.648438 48.703125 48.480469 49.984375 48.128906 50.855469 C 47.789062 51.730469 47.320312 52.167969 46.730469 52.167969 L 41.078125 52.167969 L 41.078125 63.722656 C 41.082031 64.035156 40.972656 64.339844 40.777344 64.582031 C 40.589844 64.832031 40.238281 65.035156 39.75 65.203125 C 39.117188 65.386719 38.46875 65.511719 37.816406 65.574219 C 36.796875 65.664062 35.773438 65.703125 34.753906 65.691406 C 33.753906 65.703125 32.753906 65.664062 31.757812 65.574219 C 31.101562 65.515625 30.453125 65.390625 29.824219 65.203125 C 29.351562 65.035156 29.015625 64.832031 28.832031 64.582031 C 28.648438 64.332031 28.554688 64.03125 28.5625 63.722656 L 28.5625 52.167969 L 4.167969 52.167969 C 3.753906 52.175781 3.339844 52.121094 2.941406 52 C 2.570312 51.882812 2.269531 51.613281 2.015625 51.210938 C 1.78125 50.789062 1.59375 50.199219 1.476562 49.425781 C 1.347656 48.402344 1.292969 47.367188 1.308594 46.332031 C 1.308594 45.273438 1.324219 44.363281 1.375 43.589844 C 1.417969 42.886719 1.503906 42.183594 1.628906 41.488281 C 1.746094 40.882812 1.910156 40.285156 2.117188 39.707031 C 2.355469 39.101562 2.632812 38.511719 2.941406 37.9375 L 22.742188 3.023438 C 22.949219 2.703125 23.242188 2.441406 23.582031 2.265625 C 23.984375 2.046875 24.523438 1.878906 25.230469 1.730469 C 26.121094 1.558594 27.019531 1.453125 27.921875 1.410156 C 29 1.34375 30.328125 1.308594 31.859375 1.308594 C 33.542969 1.308594 34.988281 1.34375 36.167969 1.425781 C 37.128906 1.476562 38.085938 1.609375 39.027344 1.828125 C 39.734375 2 40.253906 2.234375 40.589844 2.484375 C 40.910156 2.753906 41.078125 3.058594 41.078125 3.429688 L 41.078125 41.773438 L 46.730469 41.773438 C 47.253906 41.773438 47.707031 42.179688 48.078125 42.984375 C 48.464844 43.792969 48.648438 45.140625 48.648438 47.023438 Z M 28.5625 12.511719 L 28.460938 12.511719 L 11.707031 41.773438 L 28.5625 41.773438 Z M 28.5625 12.511719 "/>
<path style=" stroke:none;fill-rule:nonzero;fill:rgb(0%,0%,0%);fill-opacity:1;" d="M 28.5625 11.203125 L 28.460938 11.203125 C 27.992188 11.203125 27.558594 11.453125 27.324219 11.859375 L 21.875 21.382812 C 21.636719 21.789062 21.636719 22.289062 21.871094 22.695312 C 22.105469 23.105469 22.542969 23.351562 23.011719 23.351562 C 23.484375 23.347656 23.914062 23.089844 24.144531 22.679688 L 27.253906 17.253906 L 27.253906 40.464844 L 13.964844 40.464844 L 18.292969 32.902344 C 18.53125 32.5 18.53125 31.996094 18.296875 31.589844 C 18.058594 31.183594 17.625 30.933594 17.152344 30.9375 C 16.683594 30.9375 16.25 31.195312 16.019531 31.605469 L 10.570312 41.125 C 10.339844 41.53125 10.339844 42.027344 10.574219 42.429688 C 10.808594 42.835938 11.238281 43.082031 11.707031 43.082031 L 28.5625 43.082031 C 29.285156 43.082031 29.871094 42.496094 29.871094 41.773438 L 29.871094 12.511719 C 29.871094 11.789062 29.285156 11.203125 28.5625 11.203125 Z M 28.5625 11.203125 "/>
<path style=" stroke:none;fill-rule:nonzero;fill:rgb(0%,0%,0%);fill-opacity:1;" d="M 49.261719 42.429688 C 48.515625 40.808594 47.472656 40.464844 46.730469 40.464844 L 42.386719 40.464844 L 42.386719 3.425781 C 42.386719 2.90625 42.222656 2.148438 41.433594 1.484375 C 41.414062 1.46875 41.394531 1.453125 41.375 1.4375 C 40.867188 1.058594 40.183594 0.761719 39.34375 0.558594 C 38.332031 0.320312 37.296875 0.175781 36.257812 0.121094 C 35.117188 0.0390625 33.679688 0 31.859375 0 C 30.292969 0 28.941406 0.0351562 27.839844 0.101562 C 26.871094 0.148438 25.910156 0.265625 24.957031 0.449219 C 24.078125 0.636719 23.464844 0.84375 22.957031 1.117188 C 22.953125 1.121094 22.945312 1.125 22.9375 1.128906 C 22.394531 1.414062 21.9375 1.839844 21.613281 2.359375 C 21.609375 2.367188 21.605469 2.375 21.601562 2.378906 L 1.800781 37.296875 C 1.796875 37.300781 1.792969 37.308594 1.789062 37.316406 C 1.453125 37.9375 1.15625 38.574219 0.898438 39.226562 C 0.890625 39.242188 0.886719 39.253906 0.882812 39.269531 C 0.652344 39.914062 0.472656 40.574219 0.34375 41.246094 C 0.207031 41.992188 0.117188 42.746094 0.0703125 43.507812 C 0.0234375 44.25 0 45.121094 0 46.332031 C 0 47.757812 0.0585938 48.804688 0.183594 49.625 C 0.324219 50.542969 0.550781 51.269531 0.875 51.851562 C 0.882812 51.867188 0.894531 51.886719 0.90625 51.902344 C 1.328125 52.582031 1.878906 53.03125 2.535156 53.246094 C 3.0625 53.40625 3.617188 53.488281 4.167969 53.476562 L 27.253906 53.476562 L 27.253906 63.722656 C 27.246094 64.308594 27.429688 64.882812 27.777344 65.355469 C 28.113281 65.816406 28.640625 66.171875 29.382812 66.4375 C 29.394531 66.441406 29.410156 66.445312 29.421875 66.449219 C 30.140625 66.664062 30.878906 66.804688 31.621094 66.875 C 32.664062 66.96875 33.707031 67.011719 34.753906 67 C 35.820312 67.011719 36.890625 66.972656 37.953125 66.875 C 38.6875 66.800781 39.414062 66.664062 40.125 66.457031 C 40.144531 66.453125 40.160156 66.445312 40.175781 66.441406 C 40.9375 66.179688 41.472656 65.832031 41.8125 65.378906 C 42.1875 64.90625 42.390625 64.324219 42.386719 63.722656 L 42.386719 53.476562 L 46.730469 53.476562 C 47.398438 53.476562 48.625 53.199219 49.34375 51.335938 C 49.757812 50.308594 49.957031 48.898438 49.957031 47.023438 C 49.957031 44.886719 49.738281 43.429688 49.261719 42.429688 Z M 46.914062 50.367188 C 46.910156 50.375 46.90625 50.382812 46.90625 50.386719 C 46.847656 50.558594 46.761719 50.71875 46.652344 50.859375 L 41.078125 50.859375 C 40.355469 50.859375 39.769531 51.445312 39.769531 52.167969 L 39.769531 63.722656 C 39.769531 63.730469 39.769531 63.738281 39.769531 63.742188 C 39.765625 63.75 39.757812 63.757812 39.753906 63.765625 L 39.746094 63.773438 C 39.621094 63.855469 39.488281 63.914062 39.347656 63.957031 C 38.800781 64.113281 38.242188 64.21875 37.675781 64.273438 C 36.703125 64.359375 35.730469 64.394531 34.753906 64.382812 C 33.542969 64.382812 32.609375 64.347656 31.894531 64.273438 C 31.335938 64.222656 30.785156 64.117188 30.246094 63.964844 C 30.117188 63.921875 29.992188 63.863281 29.878906 63.789062 C 29.871094 63.769531 29.871094 63.746094 29.871094 63.722656 L 29.871094 52.167969 C 29.871094 51.445312 29.285156 50.859375 28.5625 50.859375 L 4.167969 50.859375 C 3.894531 50.871094 3.621094 50.835938 3.355469 50.757812 L 3.335938 50.753906 C 3.253906 50.703125 3.1875 50.628906 3.140625 50.542969 C 3.03125 50.332031 2.878906 49.9375 2.769531 49.230469 C 2.652344 48.269531 2.601562 47.300781 2.617188 46.332031 C 2.617188 45.195312 2.636719 44.351562 2.683594 43.675781 C 2.722656 43.023438 2.796875 42.375 2.914062 41.730469 C 3.015625 41.199219 3.160156 40.675781 3.34375 40.164062 C 3.558594 39.621094 3.808594 39.089844 4.085938 38.574219 L 23.871094 3.683594 C 23.964844 3.570312 24.082031 3.476562 24.214844 3.414062 C 24.625 3.222656 25.058594 3.085938 25.503906 3.007812 C 26.332031 2.851562 27.164062 2.753906 28.003906 2.714844 C 29.050781 2.648438 30.347656 2.617188 31.859375 2.617188 C 33.613281 2.617188 34.992188 2.65625 36.074219 2.730469 C 36.957031 2.777344 37.832031 2.898438 38.695312 3.097656 C 38.703125 3.097656 38.714844 3.101562 38.722656 3.101562 C 39.09375 3.175781 39.449219 3.3125 39.769531 3.507812 L 39.769531 41.773438 C 39.769531 42.496094 40.355469 43.082031 41.078125 43.082031 L 46.617188 43.082031 C 46.730469 43.21875 46.820312 43.371094 46.886719 43.53125 C 46.890625 43.539062 46.894531 43.542969 46.898438 43.550781 C 47.097656 43.972656 47.339844 44.917969 47.339844 47.023438 C 47.339844 48.542969 47.195312 49.667969 46.914062 50.367188 Z M 46.914062 50.367188 "/>
<path style=" stroke:none;fill-rule:nonzero;fill:rgb(0%,0%,0%);fill-opacity:1;" d="M 20.082031 28.449219 C 20.804688 28.449219 21.390625 27.863281 21.390625 27.140625 C 21.390625 26.417969 20.804688 25.832031 20.082031 25.832031 C 19.359375 25.835938 18.773438 26.421875 18.773438 27.144531 C 18.773438 27.867188 19.359375 28.453125 20.082031 28.449219 Z M 20.082031 28.449219 "/>
<path style=" stroke:none;fill-rule:evenodd;fill:rgb(100%,46.27451%,30.588235%);fill-opacity:1;" d="M 48.648438 47.023438 C 48.648438 48.703125 48.480469 49.984375 48.128906 50.855469 C 47.789062 51.730469 47.320312 52.167969 46.730469 52.167969 L 41.078125 52.167969 L 41.078125 63.722656 C 41.082031 64.035156 40.972656 64.339844 40.777344 64.582031 C 40.589844 64.832031 40.238281 65.035156 39.75 65.203125 C 39.117188 65.386719 38.46875 65.511719 37.816406 65.574219 C 36.796875 65.664062 35.773438 65.703125 34.753906 65.691406 C 33.753906 65.703125 32.753906 65.664062 31.757812 65.574219 C 31.101562 65.515625 30.453125 65.390625 29.824219 65.203125 C 29.351562 65.035156 29.015625 64.832031 28.832031 64.582031 C 28.648438 64.332031 28.554688 64.03125 28.5625 63.722656 L 28.5625 52.167969 L 4.167969 52.167969 C 3.753906 52.175781 3.339844 52.121094 2.941406 52 C 2.570312 51.882812 2.269531 51.613281 2.015625 51.210938 C 1.78125 50.789062 1.59375 50.199219 1.476562 49.425781 C 1.347656 48.402344 1.292969 47.367188 1.308594 46.332031 C 1.308594 45.273438 1.324219 44.363281 1.375 43.589844 C 1.417969 42.886719 1.503906 42.183594 1.628906 41.488281 C 1.746094 40.882812 1.910156 40.285156 2.117188 39.707031 C 2.355469 39.101562 2.632812 38.511719 2.941406 37.9375 L 22.742188 3.023438 C 22.949219 2.703125 23.242188 2.441406 23.582031 2.265625 C 23.984375 2.046875 24.523438 1.878906 25.230469 1.730469 C 26.121094 1.558594 27.019531 1.453125 27.921875 1.410156 C 29 1.34375 30.328125 1.308594 31.859375 1.308594 C 33.542969 1.308594 34.988281 1.34375 36.167969 1.425781 C 37.128906 1.476562 38.085938 1.609375 39.027344 1.828125 C 39.734375 2 40.253906 2.234375 40.589844 2.484375 C 40.910156 2.753906 41.078125 3.058594 41.078125 3.429688 L 41.078125 41.773438 L 46.730469 41.773438 C 47.253906 41.773438 47.707031 42.179688 48.078125 42.984375 C 48.464844 43.792969 48.648438 45.140625 48.648438 47.023438 Z M 28.5625 12.511719 L 28.460938 12.511719 L 11.707031 41.773438 L 28.5625 41.773438 Z M 28.5625 12.511719 "/>
<path style=" stroke:none;fill-rule:nonzero;fill:rgb(0%,0%,0%);fill-opacity:1;" d="M 28.5625 11.203125 L 28.460938 11.203125 C 27.992188 11.203125 27.558594 11.453125 27.324219 11.859375 L 21.875 21.382812 C 21.636719 21.789062 21.636719 22.289062 21.871094 22.695312 C 22.105469 23.105469 22.542969 23.351562 23.011719 23.351562 C 23.484375 23.347656 23.914062 23.089844 24.144531 22.679688 L 27.253906 17.253906 L 27.253906 40.464844 L 13.964844 40.464844 L 18.292969 32.902344 C 18.53125 32.5 18.53125 31.996094 18.296875 31.589844 C 18.058594 31.183594 17.625 30.933594 17.152344 30.9375 C 16.683594 30.9375 16.25 31.195312 16.019531 31.605469 L 10.570312 41.125 C 10.339844 41.53125 10.339844 42.027344 10.574219 42.429688 C 10.808594 42.835938 11.238281 43.082031 11.707031 43.082031 L 28.5625 43.082031 C 29.285156 43.082031 29.871094 42.496094 29.871094 41.773438 L 29.871094 12.511719 C 29.871094 11.789062 29.285156 11.203125 28.5625 11.203125 Z M 28.5625 11.203125 "/>
<path style=" stroke:none;fill-rule:nonzero;fill:rgb(0%,0%,0%);fill-opacity:1;" d="M 49.261719 42.429688 C 48.515625 40.808594 47.472656 40.464844 46.730469 40.464844 L 42.386719 40.464844 L 42.386719 3.425781 C 42.386719 2.90625 42.222656 2.148438 41.433594 1.484375 C 41.414062 1.46875 41.394531 1.453125 41.375 1.4375 C 40.867188 1.058594 40.183594 0.761719 39.34375 0.558594 C 38.332031 0.320312 37.296875 0.175781 36.257812 0.121094 C 35.117188 0.0390625 33.679688 0 31.859375 0 C 30.292969 0 28.941406 0.0351562 27.839844 0.101562 C 26.871094 0.148438 25.910156 0.265625 24.957031 0.449219 C 24.078125 0.636719 23.464844 0.84375 22.957031 1.117188 C 22.953125 1.121094 22.945312 1.125 22.9375 1.128906 C 22.394531 1.414062 21.9375 1.839844 21.613281 2.359375 C 21.609375 2.367188 21.605469 2.375 21.601562 2.378906 L 1.800781 37.296875 C 1.796875 37.300781 1.792969 37.308594 1.789062 37.316406 C 1.453125 37.9375 1.15625 38.574219 0.898438 39.226562 C 0.890625 39.242188 0.886719 39.253906 0.882812 39.269531 C 0.652344 39.914062 0.472656 40.574219 0.34375 41.246094 C 0.207031 41.992188 0.117188 42.746094 0.0703125 43.507812 C 0.0234375 44.25 0 45.121094 0 46.332031 C 0 47.757812 0.0585938 48.804688 0.183594 49.625 C 0.324219 50.542969 0.550781 51.269531 0.875 51.851562 C 0.882812 51.867188 0.894531 51.886719 0.90625 51.902344 C 1.328125 52.582031 1.878906 53.03125 2.535156 53.246094 C 3.0625 53.40625 3.617188 53.488281 4.167969 53.476562 L 27.253906 53.476562 L 27.253906 63.722656 C 27.246094 64.308594 27.429688 64.882812 27.777344 65.355469 C 28.113281 65.816406 28.640625 66.171875 29.382812 66.4375 C 29.394531 66.441406 29.410156 66.445312 29.421875 66.449219 C 30.140625 66.664062 30.878906 66.804688 31.621094 66.875 C 32.664062 66.96875 33.707031 67.011719 34.753906 67 C 35.820312 67.011719 36.890625 66.972656 37.953125 66.875 C 38.6875 66.800781 39.414062 66.664062 40.125 66.457031 C 40.144531 66.453125 40.160156 66.445312 40.175781 66.441406 C 40.9375 66.179688 41.472656 65.832031 41.8125 65.378906 C 42.1875 64.90625 42.390625 64.324219 42.386719 63.722656 L 42.386719 53.476562 L 46.730469 53.476562 C 47.398438 53.476562 48.625 53.199219 49.34375 51.335938 C 49.757812 50.308594 49.957031 48.898438 49.957031 47.023438 C 49.957031 44.886719 49.738281 43.429688 49.261719 42.429688 Z M 46.914062 50.367188 C 46.910156 50.375 46.90625 50.382812 46.90625 50.386719 C 46.847656 50.558594 46.761719 50.71875 46.652344 50.859375 L 41.078125 50.859375 C 40.355469 50.859375 39.769531 51.445312 39.769531 52.167969 L 39.769531 63.722656 C 39.769531 63.730469 39.769531 63.738281 39.769531 63.742188 C 39.765625 63.75 39.757812 63.757812 39.753906 63.765625 L 39.746094 63.773438 C 39.621094 63.855469 39.488281 63.914062 39.347656 63.957031 C 38.800781 64.113281 38.242188 64.21875 37.675781 64.273438 C 36.703125 64.359375 35.730469 64.394531 34.753906 64.382812 C 33.542969 64.382812 32.609375 64.347656 31.894531 64.273438 C 31.335938 64.222656 30.785156 64.117188 30.246094 63.964844 C 30.117188 63.921875 29.992188 63.863281 29.878906 63.789062 C 29.871094 63.769531 29.871094 63.746094 29.871094 63.722656 L 29.871094 52.167969 C 29.871094 51.445312 29.285156 50.859375 28.5625 50.859375 L 4.167969 50.859375 C 3.894531 50.871094 3.621094 50.835938 3.355469 50.757812 L 3.335938 50.753906 C 3.253906 50.703125 3.1875 50.628906 3.140625 50.542969 C 3.03125 50.332031 2.878906 49.9375 2.769531 49.230469 C 2.652344 48.269531 2.601562 47.300781 2.617188 46.332031 C 2.617188 45.195312 2.636719 44.351562 2.683594 43.675781 C 2.722656 43.023438 2.796875 42.375 2.914062 41.730469 C 3.015625 41.199219 3.160156 40.675781 3.34375 40.164062 C 3.558594 39.621094 3.808594 39.089844 4.085938 38.574219 L 23.871094 3.683594 C 23.964844 3.570312 24.082031 3.476562 24.214844 3.414062 C 24.625 3.222656 25.058594 3.085938 25.503906 3.007812 C 26.332031 2.851562 27.164062 2.753906 28.003906 2.714844 C 29.050781 2.648438 30.347656 2.617188 31.859375 2.617188 C 33.613281 2.617188 34.992188 2.65625 36.074219 2.730469 C 36.957031 2.777344 37.832031 2.898438 38.695312 3.097656 C 38.703125 3.097656 38.714844 3.101562 38.722656 3.101562 C 39.09375 3.175781 39.449219 3.3125 39.769531 3.507812 L 39.769531 41.773438 C 39.769531 42.496094 40.355469 43.082031 41.078125 43.082031 L 46.617188 43.082031 C 46.730469 43.21875 46.820312 43.371094 46.886719 43.53125 C 46.890625 43.539062 46.894531 43.542969 46.898438 43.550781 C 47.097656 43.972656 47.339844 44.917969 47.339844 47.023438 C 47.339844 48.542969 47.195312 49.667969 46.914062 50.367188 Z M 46.914062 50.367188 "/>
<path style=" stroke:none;fill-rule:nonzero;fill:rgb(0%,0%,0%);fill-opacity:1;" d="M 20.082031 28.449219 C 20.804688 28.449219 21.390625 27.863281 21.390625 27.140625 C 21.390625 26.417969 20.804688 25.832031 20.082031 25.832031 C 19.359375 25.835938 18.773438 26.421875 18.773438 27.144531 C 18.773438 27.867188 19.359375 28.453125 20.082031 28.449219 Z M 20.082031 28.449219 "/>
</g>
</svg>
