<?xml version="1.0" encoding="UTF-8"?>
<svg xmlns="http://www.w3.org/2000/svg" xmlns:xlink="http://www.w3.org/1999/xlink" width="50" height="75" viewBox="0 0 50 75" version="1.1">
<g id="surface1">
<path style=" stroke:none;fill-rule:evenodd;fill:rgb(0%,80%,94.901961%);fill-opacity:1;" d="M 48.484375 49.289062 C 48.484375 53.117188 47.808594 56.535156 46.457031 59.542969 C 45.164062 62.480469 43.210938 65.085938 40.746094 67.164062 C 38.285156 69.21875 35.332031 70.796875 31.890625 71.890625 C 28.425781 72.992188 24.605469 73.535156 20.386719 73.535156 C 18.273438 73.546875 16.160156 73.410156 14.066406 73.125 C 12.253906 72.878906 10.460938 72.53125 8.691406 72.078125 C 7.359375 71.738281 6.050781 71.316406 4.773438 70.808594 C 3.773438 70.378906 3.089844 70.042969 2.789062 69.761719 C 2.496094 69.515625 2.257812 69.210938 2.089844 68.867188 C 1.925781 68.488281 1.808594 68.09375 1.730469 67.6875 C 1.625 67.113281 1.5625 66.535156 1.542969 65.949219 C 1.503906 65.257812 1.484375 64.4375 1.484375 63.484375 C 1.476562 62.617188 1.515625 61.75 1.597656 60.886719 C 1.644531 60.300781 1.765625 59.726562 1.957031 59.167969 C 2.128906 58.722656 2.316406 58.402344 2.542969 58.234375 C 2.757812 58.046875 3.035156 57.949219 3.320312 57.957031 C 3.679688 57.957031 4.246094 58.160156 5.003906 58.589844 C 5.976562 59.101562 6.972656 59.566406 7.992188 59.972656 C 9.460938 60.546875 10.972656 61.007812 12.515625 61.355469 C 14.292969 61.785156 16.433594 61.992188 18.890625 61.992188 C 20.867188 62.007812 22.835938 61.789062 24.757812 61.335938 C 26.515625 60.886719 27.992188 60.195312 29.222656 59.226562 C 30.445312 58.253906 31.414062 57.003906 32.042969 55.582031 C 32.703125 54.125 33.042969 52.390625 33.042969 50.332031 C 33.070312 48.738281 32.785156 47.15625 32.210938 45.664062 C 31.664062 44.300781 30.761719 43.101562 29.601562 42.1875 C 28.425781 41.234375 26.894531 40.527344 25.003906 40.058594 C 23.109375 39.59375 20.820312 39.347656 18.132812 39.347656 C 16.179688 39.335938 14.226562 39.449219 12.289062 39.6875 C 10.636719 39.886719 8.976562 39.992188 7.3125 40.003906 C 6.253906 40.003906 5.476562 39.742188 5.023438 39.21875 C 4.550781 38.675781 4.324219 37.707031 4.324219 36.285156 L 4.324219 5.554688 C 4.324219 4.097656 4.605469 3.054688 5.175781 2.417969 C 5.761719 1.78125 6.667969 1.464844 7.917969 1.464844 L 41.898438 1.464844 C 42.242188 1.472656 42.574219 1.589844 42.84375 1.800781 C 43.179688 2.070312 43.4375 2.425781 43.582031 2.828125 C 43.824219 3.441406 43.976562 4.082031 44.035156 4.734375 C 44.136719 5.671875 44.179688 6.613281 44.167969 7.554688 C 44.167969 9.742188 43.980469 11.328125 43.582031 12.320312 C 43.203125 13.308594 42.636719 13.796875 41.898438 13.796875 L 16.355469 13.796875 L 16.355469 28.925781 C 17.640625 28.777344 18.929688 28.683594 20.214844 28.648438 C 21.484375 28.609375 22.828125 28.589844 24.226562 28.589844 C 28.125 28.589844 31.574219 29.039062 34.574219 29.9375 C 37.601562 30.832031 40.140625 32.148438 42.183594 33.878906 C 44.25 35.628906 45.859375 37.84375 46.875 40.339844 C 47.953125 42.902344 48.484375 45.890625 48.484375 49.289062 Z M 48.484375 49.289062 "/>
<path style=" stroke:none;fill-rule:nonzero;fill:rgb(0%,0%,0%);fill-opacity:1;" d="M 48.246094 39.78125 C 47.140625 37.074219 45.390625 34.667969 43.152344 32.765625 C 40.96875 30.910156 38.226562 29.484375 35.003906 28.53125 C 31.871094 27.597656 28.246094 27.125 24.226562 27.125 C 22.808594 27.125 21.445312 27.144531 20.171875 27.179688 C 19.398438 27.203125 18.617188 27.246094 17.839844 27.308594 L 17.839844 15.257812 L 41.898438 15.257812 C 42.699219 15.257812 44.160156 14.945312 44.964844 12.847656 C 45.429688 11.6875 45.652344 9.957031 45.652344 7.554688 C 45.664062 6.554688 45.617188 5.558594 45.511719 4.566406 C 45.433594 3.777344 45.25 3.003906 44.953125 2.269531 C 44.707031 1.621094 44.28125 1.050781 43.726562 0.625 C 43.203125 0.226562 42.5625 0.0078125 41.898438 0 L 7.917969 0 C 6.246094 0 4.953125 0.480469 4.078125 1.429688 C 4.070312 1.4375 4.066406 1.441406 4.058594 1.449219 C 3.238281 2.367188 2.835938 3.710938 2.835938 5.554688 L 2.835938 36.285156 C 2.835938 38.109375 3.175781 39.347656 3.894531 40.171875 C 4.640625 41.03125 5.789062 41.46875 7.3125 41.46875 C 9.03125 41.457031 10.753906 41.347656 12.460938 41.140625 L 12.480469 41.136719 C 14.355469 40.910156 16.242188 40.804688 18.132812 40.8125 C 20.660156 40.8125 22.851562 41.039062 24.644531 41.480469 C 24.800781 41.519531 24.957031 41.5625 25.113281 41.605469 C 25.898438 41.824219 26.71875 41.375 26.945312 40.59375 C 27.167969 39.816406 26.710938 39.007812 25.921875 38.785156 C 25.738281 38.734375 25.550781 38.683594 25.363281 38.636719 C 23.335938 38.136719 20.90625 37.882812 18.132812 37.882812 C 16.117188 37.875 14.105469 37.988281 12.105469 38.230469 C 10.515625 38.425781 8.914062 38.527344 7.3125 38.539062 C 6.628906 38.539062 6.261719 38.398438 6.144531 38.261719 C 6.109375 38.222656 5.804688 37.828125 5.804688 36.285156 L 5.804688 5.554688 C 5.804688 4.109375 6.128906 3.566406 6.277344 3.394531 C 6.570312 3.085938 7.121094 2.929688 7.917969 2.929688 L 41.882812 2.929688 C 41.910156 2.945312 41.941406 2.960938 41.964844 2.980469 C 42.074219 3.09375 42.15625 3.226562 42.203125 3.371094 C 42.207031 3.382812 42.210938 3.390625 42.214844 3.398438 C 42.402344 3.882812 42.515625 4.390625 42.5625 4.90625 C 42.65625 5.785156 42.695312 6.671875 42.683594 7.554688 C 42.683594 10.054688 42.421875 11.230469 42.203125 11.777344 C 42.199219 11.785156 42.195312 11.792969 42.195312 11.800781 C 42.136719 11.996094 42.03125 12.179688 41.894531 12.328125 L 16.355469 12.328125 C 15.535156 12.328125 14.871094 12.984375 14.871094 13.792969 L 14.871094 28.925781 C 14.871094 29.34375 15.050781 29.742188 15.371094 30.019531 C 15.6875 30.296875 16.109375 30.429688 16.527344 30.378906 C 17.765625 30.238281 19.019531 30.144531 20.257812 30.109375 C 21.503906 30.074219 22.839844 30.054688 24.226562 30.054688 C 27.953125 30.054688 31.292969 30.484375 34.148438 31.335938 C 36.972656 32.175781 39.351562 33.402344 41.21875 34.992188 C 43.101562 36.578125 44.503906 38.507812 45.503906 40.902344 C 46.496094 43.253906 47 46.078125 47 49.289062 C 47 52.878906 46.359375 56.132812 45.101562 58.953125 C 43.894531 61.683594 42.078125 64.109375 39.785156 66.046875 C 37.496094 67.957031 34.6875 69.457031 31.433594 70.496094 C 28.15625 71.542969 24.4375 72.070312 20.386719 72.070312 C 18.339844 72.078125 16.300781 71.949219 14.273438 71.671875 C 12.523438 71.433594 10.789062 71.097656 9.074219 70.664062 C 7.433594 70.21875 6.253906 69.835938 5.367188 69.464844 C 4.175781 68.953125 3.875 68.75 3.804688 68.691406 C 3.792969 68.683594 3.78125 68.671875 3.769531 68.664062 C 3.632812 68.550781 3.519531 68.410156 3.4375 68.253906 C 3.324219 67.976562 3.238281 67.691406 3.183594 67.402344 C 3.09375 66.894531 3.039062 66.382812 3.019531 65.871094 C 2.984375 65.210938 2.964844 64.40625 2.964844 63.484375 C 2.960938 62.667969 2.996094 61.851562 3.070312 61.042969 C 3.101562 60.585938 3.191406 60.136719 3.335938 59.703125 L 3.34375 59.683594 C 3.382812 59.589844 3.414062 59.515625 3.4375 59.464844 C 3.722656 59.570312 4 59.703125 4.261719 59.859375 C 4.269531 59.863281 4.277344 59.867188 4.289062 59.871094 C 5.308594 60.414062 6.355469 60.898438 7.429688 61.328125 C 8.96875 61.929688 10.550781 62.414062 12.160156 62.777344 C 14.019531 63.226562 16.285156 63.453125 18.890625 63.453125 C 20.984375 63.46875 23.074219 63.234375 25.113281 62.757812 L 25.128906 62.753906 C 27.113281 62.246094 28.757812 61.46875 30.15625 60.363281 C 31.558594 59.242188 32.667969 57.808594 33.394531 56.179688 C 34.144531 54.527344 34.527344 52.558594 34.527344 50.332031 C 34.527344 50.238281 34.527344 50.144531 34.523438 50.050781 C 34.511719 49.242188 33.835938 48.597656 33.015625 48.609375 C 32.199219 48.625 31.542969 49.289062 31.558594 50.097656 C 31.558594 50.175781 31.558594 50.253906 31.558594 50.332031 C 31.558594 52.144531 31.265625 53.707031 30.683594 54.988281 C 30.152344 56.195312 29.332031 57.253906 28.292969 58.082031 C 27.238281 58.914062 25.964844 59.515625 24.394531 59.914062 C 22.589844 60.335938 20.742188 60.539062 18.890625 60.523438 C 16.523438 60.523438 14.496094 60.324219 12.855469 59.929688 C 11.394531 59.601562 9.957031 59.164062 8.5625 58.621094 C 7.59375 58.234375 6.648438 57.796875 5.730469 57.3125 C 4.738281 56.75 3.972656 56.488281 3.320312 56.488281 C 2.6875 56.480469 2.074219 56.699219 1.597656 57.105469 C 1.167969 57.441406 0.84375 57.933594 0.570312 58.644531 C 0.328125 59.320312 0.175781 60.019531 0.121094 60.734375 C 0.03125 61.648438 -0.0078125 62.566406 0 63.484375 C 0 64.460938 0.0195312 65.316406 0.0585938 66.027344 C 0.0859375 66.683594 0.15625 67.339844 0.277344 67.984375 C 0.375 68.492188 0.527344 68.984375 0.734375 69.460938 C 0.738281 69.46875 0.742188 69.480469 0.746094 69.488281 C 1 70.007812 1.355469 70.46875 1.792969 70.847656 C 2.214844 71.230469 2.871094 71.585938 4.195312 72.15625 C 5.21875 72.585938 6.523438 73.011719 8.300781 73.492188 L 8.316406 73.496094 C 10.140625 73.960938 11.988281 74.320312 13.855469 74.574219 C 16.019531 74.867188 18.203125 75.007812 20.386719 75 C 24.746094 75 28.769531 74.421875 32.347656 73.285156 C 35.972656 72.125 39.117188 70.441406 41.707031 68.277344 C 44.34375 66.054688 46.429688 63.269531 47.816406 60.132812 C 49.242188 56.941406 49.96875 53.289062 49.96875 49.289062 C 49.96875 45.6875 49.386719 42.488281 48.246094 39.78125 Z M 48.246094 39.78125 "/>
<path style=" stroke:none;fill-rule:nonzero;fill:rgb(0%,0%,0%);fill-opacity:1;" d="M 32.621094 43.757812 C 32.621094 42.949219 31.957031 42.292969 31.136719 42.292969 C 30.316406 42.292969 29.652344 42.949219 29.652344 43.757812 C 29.652344 44.566406 30.316406 45.222656 31.136719 45.222656 C 31.957031 45.222656 32.621094 44.566406 32.621094 43.757812 Z M 32.621094 43.757812 "/>
<path style=" stroke:none;fill-rule:evenodd;fill:rgb(0%,80%,94.901961%);fill-opacity:1;" d="M 48.484375 49.289062 C 48.484375 53.117188 47.808594 56.535156 46.457031 59.542969 C 45.164062 62.480469 43.210938 65.085938 40.746094 67.164062 C 38.285156 69.21875 35.332031 70.796875 31.890625 71.890625 C 28.425781 72.992188 24.605469 73.535156 20.386719 73.535156 C 18.273438 73.546875 16.160156 73.410156 14.066406 73.125 C 12.253906 72.878906 10.460938 72.53125 8.691406 72.078125 C 7.359375 71.738281 6.050781 71.316406 4.773438 70.808594 C 3.773438 70.378906 3.089844 70.042969 2.789062 69.761719 C 2.496094 69.515625 2.257812 69.210938 2.089844 68.867188 C 1.925781 68.488281 1.808594 68.09375 1.730469 67.6875 C 1.625 67.113281 1.5625 66.535156 1.542969 65.949219 C 1.503906 65.257812 1.484375 64.4375 1.484375 63.484375 C 1.476562 62.617188 1.515625 61.75 1.597656 60.886719 C 1.644531 60.300781 1.765625 59.726562 1.957031 59.167969 C 2.128906 58.722656 2.316406 58.402344 2.542969 58.234375 C 2.757812 58.046875 3.035156 57.949219 3.320312 57.957031 C 3.679688 57.957031 4.246094 58.160156 5.003906 58.589844 C 5.976562 59.101562 6.972656 59.566406 7.992188 59.972656 C 9.460938 60.546875 10.972656 61.007812 12.515625 61.355469 C 14.292969 61.785156 16.433594 61.992188 18.890625 61.992188 C 20.867188 62.007812 22.835938 61.789062 24.757812 61.335938 C 26.515625 60.886719 27.992188 60.195312 29.222656 59.226562 C 30.445312 58.253906 31.414062 57.003906 32.042969 55.582031 C 32.703125 54.125 33.042969 52.390625 33.042969 50.332031 C 33.070312 48.738281 32.785156 47.15625 32.210938 45.664062 C 31.664062 44.300781 30.761719 43.101562 29.601562 42.1875 C 28.425781 41.234375 26.894531 40.527344 25.003906 40.058594 C 23.109375 39.59375 20.820312 39.347656 18.132812 39.347656 C 16.179688 39.335938 14.226562 39.449219 12.289062 39.6875 C 10.636719 39.886719 8.976562 39.992188 7.3125 40.003906 C 6.253906 40.003906 5.476562 39.742188 5.023438 39.21875 C 4.550781 38.675781 4.324219 37.707031 4.324219 36.285156 L 4.324219 5.554688 C 4.324219 4.097656 4.605469 3.054688 5.175781 2.417969 C 5.761719 1.78125 6.667969 1.464844 7.917969 1.464844 L 41.898438 1.464844 C 42.242188 1.472656 42.574219 1.589844 42.84375 1.800781 C 43.179688 2.070312 43.4375 2.425781 43.582031 2.828125 C 43.824219 3.441406 43.976562 4.082031 44.035156 4.734375 C 44.136719 5.671875 44.179688 6.613281 44.167969 7.554688 C 44.167969 9.742188 43.980469 11.328125 43.582031 12.320312 C 43.203125 13.308594 42.636719 13.796875 41.898438 13.796875 L 16.355469 13.796875 L 16.355469 28.925781 C 17.640625 28.777344 18.929688 28.683594 20.214844 28.648438 C 21.484375 28.609375 22.828125 28.589844 24.226562 28.589844 C 28.125 28.589844 31.574219 29.039062 34.574219 29.9375 C 37.601562 30.832031 40.140625 32.148438 42.183594 33.878906 C 44.25 35.628906 45.859375 37.84375 46.875 40.339844 C 47.953125 42.902344 48.484375 45.890625 48.484375 49.289062 Z M 48.484375 49.289062 "/>
<path style=" stroke:none;fill-rule:nonzero;fill:rgb(0%,0%,0%);fill-opacity:1;" d="M 48.246094 39.78125 C 47.140625 37.074219 45.390625 34.667969 43.152344 32.765625 C 40.96875 30.910156 38.226562 29.484375 35.003906 28.53125 C 31.871094 27.597656 28.246094 27.125 24.226562 27.125 C 22.808594 27.125 21.445312 27.144531 20.171875 27.179688 C 19.398438 27.203125 18.617188 27.246094 17.839844 27.308594 L 17.839844 15.257812 L 41.898438 15.257812 C 42.699219 15.257812 44.160156 14.945312 44.964844 12.847656 C 45.429688 11.6875 45.652344 9.957031 45.652344 7.554688 C 45.664062 6.554688 45.617188 5.558594 45.511719 4.566406 C 45.433594 3.777344 45.25 3.003906 44.953125 2.269531 C 44.707031 1.621094 44.28125 1.050781 43.726562 0.625 C 43.203125 0.226562 42.5625 0.0078125 41.898438 0 L 7.917969 0 C 6.246094 0 4.953125 0.480469 4.078125 1.429688 C 4.070312 1.4375 4.066406 1.441406 4.058594 1.449219 C 3.238281 2.367188 2.835938 3.710938 2.835938 5.554688 L 2.835938 36.285156 C 2.835938 38.109375 3.175781 39.347656 3.894531 40.171875 C 4.640625 41.03125 5.789062 41.46875 7.3125 41.46875 C 9.03125 41.457031 10.753906 41.347656 12.460938 41.140625 L 12.480469 41.136719 C 14.355469 40.910156 16.242188 40.804688 18.132812 40.8125 C 20.660156 40.8125 22.851562 41.039062 24.644531 41.480469 C 24.800781 41.519531 24.957031 41.5625 25.113281 41.605469 C 25.898438 41.824219 26.71875 41.375 26.945312 40.59375 C 27.167969 39.816406 26.710938 39.007812 25.921875 38.785156 C 25.738281 38.734375 25.550781 38.683594 25.363281 38.636719 C 23.335938 38.136719 20.90625 37.882812 18.132812 37.882812 C 16.117188 37.875 14.105469 37.988281 12.105469 38.230469 C 10.515625 38.425781 8.914062 38.527344 7.3125 38.539062 C 6.628906 38.539062 6.261719 38.398438 6.144531 38.261719 C 6.109375 38.222656 5.804688 37.828125 5.804688 36.285156 L 5.804688 5.554688 C 5.804688 4.109375 6.128906 3.566406 6.277344 3.394531 C 6.570312 3.085938 7.121094 2.929688 7.917969 2.929688 L 41.882812 2.929688 C 41.910156 2.945312 41.941406 2.960938 41.964844 2.980469 C 42.074219 3.09375 42.15625 3.226562 42.203125 3.371094 C 42.207031 3.382812 42.210938 3.390625 42.214844 3.398438 C 42.402344 3.882812 42.515625 4.390625 42.5625 4.90625 C 42.65625 5.785156 42.695312 6.671875 42.683594 7.554688 C 42.683594 10.054688 42.421875 11.230469 42.203125 11.777344 C 42.199219 11.785156 42.195312 11.792969 42.195312 11.800781 C 42.136719 11.996094 42.03125 12.179688 41.894531 12.328125 L 16.355469 12.328125 C 15.535156 12.328125 14.871094 12.984375 14.871094 13.792969 L 14.871094 28.925781 C 14.871094 29.34375 15.050781 29.742188 15.371094 30.019531 C 15.6875 30.296875 16.109375 30.429688 16.527344 30.378906 C 17.765625 30.238281 19.019531 30.144531 20.257812 30.109375 C 21.503906 30.074219 22.839844 30.054688 24.226562 30.054688 C 27.953125 30.054688 31.292969 30.484375 34.148438 31.335938 C 36.972656 32.175781 39.351562 33.402344 41.21875 34.992188 C 43.101562 36.578125 44.503906 38.507812 45.503906 40.902344 C 46.496094 43.253906 47 46.078125 47 49.289062 C 47 52.878906 46.359375 56.132812 45.101562 58.953125 C 43.894531 61.683594 42.078125 64.109375 39.785156 66.046875 C 37.496094 67.957031 34.6875 69.457031 31.433594 70.496094 C 28.15625 71.542969 24.4375 72.070312 20.386719 72.070312 C 18.339844 72.078125 16.300781 71.949219 14.273438 71.671875 C 12.523438 71.433594 10.789062 71.097656 9.074219 70.664062 C 7.433594 70.21875 6.253906 69.835938 5.367188 69.464844 C 4.175781 68.953125 3.875 68.75 3.804688 68.691406 C 3.792969 68.683594 3.78125 68.671875 3.769531 68.664062 C 3.632812 68.550781 3.519531 68.410156 3.4375 68.253906 C 3.324219 67.976562 3.238281 67.691406 3.183594 67.402344 C 3.09375 66.894531 3.039062 66.382812 3.019531 65.871094 C 2.984375 65.210938 2.964844 64.40625 2.964844 63.484375 C 2.960938 62.667969 2.996094 61.851562 3.070312 61.042969 C 3.101562 60.585938 3.191406 60.136719 3.335938 59.703125 L 3.34375 59.683594 C 3.382812 59.589844 3.414062 59.515625 3.4375 59.464844 C 3.722656 59.570312 4 59.703125 4.261719 59.859375 C 4.269531 59.863281 4.277344 59.867188 4.289062 59.871094 C 5.308594 60.414062 6.355469 60.898438 7.429688 61.328125 C 8.96875 61.929688 10.550781 62.414062 12.160156 62.777344 C 14.019531 63.226562 16.285156 63.453125 18.890625 63.453125 C 20.984375 63.46875 23.074219 63.234375 25.113281 62.757812 L 25.128906 62.753906 C 27.113281 62.246094 28.757812 61.46875 30.15625 60.363281 C 31.558594 59.242188 32.667969 57.808594 33.394531 56.179688 C 34.144531 54.527344 34.527344 52.558594 34.527344 50.332031 C 34.527344 50.238281 34.527344 50.144531 34.523438 50.050781 C 34.511719 49.242188 33.835938 48.597656 33.015625 48.609375 C 32.199219 48.625 31.542969 49.289062 31.558594 50.097656 C 31.558594 50.175781 31.558594 50.253906 31.558594 50.332031 C 31.558594 52.144531 31.265625 53.707031 30.683594 54.988281 C 30.152344 56.195312 29.332031 57.253906 28.292969 58.082031 C 27.238281 58.914062 25.964844 59.515625 24.394531 59.914062 C 22.589844 60.335938 20.742188 60.539062 18.890625 60.523438 C 16.523438 60.523438 14.496094 60.324219 12.855469 59.929688 C 11.394531 59.601562 9.957031 59.164062 8.5625 58.621094 C 7.59375 58.234375 6.648438 57.796875 5.730469 57.3125 C 4.738281 56.75 3.972656 56.488281 3.320312 56.488281 C 2.6875 56.480469 2.074219 56.699219 1.597656 57.105469 C 1.167969 57.441406 0.84375 57.933594 0.570312 58.644531 C 0.328125 59.320312 0.175781 60.019531 0.121094 60.734375 C 0.03125 61.648438 -0.0078125 62.566406 0 63.484375 C 0 64.460938 0.0195312 65.316406 0.0585938 66.027344 C 0.0859375 66.683594 0.15625 67.339844 0.277344 67.984375 C 0.375 68.492188 0.527344 68.984375 0.734375 69.460938 C 0.738281 69.46875 0.742188 69.480469 0.746094 69.488281 C 1 70.007812 1.355469 70.46875 1.792969 70.847656 C 2.214844 71.230469 2.871094 71.585938 4.195312 72.15625 C 5.21875 72.585938 6.523438 73.011719 8.300781 73.492188 L 8.316406 73.496094 C 10.140625 73.960938 11.988281 74.320312 13.855469 74.574219 C 16.019531 74.867188 18.203125 75.007812 20.386719 75 C 24.746094 75 28.769531 74.421875 32.347656 73.285156 C 35.972656 72.125 39.117188 70.441406 41.707031 68.277344 C 44.34375 66.054688 46.429688 63.269531 47.816406 60.132812 C 49.242188 56.941406 49.96875 53.289062 49.96875 49.289062 C 49.96875 45.6875 49.386719 42.488281 48.246094 39.78125 Z M 48.246094 39.78125 "/>
<path style=" stroke:none;fill-rule:nonzero;fill:rgb(0%,0%,0%);fill-opacity:1;" d="M 32.621094 43.757812 C 32.621094 42.949219 31.957031 42.292969 31.136719 42.292969 C 30.316406 42.292969 29.652344 42.949219 29.652344 43.757812 C 29.652344 44.566406 30.316406 45.222656 31.136719 45.222656 C 31.957031 45.222656 32.621094 44.566406 32.621094 43.757812 Z M 32.621094 43.757812 "/>
</g>
</svg>
