<?xml version="1.0" encoding="UTF-8"?>
<svg xmlns="http://www.w3.org/2000/svg" xmlns:xlink="http://www.w3.org/1999/xlink" width="50" height="73" viewBox="0 0 50 73" version="1.1">
<g id="surface1">
<path style=" stroke:none;fill-rule:evenodd;fill:rgb(100%,75.686275%,26.666667%);fill-opacity:1;" d="M 48.5625 47.761719 C 48.5625 51.175781 48.035156 54.339844 46.976562 57.253906 C 45.980469 60.066406 44.398438 62.636719 42.328125 64.800781 C 40.292969 66.910156 37.777344 68.566406 34.78125 69.769531 C 31.773438 70.964844 28.332031 71.574219 24.421875 71.574219 C 21.253906 71.574219 18.480469 71.214844 16.117188 70.5 C 13.902344 69.855469 11.824219 68.804688 9.992188 67.410156 C 8.273438 66.066406 6.832031 64.402344 5.761719 62.511719 C 4.621094 60.464844 3.746094 58.285156 3.148438 56.019531 C 2.46875 53.445312 2.023438 50.8125 1.816406 48.15625 C 1.5625 45.332031 1.4375 42.328125 1.4375 39.144531 C 1.4375 36.5 1.5625 33.710938 1.832031 30.816406 C 2.097656 27.929688 2.613281 25.070312 3.363281 22.269531 C 4.117188 19.496094 5.1875 16.8125 6.554688 14.28125 C 7.917969 11.769531 9.71875 9.519531 11.867188 7.628906 C 14.03125 5.734375 16.640625 4.214844 19.722656 3.105469 C 22.800781 1.980469 26.453125 1.417969 30.675781 1.425781 C 32.023438 1.421875 33.371094 1.5 34.710938 1.65625 C 36.058594 1.820312 37.320312 2.015625 38.492188 2.265625 C 39.5 2.457031 40.488281 2.738281 41.449219 3.105469 C 42.257812 3.410156 42.78125 3.679688 43.050781 3.910156 C 43.300781 4.121094 43.507812 4.375 43.664062 4.660156 C 43.808594 4.957031 43.925781 5.269531 44.003906 5.589844 C 44.105469 5.988281 44.164062 6.398438 44.1875 6.808594 C 44.222656 7.308594 44.238281 7.898438 44.238281 8.59375 C 44.238281 9.667969 44.222656 10.5625 44.167969 11.277344 C 44.140625 11.847656 44.035156 12.410156 43.863281 12.957031 C 43.777344 13.300781 43.574219 13.605469 43.285156 13.8125 C 43.023438 14 42.707031 14.09375 42.382812 14.082031 C 41.828125 14.058594 41.28125 13.941406 40.761719 13.742188 C 40.097656 13.511719 39.285156 13.261719 38.332031 12.992188 C 37.234375 12.671875 36.113281 12.425781 34.980469 12.257812 C 33.503906 12.03125 32.007812 11.921875 30.511719 11.9375 C 27.664062 11.9375 25.269531 12.457031 23.289062 13.511719 C 21.359375 14.53125 19.714844 16.003906 18.496094 17.800781 C 17.253906 19.605469 16.351562 21.699219 15.792969 24.074219 C 15.21875 26.558594 14.917969 29.09375 14.894531 31.636719 C 15.757812 31.09375 16.652344 30.605469 17.578125 30.171875 C 18.625 29.65625 19.71875 29.234375 20.839844 28.902344 C 22.101562 28.546875 23.382812 28.261719 24.675781 28.042969 C 26.128906 27.808594 27.597656 27.695312 29.070312 27.707031 C 32.511719 27.707031 35.46875 28.171875 37.933594 29.117188 C 40.402344 30.0625 42.421875 31.40625 43.988281 33.15625 C 45.554688 34.890625 46.707031 37 47.445312 39.484375 C 48.183594 41.953125 48.5625 44.722656 48.5625 47.761719 Z M 34.945312 49.066406 C 34.960938 47.5 34.804688 45.933594 34.476562 44.402344 C 34.152344 43.0625 33.648438 41.933594 32.925781 41.003906 C 32.199219 40.074219 31.234375 39.355469 30.132812 38.914062 C 28.964844 38.449219 27.558594 38.214844 25.902344 38.214844 C 24.921875 38.214844 23.945312 38.304688 22.980469 38.484375 C 22.035156 38.652344 21.101562 38.890625 20.191406 39.199219 C 19.28125 39.515625 18.398438 39.890625 17.542969 40.324219 C 16.722656 40.742188 15.929688 41.199219 15.164062 41.703125 C 15.164062 45.4375 15.378906 48.53125 15.792969 51.015625 C 16.226562 53.5 16.839844 55.484375 17.667969 56.933594 C 18.496094 58.398438 19.542969 59.4375 20.800781 60.042969 C 22.046875 60.652344 23.503906 60.957031 25.164062 60.957031 C 26.785156 60.957031 28.207031 60.652344 29.414062 60.0625 C 30.621094 59.488281 31.667969 58.628906 32.457031 57.558594 C 33.300781 56.421875 33.925781 55.144531 34.3125 53.785156 C 34.742188 52.25 34.957031 50.660156 34.945312 49.066406 Z M 34.945312 49.066406 "/>
<path style=" stroke:none;fill-rule:nonzero;fill:rgb(0%,0%,0%);fill-opacity:1;" d="M 34.816406 51.738281 C 34.042969 51.558594 33.269531 52.035156 33.089844 52.800781 C 33.042969 52.996094 32.988281 53.195312 32.933594 53.390625 C 32.59375 54.585938 32.042969 55.710938 31.300781 56.710938 C 30.648438 57.597656 29.78125 58.3125 28.777344 58.78125 C 27.765625 59.277344 26.546875 59.53125 25.160156 59.53125 C 23.730469 59.53125 22.476562 59.273438 21.429688 58.761719 C 20.429688 58.277344 19.609375 57.453125 18.917969 56.230469 C 18.195312 54.964844 17.621094 53.128906 17.210938 50.78125 C 16.835938 48.527344 16.632812 45.738281 16.605469 42.480469 C 17.128906 42.160156 17.660156 41.863281 18.195312 41.59375 C 18.992188 41.191406 19.8125 40.84375 20.65625 40.546875 C 21.496094 40.265625 22.355469 40.042969 23.226562 39.886719 L 23.25 39.882812 C 24.125 39.722656 25.011719 39.640625 25.902344 39.640625 C 27.355469 39.640625 28.597656 39.839844 29.589844 40.230469 C 30.347656 40.539062 31.03125 41.011719 31.578125 41.621094 C 32.101562 42.210938 33.007812 42.269531 33.605469 41.75 C 34.203125 41.230469 34.261719 40.332031 33.738281 39.738281 C 32.902344 38.804688 31.859375 38.074219 30.691406 37.597656 L 30.667969 37.589844 C 29.3125 37.050781 27.753906 36.789062 25.902344 36.789062 C 24.835938 36.789062 23.773438 36.886719 22.726562 37.082031 C 21.710938 37.261719 20.710938 37.515625 19.734375 37.847656 L 19.710938 37.855469 C 18.746094 38.191406 17.800781 38.59375 16.886719 39.054688 C 16.023438 39.496094 15.183594 39.980469 14.375 40.511719 C 13.96875 40.773438 13.726562 41.222656 13.726562 41.703125 C 13.726562 45.453125 13.945312 48.664062 14.378906 51.257812 C 14.851562 53.980469 15.519531 56.066406 16.414062 57.628906 C 17.386719 59.347656 18.652344 60.589844 20.167969 61.324219 C 21.605469 62.023438 23.285156 62.382812 25.164062 62.382812 C 26.992188 62.382812 28.636719 62.03125 30.042969 61.34375 C 31.453125 60.671875 32.675781 59.664062 33.605469 58.414062 C 34.550781 57.144531 35.257812 55.710938 35.691406 54.191406 C 35.691406 54.1875 35.695312 54.179688 35.695312 54.175781 C 35.761719 53.9375 35.828125 53.695312 35.882812 53.457031 C 36.066406 52.691406 35.589844 51.921875 34.816406 51.738281 Z M 34.816406 51.738281 "/>
<path style=" stroke:none;fill-rule:nonzero;fill:rgb(0%,0%,0%);fill-opacity:1;" d="M 48.824219 39.082031 C 48.027344 36.402344 46.761719 34.089844 45.0625 32.210938 C 43.355469 30.304688 41.132812 28.816406 38.453125 27.785156 C 35.84375 26.785156 32.6875 26.277344 29.070312 26.277344 C 27.515625 26.269531 25.964844 26.390625 24.433594 26.636719 C 23.085938 26.863281 21.753906 27.160156 20.441406 27.53125 C 20.433594 27.535156 20.421875 27.535156 20.414062 27.539062 C 19.21875 27.890625 18.058594 28.34375 16.9375 28.894531 C 16.773438 28.972656 16.609375 29.054688 16.449219 29.132812 C 16.582031 27.539062 16.828125 25.957031 17.191406 24.398438 C 17.652344 22.328125 18.5 20.359375 19.6875 18.597656 C 20.777344 16.992188 22.246094 15.679688 23.964844 14.765625 C 25.742188 13.820312 27.882812 13.363281 30.511719 13.363281 C 31.925781 13.347656 33.339844 13.449219 34.738281 13.664062 C 34.746094 13.664062 34.753906 13.667969 34.757812 13.667969 C 35.824219 13.824219 36.878906 14.054688 37.914062 14.355469 L 37.9375 14.363281 C 38.859375 14.621094 39.648438 14.867188 40.285156 15.085938 C 40.957031 15.34375 41.664062 15.484375 42.382812 15.507812 C 43.703125 15.535156 44.871094 14.667969 45.222656 13.40625 C 45.4375 12.75 45.5625 12.070312 45.597656 11.382812 C 45.652344 10.683594 45.675781 9.824219 45.675781 8.59375 C 45.675781 7.863281 45.65625 7.246094 45.617188 6.699219 C 45.589844 6.199219 45.515625 5.703125 45.390625 5.21875 C 45.285156 4.804688 45.136719 4.40625 44.949219 4.023438 C 44.941406 4.011719 44.9375 4 44.929688 3.988281 C 44.691406 3.550781 44.371094 3.15625 43.992188 2.832031 C 43.574219 2.472656 42.929688 2.140625 41.96875 1.777344 C 40.9375 1.382812 39.871094 1.078125 38.785156 0.871094 C 37.628906 0.625 36.351562 0.417969 34.878906 0.242188 C 33.484375 0.078125 32.082031 -0.00390625 30.675781 0 C 26.289062 0 22.433594 0.59375 19.234375 1.765625 C 16.03125 2.917969 13.230469 4.53125 10.910156 6.566406 C 8.636719 8.566406 6.734375 10.953125 5.285156 13.605469 C 3.867188 16.238281 2.757812 19.019531 1.976562 21.902344 C 1.203125 24.78125 0.679688 27.71875 0.402344 30.683594 C 0.136719 33.546875 0 36.394531 0 39.148438 C 0 42.355469 0.128906 45.429688 0.382812 48.273438 C 0.601562 51.015625 1.0625 53.730469 1.761719 56.390625 C 2.390625 58.773438 3.3125 61.0625 4.511719 63.21875 C 5.679688 65.269531 7.242188 67.078125 9.109375 68.535156 C 11.082031 70.035156 13.316406 71.167969 15.699219 71.867188 C 18.1875 72.617188 21.121094 73 24.425781 73 C 28.472656 73 32.136719 72.359375 35.320312 71.089844 C 38.488281 69.824219 41.195312 68.039062 43.371094 65.785156 C 45.574219 63.480469 47.261719 60.738281 48.332031 57.742188 C 49.4375 54.699219 50 51.34375 50 47.761719 C 50 44.609375 49.605469 41.6875 48.824219 39.082031 Z M 45.625 56.769531 C 44.695312 59.394531 43.21875 61.792969 41.292969 63.8125 C 39.402344 65.773438 37.03125 67.332031 34.246094 68.445312 C 31.40625 69.574219 28.101562 70.148438 24.421875 70.148438 C 21.402344 70.148438 18.75 69.808594 16.539062 69.136719 C 14.492188 68.539062 12.574219 67.574219 10.878906 66.285156 C 9.308594 65.058594 7.996094 63.539062 7.011719 61.8125 C 5.933594 59.871094 5.101562 57.800781 4.535156 55.652344 C 3.878906 53.15625 3.449219 50.605469 3.246094 48.03125 C 3 45.261719 2.875 42.269531 2.875 39.144531 C 2.875 36.480469 3.003906 33.722656 3.261719 30.945312 C 3.523438 28.140625 4.019531 25.363281 4.75 22.640625 C 5.476562 19.972656 6.503906 17.394531 7.816406 14.957031 C 9.105469 12.597656 10.796875 10.476562 12.820312 8.699219 C 14.863281 6.90625 17.347656 5.476562 20.21875 4.445312 C 23.109375 3.386719 26.625 2.851562 30.675781 2.851562 C 31.964844 2.847656 33.257812 2.921875 34.539062 3.074219 C 35.921875 3.238281 37.117188 3.429688 38.191406 3.660156 C 38.195312 3.660156 38.203125 3.664062 38.207031 3.664062 C 39.128906 3.839844 40.035156 4.09375 40.914062 4.429688 C 40.921875 4.433594 40.929688 4.4375 40.941406 4.441406 C 41.867188 4.789062 42.101562 4.980469 42.109375 4.988281 C 42.222656 5.082031 42.316406 5.191406 42.386719 5.316406 C 42.484375 5.523438 42.5625 5.734375 42.617188 5.953125 C 42.617188 5.960938 42.621094 5.964844 42.621094 5.972656 C 42.691406 6.28125 42.738281 6.59375 42.753906 6.90625 C 42.785156 7.378906 42.804688 7.933594 42.804688 8.59375 C 42.804688 9.734375 42.78125 10.554688 42.734375 11.167969 C 42.71875 11.609375 42.640625 12.046875 42.511719 12.46875 C 42.503906 12.492188 42.496094 12.515625 42.488281 12.539062 C 42.476562 12.578125 42.460938 12.617188 42.445312 12.652344 C 42.347656 12.664062 42 12.660156 41.238281 12.398438 C 40.550781 12.15625 39.707031 11.894531 38.734375 11.621094 C 37.578125 11.285156 36.398438 11.027344 35.207031 10.851562 C 33.65625 10.609375 32.085938 10.496094 30.511719 10.511719 C 27.398438 10.511719 24.8125 11.082031 22.605469 12.257812 C 20.476562 13.382812 18.660156 15.011719 17.308594 16.996094 C 15.972656 18.9375 14.992188 21.210938 14.394531 23.75 C 13.796875 26.332031 13.484375 28.96875 13.457031 31.617188 C 13.449219 32.144531 13.734375 32.632812 14.199219 32.886719 C 14.664062 33.140625 15.234375 33.117188 15.675781 32.832031 C 16.488281 32.320312 17.332031 31.859375 18.203125 31.457031 C 18.210938 31.449219 18.21875 31.445312 18.230469 31.441406 C 19.199219 30.964844 20.210938 30.574219 21.25 30.269531 C 22.457031 29.929688 23.679688 29.65625 24.917969 29.449219 C 26.289062 29.226562 27.679688 29.121094 29.070312 29.128906 C 32.332031 29.128906 35.140625 29.570312 37.414062 30.445312 C 39.664062 31.308594 41.515625 32.539062 42.917969 34.109375 C 44.332031 35.675781 45.394531 37.621094 46.070312 39.890625 C 46.769531 42.234375 47.125 44.882812 47.125 47.761719 C 47.125 51.011719 46.621094 54.042969 45.625 56.769531 Z M 45.625 56.769531 "/>
<path style=" stroke:none;fill-rule:nonzero;fill:rgb(0%,0%,0%);fill-opacity:1;" d="M 34.839844 45.296875 C 34.042969 45.296875 33.402344 45.933594 33.402344 46.722656 C 33.402344 47.507812 34.046875 48.148438 34.839844 48.148438 C 35.632812 48.148438 36.273438 47.507812 36.277344 46.722656 C 36.277344 45.933594 35.632812 45.296875 34.839844 45.296875 Z M 34.839844 45.296875 "/>
<path style=" stroke:none;fill-rule:evenodd;fill:rgb(100%,75.686275%,26.666667%);fill-opacity:1;" d="M 48.5625 47.761719 C 48.5625 51.175781 48.035156 54.339844 46.976562 57.253906 C 45.980469 60.066406 44.398438 62.636719 42.328125 64.800781 C 40.292969 66.910156 37.777344 68.566406 34.78125 69.769531 C 31.773438 70.964844 28.332031 71.574219 24.421875 71.574219 C 21.253906 71.574219 18.480469 71.214844 16.117188 70.5 C 13.902344 69.855469 11.824219 68.804688 9.992188 67.410156 C 8.273438 66.066406 6.832031 64.402344 5.761719 62.511719 C 4.621094 60.464844 3.746094 58.285156 3.148438 56.019531 C 2.46875 53.445312 2.023438 50.8125 1.816406 48.15625 C 1.5625 45.332031 1.4375 42.328125 1.4375 39.144531 C 1.4375 36.5 1.5625 33.710938 1.832031 30.816406 C 2.097656 27.929688 2.613281 25.070312 3.363281 22.269531 C 4.117188 19.496094 5.1875 16.8125 6.554688 14.28125 C 7.917969 11.769531 9.71875 9.519531 11.867188 7.628906 C 14.03125 5.734375 16.640625 4.214844 19.722656 3.105469 C 22.800781 1.980469 26.453125 1.417969 30.675781 1.425781 C 32.023438 1.421875 33.371094 1.5 34.710938 1.65625 C 36.058594 1.820312 37.320312 2.015625 38.492188 2.265625 C 39.5 2.457031 40.488281 2.738281 41.449219 3.105469 C 42.257812 3.410156 42.78125 3.679688 43.050781 3.910156 C 43.300781 4.121094 43.507812 4.375 43.664062 4.660156 C 43.808594 4.957031 43.925781 5.269531 44.003906 5.589844 C 44.105469 5.988281 44.164062 6.398438 44.1875 6.808594 C 44.222656 7.308594 44.238281 7.898438 44.238281 8.59375 C 44.238281 9.667969 44.222656 10.5625 44.167969 11.277344 C 44.140625 11.847656 44.035156 12.410156 43.863281 12.957031 C 43.777344 13.300781 43.574219 13.605469 43.285156 13.8125 C 43.023438 14 42.707031 14.09375 42.382812 14.082031 C 41.828125 14.058594 41.28125 13.941406 40.761719 13.742188 C 40.097656 13.511719 39.285156 13.261719 38.332031 12.992188 C 37.234375 12.671875 36.113281 12.425781 34.980469 12.257812 C 33.503906 12.03125 32.007812 11.921875 30.511719 11.9375 C 27.664062 11.9375 25.269531 12.457031 23.289062 13.511719 C 21.359375 14.53125 19.714844 16.003906 18.496094 17.800781 C 17.253906 19.605469 16.351562 21.699219 15.792969 24.074219 C 15.21875 26.558594 14.917969 29.09375 14.894531 31.636719 C 15.757812 31.09375 16.652344 30.605469 17.578125 30.171875 C 18.625 29.65625 19.71875 29.234375 20.839844 28.902344 C 22.101562 28.546875 23.382812 28.261719 24.675781 28.042969 C 26.128906 27.808594 27.597656 27.695312 29.070312 27.707031 C 32.511719 27.707031 35.46875 28.171875 37.933594 29.117188 C 40.402344 30.0625 42.421875 31.40625 43.988281 33.15625 C 45.554688 34.890625 46.707031 37 47.445312 39.484375 C 48.183594 41.953125 48.5625 44.722656 48.5625 47.761719 Z M 34.945312 49.066406 C 34.960938 47.5 34.804688 45.933594 34.476562 44.402344 C 34.152344 43.0625 33.648438 41.933594 32.925781 41.003906 C 32.199219 40.074219 31.234375 39.355469 30.132812 38.914062 C 28.964844 38.449219 27.558594 38.214844 25.902344 38.214844 C 24.921875 38.214844 23.945312 38.304688 22.980469 38.484375 C 22.035156 38.652344 21.101562 38.890625 20.191406 39.199219 C 19.28125 39.515625 18.398438 39.890625 17.542969 40.324219 C 16.722656 40.742188 15.929688 41.199219 15.164062 41.703125 C 15.164062 45.4375 15.378906 48.53125 15.792969 51.015625 C 16.226562 53.5 16.839844 55.484375 17.667969 56.933594 C 18.496094 58.398438 19.542969 59.4375 20.800781 60.042969 C 22.046875 60.652344 23.503906 60.957031 25.164062 60.957031 C 26.785156 60.957031 28.207031 60.652344 29.414062 60.0625 C 30.621094 59.488281 31.667969 58.628906 32.457031 57.558594 C 33.300781 56.421875 33.925781 55.144531 34.3125 53.785156 C 34.742188 52.25 34.957031 50.660156 34.945312 49.066406 Z M 34.945312 49.066406 "/>
<path style=" stroke:none;fill-rule:nonzero;fill:rgb(0%,0%,0%);fill-opacity:1;" d="M 34.816406 51.738281 C 34.042969 51.558594 33.269531 52.035156 33.089844 52.800781 C 33.042969 52.996094 32.988281 53.195312 32.933594 53.390625 C 32.59375 54.585938 32.042969 55.710938 31.300781 56.710938 C 30.648438 57.597656 29.78125 58.3125 28.777344 58.78125 C 27.765625 59.277344 26.546875 59.53125 25.160156 59.53125 C 23.730469 59.53125 22.476562 59.273438 21.429688 58.761719 C 20.429688 58.277344 19.609375 57.453125 18.917969 56.230469 C 18.195312 54.964844 17.621094 53.128906 17.210938 50.78125 C 16.835938 48.527344 16.632812 45.738281 16.605469 42.480469 C 17.128906 42.160156 17.660156 41.863281 18.195312 41.59375 C 18.992188 41.191406 19.8125 40.84375 20.65625 40.546875 C 21.496094 40.265625 22.355469 40.042969 23.226562 39.886719 L 23.25 39.882812 C 24.125 39.722656 25.011719 39.640625 25.902344 39.640625 C 27.355469 39.640625 28.597656 39.839844 29.589844 40.230469 C 30.347656 40.539062 31.03125 41.011719 31.578125 41.621094 C 32.101562 42.210938 33.007812 42.269531 33.605469 41.75 C 34.203125 41.230469 34.261719 40.332031 33.738281 39.738281 C 32.902344 38.804688 31.859375 38.074219 30.691406 37.597656 L 30.667969 37.589844 C 29.3125 37.050781 27.753906 36.789062 25.902344 36.789062 C 24.835938 36.789062 23.773438 36.886719 22.726562 37.082031 C 21.710938 37.261719 20.710938 37.515625 19.734375 37.847656 L 19.710938 37.855469 C 18.746094 38.191406 17.800781 38.59375 16.886719 39.054688 C 16.023438 39.496094 15.183594 39.980469 14.375 40.511719 C 13.96875 40.773438 13.726562 41.222656 13.726562 41.703125 C 13.726562 45.453125 13.945312 48.664062 14.378906 51.257812 C 14.851562 53.980469 15.519531 56.066406 16.414062 57.628906 C 17.386719 59.347656 18.652344 60.589844 20.167969 61.324219 C 21.605469 62.023438 23.285156 62.382812 25.164062 62.382812 C 26.992188 62.382812 28.636719 62.03125 30.042969 61.34375 C 31.453125 60.671875 32.675781 59.664062 33.605469 58.414062 C 34.550781 57.144531 35.257812 55.710938 35.691406 54.191406 C 35.691406 54.1875 35.695312 54.179688 35.695312 54.175781 C 35.761719 53.9375 35.828125 53.695312 35.882812 53.457031 C 36.066406 52.691406 35.589844 51.921875 34.816406 51.738281 Z M 34.816406 51.738281 "/>
<path style=" stroke:none;fill-rule:nonzero;fill:rgb(0%,0%,0%);fill-opacity:1;" d="M 48.824219 39.082031 C 48.027344 36.402344 46.761719 34.089844 45.0625 32.210938 C 43.355469 30.304688 41.132812 28.816406 38.453125 27.785156 C 35.84375 26.785156 32.6875 26.277344 29.070312 26.277344 C 27.515625 26.269531 25.964844 26.390625 24.433594 26.636719 C 23.085938 26.863281 21.753906 27.160156 20.441406 27.53125 C 20.433594 27.535156 20.421875 27.535156 20.414062 27.539062 C 19.21875 27.890625 18.058594 28.34375 16.9375 28.894531 C 16.773438 28.972656 16.609375 29.054688 16.449219 29.132812 C 16.582031 27.539062 16.828125 25.957031 17.191406 24.398438 C 17.652344 22.328125 18.5 20.359375 19.6875 18.597656 C 20.777344 16.992188 22.246094 15.679688 23.964844 14.765625 C 25.742188 13.820312 27.882812 13.363281 30.511719 13.363281 C 31.925781 13.347656 33.339844 13.449219 34.738281 13.664062 C 34.746094 13.664062 34.753906 13.667969 34.757812 13.667969 C 35.824219 13.824219 36.878906 14.054688 37.914062 14.355469 L 37.9375 14.363281 C 38.859375 14.621094 39.648438 14.867188 40.285156 15.085938 C 40.957031 15.34375 41.664062 15.484375 42.382812 15.507812 C 43.703125 15.535156 44.871094 14.667969 45.222656 13.40625 C 45.4375 12.75 45.5625 12.070312 45.597656 11.382812 C 45.652344 10.683594 45.675781 9.824219 45.675781 8.59375 C 45.675781 7.863281 45.65625 7.246094 45.617188 6.699219 C 45.589844 6.199219 45.515625 5.703125 45.390625 5.21875 C 45.285156 4.804688 45.136719 4.40625 44.949219 4.023438 C 44.941406 4.011719 44.9375 4 44.929688 3.988281 C 44.691406 3.550781 44.371094 3.15625 43.992188 2.832031 C 43.574219 2.472656 42.929688 2.140625 41.96875 1.777344 C 40.9375 1.382812 39.871094 1.078125 38.785156 0.871094 C 37.628906 0.625 36.351562 0.417969 34.878906 0.242188 C 33.484375 0.078125 32.082031 -0.00390625 30.675781 0 C 26.289062 0 22.433594 0.59375 19.234375 1.765625 C 16.03125 2.917969 13.230469 4.53125 10.910156 6.566406 C 8.636719 8.566406 6.734375 10.953125 5.285156 13.605469 C 3.867188 16.238281 2.757812 19.019531 1.976562 21.902344 C 1.203125 24.78125 0.679688 27.71875 0.402344 30.683594 C 0.136719 33.546875 0 36.394531 0 39.148438 C 0 42.355469 0.128906 45.429688 0.382812 48.273438 C 0.601562 51.015625 1.0625 53.730469 1.761719 56.390625 C 2.390625 58.773438 3.3125 61.0625 4.511719 63.21875 C 5.679688 65.269531 7.242188 67.078125 9.109375 68.535156 C 11.082031 70.035156 13.316406 71.167969 15.699219 71.867188 C 18.1875 72.617188 21.121094 73 24.425781 73 C 28.472656 73 32.136719 72.359375 35.320312 71.089844 C 38.488281 69.824219 41.195312 68.039062 43.371094 65.785156 C 45.574219 63.480469 47.261719 60.738281 48.332031 57.742188 C 49.4375 54.699219 50 51.34375 50 47.761719 C 50 44.609375 49.605469 41.6875 48.824219 39.082031 Z M 45.625 56.769531 C 44.695312 59.394531 43.21875 61.792969 41.292969 63.8125 C 39.402344 65.773438 37.03125 67.332031 34.246094 68.445312 C 31.40625 69.574219 28.101562 70.148438 24.421875 70.148438 C 21.402344 70.148438 18.75 69.808594 16.539062 69.136719 C 14.492188 68.539062 12.574219 67.574219 10.878906 66.285156 C 9.308594 65.058594 7.996094 63.539062 7.011719 61.8125 C 5.933594 59.871094 5.101562 57.800781 4.535156 55.652344 C 3.878906 53.15625 3.449219 50.605469 3.246094 48.03125 C 3 45.261719 2.875 42.269531 2.875 39.144531 C 2.875 36.480469 3.003906 33.722656 3.261719 30.945312 C 3.523438 28.140625 4.019531 25.363281 4.75 22.640625 C 5.476562 19.972656 6.503906 17.394531 7.816406 14.957031 C 9.105469 12.597656 10.796875 10.476562 12.820312 8.699219 C 14.863281 6.90625 17.347656 5.476562 20.21875 4.445312 C 23.109375 3.386719 26.625 2.851562 30.675781 2.851562 C 31.964844 2.847656 33.257812 2.921875 34.539062 3.074219 C 35.921875 3.238281 37.117188 3.429688 38.191406 3.660156 C 38.195312 3.660156 38.203125 3.664062 38.207031 3.664062 C 39.128906 3.839844 40.035156 4.09375 40.914062 4.429688 C 40.921875 4.433594 40.929688 4.4375 40.941406 4.441406 C 41.867188 4.789062 42.101562 4.980469 42.109375 4.988281 C 42.222656 5.082031 42.316406 5.191406 42.386719 5.316406 C 42.484375 5.523438 42.5625 5.734375 42.617188 5.953125 C 42.617188 5.960938 42.621094 5.964844 42.621094 5.972656 C 42.691406 6.28125 42.738281 6.59375 42.753906 6.90625 C 42.785156 7.378906 42.804688 7.933594 42.804688 8.59375 C 42.804688 9.734375 42.78125 10.554688 42.734375 11.167969 C 42.71875 11.609375 42.640625 12.046875 42.511719 12.46875 C 42.503906 12.492188 42.496094 12.515625 42.488281 12.539062 C 42.476562 12.578125 42.460938 12.617188 42.445312 12.652344 C 42.347656 12.664062 42 12.660156 41.238281 12.398438 C 40.550781 12.15625 39.707031 11.894531 38.734375 11.621094 C 37.578125 11.285156 36.398438 11.027344 35.207031 10.851562 C 33.65625 10.609375 32.085938 10.496094 30.511719 10.511719 C 27.398438 10.511719 24.8125 11.082031 22.605469 12.257812 C 20.476562 13.382812 18.660156 15.011719 17.308594 16.996094 C 15.972656 18.9375 14.992188 21.210938 14.394531 23.75 C 13.796875 26.332031 13.484375 28.96875 13.457031 31.617188 C 13.449219 32.144531 13.734375 32.632812 14.199219 32.886719 C 14.664062 33.140625 15.234375 33.117188 15.675781 32.832031 C 16.488281 32.320312 17.332031 31.859375 18.203125 31.457031 C 18.210938 31.449219 18.21875 31.445312 18.230469 31.441406 C 19.199219 30.964844 20.210938 30.574219 21.25 30.269531 C 22.457031 29.929688 23.679688 29.65625 24.917969 29.449219 C 26.289062 29.226562 27.679688 29.121094 29.070312 29.128906 C 32.332031 29.128906 35.140625 29.570312 37.414062 30.445312 C 39.664062 31.308594 41.515625 32.539062 42.917969 34.109375 C 44.332031 35.675781 45.394531 37.621094 46.070312 39.890625 C 46.769531 42.234375 47.125 44.882812 47.125 47.761719 C 47.125 51.011719 46.621094 54.042969 45.625 56.769531 Z M 45.625 56.769531 "/>
<path style=" stroke:none;fill-rule:nonzero;fill:rgb(0%,0%,0%);fill-opacity:1;" d="M 34.839844 45.296875 C 34.042969 45.296875 33.402344 45.933594 33.402344 46.722656 C 33.402344 47.507812 34.046875 48.148438 34.839844 48.148438 C 35.632812 48.148438 36.273438 47.507812 36.277344 46.722656 C 36.277344 45.933594 35.632812 45.296875 34.839844 45.296875 Z M 34.839844 45.296875 "/>
</g>
</svg>
