<?xml version="1.0" encoding="UTF-8"?>
<svg xmlns="http://www.w3.org/2000/svg" xmlns:xlink="http://www.w3.org/1999/xlink" width="50" height="72" viewBox="0 0 50 72" version="1.1">
<g id="surface1">
<path style=" stroke:none;fill-rule:evenodd;fill:rgb(51.764706%,50.588235%,88.627451%);fill-opacity:1;" d="M 48.554688 7.289062 C 48.554688 8.324219 48.515625 9.214844 48.441406 9.976562 C 48.367188 10.742188 48.277344 11.449219 48.148438 12.101562 C 48.027344 12.734375 47.855469 13.351562 47.632812 13.953125 C 47.429688 14.535156 47.171875 15.171875 46.878906 15.84375 L 23.941406 68.414062 C 23.746094 68.839844 23.464844 69.214844 23.113281 69.523438 C 22.6875 69.84375 22.199219 70.074219 21.679688 70.195312 C 20.910156 70.378906 20.128906 70.488281 19.339844 70.519531 C 18.386719 70.574219 17.207031 70.59375 15.808594 70.59375 C 14.300781 70.613281 12.789062 70.554688 11.285156 70.414062 C 10.179688 70.285156 9.351562 70.085938 8.839844 69.8125 C 8.324219 69.558594 8.027344 69.214844 8.011719 68.8125 C 7.972656 68.398438 8.082031 67.886719 8.378906 67.289062 L 32.992188 13.5 L 3.6875 13.5 C 2.933594 13.5 2.363281 13.007812 1.996094 12.046875 C 1.609375 11.066406 1.425781 9.523438 1.425781 7.398438 C 1.414062 6.488281 1.46875 5.578125 1.589844 4.675781 C 1.667969 4.027344 1.820312 3.394531 2.050781 2.785156 C 2.253906 2.296875 2.472656 1.933594 2.75 1.734375 C 3.015625 1.519531 3.34375 1.402344 3.6875 1.40625 L 45.148438 1.40625 C 45.695312 1.390625 46.242188 1.449219 46.769531 1.585938 C 47.207031 1.71875 47.578125 2.011719 47.796875 2.40625 C 48.054688 2.839844 48.242188 3.441406 48.367188 4.222656 C 48.507812 5.238281 48.570312 6.265625 48.550781 7.289062 Z M 48.554688 7.289062 "/>
<path style=" stroke:none;fill-rule:nonzero;fill:rgb(0%,0%,0%);fill-opacity:1;" d="M 49.773438 3.996094 C 49.613281 3.015625 49.375 2.285156 49.027344 1.695312 C 49.023438 1.6875 49.019531 1.679688 49.015625 1.675781 C 48.609375 0.980469 47.953125 0.46875 47.175781 0.242188 C 46.515625 0.0625 45.832031 -0.0195312 45.148438 0 L 3.6875 0 C 3.03125 0 2.394531 0.214844 1.882812 0.617188 C 1.269531 1.074219 0.929688 1.769531 0.730469 2.257812 C 0.457031 2.96875 0.273438 3.714844 0.179688 4.472656 C 0.0507812 5.441406 -0.0117188 6.421875 0 7.398438 C 0 9.761719 0.210938 11.398438 0.664062 12.550781 C 1.453125 14.601562 2.894531 14.90625 3.6875 14.90625 L 30.785156 14.90625 L 22.027344 34.046875 C 21.707031 34.753906 22.027344 35.582031 22.742188 35.898438 C 23.453125 36.21875 24.296875 35.910156 24.621094 35.207031 L 34.289062 14.078125 C 34.488281 13.644531 34.449219 13.140625 34.1875 12.738281 C 33.925781 12.335938 33.472656 12.09375 32.992188 12.09375 L 3.6875 12.09375 C 3.675781 12.09375 3.664062 12.09375 3.65625 12.089844 C 3.625 12.078125 3.480469 11.945312 3.328125 11.550781 C 3.324219 11.546875 3.324219 11.542969 3.324219 11.539062 C 3.105469 10.988281 2.847656 9.828125 2.847656 7.398438 C 2.839844 6.554688 2.890625 5.710938 3 4.871094 C 3.0625 4.34375 3.1875 3.820312 3.371094 3.316406 C 3.429688 3.152344 3.511719 2.992188 3.613281 2.851562 L 3.640625 2.832031 C 3.648438 2.824219 3.65625 2.816406 3.664062 2.8125 C 3.671875 2.8125 3.679688 2.8125 3.6875 2.8125 L 45.148438 2.8125 C 45.554688 2.796875 45.960938 2.839844 46.355469 2.933594 L 46.371094 2.9375 C 46.414062 2.949219 46.476562 2.96875 46.574219 3.125 C 46.683594 3.316406 46.839844 3.699219 46.964844 4.445312 C 47.089844 5.386719 47.148438 6.339844 47.128906 7.289062 C 47.128906 8.269531 47.09375 9.128906 47.023438 9.84375 C 46.949219 10.628906 46.859375 11.277344 46.75 11.832031 C 46.644531 12.386719 46.496094 12.929688 46.300781 13.460938 C 46.292969 13.472656 46.289062 13.484375 46.285156 13.496094 C 46.105469 14.011719 45.875 14.59375 45.570312 15.285156 L 22.644531 67.828125 C 22.539062 68.0625 22.386719 68.273438 22.195312 68.445312 C 22.074219 68.546875 21.820312 68.699219 21.300781 68.835938 C 20.632812 68.996094 19.949219 69.089844 19.257812 69.117188 C 18.417969 69.164062 17.320312 69.1875 15.808594 69.1875 C 13.898438 69.1875 12.472656 69.132812 11.449219 69.015625 C 10.175781 68.867188 9.667969 68.65625 9.511719 68.574219 C 9.5 68.566406 9.488281 68.5625 9.476562 68.554688 C 9.460938 68.550781 9.449219 68.542969 9.4375 68.535156 C 9.480469 68.316406 9.554688 68.101562 9.660156 67.902344 C 9.664062 67.890625 9.671875 67.878906 9.675781 67.867188 L 19.34375 46.742188 C 19.554688 46.285156 19.503906 45.746094 19.207031 45.335938 C 18.910156 44.925781 18.414062 44.707031 17.902344 44.757812 C 17.394531 44.808594 16.953125 45.125 16.746094 45.585938 L 7.085938 66.695312 C 6.703125 67.484375 6.535156 68.230469 6.589844 68.910156 C 6.621094 69.449219 6.878906 70.410156 8.183594 71.0625 C 8.859375 71.414062 9.820312 71.660156 11.121094 71.808594 C 12.253906 71.9375 13.789062 72 15.808594 72 C 17.398438 72 18.511719 71.976562 19.425781 71.925781 C 20.3125 71.886719 21.191406 71.761719 22.050781 71.550781 C 22.878906 71.328125 23.527344 71.015625 24.023438 70.601562 C 24.535156 70.167969 24.945312 69.628906 25.222656 69.023438 C 25.234375 69.003906 25.242188 68.988281 25.25 68.96875 L 48.1875 16.402344 C 48.515625 15.652344 48.773438 15.007812 48.972656 14.429688 C 49.222656 13.761719 49.414062 13.070312 49.546875 12.371094 C 49.671875 11.726562 49.777344 10.988281 49.859375 10.109375 C 49.9375 9.296875 49.976562 8.375 49.976562 7.289062 C 49.996094 6.1875 49.929688 5.085938 49.773438 3.996094 Z M 49.773438 3.996094 "/>
<path style=" stroke:none;fill-rule:nonzero;fill:rgb(0%,0%,0%);fill-opacity:1;" d="M 20.683594 41.800781 C 21.472656 41.800781 22.109375 41.171875 22.109375 40.394531 C 22.109375 39.617188 21.472656 38.988281 20.683594 38.988281 C 19.894531 38.988281 19.257812 39.617188 19.257812 40.394531 C 19.257812 41.171875 19.898438 41.800781 20.683594 41.800781 Z M 20.683594 41.800781 "/>
<path style=" stroke:none;fill-rule:evenodd;fill:rgb(51.764706%,50.588235%,88.627451%);fill-opacity:1;" d="M 48.554688 7.289062 C 48.554688 8.324219 48.515625 9.214844 48.441406 9.976562 C 48.367188 10.742188 48.277344 11.449219 48.148438 12.101562 C 48.027344 12.734375 47.855469 13.351562 47.632812 13.953125 C 47.429688 14.535156 47.171875 15.171875 46.878906 15.84375 L 23.941406 68.414062 C 23.746094 68.839844 23.464844 69.214844 23.113281 69.523438 C 22.6875 69.84375 22.199219 70.074219 21.679688 70.195312 C 20.910156 70.378906 20.128906 70.488281 19.339844 70.519531 C 18.386719 70.574219 17.207031 70.59375 15.808594 70.59375 C 14.300781 70.613281 12.789062 70.554688 11.285156 70.414062 C 10.179688 70.285156 9.351562 70.085938 8.839844 69.8125 C 8.324219 69.558594 8.027344 69.214844 8.011719 68.8125 C 7.972656 68.398438 8.082031 67.886719 8.378906 67.289062 L 32.992188 13.5 L 3.6875 13.5 C 2.933594 13.5 2.363281 13.007812 1.996094 12.046875 C 1.609375 11.066406 1.425781 9.523438 1.425781 7.398438 C 1.414062 6.488281 1.46875 5.578125 1.589844 4.675781 C 1.667969 4.027344 1.820312 3.394531 2.050781 2.785156 C 2.253906 2.296875 2.472656 1.933594 2.75 1.734375 C 3.015625 1.519531 3.34375 1.402344 3.6875 1.40625 L 45.148438 1.40625 C 45.695312 1.390625 46.242188 1.449219 46.769531 1.585938 C 47.207031 1.71875 47.578125 2.011719 47.796875 2.40625 C 48.054688 2.839844 48.242188 3.441406 48.367188 4.222656 C 48.507812 5.238281 48.570312 6.265625 48.550781 7.289062 Z M 48.554688 7.289062 "/>
<path style=" stroke:none;fill-rule:nonzero;fill:rgb(0%,0%,0%);fill-opacity:1;" d="M 49.773438 3.996094 C 49.613281 3.015625 49.375 2.285156 49.027344 1.695312 C 49.023438 1.6875 49.019531 1.679688 49.015625 1.675781 C 48.609375 0.980469 47.953125 0.46875 47.175781 0.242188 C 46.515625 0.0625 45.832031 -0.0195312 45.148438 0 L 3.6875 0 C 3.03125 0 2.394531 0.214844 1.882812 0.617188 C 1.269531 1.074219 0.929688 1.769531 0.730469 2.257812 C 0.457031 2.96875 0.273438 3.714844 0.179688 4.472656 C 0.0507812 5.441406 -0.0117188 6.421875 0 7.398438 C 0 9.761719 0.210938 11.398438 0.664062 12.550781 C 1.453125 14.601562 2.894531 14.90625 3.6875 14.90625 L 30.785156 14.90625 L 22.027344 34.046875 C 21.707031 34.753906 22.027344 35.582031 22.742188 35.898438 C 23.453125 36.21875 24.296875 35.910156 24.621094 35.207031 L 34.289062 14.078125 C 34.488281 13.644531 34.449219 13.140625 34.1875 12.738281 C 33.925781 12.335938 33.472656 12.09375 32.992188 12.09375 L 3.6875 12.09375 C 3.675781 12.09375 3.664062 12.09375 3.65625 12.089844 C 3.625 12.078125 3.480469 11.945312 3.328125 11.550781 C 3.324219 11.546875 3.324219 11.542969 3.324219 11.539062 C 3.105469 10.988281 2.847656 9.828125 2.847656 7.398438 C 2.839844 6.554688 2.890625 5.710938 3 4.871094 C 3.0625 4.34375 3.1875 3.820312 3.371094 3.316406 C 3.429688 3.152344 3.511719 2.992188 3.613281 2.851562 L 3.640625 2.832031 C 3.648438 2.824219 3.65625 2.816406 3.664062 2.8125 C 3.671875 2.8125 3.679688 2.8125 3.6875 2.8125 L 45.148438 2.8125 C 45.554688 2.796875 45.960938 2.839844 46.355469 2.933594 L 46.371094 2.9375 C 46.414062 2.949219 46.476562 2.96875 46.574219 3.125 C 46.683594 3.316406 46.839844 3.699219 46.964844 4.445312 C 47.089844 5.386719 47.148438 6.339844 47.128906 7.289062 C 47.128906 8.269531 47.09375 9.128906 47.023438 9.84375 C 46.949219 10.628906 46.859375 11.277344 46.75 11.832031 C 46.644531 12.386719 46.496094 12.929688 46.300781 13.460938 C 46.292969 13.472656 46.289062 13.484375 46.285156 13.496094 C 46.105469 14.011719 45.875 14.59375 45.570312 15.285156 L 22.644531 67.828125 C 22.539062 68.0625 22.386719 68.273438 22.195312 68.445312 C 22.074219 68.546875 21.820312 68.699219 21.300781 68.835938 C 20.632812 68.996094 19.949219 69.089844 19.257812 69.117188 C 18.417969 69.164062 17.320312 69.1875 15.808594 69.1875 C 13.898438 69.1875 12.472656 69.132812 11.449219 69.015625 C 10.175781 68.867188 9.667969 68.65625 9.511719 68.574219 C 9.5 68.566406 9.488281 68.5625 9.476562 68.554688 C 9.460938 68.550781 9.449219 68.542969 9.4375 68.535156 C 9.480469 68.316406 9.554688 68.101562 9.660156 67.902344 C 9.664062 67.890625 9.671875 67.878906 9.675781 67.867188 L 19.34375 46.742188 C 19.554688 46.285156 19.503906 45.746094 19.207031 45.335938 C 18.910156 44.925781 18.414062 44.707031 17.902344 44.757812 C 17.394531 44.808594 16.953125 45.125 16.746094 45.585938 L 7.085938 66.695312 C 6.703125 67.484375 6.535156 68.230469 6.589844 68.910156 C 6.621094 69.449219 6.878906 70.410156 8.183594 71.0625 C 8.859375 71.414062 9.820312 71.660156 11.121094 71.808594 C 12.253906 71.9375 13.789062 72 15.808594 72 C 17.398438 72 18.511719 71.976562 19.425781 71.925781 C 20.3125 71.886719 21.191406 71.761719 22.050781 71.550781 C 22.878906 71.328125 23.527344 71.015625 24.023438 70.601562 C 24.535156 70.167969 24.945312 69.628906 25.222656 69.023438 C 25.234375 69.003906 25.242188 68.988281 25.25 68.96875 L 48.1875 16.402344 C 48.515625 15.652344 48.773438 15.007812 48.972656 14.429688 C 49.222656 13.761719 49.414062 13.070312 49.546875 12.371094 C 49.671875 11.726562 49.777344 10.988281 49.859375 10.109375 C 49.9375 9.296875 49.976562 8.375 49.976562 7.289062 C 49.996094 6.1875 49.929688 5.085938 49.773438 3.996094 Z M 49.773438 3.996094 "/>
<path style=" stroke:none;fill-rule:nonzero;fill:rgb(0%,0%,0%);fill-opacity:1;" d="M 20.683594 41.800781 C 21.472656 41.800781 22.109375 41.171875 22.109375 40.394531 C 22.109375 39.617188 21.472656 38.988281 20.683594 38.988281 C 19.894531 38.988281 19.257812 39.617188 19.257812 40.394531 C 19.257812 41.171875 19.898438 41.800781 20.683594 41.800781 Z M 20.683594 41.800781 "/>
</g>
</svg>
