<?xml version="1.0" encoding="UTF-8"?>
<svg xmlns="http://www.w3.org/2000/svg" xmlns:xlink="http://www.w3.org/1999/xlink" width="50" height="71" viewBox="0 0 50 71" version="1.1">
<g id="surface1">
<path style=" stroke:none;fill-rule:evenodd;fill:rgb(79.607843%,89.803922%,34.509804%);fill-opacity:1;" d="M 48.632812 50.78125 C 48.632812 53.757812 48.105469 56.433594 47.066406 58.765625 C 46.03125 61.085938 44.4375 63.121094 42.417969 64.691406 C 40.375 66.308594 37.820312 67.527344 34.792969 68.363281 C 31.765625 69.195312 28.277344 69.613281 24.316406 69.613281 C 20.546875 69.613281 17.21875 69.25 14.367188 68.5 C 11.511719 67.753906 9.117188 66.65625 7.179688 65.214844 C 5.300781 63.820312 3.8125 61.976562 2.847656 59.859375 C 1.878906 57.738281 1.40625 55.304688 1.40625 52.554688 C 1.394531 50.765625 1.679688 48.988281 2.25 47.289062 C 2.828125 45.628906 3.683594 44.074219 4.785156 42.699219 C 5.996094 41.203125 7.398438 39.871094 8.960938 38.734375 C 10.78125 37.40625 12.707031 36.21875 14.71875 35.1875 C 13.042969 34.304688 11.453125 33.273438 9.964844 32.109375 C 8.605469 31.066406 7.390625 29.847656 6.355469 28.492188 C 5.355469 27.199219 4.585938 25.746094 4.082031 24.199219 C 3.554688 22.550781 3.292969 20.832031 3.308594 19.105469 C 3.308594 16.460938 3.78125 14.0625 4.734375 11.90625 C 5.679688 9.738281 7.125 7.820312 8.960938 6.308594 C 10.84375 4.726562 13.191406 3.507812 16.003906 2.65625 C 18.839844 1.804688 22.097656 1.386719 25.8125 1.386719 C 29.511719 1.386719 32.660156 1.769531 35.304688 2.550781 C 37.925781 3.332031 40.09375 4.445312 41.785156 5.871094 C 43.429688 7.253906 44.707031 9.007812 45.515625 10.984375 C 46.328125 12.964844 46.734375 15.175781 46.734375 17.574219 C 46.734375 19.160156 46.464844 20.734375 45.941406 22.234375 C 45.390625 23.765625 44.632812 25.214844 43.6875 26.546875 C 42.660156 27.960938 41.464844 29.253906 40.128906 30.386719 C 38.644531 31.640625 37.03125 32.742188 35.320312 33.675781 C 37.289062 34.667969 39.171875 35.824219 40.9375 37.136719 C 42.5 38.269531 43.910156 39.59375 45.128906 41.082031 C 46.234375 42.4375 47.113281 43.957031 47.738281 45.585938 C 48.347656 47.25 48.652344 49.011719 48.632812 50.785156 Z M 33.628906 18.808594 C 33.644531 17.722656 33.46875 16.640625 33.121094 15.609375 C 32.789062 14.683594 32.230469 13.855469 31.5 13.191406 C 30.707031 12.507812 29.777344 12 28.769531 11.695312 C 27.527344 11.34375 26.242188 11.171875 24.949219 11.191406 C 22.0625 11.191406 19.929688 11.855469 18.523438 13.15625 C 17.113281 14.460938 16.410156 16.253906 16.410156 18.566406 C 16.375 20.640625 17.171875 22.644531 18.628906 24.144531 C 19.367188 24.964844 20.351562 25.761719 21.550781 26.546875 C 22.75 27.328125 24.175781 28.144531 25.8125 29.03125 C 28.3125 27.570312 30.25 26.023438 31.605469 24.355469 C 32.921875 22.800781 33.640625 20.835938 33.632812 18.808594 Z M 35.214844 51.671875 C 35.261719 49.28125 34.296875 46.984375 32.558594 45.324219 C 31.523438 44.304688 30.363281 43.417969 29.105469 42.679688 C 27.554688 41.730469 25.949219 40.863281 24.296875 40.089844 C 22.84375 40.84375 21.445312 41.691406 20.105469 42.628906 C 18.992188 43.382812 17.980469 44.277344 17.09375 45.289062 C 16.332031 46.164062 15.730469 47.164062 15.316406 48.246094 C 14.910156 49.304688 14.707031 50.433594 14.71875 51.566406 C 14.71875 54.207031 15.582031 56.226562 17.324219 57.617188 C 19.066406 59.007812 21.675781 59.703125 25.125 59.703125 C 28.507812 59.703125 31.023438 58.988281 32.699219 57.5625 C 34.371094 56.140625 35.214844 54.171875 35.214844 51.671875 Z M 35.214844 51.671875 "/>
<path style=" stroke:none;fill-rule:nonzero;fill:rgb(0%,0%,0%);fill-opacity:1;" d="M 20.773438 27.703125 C 21.898438 28.4375 23.285156 29.246094 25.136719 30.25 C 25.570312 30.484375 26.101562 30.476562 26.527344 30.226562 C 29.226562 28.648438 31.25 27.011719 32.695312 25.226562 C 34.214844 23.425781 35.042969 21.152344 35.035156 18.808594 C 35.046875 17.566406 34.847656 16.332031 34.449219 15.15625 C 34.445312 15.148438 34.441406 15.136719 34.4375 15.128906 C 34.027344 13.996094 33.339844 12.976562 32.441406 12.164062 C 31.503906 11.351562 30.402344 10.742188 29.207031 10.378906 L 29.1875 10.375 C 27.8125 9.976562 26.382812 9.785156 24.949219 9.804688 C 21.722656 9.804688 19.238281 10.59375 17.5625 12.144531 C 15.863281 13.714844 15.003906 15.875 15.003906 18.566406 C 14.972656 20.988281 15.902344 23.328125 17.589844 25.082031 C 18.390625 25.960938 19.460938 26.84375 20.777344 27.703125 Z M 19.480469 14.167969 C 20.621094 13.113281 22.460938 12.578125 24.949219 12.578125 C 26.097656 12.558594 27.238281 12.707031 28.34375 13.019531 C 29.160156 13.261719 29.914062 13.671875 30.558594 14.222656 C 31.117188 14.730469 31.542969 15.367188 31.796875 16.078125 C 32.09375 16.957031 32.238281 17.882812 32.226562 18.808594 C 32.226562 20.550781 31.667969 22.078125 30.511719 23.488281 C 29.410156 24.84375 27.820312 26.167969 25.777344 27.429688 C 24.34375 26.640625 23.238281 25.984375 22.324219 25.390625 C 21.207031 24.65625 20.3125 23.929688 19.675781 23.222656 C 19.667969 23.214844 19.660156 23.207031 19.652344 23.199219 C 19.054688 22.585938 18.585938 21.859375 18.269531 21.066406 C 18.265625 21.054688 18.261719 21.046875 18.257812 21.035156 C 17.949219 20.25 17.800781 19.410156 17.8125 18.566406 C 17.8125 16.648438 18.359375 15.210938 19.480469 14.167969 Z M 19.480469 14.167969 "/>
<path style=" stroke:none;fill-rule:nonzero;fill:rgb(0%,0%,0%);fill-opacity:1;" d="M 49.054688 45.105469 C 48.378906 43.335938 47.421875 41.6875 46.226562 40.214844 C 44.929688 38.636719 43.4375 37.230469 41.785156 36.027344 C 40.613281 35.152344 39.386719 34.347656 38.117188 33.617188 C 39.144531 32.949219 40.125 32.21875 41.054688 31.429688 C 42.476562 30.222656 43.746094 28.851562 44.832031 27.34375 C 45.855469 25.910156 46.671875 24.347656 47.261719 22.699219 C 47.265625 22.695312 47.265625 22.691406 47.269531 22.683594 C 47.84375 21.039062 48.136719 19.3125 48.136719 17.574219 C 48.136719 14.996094 47.695312 12.605469 46.820312 10.464844 C 45.925781 8.28125 44.511719 6.347656 42.695312 4.816406 C 40.855469 3.265625 38.507812 2.058594 35.707031 1.222656 C 32.925781 0.398438 29.691406 0 25.8125 0 C 21.914062 0 18.570312 0.433594 15.59375 1.332031 C 12.613281 2.230469 10.074219 3.550781 8.050781 5.25 C 6.054688 6.902344 4.476562 8.992188 3.445312 11.351562 C 2.421875 13.675781 1.902344 16.28125 1.902344 19.105469 C 1.890625 20.976562 2.175781 22.839844 2.742188 24.625 C 3.296875 26.316406 4.136719 27.90625 5.230469 29.324219 C 6.339844 30.773438 7.636719 32.074219 9.085938 33.191406 C 9.980469 33.898438 10.917969 34.554688 11.886719 35.160156 C 10.585938 35.914062 9.324219 36.738281 8.113281 37.625 C 6.457031 38.835938 4.96875 40.25 3.683594 41.839844 C 2.484375 43.34375 1.550781 45.035156 0.917969 46.847656 C 0.300781 48.6875 -0.0117188 50.617188 0 52.554688 C 0 55.5 0.527344 58.148438 1.566406 60.429688 C 2.628906 62.757812 4.269531 64.785156 6.335938 66.320312 C 8.410156 67.867188 10.988281 69.050781 14.003906 69.839844 C 16.941406 70.609375 20.410156 71 24.316406 71 C 28.378906 71 32.03125 70.5625 35.171875 69.695312 C 38.398438 68.808594 41.132812 67.488281 43.289062 65.777344 C 45.484375 64.066406 47.222656 61.847656 48.351562 59.320312 C 49.472656 56.8125 50.039062 53.941406 50.039062 50.78125 C 50.054688 48.847656 49.71875 46.921875 49.054688 45.101562 Z M 45.785156 58.199219 C 44.835938 60.320312 43.378906 62.175781 41.539062 63.609375 C 39.671875 65.089844 37.277344 66.238281 34.414062 67.027344 C 31.523438 67.824219 28.125 68.226562 24.316406 68.226562 C 20.652344 68.226562 17.425781 67.867188 14.726562 67.160156 C 12.0625 66.460938 9.808594 65.433594 8.03125 64.109375 C 6.339844 62.851562 5 61.195312 4.128906 59.289062 C 3.253906 57.371094 2.808594 55.105469 2.808594 52.554688 C 2.796875 50.921875 3.058594 49.296875 3.578125 47.742188 C 4.101562 46.226562 4.886719 44.808594 5.894531 43.550781 C 7.027344 42.152344 8.339844 40.90625 9.800781 39.84375 C 11.566406 38.5625 13.429688 37.414062 15.375 36.414062 C 15.832031 36.175781 16.121094 35.703125 16.121094 35.191406 C 16.125 34.679688 15.839844 34.210938 15.382812 33.96875 C 13.78125 33.121094 12.257812 32.132812 10.832031 31.019531 C 9.566406 30.050781 8.4375 28.917969 7.46875 27.652344 C 6.566406 26.488281 5.871094 25.171875 5.417969 23.773438 C 4.9375 22.261719 4.699219 20.6875 4.710938 19.105469 C 4.710938 16.664062 5.152344 14.429688 6.023438 12.449219 C 6.886719 10.480469 8.203125 8.738281 9.871094 7.363281 C 11.601562 5.910156 13.804688 4.769531 16.414062 3.984375 C 19.082031 3.179688 22.246094 2.773438 25.8125 2.773438 C 29.363281 2.773438 32.421875 3.144531 34.898438 3.878906 C 37.320312 4.601562 39.332031 5.625 40.867188 6.921875 C 42.339844 8.160156 43.488281 9.734375 44.214844 11.503906 C 44.953125 13.308594 45.328125 15.351562 45.328125 17.574219 C 45.332031 19.003906 45.089844 20.425781 44.613281 21.773438 C 44.109375 23.183594 43.410156 24.523438 42.539062 25.746094 C 41.578125 27.070312 40.460938 28.277344 39.210938 29.339844 C 37.796875 30.527344 36.265625 31.574219 34.636719 32.464844 C 34.1875 32.710938 33.910156 33.183594 33.917969 33.695312 C 33.925781 34.203125 34.214844 34.667969 34.671875 34.90625 C 36.570312 35.863281 38.382812 36.976562 40.085938 38.238281 C 40.089844 38.238281 40.097656 38.242188 40.101562 38.246094 C 41.5625 39.308594 42.882812 40.550781 44.027344 41.941406 C 45.039062 43.183594 45.847656 44.574219 46.421875 46.066406 C 46.976562 47.578125 47.25 49.175781 47.230469 50.785156 C 47.230469 53.554688 46.742188 56.050781 45.785156 58.199219 Z M 45.785156 58.199219 "/>
<path style=" stroke:none;fill-rule:nonzero;fill:rgb(0%,0%,0%);fill-opacity:1;" d="M 33.558594 44.351562 C 32.445312 43.253906 31.195312 42.296875 29.84375 41.5 C 28.25 40.523438 26.601562 39.636719 24.90625 38.839844 C 24.503906 38.648438 24.03125 38.660156 23.636719 38.867188 C 22.132812 39.648438 20.679688 40.527344 19.292969 41.496094 C 18.078125 42.320312 16.976562 43.296875 16.015625 44.402344 C 15.152344 45.394531 14.472656 46.53125 14.003906 47.753906 C 13.535156 48.972656 13.300781 50.261719 13.3125 51.566406 C 13.3125 54.640625 14.367188 57.039062 16.441406 58.695312 C 17.015625 59.148438 17.644531 59.53125 18.3125 59.835938 C 19.011719 60.164062 19.847656 59.863281 20.179688 59.171875 C 20.507812 58.476562 20.203125 57.652344 19.503906 57.328125 C 19.039062 57.117188 18.605469 56.851562 18.207031 56.539062 C 16.804688 55.417969 16.121094 53.792969 16.121094 51.566406 C 16.109375 50.605469 16.28125 49.648438 16.625 48.75 C 16.628906 48.738281 16.632812 48.730469 16.636719 48.722656 C 16.992188 47.796875 17.511719 46.9375 18.167969 46.1875 C 18.972656 45.265625 19.894531 44.453125 20.910156 43.765625 C 20.914062 43.761719 20.921875 43.757812 20.929688 43.753906 C 22.019531 42.988281 23.15625 42.285156 24.332031 41.648438 C 25.8125 42.375 27.164062 43.117188 28.355469 43.855469 C 28.363281 43.859375 28.367188 43.863281 28.375 43.867188 C 29.535156 44.546875 30.605469 45.363281 31.5625 46.304688 C 32.292969 47 32.867188 47.835938 33.261719 48.757812 C 33.261719 48.769531 33.265625 48.777344 33.269531 48.785156 C 33.644531 49.703125 33.828125 50.683594 33.8125 51.667969 C 33.8125 53.765625 33.148438 55.347656 31.78125 56.515625 C 31.441406 56.800781 31.066406 57.046875 30.671875 57.25 C 29.984375 57.605469 29.71875 58.445312 30.078125 59.121094 C 30.4375 59.800781 31.289062 60.0625 31.972656 59.707031 C 32.5625 59.40625 33.113281 59.039062 33.613281 58.613281 C 35.609375 56.914062 36.621094 54.578125 36.621094 51.667969 C 36.664062 48.917969 35.558594 46.269531 33.558594 44.351562 Z M 33.558594 44.351562 "/>
<path style=" stroke:none;fill-rule:nonzero;fill:rgb(0%,0%,0%);fill-opacity:1;" d="M 25.125 58.316406 C 24.347656 58.316406 23.71875 58.9375 23.71875 59.703125 C 23.71875 60.46875 24.347656 61.089844 25.125 61.089844 C 25.898438 61.089844 26.527344 60.46875 26.527344 59.703125 C 26.527344 58.9375 25.902344 58.316406 25.125 58.316406 Z M 25.125 58.316406 "/>
<path style=" stroke:none;fill-rule:evenodd;fill:rgb(79.607843%,89.803922%,34.509804%);fill-opacity:1;" d="M 48.632812 50.78125 C 48.632812 53.757812 48.105469 56.433594 47.066406 58.765625 C 46.03125 61.085938 44.4375 63.121094 42.417969 64.691406 C 40.375 66.308594 37.820312 67.527344 34.792969 68.363281 C 31.765625 69.195312 28.277344 69.613281 24.316406 69.613281 C 20.546875 69.613281 17.21875 69.25 14.367188 68.5 C 11.511719 67.753906 9.117188 66.65625 7.179688 65.214844 C 5.300781 63.820312 3.8125 61.976562 2.847656 59.859375 C 1.878906 57.738281 1.40625 55.304688 1.40625 52.554688 C 1.394531 50.765625 1.679688 48.988281 2.25 47.289062 C 2.828125 45.628906 3.683594 44.074219 4.785156 42.699219 C 5.996094 41.203125 7.398438 39.871094 8.960938 38.734375 C 10.78125 37.40625 12.707031 36.21875 14.71875 35.1875 C 13.042969 34.304688 11.453125 33.273438 9.964844 32.109375 C 8.605469 31.066406 7.390625 29.847656 6.355469 28.492188 C 5.355469 27.199219 4.585938 25.746094 4.082031 24.199219 C 3.554688 22.550781 3.292969 20.832031 3.308594 19.105469 C 3.308594 16.460938 3.78125 14.0625 4.734375 11.90625 C 5.679688 9.738281 7.125 7.820312 8.960938 6.308594 C 10.84375 4.726562 13.191406 3.507812 16.003906 2.65625 C 18.839844 1.804688 22.097656 1.386719 25.8125 1.386719 C 29.511719 1.386719 32.660156 1.769531 35.304688 2.550781 C 37.925781 3.332031 40.09375 4.445312 41.785156 5.871094 C 43.429688 7.253906 44.707031 9.007812 45.515625 10.984375 C 46.328125 12.964844 46.734375 15.175781 46.734375 17.574219 C 46.734375 19.160156 46.464844 20.734375 45.941406 22.234375 C 45.390625 23.765625 44.632812 25.214844 43.6875 26.546875 C 42.660156 27.960938 41.464844 29.253906 40.128906 30.386719 C 38.644531 31.640625 37.03125 32.742188 35.320312 33.675781 C 37.289062 34.667969 39.171875 35.824219 40.9375 37.136719 C 42.5 38.269531 43.910156 39.59375 45.128906 41.082031 C 46.234375 42.4375 47.113281 43.957031 47.738281 45.585938 C 48.347656 47.25 48.652344 49.011719 48.632812 50.785156 Z M 33.628906 18.808594 C 33.644531 17.722656 33.46875 16.640625 33.121094 15.609375 C 32.789062 14.683594 32.230469 13.855469 31.5 13.191406 C 30.707031 12.507812 29.777344 12 28.769531 11.695312 C 27.527344 11.34375 26.242188 11.171875 24.949219 11.191406 C 22.0625 11.191406 19.929688 11.855469 18.523438 13.15625 C 17.113281 14.460938 16.410156 16.253906 16.410156 18.566406 C 16.375 20.640625 17.171875 22.644531 18.628906 24.144531 C 19.367188 24.964844 20.351562 25.761719 21.550781 26.546875 C 22.75 27.328125 24.175781 28.144531 25.8125 29.03125 C 28.3125 27.570312 30.25 26.023438 31.605469 24.355469 C 32.921875 22.800781 33.640625 20.835938 33.632812 18.808594 Z M 35.214844 51.671875 C 35.261719 49.28125 34.296875 46.984375 32.558594 45.324219 C 31.523438 44.304688 30.363281 43.417969 29.105469 42.679688 C 27.554688 41.730469 25.949219 40.863281 24.296875 40.089844 C 22.84375 40.84375 21.445312 41.691406 20.105469 42.628906 C 18.992188 43.382812 17.980469 44.277344 17.09375 45.289062 C 16.332031 46.164062 15.730469 47.164062 15.316406 48.246094 C 14.910156 49.304688 14.707031 50.433594 14.71875 51.566406 C 14.71875 54.207031 15.582031 56.226562 17.324219 57.617188 C 19.066406 59.007812 21.675781 59.703125 25.125 59.703125 C 28.507812 59.703125 31.023438 58.988281 32.699219 57.5625 C 34.371094 56.140625 35.214844 54.171875 35.214844 51.671875 Z M 35.214844 51.671875 "/>
<path style=" stroke:none;fill-rule:nonzero;fill:rgb(0%,0%,0%);fill-opacity:1;" d="M 20.773438 27.703125 C 21.898438 28.4375 23.285156 29.246094 25.136719 30.25 C 25.570312 30.484375 26.101562 30.476562 26.527344 30.226562 C 29.226562 28.648438 31.25 27.011719 32.695312 25.226562 C 34.214844 23.425781 35.042969 21.152344 35.035156 18.808594 C 35.046875 17.566406 34.847656 16.332031 34.449219 15.15625 C 34.445312 15.148438 34.441406 15.136719 34.4375 15.128906 C 34.027344 13.996094 33.339844 12.976562 32.441406 12.164062 C 31.503906 11.351562 30.402344 10.742188 29.207031 10.378906 L 29.1875 10.375 C 27.8125 9.976562 26.382812 9.785156 24.949219 9.804688 C 21.722656 9.804688 19.238281 10.59375 17.5625 12.144531 C 15.863281 13.714844 15.003906 15.875 15.003906 18.566406 C 14.972656 20.988281 15.902344 23.328125 17.589844 25.082031 C 18.390625 25.960938 19.460938 26.84375 20.777344 27.703125 Z M 19.480469 14.167969 C 20.621094 13.113281 22.460938 12.578125 24.949219 12.578125 C 26.097656 12.558594 27.238281 12.707031 28.34375 13.019531 C 29.160156 13.261719 29.914062 13.671875 30.558594 14.222656 C 31.117188 14.730469 31.542969 15.367188 31.796875 16.078125 C 32.09375 16.957031 32.238281 17.882812 32.226562 18.808594 C 32.226562 20.550781 31.667969 22.078125 30.511719 23.488281 C 29.410156 24.84375 27.820312 26.167969 25.777344 27.429688 C 24.34375 26.640625 23.238281 25.984375 22.324219 25.390625 C 21.207031 24.65625 20.3125 23.929688 19.675781 23.222656 C 19.667969 23.214844 19.660156 23.207031 19.652344 23.199219 C 19.054688 22.585938 18.585938 21.859375 18.269531 21.066406 C 18.265625 21.054688 18.261719 21.046875 18.257812 21.035156 C 17.949219 20.25 17.800781 19.410156 17.8125 18.566406 C 17.8125 16.648438 18.359375 15.210938 19.480469 14.167969 Z M 19.480469 14.167969 "/>
<path style=" stroke:none;fill-rule:nonzero;fill:rgb(0%,0%,0%);fill-opacity:1;" d="M 49.054688 45.105469 C 48.378906 43.335938 47.421875 41.6875 46.226562 40.214844 C 44.929688 38.636719 43.4375 37.230469 41.785156 36.027344 C 40.613281 35.152344 39.386719 34.347656 38.117188 33.617188 C 39.144531 32.949219 40.125 32.21875 41.054688 31.429688 C 42.476562 30.222656 43.746094 28.851562 44.832031 27.34375 C 45.855469 25.910156 46.671875 24.347656 47.261719 22.699219 C 47.265625 22.695312 47.265625 22.691406 47.269531 22.683594 C 47.84375 21.039062 48.136719 19.3125 48.136719 17.574219 C 48.136719 14.996094 47.695312 12.605469 46.820312 10.464844 C 45.925781 8.28125 44.511719 6.347656 42.695312 4.816406 C 40.855469 3.265625 38.507812 2.058594 35.707031 1.222656 C 32.925781 0.398438 29.691406 0 25.8125 0 C 21.914062 0 18.570312 0.433594 15.59375 1.332031 C 12.613281 2.230469 10.074219 3.550781 8.050781 5.25 C 6.054688 6.902344 4.476562 8.992188 3.445312 11.351562 C 2.421875 13.675781 1.902344 16.28125 1.902344 19.105469 C 1.890625 20.976562 2.175781 22.839844 2.742188 24.625 C 3.296875 26.316406 4.136719 27.90625 5.230469 29.324219 C 6.339844 30.773438 7.636719 32.074219 9.085938 33.191406 C 9.980469 33.898438 10.917969 34.554688 11.886719 35.160156 C 10.585938 35.914062 9.324219 36.738281 8.113281 37.625 C 6.457031 38.835938 4.96875 40.25 3.683594 41.839844 C 2.484375 43.34375 1.550781 45.035156 0.917969 46.847656 C 0.300781 48.6875 -0.0117188 50.617188 0 52.554688 C 0 55.5 0.527344 58.148438 1.566406 60.429688 C 2.628906 62.757812 4.269531 64.785156 6.335938 66.320312 C 8.410156 67.867188 10.988281 69.050781 14.003906 69.839844 C 16.941406 70.609375 20.410156 71 24.316406 71 C 28.378906 71 32.03125 70.5625 35.171875 69.695312 C 38.398438 68.808594 41.132812 67.488281 43.289062 65.777344 C 45.484375 64.066406 47.222656 61.847656 48.351562 59.320312 C 49.472656 56.8125 50.039062 53.941406 50.039062 50.78125 C 50.054688 48.847656 49.71875 46.921875 49.054688 45.101562 Z M 45.785156 58.199219 C 44.835938 60.320312 43.378906 62.175781 41.539062 63.609375 C 39.671875 65.089844 37.277344 66.238281 34.414062 67.027344 C 31.523438 67.824219 28.125 68.226562 24.316406 68.226562 C 20.652344 68.226562 17.425781 67.867188 14.726562 67.160156 C 12.0625 66.460938 9.808594 65.433594 8.03125 64.109375 C 6.339844 62.851562 5 61.195312 4.128906 59.289062 C 3.253906 57.371094 2.808594 55.105469 2.808594 52.554688 C 2.796875 50.921875 3.058594 49.296875 3.578125 47.742188 C 4.101562 46.226562 4.886719 44.808594 5.894531 43.550781 C 7.027344 42.152344 8.339844 40.90625 9.800781 39.84375 C 11.566406 38.5625 13.429688 37.414062 15.375 36.414062 C 15.832031 36.175781 16.121094 35.703125 16.121094 35.191406 C 16.125 34.679688 15.839844 34.210938 15.382812 33.96875 C 13.78125 33.121094 12.257812 32.132812 10.832031 31.019531 C 9.566406 30.050781 8.4375 28.917969 7.46875 27.652344 C 6.566406 26.488281 5.871094 25.171875 5.417969 23.773438 C 4.9375 22.261719 4.699219 20.6875 4.710938 19.105469 C 4.710938 16.664062 5.152344 14.429688 6.023438 12.449219 C 6.886719 10.480469 8.203125 8.738281 9.871094 7.363281 C 11.601562 5.910156 13.804688 4.769531 16.414062 3.984375 C 19.082031 3.179688 22.246094 2.773438 25.8125 2.773438 C 29.363281 2.773438 32.421875 3.144531 34.898438 3.878906 C 37.320312 4.601562 39.332031 5.625 40.867188 6.921875 C 42.339844 8.160156 43.488281 9.734375 44.214844 11.503906 C 44.953125 13.308594 45.328125 15.351562 45.328125 17.574219 C 45.332031 19.003906 45.089844 20.425781 44.613281 21.773438 C 44.109375 23.183594 43.410156 24.523438 42.539062 25.746094 C 41.578125 27.070312 40.460938 28.277344 39.210938 29.339844 C 37.796875 30.527344 36.265625 31.574219 34.636719 32.464844 C 34.1875 32.710938 33.910156 33.183594 33.917969 33.695312 C 33.925781 34.203125 34.214844 34.667969 34.671875 34.90625 C 36.570312 35.863281 38.382812 36.976562 40.085938 38.238281 C 40.089844 38.238281 40.097656 38.242188 40.101562 38.246094 C 41.5625 39.308594 42.882812 40.550781 44.027344 41.941406 C 45.039062 43.183594 45.847656 44.574219 46.421875 46.066406 C 46.976562 47.578125 47.25 49.175781 47.230469 50.785156 C 47.230469 53.554688 46.742188 56.050781 45.785156 58.199219 Z M 45.785156 58.199219 "/>
<path style=" stroke:none;fill-rule:nonzero;fill:rgb(0%,0%,0%);fill-opacity:1;" d="M 33.558594 44.351562 C 32.445312 43.253906 31.195312 42.296875 29.84375 41.5 C 28.25 40.523438 26.601562 39.636719 24.90625 38.839844 C 24.503906 38.648438 24.03125 38.660156 23.636719 38.867188 C 22.132812 39.648438 20.679688 40.527344 19.292969 41.496094 C 18.078125 42.320312 16.976562 43.296875 16.015625 44.402344 C 15.152344 45.394531 14.472656 46.53125 14.003906 47.753906 C 13.535156 48.972656 13.300781 50.261719 13.3125 51.566406 C 13.3125 54.640625 14.367188 57.039062 16.441406 58.695312 C 17.015625 59.148438 17.644531 59.53125 18.3125 59.835938 C 19.011719 60.164062 19.847656 59.863281 20.179688 59.171875 C 20.507812 58.476562 20.203125 57.652344 19.503906 57.328125 C 19.039062 57.117188 18.605469 56.851562 18.207031 56.539062 C 16.804688 55.417969 16.121094 53.792969 16.121094 51.566406 C 16.109375 50.605469 16.28125 49.648438 16.625 48.75 C 16.628906 48.738281 16.632812 48.730469 16.636719 48.722656 C 16.992188 47.796875 17.511719 46.9375 18.167969 46.1875 C 18.972656 45.265625 19.894531 44.453125 20.910156 43.765625 C 20.914062 43.761719 20.921875 43.757812 20.929688 43.753906 C 22.019531 42.988281 23.15625 42.285156 24.332031 41.648438 C 25.8125 42.375 27.164062 43.117188 28.355469 43.855469 C 28.363281 43.859375 28.367188 43.863281 28.375 43.867188 C 29.535156 44.546875 30.605469 45.363281 31.5625 46.304688 C 32.292969 47 32.867188 47.835938 33.261719 48.757812 C 33.261719 48.769531 33.265625 48.777344 33.269531 48.785156 C 33.644531 49.703125 33.828125 50.683594 33.8125 51.667969 C 33.8125 53.765625 33.148438 55.347656 31.78125 56.515625 C 31.441406 56.800781 31.066406 57.046875 30.671875 57.25 C 29.984375 57.605469 29.71875 58.445312 30.078125 59.121094 C 30.4375 59.800781 31.289062 60.0625 31.972656 59.707031 C 32.5625 59.40625 33.113281 59.039062 33.613281 58.613281 C 35.609375 56.914062 36.621094 54.578125 36.621094 51.667969 C 36.664062 48.917969 35.558594 46.269531 33.558594 44.351562 Z M 33.558594 44.351562 "/>
<path style=" stroke:none;fill-rule:nonzero;fill:rgb(0%,0%,0%);fill-opacity:1;" d="M 25.125 58.316406 C 24.347656 58.316406 23.71875 58.9375 23.71875 59.703125 C 23.71875 60.46875 24.347656 61.089844 25.125 61.089844 C 25.898438 61.089844 26.527344 60.46875 26.527344 59.703125 C 26.527344 58.9375 25.902344 58.316406 25.125 58.316406 Z M 25.125 58.316406 "/>
</g>
</svg>
