<?xml version="1.0" encoding="UTF-8"?>
<svg xmlns="http://www.w3.org/2000/svg" xmlns:xlink="http://www.w3.org/1999/xlink" width="50" height="73" viewBox="0 0 50 73" version="1.1">
<g id="surface1">
<path style=" stroke:none;fill-rule:evenodd;fill:rgb(100%,35.294118%,34.509804%);fill-opacity:1;" d="M 48.5625 33.40625 C 48.5625 36.160156 48.417969 39.019531 48.148438 41.96875 C 47.863281 44.902344 47.320312 47.804688 46.527344 50.640625 C 45.75 53.441406 44.648438 56.148438 43.25 58.703125 C 41.875 61.230469 40.046875 63.488281 37.863281 65.371094 C 35.664062 67.265625 32.980469 68.785156 29.828125 69.894531 C 26.675781 71.019531 22.964844 71.574219 18.660156 71.574219 C 17.144531 71.574219 15.632812 71.464844 14.136719 71.253906 C 12.761719 71.070312 11.394531 70.816406 10.046875 70.484375 C 8.984375 70.210938 7.9375 69.875 6.914062 69.484375 C 6.046875 69.125 5.417969 68.765625 5.039062 68.410156 C 4.605469 67.976562 4.308594 67.421875 4.191406 66.820312 C 4.011719 66.121094 3.921875 65.136719 3.921875 63.886719 C 3.921875 62.726562 3.941406 61.8125 3.996094 61.117188 C 4.015625 60.5625 4.125 60.011719 4.320312 59.488281 C 4.480469 59.097656 4.679688 58.847656 4.894531 58.71875 C 5.15625 58.601562 5.4375 58.539062 5.722656 58.542969 C 6.136719 58.542969 6.75 58.667969 7.527344 58.917969 C 8.300781 59.148438 9.238281 59.4375 10.355469 59.757812 C 11.601562 60.09375 12.863281 60.371094 14.136719 60.578125 C 15.695312 60.84375 17.277344 60.96875 18.855469 60.957031 C 21.8125 60.957031 24.316406 60.4375 26.367188 59.382812 C 28.347656 58.378906 30.050781 56.921875 31.339844 55.128906 C 32.621094 53.339844 33.539062 51.265625 34.152344 48.925781 C 34.761719 46.5 35.097656 44.019531 35.160156 41.523438 C 33.539062 42.542969 31.574219 43.417969 29.289062 44.167969 C 27 44.917969 24.371094 45.296875 21.414062 45.296875 C 17.777344 45.296875 14.695312 44.832031 12.171875 43.882812 C 9.632812 42.9375 7.5625 41.578125 5.976562 39.808594 C 4.390625 38.019531 3.238281 35.875 2.515625 33.320312 C 1.796875 30.78125 1.4375 27.902344 1.4375 24.703125 C 1.4375 21.304688 1.945312 18.1875 2.96875 15.351562 C 3.941406 12.605469 5.488281 10.097656 7.507812 7.988281 C 9.507812 5.914062 12.003906 4.304688 15 3.160156 C 17.992188 1.996094 21.457031 1.417969 25.394531 1.425781 C 28.566406 1.425781 31.339844 1.785156 33.699219 2.515625 C 36.078125 3.25 38.113281 4.304688 39.824219 5.664062 C 41.546875 7.035156 42.992188 8.714844 44.09375 10.613281 C 45.289062 12.640625 46.195312 14.816406 46.796875 17.085938 C 47.472656 19.605469 47.929688 22.175781 48.167969 24.773438 C 48.4375 27.527344 48.5625 30.402344 48.5625 33.40625 Z M 34.835938 31.457031 C 34.835938 27.742188 34.621094 24.628906 34.207031 22.144531 C 33.773438 19.640625 33.140625 17.640625 32.296875 16.15625 C 31.449219 14.675781 30.386719 13.601562 29.125 12.976562 C 27.863281 12.347656 26.367188 12.046875 24.675781 12.046875 C 23.019531 12.046875 21.59375 12.332031 20.40625 12.902344 C 19.226562 13.453125 18.199219 14.285156 17.414062 15.316406 C 16.589844 16.425781 15.988281 17.683594 15.632812 19.015625 C 15.238281 20.546875 15.042969 22.121094 15.054688 23.699219 C 15.054688 25.542969 15.21875 27.167969 15.558594 28.5625 C 15.882812 29.972656 16.425781 31.136719 17.144531 32.046875 C 17.875 32.984375 18.855469 33.695312 19.972656 34.105469 C 21.144531 34.550781 22.550781 34.785156 24.207031 34.785156 C 26.171875 34.796875 28.125 34.488281 29.992188 33.871094 C 31.71875 33.3125 33.351562 32.5 34.835938 31.460938 Z M 34.835938 31.457031 "/>
<path style=" stroke:none;fill-rule:nonzero;fill:rgb(0%,0%,0%);fill-opacity:1;" d="M 33.546875 15.453125 C 32.554688 13.714844 31.28125 12.449219 29.765625 11.699219 C 28.324219 10.980469 26.609375 10.617188 24.675781 10.617188 C 22.808594 10.617188 21.160156 10.957031 19.785156 11.617188 C 18.398438 12.269531 17.1875 13.246094 16.261719 14.464844 C 15.332031 15.714844 14.648438 17.132812 14.246094 18.636719 C 14.246094 18.644531 14.242188 18.648438 14.242188 18.65625 C 13.949219 19.769531 13.761719 20.90625 13.679688 22.054688 C 13.621094 22.839844 14.214844 23.527344 15.003906 23.585938 C 15.796875 23.644531 16.484375 23.054688 16.546875 22.269531 C 16.613281 21.296875 16.773438 20.332031 17.019531 19.386719 C 17.324219 18.230469 17.847656 17.140625 18.558594 16.179688 C 19.207031 15.324219 20.054688 14.640625 21.03125 14.183594 C 22.019531 13.710938 23.246094 13.46875 24.675781 13.46875 C 26.160156 13.46875 27.441406 13.730469 28.480469 14.25 C 29.476562 14.742188 30.339844 15.621094 31.046875 16.859375 C 31.796875 18.175781 32.382812 20.035156 32.789062 22.378906 C 33.164062 24.636719 33.367188 27.4375 33.394531 30.707031 C 32.1875 31.46875 30.886719 32.078125 29.527344 32.523438 C 27.8125 33.089844 26.015625 33.371094 24.207031 33.359375 C 22.757812 33.359375 21.507812 33.160156 20.488281 32.773438 C 20.300781 32.703125 20.117188 32.621094 19.941406 32.53125 C 19.230469 32.175781 18.367188 32.457031 18.007812 33.15625 C 17.648438 33.859375 17.933594 34.71875 18.640625 35.074219 C 18.90625 35.207031 19.179688 35.328125 19.457031 35.433594 C 20.804688 35.945312 22.402344 36.207031 24.207031 36.207031 C 26.328125 36.222656 28.4375 35.886719 30.449219 35.222656 C 32.3125 34.617188 34.074219 33.738281 35.675781 32.617188 C 36.050781 32.347656 36.273438 31.917969 36.273438 31.457031 C 36.273438 27.707031 36.054688 24.496094 35.621094 21.902344 C 35.152344 19.1875 34.472656 17.078125 33.546875 15.453125 Z M 33.546875 15.453125 "/>
<path style=" stroke:none;fill-rule:nonzero;fill:rgb(0%,0%,0%);fill-opacity:1;" d="M 49.597656 24.632812 C 49.351562 21.960938 48.878906 19.308594 48.183594 16.714844 C 47.550781 14.324219 46.59375 12.03125 45.335938 9.894531 C 44.144531 7.847656 42.582031 6.035156 40.722656 4.550781 C 38.863281 3.074219 36.644531 1.929688 34.128906 1.15625 C 31.660156 0.390625 28.722656 0 25.394531 0 C 21.28125 0 17.605469 0.617188 14.484375 1.828125 C 11.300781 3.046875 8.605469 4.789062 6.46875 7 C 4.3125 9.257812 2.660156 11.9375 1.617188 14.871094 C 0.542969 17.835938 0 21.144531 0 24.703125 C 0 28.023438 0.382812 31.050781 1.132812 33.703125 C 1.902344 36.429688 3.167969 38.800781 4.902344 40.753906 C 6.632812 42.6875 8.910156 44.1875 11.664062 45.21875 C 14.324219 46.214844 17.601562 46.722656 21.414062 46.722656 C 24.515625 46.722656 27.316406 46.320312 29.738281 45.523438 C 31.042969 45.101562 32.320312 44.597656 33.558594 44.019531 C 33.40625 45.550781 33.136719 47.070312 32.761719 48.566406 C 32.175781 50.808594 31.328125 52.6875 30.171875 54.304688 C 29.015625 55.914062 27.484375 57.222656 25.710938 58.117188 C 23.882812 59.054688 21.578125 59.53125 18.859375 59.53125 C 17.359375 59.542969 15.867188 59.425781 14.390625 59.179688 C 14.386719 59.175781 14.378906 59.175781 14.375 59.175781 C 13.152344 58.972656 11.941406 58.710938 10.746094 58.386719 C 9.871094 58.132812 9.113281 57.90625 8.441406 57.703125 L 7.957031 57.558594 C 7.035156 57.261719 6.304688 57.117188 5.726562 57.117188 C 5.230469 57.117188 4.742188 57.222656 4.292969 57.425781 C 4.253906 57.445312 4.210938 57.46875 4.171875 57.492188 C 3.667969 57.78125 3.273438 58.269531 2.996094 58.941406 C 2.773438 59.460938 2.628906 60.136719 2.5625 61.007812 C 2.511719 61.6875 2.488281 62.578125 2.488281 63.886719 C 2.488281 65.269531 2.589844 66.339844 2.796875 67.15625 C 2.980469 68.023438 3.414062 68.820312 4.050781 69.445312 C 4.558594 69.921875 5.3125 70.367188 6.363281 70.800781 C 6.371094 70.800781 6.378906 70.804688 6.386719 70.808594 C 7.460938 71.222656 8.5625 71.574219 9.679688 71.863281 L 9.707031 71.867188 C 11.101562 72.210938 12.515625 72.476562 13.941406 72.664062 C 15.503906 72.890625 17.082031 73 18.660156 73 C 23.179688 73 26.992188 72.421875 30.308594 71.238281 C 33.601562 70.078125 36.460938 68.46875 38.804688 66.445312 C 41.121094 64.453125 43.050781 62.0625 44.511719 59.386719 C 45.960938 56.734375 47.101562 53.929688 47.910156 51.023438 C 48.730469 48.101562 49.285156 45.117188 49.578125 42.097656 C 49.859375 39.054688 50 36.128906 50 33.40625 C 50 30.3125 49.863281 27.359375 49.597656 24.632812 Z M 46.71875 41.832031 C 46.441406 44.679688 45.914062 47.5 45.144531 50.257812 C 44.390625 52.957031 43.332031 55.5625 41.984375 58.023438 C 40.691406 60.398438 38.976562 62.523438 36.921875 64.292969 C 34.851562 66.078125 32.300781 67.511719 29.339844 68.550781 C 26.375 69.613281 22.78125 70.148438 18.660156 70.148438 C 17.214844 70.148438 15.769531 70.046875 14.339844 69.839844 L 14.324219 69.839844 C 13.007812 69.664062 11.695312 69.421875 10.402344 69.101562 C 9.402344 68.847656 8.417969 68.53125 7.453125 68.160156 C 6.535156 67.78125 6.167969 67.507812 6.03125 67.378906 C 5.800781 67.132812 5.648438 66.828125 5.59375 66.5 C 5.589844 66.488281 5.585938 66.476562 5.585938 66.464844 C 5.480469 66.066406 5.359375 65.296875 5.359375 63.886719 C 5.359375 62.652344 5.378906 61.832031 5.425781 61.226562 C 5.484375 60.472656 5.59375 60.15625 5.640625 60.050781 C 5.644531 60.042969 5.644531 60.039062 5.648438 60.03125 C 5.660156 60.007812 5.667969 59.988281 5.675781 59.96875 C 5.691406 59.96875 5.707031 59.96875 5.722656 59.96875 C 5.820312 59.96875 6.203125 59.988281 7.082031 60.273438 C 7.089844 60.277344 7.101562 60.28125 7.109375 60.28125 L 7.605469 60.433594 C 8.285156 60.636719 9.058594 60.867188 9.953125 61.128906 L 9.972656 61.132812 C 11.265625 61.484375 12.574219 61.765625 13.890625 61.984375 C 15.53125 62.261719 17.195312 62.394531 18.855469 62.382812 C 22.042969 62.382812 24.792969 61.796875 27.035156 60.644531 C 29.210938 59.539062 31.089844 57.929688 32.511719 55.953125 C 33.855469 54.074219 34.875 51.832031 35.542969 49.273438 C 36.175781 46.75 36.53125 44.164062 36.597656 41.5625 C 36.609375 41.035156 36.332031 40.542969 35.871094 40.285156 C 35.410156 40.023438 34.839844 40.039062 34.390625 40.320312 C 32.902344 41.253906 31.035156 42.09375 28.835938 42.816406 C 26.703125 43.515625 24.207031 43.871094 21.414062 43.871094 C 17.953125 43.871094 15.011719 43.425781 12.679688 42.550781 C 10.363281 41.683594 8.46875 40.445312 7.054688 38.867188 C 5.59375 37.21875 4.5625 35.277344 3.902344 32.933594 C 3.21875 30.53125 2.875 27.761719 2.875 24.703125 C 2.875 21.476562 3.359375 18.492188 4.320312 15.835938 C 5.226562 13.28125 6.667969 10.941406 8.546875 8.972656 C 10.386719 7.066406 12.730469 5.558594 15.527344 4.488281 C 18.320312 3.402344 21.640625 2.851562 25.394531 2.851562 C 28.429688 2.851562 31.082031 3.195312 33.273438 3.878906 C 35.449219 4.546875 37.351562 5.523438 38.929688 6.777344 C 40.511719 8.042969 41.84375 9.59375 42.859375 11.339844 C 43.984375 13.257812 44.84375 15.316406 45.410156 17.460938 C 46.0625 19.902344 46.507812 22.394531 46.738281 24.910156 C 46.996094 27.546875 47.125 30.402344 47.125 33.40625 C 47.125 36.046875 46.988281 38.882812 46.71875 41.832031 Z M 46.71875 41.832031 "/>
<path style=" stroke:none;fill-rule:nonzero;fill:rgb(0%,0%,0%);fill-opacity:1;" d="M 15.558594 27.136719 C 14.765625 27.136719 14.121094 27.777344 14.125 28.5625 C 14.125 29.351562 14.765625 29.988281 15.558594 29.988281 C 16.351562 29.988281 16.996094 29.351562 16.996094 28.5625 C 16.996094 27.777344 16.355469 27.136719 15.558594 27.136719 Z M 15.558594 27.136719 "/>
<path style=" stroke:none;fill-rule:evenodd;fill:rgb(100%,35.294118%,34.509804%);fill-opacity:1;" d="M 48.5625 33.40625 C 48.5625 36.160156 48.417969 39.019531 48.148438 41.96875 C 47.863281 44.902344 47.320312 47.804688 46.527344 50.640625 C 45.75 53.441406 44.648438 56.148438 43.25 58.703125 C 41.875 61.230469 40.046875 63.488281 37.863281 65.371094 C 35.664062 67.265625 32.980469 68.785156 29.828125 69.894531 C 26.675781 71.019531 22.964844 71.574219 18.660156 71.574219 C 17.144531 71.574219 15.632812 71.464844 14.136719 71.253906 C 12.761719 71.070312 11.394531 70.816406 10.046875 70.484375 C 8.984375 70.210938 7.9375 69.875 6.914062 69.484375 C 6.046875 69.125 5.417969 68.765625 5.039062 68.410156 C 4.605469 67.976562 4.308594 67.421875 4.191406 66.820312 C 4.011719 66.121094 3.921875 65.136719 3.921875 63.886719 C 3.921875 62.726562 3.941406 61.8125 3.996094 61.117188 C 4.015625 60.5625 4.125 60.011719 4.320312 59.488281 C 4.480469 59.097656 4.679688 58.847656 4.894531 58.71875 C 5.15625 58.601562 5.4375 58.539062 5.722656 58.542969 C 6.136719 58.542969 6.75 58.667969 7.527344 58.917969 C 8.300781 59.148438 9.238281 59.4375 10.355469 59.757812 C 11.601562 60.09375 12.863281 60.371094 14.136719 60.578125 C 15.695312 60.84375 17.277344 60.96875 18.855469 60.957031 C 21.8125 60.957031 24.316406 60.4375 26.367188 59.382812 C 28.347656 58.378906 30.050781 56.921875 31.339844 55.128906 C 32.621094 53.339844 33.539062 51.265625 34.152344 48.925781 C 34.761719 46.5 35.097656 44.019531 35.160156 41.523438 C 33.539062 42.542969 31.574219 43.417969 29.289062 44.167969 C 27 44.917969 24.371094 45.296875 21.414062 45.296875 C 17.777344 45.296875 14.695312 44.832031 12.171875 43.882812 C 9.632812 42.9375 7.5625 41.578125 5.976562 39.808594 C 4.390625 38.019531 3.238281 35.875 2.515625 33.320312 C 1.796875 30.78125 1.4375 27.902344 1.4375 24.703125 C 1.4375 21.304688 1.945312 18.1875 2.96875 15.351562 C 3.941406 12.605469 5.488281 10.097656 7.507812 7.988281 C 9.507812 5.914062 12.003906 4.304688 15 3.160156 C 17.992188 1.996094 21.457031 1.417969 25.394531 1.425781 C 28.566406 1.425781 31.339844 1.785156 33.699219 2.515625 C 36.078125 3.25 38.113281 4.304688 39.824219 5.664062 C 41.546875 7.035156 42.992188 8.714844 44.09375 10.613281 C 45.289062 12.640625 46.195312 14.816406 46.796875 17.085938 C 47.472656 19.605469 47.929688 22.175781 48.167969 24.773438 C 48.4375 27.527344 48.5625 30.402344 48.5625 33.40625 Z M 34.835938 31.457031 C 34.835938 27.742188 34.621094 24.628906 34.207031 22.144531 C 33.773438 19.640625 33.140625 17.640625 32.296875 16.15625 C 31.449219 14.675781 30.386719 13.601562 29.125 12.976562 C 27.863281 12.347656 26.367188 12.046875 24.675781 12.046875 C 23.019531 12.046875 21.59375 12.332031 20.40625 12.902344 C 19.226562 13.453125 18.199219 14.285156 17.414062 15.316406 C 16.589844 16.425781 15.988281 17.683594 15.632812 19.015625 C 15.238281 20.546875 15.042969 22.121094 15.054688 23.699219 C 15.054688 25.542969 15.21875 27.167969 15.558594 28.5625 C 15.882812 29.972656 16.425781 31.136719 17.144531 32.046875 C 17.875 32.984375 18.855469 33.695312 19.972656 34.105469 C 21.144531 34.550781 22.550781 34.785156 24.207031 34.785156 C 26.171875 34.796875 28.125 34.488281 29.992188 33.871094 C 31.71875 33.3125 33.351562 32.5 34.835938 31.460938 Z M 34.835938 31.457031 "/>
<path style=" stroke:none;fill-rule:nonzero;fill:rgb(0%,0%,0%);fill-opacity:1;" d="M 33.546875 15.453125 C 32.554688 13.714844 31.28125 12.449219 29.765625 11.699219 C 28.324219 10.980469 26.609375 10.617188 24.675781 10.617188 C 22.808594 10.617188 21.160156 10.957031 19.785156 11.617188 C 18.398438 12.269531 17.1875 13.246094 16.261719 14.464844 C 15.332031 15.714844 14.648438 17.132812 14.246094 18.636719 C 14.246094 18.644531 14.242188 18.648438 14.242188 18.65625 C 13.949219 19.769531 13.761719 20.90625 13.679688 22.054688 C 13.621094 22.839844 14.214844 23.527344 15.003906 23.585938 C 15.796875 23.644531 16.484375 23.054688 16.546875 22.269531 C 16.613281 21.296875 16.773438 20.332031 17.019531 19.386719 C 17.324219 18.230469 17.847656 17.140625 18.558594 16.179688 C 19.207031 15.324219 20.054688 14.640625 21.03125 14.183594 C 22.019531 13.710938 23.246094 13.46875 24.675781 13.46875 C 26.160156 13.46875 27.441406 13.730469 28.480469 14.25 C 29.476562 14.742188 30.339844 15.621094 31.046875 16.859375 C 31.796875 18.175781 32.382812 20.035156 32.789062 22.378906 C 33.164062 24.636719 33.367188 27.4375 33.394531 30.707031 C 32.1875 31.46875 30.886719 32.078125 29.527344 32.523438 C 27.8125 33.089844 26.015625 33.371094 24.207031 33.359375 C 22.757812 33.359375 21.507812 33.160156 20.488281 32.773438 C 20.300781 32.703125 20.117188 32.621094 19.941406 32.53125 C 19.230469 32.175781 18.367188 32.457031 18.007812 33.15625 C 17.648438 33.859375 17.933594 34.71875 18.640625 35.074219 C 18.90625 35.207031 19.179688 35.328125 19.457031 35.433594 C 20.804688 35.945312 22.402344 36.207031 24.207031 36.207031 C 26.328125 36.222656 28.4375 35.886719 30.449219 35.222656 C 32.3125 34.617188 34.074219 33.738281 35.675781 32.617188 C 36.050781 32.347656 36.273438 31.917969 36.273438 31.457031 C 36.273438 27.707031 36.054688 24.496094 35.621094 21.902344 C 35.152344 19.1875 34.472656 17.078125 33.546875 15.453125 Z M 33.546875 15.453125 "/>
<path style=" stroke:none;fill-rule:nonzero;fill:rgb(0%,0%,0%);fill-opacity:1;" d="M 49.597656 24.632812 C 49.351562 21.960938 48.878906 19.308594 48.183594 16.714844 C 47.550781 14.324219 46.59375 12.03125 45.335938 9.894531 C 44.144531 7.847656 42.582031 6.035156 40.722656 4.550781 C 38.863281 3.074219 36.644531 1.929688 34.128906 1.15625 C 31.660156 0.390625 28.722656 0 25.394531 0 C 21.28125 0 17.605469 0.617188 14.484375 1.828125 C 11.300781 3.046875 8.605469 4.789062 6.46875 7 C 4.3125 9.257812 2.660156 11.9375 1.617188 14.871094 C 0.542969 17.835938 0 21.144531 0 24.703125 C 0 28.023438 0.382812 31.050781 1.132812 33.703125 C 1.902344 36.429688 3.167969 38.800781 4.902344 40.753906 C 6.632812 42.6875 8.910156 44.1875 11.664062 45.21875 C 14.324219 46.214844 17.601562 46.722656 21.414062 46.722656 C 24.515625 46.722656 27.316406 46.320312 29.738281 45.523438 C 31.042969 45.101562 32.320312 44.597656 33.558594 44.019531 C 33.40625 45.550781 33.136719 47.070312 32.761719 48.566406 C 32.175781 50.808594 31.328125 52.6875 30.171875 54.304688 C 29.015625 55.914062 27.484375 57.222656 25.710938 58.117188 C 23.882812 59.054688 21.578125 59.53125 18.859375 59.53125 C 17.359375 59.542969 15.867188 59.425781 14.390625 59.179688 C 14.386719 59.175781 14.378906 59.175781 14.375 59.175781 C 13.152344 58.972656 11.941406 58.710938 10.746094 58.386719 C 9.871094 58.132812 9.113281 57.90625 8.441406 57.703125 L 7.957031 57.558594 C 7.035156 57.261719 6.304688 57.117188 5.726562 57.117188 C 5.230469 57.117188 4.742188 57.222656 4.292969 57.425781 C 4.253906 57.445312 4.210938 57.46875 4.171875 57.492188 C 3.667969 57.78125 3.273438 58.269531 2.996094 58.941406 C 2.773438 59.460938 2.628906 60.136719 2.5625 61.007812 C 2.511719 61.6875 2.488281 62.578125 2.488281 63.886719 C 2.488281 65.269531 2.589844 66.339844 2.796875 67.15625 C 2.980469 68.023438 3.414062 68.820312 4.050781 69.445312 C 4.558594 69.921875 5.3125 70.367188 6.363281 70.800781 C 6.371094 70.800781 6.378906 70.804688 6.386719 70.808594 C 7.460938 71.222656 8.5625 71.574219 9.679688 71.863281 L 9.707031 71.867188 C 11.101562 72.210938 12.515625 72.476562 13.941406 72.664062 C 15.503906 72.890625 17.082031 73 18.660156 73 C 23.179688 73 26.992188 72.421875 30.308594 71.238281 C 33.601562 70.078125 36.460938 68.46875 38.804688 66.445312 C 41.121094 64.453125 43.050781 62.0625 44.511719 59.386719 C 45.960938 56.734375 47.101562 53.929688 47.910156 51.023438 C 48.730469 48.101562 49.285156 45.117188 49.578125 42.097656 C 49.859375 39.054688 50 36.128906 50 33.40625 C 50 30.3125 49.863281 27.359375 49.597656 24.632812 Z M 46.71875 41.832031 C 46.441406 44.679688 45.914062 47.5 45.144531 50.257812 C 44.390625 52.957031 43.332031 55.5625 41.984375 58.023438 C 40.691406 60.398438 38.976562 62.523438 36.921875 64.292969 C 34.851562 66.078125 32.300781 67.511719 29.339844 68.550781 C 26.375 69.613281 22.78125 70.148438 18.660156 70.148438 C 17.214844 70.148438 15.769531 70.046875 14.339844 69.839844 L 14.324219 69.839844 C 13.007812 69.664062 11.695312 69.421875 10.402344 69.101562 C 9.402344 68.847656 8.417969 68.53125 7.453125 68.160156 C 6.535156 67.78125 6.167969 67.507812 6.03125 67.378906 C 5.800781 67.132812 5.648438 66.828125 5.59375 66.5 C 5.589844 66.488281 5.585938 66.476562 5.585938 66.464844 C 5.480469 66.066406 5.359375 65.296875 5.359375 63.886719 C 5.359375 62.652344 5.378906 61.832031 5.425781 61.226562 C 5.484375 60.472656 5.59375 60.15625 5.640625 60.050781 C 5.644531 60.042969 5.644531 60.039062 5.648438 60.03125 C 5.660156 60.007812 5.667969 59.988281 5.675781 59.96875 C 5.691406 59.96875 5.707031 59.96875 5.722656 59.96875 C 5.820312 59.96875 6.203125 59.988281 7.082031 60.273438 C 7.089844 60.277344 7.101562 60.28125 7.109375 60.28125 L 7.605469 60.433594 C 8.285156 60.636719 9.058594 60.867188 9.953125 61.128906 L 9.972656 61.132812 C 11.265625 61.484375 12.574219 61.765625 13.890625 61.984375 C 15.53125 62.261719 17.195312 62.394531 18.855469 62.382812 C 22.042969 62.382812 24.792969 61.796875 27.035156 60.644531 C 29.210938 59.539062 31.089844 57.929688 32.511719 55.953125 C 33.855469 54.074219 34.875 51.832031 35.542969 49.273438 C 36.175781 46.75 36.53125 44.164062 36.597656 41.5625 C 36.609375 41.035156 36.332031 40.542969 35.871094 40.285156 C 35.410156 40.023438 34.839844 40.039062 34.390625 40.320312 C 32.902344 41.253906 31.035156 42.09375 28.835938 42.816406 C 26.703125 43.515625 24.207031 43.871094 21.414062 43.871094 C 17.953125 43.871094 15.011719 43.425781 12.679688 42.550781 C 10.363281 41.683594 8.46875 40.445312 7.054688 38.867188 C 5.59375 37.21875 4.5625 35.277344 3.902344 32.933594 C 3.21875 30.53125 2.875 27.761719 2.875 24.703125 C 2.875 21.476562 3.359375 18.492188 4.320312 15.835938 C 5.226562 13.28125 6.667969 10.941406 8.546875 8.972656 C 10.386719 7.066406 12.730469 5.558594 15.527344 4.488281 C 18.320312 3.402344 21.640625 2.851562 25.394531 2.851562 C 28.429688 2.851562 31.082031 3.195312 33.273438 3.878906 C 35.449219 4.546875 37.351562 5.523438 38.929688 6.777344 C 40.511719 8.042969 41.84375 9.59375 42.859375 11.339844 C 43.984375 13.257812 44.84375 15.316406 45.410156 17.460938 C 46.0625 19.902344 46.507812 22.394531 46.738281 24.910156 C 46.996094 27.546875 47.125 30.402344 47.125 33.40625 C 47.125 36.046875 46.988281 38.882812 46.71875 41.832031 Z M 46.71875 41.832031 "/>
<path style=" stroke:none;fill-rule:nonzero;fill:rgb(0%,0%,0%);fill-opacity:1;" d="M 15.558594 27.136719 C 14.765625 27.136719 14.121094 27.777344 14.125 28.5625 C 14.125 29.351562 14.765625 29.988281 15.558594 29.988281 C 16.351562 29.988281 16.996094 29.351562 16.996094 28.5625 C 16.996094 27.777344 16.355469 27.136719 15.558594 27.136719 Z M 15.558594 27.136719 "/>
</g>
</svg>
