<svg xmlns="http://www.w3.org/2000/svg" xmlns:xlink="http://www.w3.org/1999/xlink" width="24" height="23" viewBox="0 0 24 23">
    <path d="M20.821,4.458h.72a.455.455,0,1,0,0-.91H19.812A.455.455,0,0,0,19.357,4V5.732a.455.455,0,1,0,.91,0v-.5A10.744,10.744,0,1,1,11.654.91a10.906,10.906,0,0,1,1.311.079.455.455,0,0,0,.11-.9A11.819,11.819,0,0,0,11.654,0a11.654,11.654,0,0,0-8.24,19.894A11.654,11.654,0,0,0,20.821,4.458Z" transform="translate(0 0)"/>
    <path d="M67.148,69.084a.455.455,0,0,0-.628.141,8.687,8.687,0,1,0,2.719-2.713.455.455,0,0,0,.485.77,7.78,7.78,0,1,1-1.358,12.087,7.829,7.829,0,0,1-1.077-9.657A.455.455,0,0,0,67.148,69.084Z" transform="translate(-62.213 -62.214)"/>
    <path d="M376.624,247.24h.561a.455.455,0,1,0,0-.91h-.561a.455.455,0,1,0,0,.91Z" transform="translate(-359.056 -235.124)"/>
    <path d="M103.835,246.461a.455.455,0,0,0,.455.455h.561a.455.455,0,0,0,0-.91h-.561A.455.455,0,0,0,103.835,246.461Z" transform="translate(-99.111 -234.815)"/>
    <path d="M247.24,104.851v-.561a.455.455,0,0,0-.91,0v.561a.455.455,0,0,0,.91,0Z" transform="translate(-235.124 -99.111)"/>
    <path d="M246.006,376.624v.561a.455.455,0,1,0,.91,0v-.561a.455.455,0,1,0-.91,0Z" transform="translate(-234.815 -359.056)"/>
    <path d="M189.749,156.183a.455.455,0,0,0-.643.643l1.542,1.542a1.567,1.567,0,1,0,2.764,0l3.111-3.111a.455.455,0,1,0-.643-.643l-3.111,3.111a1.564,1.564,0,0,0-1.477,0Zm2.938,2.924a.657.657,0,1,1-.657-.657A.658.658,0,0,1,192.687,159.107Z" transform="translate(-180.375 -147.453)"/>
    <path d="M118.955,118.955a.455.455,0,1,0-.322.133A.457.457,0,0,0,118.955,118.955Z" transform="translate(-112.802 -112.802)"/>
    <path d="M315.893,10.788a.455.455,0,1,0-.322-.133A.457.457,0,0,0,315.893,10.788Z" transform="translate(-301.088 -9.429)"/>
</svg>
