<?xml version="1.0" encoding="UTF-8"?>
<svg xmlns="http://www.w3.org/2000/svg" xmlns:xlink="http://www.w3.org/1999/xlink" width="50" height="61" viewBox="0 0 50 61" version="1.1">
<g id="surface1">
<path style=" stroke:none;fill-rule:nonzero;fill:rgb(49.803922%,69.803922%,25.490196%);fill-opacity:1;" d="M 25.210938 14.578125 C 16.40625 15.355469 9.914062 8.863281 10.691406 0.0625 C 19.492188 -0.714844 25.984375 5.777344 25.210938 14.578125 Z M 25.210938 14.578125 "/>
<path style=" stroke:none;fill-rule:nonzero;fill:rgb(55.686275%,42.745098%,32.54902%);fill-opacity:1;" d="M 25.546875 20.707031 C 24.765625 20.511719 24.1875 19.851562 24.101562 19.054688 C 23.238281 11.257812 28.863281 4.242188 36.660156 3.386719 C 37.699219 3.296875 38.621094 4.054688 38.734375 5.09375 C 38.847656 6.132812 38.113281 7.070312 37.078125 7.210938 C 31.398438 7.835938 27.296875 12.949219 27.921875 18.628906 C 28.039062 19.683594 27.277344 20.636719 26.222656 20.753906 C 25.996094 20.777344 25.765625 20.765625 25.546875 20.707031 Z M 25.546875 20.707031 "/>
<path style=" stroke:none;fill-rule:nonzero;fill:rgb(88.235294%,29.411765%,29.411765%);fill-opacity:1;" d="M 39.808594 14.554688 C 37.710938 13.996094 35.539062 14.109375 33.40625 14.796875 C 27.957031 16.558594 22.089844 16.558594 16.636719 14.796875 C 14.507812 14.109375 12.335938 13.996094 10.234375 14.554688 C 1.851562 16.785156 -2.191406 28.910156 1.199219 41.636719 C 4.589844 54.359375 14.136719 62.863281 22.519531 60.632812 C 22.527344 60.628906 22.539062 60.625 22.546875 60.625 C 24.167969 60.183594 25.878906 60.183594 27.5 60.625 C 27.511719 60.625 27.519531 60.628906 27.527344 60.632812 C 35.910156 62.863281 45.457031 54.359375 48.847656 41.636719 C 52.238281 28.910156 48.191406 16.785156 39.808594 14.554688 Z M 39.808594 14.554688 "/>
<path style=" stroke:none;fill-rule:nonzero;fill:rgb(81.568627%,24.705882%,24.705882%);fill-opacity:1;" d="M 48.84375 41.632812 C 45.457031 54.355469 35.90625 62.859375 27.519531 60.632812 L 27.5 60.632812 C 25.875 60.1875 24.164062 60.1875 22.539062 60.632812 L 22.519531 60.632812 C 19.363281 61.464844 16.050781 60.785156 12.972656 58.945312 C 29.417969 52.59375 41.738281 36.558594 44.3125 17.019531 C 49.523438 21.6875 51.558594 31.46875 48.84375 41.632812 Z M 48.84375 41.632812 "/>
</g>
</svg>
