<?xml version="1.0" encoding="UTF-8"?>
<svg xmlns="http://www.w3.org/2000/svg" xmlns:xlink="http://www.w3.org/1999/xlink" width="50" height="50" viewBox="0 0 50 50" version="1.1">
<g id="surface1">
<path style=" stroke:none;fill-rule:nonzero;fill:rgb(0.784314%,40.784314%,25.490196%);fill-opacity:1;" d="M 49.921875 22.949219 C 47.441406 20.601562 42.484375 18.976562 36.757812 18.929688 C 35.492188 18.917969 34.230469 18.988281 32.972656 19.140625 C 33.972656 20.113281 34.753906 21.277344 35.269531 22.5625 C 35.75 23.753906 36.722656 24.6875 37.945312 25.136719 C 39.117188 25.5625 40.21875 26.15625 41.21875 26.894531 C 44.976562 26.335938 48.09375 25.0625 49.917969 23.390625 C 49.980469 23.332031 50.015625 23.253906 50.015625 23.171875 C 50.015625 23.085938 49.984375 23.007812 49.921875 22.949219 Z M 49.921875 22.949219 "/>
<path style=" stroke:none;fill-rule:nonzero;fill:rgb(0.392157%,48.235294%,30.588235%);fill-opacity:1;" d="M 35.5 23.046875 C 36.03125 24.011719 36.902344 24.753906 37.945312 25.136719 C 39.117188 25.5625 40.21875 26.15625 41.21875 26.894531 C 44.976562 26.335938 48.09375 25.0625 49.917969 23.390625 C 49.984375 23.328125 50.019531 23.238281 50.015625 23.148438 Z M 35.5 23.046875 "/>
<path style=" stroke:none;fill-rule:nonzero;fill:rgb(0.784314%,56.470588%,36.470588%);fill-opacity:1;" d="M 34.664062 21.3125 C 34.847656 21.636719 35.015625 21.96875 35.164062 22.3125 C 36.195312 21.546875 37.175781 20.71875 38.09375 19.824219 C 42.175781 15.871094 44.585938 11.308594 44.707031 7.921875 C 44.710938 7.839844 44.679688 7.757812 44.617188 7.699219 C 44.558594 7.640625 44.476562 7.605469 44.394531 7.609375 C 40.953125 7.671875 36.277344 9.976562 32.199219 13.929688 C 31.222656 14.875 30.3125 15.882812 29.480469 16.953125 C 31.679688 17.753906 33.515625 19.300781 34.664062 21.3125 Z M 34.664062 21.3125 "/>
<path style=" stroke:none;fill-rule:nonzero;fill:rgb(3.529412%,65.490196%,42.745098%);fill-opacity:1;" d="M 34.664062 21.3125 C 34.847656 21.636719 35.015625 21.96875 35.164062 22.3125 C 36.195312 21.546875 37.175781 20.71875 38.09375 19.824219 C 42.175781 15.871094 44.585938 11.308594 44.707031 7.921875 C 44.710938 7.832031 44.671875 7.746094 44.601562 7.683594 L 32.886719 19.054688 C 33.585938 19.71875 34.183594 20.480469 34.664062 21.3125 Z M 34.664062 21.3125 "/>
<path style=" stroke:none;fill-rule:nonzero;fill:rgb(0.784314%,40.784314%,25.490196%);fill-opacity:1;" d="M 26.363281 16.410156 C 28.300781 16.417969 30.183594 17.019531 31.757812 18.132812 C 32.070312 16.480469 32.234375 14.800781 32.246094 13.117188 C 32.289062 7.480469 30.714844 2.574219 28.371094 0.0976562 C 28.3125 0.0351562 28.234375 0 28.148438 0 C 28.0625 0 27.980469 0.03125 27.921875 0.09375 C 25.539062 2.53125 23.886719 7.414062 23.839844 13.050781 C 23.828125 14.277344 23.898438 15.503906 24.046875 16.722656 C 24.800781 16.515625 25.582031 16.410156 26.363281 16.410156 Z M 26.363281 16.410156 "/>
<path style=" stroke:none;fill-rule:nonzero;fill:rgb(0.392157%,48.235294%,30.588235%);fill-opacity:1;" d="M 31.757812 18.132812 C 32.070312 16.480469 32.234375 14.800781 32.246094 13.117188 C 32.289062 7.480469 30.714844 2.574219 28.371094 0.0976562 C 28.308594 0.03125 28.21875 -0.00390625 28.125 0 L 28.003906 16.558594 C 29.355469 16.808594 30.636719 17.347656 31.753906 18.132812 Z M 31.757812 18.132812 "/>
<path style=" stroke:none;fill-rule:nonzero;fill:rgb(0.784314%,56.470588%,36.470588%);fill-opacity:1;" d="M 22.101562 43.390625 C 20.609375 40.773438 20.097656 37.722656 20.660156 34.773438 C 20.898438 33.511719 20.582031 32.214844 19.789062 31.199219 C 19.503906 30.832031 19.242188 30.445312 19.011719 30.042969 C 17.761719 27.90625 17.390625 25.378906 17.976562 22.980469 C 18.566406 20.613281 20.042969 18.667969 22.128906 17.503906 C 22.589844 17.246094 23.074219 17.035156 23.574219 16.867188 C 19.449219 15.257812 14.515625 16.96875 12.054688 21.070312 C 11.8125 21.46875 11.597656 21.886719 11.417969 22.316406 C 10.925781 23.472656 9.960938 24.371094 8.761719 24.785156 C 5.855469 25.78125 3.402344 27.75 1.832031 30.351562 C -1.820312 36.390625 0.160156 44.285156 6.253906 47.945312 C 11.851562 51.3125 19.117188 50.078125 23.246094 45.0625 C 22.820312 44.535156 22.4375 43.976562 22.101562 43.390625 Z M 22.101562 43.390625 "/>
<path style=" stroke:none;fill-rule:nonzero;fill:rgb(0.392157%,48.235294%,30.588235%);fill-opacity:1;" d="M 22.128906 17.503906 C 22.589844 17.246094 23.074219 17.035156 23.574219 16.867188 C 19.449219 15.257812 14.515625 16.96875 12.054688 21.070312 C 11.8125 21.46875 11.597656 21.886719 11.417969 22.316406 C 10.925781 23.472656 9.960938 24.371094 8.761719 24.785156 C 5.859375 25.78125 3.40625 27.75 1.835938 30.351562 C -1.820312 36.390625 0.160156 44.285156 6.253906 47.945312 C 6.6875 48.207031 7.132812 48.441406 7.59375 48.652344 C 3.023438 44.625 1.828125 37.804688 5.074219 32.445312 C 6.644531 29.84375 9.097656 27.871094 12 26.878906 C 13.199219 26.464844 14.167969 25.566406 14.65625 24.410156 C 14.839844 23.980469 15.050781 23.5625 15.292969 23.164062 C 16.402344 21.292969 18.109375 19.839844 20.148438 19.027344 C 20.730469 18.425781 21.398438 17.914062 22.128906 17.503906 Z M 22.128906 17.503906 "/>
<path style=" stroke:none;fill-rule:nonzero;fill:rgb(0.784314%,40.784314%,25.490196%);fill-opacity:1;" d="M 3.894531 37.90625 C 3.894531 38.3125 3.5625 38.640625 3.148438 38.640625 C 2.738281 38.640625 2.40625 38.3125 2.40625 37.90625 C 2.40625 37.503906 2.738281 37.175781 3.148438 37.175781 C 3.5625 37.175781 3.894531 37.503906 3.894531 37.90625 Z M 3.894531 37.90625 "/>
<path style=" stroke:none;fill-rule:nonzero;fill:rgb(0.784314%,40.784314%,25.490196%);fill-opacity:1;" d="M 7.867188 39.546875 C 7.867188 39.953125 7.535156 40.28125 7.121094 40.28125 C 6.710938 40.28125 6.378906 39.953125 6.378906 39.546875 C 6.378906 39.144531 6.710938 38.816406 7.121094 38.816406 C 7.535156 38.816406 7.867188 39.144531 7.867188 39.546875 Z M 7.867188 39.546875 "/>
<path style=" stroke:none;fill-rule:nonzero;fill:rgb(0.784314%,40.784314%,25.490196%);fill-opacity:1;" d="M 5.902344 42.550781 C 5.902344 42.957031 5.566406 43.285156 5.15625 43.285156 C 4.746094 43.285156 4.414062 42.957031 4.414062 42.550781 C 4.414062 42.144531 4.746094 41.820312 5.15625 41.820312 C 5.566406 41.820312 5.902344 42.144531 5.902344 42.550781 Z M 5.902344 42.550781 "/>
<path style=" stroke:none;fill-rule:nonzero;fill:rgb(0.784314%,40.784314%,25.490196%);fill-opacity:1;" d="M 9.355469 44.792969 C 9.355469 45.195312 9.023438 45.523438 8.613281 45.523438 C 8.203125 45.523438 7.871094 45.195312 7.871094 44.792969 C 7.871094 44.386719 8.203125 44.058594 8.613281 44.058594 C 9.023438 44.058594 9.355469 44.386719 9.355469 44.792969 Z M 9.355469 44.792969 "/>
<path style=" stroke:none;fill-rule:nonzero;fill:rgb(0.784314%,40.784314%,25.490196%);fill-opacity:1;" d="M 5.875 33.296875 C 5.875 33.699219 5.539062 34.027344 5.128906 34.027344 C 4.71875 34.027344 4.386719 33.699219 4.386719 33.296875 C 4.386719 32.890625 4.71875 32.5625 5.128906 32.5625 C 5.539062 32.5625 5.875 32.890625 5.875 33.296875 Z M 5.875 33.296875 "/>
<path style=" stroke:none;fill-rule:nonzero;fill:rgb(50.588235%,72.156863%,13.72549%);fill-opacity:1;" d="M 37.980469 25.042969 C 36.785156 24.605469 35.832031 23.691406 35.363281 22.523438 C 35.1875 22.089844 34.984375 21.671875 34.75 21.265625 C 32.121094 16.703125 26.449219 14.980469 22.082031 17.417969 C 17.710938 19.855469 16.300781 25.53125 18.925781 30.09375 C 19.160156 30.5 19.421875 30.886719 19.710938 31.257812 C 20.484375 32.25 20.792969 33.523438 20.5625 34.753906 C 19.992188 37.726562 20.507812 40.804688 22.019531 43.4375 C 25.515625 49.566406 33.460938 51.804688 39.71875 48.421875 C 44.214844 46 46.859375 41.214844 46.484375 36.183594 C 46.109375 31.152344 42.785156 26.796875 37.980469 25.042969 Z M 37.980469 25.042969 "/>
<path style=" stroke:none;fill-rule:nonzero;fill:rgb(81.960784%,94.509804%,61.960784%);fill-opacity:1;" d="M 38.609375 46.125 C 38.566406 46.148438 38.523438 46.171875 38.476562 46.195312 C 33.453125 48.910156 27.078125 47.113281 24.265625 42.195312 C 23.058594 40.078125 22.644531 37.609375 23.097656 35.222656 C 23.464844 33.28125 22.976562 31.277344 21.757812 29.710938 C 21.539062 29.433594 21.34375 29.144531 21.171875 28.839844 C 19.25 25.503906 20.230469 21.371094 23.351562 19.628906 C 26.476562 17.886719 30.582031 19.179688 32.503906 22.515625 C 32.679688 22.820312 32.832031 23.136719 32.960938 23.460938 C 33.703125 25.296875 35.199219 26.738281 37.082031 27.425781 C 40.914062 28.824219 43.574219 32.285156 43.902344 36.296875 C 44.230469 40.308594 42.164062 44.140625 38.609375 46.125 Z M 38.609375 46.125 "/>
<path style=" stroke:none;fill-rule:nonzero;fill:rgb(73.333333%,92.54902%,42.352941%);fill-opacity:1;" d="M 27.453125 41.160156 C 26.246094 39.042969 25.832031 36.574219 26.285156 34.1875 C 26.652344 32.25 26.164062 30.246094 24.941406 28.679688 C 24.726562 28.402344 24.53125 28.109375 24.355469 27.804688 C 22.527344 24.628906 23.332031 20.726562 26.113281 18.859375 C 25.144531 18.894531 24.199219 19.15625 23.355469 19.628906 C 20.230469 21.371094 19.25 25.503906 21.171875 28.839844 C 21.34375 29.144531 21.542969 29.433594 21.757812 29.710938 C 22.976562 31.277344 23.464844 33.28125 23.097656 35.222656 C 22.644531 37.609375 23.058594 40.078125 24.265625 42.195312 C 27.039062 47.050781 33.28125 48.863281 38.277344 46.300781 C 34.054688 46.957031 29.65625 45.019531 27.453125 41.160156 Z M 27.453125 41.160156 "/>
<path style=" stroke:none;fill-rule:nonzero;fill:rgb(54.509804%,78.039216%,15.294118%);fill-opacity:1;" d="M 43.21875 31.664062 C 41.910156 29.390625 39.828125 27.648438 37.34375 26.738281 C 35.65625 26.125 34.316406 24.835938 33.65625 23.191406 C 33.511719 22.835938 33.34375 22.488281 33.152344 22.15625 C 32.164062 20.40625 30.539062 19.09375 28.609375 18.46875 C 26.675781 17.859375 24.679688 18.046875 22.988281 18.992188 C 19.503906 20.933594 18.402344 25.515625 20.523438 29.203125 C 20.714844 29.535156 20.929688 29.855469 21.167969 30.15625 C 22.257812 31.558594 22.695312 33.351562 22.367188 35.089844 C 21.75 38.332031 22.632812 41.675781 24.78125 44.210938 C 26.925781 46.746094 30.109375 48.207031 33.464844 48.195312 C 35.339844 48.195312 37.191406 47.730469 38.835938 46.839844 L 38.976562 46.761719 C 44.382812 43.746094 46.28125 36.984375 43.21875 31.664062 Z M 42.839844 39.6875 C 42.15625 42.148438 40.5 44.234375 38.242188 45.488281 L 38.121094 45.554688 C 36.691406 46.328125 35.089844 46.730469 33.457031 46.730469 C 30.550781 46.742188 27.785156 45.476562 25.925781 43.277344 C 24.0625 41.074219 23.292969 38.171875 23.828125 35.359375 C 24.234375 33.210938 23.695312 30.996094 22.347656 29.265625 C 22.152344 29.015625 21.976562 28.753906 21.816406 28.480469 C 20.097656 25.496094 20.953125 21.808594 23.71875 20.265625 C 24.527344 19.816406 25.4375 19.582031 26.363281 19.582031 C 26.96875 19.585938 27.574219 19.679688 28.152344 19.867188 C 29.730469 20.375 31.050781 21.449219 31.855469 22.878906 C 32.015625 23.152344 32.152344 23.4375 32.269531 23.730469 C 33.089844 25.761719 34.746094 27.351562 36.824219 28.113281 C 41.578125 29.847656 44.191406 34.875 42.839844 39.6875 Z M 42.839844 39.6875 "/>
<path style=" stroke:none;fill-rule:nonzero;fill:rgb(64.313725%,30.980392%,24.313725%);fill-opacity:1;" d="M 38.34375 33.839844 C 36.597656 30.808594 32.875 29.640625 30.027344 31.226562 C 27.183594 32.816406 26.289062 36.558594 28.03125 39.589844 C 29.777344 42.621094 33.5 43.789062 36.347656 42.203125 C 39.191406 40.613281 40.085938 36.871094 38.34375 33.839844 Z M 38.34375 33.839844 "/>
<path style=" stroke:none;fill-rule:nonzero;fill:rgb(53.333333%,24.705882%,18.039216%);fill-opacity:1;" d="M 31.214844 38.582031 C 29.570312 35.726562 30.269531 32.242188 32.734375 30.515625 C 31.785156 30.523438 30.855469 30.765625 30.03125 31.226562 C 27.183594 32.8125 26.289062 36.558594 28.035156 39.585938 C 29.78125 42.617188 33.503906 43.785156 36.347656 42.199219 C 36.511719 42.105469 36.671875 42.007812 36.824219 41.898438 C 34.636719 41.917969 32.4375 40.707031 31.214844 38.582031 Z M 31.214844 38.582031 "/>
</g>
</svg>
