<?xml version="1.0" encoding="UTF-8"?>
<svg xmlns="http://www.w3.org/2000/svg" xmlns:xlink="http://www.w3.org/1999/xlink" width="50" height="43" viewBox="0 0 50 43" version="1.1">
<g id="surface1">
<path style=" stroke:none;fill-rule:nonzero;fill:rgb(43.921569%,41.568627%,21.568627%);fill-opacity:1;" d="M 4.109375 25.824219 L 3.707031 28.042969 L 1.652344 29.484375 C 0.898438 28.9375 0.015625 28.273438 0 27.835938 C -0.0234375 27.101562 0.914062 25.925781 0.914062 25.925781 C 1.542969 25.578125 3.203125 25.863281 4.109375 25.824219 Z M 4.109375 25.824219 "/>
<path style=" stroke:none;fill-rule:nonzero;fill:rgb(100%,94.901961%,49.019608%);fill-opacity:1;" d="M 39.835938 7.582031 L 40.519531 6.234375 C 41.660156 6.625 42.722656 6.738281 43.40625 7.089844 C 47.269531 9.0625 49.925781 15.046875 49.996094 18.625 C 50.175781 27.828125 46.367188 34.390625 41.742188 38.585938 C 39.984375 40.175781 36.855469 42.535156 31.816406 42.84375 C 31.566406 42.855469 31.253906 42.890625 30.914062 42.925781 L 31.953125 40.285156 L 30.40625 38.390625 C 31.425781 37.066406 32.855469 35.589844 33.90625 34.195312 C 36.519531 31.921875 38.738281 28.765625 40.195312 24.347656 C 41.414062 20.660156 42.023438 13.894531 39.433594 10.320312 C 38.972656 9.6875 38.050781 9.101562 37.195312 8.21875 L 39.640625 7.964844 Z M 39.835938 7.582031 "/>
<path style=" stroke:none;fill-rule:nonzero;fill:rgb(100%,89.019608%,23.137255%);fill-opacity:1;" d="M 49.996094 18.625 C 49.925781 15.046875 47.269531 9.0625 43.40625 7.089844 C 42.722656 6.738281 41.660156 6.625 40.519531 6.234375 L 39.835938 7.582031 L 39.640625 7.964844 L 39.636719 7.964844 C 41.925781 10.519531 43.46875 14.1875 43.652344 16.714844 C 44.320312 25.894531 40.867188 32.640625 36.46875 37.066406 C 35.472656 38.066406 34.003906 39.363281 31.917969 40.367188 L 30.914062 42.925781 C 31.253906 42.890625 31.566406 42.855469 31.816406 42.84375 C 36.855469 42.535156 39.984375 40.175781 41.742188 38.585938 C 46.367188 34.390625 50.175781 27.828125 49.996094 18.625 Z M 49.996094 18.625 "/>
<path style=" stroke:none;fill-rule:nonzero;fill:rgb(100%,94.901961%,49.019608%);fill-opacity:1;" d="M 13.480469 34.996094 L 12.484375 33.183594 C 14.40625 32.300781 18.082031 31.007812 19.558594 30.511719 C 25.28125 28.597656 30.226562 21.933594 31.601562 16.261719 C 31.953125 14.808594 32.351562 13.472656 33.804688 9.351562 C 33.859375 9.199219 33.894531 9.046875 33.910156 8.890625 L 35.558594 9.414062 L 37.195312 8.21875 C 38.050781 9.101562 38.972656 9.6875 39.433594 10.320312 C 42.023438 13.894531 41.414062 20.660156 40.195312 24.347656 C 38.738281 28.765625 36.519531 31.921875 33.90625 34.195312 C 31.164062 36.578125 27.984375 38 24.785156 38.894531 C 22.410156 39.558594 16.8125 39.90625 11.636719 37.917969 Z M 13.480469 34.996094 "/>
<path style=" stroke:none;fill-rule:nonzero;fill:rgb(97.647059%,83.137255%,21.960784%);fill-opacity:1;" d="M 39.433594 10.320312 C 38.972656 9.6875 38.050781 9.101562 37.195312 8.21875 L 36.101562 9.019531 C 37.308594 12.820312 36.410156 18.121094 35.203125 21.1875 C 33.492188 25.515625 31.101562 28.546875 28.359375 30.671875 C 25.488281 32.902344 22.234375 34.148438 18.984375 34.867188 C 17.78125 35.136719 15.769531 35.28125 13.433594 35.074219 L 11.636719 37.917969 C 16.8125 39.910156 22.410156 39.558594 24.785156 38.894531 C 27.984375 38 31.164062 36.578125 33.90625 34.195312 C 36.519531 31.921875 38.738281 28.765625 40.195312 24.351562 C 41.414062 20.660156 42.023438 13.894531 39.433594 10.320312 Z M 39.433594 10.320312 "/>
<path style=" stroke:none;fill-rule:nonzero;fill:rgb(97.254902%,93.333333%,30.980392%);fill-opacity:1;" d="M 3.707031 28.042969 L 4.109375 25.824219 C 4.203125 25.820312 4.300781 25.808594 4.394531 25.792969 C 6.054688 25.480469 9.996094 25.136719 11.867188 24.957031 C 16.558594 24.507812 24.160156 19.910156 26.914062 14.945312 C 27.621094 13.671875 28.097656 12.332031 30.523438 8.832031 C 30.613281 8.707031 30.683594 8.570312 30.734375 8.425781 L 33.675781 8.878906 L 33.90625 8.886719 L 33.910156 8.890625 C 33.894531 9.046875 33.859375 9.199219 33.804688 9.351562 C 32.355469 13.472656 31.953125 14.808594 31.601562 16.261719 C 30.226562 21.933594 25.28125 28.597656 19.558594 30.511719 C 18.082031 31.007812 14.40625 32.300781 12.484375 33.183594 C 12.046875 33.386719 11.152344 33.519531 10.367188 33.710938 C 8.273438 33.300781 5.074219 32.125 2.375 30.015625 C 2.183594 29.863281 1.925781 29.679688 1.652344 29.484375 Z M 3.707031 28.042969 "/>
<path style=" stroke:none;fill-rule:nonzero;fill:rgb(100%,98.039216%,75.686275%);fill-opacity:1;" d="M 30.734375 8.425781 C 30.679688 8.570312 27.621094 13.671875 26.914062 14.945312 C 24.160156 19.910156 16.558594 24.507812 11.867188 24.957031 C 9.996094 25.136719 6.054688 25.480469 4.394531 25.792969 C 4.300781 25.808594 4.203125 25.820312 4.109375 25.824219 L 3.707031 28.042969 C 3.707031 28.042969 9.019531 29.320312 13.136719 28.332031 C 17.714844 27.234375 25.429688 23.285156 28.183594 18.320312 C 28.890625 17.046875 32.734375 8.734375 32.734375 8.734375 Z M 30.734375 8.425781 "/>
<path style=" stroke:none;fill-rule:nonzero;fill:rgb(49.803922%,47.058824%,25.490196%);fill-opacity:1;" d="M 30.40625 38.390625 L 31.953125 40.285156 L 30.914062 42.925781 C 29.980469 43.015625 28.867188 43.105469 28.558594 42.789062 C 28.039062 42.261719 27.921875 40.777344 27.921875 40.777344 C 28.171875 40.027344 29.925781 39.015625 30.40625 38.390625 Z M 30.40625 38.390625 "/>
<path style=" stroke:none;fill-rule:nonzero;fill:rgb(43.921569%,41.568627%,21.568627%);fill-opacity:1;" d="M 37.195312 8.21875 L 35.558594 9.414062 L 33.910156 8.890625 C 34.113281 7.09375 32.363281 4.648438 32.363281 4.648438 L 32.367188 3.335938 C 32.367188 3.335938 31.261719 1.71875 32 0.40625 C 32.082031 0.289062 32.214844 0.214844 32.363281 0.214844 C 33.09375 0.125 34.554688 0.757812 34.554688 0.757812 C 34.621094 0.828125 34.679688 0.894531 34.738281 0.960938 C 35.683594 2.089844 35.316406 2.953125 35.335938 3.769531 C 35.390625 5.917969 36.25 7.246094 37.195312 8.21875 Z M 37.195312 8.21875 "/>
<path style=" stroke:none;fill-rule:nonzero;fill:rgb(54.901961%,51.764706%,28.235294%);fill-opacity:1;" d="M 32.363281 4.648438 C 32.363281 4.648438 34.113281 7.09375 33.910156 8.890625 L 33.90625 8.886719 L 33.675781 8.878906 L 30.734375 8.425781 C 31.355469 6.792969 30.125 4.050781 30.125 4.050781 L 30.730469 2.835938 C 30.730469 2.835938 30.117188 1.042969 31.152344 0 L 32.363281 0.214844 C 32.214844 0.214844 32.082031 0.289062 32 0.40625 C 31.261719 1.71875 32.367188 3.335938 32.367188 3.335938 Z M 32.363281 4.648438 "/>
<path style=" stroke:none;fill-rule:nonzero;fill:rgb(100%,89.019608%,23.137255%);fill-opacity:1;" d="M 13.535156 35.59375 L 13.46875 35.59375 C 13.128906 35.589844 12.859375 35.316406 12.867188 34.984375 C 12.875 34.65625 13.152344 34.390625 13.492188 34.398438 C 14.480469 34.382812 15.46875 34.277344 16.4375 34.074219 C 16.769531 34.011719 17.089844 34.222656 17.15625 34.546875 C 17.222656 34.871094 17.007812 35.183594 16.675781 35.25 C 15.644531 35.460938 14.589844 35.578125 13.535156 35.59375 Z M 13.535156 35.59375 "/>
<path style=" stroke:none;fill-rule:nonzero;fill:rgb(97.647059%,83.137255%,21.960784%);fill-opacity:1;" d="M 45.367188 13.097656 C 45.132812 13.097656 44.917969 12.964844 44.816406 12.753906 C 43.109375 9.253906 41.5625 8.390625 39.761719 8.175781 C 39.425781 8.132812 39.1875 7.835938 39.230469 7.507812 C 39.269531 7.179688 39.574219 6.945312 39.910156 6.988281 C 43.136719 7.375 44.703125 9.742188 45.921875 12.238281 C 46.011719 12.425781 45.996094 12.644531 45.886719 12.816406 C 45.773438 12.992188 45.578125 13.097656 45.367188 13.097656 Z M 45.367188 13.097656 "/>
<path style=" stroke:none;fill-rule:nonzero;fill:rgb(54.901961%,51.764706%,28.235294%);fill-opacity:1;" d="M 40.519531 6.234375 L 39.835938 7.582031 L 39.640625 7.964844 L 37.195312 8.21875 C 36.25 7.246094 35.390625 5.917969 35.335938 3.769531 C 35.316406 2.953125 35.683594 2.089844 34.738281 0.960938 L 34.855469 0.921875 C 36.429688 1.476562 36.484375 2.449219 36.894531 3.1875 C 37.914062 5.015625 39.261719 5.796875 40.519531 6.234375 Z M 40.519531 6.234375 "/>
<path style=" stroke:none;fill-rule:nonzero;fill:rgb(43.921569%,41.568627%,21.568627%);fill-opacity:1;" d="M 10.367188 33.710938 C 11.152344 33.519531 12.046875 33.386719 12.484375 33.183594 L 13.480469 34.996094 L 11.636719 37.917969 C 10.75 37.578125 8.859375 36.972656 8.679688 36.390625 C 8.453125 35.664062 9.0625 34.246094 9.0625 34.246094 C 9.308594 34.007812 9.8125 33.84375 10.367188 33.710938 Z M 10.367188 33.710938 "/>
</g>
</svg>
