<?xml version="1.0" encoding="UTF-8"?>
<svg xmlns="http://www.w3.org/2000/svg" xmlns:xlink="http://www.w3.org/1999/xlink" width="50" height="42" viewBox="0 0 50 42" version="1.1">
<g id="surface1">
<path style=" stroke:none;fill-rule:nonzero;fill:rgb(45.490196%,30.588235%,66.666667%);fill-opacity:1;" d="M 50 36.105469 C 50 39.355469 47.351562 41.992188 44.089844 41.992188 C 40.824219 41.992188 38.179688 39.355469 38.179688 36.105469 C 38.179688 32.859375 40.824219 30.222656 44.089844 30.222656 C 47.351562 30.222656 50 32.859375 50 36.105469 Z M 50 36.105469 "/>
<path style=" stroke:none;fill-rule:nonzero;fill:rgb(40.392157%,26.666667%,61.960784%);fill-opacity:1;" d="M 44.757812 41.835938 C 42.019531 41.203125 40.113281 38.738281 40.191406 35.941406 C 40.269531 33.144531 42.316406 30.789062 45.085938 30.308594 C 42.769531 29.914062 40.433594 30.925781 39.148438 32.886719 C 37.859375 34.847656 37.863281 37.382812 39.152344 39.339844 C 40.445312 41.296875 42.78125 42.304688 45.101562 41.90625 C 44.984375 41.886719 44.871094 41.863281 44.757812 41.835938 Z M 44.757812 41.835938 "/>
<path style=" stroke:none;fill-rule:nonzero;fill:rgb(57.647059%,37.647059%,24.313725%);fill-opacity:1;" d="M 16.800781 12.539062 C 16.949219 12.574219 17.09375 12.613281 17.234375 12.660156 C 17.292969 12.417969 17.367188 12.175781 17.453125 11.945312 C 11.515625 5.226562 4.132812 2.753906 1.453125 2.109375 C 1.1875 2.042969 0.902344 2.097656 0.679688 2.257812 C 0.457031 2.417969 0.3125 2.667969 0.292969 2.945312 L 0.00390625 6.550781 C -0.015625 6.785156 0.0703125 7.015625 0.242188 7.179688 C 0.410156 7.347656 0.644531 7.425781 0.882812 7.402344 C 7.03125 6.691406 12.730469 9.808594 16.324219 12.453125 C 16.484375 12.476562 16.644531 12.503906 16.800781 12.539062 Z M 16.800781 12.539062 "/>
<path style=" stroke:none;fill-rule:nonzero;fill:rgb(49.803922%,34.117647%,23.529412%);fill-opacity:1;" d="M 14.527344 9.042969 C 10.96875 6.769531 6.085938 4.628906 0.882812 5.226562 C 0.589844 5.261719 0.300781 5.128906 0.136719 4.882812 L 0.00390625 6.550781 C -0.015625 6.785156 0.0703125 7.015625 0.242188 7.179688 C 0.410156 7.347656 0.648438 7.425781 0.882812 7.402344 C 7.03125 6.691406 12.730469 9.808594 16.324219 12.453125 C 16.484375 12.476562 16.644531 12.503906 16.800781 12.539062 C 16.949219 12.574219 17.09375 12.613281 17.234375 12.660156 C 17.292969 12.417969 17.363281 12.175781 17.453125 11.945312 C 16.542969 10.914062 15.566406 9.945312 14.527344 9.042969 Z M 14.527344 9.042969 "/>
<path style=" stroke:none;fill-rule:nonzero;fill:rgb(23.137255%,73.72549%,33.72549%);fill-opacity:1;" d="M 8.113281 23.734375 C 8.863281 22.820312 9.875 22.152344 11.015625 21.824219 C 11.199219 22.039062 9.015625 19.890625 9.757812 16.703125 C 10.265625 14.539062 11.964844 12.847656 14.136719 12.339844 C 11.367188 11.429688 7.402344 11.1875 3.253906 13.6875 C 3.082031 13.789062 2.964844 13.964844 2.9375 14.160156 C 2.910156 14.359375 2.96875 14.558594 3.105469 14.703125 C 4 15.667969 5.03125 16.5 6.167969 17.167969 C 6.34375 17.269531 6.457031 17.449219 6.476562 17.648438 C 6.5 17.847656 6.421875 18.046875 6.269531 18.179688 C 5.089844 19.222656 4 20.605469 3.117188 22.425781 C 3.027344 22.601562 3.027344 22.8125 3.109375 22.992188 C 3.195312 23.171875 3.355469 23.308594 3.546875 23.355469 C 5.039062 23.714844 6.582031 23.84375 8.113281 23.734375 Z M 8.113281 23.734375 "/>
<path style=" stroke:none;fill-rule:nonzero;fill:rgb(18.823529%,66.666667%,26.666667%);fill-opacity:1;" d="M 5.679688 23.355469 C 5.488281 23.308594 5.328125 23.171875 5.242188 22.992188 C 5.160156 22.8125 5.160156 22.601562 5.25 22.425781 C 6.132812 20.605469 7.222656 19.222656 8.402344 18.179688 C 8.550781 18.046875 8.628906 17.847656 8.609375 17.648438 C 8.589844 17.449219 8.476562 17.269531 8.300781 17.167969 C 7.164062 16.5 6.132812 15.667969 5.238281 14.703125 C 5.101562 14.558594 5.042969 14.359375 5.070312 14.160156 C 5.097656 13.964844 5.214844 13.789062 5.386719 13.6875 C 7.414062 12.464844 9.398438 11.898438 11.222656 11.746094 C 8.871094 11.546875 6.105469 11.96875 3.253906 13.6875 C 3.082031 13.789062 2.964844 13.964844 2.9375 14.160156 C 2.910156 14.359375 2.96875 14.558594 3.105469 14.703125 C 4 15.667969 5.03125 16.5 6.167969 17.167969 C 6.34375 17.269531 6.457031 17.449219 6.476562 17.648438 C 6.5 17.847656 6.421875 18.046875 6.269531 18.179688 C 5.089844 19.222656 4 20.605469 3.117188 22.425781 C 3.027344 22.601562 3.027344 22.8125 3.109375 22.992188 C 3.195312 23.171875 3.355469 23.308594 3.546875 23.355469 C 5.035156 23.714844 6.570312 23.84375 8.101562 23.734375 C 7.285156 23.675781 6.476562 23.546875 5.679688 23.355469 Z M 5.679688 23.355469 "/>
<path style=" stroke:none;fill-rule:nonzero;fill:rgb(23.137255%,73.72549%,33.72549%);fill-opacity:1;" d="M 24.273438 8.304688 C 24.605469 8.378906 24.925781 8.484375 25.234375 8.613281 C 25.984375 7.460938 27.117188 6.605469 28.4375 6.199219 C 28.773438 3.875 28.050781 1.539062 27.703125 0.457031 C 27.644531 0.269531 27.5 0.117188 27.3125 0.046875 C 27.125 -0.0273438 26.917969 -0.0117188 26.742188 0.0859375 C 24.96875 1.070312 23.652344 2.238281 22.675781 3.46875 C 22.550781 3.628906 22.355469 3.71875 22.152344 3.710938 C 21.953125 3.699219 21.765625 3.597656 21.652344 3.429688 C 20.914062 2.339844 20.023438 1.363281 19 0.53125 C 18.847656 0.40625 18.644531 0.355469 18.449219 0.398438 C 18.25 0.4375 18.085938 0.5625 17.992188 0.738281 C 15.695312 5.078125 16.3125 9.046875 17.425781 11.757812 C 18.5 9.160156 21.4375 7.644531 24.273438 8.304688 Z M 24.273438 8.304688 "/>
<path style=" stroke:none;fill-rule:nonzero;fill:rgb(18.823529%,66.666667%,26.666667%);fill-opacity:1;" d="M 19.78125 1.21875 C 19.488281 0.941406 19.222656 0.710938 19 0.53125 C 18.847656 0.40625 18.644531 0.355469 18.449219 0.398438 C 18.25 0.4375 18.085938 0.5625 17.992188 0.738281 C 15.695312 5.074219 16.3125 9.046875 17.425781 11.757812 C 17.738281 11.003906 18.210938 10.328125 18.8125 9.773438 C 18.242188 7.382812 18.238281 4.410156 19.78125 1.21875 Z M 19.78125 1.21875 "/>
<path style=" stroke:none;fill-rule:nonzero;fill:rgb(45.490196%,30.588235%,66.666667%);fill-opacity:1;" d="M 35.941406 11.664062 C 35.941406 14.914062 33.296875 17.546875 30.03125 17.546875 C 26.769531 17.546875 24.121094 14.914062 24.121094 11.664062 C 24.121094 8.414062 26.769531 5.78125 30.03125 5.78125 C 33.296875 5.78125 35.941406 8.414062 35.941406 11.664062 Z M 35.941406 11.664062 "/>
<path style=" stroke:none;fill-rule:nonzero;fill:rgb(40.392157%,26.666667%,61.960784%);fill-opacity:1;" d="M 30.703125 17.394531 C 27.964844 16.757812 26.054688 14.292969 26.132812 11.496094 C 26.214844 8.699219 28.261719 6.34375 31.03125 5.867188 C 28.710938 5.472656 26.378906 6.484375 25.089844 8.445312 C 23.800781 10.40625 23.804688 12.9375 25.097656 14.894531 C 26.390625 16.855469 28.726562 17.863281 31.042969 17.460938 C 30.929688 17.441406 30.816406 17.421875 30.703125 17.394531 Z M 30.703125 17.394531 "/>
<path style=" stroke:none;fill-rule:nonzero;fill:rgb(45.490196%,30.588235%,66.666667%);fill-opacity:1;" d="M 29.445312 30.769531 C 29.445312 34.019531 26.800781 36.652344 23.535156 36.652344 C 20.273438 36.652344 17.625 34.019531 17.625 30.769531 C 17.625 27.519531 20.273438 24.886719 23.535156 24.886719 C 26.800781 24.886719 29.445312 27.519531 29.445312 30.769531 Z M 29.445312 30.769531 "/>
<path style=" stroke:none;fill-rule:nonzero;fill:rgb(40.392157%,26.666667%,61.960784%);fill-opacity:1;" d="M 24.207031 36.5 C 21.46875 35.867188 19.558594 33.398438 19.640625 30.601562 C 19.71875 27.804688 21.765625 25.449219 24.535156 24.972656 C 22.214844 24.578125 19.882812 25.589844 18.59375 27.550781 C 17.308594 29.511719 17.308594 32.042969 18.601562 34.003906 C 19.894531 35.960938 22.230469 36.96875 24.546875 36.566406 C 24.433594 36.546875 24.320312 36.527344 24.207031 36.5 Z M 24.207031 36.5 "/>
<path style=" stroke:none;fill-rule:nonzero;fill:rgb(45.490196%,30.588235%,66.666667%);fill-opacity:1;" d="M 18.34375 27.386719 C 18.34375 30.636719 15.699219 33.269531 12.4375 33.269531 C 9.171875 33.269531 6.523438 30.636719 6.523438 27.386719 C 6.523438 24.136719 9.171875 21.503906 12.4375 21.503906 C 15.699219 21.503906 18.34375 24.136719 18.34375 27.386719 Z M 18.34375 27.386719 "/>
<path style=" stroke:none;fill-rule:nonzero;fill:rgb(40.392157%,26.666667%,61.960784%);fill-opacity:1;" d="M 13.105469 33.117188 C 10.367188 32.480469 8.457031 30.015625 8.539062 27.21875 C 8.617188 24.421875 10.664062 22.066406 13.433594 21.589844 C 11.113281 21.195312 8.78125 22.207031 7.492188 24.167969 C 6.207031 26.128906 6.207031 28.660156 7.5 30.617188 C 8.792969 32.578125 11.128906 33.585938 13.445312 33.183594 C 13.332031 33.164062 13.21875 33.144531 13.105469 33.117188 Z M 13.105469 33.117188 "/>
<path style=" stroke:none;fill-rule:nonzero;fill:rgb(33.333333%,21.568627%,53.333333%);fill-opacity:1;" d="M 28.6875 13.746094 C 28.6875 16.996094 26.042969 19.628906 22.777344 19.628906 C 19.515625 19.628906 16.867188 16.996094 16.867188 13.746094 C 16.867188 10.496094 19.515625 7.863281 22.777344 7.863281 C 26.042969 7.863281 28.6875 10.496094 28.6875 13.746094 Z M 28.6875 13.746094 "/>
<path style=" stroke:none;fill-rule:nonzero;fill:rgb(27.45098%,18.039216%,47.843137%);fill-opacity:1;" d="M 23.449219 19.476562 C 20.714844 18.84375 18.804688 16.375 18.882812 13.578125 C 18.960938 10.78125 21.007812 8.429688 23.777344 7.949219 C 21.457031 7.554688 19.125 8.566406 17.835938 10.527344 C 16.546875 12.488281 16.550781 15.019531 17.84375 16.980469 C 19.136719 18.9375 21.472656 19.945312 23.789062 19.542969 C 23.675781 19.523438 23.5625 19.503906 23.449219 19.476562 Z M 23.449219 19.476562 "/>
<path style=" stroke:none;fill-rule:nonzero;fill:rgb(57.254902%,40%,80%);fill-opacity:1;" d="M 37.0625 19.484375 C 37.0625 22.707031 34.4375 25.324219 31.199219 25.324219 C 27.960938 25.324219 25.335938 22.707031 25.335938 19.484375 C 25.335938 16.257812 27.960938 13.644531 31.199219 13.644531 C 34.4375 13.644531 37.0625 16.257812 37.0625 19.484375 Z M 37.0625 19.484375 "/>
<path style=" stroke:none;fill-rule:nonzero;fill:rgb(48.235294%,32.941176%,72.941176%);fill-opacity:1;" d="M 31.882812 25.171875 C 29.164062 24.539062 27.269531 22.09375 27.347656 19.320312 C 27.425781 16.546875 29.453125 14.207031 32.199219 13.730469 C 29.898438 13.332031 27.578125 14.335938 26.296875 16.285156 C 25.015625 18.230469 25.015625 20.75 26.300781 22.691406 C 27.585938 24.636719 29.90625 25.636719 32.210938 25.234375 C 32.101562 25.21875 31.992188 25.195312 31.882812 25.171875 Z M 31.882812 25.171875 "/>
<path style=" stroke:none;fill-rule:nonzero;fill:rgb(57.254902%,40%,80%);fill-opacity:1;" d="M 46.117188 27.613281 C 46.117188 30.839844 43.492188 33.453125 40.253906 33.453125 C 37.015625 33.453125 34.390625 30.839844 34.390625 27.613281 C 34.390625 24.386719 37.015625 21.773438 40.253906 21.773438 C 43.492188 21.773438 46.117188 24.386719 46.117188 27.613281 Z M 46.117188 27.613281 "/>
<path style=" stroke:none;fill-rule:nonzero;fill:rgb(48.235294%,32.941176%,72.941176%);fill-opacity:1;" d="M 40.9375 33.300781 C 38.21875 32.671875 36.324219 30.226562 36.402344 27.449219 C 36.480469 24.675781 38.507812 22.339844 41.253906 21.859375 C 38.949219 21.464844 36.632812 22.46875 35.351562 24.414062 C 34.070312 26.359375 34.070312 28.878906 35.355469 30.824219 C 36.640625 32.765625 38.960938 33.765625 41.265625 33.367188 C 41.15625 33.347656 41.046875 33.324219 40.9375 33.300781 Z M 40.9375 33.300781 "/>
<path style=" stroke:none;fill-rule:nonzero;fill:rgb(57.254902%,40%,80%);fill-opacity:1;" d="M 40.4375 35.339844 C 40.4375 38.5625 37.808594 41.179688 34.570312 41.179688 C 31.332031 41.179688 28.703125 38.5625 28.703125 35.339844 C 28.703125 32.113281 31.332031 29.5 34.570312 29.5 C 37.808594 29.5 40.4375 32.113281 40.4375 35.339844 Z M 40.4375 35.339844 "/>
<path style=" stroke:none;fill-rule:nonzero;fill:rgb(48.235294%,32.941176%,72.941176%);fill-opacity:1;" d="M 35.253906 41.027344 C 32.539062 40.398438 30.640625 37.953125 30.71875 35.175781 C 30.796875 32.402344 32.824219 30.066406 35.570312 29.585938 C 33.269531 29.191406 30.949219 30.195312 29.667969 32.140625 C 28.386719 34.085938 28.386719 36.605469 29.671875 38.546875 C 30.957031 40.492188 33.277344 41.492188 35.582031 41.09375 C 35.472656 41.074219 35.363281 41.050781 35.253906 41.027344 Z M 35.253906 41.027344 "/>
<path style=" stroke:none;fill-rule:nonzero;fill:rgb(57.254902%,40%,80%);fill-opacity:1;" d="M 21.136719 18.027344 C 21.136719 21.253906 18.511719 23.867188 15.269531 23.867188 C 12.03125 23.867188 9.40625 21.253906 9.40625 18.027344 C 9.40625 14.804688 12.03125 12.1875 15.269531 12.1875 C 18.511719 12.1875 21.136719 14.804688 21.136719 18.027344 Z M 21.136719 18.027344 "/>
<path style=" stroke:none;fill-rule:nonzero;fill:rgb(48.235294%,32.941176%,72.941176%);fill-opacity:1;" d="M 15.953125 23.714844 C 13.238281 23.085938 11.339844 20.640625 11.417969 17.863281 C 11.496094 15.089844 13.523438 12.753906 16.269531 12.273438 C 13.96875 11.878906 11.648438 12.882812 10.367188 14.828125 C 9.085938 16.773438 9.089844 19.292969 10.371094 21.238281 C 11.65625 23.179688 13.980469 24.179688 16.28125 23.78125 C 16.171875 23.761719 16.0625 23.742188 15.953125 23.714844 Z M 15.953125 23.714844 "/>
<path style=" stroke:none;fill-rule:nonzero;fill:rgb(66.666667%,55.294118%,84.705882%);fill-opacity:1;" d="M 28.226562 23.777344 C 28.226562 27 25.601562 29.617188 22.359375 29.617188 C 19.121094 29.617188 16.496094 27 16.496094 23.777344 C 16.496094 20.550781 19.121094 17.9375 22.359375 17.9375 C 25.601562 17.9375 28.226562 20.550781 28.226562 23.777344 Z M 28.226562 23.777344 "/>
<path style=" stroke:none;fill-rule:nonzero;fill:rgb(59.607843%,49.803922%,78.823529%);fill-opacity:1;" d="M 23.019531 29.464844 C 20.304688 28.835938 18.410156 26.386719 18.484375 23.613281 C 18.5625 20.839844 20.589844 18.5 23.335938 18.023438 C 21.035156 17.628906 18.714844 18.628906 17.433594 20.578125 C 16.152344 22.523438 16.15625 25.042969 17.4375 26.984375 C 18.722656 28.929688 21.046875 29.929688 23.347656 29.53125 C 23.238281 29.511719 23.128906 29.488281 23.019531 29.464844 Z M 23.019531 29.464844 "/>
<path style=" stroke:none;fill-rule:nonzero;fill:rgb(66.666667%,55.294118%,84.705882%);fill-opacity:1;" d="M 37.382812 27.613281 C 37.382812 30.839844 34.757812 33.453125 31.515625 33.453125 C 28.277344 33.453125 25.652344 30.839844 25.652344 27.613281 C 25.652344 24.386719 28.277344 21.773438 31.515625 21.773438 C 34.757812 21.773438 37.382812 24.386719 37.382812 27.613281 Z M 37.382812 27.613281 "/>
<path style=" stroke:none;fill-rule:nonzero;fill:rgb(59.607843%,49.803922%,78.823529%);fill-opacity:1;" d="M 32.171875 33.300781 C 29.457031 32.671875 27.5625 30.226562 27.640625 27.449219 C 27.71875 24.675781 29.746094 22.339844 32.492188 21.859375 C 30.1875 21.464844 27.867188 22.46875 26.589844 24.414062 C 25.308594 26.359375 25.308594 28.878906 26.59375 30.824219 C 27.878906 32.765625 30.199219 33.765625 32.503906 33.367188 C 32.390625 33.347656 32.28125 33.324219 32.171875 33.300781 Z M 32.171875 33.300781 "/>
</g>
</svg>
