<?xml version="1.0" encoding="UTF-8"?>
<svg xmlns="http://www.w3.org/2000/svg" xmlns:xlink="http://www.w3.org/1999/xlink" width="50" height="55" viewBox="0 0 50 55" version="1.1">
<g id="surface1">
<path style=" stroke:none;fill-rule:nonzero;fill:rgb(81.960784%,21.960784%,20.392157%);fill-opacity:1;" d="M 0 35.667969 C 0 28.332031 5.160156 22.394531 11.539062 22.394531 L 13.460938 22.394531 C 19.839844 22.394531 25 28.332031 25 35.667969 C 25 42.476562 19.402344 47.996094 12.5 47.996094 C 5.597656 47.996094 0 42.476562 0 35.667969 Z M 0 35.667969 "/>
<path style=" stroke:none;fill-rule:nonzero;fill:rgb(92.941176%,24.705882%,19.607843%);fill-opacity:1;" d="M 10.535156 44.933594 C 10.464844 44.933594 10.394531 44.925781 10.324219 44.914062 C 6.929688 44.175781 4.171875 41.734375 3.070312 38.480469 C 2.945312 38.152344 3.011719 37.785156 3.246094 37.519531 C 3.476562 37.257812 3.839844 37.140625 4.183594 37.21875 C 4.53125 37.296875 4.804688 37.554688 4.898438 37.894531 C 5.808594 40.5 8.019531 42.453125 10.746094 43.0625 C 11.222656 43.167969 11.546875 43.609375 11.492188 44.089844 C 11.4375 44.570312 11.027344 44.933594 10.535156 44.933594 Z M 10.535156 44.933594 "/>
<path style=" stroke:none;fill-rule:nonzero;fill:rgb(92.941176%,24.705882%,19.607843%);fill-opacity:1;" d="M 3.777344 34.339844 C 3.710938 34.339844 3.648438 34.332031 3.585938 34.320312 C 3.0625 34.214844 2.726562 33.714844 2.832031 33.203125 C 3.089844 31.933594 3.570312 30.71875 4.25 29.613281 C 4.527344 29.167969 5.121094 29.023438 5.574219 29.296875 C 6.027344 29.570312 6.171875 30.15625 5.894531 30.601562 C 5.328125 31.519531 4.929688 32.527344 4.71875 33.578125 C 4.628906 34.019531 4.234375 34.339844 3.777344 34.339844 Z M 3.777344 34.339844 "/>
<path style=" stroke:none;fill-rule:nonzero;fill:rgb(92.941176%,24.705882%,19.607843%);fill-opacity:1;" d="M 25 42.304688 C 25 34.96875 30.160156 29.03125 36.539062 29.03125 L 38.460938 29.03125 C 44.839844 29.03125 50 34.96875 50 42.304688 C 50 49.113281 44.402344 54.632812 37.5 54.632812 C 30.597656 54.632812 25 49.113281 25 42.304688 Z M 25 42.304688 "/>
<path style=" stroke:none;fill-rule:nonzero;fill:rgb(92.941176%,24.705882%,19.607843%);fill-opacity:1;" d="M 20.191406 31.875 C 17.007812 31.871094 14.425781 29.328125 14.421875 26.1875 C 14.421875 25.660156 14.855469 25.238281 15.382812 25.238281 C 15.914062 25.238281 16.347656 25.660156 16.347656 26.1875 C 16.347656 28.28125 18.066406 29.980469 20.191406 29.980469 C 20.722656 29.980469 21.152344 30.402344 21.152344 30.925781 C 21.152344 31.449219 20.722656 31.875 20.191406 31.875 Z M 20.191406 31.875 "/>
<path style=" stroke:none;fill-rule:nonzero;fill:rgb(92.941176%,44.313725%,38.039216%);fill-opacity:1;" d="M 43.269531 38.511719 C 40.085938 38.511719 37.503906 35.964844 37.5 32.824219 C 37.5 32.300781 37.929688 31.875 38.460938 31.875 C 38.992188 31.875 39.421875 32.300781 39.421875 32.824219 C 39.421875 34.917969 41.144531 36.617188 43.269531 36.617188 C 43.800781 36.617188 44.230469 37.042969 44.230469 37.566406 C 44.230469 38.089844 43.800781 38.511719 43.269531 38.511719 Z M 43.269531 38.511719 "/>
<path style=" stroke:none;fill-rule:nonzero;fill:rgb(29.803922%,19.215686%,17.254902%);fill-opacity:1;" d="M 41.34375 34.71875 C 41.003906 34.71875 40.691406 34.542969 40.515625 34.253906 C 40.34375 33.960938 40.339844 33.605469 40.503906 33.3125 C 44.570312 26.09375 43.90625 20.019531 37.660156 10.117188 C 36.140625 20.558594 26.679688 29.003906 18.816406 29.003906 C 18.285156 29.003906 17.855469 28.578125 17.855469 28.054688 C 17.855469 27.53125 18.285156 27.105469 18.816406 27.105469 C 26.367188 27.105469 35.945312 17.742188 35.945312 7.21875 C 35.945312 6.800781 36.222656 6.433594 36.628906 6.3125 C 37.035156 6.191406 37.472656 6.347656 37.707031 6.695312 C 44.617188 16.910156 47.5625 24.6875 42.1875 34.234375 C 42.015625 34.535156 41.695312 34.71875 41.34375 34.71875 Z M 41.34375 34.71875 "/>
<path style=" stroke:none;fill-rule:nonzero;fill:rgb(53.333333%,75.294118%,34.117647%);fill-opacity:1;" d="M 36.539062 6.726562 C 40.394531 9.515625 46.296875 8.035156 49.128906 4.230469 C 45.265625 1.441406 39.367188 2.921875 36.539062 6.726562 Z M 36.539062 6.726562 "/>
<path style=" stroke:none;fill-rule:nonzero;fill:rgb(39.607843%,61.176471%,20.784314%);fill-opacity:1;" d="M 25.960938 0.105469 C 26.6875 4.765625 31.921875 7.832031 36.652344 7.117188 C 35.921875 2.453125 30.6875 -0.613281 25.960938 0.105469 Z M 25.960938 0.105469 "/>
<path style=" stroke:none;fill-rule:nonzero;fill:rgb(92.941176%,44.313725%,38.039216%);fill-opacity:1;" d="M 35.398438 51.898438 C 35.328125 51.898438 35.257812 51.890625 35.1875 51.878906 C 31.792969 51.140625 29.035156 48.699219 27.933594 45.441406 C 27.796875 44.957031 28.074219 44.449219 28.5625 44.292969 C 29.050781 44.136719 29.578125 44.386719 29.757812 44.859375 C 30.667969 47.464844 32.882812 49.417969 35.605469 50.027344 C 36.085938 50.132812 36.40625 50.574219 36.351562 51.054688 C 36.300781 51.535156 35.886719 51.898438 35.398438 51.898438 Z M 35.398438 51.898438 "/>
</g>
</svg>
