<?xml version="1.0" encoding="UTF-8"?>
<svg xmlns="http://www.w3.org/2000/svg" xmlns:xlink="http://www.w3.org/1999/xlink" width="50" height="61" viewBox="0 0 50 61" version="1.1">
<g id="surface1">
<path style=" stroke:none;fill-rule:nonzero;fill:rgb(99.607843%,59.215686%,21.960784%);fill-opacity:1;" d="M 49.953125 36.242188 C 49.953125 49.914062 38.769531 61 24.976562 61 C 11.183594 61 0 49.914062 0 36.242188 C 0 22.570312 11.183594 11.484375 24.976562 11.484375 C 38.769531 11.484375 49.953125 22.570312 49.953125 36.242188 Z M 49.953125 36.242188 "/>
<path style=" stroke:none;fill-rule:nonzero;fill:rgb(99.607843%,52.54902%,3.921569%);fill-opacity:1;" d="M 49.953125 36.242188 C 49.953125 49.917969 38.769531 61 24.976562 61 C 22.398438 61.003906 19.835938 60.609375 17.382812 59.835938 C 19.089844 60.191406 20.832031 60.371094 22.578125 60.371094 C 36.371094 60.371094 47.554688 49.285156 47.554688 35.613281 C 47.554688 24.566406 40.25 15.207031 30.171875 12.023438 C 41.472656 14.390625 49.953125 24.335938 49.953125 36.242188 Z M 49.953125 36.242188 "/>
<path style=" stroke:none;fill-rule:nonzero;fill:rgb(0%,76.078431%,47.843137%);fill-opacity:1;" d="M 33.976562 12.722656 C 34.984375 12.179688 35.894531 11.472656 36.660156 10.632812 C 37.875 9.34375 38.640625 7.707031 38.855469 5.960938 C 38.875 5.765625 38.78125 5.578125 38.609375 5.480469 C 37.085938 4.625 35.328125 4.269531 33.585938 4.460938 C 32.167969 4.601562 30.695312 5.003906 29.511719 5.816406 C 27.621094 7.109375 26.085938 9.039062 25.597656 11.308594 C 25.527344 11.644531 25.242188 12.519531 25.714844 12.777344 C 26.152344 13.011719 26.609375 13.207031 27.082031 13.355469 C 29.304688 14.0625 31.910156 13.8125 33.976562 12.722656 Z M 33.976562 12.722656 "/>
<path style=" stroke:none;fill-rule:nonzero;fill:rgb(3.137255%,72.156863%,39.607843%);fill-opacity:1;" d="M 38.855469 5.960938 C 38.644531 7.707031 37.875 9.34375 36.660156 10.632812 C 35.894531 11.472656 34.984375 12.183594 33.976562 12.722656 C 31.910156 13.8125 29.304688 14.0625 27.082031 13.359375 C 26.609375 13.207031 26.152344 13.011719 25.714844 12.777344 C 25.542969 12.683594 25.441406 12.5 25.457031 12.308594 C 25.46875 12.15625 25.480469 11.996094 25.488281 11.960938 C 25.488281 11.945312 25.492188 11.925781 25.496094 11.910156 C 27.730469 12.527344 30.121094 12.277344 32.175781 11.210938 C 33.183594 10.671875 34.09375 9.964844 34.859375 9.121094 C 35.992188 7.917969 36.738281 6.410156 37.011719 4.789062 C 37.566406 4.960938 38.105469 5.191406 38.609375 5.480469 C 38.78125 5.578125 38.875 5.765625 38.855469 5.960938 Z M 38.855469 5.960938 "/>
<path style=" stroke:none;fill-rule:nonzero;fill:rgb(84.313725%,49.803922%,29.019608%);fill-opacity:1;" d="M 22.757812 14.023438 C 22.4375 11.839844 22.007812 5.941406 22.40625 2.328125 C 22.492188 1.554688 22.917969 0.859375 23.574219 0.429688 C 24.230469 0.00390625 25.042969 -0.109375 25.792969 0.117188 L 25.859375 0.140625 C 27.121094 0.527344 27.898438 1.785156 27.664062 3.074219 C 27.261719 5.351562 26.734375 10.792969 26.699219 13.753906 C 26.691406 14.78125 25.886719 15.628906 24.851562 15.699219 C 23.820312 15.769531 22.90625 15.039062 22.757812 14.023438 Z M 22.757812 14.023438 "/>
<path style=" stroke:none;fill-rule:nonzero;fill:rgb(78.431373%,42.745098%,21.176471%);fill-opacity:1;" d="M 27.664062 3.074219 C 27.261719 5.351562 26.734375 10.792969 26.699219 13.753906 C 26.691406 14.503906 26.257812 15.183594 25.578125 15.507812 C 24.898438 15.832031 24.089844 15.746094 23.496094 15.285156 C 23.972656 14.914062 24.25 14.351562 24.257812 13.753906 C 24.292969 10.792969 24.820312 5.351562 25.222656 3.074219 C 25.429688 1.941406 24.851562 0.808594 23.8125 0.292969 C 24.421875 -0.0234375 25.132812 -0.0859375 25.792969 0.117188 C 25.8125 0.125 25.835938 0.132812 25.859375 0.140625 C 27.121094 0.527344 27.898438 1.785156 27.664062 3.074219 Z M 27.664062 3.074219 "/>
<path style=" stroke:none;fill-rule:nonzero;fill:rgb(89.803922%,47.45098%,9.019608%);fill-opacity:1;" d="M 24.667969 20.140625 C 23.371094 20.152344 22.109375 19.710938 21.109375 18.890625 C 20.71875 18.5625 20.671875 17.980469 21.003906 17.59375 C 21.335938 17.207031 21.921875 17.160156 22.308594 17.488281 C 23.628906 18.601562 25.832031 18.570312 27.121094 17.421875 C 27.5 17.09375 28.078125 17.128906 28.417969 17.5 C 28.753906 17.875 28.730469 18.445312 28.359375 18.789062 C 27.339844 19.671875 26.027344 20.15625 24.667969 20.140625 Z M 24.667969 20.140625 "/>
</g>
</svg>
