<?xml version="1.0" encoding="UTF-8"?>
<svg xmlns="http://www.w3.org/2000/svg" xmlns:xlink="http://www.w3.org/1999/xlink" width="50" height="73" viewBox="0 0 50 73" version="1.1">
<g id="surface1">
<path style=" stroke:none;fill-rule:nonzero;fill:rgb(36.862745%,77.647059%,18.039216%);fill-opacity:1;" d="M 21.648438 18.65625 C 19.773438 17.140625 17.796875 15.757812 15.726562 14.511719 L 15.699219 14.503906 C 10.828125 13.820312 5.90625 15.875 2.1875 20.140625 C 2.027344 20.324219 2.007812 20.589844 2.140625 20.792969 C 2.230469 20.941406 2.394531 21.035156 2.570312 21.035156 C 2.617188 21.035156 2.667969 21.027344 2.714844 21.015625 C 7.742188 19.609375 12.992188 19.171875 18.1875 19.726562 L 18.203125 19.730469 L 18.21875 19.722656 C 19.320312 19.308594 20.457031 18.992188 21.617188 18.785156 L 21.773438 18.757812 Z M 21.648438 18.65625 "/>
<path style=" stroke:none;fill-rule:nonzero;fill:rgb(30.588235%,66.666667%,9.411765%);fill-opacity:1;" d="M 5.136719 20.140625 C 8.007812 16.847656 11.597656 14.871094 15.328125 14.457031 C 10.578125 13.925781 5.808594 15.984375 2.1875 20.140625 C 2.027344 20.324219 2.007812 20.589844 2.140625 20.792969 C 2.230469 20.941406 2.394531 21.035156 2.570312 21.035156 C 2.617188 21.035156 2.664062 21.027344 2.710938 21.015625 C 3.472656 20.800781 4.238281 20.613281 5.003906 20.445312 C 5.015625 20.332031 5.0625 20.226562 5.136719 20.140625 Z M 5.136719 20.140625 "/>
<path style=" stroke:none;fill-rule:nonzero;fill:rgb(36.862745%,77.647059%,18.039216%);fill-opacity:1;" d="M 23.527344 18.449219 C 22.390625 15.273438 20.875 12.242188 19.011719 9.425781 L 18.996094 9.40625 C 13.988281 5.503906 7.21875 4.726562 0.429688 7.277344 C 0.152344 7.378906 -0.0234375 7.648438 0 7.941406 C 0.015625 8.21875 0.214844 8.457031 0.488281 8.515625 C 8.203125 10.300781 15.410156 13.804688 21.5625 18.769531 L 21.589844 18.789062 L 21.621094 18.785156 C 22.226562 18.675781 22.847656 18.597656 23.464844 18.546875 L 23.5625 18.539062 Z M 23.527344 18.449219 "/>
<path style=" stroke:none;fill-rule:nonzero;fill:rgb(30.588235%,66.666667%,9.411765%);fill-opacity:1;" d="M 22.488281 15.832031 C 16.816406 11.714844 10.371094 8.777344 3.53125 7.199219 C 3.257812 7.136719 3.058594 6.902344 3.042969 6.625 C 3.039062 6.566406 3.042969 6.511719 3.054688 6.457031 C 2.164062 6.679688 1.289062 6.953125 0.429688 7.277344 C 0.152344 7.378906 -0.0234375 7.648438 0 7.941406 C 0.015625 8.21875 0.214844 8.457031 0.488281 8.515625 C 8.203125 10.300781 15.410156 13.804688 21.5625 18.769531 L 21.589844 18.789062 L 21.621094 18.785156 C 22.226562 18.675781 22.847656 18.597656 23.464844 18.546875 L 23.5625 18.539062 L 23.527344 18.449219 C 23.210938 17.566406 22.867188 16.691406 22.488281 15.832031 Z M 22.488281 15.832031 "/>
<path style=" stroke:none;fill-rule:nonzero;fill:rgb(36.862745%,77.647059%,18.039216%);fill-opacity:1;" d="M 25.085938 11.519531 L 25.089844 11.507812 L 25.085938 11.492188 C 23.796875 5.21875 18.824219 0.925781 11.789062 0.00390625 C 11.550781 -0.0273438 11.324219 0.101562 11.226562 0.320312 C 11.128906 0.527344 11.183594 0.777344 11.359375 0.925781 C 16.820312 5.660156 20.960938 11.710938 23.390625 18.496094 L 23.410156 18.550781 L 23.464844 18.546875 C 23.945312 18.507812 24.4375 18.488281 24.929688 18.484375 L 24.988281 18.484375 L 25.027344 18.316406 C 25.046875 18.21875 25.066406 18.121094 25.085938 18.023438 L 25.089844 18.011719 L 25.085938 17.996094 C 24.664062 15.859375 24.664062 13.660156 25.085938 11.519531 Z M 25.085938 11.519531 "/>
<path style=" stroke:none;fill-rule:nonzero;fill:rgb(30.588235%,66.666667%,9.411765%);fill-opacity:1;" d="M 24.769531 14.710938 C 22.28125 9.445312 18.71875 4.75 14.308594 0.929688 C 14.171875 0.8125 14.105469 0.632812 14.136719 0.457031 C 13.363281 0.257812 12.582031 0.109375 11.789062 0.00390625 C 11.550781 -0.0273438 11.324219 0.101562 11.226562 0.320312 C 11.128906 0.527344 11.183594 0.777344 11.359375 0.929688 C 16.820312 5.660156 20.960938 11.710938 23.390625 18.5 L 23.410156 18.550781 L 23.464844 18.546875 C 23.945312 18.507812 24.4375 18.488281 24.929688 18.484375 L 24.988281 18.484375 L 25.027344 18.316406 C 25.046875 18.21875 25.066406 18.121094 25.085938 18.023438 L 25.089844 18.011719 L 25.085938 17.996094 C 24.878906 16.914062 24.773438 15.8125 24.769531 14.710938 Z M 24.769531 14.710938 "/>
<path style=" stroke:none;fill-rule:nonzero;fill:rgb(36.862745%,77.647059%,18.039216%);fill-opacity:1;" d="M 47.839844 20.140625 C 41.527344 12.894531 34.3125 14.515625 34.296875 14.511719 C 32.230469 15.757812 30.253906 17.140625 28.375 18.65625 L 28.25 18.757812 L 28.410156 18.785156 C 29.570312 18.992188 30.707031 19.308594 31.804688 19.722656 L 31.824219 19.730469 L 31.839844 19.726562 C 37.035156 19.171875 42.285156 19.609375 47.3125 21.015625 C 47.359375 21.027344 47.410156 21.035156 47.457031 21.035156 C 47.632812 21.035156 47.796875 20.941406 47.886719 20.792969 C 48.019531 20.589844 48 20.324219 47.839844 20.140625 Z M 47.839844 20.140625 "/>
<path style=" stroke:none;fill-rule:nonzero;fill:rgb(30.588235%,66.666667%,9.411765%);fill-opacity:1;" d="M 34.296875 14.511719 C 32.230469 15.757812 30.253906 17.140625 28.375 18.65625 L 28.25 18.757812 L 28.410156 18.785156 C 29.570312 18.992188 30.707031 19.308594 31.804688 19.722656 L 31.824219 19.730469 L 31.839844 19.726562 C 31.914062 19.71875 31.988281 19.710938 32.0625 19.707031 C 34.5625 17.871094 37.226562 16.273438 40.023438 14.9375 C 36.9375 14.027344 34.703125 14.5 34.296875 14.511719 Z M 34.296875 14.511719 "/>
<path style=" stroke:none;fill-rule:nonzero;fill:rgb(36.862745%,77.647059%,18.039216%);fill-opacity:1;" d="M 49.597656 7.277344 C 38.085938 2.957031 31.03125 9.417969 31.015625 9.425781 C 29.152344 12.242188 27.636719 15.273438 26.496094 18.449219 L 26.464844 18.539062 L 26.5625 18.546875 C 27.179688 18.597656 27.796875 18.675781 28.402344 18.785156 L 28.4375 18.789062 L 28.464844 18.769531 C 34.617188 13.804688 41.820312 10.300781 49.539062 8.515625 C 49.8125 8.457031 50.011719 8.222656 50.023438 7.941406 C 50.050781 7.648438 49.875 7.378906 49.597656 7.277344 Z M 49.597656 7.277344 "/>
<path style=" stroke:none;fill-rule:nonzero;fill:rgb(30.588235%,66.666667%,9.411765%);fill-opacity:1;" d="M 33.878906 10.035156 C 34.128906 9.644531 34.445312 9.300781 34.8125 9.015625 C 37.457031 6.957031 40.074219 6.15625 43.449219 5.871094 C 38.847656 5.492188 34.511719 6.691406 31.03125 9.40625 C 30.695312 9.984375 28.367188 13.234375 26.496094 18.449219 L 26.464844 18.539062 L 26.5625 18.546875 C 27.179688 18.597656 27.796875 18.675781 28.402344 18.785156 L 28.4375 18.789062 L 28.464844 18.769531 C 29.003906 18.332031 29.554688 17.90625 30.117188 17.488281 C 31.121094 14.886719 32.382812 12.390625 33.878906 10.035156 Z M 33.878906 10.035156 "/>
<path style=" stroke:none;fill-rule:nonzero;fill:rgb(36.862745%,77.647059%,18.039216%);fill-opacity:1;" d="M 38.796875 0.320312 C 38.703125 0.101562 38.472656 -0.0273438 38.238281 0.00390625 C 28.574219 1.269531 23.039062 8.960938 25.023438 18.425781 L 25.035156 18.484375 L 25.09375 18.484375 C 25.582031 18.488281 26.078125 18.507812 26.5625 18.546875 L 26.617188 18.550781 L 26.636719 18.496094 C 29.066406 11.710938 33.207031 5.660156 38.667969 0.929688 C 38.84375 0.777344 38.898438 0.527344 38.796875 0.320312 Z M 38.796875 0.320312 "/>
<path style=" stroke:none;fill-rule:nonzero;fill:rgb(36.862745%,77.647059%,18.039216%);fill-opacity:1;" d="M 38.796875 0.320312 C 38.703125 0.101562 38.472656 -0.0273438 38.238281 0.00390625 C 28.574219 1.269531 23.039062 8.960938 25.023438 18.425781 L 25.035156 18.484375 L 25.09375 18.484375 C 25.582031 18.488281 26.078125 18.507812 26.5625 18.546875 L 26.617188 18.550781 L 26.636719 18.496094 C 29.066406 11.710938 33.207031 5.660156 38.667969 0.929688 C 38.84375 0.777344 38.898438 0.527344 38.796875 0.320312 Z M 38.796875 0.320312 "/>
<path style=" stroke:none;fill-rule:nonzero;fill:rgb(30.588235%,66.666667%,9.411765%);fill-opacity:1;" d="M 38.832031 0.421875 C 38.824219 0.386719 38.8125 0.351562 38.796875 0.320312 C 38.703125 0.101562 38.472656 -0.0273438 38.238281 0.00390625 C 28.574219 1.269531 23.039062 8.960938 25.023438 18.425781 L 25.035156 18.484375 L 25.09375 18.484375 C 25.582031 18.488281 26.078125 18.507812 26.5625 18.546875 L 26.617188 18.550781 L 26.636719 18.496094 C 26.902344 17.753906 27.191406 17.015625 27.5 16.289062 C 26.804688 8.664062 31.085938 2.367188 38.832031 0.421875 Z M 38.832031 0.421875 "/>
<path style=" stroke:none;fill-rule:nonzero;fill:rgb(100%,78.431373%,31.372549%);fill-opacity:1;" d="M 25.011719 18.203125 C 14.257812 18.203125 5.460938 26.960938 5.460938 37.664062 L 5.460938 53.539062 C 5.460938 64.242188 14.257812 73 25.011719 73 C 35.769531 73 44.566406 64.242188 44.566406 53.539062 L 44.566406 37.664062 C 44.566406 26.960938 35.769531 18.203125 25.011719 18.203125 Z M 25.011719 18.203125 "/>
<path style=" stroke:none;fill-rule:nonzero;fill:rgb(97.647059%,70.588235%,15.686275%);fill-opacity:1;" d="M 8.410156 53.539062 L 8.410156 37.664062 C 8.410156 27.453125 16.414062 19.015625 26.488281 18.257812 C 26 18.222656 25.507812 18.203125 25.011719 18.203125 C 14.257812 18.203125 5.460938 26.960938 5.460938 37.664062 L 5.460938 53.539062 C 5.460938 64.242188 14.257812 73 25.011719 73 C 25.507812 73 26 72.980469 26.488281 72.945312 C 16.414062 72.1875 8.410156 63.75 8.410156 53.539062 Z M 8.410156 53.539062 "/>
<path style=" stroke:none;fill-rule:nonzero;fill:rgb(92.941176%,61.568627%,5.882353%);fill-opacity:1;" d="M 41.417969 64.097656 C 41.835938 63.457031 42.214844 62.796875 42.550781 62.113281 L 36.847656 56.433594 L 44.566406 48.75 L 44.566406 44.351562 L 36.875 36.695312 L 43.164062 30.449219 C 42.871094 29.726562 42.535156 29.019531 42.160156 28.339844 L 35.3125 35.140625 L 26.902344 26.769531 L 33.535156 20.160156 C 32.816406 19.8125 32.078125 19.507812 31.320312 19.25 L 25.335938 25.210938 L 19.183594 19.089844 C 18.414062 19.332031 17.660156 19.621094 16.925781 19.957031 L 23.773438 26.769531 L 15.414062 35.105469 L 8.136719 27.863281 C 7.746094 28.53125 7.394531 29.21875 7.082031 29.925781 L 13.847656 36.660156 L 5.488281 44.996094 L 5.460938 44.964844 L 5.460938 48.136719 L 5.488281 48.109375 L 13.863281 56.441406 L 7.703125 62.558594 C 8.058594 63.226562 8.449219 63.875 8.878906 64.5 L 15.425781 58 L 23.785156 66.320312 L 18.277344 71.800781 C 19.066406 72.09375 19.871094 72.332031 20.6875 72.515625 L 25.351562 67.875 L 29.882812 72.386719 C 30.683594 72.179688 31.46875 71.921875 32.238281 71.613281 L 26.914062 66.320312 L 35.28125 57.992188 Z M 43.648438 46.550781 L 35.285156 54.878906 L 26.933594 46.570312 L 35.308594 38.25 Z M 25.335938 28.328125 L 33.746094 36.695312 L 25.371094 45.011719 L 16.976562 36.660156 Z M 7.050781 46.550781 L 15.414062 38.21875 L 23.804688 46.566406 L 15.429688 54.886719 Z M 25.351562 64.761719 L 16.992188 56.441406 L 25.367188 48.125 L 33.71875 56.433594 Z M 25.351562 64.761719 "/>
</g>
</svg>
