<?xml version="1.0" encoding="UTF-8"?>
<svg xmlns="http://www.w3.org/2000/svg" xmlns:xlink="http://www.w3.org/1999/xlink" width="50" height="41" viewBox="0 0 50 41" version="1.1">
<g id="surface1">
<path style=" stroke:none;fill-rule:nonzero;fill:rgb(30.980392%,72.941176%,43.529412%);fill-opacity:1;" d="M 44.617188 31.457031 C 36.253906 41.941406 21.011719 43.964844 10.160156 36.035156 C -0.6875 28.101562 -3.238281 13.078125 4.398438 2.066406 C 4.535156 1.878906 4.742188 1.75 4.972656 1.714844 C 5.203125 1.679688 5.4375 1.738281 5.625 1.878906 L 6.996094 2.886719 L 7.691406 3.390625 C 0.628906 12.882812 2.664062 26.253906 12.246094 33.253906 C 21.824219 40.253906 35.316406 38.234375 42.382812 28.742188 L 43.074219 29.246094 L 44.441406 30.246094 C 44.632812 30.382812 44.753906 30.589844 44.789062 30.816406 C 44.820312 31.042969 44.757812 31.277344 44.617188 31.457031 Z M 44.617188 31.457031 "/>
<path style=" stroke:none;fill-rule:nonzero;fill:rgb(100%,32.54902%,39.215686%);fill-opacity:1;" d="M 42.382812 28.742188 C 35.316406 38.234375 21.824219 40.253906 12.246094 33.253906 C 2.664062 26.253906 0.628906 12.882812 7.691406 3.390625 L 8.382812 3.894531 L 17.289062 10.402344 L 18.691406 11.429688 L 38.433594 25.855469 L 38.441406 25.863281 L 40.246094 27.179688 L 41.691406 28.238281 Z M 42.382812 28.742188 "/>
<path style=" stroke:none;fill-rule:nonzero;fill:rgb(87.45098%,30.196078%,37.647059%);fill-opacity:1;" d="M 38.441406 25.863281 C 36.585938 26.277344 34.691406 26.480469 32.789062 26.480469 C 26.019531 26.480469 19.515625 23.894531 14.625 19.261719 C 14.125 18.785156 13.835938 18.128906 13.824219 17.441406 C 13.816406 16.75 14.082031 16.085938 14.5625 15.589844 L 18.691406 11.429688 L 38.433594 25.855469 Z M 38.441406 25.863281 "/>
<path style=" stroke:none;fill-rule:nonzero;fill:rgb(50.196078%,17.647059%,25.098039%);fill-opacity:1;" d="M 17.335938 29.277344 C 16.78125 30.117188 15.648438 30.355469 14.796875 29.808594 C 14.019531 29.167969 13.914062 28.019531 14.558594 27.246094 C 15.195312 26.394531 17.101562 25.125 17.867188 25.683594 C 18.632812 26.246094 17.972656 28.421875 17.335938 29.277344 Z M 17.335938 29.277344 "/>
<path style=" stroke:none;fill-rule:nonzero;fill:rgb(50.196078%,17.647059%,25.098039%);fill-opacity:1;" d="M 25.035156 31.320312 C 25.039062 31.984375 24.65625 32.589844 24.054688 32.878906 C 23.453125 33.167969 22.738281 33.085938 22.214844 32.671875 C 21.691406 32.257812 21.457031 31.582031 21.609375 30.9375 C 21.726562 29.882812 22.738281 27.839844 23.683594 27.949219 C 24.628906 28.058594 25.15625 30.265625 25.035156 31.320312 Z M 25.035156 31.320312 "/>
<path style=" stroke:none;fill-rule:nonzero;fill:rgb(50.196078%,17.647059%,25.098039%);fill-opacity:1;" d="M 32.734375 29.273438 C 33.074219 29.84375 33.050781 30.5625 32.675781 31.109375 C 32.296875 31.660156 31.636719 31.945312 30.972656 31.84375 C 30.3125 31.746094 29.765625 31.277344 29.574219 30.640625 C 29.144531 29.667969 28.988281 27.394531 29.859375 27.019531 C 30.734375 26.648438 32.304688 28.300781 32.734375 29.273438 Z M 32.734375 29.273438 "/>
<path style=" stroke:none;fill-rule:nonzero;fill:rgb(50.196078%,17.647059%,25.098039%);fill-opacity:1;" d="M 10.015625 12.671875 C 9.019531 12.503906 8.074219 13.167969 7.898438 14.15625 C 7.847656 15.15625 8.621094 16.007812 9.632812 16.066406 C 10.695312 16.183594 12.929688 15.664062 13.035156 14.726562 C 13.144531 13.789062 11.082031 12.789062 10.019531 12.671875 Z M 10.015625 12.671875 "/>
<path style=" stroke:none;fill-rule:nonzero;fill:rgb(50.196078%,17.647059%,25.098039%);fill-opacity:1;" d="M 10.316406 20.5625 C 9.675781 20.753906 9.203125 21.292969 9.105469 21.949219 C 9.003906 22.605469 9.292969 23.261719 9.84375 23.632812 C 10.398438 24.003906 11.121094 24.03125 11.699219 23.695312 C 12.679688 23.265625 14.351562 21.710938 13.96875 20.847656 C 13.589844 19.980469 11.296875 20.140625 10.316406 20.5625 Z M 10.316406 20.5625 "/>
<path style=" stroke:none;fill-rule:nonzero;fill:rgb(30.980392%,72.941176%,43.529412%);fill-opacity:1;" d="M 49.761719 18.03125 C 40.261719 27.019531 25.308594 27.015625 15.8125 18.023438 C 15.464844 17.683594 15.457031 17.132812 15.796875 16.785156 L 17.003906 15.5625 L 17.605469 14.957031 C 21.582031 19.035156 27.058594 21.339844 32.785156 21.339844 C 38.507812 21.339844 43.984375 19.035156 47.960938 14.957031 L 48.5625 15.5625 L 49.769531 16.785156 C 49.9375 16.949219 50.03125 17.175781 50.027344 17.410156 C 50.027344 17.644531 49.929688 17.867188 49.761719 18.03125 Z M 49.761719 18.03125 "/>
<path style=" stroke:none;fill-rule:nonzero;fill:rgb(100%,32.54902%,39.215686%);fill-opacity:1;" d="M 47.960938 14.957031 C 43.984375 19.035156 38.507812 21.339844 32.785156 21.339844 C 27.058594 21.339844 21.582031 19.035156 17.605469 14.957031 L 18.210938 14.351562 L 32.183594 0.257812 C 32.34375 0.09375 32.5625 0 32.792969 0 C 33.023438 0 33.242188 0.09375 33.398438 0.257812 L 47.355469 14.351562 Z M 47.960938 14.957031 "/>
<path style=" stroke:none;fill-rule:nonzero;fill:rgb(50.196078%,17.647059%,25.098039%);fill-opacity:1;" d="M 27.183594 14.050781 C 26.867188 15.011719 27.382812 16.046875 28.34375 16.382812 C 28.820312 16.476562 29.320312 16.378906 29.722656 16.109375 C 30.128906 15.839844 30.410156 15.421875 30.503906 14.949219 C 30.78125 13.910156 30.589844 11.609375 29.675781 11.359375 C 28.765625 11.113281 27.460938 13.011719 27.183594 14.050781 Z M 27.183594 14.050781 "/>
<path style=" stroke:none;fill-rule:nonzero;fill:rgb(50.196078%,17.647059%,25.098039%);fill-opacity:1;" d="M 35.074219 14.949219 C 35.167969 15.421875 35.449219 15.839844 35.851562 16.109375 C 36.257812 16.378906 36.753906 16.476562 37.230469 16.382812 C 38.191406 16.046875 38.707031 15.011719 38.390625 14.050781 C 38.113281 13.011719 36.816406 11.113281 35.898438 11.359375 C 34.984375 11.609375 34.800781 13.90625 35.078125 14.949219 Z M 35.074219 14.949219 "/>
<path style=" stroke:none;fill-rule:nonzero;fill:rgb(95.294118%,83.529412%,35.686275%);fill-opacity:1;" d="M 43.074219 29.246094 C 35.683594 38.984375 21.753906 41.003906 11.855469 33.773438 C 1.960938 26.542969 -0.210938 12.761719 6.996094 2.886719 L 7.691406 3.390625 L 8.382812 3.894531 C 1.660156 13.011719 3.636719 25.796875 12.808594 32.496094 C 21.976562 39.199219 34.890625 37.296875 41.691406 28.238281 Z M 43.074219 29.246094 "/>
<path style=" stroke:none;fill-rule:nonzero;fill:rgb(95.294118%,83.529412%,35.686275%);fill-opacity:1;" d="M 48.5625 15.5625 C 44.433594 19.796875 38.746094 22.1875 32.804688 22.191406 L 32.789062 22.191406 C 26.839844 22.183594 21.144531 19.792969 17.003906 15.5625 L 17.605469 14.957031 L 18.210938 14.351562 L 18.21875 14.359375 C 22.039062 18.269531 27.296875 20.476562 32.789062 20.484375 L 32.804688 20.484375 C 38.289062 20.476562 43.539062 18.265625 47.347656 14.359375 L 47.355469 14.351562 L 47.960938 14.957031 Z M 48.5625 15.5625 "/>
</g>
</svg>
