<?xml version="1.0" encoding="UTF-8"?>
<svg xmlns="http://www.w3.org/2000/svg" xmlns:xlink="http://www.w3.org/1999/xlink" width="50" height="54" viewBox="0 0 50 54" version="1.1">
<g id="surface1">
<path style=" stroke:none;fill-rule:nonzero;fill:rgb(21.176471%,54.509804%,29.803922%);fill-opacity:1;" d="M 27.433594 15.421875 C 26.78125 15.636719 26.117188 15.808594 25.445312 15.945312 C 25.148438 15.167969 24.933594 14.363281 24.804688 13.539062 C 24.253906 10.292969 24.421875 4.484375 31.226562 0.777344 C 31.632812 0.554688 32.0625 0.339844 32.515625 0.136719 C 32.9375 -0.0546875 33.421875 -0.0429688 33.832031 0.167969 C 34.242188 0.375 34.535156 0.753906 34.632812 1.203125 C 34.71875 1.617188 34.804688 2.09375 34.878906 2.613281 C 35.398438 6.511719 34.988281 12.945312 27.433594 15.421875 Z M 27.433594 15.421875 "/>
<path style=" stroke:none;fill-rule:nonzero;fill:rgb(24.705882%,64.313725%,35.294118%);fill-opacity:1;" d="M 24.804688 13.539062 C 24.253906 10.292969 24.421875 4.484375 31.226562 0.777344 C 31.242188 0.878906 31.257812 0.984375 31.273438 1.089844 C 31.769531 4.8125 31.417969 10.847656 24.804688 13.539062 Z M 24.804688 13.539062 "/>
<path style=" stroke:none;fill-rule:nonzero;fill:rgb(21.176471%,54.509804%,29.803922%);fill-opacity:1;" d="M 21.035156 18.808594 C 20.769531 18.808594 20.519531 18.679688 20.367188 18.464844 L 12.480469 7.496094 C 12.308594 7.257812 12.277344 6.949219 12.398438 6.683594 C 12.519531 6.417969 12.773438 6.234375 13.066406 6.207031 C 13.359375 6.179688 13.644531 6.308594 13.8125 6.546875 L 21.699219 17.515625 C 21.878906 17.765625 21.902344 18.09375 21.761719 18.363281 C 21.621094 18.636719 21.339844 18.808594 21.035156 18.808594 Z M 21.035156 18.808594 "/>
<path style=" stroke:none;fill-rule:nonzero;fill:rgb(21.176471%,54.509804%,29.803922%);fill-opacity:1;" d="M 17.722656 21.449219 C 12.222656 30.773438 4.074219 27.328125 0.746094 25.351562 C 0.347656 25.117188 0.0820312 24.71875 0.015625 24.261719 C -0.0507812 23.808594 0.0976562 23.347656 0.410156 23.015625 C 0.933594 22.457031 1.492188 21.929688 2.082031 21.441406 C 8.804688 15.898438 15.199219 19.613281 17.132812 20.992188 C 17.515625 21.269531 17.722656 21.449219 17.722656 21.449219 Z M 17.722656 21.449219 "/>
<path style=" stroke:none;fill-rule:nonzero;fill:rgb(24.705882%,64.313725%,35.294118%);fill-opacity:1;" d="M 17.132812 20.992188 C 11.871094 26.320312 5.375 23.507812 2.492188 21.796875 C 2.335938 21.707031 2.195312 21.585938 2.082031 21.441406 C 8.804688 15.898438 15.199219 19.613281 17.132812 20.992188 Z M 17.132812 20.992188 "/>
<path style=" stroke:none;fill-rule:nonzero;fill:rgb(29.803922%,72.941176%,40.784314%);fill-opacity:1;" d="M 21.839844 19.347656 C 12.855469 25.414062 6.976562 18.820312 4.824219 15.613281 C 4.566406 15.230469 4.496094 14.757812 4.636719 14.316406 C 4.773438 13.878906 5.101562 13.527344 5.53125 13.359375 C 6.175781 13.105469 6.835938 12.890625 7.507812 12.710938 C 14.980469 10.722656 19.15625 15.117188 20.882812 17.675781 C 21.25 18.203125 21.570312 18.761719 21.839844 19.347656 Z M 21.839844 19.347656 "/>
<path style=" stroke:none;fill-rule:nonzero;fill:rgb(39.215686%,76.470588%,49.019608%);fill-opacity:1;" d="M 20.882812 17.675781 C 14.15625 20.222656 9.582031 15.589844 7.507812 12.710938 C 14.980469 10.722656 19.15625 15.117188 20.882812 17.675781 Z M 20.882812 17.675781 "/>
<path style=" stroke:none;fill-rule:nonzero;fill:rgb(29.803922%,72.941176%,40.784314%);fill-opacity:1;" d="M 22.179688 19.152344 C 30.824219 12.613281 26.421875 4.964844 24.058594 1.90625 C 23.777344 1.542969 23.347656 1.324219 22.886719 1.316406 C 22.425781 1.304688 21.984375 1.503906 21.6875 1.855469 C 21.238281 2.382812 20.824219 2.9375 20.4375 3.511719 C 16.160156 9.925781 19.007812 15.269531 20.894531 17.71875 C 21.28125 18.230469 21.710938 18.710938 22.179688 19.152344 Z M 22.179688 19.152344 "/>
<path style=" stroke:none;fill-rule:nonzero;fill:rgb(39.215686%,76.470588%,49.019608%);fill-opacity:1;" d="M 20.894531 17.71875 C 25.464844 12.183594 22.515625 6.390625 20.4375 3.511719 C 16.160156 9.929688 19.007812 15.269531 20.894531 17.71875 Z M 20.894531 17.71875 "/>
<path style=" stroke:none;fill-rule:nonzero;fill:rgb(78.039216%,0%,14.117647%);fill-opacity:1;" d="M 47.679688 49 C 46.5 52.21875 43.296875 54.257812 39.867188 53.976562 C 27.984375 53.011719 17.25 45.457031 17.25 45.457031 C 8.699219 39.808594 7.636719 27.539062 15.230469 22.125 L 15.488281 21.941406 L 21.03125 17.992188 L 26.835938 13.855469 C 34.429688 8.445312 45.773438 13.398438 48.367188 23.285156 C 51.425781 34.957031 49.5625 43.875 47.679688 49 Z M 47.679688 49 "/>
<path style=" stroke:none;fill-rule:nonzero;fill:rgb(100%,4.705882%,21.960784%);fill-opacity:1;" d="M 47.679688 49 C 47.5625 49.320312 47.421875 49.632812 47.265625 49.933594 C 45.972656 50.613281 44.515625 50.910156 43.0625 50.792969 C 31.179688 49.828125 20.445312 42.277344 20.445312 42.277344 C 13.234375 37.511719 11.347656 28.039062 15.488281 21.941406 L 21.03125 17.992188 L 26.835938 13.855469 C 34.429688 8.445312 45.773438 13.398438 48.367188 23.285156 C 51.425781 34.957031 49.5625 43.875 47.679688 49 Z M 47.679688 49 "/>
<path style=" stroke:none;fill-rule:nonzero;fill:rgb(0%,0%,0%);fill-opacity:1;" d="M 16.5 35.796875 C 17.070312 36.589844 17.890625 36.976562 18.332031 36.660156 C 18.773438 36.34375 18.671875 35.445312 18.101562 34.65625 C 17.53125 33.863281 16.710938 33.472656 16.269531 33.789062 C 15.824219 34.105469 15.929688 35.003906 16.5 35.796875 Z M 16.5 35.796875 "/>
<path style=" stroke:none;fill-rule:nonzero;fill:rgb(0%,0%,0%);fill-opacity:1;" d="M 20.101562 26.785156 C 20.671875 27.578125 21.492188 27.96875 21.9375 27.652344 C 22.378906 27.335938 22.273438 26.4375 21.703125 25.644531 C 21.136719 24.851562 20.3125 24.464844 19.871094 24.78125 C 19.429688 25.097656 19.535156 25.992188 20.101562 26.785156 Z M 20.101562 26.785156 "/>
<path style=" stroke:none;fill-rule:nonzero;fill:rgb(0%,0%,0%);fill-opacity:1;" d="M 28.960938 32.574219 C 29.53125 33.367188 30.351562 33.753906 30.792969 33.4375 C 31.238281 33.125 31.132812 32.226562 30.5625 31.433594 C 29.992188 30.640625 29.171875 30.253906 28.730469 30.566406 C 28.289062 30.882812 28.390625 31.78125 28.960938 32.574219 Z M 28.960938 32.574219 "/>
<path style=" stroke:none;fill-rule:nonzero;fill:rgb(0%,0%,0%);fill-opacity:1;" d="M 41.582031 19.191406 C 42.152344 19.984375 42.972656 20.371094 43.417969 20.054688 C 43.859375 19.742188 43.753906 18.84375 43.183594 18.050781 C 42.613281 17.257812 41.792969 16.871094 41.351562 17.183594 C 40.910156 17.5 41.015625 18.398438 41.582031 19.191406 Z M 41.582031 19.191406 "/>
<path style=" stroke:none;fill-rule:nonzero;fill:rgb(0%,0%,0%);fill-opacity:1;" d="M 38.914062 30.097656 C 39.480469 30.890625 40.304688 31.28125 40.746094 30.964844 C 41.1875 30.648438 41.082031 29.75 40.515625 28.957031 C 39.945312 28.164062 39.125 27.777344 38.679688 28.09375 C 38.238281 28.410156 38.34375 29.308594 38.914062 30.097656 Z M 38.914062 30.097656 "/>
<path style=" stroke:none;fill-rule:nonzero;fill:rgb(0%,0%,0%);fill-opacity:1;" d="M 44.460938 39.300781 C 45.03125 40.09375 45.851562 40.480469 46.292969 40.164062 C 46.734375 39.851562 46.632812 38.953125 46.0625 38.160156 C 45.492188 37.367188 44.671875 36.980469 44.230469 37.292969 C 43.785156 37.609375 43.890625 38.507812 44.460938 39.300781 Z M 44.460938 39.300781 "/>
<path style=" stroke:none;fill-rule:nonzero;fill:rgb(0%,0%,0%);fill-opacity:1;" d="M 32.304688 44.210938 C 32.875 45.003906 33.695312 45.390625 34.140625 45.074219 C 34.582031 44.757812 34.476562 43.859375 33.90625 43.066406 C 33.339844 42.277344 32.519531 41.886719 32.074219 42.203125 C 31.632812 42.519531 31.738281 43.417969 32.304688 44.210938 Z M 32.304688 44.210938 "/>
<path style=" stroke:none;fill-rule:nonzero;fill:rgb(0%,0%,0%);fill-opacity:1;" d="M 40.84375 48.761719 C 41.414062 49.554688 42.234375 49.941406 42.675781 49.625 C 43.117188 49.308594 43.015625 48.414062 42.445312 47.621094 C 41.875 46.828125 41.054688 46.4375 40.613281 46.753906 C 40.167969 47.070312 40.273438 47.96875 40.84375 48.761719 Z M 40.84375 48.761719 "/>
<path style=" stroke:none;fill-rule:nonzero;fill:rgb(0%,0%,0%);fill-opacity:1;" d="M 31.03125 20.585938 C 31.601562 21.378906 32.421875 21.765625 32.863281 21.449219 C 33.304688 21.136719 33.203125 20.238281 32.632812 19.445312 C 32.0625 18.652344 31.242188 18.265625 30.800781 18.578125 C 30.359375 18.894531 30.460938 19.792969 31.03125 20.585938 Z M 31.03125 20.585938 "/>
<path style=" stroke:none;fill-rule:nonzero;fill:rgb(0%,0%,0%);fill-opacity:1;" d="M 21.085938 44.304688 C 21.65625 45.097656 22.476562 45.484375 22.917969 45.167969 C 23.363281 44.855469 23.257812 43.957031 22.6875 43.164062 C 22.117188 42.371094 21.296875 41.984375 20.855469 42.296875 C 20.414062 42.613281 20.515625 43.511719 21.085938 44.304688 Z M 21.085938 44.304688 "/>
</g>
</svg>
