<svg height="512" viewBox="-4 0 512 512.00001" width="512" xmlns="http://www.w3.org/2000/svg"><path d="m407.1875 152.425781c0 12.722657-1.777344 25.023438-5.09375 36.675781-15.945312 56.125-67.578125 97.226563-128.808594 97.226563-73.945312 0-133.898437-59.953125-133.898437-133.902344 0-55.433593 33.683593-102.996093 81.699219-123.34375 16.046874-6.789062 33.683593-10.554687 52.199218-10.554687 14.792969 0 29.019532 2.394531 42.328125 6.828125l.007813.011719c45.601562 15.179687 80.289062 54.21875 89.273437 102.308593 1.507813 8.023438 2.292969 16.296875 2.292969 24.75zm0 0" fill="#f96eb3"/><path d="m407.1875 152.425781c0 12.722657-1.777344 25.023438-5.09375 36.675781l-169.605469-31.445312-11.402343-128.574219c16.046874-6.789062 33.683593-10.554687 52.199218-10.554687 14.792969 0 29.019532 2.394531 42.328125 6.828125l.007813.011719c-19.832032 19.84375-8.859375 63.246093 36.121094 87.308593 18.976562 10.15625 37.765624 13.976563 53.152343 15 1.507813 8.023438 2.292969 16.296875 2.292969 24.75zm0 0" fill="#d83a6f"/><path d="m69.058594 343.367188c-38.140625 0-69.058594-30.917969-69.058594-69.058594s30.917969-69.0625 69.058594-69.0625h366.367187c38.140625 0 69.0625 30.921875 69.0625 69.0625s-30.921875 69.058594-69.0625 69.058594" fill="#279e5c"/><path d="m435.425781 293.742188c-4.332031 0-7.84375-3.511719-7.84375-7.847657 0-23.472656 11.609375-31.789062 18.53125-34.65625 10.917969-4.519531 24.816407-1.402343 33.804688 7.589844 3.0625 3.0625 3.0625 8.03125 0 11.09375-3.066407 3.066406-8.035157 3.0625-11.097657 0-4.546874-4.550781-11.574218-6.308594-16.703124-4.1875-5.703126 2.363281-8.84375 9.523437-8.84375 20.160156 0 4.335938-3.511719 7.847657-7.847657 7.847657zm0 0" fill="#0c843d"/><path d="m435.421875 153.199219v173.863281c0 101.417969-81.667969 184.886719-183.089844 184.9375-101.207031.050781-183.273437-81.980469-183.273437-183.179688v-201.742187c0-70.179687 56.894531-127.078125 127.078125-127.078125h45.914062c1.023438 86.855469 71.75 156.964844 158.859375 156.964844 11.851563 0 23.402344-1.296875 34.511719-3.765625zm0 0" fill="#75bc83"/><path d="m69.058594 293.742188c-4.332032 0-7.84375-3.511719-7.84375-7.847657 0-10.636719-3.140625-17.796875-8.847656-20.160156-5.128907-2.121094-12.152344-.363281-16.703126 4.1875-3.0625 3.066406-8.03125 3.066406-11.09375 0-3.066406-3.0625-3.066406-8.03125 0-11.09375 8.988282-8.992187 22.890626-12.109375 33.804688-7.589844 6.917969 2.867188 18.53125 11.183594 18.53125 34.65625 0 4.335938-3.511719 7.847657-7.847656 7.847657zm0 0" fill="#0c843d"/><path d="m250.839844 511.988281c-100.53125-.742187-181.78125-82.472656-181.78125-183.167969v-201.742187c0-70.179687 56.886718-127.078125 127.070312-127.078125h23.109375c-41.28125 0-74.753906 56.898438-74.753906 127.078125v201.742187c0 100.371094 47.480469 181.894532 106.355469 183.167969zm0 0" fill="#279e5c"/><path d="m350.730469 223.800781-14.796875 14.792969-14.792969-14.792969c-6.535156-6.535156-17.132813-6.535156-23.667969 0-6.539062 6.535157-6.539062 17.132813 0 23.671875l14.792969 14.792969-14.792969 14.792969c-6.539062 6.535156-6.539062 17.132812 0 23.671875 6.535156 6.535156 17.132813 6.535156 23.667969 0l14.792969-14.796875 14.796875 14.796875c6.535156 6.535156 17.132812 6.535156 23.667969 0 6.535156-6.539063 6.535156-17.136719 0-23.671875l-14.792969-14.792969 14.792969-14.792969c6.535156-6.539062 6.535156-17.136718 0-23.671875-6.535157-6.535156-17.132813-6.535156-23.667969 0zm0 0" fill="#2a2d49"/><path d="m183.339844 223.800781-14.796875 14.792969-14.792969-14.792969c-6.535156-6.535156-17.132812-6.535156-23.667969 0-6.539062 6.535157-6.539062 17.132813 0 23.671875l14.792969 14.792969-14.792969 14.792969c-6.539062 6.535156-6.539062 17.132812 0 23.671875 6.535157 6.535156 17.132813 6.535156 23.667969 0l14.792969-14.796875 14.796875 14.796875c6.535156 6.535156 17.132812 6.535156 23.667968 0 6.535157-6.539063 6.535157-17.136719 0-23.671875l-14.792968-14.792969 14.792968-14.792969c6.535157-6.539062 6.535157-17.136718 0-23.671875-6.535156-6.535156-17.132812-6.535156-23.667968 0zm0 0" fill="#2a2d49"/><path d="m144.480469 69.417969c0 22.082031-17.898438 39.984375-39.980469 39.984375-12.617188 0-23.871094-5.839844-31.195312-14.972656 6.683593-25.273438 20.984374-47.460938 40.285156-63.96875 17.699218 4.121093 30.890625 20.003906 30.890625 38.957031zm0 0" fill="#83c65d"/><path d="m286.109375 347h-67.742187c-29.210938 0-52.890626 23.679688-52.890626 52.890625v17.347656h173.523438v-17.347656c.003906-29.210937-23.679688-52.890625-52.890625-52.890625zm0 0" fill="#2a2d49"/><path d="m303.625 473.578125c-11.558594 0-20.921875-9.367187-20.921875-20.921875v-35.417969h41.84375v35.417969c0 11.554688-9.367187 20.921875-20.921875 20.921875zm0 0" fill="#f96eb3"/><path d="m324.84375 417.234375h-145.21875c11.824219-22.941406 39.878906-39.082031 72.609375-39.082031 7.441406 0 14.636719.835937 21.445313 2.394531 23.191406 5.292969 42.035156 18.957031 51.164062 36.6875zm0 0" fill="#d83a6f"/><path d="m324.84375 417.234375h-102.328125c9.132813-17.730469 27.972656-31.394531 51.164063-36.6875 23.191406 5.292969 42.035156 18.957031 51.164062 36.6875zm0 0" fill="#f96eb3"/><g fill="#83c65d"><path d="m165.742188 153.40625c0 14.140625-11.464844 25.605469-25.605469 25.605469s-25.605469-11.464844-25.605469-25.605469 11.464844-25.605469 25.605469-25.605469 25.605469 11.464844 25.605469 25.605469zm0 0"/><path d="m210.859375 95.179688c0 12.121093-9.828125 21.945312-21.949219 21.945312s-21.949218-9.824219-21.949218-21.945312c0-12.125 9.828124-21.949219 21.949218-21.949219s21.949219 9.824219 21.949219 21.949219zm0 0"/></g></svg>