<?xml version="1.0" encoding="UTF-8"?>
<svg xmlns="http://www.w3.org/2000/svg" xmlns:xlink="http://www.w3.org/1999/xlink" width="50" height="50" viewBox="0 0 50 50" version="1.1">
<g id="surface1">
<path style=" stroke:none;fill-rule:nonzero;fill:rgb(97.647059%,43.137255%,70.196078%);fill-opacity:1;" d="M 40.394531 14.886719 C 40.390625 20.550781 36.675781 25.566406 31.195312 27.304688 C 25.714844 29.042969 19.722656 27.105469 16.359375 22.511719 C 12.992188 17.914062 13.023438 11.703125 16.429688 7.136719 C 19.839844 2.570312 25.847656 0.6875 31.3125 2.476562 C 36.738281 4.253906 40.398438 9.253906 40.394531 14.886719 Z M 40.394531 14.886719 "/>
<path style=" stroke:none;fill-rule:nonzero;fill:rgb(84.705882%,22.745098%,43.529412%);fill-opacity:1;" d="M 40.394531 14.886719 C 40.398438 16.097656 40.226562 17.300781 39.890625 18.46875 L 23.066406 15.394531 L 21.933594 2.839844 C 24.910156 1.605469 28.242188 1.476562 31.3125 2.476562 C 29.34375 4.414062 30.433594 8.652344 34.894531 11.003906 C 36.527344 11.855469 38.324219 12.355469 40.167969 12.46875 C 40.320312 13.265625 40.398438 14.074219 40.394531 14.886719 Z M 40.394531 14.886719 "/>
<path style=" stroke:none;fill-rule:nonzero;fill:rgb(15.294118%,61.960784%,36.078431%);fill-opacity:1;" d="M 6.851562 33.53125 C 3.078125 33.519531 0.0273438 30.503906 0.0273438 26.789062 C 0.0273438 23.074219 3.078125 20.058594 6.851562 20.042969 L 43.195312 20.042969 C 45.652344 20.035156 47.921875 21.316406 49.152344 23.410156 C 50.382812 25.5 50.382812 28.078125 49.152344 30.167969 C 47.921875 32.257812 45.652344 33.542969 43.195312 33.53125 "/>
<path style=" stroke:none;fill-rule:nonzero;fill:rgb(4.705882%,51.764706%,23.921569%);fill-opacity:1;" d="M 43.195312 28.6875 C 42.765625 28.6875 42.417969 28.34375 42.417969 27.917969 C 42.417969 25.628906 43.570312 24.816406 44.257812 24.535156 C 45.339844 24.09375 46.71875 24.398438 47.609375 25.277344 C 47.914062 25.574219 47.914062 26.0625 47.609375 26.359375 C 47.304688 26.660156 46.8125 26.660156 46.507812 26.359375 C 46.058594 25.914062 45.359375 25.742188 44.851562 25.949219 C 44.285156 26.179688 43.976562 26.878906 43.976562 27.917969 C 43.976562 28.34375 43.625 28.6875 43.195312 28.6875 Z M 43.195312 28.6875 "/>
<path style=" stroke:none;fill-rule:nonzero;fill:rgb(45.882353%,73.72549%,51.372549%);fill-opacity:1;" d="M 43.195312 14.960938 L 43.195312 31.941406 C 43.195312 41.84375 35.09375 49.996094 25.03125 50 C 14.992188 50.003906 6.851562 41.996094 6.851562 32.109375 L 6.851562 12.410156 C 6.851562 5.554688 12.496094 0 19.457031 0 L 24.011719 0 C 24.117188 8.496094 31.140625 15.328125 39.773438 15.328125 C 40.925781 15.328125 42.074219 15.207031 43.195312 14.960938 Z M 43.195312 14.960938 "/>
<path style=" stroke:none;fill-rule:nonzero;fill:rgb(4.705882%,51.764706%,23.921569%);fill-opacity:1;" d="M 6.851562 28.6875 C 6.421875 28.6875 6.074219 28.34375 6.074219 27.917969 C 6.074219 26.878906 5.761719 26.179688 5.195312 25.949219 C 4.6875 25.742188 3.988281 25.914062 3.539062 26.359375 C 3.234375 26.660156 2.742188 26.660156 2.4375 26.359375 C 2.132812 26.058594 2.132812 25.574219 2.4375 25.277344 C 3.328125 24.398438 4.707031 24.09375 5.789062 24.535156 C 6.476562 24.816406 7.628906 25.628906 7.628906 27.917969 C 7.628906 28.34375 7.28125 28.6875 6.851562 28.6875 Z M 6.851562 28.6875 "/>
<path style=" stroke:none;fill-rule:nonzero;fill:rgb(15.294118%,61.960784%,36.078431%);fill-opacity:1;" d="M 24.886719 50 C 14.910156 49.925781 6.851562 41.945312 6.851562 32.109375 L 6.851562 12.410156 C 6.851562 5.554688 12.496094 0 19.457031 0 L 21.75 0 C 17.65625 0 14.332031 5.554688 14.332031 12.410156 L 14.332031 32.109375 C 14.332031 41.914062 19.042969 49.875 24.886719 50 Z M 24.886719 50 "/>
<path style=" stroke:none;fill-rule:nonzero;fill:rgb(16.470588%,17.647059%,28.627451%);fill-opacity:1;" d="M 34.792969 21.855469 L 33.328125 23.300781 L 31.859375 21.855469 C 31.210938 21.21875 30.160156 21.21875 29.511719 21.855469 C 28.863281 22.492188 28.863281 23.527344 29.511719 24.167969 L 30.980469 25.613281 L 29.511719 27.054688 C 28.863281 27.695312 28.863281 28.730469 29.511719 29.367188 C 30.160156 30.007812 31.210938 30.007812 31.859375 29.367188 L 33.328125 27.921875 L 34.796875 29.367188 C 35.445312 30 36.488281 29.992188 37.132812 29.359375 C 37.777344 28.722656 37.78125 27.695312 37.144531 27.054688 L 35.675781 25.613281 L 37.144531 24.167969 C 37.792969 23.527344 37.792969 22.492188 37.144531 21.855469 C 36.496094 21.21875 35.441406 21.21875 34.792969 21.855469 Z M 34.792969 21.855469 "/>
<path style=" stroke:none;fill-rule:nonzero;fill:rgb(16.470588%,17.647059%,28.627451%);fill-opacity:1;" d="M 18.1875 21.855469 L 16.71875 23.300781 L 15.253906 21.855469 C 14.605469 21.21875 13.554688 21.21875 12.90625 21.855469 C 12.257812 22.492188 12.257812 23.527344 12.90625 24.167969 L 14.371094 25.613281 L 12.90625 27.054688 C 12.257812 27.695312 12.257812 28.730469 12.90625 29.367188 C 13.554688 30.007812 14.605469 30.007812 15.253906 29.367188 L 16.71875 27.921875 L 18.1875 29.367188 C 18.835938 30.007812 19.886719 30.007812 20.535156 29.367188 C 21.183594 28.730469 21.183594 27.695312 20.535156 27.054688 L 19.070312 25.613281 L 20.535156 24.167969 C 21.183594 23.527344 21.183594 22.492188 20.535156 21.855469 C 19.886719 21.21875 18.835938 21.21875 18.1875 21.855469 Z M 18.1875 21.855469 "/>
<path style=" stroke:none;fill-rule:nonzero;fill:rgb(51.372549%,77.647059%,36.470588%);fill-opacity:1;" d="M 14.332031 6.777344 C 14.332031 8.4375 13.269531 9.914062 11.683594 10.464844 C 10.09375 11.011719 8.324219 10.515625 7.273438 9.222656 C 7.929688 6.789062 9.324219 4.609375 11.269531 2.976562 C 13.0625 3.386719 14.332031 4.964844 14.332031 6.777344 Z M 14.332031 6.777344 "/>
<path style=" stroke:none;fill-rule:nonzero;fill:rgb(16.470588%,17.647059%,28.627451%);fill-opacity:1;" d="M 28.382812 33.886719 L 21.664062 33.886719 C 18.765625 33.886719 16.417969 36.199219 16.417969 39.050781 L 16.417969 40.746094 L 33.632812 40.746094 L 33.632812 39.050781 C 33.632812 36.199219 31.28125 33.886719 28.382812 33.886719 Z M 28.382812 33.886719 "/>
<path style=" stroke:none;fill-rule:nonzero;fill:rgb(97.647059%,43.137255%,70.196078%);fill-opacity:1;" d="M 30.121094 46.246094 C 28.976562 46.25 28.046875 45.332031 28.046875 44.203125 L 28.046875 40.746094 L 32.195312 40.746094 L 32.195312 44.203125 C 32.195312 45.332031 31.269531 46.246094 30.121094 46.246094 Z M 30.121094 46.246094 "/>
<path style=" stroke:none;fill-rule:nonzero;fill:rgb(84.705882%,22.745098%,43.529412%);fill-opacity:1;" d="M 32.226562 40.746094 L 17.820312 40.746094 C 18.992188 38.503906 21.777344 36.929688 25.023438 36.929688 C 25.738281 36.929688 26.453125 37.007812 27.152344 37.164062 C 29.453125 37.679688 31.320312 39.015625 32.226562 40.746094 Z M 32.226562 40.746094 "/>
<path style=" stroke:none;fill-rule:nonzero;fill:rgb(97.647059%,43.137255%,70.196078%);fill-opacity:1;" d="M 32.226562 40.746094 L 22.074219 40.746094 C 22.980469 39.015625 24.851562 37.679688 27.152344 37.164062 C 29.453125 37.679688 31.320312 39.015625 32.226562 40.746094 Z M 32.226562 40.746094 "/>
<path style=" stroke:none;fill-rule:nonzero;fill:rgb(51.372549%,77.647059%,36.470588%);fill-opacity:1;" d="M 16.441406 14.980469 C 16.441406 16.363281 15.304688 17.480469 13.902344 17.480469 C 12.5 17.480469 11.363281 16.363281 11.363281 14.980469 C 11.363281 13.601562 12.5 12.480469 13.902344 12.480469 C 15.304688 12.480469 16.441406 13.601562 16.441406 14.980469 Z M 16.441406 14.980469 "/>
<path style=" stroke:none;fill-rule:nonzero;fill:rgb(51.372549%,77.647059%,36.470588%);fill-opacity:1;" d="M 20.917969 9.296875 C 20.917969 10.480469 19.945312 11.4375 18.742188 11.4375 C 17.539062 11.4375 16.5625 10.480469 16.5625 9.292969 C 16.5625 8.109375 17.539062 7.152344 18.742188 7.152344 C 19.945312 7.152344 20.917969 8.109375 20.917969 9.296875 Z M 20.917969 9.296875 "/>
</g>
</svg>
