<?xml version="1.0" encoding="UTF-8"?>
<svg xmlns="http://www.w3.org/2000/svg" xmlns:xlink="http://www.w3.org/1999/xlink" width="50" height="55" viewBox="0 0 50 55" version="1.1">
<g id="surface1">
<path style=" stroke:none;fill-rule:nonzero;fill:rgb(22.745098%,33.333333%,41.568627%);fill-opacity:1;" d="M 0.921875 30.613281 C -0.71875 32.6875 -0.0742188 35.75 2.113281 37.238281 C 4.71875 39.011719 3.675781 41.765625 5.667969 41.316406 C 8.078125 40.773438 9.417969 37.640625 8.664062 34.324219 C 7.910156 31.003906 5.34375 28.753906 2.9375 29.296875 C 2.132812 29.488281 1.417969 29.957031 0.921875 30.613281 Z M 0.921875 30.613281 "/>
<path style=" stroke:none;fill-rule:nonzero;fill:rgb(39.215686%,47.45098%,54.117647%);fill-opacity:1;" d="M 2.757812 34.765625 L 3.582031 35.933594 C 3.855469 36.320312 4.132812 36.710938 4.285156 37.15625 C 4.429688 37.570312 4.460938 38.015625 4.640625 38.414062 C 4.816406 38.808594 5.121094 39.132812 5.507812 39.332031 C 5.726562 39.445312 5.992188 39.511719 6.222656 39.414062 C 6.503906 39.292969 6.628906 38.960938 6.65625 38.65625 C 6.703125 38.082031 6.511719 37.523438 6.320312 36.980469 C 5.796875 35.515625 5.183594 34.085938 4.476562 32.699219 C 4.277344 32.300781 4.074219 31.851562 3.597656 31.746094 C 3.015625 31.613281 2.335938 31.980469 2.105469 32.519531 C 1.769531 33.304688 2.316406 34.144531 2.757812 34.765625 Z M 2.757812 34.765625 "/>
<path style=" stroke:none;fill-rule:nonzero;fill:rgb(22.745098%,33.333333%,41.568627%);fill-opacity:1;" d="M 49.046875 30.613281 C 50.6875 32.6875 50.042969 35.75 47.855469 37.238281 C 45.25 39.011719 46.292969 41.765625 44.300781 41.316406 C 41.890625 40.773438 40.550781 37.640625 41.304688 34.324219 C 42.058594 31.003906 44.625 28.753906 47.03125 29.296875 C 47.839844 29.488281 48.550781 29.957031 49.046875 30.613281 Z M 49.046875 30.613281 "/>
<path style=" stroke:none;fill-rule:nonzero;fill:rgb(39.215686%,47.45098%,54.117647%);fill-opacity:1;" d="M 47.210938 34.765625 L 46.386719 35.933594 C 46.113281 36.320312 45.835938 36.710938 45.683594 37.15625 C 45.539062 37.570312 45.507812 38.015625 45.328125 38.414062 C 45.152344 38.808594 44.847656 39.132812 44.460938 39.332031 C 44.242188 39.445312 43.976562 39.511719 43.746094 39.414062 C 43.464844 39.292969 43.339844 38.960938 43.316406 38.65625 C 43.265625 38.082031 43.460938 37.523438 43.648438 36.980469 C 44.171875 35.515625 44.785156 34.085938 45.492188 32.699219 C 45.691406 32.300781 45.894531 31.851562 46.371094 31.746094 C 46.957031 31.613281 47.632812 31.980469 47.863281 32.519531 C 48.199219 33.304688 47.652344 34.144531 47.210938 34.765625 Z M 47.210938 34.765625 "/>
<path style=" stroke:none;fill-rule:nonzero;fill:rgb(22.745098%,33.333333%,41.568627%);fill-opacity:1;" d="M 25.367188 55.035156 C 20.589844 55.035156 17.78125 53.191406 16.382812 51.875 C 15.855469 51.378906 15.191406 51.054688 14.472656 50.941406 C 11.621094 50.488281 9.726562 49.558594 8.707031 48.121094 C 7.9375 47.039062 7.726562 45.71875 8.09375 44.300781 C 8.4375 42.980469 8.4375 41.667969 8.097656 40.507812 L 7.925781 39.917969 C 7.785156 39.429688 7.589844 38.960938 7.335938 38.523438 C 5.394531 35.203125 4.867188 30.765625 4.726562 28.414062 C 4.597656 26.21875 5.175781 24.074219 6.359375 22.371094 C 11.703125 14.691406 21.433594 13.863281 25.367188 13.863281 C 29.300781 13.863281 39.027344 14.691406 44.371094 22.371094 C 45.554688 24.074219 46.136719 26.21875 46.003906 28.414062 C 45.863281 30.765625 45.335938 35.207031 43.394531 38.523438 C 43.144531 38.960938 42.945312 39.429688 42.808594 39.917969 L 42.636719 40.503906 C 42.296875 41.667969 42.296875 42.980469 42.636719 44.300781 C 43.003906 45.71875 42.792969 47.039062 42.027344 48.121094 C 41.003906 49.558594 39.109375 50.488281 36.257812 50.941406 C 35.542969 51.054688 34.878906 51.378906 34.351562 51.875 C 32.953125 53.191406 30.140625 55.035156 25.367188 55.035156 Z M 25.367188 55.035156 "/>
<path style=" stroke:none;fill-rule:nonzero;fill:rgb(88.235294%,90.196078%,91.372549%);fill-opacity:1;" d="M 44.632812 28.527344 C 44.539062 30.179688 44.308594 31.820312 43.9375 33.433594 C 43.570312 35.03125 43.019531 36.683594 42.1875 38.101562 C 41.882812 38.625 41.648438 39.183594 41.480469 39.761719 L 41.308594 40.351562 C 40.886719 41.792969 40.925781 43.320312 41.300781 44.78125 C 41.761719 46.554688 41.355469 49.171875 35.527344 49.996094 C 34.773438 50.105469 34.082031 50.457031 33.546875 50.996094 C 32.824219 51.714844 31.984375 52.308594 31.0625 52.753906 C 29.8125 53.382812 28.148438 53.894531 25.996094 53.996094 C 25.730469 54.015625 25.460938 54.019531 25.1875 54.019531 C 20.539062 54.019531 17.964844 52.136719 16.828125 50.996094 C 16.296875 50.457031 15.601562 50.105469 14.851562 49.996094 C 9.019531 49.171875 8.617188 46.554688 9.078125 44.78125 C 9.453125 43.320312 9.492188 41.792969 9.066406 40.351562 L 8.898438 39.761719 C 8.734375 39.183594 8.496094 38.625 8.191406 38.105469 C 6.390625 35.019531 5.882812 30.847656 5.746094 28.523438 C 5.636719 26.664062 6.082031 24.785156 7.167969 23.234375 C 11.953125 16.347656 20.527344 15.234375 25.1875 15.234375 C 25.265625 15.234375 25.339844 15.234375 25.421875 15.238281 C 30.140625 15.273438 38.5 16.464844 43.210938 23.234375 C 44.289062 24.789062 44.742188 26.664062 44.632812 28.527344 Z M 44.632812 28.527344 "/>
<path style=" stroke:none;fill-rule:nonzero;fill:rgb(39.215686%,47.45098%,54.117647%);fill-opacity:1;" d="M 25.015625 23.140625 C 25.378906 23.058594 25.726562 22.921875 26.085938 22.820312 C 27.105469 22.53125 28.175781 22.515625 29.238281 22.503906 C 29.28125 22.777344 28.96875 22.964844 28.707031 23.066406 L 25.867188 24.160156 C 25.566406 24.285156 25.257812 24.386719 24.941406 24.46875 C 24.050781 24.664062 23.113281 24.488281 22.351562 23.984375 C 21.878906 23.675781 21.5 23.246094 21.25 22.738281 C 20.933594 22.035156 21.15625 22 21.714844 22.339844 C 22.75 22.980469 23.757812 23.425781 25.015625 23.140625 Z M 25.015625 23.140625 "/>
<path style=" stroke:none;fill-rule:nonzero;fill:rgb(39.215686%,47.45098%,54.117647%);fill-opacity:1;" d="M 25.003906 20.941406 C 25.257812 20.882812 25.496094 20.789062 25.746094 20.71875 C 26.449219 20.519531 27.195312 20.507812 27.929688 20.5 C 27.960938 20.691406 27.742188 20.816406 27.558594 20.886719 L 25.59375 21.648438 C 25.386719 21.734375 25.171875 21.804688 24.953125 21.859375 C 24.335938 21.996094 23.6875 21.875 23.160156 21.523438 C 22.832031 21.308594 22.570312 21.011719 22.398438 20.660156 C 22.179688 20.171875 22.332031 20.148438 22.714844 20.386719 C 23.4375 20.828125 24.132812 21.136719 25.003906 20.941406 Z M 25.003906 20.941406 "/>
<path style=" stroke:none;fill-rule:nonzero;fill:rgb(10.980392%,45.882353%,63.137255%);fill-opacity:1;" d="M 16.925781 35.292969 C 13.882812 35.292969 11.5 33.746094 11.5 31.777344 C 11.5 29.804688 13.882812 28.261719 16.925781 28.261719 C 19.96875 28.261719 22.355469 29.804688 22.355469 31.777344 C 22.355469 33.746094 19.96875 35.292969 16.925781 35.292969 Z M 16.925781 35.292969 "/>
<path style=" stroke:none;fill-rule:nonzero;fill:rgb(98.823529%,83.137255%,38.431373%);fill-opacity:1;" d="M 21.632812 31.777344 C 21.632812 33.257812 19.695312 34.472656 17.238281 34.570312 C 17.136719 34.574219 17.035156 34.574219 16.925781 34.574219 C 14.328125 34.574219 12.214844 33.320312 12.214844 31.777344 C 12.214844 30.230469 14.328125 28.976562 16.925781 28.976562 C 18.925781 28.976562 20.640625 29.71875 21.316406 30.769531 C 21.519531 31.066406 21.628906 31.417969 21.632812 31.777344 Z M 21.632812 31.777344 "/>
<path style=" stroke:none;fill-rule:nonzero;fill:rgb(89.803922%,38.823529%,32.54902%);fill-opacity:1;" d="M 21.632812 31.777344 C 21.632812 33.257812 19.695312 34.472656 17.238281 34.570312 C 17.039062 34.269531 16.929688 33.917969 16.925781 33.558594 C 16.925781 32.082031 18.863281 30.863281 21.316406 30.769531 C 21.519531 31.066406 21.628906 31.417969 21.632812 31.777344 Z M 21.632812 31.777344 "/>
<path style=" stroke:none;fill-rule:nonzero;fill:rgb(10.980392%,45.882353%,63.137255%);fill-opacity:1;" d="M 22.320312 25.984375 C 21.496094 26.304688 21.144531 27.117188 21.0625 27.933594 C 20.777344 27.84375 20.488281 27.773438 20.195312 27.722656 C 19.511719 27.632812 18.824219 27.601562 18.136719 27.632812 C 16.050781 27.671875 13.953125 27.726562 11.914062 28.132812 C 11.402344 28.238281 10.875 28.371094 10.484375 28.707031 C 10.097656 29.042969 9.90625 29.636719 10.191406 30.058594 C 10.5 30.519531 11.171875 30.773438 11.742188 30.765625 C 12.34375 30.753906 12.949219 30.53125 13.527344 30.382812 C 13.980469 30.269531 14.410156 30.070312 14.871094 29.972656 C 15.28125 29.898438 15.703125 29.871094 16.121094 29.886719 C 17.226562 29.890625 18.347656 29.917969 19.398438 30.238281 C 20.074219 30.441406 20.738281 30.769531 21.445312 30.726562 C 21.789062 30.707031 22.222656 30.726562 22.535156 30.585938 C 22.875 30.433594 23.210938 30.234375 23.410156 29.925781 C 23.433594 29.886719 23.453125 29.847656 23.46875 29.808594 C 23.597656 29.675781 23.710938 29.535156 23.816406 29.382812 C 24.136719 28.925781 24.292969 28.285156 24.359375 27.734375 C 24.5 26.5625 23.59375 25.492188 22.320312 25.984375 Z M 22.320312 25.984375 "/>
<path style=" stroke:none;fill-rule:nonzero;fill:rgb(15.294118%,63.529412%,85.882353%);fill-opacity:1;" d="M 17.15625 28.832031 C 18.21875 28.921875 19.308594 29.0625 20.238281 29.585938 C 20.765625 29.882812 21.28125 30.316406 21.886719 30.265625 C 22.605469 30.210938 23.074219 29.515625 23.425781 28.890625 C 23.609375 28.605469 23.734375 28.285156 23.800781 27.957031 C 23.886719 27.363281 23.574219 26.769531 23.121094 26.382812 C 22.667969 25.992188 22.089844 25.777344 21.515625 25.617188 C 20.382812 25.300781 19.210938 25.160156 18.042969 25.050781 C 16.527344 24.910156 14.96875 24.820312 13.503906 25.246094 C 12.074219 25.65625 8.546875 28.292969 10.738281 29.839844 C 11.675781 30.5 12.304688 29.8125 13.121094 29.378906 C 14.390625 28.710938 15.753906 28.710938 17.15625 28.832031 Z M 17.15625 28.832031 "/>
<path style=" stroke:none;fill-rule:nonzero;fill:rgb(39.215686%,47.45098%,54.117647%);fill-opacity:1;" d="M 13.707031 35.535156 C 14.597656 35.878906 15.574219 35.910156 16.527344 35.941406 C 17.332031 35.964844 18.148438 35.988281 18.921875 35.773438 C 19.40625 35.625 19.878906 35.425781 20.324219 35.183594 C 21.355469 34.664062 22.46875 34.007812 22.777344 32.898438 C 22.773438 33.609375 22.496094 34.289062 22.007812 34.808594 C 21.78125 35.035156 21.527344 35.238281 21.253906 35.410156 C 18.761719 37.042969 15.359375 37.183594 12.734375 35.761719 C 12.441406 35.601562 12.144531 35.410156 11.992188 35.113281 C 11.777344 34.683594 11.894531 34.152344 11.855469 33.695312 C 12.164062 34.550781 12.84375 35.226562 13.707031 35.535156 Z M 13.707031 35.535156 "/>
<path style=" stroke:none;fill-rule:nonzero;fill:rgb(10.980392%,45.882353%,63.137255%);fill-opacity:1;" d="M 33.421875 35.292969 C 36.464844 35.292969 38.847656 33.746094 38.847656 31.777344 C 38.847656 29.804688 36.464844 28.261719 33.421875 28.261719 C 30.378906 28.261719 27.992188 29.804688 27.992188 31.777344 C 27.992188 33.746094 30.378906 35.292969 33.421875 35.292969 Z M 33.421875 35.292969 "/>
<path style=" stroke:none;fill-rule:nonzero;fill:rgb(98.823529%,83.137255%,38.431373%);fill-opacity:1;" d="M 28.714844 31.777344 C 28.714844 33.257812 30.652344 34.472656 33.109375 34.570312 C 33.210938 34.574219 33.3125 34.574219 33.421875 34.574219 C 36.019531 34.574219 38.132812 33.320312 38.132812 31.777344 C 38.132812 30.230469 36.019531 28.976562 33.421875 28.976562 C 31.421875 28.976562 29.707031 29.71875 29.03125 30.769531 C 28.828125 31.066406 28.71875 31.417969 28.714844 31.777344 Z M 28.714844 31.777344 "/>
<path style=" stroke:none;fill-rule:nonzero;fill:rgb(89.803922%,38.823529%,32.54902%);fill-opacity:1;" d="M 33.421875 33.558594 C 33.417969 33.917969 33.3125 34.269531 33.109375 34.570312 C 32.507812 34.546875 31.90625 34.453125 31.328125 34.28125 C 30.328125 33.984375 29.53125 33.488281 29.097656 32.875 C 28.855469 32.558594 28.722656 32.175781 28.714844 31.777344 C 28.722656 31.417969 28.832031 31.066406 29.035156 30.769531 C 31.488281 30.863281 33.421875 32.082031 33.421875 33.558594 Z M 33.421875 33.558594 "/>
<path style=" stroke:none;fill-rule:nonzero;fill:rgb(10.980392%,45.882353%,63.137255%);fill-opacity:1;" d="M 28.027344 25.984375 C 28.851562 26.304688 29.203125 27.117188 29.285156 27.933594 C 29.570312 27.84375 29.859375 27.773438 30.152344 27.722656 C 30.832031 27.632812 31.523438 27.601562 32.210938 27.632812 C 34.296875 27.671875 36.394531 27.726562 38.433594 28.132812 C 38.945312 28.238281 39.472656 28.371094 39.859375 28.707031 C 40.25 29.042969 40.441406 29.636719 40.15625 30.058594 C 39.847656 30.519531 39.175781 30.773438 38.605469 30.765625 C 38.003906 30.753906 37.398438 30.53125 36.820312 30.382812 C 36.367188 30.269531 35.9375 30.070312 35.476562 29.972656 C 35.0625 29.898438 34.644531 29.871094 34.222656 29.886719 C 33.121094 29.890625 32 29.917969 30.945312 30.238281 C 30.273438 30.441406 29.609375 30.769531 28.902344 30.726562 C 28.554688 30.707031 28.121094 30.726562 27.808594 30.585938 C 27.46875 30.433594 27.136719 30.234375 26.9375 29.929688 C 26.914062 29.890625 26.894531 29.847656 26.875 29.808594 C 26.75 29.675781 26.636719 29.535156 26.53125 29.386719 C 26.210938 28.925781 26.050781 28.285156 25.988281 27.734375 C 25.847656 26.5625 26.75 25.492188 28.027344 25.984375 Z M 28.027344 25.984375 "/>
<path style=" stroke:none;fill-rule:nonzero;fill:rgb(15.294118%,63.529412%,85.882353%);fill-opacity:1;" d="M 33.191406 28.832031 C 32.128906 28.921875 31.039062 29.0625 30.109375 29.585938 C 29.582031 29.882812 29.0625 30.316406 28.460938 30.265625 C 27.742188 30.210938 27.273438 29.515625 26.921875 28.890625 C 26.738281 28.605469 26.613281 28.285156 26.542969 27.957031 C 26.460938 27.363281 26.773438 26.769531 27.226562 26.382812 C 27.679688 25.992188 28.257812 25.777344 28.832031 25.617188 C 29.964844 25.300781 31.132812 25.160156 32.304688 25.050781 C 33.820312 24.910156 35.378906 24.820312 36.84375 25.246094 C 38.273438 25.65625 41.800781 28.292969 39.609375 29.839844 C 38.671875 30.5 38.042969 29.8125 37.226562 29.378906 C 35.957031 28.710938 34.59375 28.710938 33.191406 28.832031 Z M 33.191406 28.832031 "/>
<path style=" stroke:none;fill-rule:nonzero;fill:rgb(39.215686%,47.45098%,54.117647%);fill-opacity:1;" d="M 36.640625 35.535156 C 35.75 35.878906 34.773438 35.910156 33.820312 35.941406 C 33.015625 35.964844 32.199219 35.988281 31.425781 35.773438 C 30.941406 35.625 30.46875 35.425781 30.023438 35.183594 C 28.992188 34.664062 27.878906 34.007812 27.570312 32.898438 C 27.574219 33.609375 27.851562 34.289062 28.339844 34.808594 C 28.566406 35.035156 28.820312 35.238281 29.089844 35.410156 C 31.585938 37.042969 34.988281 37.183594 37.613281 35.761719 C 37.90625 35.601562 38.203125 35.410156 38.351562 35.113281 C 38.570312 34.683594 38.453125 34.152344 38.492188 33.695312 C 38.179688 34.550781 37.503906 35.226562 36.640625 35.535156 Z M 36.640625 35.535156 "/>
<path style=" stroke:none;fill-rule:nonzero;fill:rgb(88.235294%,90.196078%,91.372549%);fill-opacity:1;" d="M 31.417969 33.8125 C 31.417969 33.972656 31.386719 34.132812 31.328125 34.28125 C 30.328125 33.984375 29.53125 33.488281 29.097656 32.875 C 29.347656 32.609375 29.699219 32.460938 30.0625 32.460938 C 30.421875 32.460938 30.765625 32.605469 31.019531 32.855469 C 31.273438 33.109375 31.417969 33.453125 31.417969 33.8125 Z M 31.417969 33.8125 "/>
<path style=" stroke:none;fill-rule:nonzero;fill:rgb(88.235294%,90.196078%,91.372549%);fill-opacity:1;" d="M 18.921875 33.8125 C 18.921875 33.972656 18.953125 34.132812 19.011719 34.28125 C 20.011719 33.984375 20.808594 33.488281 21.238281 32.875 C 20.988281 32.609375 20.640625 32.460938 20.273438 32.460938 C 19.917969 32.460938 19.570312 32.605469 19.316406 32.855469 C 19.0625 33.109375 18.921875 33.453125 18.921875 33.8125 Z M 18.921875 33.8125 "/>
<path style=" stroke:none;fill-rule:nonzero;fill:rgb(39.215686%,47.45098%,54.117647%);fill-opacity:1;" d="M 24.699219 39.804688 C 24.695312 39.816406 24.691406 39.832031 24.6875 39.84375 C 24.488281 40.457031 23.914062 40.871094 23.265625 40.871094 C 21.9375 40.863281 21.234375 39.6875 21.578125 38.664062 C 21.601562 38.578125 21.636719 38.496094 21.679688 38.414062 C 21.984375 37.828125 23.464844 36.867188 24.269531 36.375 C 24.382812 36.304688 24.523438 36.300781 24.640625 36.363281 C 24.757812 36.421875 24.832031 36.539062 24.839844 36.671875 C 24.890625 37.542969 24.9375 39.109375 24.699219 39.804688 Z M 24.699219 39.804688 "/>
<path style=" stroke:none;fill-rule:nonzero;fill:rgb(39.215686%,47.45098%,54.117647%);fill-opacity:1;" d="M 27.957031 40.660156 C 27.140625 41.085938 26.132812 40.769531 25.707031 39.957031 C 25.691406 39.925781 25.675781 39.894531 25.660156 39.855469 C 25.402344 39.1875 25.453125 37.5625 25.503906 36.667969 C 25.511719 36.539062 25.589844 36.421875 25.707031 36.359375 C 25.820312 36.300781 25.960938 36.304688 26.074219 36.375 C 26.859375 36.855469 28.292969 37.785156 28.644531 38.375 C 28.652344 38.390625 28.660156 38.398438 28.667969 38.414062 C 29.09375 39.230469 28.773438 40.238281 27.957031 40.660156 Z M 27.957031 40.660156 "/>
<path style=" stroke:none;fill-rule:nonzero;fill:rgb(22.745098%,33.333333%,41.568627%);fill-opacity:1;" d="M 24.699219 39.804688 C 24.6875 39.859375 24.667969 39.910156 24.640625 39.957031 C 24.238281 40.726562 23.3125 41.058594 22.511719 40.71875 C 21.710938 40.382812 21.304688 39.488281 21.578125 38.664062 C 22.035156 38.886719 22.460938 39.171875 22.835938 39.515625 C 22.953125 39.628906 23.085938 39.730469 23.234375 39.804688 C 23.496094 39.917969 23.796875 39.851562 24.078125 39.824219 C 24.285156 39.800781 24.492188 39.796875 24.699219 39.804688 Z M 24.699219 39.804688 "/>
<path style=" stroke:none;fill-rule:nonzero;fill:rgb(22.745098%,33.333333%,41.568627%);fill-opacity:1;" d="M 27.957031 40.660156 C 27.140625 41.085938 26.132812 40.769531 25.707031 39.957031 C 25.691406 39.925781 25.675781 39.894531 25.660156 39.855469 C 26.015625 39.882812 26.367188 39.902344 26.722656 39.925781 C 27.011719 39.945312 27.316406 39.960938 27.558594 39.816406 C 27.710938 39.714844 27.835938 39.585938 27.929688 39.433594 C 28.167969 39.082031 28.367188 38.6875 28.644531 38.375 C 28.652344 38.390625 28.660156 38.398438 28.664062 38.414062 C 29.09375 39.230469 28.773438 40.238281 27.957031 40.660156 Z M 27.957031 40.660156 "/>
<path style=" stroke:none;fill-rule:nonzero;fill:rgb(89.803922%,38.823529%,32.54902%);fill-opacity:1;" d="M 32.007812 49.777344 C 31.484375 49.929688 30.945312 49.660156 30.457031 49.414062 C 30.183594 49.277344 29.914062 49.140625 29.632812 49.019531 C 29.578125 49 29.527344 48.976562 29.476562 48.949219 C 28.984375 48.726562 28.476562 48.535156 27.957031 48.375 C 27.011719 48.097656 26.039062 47.964844 25.070312 48.109375 C 23.96875 48.265625 22.945312 48.777344 21.898438 49.160156 C 21.847656 49.183594 21.792969 49.199219 21.746094 49.214844 C 21.695312 49.234375 21.640625 49.253906 21.585938 49.273438 C 21.34375 49.355469 21.097656 49.425781 20.851562 49.484375 C 20.679688 49.53125 20.503906 49.5625 20.332031 49.589844 C 19.644531 49.695312 18.957031 49.671875 18.324219 49.402344 C 17.789062 49.183594 17.269531 48.601562 17.511719 48.082031 C 17.746094 47.574219 18.457031 47.558594 18.921875 47.269531 C 19.585938 46.871094 19.585938 45.851562 19.625 44.878906 C 19.667969 43.699219 19.773438 42.578125 21.175781 42.738281 C 21.449219 42.785156 21.707031 42.882812 21.941406 43.023438 C 22.113281 43.105469 22.277344 43.195312 22.449219 43.28125 C 22.824219 43.46875 23.203125 43.667969 23.578125 43.859375 C 23.667969 43.910156 23.753906 43.945312 23.84375 43.996094 C 24.070312 44.117188 24.304688 44.226562 24.542969 44.320312 C 24.78125 44.414062 25.03125 44.464844 25.285156 44.46875 C 25.492188 44.464844 25.695312 44.433594 25.890625 44.371094 C 26.199219 44.261719 26.488281 44.105469 26.75 43.914062 C 26.972656 43.761719 27.1875 43.589844 27.402344 43.425781 C 27.511719 43.332031 27.632812 43.246094 27.753906 43.167969 C 28.3125 42.78125 28.957031 42.492188 29.589844 42.660156 C 30.171875 42.816406 30.597656 43.320312 30.859375 43.859375 C 30.996094 44.136719 31.113281 44.425781 31.214844 44.71875 C 31.3125 44.992188 31.425781 45.257812 31.550781 45.515625 C 31.917969 46.261719 32.523438 46.894531 32.789062 47.683594 C 33.058594 48.46875 32.816406 49.550781 32.007812 49.777344 Z M 32.007812 49.777344 "/>
<path style=" stroke:none;fill-rule:nonzero;fill:rgb(80.784314%,25.490196%,17.647059%);fill-opacity:1;" d="M 29.476562 48.949219 C 28.074219 48.324219 26.574219 47.886719 25.070312 48.109375 C 23.914062 48.273438 22.847656 48.824219 21.746094 49.21875 C 21.453125 49.324219 21.15625 49.414062 20.855469 49.488281 C 20.847656 49.441406 20.847656 49.394531 20.847656 49.347656 C 20.847656 47.476562 22.082031 45.960938 23.609375 45.960938 C 24.183594 45.964844 24.738281 46.175781 25.171875 46.554688 C 25.601562 46.175781 26.15625 45.960938 26.734375 45.960938 C 28.148438 45.960938 29.316406 47.265625 29.476562 48.949219 Z M 29.476562 48.949219 "/>
<path style=" stroke:none;fill-rule:nonzero;fill:rgb(88.235294%,90.196078%,91.372549%);fill-opacity:1;" d="M 22.195312 48.269531 L 21.898438 49.164062 C 21.847656 49.183594 21.796875 49.199219 21.746094 49.21875 L 21.585938 49.273438 C 21.34375 49.355469 21.101562 49.425781 20.855469 49.488281 C 20.679688 49.527344 20.507812 49.5625 20.332031 49.589844 L 20.328125 48.089844 C 20.320312 47.90625 20.507812 47.761719 20.734375 47.785156 L 21.882812 47.894531 C 22.113281 47.910156 22.253906 48.089844 22.195312 48.269531 Z M 22.195312 48.269531 "/>
<path style=" stroke:none;fill-rule:nonzero;fill:rgb(88.235294%,90.196078%,91.372549%);fill-opacity:1;" d="M 29.636719 47.640625 L 29.632812 49.019531 C 29.578125 48.996094 29.53125 48.972656 29.476562 48.949219 C 28.980469 48.726562 28.472656 48.535156 27.957031 48.375 L 27.769531 47.820312 C 27.710938 47.644531 27.851562 47.464844 28.082031 47.445312 L 29.230469 47.339844 C 29.457031 47.3125 29.644531 47.457031 29.636719 47.640625 Z M 29.636719 47.640625 "/>
<path style=" stroke:none;fill-rule:nonzero;fill:rgb(22.745098%,33.333333%,41.568627%);fill-opacity:1;" d="M 34.898438 48.828125 C 34.746094 49.019531 34.601562 49.222656 34.46875 49.433594 C 34.058594 50.105469 33.886719 50.886719 33.253906 51.449219 C 33.078125 51.605469 33.074219 51.621094 33.128906 51.824219 L 33.691406 51.5 C 33.875 51.402344 34.050781 51.289062 34.214844 51.15625 C 34.417969 50.960938 34.585938 50.726562 34.699219 50.46875 C 35.152344 49.597656 35.390625 48.742188 35.65625 47.824219 Z M 34.898438 48.828125 "/>
<path style=" stroke:none;fill-rule:nonzero;fill:rgb(22.745098%,33.333333%,41.568627%);fill-opacity:1;" d="M 17.125 51.449219 C 16.488281 50.886719 16.320312 50.105469 15.90625 49.433594 C 15.78125 49.222656 15.628906 49.023438 15.476562 48.828125 C 15.226562 48.492188 14.972656 48.160156 14.71875 47.824219 C 14.984375 48.742188 15.222656 49.597656 15.675781 50.46875 C 15.789062 50.726562 15.957031 50.960938 16.160156 51.15625 C 16.324219 51.289062 16.5 51.402344 16.683594 51.5 L 17.246094 51.824219 C 17.300781 51.621094 17.300781 51.605469 17.125 51.449219 Z M 17.125 51.449219 "/>
<path style=" stroke:none;fill-rule:nonzero;fill:rgb(81.960784%,32.156863%,25.490196%);fill-opacity:1;" d="M 31.214844 44.71875 C 29.6875 45.257812 27.542969 45.59375 25.171875 45.59375 C 23.039062 45.59375 21.101562 45.324219 19.625 44.878906 C 19.667969 43.699219 19.773438 42.578125 21.175781 42.738281 C 21.449219 42.785156 21.707031 42.882812 21.941406 43.023438 C 22.113281 43.105469 22.277344 43.195312 22.449219 43.28125 C 22.824219 43.46875 23.203125 43.667969 23.578125 43.859375 C 23.667969 43.90625 23.753906 43.945312 23.84375 43.996094 C 24.070312 44.117188 24.304688 44.226562 24.542969 44.320312 C 24.78125 44.414062 25.03125 44.460938 25.285156 44.46875 C 25.492188 44.464844 25.695312 44.433594 25.890625 44.367188 C 26.199219 44.261719 26.488281 44.105469 26.75 43.914062 C 26.972656 43.757812 27.1875 43.589844 27.402344 43.425781 C 27.511719 43.332031 27.632812 43.246094 27.753906 43.167969 C 28.3125 42.78125 28.957031 42.492188 29.589844 42.660156 C 30.171875 42.816406 30.597656 43.320312 30.859375 43.859375 C 30.996094 44.136719 31.113281 44.425781 31.214844 44.71875 Z M 31.214844 44.71875 "/>
<path style=" stroke:none;fill-rule:nonzero;fill:rgb(88.235294%,90.196078%,91.372549%);fill-opacity:1;" d="M 25.648438 45.332031 L 24.699219 45.289062 C 24.613281 45.285156 24.53125 45.242188 24.476562 45.175781 C 24.421875 45.105469 24.402344 45.019531 24.417969 44.933594 L 24.542969 44.320312 C 24.777344 44.414062 25.03125 44.464844 25.285156 44.46875 C 25.492188 44.46875 25.695312 44.433594 25.890625 44.367188 L 25.960938 45 C 25.96875 45.085938 25.941406 45.171875 25.882812 45.234375 C 25.820312 45.300781 25.734375 45.335938 25.648438 45.332031 Z M 25.648438 45.332031 "/>
<path style=" stroke:none;fill-rule:nonzero;fill:rgb(88.235294%,90.196078%,91.372549%);fill-opacity:1;" d="M 23.578125 43.859375 L 23.328125 44.691406 C 23.300781 44.773438 23.242188 44.839844 23.160156 44.875 C 23.082031 44.910156 22.988281 44.910156 22.910156 44.871094 L 22.054688 44.464844 C 21.976562 44.425781 21.917969 44.355469 21.894531 44.269531 C 21.871094 44.1875 21.886719 44.097656 21.9375 44.027344 L 22.425781 43.308594 Z M 23.578125 43.859375 "/>
<path style=" stroke:none;fill-rule:nonzero;fill:rgb(88.235294%,90.196078%,91.372549%);fill-opacity:1;" d="M 28.292969 44.566406 L 27.4375 44.972656 C 27.359375 45.011719 27.265625 45.011719 27.1875 44.980469 C 27.109375 44.945312 27.046875 44.875 27.023438 44.792969 L 26.753906 43.914062 C 26.972656 43.757812 27.1875 43.589844 27.398438 43.425781 C 27.511719 43.335938 27.625 43.25 27.753906 43.167969 L 28.410156 44.128906 C 28.460938 44.199219 28.476562 44.289062 28.453125 44.375 C 28.429688 44.457031 28.371094 44.527344 28.292969 44.566406 Z M 28.292969 44.566406 "/>
<path style=" stroke:none;fill-rule:nonzero;fill:rgb(83.529412%,83.921569%,85.882353%);fill-opacity:1;" d="M 25.996094 54 C 25.734375 54.015625 25.460938 54.019531 25.1875 54.019531 C 20.539062 54.019531 17.964844 52.136719 16.832031 50.996094 C 16.296875 50.457031 15.605469 50.105469 14.851562 49.996094 C 9.019531 49.171875 8.617188 46.554688 9.078125 44.78125 C 9.453125 43.320312 9.492188 41.792969 9.070312 40.351562 L 8.898438 39.761719 C 8.734375 39.183594 8.496094 38.625 8.191406 38.105469 C 6.390625 35.019531 5.886719 30.847656 5.746094 28.527344 C 5.636719 26.664062 6.082031 24.785156 7.167969 23.234375 C 11.957031 16.347656 20.527344 15.234375 25.1875 15.234375 C 25.265625 15.234375 25.339844 15.234375 25.425781 15.242188 C 25.339844 15.515625 25.183594 15.765625 24.976562 15.96875 C 23.8125 17.234375 22.054688 17.851562 20.4375 18.296875 C 18.4375 18.847656 16.324219 19.253906 14.695312 20.527344 C 13.664062 21.328125 12.898438 22.425781 11.847656 23.183594 C 10.84375 23.902344 9.554688 24.359375 8.980469 25.445312 C 8.519531 26.320312 8.644531 27.367188 8.78125 28.339844 C 9.25 31.65625 9.773438 35.113281 11.714844 37.847656 C 12.554688 39.027344 13.714844 40.371094 13.207031 41.726562 C 12.925781 42.484375 12.152344 43.050781 12.09375 43.859375 C 12.042969 44.523438 12.511719 45.117188 13.046875 45.515625 C 13.574219 45.917969 14.203125 46.1875 14.703125 46.625 C 16.214844 47.949219 16.394531 50.539062 18.207031 51.40625 C 19.574219 52.058594 21.203125 51.390625 22.699219 51.625 C 24.105469 51.851562 25.160156 52.808594 25.996094 54 Z M 25.996094 54 "/>
<path style=" stroke:none;fill-rule:nonzero;fill:rgb(83.529412%,83.921569%,85.882353%);fill-opacity:1;" d="M 43.9375 33.433594 C 43.570312 35.03125 43.019531 36.683594 42.1875 38.101562 C 41.882812 38.625 41.648438 39.183594 41.480469 39.761719 L 41.308594 40.351562 C 40.886719 41.792969 40.925781 43.320312 41.300781 44.78125 C 41.761719 46.554688 41.355469 49.171875 35.527344 49.996094 C 34.773438 50.105469 34.082031 50.457031 33.546875 50.996094 C 32.824219 51.714844 31.984375 52.308594 31.0625 52.753906 C 31.433594 51.761719 32.058594 50.882812 32.875 50.210938 C 33.289062 49.871094 33.757812 49.585938 34.070312 49.152344 C 34.574219 48.476562 34.628906 47.535156 35.171875 46.890625 C 35.6875 46.28125 36.519531 46.066406 37.265625 45.785156 C 38.023438 45.511719 38.820312 45.054688 38.996094 44.277344 C 39.113281 43.789062 38.945312 43.28125 38.910156 42.78125 C 38.824219 41.730469 39.304688 40.71875 39.800781 39.78125 C 40.523438 38.414062 41.332031 37.105469 42.148438 35.800781 C 42.59375 35.082031 43.058594 33.734375 43.9375 33.433594 Z M 43.9375 33.433594 "/>
<path style=" stroke:none;fill-rule:nonzero;fill:rgb(18.431373%,28.235294%,34.901961%);fill-opacity:1;" d="M 46.886719 12.046875 C 46.4375 10.734375 45.34375 9.726562 44.421875 8.652344 C 43.5 7.578125 42.6875 6.246094 42.964844 4.890625 C 43.109375 4.195312 43.523438 3.589844 43.875 2.960938 C 43.980469 2.769531 43.953125 2.535156 43.8125 2.375 C 43.667969 2.210938 43.4375 2.15625 43.234375 2.238281 L 38.589844 4.117188 C 38.433594 4.199219 38.253906 4.230469 38.078125 4.210938 C 37.832031 4.15625 37.695312 3.917969 37.570312 3.707031 C 36.660156 2.144531 34.9375 1.105469 33.121094 0.585938 C 31.304688 0.0703125 29.382812 0.015625 27.484375 0.00390625 C 21.230469 -0.0351562 14.984375 0.359375 8.789062 1.1875 C 8.589844 1.214844 8.421875 1.355469 8.363281 1.546875 C 8.308594 1.738281 8.367188 1.949219 8.515625 2.082031 C 9.425781 2.871094 10.363281 3.636719 11.324219 4.371094 C 11.5 4.5 11.574219 4.722656 11.507812 4.929688 C 11.441406 5.136719 11.253906 5.28125 11.035156 5.285156 L 6.054688 5.421875 C 5.828125 5.425781 5.632812 5.582031 5.578125 5.800781 C 5.519531 6.015625 5.609375 6.246094 5.804688 6.367188 L 8.90625 8.25 C 9.039062 8.332031 9.128906 8.472656 9.148438 8.625 C 9.164062 8.78125 9.109375 8.9375 9 9.046875 L 2.253906 15.664062 C 1.894531 16.015625 2.210938 16.632812 2.703125 16.527344 C 3.292969 16.398438 3.898438 16.339844 4.503906 16.359375 C 4.695312 16.367188 4.867188 16.488281 4.941406 16.667969 C 5.019531 16.84375 4.984375 17.050781 4.855469 17.195312 C 4.085938 18.066406 3.648438 19.203125 3.492188 20.339844 C 3.292969 21.820312 3.515625 23.320312 3.742188 24.800781 C 4.023438 26.65625 4.304688 28.523438 4.925781 30.304688 C 5.328125 31.453125 5.863281 32.5625 6.101562 33.746094 C 6.226562 34.347656 6.246094 34.96875 6.152344 35.578125 C 6.09375 35.960938 6.289062 36.421875 6.679688 36.503906 C 7.292969 36.628906 6.707031 35.613281 6.792969 35.019531 C 6.9375 34.007812 6.769531 32.984375 6.785156 31.96875 C 6.824219 29.183594 8.195312 26.59375 8.9375 23.902344 C 9.164062 23.078125 9.332031 22.242188 9.441406 21.398438 C 9.503906 20.851562 9.824219 20.363281 10.308594 20.089844 C 10.789062 19.820312 11.375 19.792969 11.878906 20.023438 C 12.605469 20.363281 13.363281 20.640625 14.140625 20.855469 C 15.753906 21.28125 17.550781 21.320312 19.058594 20.625 C 19.355469 20.484375 19.675781 20.316406 19.996094 20.394531 C 20.171875 20.449219 20.335938 20.542969 20.476562 20.660156 C 22.472656 22.109375 25.46875 22.183594 27.550781 20.84375 C 28.003906 20.550781 28.457031 20.183594 29.007812 20.164062 C 29.355469 20.152344 29.6875 20.285156 30.011719 20.398438 C 32.980469 21.421875 36.234375 21.257812 39.082031 19.9375 C 39.238281 19.871094 39.417969 19.882812 39.558594 19.972656 C 39.703125 20.0625 39.792969 20.21875 39.800781 20.386719 C 40.027344 23.898438 41.589844 27.273438 41.914062 30.796875 C 42.019531 31.960938 41.996094 33.152344 42.398438 34.257812 C 42.65625 34.992188 43.148438 35.625 43.796875 36.0625 C 43.972656 36.183594 44.207031 36.179688 44.378906 36.054688 C 44.550781 35.929688 44.628906 35.710938 44.570312 35.503906 C 44.316406 34.605469 44.378906 33.617188 44.605469 32.703125 C 44.914062 31.4375 45.503906 30.253906 45.898438 29.011719 C 47.210938 24.921875 46.425781 20.519531 46.898438 16.273438 C 47.054688 14.859375 47.347656 13.398438 46.886719 12.046875 Z M 46.886719 12.046875 "/>
<path style=" stroke:none;fill-rule:nonzero;fill:rgb(22.745098%,33.333333%,41.568627%);fill-opacity:1;" d="M 43.777344 28.386719 C 43.558594 27.296875 43.277344 26.238281 43 25.203125 C 42.539062 23.476562 42.105469 21.847656 42 20.242188 C 41.910156 18.816406 40.726562 17.699219 39.289062 17.691406 C 38.890625 17.691406 38.496094 17.777344 38.140625 17.949219 C 36.828125 18.554688 35.402344 18.867188 33.957031 18.863281 C 32.863281 18.867188 31.777344 18.683594 30.75 18.324219 L 30.671875 18.296875 C 30.15625 18.089844 29.609375 17.976562 29.050781 17.964844 L 28.933594 17.964844 C 27.832031 18.003906 27.046875 18.53125 26.523438 18.878906 L 26.347656 18.996094 C 24.929688 19.839844 23.148438 19.796875 21.773438 18.882812 C 21.398438 18.585938 20.96875 18.375 20.507812 18.253906 C 20.285156 18.199219 20.058594 18.175781 19.828125 18.175781 C 19.257812 18.1875 18.695312 18.332031 18.191406 18.597656 C 17.632812 18.847656 17.027344 18.972656 16.417969 18.960938 C 15.839844 18.957031 15.261719 18.878906 14.703125 18.726562 C 14.050781 18.546875 13.410156 18.3125 12.796875 18.023438 C 12.28125 17.785156 11.722656 17.664062 11.15625 17.664062 C 9.167969 17.675781 7.496094 19.152344 7.25 21.117188 C 7.152344 21.859375 7.003906 22.597656 6.808594 23.316406 C 6.609375 24.039062 6.355469 24.765625 6.085938 25.527344 C 6.03125 25.179688 5.976562 24.828125 5.925781 24.472656 C 5.726562 23.167969 5.519531 21.816406 5.679688 20.636719 C 5.789062 19.839844 6.085938 19.132812 6.511719 18.652344 C 7.5 17.523438 7.390625 15.8125 6.265625 14.816406 L 10.546875 10.617188 C 11.148438 10.03125 11.441406 9.203125 11.339844 8.375 C 11.304688 8.066406 11.21875 7.765625 11.082031 7.488281 L 11.09375 7.488281 C 12.167969 7.457031 13.125 6.800781 13.535156 5.808594 C 13.945312 4.820312 13.730469 3.679688 12.984375 2.90625 C 17.527344 2.4375 22.085938 2.203125 26.648438 2.203125 L 27.46875 2.203125 C 29.242188 2.214844 30.960938 2.261719 32.515625 2.703125 C 33.972656 3.121094 35.121094 3.890625 35.660156 4.8125 C 35.871094 5.175781 36.414062 6.105469 37.609375 6.363281 C 37.796875 6.402344 37.988281 6.421875 38.179688 6.421875 C 38.605469 6.417969 39.027344 6.328125 39.417969 6.15625 L 40.703125 5.636719 C 40.761719 7.082031 41.445312 8.570312 42.746094 10.085938 C 42.9375 10.3125 43.140625 10.535156 43.34375 10.761719 C 43.980469 11.464844 44.582031 12.132812 44.792969 12.757812 C 45.023438 13.429688 44.90625 14.371094 44.78125 15.367188 C 44.753906 15.589844 44.726562 15.808594 44.699219 16.027344 C 44.507812 17.746094 44.507812 19.449219 44.507812 21.097656 C 44.507812 23.675781 44.507812 26.117188 43.792969 28.34375 Z M 43.777344 28.386719 "/>
</g>
</svg>
