<?xml version="1.0" encoding="iso-8859-1"?>
<!-- Generator: Adobe Illustrator 19.0.0, SVG Export Plug-In . SVG Version: 6.00 Build 0)  -->
<svg version="1.1" id="Capa_1" xmlns="http://www.w3.org/2000/svg" xmlns:xlink="http://www.w3.org/1999/xlink" x="0px" y="0px"
	 viewBox="0 0 468.293 468.293" style="enable-background:new 0 0 468.293 468.293;" xml:space="preserve">
<path style="fill:#3A556A;" d="M30.085,260.504c-13.907,17.65-8.444,43.684,10.108,56.364c22.098,15.104,13.251,38.537,30.15,34.709
	c20.431-4.628,31.806-31.276,25.409-59.522c-6.398-28.245-28.147-47.391-48.577-42.763C40.365,250.835,34.56,254.824,30.085,260.504
	z"/>
<path style="fill:#64798A;" d="M45.653,295.833c2.337,3.313,4.674,6.625,7.011,9.938c2.309,3.273,4.648,6.603,5.955,10.389
	c1.213,3.512,1.501,7.321,3.006,10.718c1.475,3.329,4.114,6.129,7.352,7.797c1.87,0.963,4.13,1.546,6.06,0.71
	c2.39-1.035,3.45-3.869,3.67-6.464c0.411-4.865-1.226-9.644-2.839-14.253c-4.423-12.63-9.638-24.496-15.631-36.442
	c-1.688-3.364-3.415-7.208-7.437-8.112c-4.966-1.116-10.706,2.001-12.66,6.594C37.293,283.397,41.923,290.547,45.653,295.833z"/>
<path style="fill:#3A556A;" d="M438.208,260.504c13.907,17.65,8.443,43.684-10.108,56.364
	c-22.098,15.104-13.251,38.537-30.15,34.709c-20.431-4.628-31.806-31.276-25.409-59.522c6.398-28.245,28.147-47.391,48.577-42.763
	C427.928,250.835,433.732,254.824,438.208,260.504z"/>
<path style="fill:#64798A;" d="M422.64,295.833c-2.337,3.313-4.674,6.625-7.011,9.938c-2.309,3.273-4.648,6.603-5.955,10.389
	c-1.213,3.512-1.501,7.321-3.006,10.718c-1.475,3.329-4.114,6.129-7.352,7.797c-1.869,0.963-4.13,1.546-6.06,0.71
	c-2.39-1.035-3.45-3.869-3.67-6.464c-0.411-4.865,1.226-9.644,2.839-14.253c4.423-12.63,9.638-24.496,15.631-36.442
	c1.688-3.364,3.415-7.208,7.437-8.112c4.966-1.116,10.706,2.001,12.66,6.594C431,283.397,426.37,290.547,422.64,295.833z"/>
<path style="fill:#3A556A;" d="M237.383,468.293c-40.498,0-64.335-15.69-76.191-26.889c-4.472-4.224-10.102-6.978-16.176-7.948
	c-24.183-3.861-40.25-11.759-48.904-23.983c-6.513-9.198-8.308-20.446-5.189-32.522c2.901-11.228,2.906-22.39,0.017-32.282
	l-1.463-5.015c-1.287-4.403-2.963-8.392-4.978-11.853c-16.474-28.238-20.935-66.012-22.13-86.017
	c-1.116-18.678,3.801-36.94,13.841-51.422c45.323-65.357,127.811-72.413,161.172-72.413c33.363,0,115.852,7.056,161.174,72.413
	c10.038,14.476,14.955,32.738,13.842,51.422c-1.197,20.01-5.663,57.791-22.13,86.019c-2.021,3.466-3.697,7.453-4.978,11.848
	l-1.463,5.015c-2.888,9.895-2.883,21.056,0.017,32.284c3.119,12.076,1.324,23.324-5.189,32.522
	c-8.654,12.224-24.723,20.122-48.906,23.983c-6.075,0.97-11.705,3.724-16.177,7.949
	C301.718,452.603,277.882,468.293,237.383,468.293z"/>
<path style="fill:#E1E6E9;" d="M400.758,242.728c-0.607,10.651-2.149,25.879-5.886,41.761c-3.13,13.594-7.801,27.654-14.855,39.706
	c-2.616,4.438-4.531,9.249-5.979,14.154l-1.448,4.998c-3.597,12.285-3.27,25.271-0.094,37.697
	c3.924,15.088,0.467,37.37-48.955,44.377c-6.353,0.888-12.239,3.924-16.77,8.502c-4.344,4.391-11.211,10.09-21.067,14.948
	c-10.604,5.372-24.711,9.716-42.975,10.604c-2.242,0.14-4.531,0.187-6.867,0.187c-39.425,0-61.24-16.022-70.863-25.739
	c-4.531-4.578-10.417-7.614-16.77-8.502c-49.468-7.007-52.879-29.289-48.955-44.377c3.176-12.425,3.503-25.412-0.094-37.697
	l-1.448-4.998c-1.448-4.905-3.363-9.716-5.979-14.107c-15.275-26.252-19.573-61.754-20.74-81.513
	c-0.934-15.836,2.849-31.811,12.052-45.031c40.593-58.577,113.278-68.06,152.797-68.06c0.654,0,1.308,0,2.009,0.046
	c39.986,0.28,110.895,10.417,150.835,68.013C397.862,210.917,401.692,226.893,400.758,242.728z"/>
<g>
	<path style="fill:#64798A;" d="M234.418,196.902c3.075-0.701,6.029-1.846,9.062-2.709c8.638-2.459,17.742-2.596,26.722-2.716
		c0.385,2.351-2.28,3.93-4.501,4.79c-8.029,3.109-16.058,6.218-24.087,9.328c-2.567,0.994-5.144,1.991-7.829,2.6
		c-7.466,1.692-15.605,0.169-21.955-4.107c-3.804-2.562-7.458-6.377-9.347-10.609c-2.674-5.99-0.789-6.293,3.92-3.384
		C215.212,195.533,223.756,199.334,234.418,196.902z"/>
	<path style="fill:#64798A;" d="M234.321,178.177c2.13-0.486,4.176-1.278,6.277-1.876c5.983-1.703,12.288-1.798,18.508-1.881
		c0.266,1.628-1.579,2.722-3.117,3.317c-5.561,2.153-11.122,4.307-16.683,6.46c-1.778,0.688-3.563,1.379-5.422,1.801
		c-5.171,1.172-10.808,0.117-15.206-2.845c-2.635-1.775-5.166-4.417-6.474-7.348c-1.852-4.149-0.547-4.359,2.715-2.344
		C221.019,177.229,226.937,179.861,234.321,178.177z"/>
</g>
<path style="fill:#1C75A1;" d="M165.815,300.298c-25.809,0-46.027-13.137-46.027-29.907c0-16.769,20.218-29.907,46.027-29.907
	c25.806,0,46.024,13.137,46.024,29.907C211.839,287.161,191.621,300.298,165.815,300.298z"/>
<path style="fill:#FCD462;" d="M205.73,270.385c0,12.592-16.451,22.95-37.268,23.762c-0.863,0.051-1.726,0.051-2.64,0.051
	c-22.036,0-39.959-10.663-39.959-23.813c0-13.15,17.923-23.813,39.959-23.813c16.959,0,31.48,6.296,37.218,15.232
	C204.765,264.495,205.73,267.39,205.73,270.385z"/>
<path style="fill:#E56353;" d="M205.73,270.385c0,12.592-16.451,22.95-37.268,23.762c-1.726-2.691-2.64-5.534-2.64-8.581
	c0-12.592,16.4-22.95,37.218-23.762C204.765,264.495,205.73,267.39,205.73,270.385z"/>
<path style="fill:#1C75A1;" d="M211.554,221.112c-7.003,2.708-9.966,9.645-10.673,16.569c-2.408-0.731-4.844-1.375-7.344-1.783
	c-5.753-0.938-11.626-0.855-17.46-0.753c-17.678,0.31-35.467,0.786-52.777,4.252c-4.335,0.868-8.819,2.017-12.104,4.874
	c-3.285,2.858-4.91,7.919-2.504,11.497c2.629,3.908,8.326,6.068,13.162,5.998c5.077-0.074,10.215-1.967,15.121-3.226
	c3.853-0.988,7.491-2.686,11.386-3.506c3.481-0.732,7.078-0.744,10.641-0.728c9.355,0.042,18.861,0.276,27.782,2.99
	c5.724,1.741,11.358,4.519,17.35,4.167c2.924-0.172,6.601-0.009,9.256-1.201c2.885-1.296,5.71-3.012,7.397-5.611
	c0.24-0.37,0.34-0.677,0.52-1.02c1.07-1.12,2.043-2.339,2.923-3.599c2.729-3.904,4.057-9.366,4.612-14.041
	C230.029,226.007,222.368,216.929,211.554,221.112z"/>
<path style="fill:#27A2DB;" d="M167.756,245.325c9.012,0.783,18.266,1.985,26.139,6.439c4.468,2.527,8.863,6.184,13.98,5.784
	c6.087-0.475,10.079-6.39,13.048-11.725c1.397-2.511,2.8-5.105,3.196-7.951c0.699-5.024-1.947-10.081-5.789-13.392
	c-3.842-3.312-8.734-5.135-13.618-6.506c-9.581-2.689-19.515-3.879-29.423-4.807c-12.868-1.206-26.086-1.958-38.5,1.638
	c-12.129,3.514-42.043,25.951-23.458,39.094c7.949,5.622,13.297-0.225,20.221-3.896
	C144.305,244.303,155.879,244.293,167.756,245.325z"/>
<path style="fill:#64798A;" d="M138.514,302.371c7.558,2.91,15.833,3.193,23.928,3.441c6.801,0.209,13.724,0.403,20.282-1.41
	c4.156-1.149,8.05-3.075,11.896-5.025c8.733-4.427,18.196-10.015,20.815-19.449c-0.032,5.981-2.419,11.917-6.536,16.255
	c-1.882,1.983-4.092,3.627-6.377,5.127c-21.163,13.892-50.015,15.082-72.25,2.979c-2.489-1.355-5.016-2.986-6.29-5.518
	c-1.827-3.631-0.839-8.163-1.184-12.064C125.433,294.17,131.157,299.538,138.514,302.371z"/>
<path style="fill:#1C75A1;" d="M305.685,300.298c25.809,0,46.027-13.137,46.027-29.907c0-16.769-20.218-29.907-46.027-29.907
	c-25.806,0-46.024,13.137-46.024,29.907C259.661,287.161,279.879,300.298,305.685,300.298z"/>
<path style="fill:#FCD462;" d="M265.77,270.385c0,12.592,16.451,22.95,37.268,23.762c0.863,0.051,1.726,0.051,2.64,0.051
	c22.036,0,39.959-10.663,39.959-23.813c0-13.15-17.923-23.813-39.959-23.813c-16.959,0-31.48,6.296-37.218,15.232
	C266.735,264.495,265.77,267.39,265.77,270.385z"/>
<path style="fill:#E56353;" d="M305.698,285.567c0,3.047-0.914,5.89-2.64,8.581c-5.433-0.203-10.51-1.066-15.131-2.437
	c-8.48-2.539-15.232-6.753-18.888-11.983c-2.132-2.894-3.25-6.042-3.25-9.343c0-2.996,0.965-5.89,2.691-8.581
	C289.298,262.617,305.698,272.975,305.698,285.567z"/>
<path style="fill:#1C75A1;" d="M259.946,221.112c7.003,2.708,9.966,9.645,10.673,16.569c2.408-0.731,4.844-1.375,7.344-1.783
	c5.753-0.938,11.626-0.855,17.46-0.753c17.678,0.31,35.467,0.786,52.777,4.252c4.335,0.868,8.819,2.017,12.104,4.874
	c3.285,2.858,4.91,7.919,2.504,11.497c-2.629,3.908-8.326,6.068-13.162,5.998c-5.077-0.074-10.215-1.967-15.121-3.226
	c-3.853-0.988-7.491-2.686-11.386-3.506c-3.481-0.732-7.078-0.744-10.641-0.728c-9.355,0.042-18.861,0.276-27.782,2.99
	c-5.724,1.741-11.358,4.519-17.35,4.167c-2.924-0.172-6.601-0.009-9.256-1.201c-2.885-1.296-5.71-3.012-7.397-5.611
	c-0.24-0.37-0.34-0.677-0.52-1.02c-1.07-1.12-2.043-2.339-2.923-3.599c-2.729-3.904-4.057-9.366-4.612-14.041
	C241.471,226.007,249.132,216.929,259.946,221.112z"/>
<path style="fill:#27A2DB;" d="M303.744,245.325c-9.012,0.783-18.266,1.985-26.139,6.439c-4.468,2.527-8.863,6.184-13.98,5.784
	c-6.087-0.475-10.079-6.39-13.048-11.725c-1.397-2.511-2.8-5.105-3.196-7.951c-0.699-5.024,1.947-10.081,5.789-13.392
	c3.842-3.312,8.734-5.135,13.618-6.506c9.581-2.689,19.515-3.879,29.423-4.807c12.868-1.206,26.086-1.958,38.5,1.638
	c12.129,3.514,42.043,25.951,23.458,39.094c-7.949,5.622-13.297-0.225-20.221-3.896
	C327.195,244.303,315.621,244.293,303.744,245.325z"/>
<path style="fill:#64798A;" d="M332.986,302.371c-7.558,2.91-15.833,3.193-23.928,3.441c-6.801,0.209-13.724,0.403-20.282-1.41
	c-4.156-1.149-8.05-3.075-11.896-5.025c-8.733-4.427-18.196-10.015-20.815-19.449c0.032,5.981,2.419,11.917,6.536,16.255
	c1.882,1.983,4.092,3.627,6.377,5.127c21.163,13.892,50.015,15.082,72.25,2.979c2.489-1.355,5.016-2.986,6.29-5.518
	c1.827-3.631,0.839-8.163,1.184-12.064C346.067,294.17,340.343,299.538,332.986,302.371z"/>
<g>
	<path style="fill:#E1E6E9;" d="M288.688,287.699c0,1.422-0.254,2.742-0.761,4.011c-8.48-2.539-15.232-6.753-18.888-11.983
		c2.031-2.183,4.976-3.503,8.175-3.503C283.56,276.224,288.688,281.353,288.688,287.699z"/>
	<path style="fill:#E1E6E9;" d="M182.736,287.699c0,1.422,0.254,2.742,0.761,4.011c8.48-2.539,15.232-6.753,18.888-11.983
		c-2.031-2.183-4.976-3.503-8.175-3.503C187.864,276.224,182.736,281.353,182.736,287.699z"/>
</g>
<g>
	<path style="fill:#64798A;" d="M231.735,338.702c-0.029,0.115-0.061,0.226-0.096,0.332c-1.698,5.206-6.596,8.763-12.071,8.729
		c-11.245-0.069-17.226-10.067-14.3-18.76c0.19-0.729,0.507-1.426,0.856-2.124c2.6-4.995,15.145-13.173,21.977-17.368
		c2.046-1.256,4.678,0.133,4.814,2.53C233.333,319.448,233.741,332.797,231.735,338.702z"/>
	<path style="fill:#64798A;" d="M259.342,345.992c-6.91,3.613-15.468,0.919-19.081-5.99c-0.127-0.254-0.254-0.539-0.38-0.856
		c-2.202-5.684-1.76-19.536-1.316-27.122c0.14-2.394,2.771-3.771,4.815-2.516c6.677,4.1,18.825,12.013,21.795,17.023
		c0.063,0.127,0.127,0.222,0.19,0.349C268.978,333.821,266.284,342.379,259.342,345.992z"/>
</g>
<g>
	<path style="fill:#3A556A;" d="M231.735,338.702c-0.127,0.507-0.317,0.919-0.507,1.3c-3.613,6.91-12.171,9.604-19.113,5.99
		c-6.244-3.265-9.034-10.492-6.847-16.989c3.899,1.68,7.797,4.754,10.65,7.227c1.046,0.919,2.092,1.902,3.391,2.472
		c2.219,0.951,4.754,0.412,7.163,0.158C228.217,338.671,229.96,338.639,231.735,338.702z"/>
	<path style="fill:#3A556A;" d="M259.342,345.992c-6.91,3.613-15.468,0.919-19.081-5.99c-0.127-0.254-0.254-0.539-0.38-0.856
		c3.011,0.222,5.99,0.38,9.002,0.602c2.441,0.158,5.04,0.285,7.1-0.951c1.331-0.792,2.282-2.029,3.138-3.265
		c2.028-2.979,3.708-6.339,6.054-9.002c0.063,0.127,0.127,0.222,0.19,0.349C268.978,333.821,266.284,342.379,259.342,345.992z"/>
</g>
<path style="fill:#E56353;" d="M293.693,423.553c-4.438,1.308-9.016-0.981-13.126-3.083c-2.336-1.168-4.624-2.336-7.007-3.363
	c-0.467-0.187-0.888-0.374-1.308-0.607c-4.251-1.869-8.548-3.55-12.892-4.858c-8.035-2.382-16.256-3.503-24.478-2.289
	c-9.343,1.355-18.031,5.699-26.906,8.969c-0.421,0.187-0.888,0.327-1.308,0.467c-0.421,0.14-0.888,0.327-1.355,0.467
	c-2.009,0.701-4.064,1.308-6.213,1.822c-1.448,0.374-2.943,0.654-4.391,0.888c-5.839,0.888-11.678,0.701-17.05-1.588
	c-4.531-1.869-8.922-6.82-6.867-11.258c1.962-4.297,7.988-4.438,11.958-6.913c5.606-3.363,5.606-12.052,5.933-20.32
	c0.374-10.043,1.261-19.573,13.173-18.218c2.336,0.28,4.437,1.355,6.493,2.429c1.448,0.701,2.85,1.448,4.298,2.195
	c3.176,1.588,6.4,3.27,9.576,4.905c0.747,0.421,1.495,0.748,2.242,1.168c1.915,0.981,3.924,2.009,5.933,2.756
	c2.055,0.747,4.111,1.261,6.306,1.261c1.775,0,3.503-0.327,5.139-0.841c2.569-0.841,4.952-2.242,7.287-3.877
	c1.868-1.308,3.69-2.756,5.512-4.158c0.934-0.794,1.915-1.495,2.989-2.196c4.718-3.27,10.184-5.746,15.555-4.297
	c4.952,1.308,8.548,5.606,10.791,10.183c1.168,2.336,2.102,4.858,2.99,7.334c0.888,2.289,1.728,4.578,2.849,6.773
	c3.13,6.353,8.268,11.725,10.51,18.452C302.615,412.435,300.56,421.637,293.693,423.553z"/>
<path style="fill:#CE412D;" d="M272.237,416.514c-11.881-5.331-24.625-9.038-37.37-7.159c-9.799,1.422-18.837,6.093-28.18,9.444
	c-2.437,0.863-4.976,1.675-7.566,2.285c-0.051-0.406-0.051-0.761-0.051-1.168c0-15.943,10.46-28.84,23.407-28.84
	c4.925,0,9.495,1.879,13.252,5.077c3.757-3.25,8.327-5.077,13.252-5.077C260.966,391.076,270.866,402.196,272.237,416.514z"/>
<g>
	<path style="fill:#E1E6E9;" d="M210.496,410.726l-2.539,7.616c-0.406,0.152-0.863,0.305-1.269,0.457
		c-0.457,0.152-0.914,0.305-1.371,0.457c-2.031,0.711-4.062,1.32-6.195,1.828c-1.472,0.355-2.945,0.66-4.417,0.863l-0.051-12.744
		c-0.051-1.574,1.523-2.793,3.453-2.59l9.749,0.914C209.785,407.679,211.003,409.203,210.496,410.726z"/>
	<path style="fill:#E1E6E9;" d="M273.608,405.394l-0.051,11.729c-0.457-0.203-0.863-0.406-1.32-0.609
		c-4.214-1.879-8.53-3.554-12.897-4.874l-1.574-4.722c-0.508-1.523,0.711-3.046,2.64-3.199l9.749-0.914
		C272.085,402.602,273.659,403.82,273.608,405.394z"/>
</g>
<g>
	<path style="fill:#3A556A;" d="M318.209,415.468c-1.278,1.69-2.558,3.383-3.636,5.155c-3.493,5.739-4.934,12.375-10.316,17.166
		c-1.493,1.329-1.497,1.447-1.059,3.172c1.594-0.911,3.187-1.823,4.781-2.735c1.569-0.898,3.152-1.805,4.437-2.94
		c1.901-1.678,3.059-3.77,4.126-5.84c3.829-7.428,5.853-14.687,8.104-22.49C322.501,409.793,320.355,412.631,318.209,415.468z"/>
	<path style="fill:#3A556A;" d="M167.481,437.789c-5.381-4.791-6.823-11.428-10.315-17.166c-1.078-1.771-2.358-3.464-3.636-5.155
		c-2.146-2.837-4.291-5.675-6.438-8.512c2.251,7.803,4.275,15.062,8.104,22.49c1.067,2.071,2.226,4.162,4.126,5.84
		c1.285,1.135,2.868,2.042,4.437,2.94c1.594,0.912,3.187,1.823,4.781,2.735C168.978,439.236,168.973,439.118,167.481,437.789z"/>
</g>
<path style="fill:#D15241;" d="M286.966,380.53c-12.939,4.578-31.11,7.427-51.243,7.427c-18.078,0-34.521-2.289-47.04-6.073
	c0.374-10.043,1.261-19.573,13.173-18.218c2.336,0.28,4.437,1.355,6.493,2.429c1.448,0.701,2.85,1.448,4.298,2.195
	c3.176,1.588,6.4,3.27,9.576,4.905c0.747,0.421,1.495,0.748,2.242,1.168c1.915,0.981,3.924,2.009,5.933,2.756
	c2.055,0.747,4.111,1.261,6.306,1.261c1.775,0,3.503-0.327,5.139-0.841c2.569-0.841,4.952-2.242,7.287-3.877
	c1.868-1.308,3.69-2.756,5.512-4.158c0.934-0.794,1.915-1.495,2.989-2.196c4.718-3.27,10.184-5.746,15.555-4.297
	c4.952,1.308,8.548,5.606,10.791,10.183C285.145,375.532,286.079,378.055,286.966,380.53z"/>
<g>
	<path style="fill:#E1E6E9;" d="M239.78,385.717l-8.046-0.351c-1.556-0.068-2.684-1.507-2.379-3.034l1.044-5.219
		c2.031,0.762,4.113,1.269,6.296,1.269c1.777,0,3.503-0.305,5.128-0.863l0.591,5.384
		C242.584,384.451,241.335,385.785,239.78,385.717z"/>
	<path style="fill:#E1E6E9;" d="M222.225,373.203l-2.138,7.066c-0.451,1.49-2.125,2.227-3.528,1.554l-7.258-3.482
		c-1.401-0.672-1.875-2.435-0.999-3.719l4.154-6.091C218.11,371.235,216.571,370.499,222.225,373.203z"/>
	<path style="fill:#E1E6E9;" d="M262.207,379.206l-7.261,3.484c-1.401,0.672-3.072-0.061-3.526-1.547l-2.285-7.482
		c1.879-1.32,3.706-2.742,5.484-4.164c0.964-0.762,1.929-1.472,2.996-2.183l5.59,8.169
		C264.083,376.767,263.61,378.532,262.207,379.206z"/>
</g>
<g>
	<path style="fill:#D5D6DB;" d="M242.73,459.474c-2.242,0.14-4.531,0.187-6.867,0.187c-39.425,0-61.24-16.022-70.863-25.739
		c-4.531-4.578-10.417-7.614-16.77-8.502c-49.468-7.007-52.879-29.289-48.955-44.377c3.176-12.425,3.503-25.412-0.094-37.697
		l-1.448-4.998c-1.448-4.905-3.363-9.716-5.979-14.107c-15.275-26.252-19.573-61.754-20.74-81.513
		c-0.934-15.836,2.849-31.811,12.052-45.031c40.593-58.577,113.278-68.06,152.797-68.06c0.654,0,1.308,0,2.009,0.046
		c-0.467,1.869-1.682,3.924-3.784,6.213c-9.903,10.744-24.804,16.022-38.491,19.806c-16.957,4.671-34.894,8.128-48.721,18.965
		c-8.735,6.82-15.228,16.163-24.15,22.609c-8.502,6.119-19.433,9.997-24.291,19.246c-3.924,7.427-2.849,16.349-1.682,24.618
		c3.97,28.214,8.408,57.643,24.851,80.906c7.147,10.043,16.957,21.488,12.659,33.025c-2.382,6.446-8.922,11.258-9.436,18.124
		c-0.42,5.652,3.55,10.697,8.081,14.107c4.484,3.41,9.81,5.699,14.061,9.436c12.799,11.258,14.34,33.306,29.709,40.686
		c11.585,5.559,25.412-0.14,38.071,1.869C226.707,441.21,235.629,449.338,242.73,459.474z"/>
	<path style="fill:#D5D6DB;" d="M394.872,284.489c-3.13,13.594-7.801,27.654-14.855,39.706c-2.616,4.438-4.531,9.249-5.979,14.154
		l-1.448,4.998c-3.597,12.285-3.27,25.271-0.094,37.697c3.924,15.088,0.467,37.37-48.955,44.377
		c-6.353,0.888-12.239,3.924-16.77,8.502c-4.344,4.391-11.211,10.09-21.067,14.948c3.13-8.408,8.455-15.976,15.369-21.628
		c3.503-2.896,7.474-5.325,10.137-9.016c4.251-5.746,4.718-13.733,9.343-19.246c4.344-5.185,11.398-7.007,17.751-9.389
		c6.4-2.336,13.173-6.213,14.668-12.846c0.981-4.158-0.421-8.455-0.748-12.706c-0.701-8.969,3.363-17.564,7.568-25.552
		c6.119-11.631,12.986-22.749,19.899-33.867C383.474,298.503,387.398,287.058,394.872,284.489z"/>
</g>
<path style="fill:#2F4859;" d="M419.867,102.508c-3.805-11.171-13.074-19.756-20.892-28.883
	c-7.819-9.127-14.708-20.492-12.346-32.012c1.209-5.896,4.717-11.077,7.702-16.425c1.997-3.578-1.622-7.68-5.419-6.14
	l-39.402,15.977c-1.372,0.557-2.862,1.125-4.319,0.81c-2.104-0.455-3.273-2.508-4.311-4.293
	c-7.74-13.305-22.331-22.135-37.728-26.541c-15.397-4.407-31.716-4.88-47.806-4.98C202.329-0.306,149.288,3.066,96.799,10.1
	c-3.683,0.494-5.115,5.176-2.313,7.618c7.719,6.727,15.669,13.219,23.832,19.462c3.265,2.497,1.643,7.687-2.467,7.799L73.632,46.13
	c-4.316,0.118-5.824,5.784-2.138,8.032l26.301,16.042c2.408,1.469,2.794,4.81,0.783,6.789l-57.2,56.293
	c-3.041,2.993-0.356,8.249,3.812,7.341c4.996-1.089,10.14-1.578,15.263-1.436c3.572,0.099,5.352,4.45,2.989,7.131
	c-6.532,7.407-10.239,17.093-11.547,26.755c-1.707,12.607,0.196,25.373,2.096,37.956c2.385,15.793,4.794,31.682,10.058,46.843
	c3.385,9.748,7.949,19.19,9.957,29.272c1.026,5.148,1.25,10.41,0.449,15.599c-0.503,3.255,1.139,7.178,4.46,7.856
	c5.201,1.062,0.226-7.565,0.953-12.625c1.234-8.588-0.179-17.304-0.057-25.97c0.333-23.673,11.966-45.718,18.252-68.639
	c1.919-6.995,3.342-14.111,4.263-21.284c1.276-9.94,11.558-15.897,20.666-11.716c6.193,2.843,12.547,5.322,19.176,7.081
	c13.704,3.638,28.925,3.948,41.705-1.968c2.517-1.165,5.238-2.603,7.956-1.951c1.539,0.369,2.806,1.365,4.064,2.279
	c16.946,12.31,42.364,12.966,59.998,1.549c3.852-2.494,7.702-5.617,12.372-5.777c2.938-0.101,5.745,1.013,8.497,1.989
	c24.737,8.776,53.322,7.226,76.933-3.913c2.771-1.307,5.869,0.745,6.067,3.803c1.932,29.906,15.183,58.613,17.926,88.603
	c0.905,9.893,0.692,20.05,4.1,29.445c2.194,6.047,6.368,11.827,11.865,15.367c3.39,2.183,7.663-0.88,6.569-4.761
	c-2.154-7.638-1.612-16.051,0.295-23.848c2.627-10.742,7.596-20.84,10.972-31.394c11.132-34.796,4.449-72.265,8.473-108.412
	C421.296,126.444,423.785,114.012,419.867,102.508z"/>
<path style="fill:#3A556A;" d="M393.525,241.537c-1.857-9.262-4.25-18.259-6.595-27.079c-3.909-14.689-7.598-28.561-8.479-42.204
	c-0.79-12.186-10.89-21.729-23-21.729c-3.387,0-6.671,0.738-9.753,2.195c-10.78,5.082-23.046,7.771-35.47,7.771
	c-9.497,0-18.652-1.54-27.204-4.573l-0.646-0.232c-3.159-1.131-7.93-2.841-13.741-2.841l-1.015,0.018
	c-9.314,0.314-15.997,4.805-20.418,7.777l-1.491,0.991c-5.119,3.314-11.72,5.137-18.591,5.137c-7.613,0-14.793-2.171-20.22-6.116
	c-2.177-1.585-5.659-4.128-10.707-5.338c-1.875-0.448-3.82-0.677-5.774-0.677c-6.198,0-11.012,2.253-13.887,3.598
	c-4.628,2.146-9.512,3.107-15.043,3.107c-4.637,0-9.521-0.671-14.518-1.997c-4.933-1.311-10.226-3.274-16.174-6.003
	c-4.415-2.027-9.101-3.058-13.912-3.058c-16.744,0-30.991,12.646-33.14,29.418c-0.808,6.293-2.07,12.588-3.747,18.71
	c-1.683,6.137-3.826,12.311-6.113,18.79c-0.466-2.957-0.918-5.945-1.375-8.966c-1.68-11.113-3.418-22.601-2.058-32.649
	c0.921-6.78,3.418-12.774,7.034-16.872c5.887-6.68,7.393-16.277,3.835-24.46c-1.396-3.213-3.433-5.976-5.927-8.168l36.32-35.744
	c5.098-5.015,7.555-11.973,6.735-19.085c-0.311-2.671-1.064-5.216-2.207-7.549l0.116-0.003c9.75-0.268,18.308-6.671,21.302-15.936
	c2.628-8.125,0.509-16.973-5.259-23.037c38.46-3.988,77.296-6,115.866-6l6.96,0.021c15.027,0.095,29.607,0.491,42.768,4.256
	c12.387,3.543,22.116,10.085,26.689,17.951c1.79,3.07,6.396,10.979,16.524,13.18c1.604,0.345,3.223,0.515,4.845,0.515
	c4.872,0,8.659-1.53,10.479-2.265l10.918-4.427c0.479,12.287,6.268,24.973,17.299,37.848c1.652,1.93,3.366,3.838,5.082,5.747
	c5.396,6.003,10.491,11.671,12.302,16.988c1.945,5.713,0.945,13.726-0.116,22.21c-0.235,1.884-0.47,3.762-0.677,5.631
	c-1.625,14.604-1.628,29.104-1.631,43.128c-0.003,21.957-0.003,42.698-6.067,61.649C393.604,241.29,393.565,241.412,393.525,241.537
	z"/>
<g>
</g>
<g>
</g>
<g>
</g>
<g>
</g>
<g>
</g>
<g>
</g>
<g>
</g>
<g>
</g>
<g>
</g>
<g>
</g>
<g>
</g>
<g>
</g>
<g>
</g>
<g>
</g>
<g>
</g>
</svg>
