<?xml version="1.0" encoding="iso-8859-1"?>
<!-- Generator: Adobe Illustrator 19.0.0, SVG Export Plug-In . SVG Version: 6.00 Build 0)  -->
<svg version="1.1" id="Capa_1" xmlns="http://www.w3.org/2000/svg" xmlns:xlink="http://www.w3.org/1999/xlink" x="0px" y="0px"
	 viewBox="0 0 492.012 492.012" style="enable-background:new 0 0 492.012 492.012;" xml:space="preserve">
<path style="fill:#44C4A1;" d="M44.227,250.896c-2.873-2.484-6.13-4.736-9.866-5.418c-5.746-1.049-11.704,1.932-15.409,6.447
	c-3.705,4.515-5.458,10.334-6.329,16.11c-4.017,26.639,8.852,52.559,14.076,78.988c2.718,13.753,4.243,29.494,15.327,38.076
	c2.914,2.256,6.57,3.871,10.222,3.374c6.965-0.947,10.652-8.609,12.689-15.336C77.01,333.271,78.619,280.635,44.227,250.896z"/>
<path style="fill:#3EA69B;" d="M41.892,270.865c-1.892-2.04-4.075-4.224-6.854-4.374c-4.243-0.229-7.113,4.305-8.208,8.411
	c-2.406,9.025-0.965,18.574,0.489,27.8c2.051,13.005,4.101,26.01,6.152,39.015c0.107,0.679,0.24,1.409,0.739,1.882
	c1.555,1.472,3.704-1.124,4.09-3.23c2.312-12.616-3.093-25.228-4.669-37.958c-0.531-4.293-0.601-8.78,1-12.798
	c2.476-6.213,8.031-8.948,14.108-10.431C47.844,276.167,44.141,273.29,41.892,270.865z"/>
<path style="fill:#44C4A1;" d="M447.496,250.896c2.873-2.484,6.13-4.736,9.866-5.418c5.746-1.049,11.704,1.932,15.409,6.447
	c3.705,4.515,5.458,10.334,6.328,16.11c4.017,26.639-8.852,52.559-14.076,78.988c-2.718,13.753-4.243,29.494-15.327,38.076
	c-2.914,2.256-6.57,3.871-10.222,3.374c-6.965-0.947-10.652-8.609-12.689-15.336C414.714,333.271,413.105,280.635,447.496,250.896z"
	/>
<path style="fill:#3EA69B;" d="M449.831,270.865c1.892-2.04,4.075-4.224,6.854-4.374c4.243-0.229,7.113,4.305,8.208,8.411
	c2.406,9.025,0.965,18.574-0.489,27.8c-2.051,13.005-4.101,26.01-6.152,39.015c-0.107,0.679-0.24,1.409-0.739,1.882
	c-1.555,1.472-3.704-1.124-4.09-3.23c-2.312-12.616,3.093-25.228,4.669-37.958c0.531-4.293,0.601-8.78-1-12.798
	c-2.476-6.213-8.031-8.948-14.108-10.431C443.88,276.167,447.583,273.29,449.831,270.865z"/>
<path style="fill:#44C4A1;" d="M415.796,435.477c-13.167,12.979-32.199,21.341-59.156,22.464c0,0-17.597,0-35.506,1.747
	c-15.101,1.435-28.767,8.798-39.499,19.469c-5.367,5.366-14.851,12.855-31.95,12.855c-17.16,0-26.582-7.488-32.011-12.855
	c-10.733-10.671-24.399-18.034-39.5-19.469c-17.908-1.747-35.506-1.747-35.506-1.747c-123.99-5.241-80.06-163.115-73.321-220.898
	c1.123-9.922,1.248-28.767,0.998-46.613c-0.249-22.027-0.998-42.495-0.998-42.495h360.613c0,0-2.559,66.956,0,89.108
	C435.264,282.284,463.282,388.801,415.796,435.477z"/>
<path style="fill:#64798A;" d="M160.678,348.696c-11.472,0-22.583-4.124-31.285-11.612c-1.824-1.544-3.681-3.425-5.611-5.704
	c-7.146-8.632-11.048-19.468-11.048-30.583c0-26.412,25.564-59.355,52.001-59.355c18.55,0,35.602,10.867,43.44,27.687
	c2.96,6.355,4.461,13.155,4.461,20.214c0,2.267-0.157,4.451-0.479,6.677C208.901,319.496,184.453,348.696,160.678,348.696z"/>
<path style="fill:#3A556A;" d="M163.237,340.963c-10.907,0-21.471-3.827-29.745-10.774c-1.734-1.432-3.5-3.178-5.334-5.293
	c-6.794-8.01-10.504-18.064-10.504-28.378c0-24.508,24.305-55.075,49.441-55.075c17.636,0,33.849,10.084,41.301,25.69
	c2.814,5.897,4.242,12.207,4.242,18.757c0,2.103-0.149,4.13-0.456,6.196C209.085,313.868,185.841,340.963,163.237,340.963z"/>
<path style="fill:#FCD462;" d="M203.951,289.342c0,1.867-0.13,3.648-0.39,5.428c-2.65,19.108-19.021,33.786-38.824,33.786
	c-9.814,0-18.76-3.604-25.622-9.51c-1.693-1.433-3.214-3.04-4.647-4.733c-5.645-6.818-8.989-15.503-8.989-24.97
	c0-21.67,17.588-39.215,39.257-39.215c15.764,0,29.313,9.25,35.567,22.669C202.649,277.834,203.951,283.436,203.951,289.342z"/>
<circle style="fill:#2F4859;" cx="159.341" cy="282.807" r="17.989"/>
<circle style="fill:#E1E6E9;" cx="155.288" cy="269.383" r="9.21"/>
<path style="fill:#F6A74B;" d="M203.951,289.342c0,1.867-0.13,3.648-0.39,5.428c-2.65,19.108-19.021,33.786-38.824,33.786
	c-9.814,0-18.76-3.604-25.622-9.51c8.078-0.695,16.198-1.346,24.319-1.997c4.907-0.391,10.031-0.869,14.2-3.431
	c6.818-4.212,9.337-12.724,12.333-20.15c0-5.081,6.254-13.245,8.729-17.545c0.391-0.695,0.955-1.867,1.607-3.127
	C202.649,277.834,203.951,283.436,203.951,289.342z"/>
<path style="fill:#64798A;" d="M338.639,348.696c11.472,0,22.583-4.124,31.285-11.612c1.824-1.544,3.681-3.425,5.611-5.704
	c7.146-8.632,11.048-19.468,11.048-30.583c0-26.412-25.564-59.355-52.001-59.355c-18.55,0-35.602,10.867-43.44,27.687
	c-2.96,6.355-4.461,13.155-4.461,20.214c0,2.267,0.157,4.451,0.479,6.677C290.416,319.496,314.865,348.696,338.639,348.696z"/>
<path style="fill:#3A556A;" d="M336.081,340.963c10.907,0,21.471-3.827,29.745-10.774c1.734-1.432,3.5-3.178,5.334-5.293
	c6.794-8.01,10.504-18.064,10.504-28.378c0-24.508-24.305-55.075-49.441-55.075c-17.636,0-33.849,10.084-41.301,25.69
	c-2.814,5.897-4.242,12.207-4.242,18.757c0,2.103,0.149,4.13,0.456,6.196C290.232,313.868,313.477,340.963,336.081,340.963z"/>
<path style="fill:#FCD462;" d="M295.367,289.342c0,1.867,0.13,3.648,0.39,5.428c2.65,19.108,19.022,33.786,38.824,33.786
	c9.814,0,18.76-3.604,25.622-9.51c1.693-1.433,3.214-3.04,4.647-4.733c5.645-6.818,8.989-15.503,8.989-24.97
	c0-21.67-17.588-39.215-39.257-39.215c-15.764,0-29.313,9.25-35.567,22.669C296.669,277.834,295.367,283.436,295.367,289.342z"/>
<circle style="fill:#2F4859;" cx="339.977" cy="282.807" r="17.989"/>
<circle style="fill:#E1E6E9;" cx="344.029" cy="269.383" r="9.21"/>
<path style="fill:#F6A74B;" d="M295.367,289.342c0,1.867,0.13,3.648,0.39,5.428c2.65,19.108,19.022,33.786,38.824,33.786
	c9.814,0,18.76-3.604,25.622-9.51c-8.078-0.695-16.198-1.346-24.319-1.997c-4.907-0.391-10.031-0.869-14.2-3.431
	c-6.818-4.212-9.337-12.724-12.333-20.15c0-5.081-6.254-13.245-8.729-17.545c-0.391-0.695-0.955-1.867-1.607-3.127
	C296.669,277.834,295.367,283.436,295.367,289.342z"/>
<path style="fill:#3A556A;" d="M316.677,432.127c-0.312,4.368-6.178,5.866-8.3,1.997c-11.481-20.592-33.446-34.57-58.718-34.57
	s-47.238,13.978-58.718,34.57c-2.122,3.869-7.987,2.371-8.3-1.997c-0.375-5.616,0-11.419,1.185-17.472
	c1.498-7.239,4.119-14.103,7.738-20.28c2.559-4.431,5.617-8.487,9.049-12.231c2.933-3.12,6.115-5.991,9.609-8.486
	c5.367-3.994,11.357-7.176,17.722-9.36c3.307-1.123,6.677-2.059,10.171-2.621c1.622-0.312,3.307-0.499,4.992-0.686
	c2.185-0.187,4.43-0.312,6.552-0.312c2.122,0,4.368,0.125,6.552,0.312c0.686,0.062,1.373,0.125,1.996,0.249
	c4.555,0.562,8.986,1.622,13.229,3.058c6.365,2.246,12.355,5.366,17.722,9.36c3.618,2.621,6.926,5.678,9.921,8.923
	c3.432,3.744,6.427,7.863,8.924,12.293c3.494,6.053,6.053,12.73,7.489,19.781C316.677,420.708,317.052,426.511,316.677,432.127z"/>
<g>
	<path style="fill:#E1E6E9;" d="M260.516,373.47c0.625,3.369-1.56,6.614-4.992,7.301l-7.175,1.311
		c-3.37,0.686-6.677-1.56-7.301-4.93l-2.933-15.476c1.622-0.312,3.307-0.499,4.992-0.686c2.185-0.187,4.43-0.312,6.552-0.312
		c2.122,0,4.368,0.125,6.552,0.312c0.686,0.062,1.373,0.125,1.996,0.249L260.516,373.47z"/>
	<path style="fill:#E1E6E9;" d="M227.007,380.834l-6.926,2.371c-3.245,1.123-6.802-0.624-7.925-3.869l-1.935-5.678
		c5.367-3.994,11.357-7.176,17.722-9.36l2.933,8.611C231.999,376.154,230.252,379.711,227.007,380.834z"/>
	<path style="fill:#E1E6E9;" d="M203.856,397.183l-1.622,1.186c-2.808,2.059-6.677,1.435-8.736-1.373l-1.935-2.621
		c2.559-4.431,5.617-8.487,9.049-12.231l4.618,6.365C207.226,391.255,206.602,395.186,203.856,397.183z"/>
	<path style="fill:#E1E6E9;" d="M308.003,394.874l-2.184,2.995c-1.997,2.808-5.928,3.432-8.674,1.435l-1.622-1.186
		c-2.808-1.997-3.432-5.928-1.373-8.736l4.929-6.801C302.512,386.325,305.507,390.444,308.003,394.874z"/>
	<path style="fill:#E1E6E9;" d="M289.159,373.658l-1.935,5.678c-1.123,3.245-4.68,4.992-7.925,3.869l-6.926-2.371
		c-3.307-1.123-4.992-4.68-3.869-7.925l2.933-8.611C277.802,366.544,283.792,369.664,289.159,373.658z"/>
</g>
<path style="fill:#3EA69B;" d="M415.796,435.477c-13.167,12.979-32.199,21.341-59.156,22.464c0,0-17.597,0-35.506,1.747
	c-15.101,1.435-28.767,8.798-39.499,19.469c-5.367,5.366-14.851,12.855-31.95,12.855c-17.16,0-26.582-7.488-32.011-12.855
	c-10.733-10.671-24.399-18.034-39.5-19.469c-17.908-1.747-35.506-1.747-35.506-1.747c-123.99-5.241-80.06-163.115-73.321-220.898
	c1.123-9.922,1.248-28.767,0.998-46.613c0.874,0.499,1.872,1.186,3.058,2.184c4.93,4.181,9.236,10.296,12.917,15.538
	c7.55,10.733,13.105,23.213,11.794,36.567c-1.186,12.106-7.8,22.901-11.294,34.508c-6.99,23.275-1.248,48.173,4.493,71.761
	c4.118,16.973,10.046,36.192,26.021,43.244c3.62,1.622,7.8,2.621,10.296,5.741c2.309,2.808,2.559,6.739,3.37,10.296
	c4.493,18.595,25.334,27.269,43.493,33.135c13.291,4.368,27.831,8.673,40.934,3.744c5.492-2.059,10.484-5.678,16.225-6.739
	c16.286-3.12,30.078,14.415,46.613,14.415c7.8,0.062,14.976-3.806,22.651-5.179c9.609-1.622,19.719,0.811,29.266-1.622
	c7.55-1.872,14.04-6.739,21.091-10.047C371.054,428.613,394.08,431.421,415.796,435.477z"/>
<path style="fill:#3A556A;" d="M431.594,280.681h1.417c1.461-9.379,0.804-19.118,2.623-28.481c0.316-1.629,0.823-3.485,1.447-5.449
	c4.654-14.626,5.948-30.015,5.752-45.341c-0.077-5.992,0.538-12.771,2.485-19.815l-11.354,0.12
	c-3.793-6.149-0.385-9.968-1.386-17.093c17.914,1.91,29.851,1.37,47.574,4.569c-21.55-28.043-54.204-47.585-89.414-53.509
	c19.877-10.105,37.381-24.699,50.779-42.335c-33.602-3.777-68.431-7.446-100.595,2.845c-3.153,1.009-6.38,2.164-9.685,1.899
	c-2.863-0.229-5.517-1.508-8.075-2.795c-19.341-9.738-37.734-21.302-54.843-34.482l0.741,37.47
	c-8.635,1.669-18.148-1.933-23.246-8.994c-5.098-7.061-5.378-17.229-0.497-24.438c-34.661,8.945-67.685,23.999-97.034,44.233
	c14.094-27.55,21.8-58.243,22.369-89.084C130.355,34.644,95.891,75.848,69.086,121.429c-0.932,1.586-1.952,3.267-3.628,4.063
	c-1.892,0.899-4.129,0.445-6.175-0.027L11.86,114.531c7.066,21.364,19.531,40.975,35.96,56.572L19.825,196.2
	c12.095,3.691,25.366,8.301,31.373,19.275c2.546,4.652,3.466,9.973,4.349,15.185c2.369,13.991,5.625,27.577,4.585,41.624
	c-1.102,14.875-0.302,29.919-0.302,44.855c19.345-24.179,24.962-56.299,26.154-87.054c1.192-30.755-1.36-49.378,4.392-79.63
	c23.09,2.874,46.62,2.295,69.535-1.712c-8.817,11.902-18.057,11.019-27.698,22.284c22.062-7.278,36.236-9.897,56.521-21.118
	c-13.358,16.174-19.528,25.636-32.886,41.81c29.057-9.47,56.532-23.624,81-41.727c2.756-2.039,6.138,0.374,9.598-0.825
	c2.866-0.994,5.934-1.023,8.473,0.62c22.669,14.664,47.632,25.885,73.736,33.145c-5.019-15.453-2.311-22.034-14.633-32.808
	c30.202,10.593,49.175,11.506,80.624,17.646C402.214,212.751,429.424,236.899,431.594,280.681z"/>
<path style="fill:#64798A;" d="M178.886,224.603c-1.301,1.729-3.688,2.119-5.829,2.435c-17.585,2.6-40.545,5.461-55.182,15.549
	c6.586-8.797,19.301-13.912,28.178-20.39c6.968-5.085,15.145-8.485,23.652-9.897c3.067-0.509,7.45-1.956,9.144,1.214
	C180.09,215.839,180.478,222.486,178.886,224.603z"/>
<path style="fill:#3A556A;" d="M176.896,204.405c-7.131-1.109-14.597,0.793-21.171,3.48c-12.986,5.309-24.632,13.86-33.586,24.661
	c-4.026,4.857-7.665,10.262-12.05,14.728c0,0,19.683-12.107,30.297-17.13c12.675-5.999,26.465-10.143,40.458-10.281
	c1.665-0.016,3.072-1.207,3.298-2.856C185.095,210.032,186.024,205.824,176.896,204.405z"/>
<path style="fill:#64798A;" d="M320.428,224.603c1.301,1.729,3.688,2.119,5.829,2.435c17.585,2.6,40.545,5.461,55.182,15.549
	c-6.586-8.797-19.301-13.912-28.178-20.39c-6.968-5.085-15.145-8.485-23.652-9.897c-3.067-0.509-7.451-1.956-9.144,1.214
	C319.224,215.839,318.836,222.486,320.428,224.603z"/>
<g>
	<path style="fill:#3A556A;" d="M322.418,204.405c7.131-1.109,14.597,0.793,21.171,3.48c12.985,5.309,24.632,13.86,33.586,24.661
		c4.026,4.857,7.665,10.262,12.05,14.728c0,0-19.683-12.107-30.297-17.13c-12.675-5.999-26.465-10.143-40.458-10.281
		c-1.665-0.016-3.072-1.207-3.298-2.856C314.218,210.032,313.29,205.824,322.418,204.405z"/>
	<path style="fill:#3A556A;" d="M259.543,307.015c-4.847-6.754-14.924-6.754-19.772,0c-8.368,11.66-18.368,28.105-14.05,35.091
		c2.48,4.013,15.924,1.699,21.505,0.54c1.606-0.334,3.256-0.334,4.862,0c5.582,1.159,19.025,3.473,21.504-0.54
		C277.911,335.12,267.911,318.676,259.543,307.015z"/>
</g>
<g>
</g>
<g>
</g>
<g>
</g>
<g>
</g>
<g>
</g>
<g>
</g>
<g>
</g>
<g>
</g>
<g>
</g>
<g>
</g>
<g>
</g>
<g>
</g>
<g>
</g>
<g>
</g>
<g>
</g>
</svg>
