<?xml version="1.0" encoding="UTF-8"?>
<svg xmlns="http://www.w3.org/2000/svg" xmlns:xlink="http://www.w3.org/1999/xlink" width="50" height="50" viewBox="0 0 50 50" version="1.1">
<g id="surface1">
<path style=" stroke:none;fill-rule:nonzero;fill:rgb(88.627451%,29.411765%,29.411765%);fill-opacity:1;" d="M 24.734375 3.417969 C 24.101562 3.4375 23.476562 3.320312 22.863281 2.007812 C 21.777344 0.191406 20.714844 2.03125 19.683594 1.167969 C 18.652344 1.652344 14.765625 3.382812 13.859375 4.070312 C 13.40625 4.714844 11.667969 6.894531 11.25 7.042969 C 10.414062 7.632812 8.363281 8.304688 6.710938 8.792969 C 5.160156 9.253906 4.238281 11.28125 3.96875 12.289062 C 3.367188 14.734375 1.15625 19.648438 0.828125 21 C 0.667969 21.441406 0.765625 21.90625 0.976562 22.347656 L 24.734375 22.347656 Z M 24.734375 3.417969 "/>
<path style=" stroke:none;fill-rule:nonzero;fill:rgb(54.901961%,77.647059%,24.313725%);fill-opacity:1;" d="M 49.96875 26.1875 C 49.375 38.921875 38.890625 49.40625 26.15625 49.96875 C 11.8125 50.625 0 39.203125 0 25 C 0 23.402344 0.152344 21.804688 0.453125 20.234375 C 0.558594 19.707031 0.929688 19.273438 1.4375 19.09375 C 9.96875 15.875 15.953125 9.34375 19.46875 1.296875 C 19.671875 0.816406 20.097656 0.472656 20.609375 0.375 C 22.058594 0.121094 23.527344 -0.00390625 25 0 C 39.1875 0 50.640625 11.84375 49.96875 26.1875 Z M 49.96875 26.1875 "/>
<path style=" stroke:none;fill-rule:nonzero;fill:rgb(49.803922%,69.803922%,22.352941%);fill-opacity:1;" d="M 49.996094 24.996094 C 49.996094 38.808594 38.800781 49.996094 24.996094 49.996094 C 17.433594 50.003906 10.277344 46.582031 5.535156 40.691406 C 9.976562 44.285156 15.519531 46.242188 21.230469 46.230469 C 35.035156 46.230469 46.230469 35.042969 46.230469 21.230469 C 46.242188 15.519531 44.285156 9.976562 40.691406 5.535156 C 46.578125 10.28125 50 17.4375 49.996094 24.996094 Z M 49.996094 24.996094 "/>
<path style=" stroke:none;fill-rule:nonzero;fill:rgb(24.313725%,26.27451%,27.843137%);fill-opacity:1;" d="M 33.929688 41.832031 C 28.082031 40.242188 21.914062 40.242188 16.066406 41.832031 C 15.671875 41.941406 15.246094 41.835938 14.949219 41.554688 C 14.648438 41.269531 14.523438 40.851562 14.613281 40.453125 C 15.636719 35.53125 19.972656 32.003906 24.996094 32.003906 C 30.023438 32.003906 34.359375 35.53125 35.382812 40.453125 C 35.472656 40.851562 35.34375 41.269531 35.046875 41.550781 C 34.746094 41.835938 34.324219 41.941406 33.929688 41.832031 Z M 33.929688 41.832031 "/>
<path style=" stroke:none;fill-rule:nonzero;fill:rgb(88.627451%,29.411765%,29.411765%);fill-opacity:1;" d="M 31.050781 41.203125 C 30.96875 40.007812 30.53125 38.863281 29.792969 37.917969 C 28.988281 36.875 27.53125 36.449219 26.332031 36.988281 C 25.449219 37.367188 24.480469 37.515625 23.523438 37.414062 L 23.492188 37.414062 C 21.457031 37.222656 19.511719 38.4375 19.109375 40.441406 C 19.066406 40.6875 19.039062 40.9375 19.023438 41.1875 C 23 40.472656 27.074219 40.480469 31.050781 41.203125 Z M 31.050781 41.203125 "/>
<path style=" stroke:none;fill-rule:nonzero;fill:rgb(100%,100%,100%);fill-opacity:1;" d="M 33.785156 36.695312 C 31.820312 33.761719 28.519531 32.003906 24.992188 32.003906 C 21.464844 32.003906 18.167969 33.765625 16.203125 36.695312 C 22.0625 34.359375 27.925781 34.355469 33.785156 36.695312 Z M 33.785156 36.695312 "/>
<path style=" stroke:none;fill-rule:nonzero;fill:rgb(100%,100%,100%);fill-opacity:1;" d="M 30.496094 37.929688 C 30.472656 35.886719 28.640625 33.808594 28.640625 33.808594 L 30.925781 33.953125 C 31.890625 36.523438 30.496094 37.929688 30.496094 37.929688 Z M 30.496094 37.929688 "/>
<path style=" stroke:none;fill-rule:nonzero;fill:rgb(100%,100%,100%);fill-opacity:1;" d="M 19.5 37.929688 C 19.523438 35.886719 21.355469 33.808594 21.355469 33.808594 L 19.070312 33.953125 C 18.105469 36.523438 19.5 37.929688 19.5 37.929688 Z M 19.5 37.929688 "/>
<path style=" stroke:none;fill-rule:nonzero;fill:rgb(100%,100%,100%);fill-opacity:1;" d="M 18.277344 38.324219 C 18.277344 38.324219 17.1875 39.433594 17.613281 41.472656 C 18.148438 41.351562 18.683594 41.25 19.21875 41.15625 C 18.757812 40.382812 18.289062 39.351562 18.277344 38.324219 Z M 18.277344 38.324219 "/>
<path style=" stroke:none;fill-rule:nonzero;fill:rgb(100%,100%,100%);fill-opacity:1;" d="M 30.773438 41.15625 C 31.3125 41.25 31.84375 41.351562 32.382812 41.472656 C 32.804688 39.433594 31.71875 38.324219 31.71875 38.324219 C 31.707031 39.351562 31.238281 40.382812 30.773438 41.15625 Z M 30.773438 41.15625 "/>
<path style=" stroke:none;fill-rule:nonzero;fill:rgb(100%,100%,100%);fill-opacity:1;" d="M 24.902344 39.375 C 22.109375 39.375 19.59375 39.625 17.796875 40.21875 C 17.917969 40.589844 18.007812 40.976562 18.070312 41.363281 C 22.621094 40.410156 27.320312 40.40625 31.871094 41.351562 C 31.992188 41 32.140625 40.65625 32.320312 40.328125 C 30.507812 39.65625 27.859375 39.375 24.902344 39.375 Z M 24.902344 39.375 "/>
<path style=" stroke:none;fill-rule:nonzero;fill:rgb(88.627451%,29.411765%,29.411765%);fill-opacity:1;" d="M 31.699219 45.859375 C 31.601562 45.449219 31.945312 42.8125 31.929688 42.769531 C 31.871094 42.5625 31.742188 42.585938 31.5625 42.621094 C 31.460938 42.636719 31.359375 42.609375 31.28125 42.542969 C 31.199219 42.480469 31.152344 42.382812 31.148438 42.28125 C 31.082031 42.667969 31.046875 43.582031 30.671875 43.625 C 30.519531 43.628906 30.382812 43.527344 30.34375 43.382812 C 30.246094 43.167969 30.582031 39.230469 30.585938 39.210938 C 30.722656 38.832031 30.96875 39.394531 31.1875 39.394531 C 31.332031 39.394531 31.453125 39.234375 31.589844 39.296875 C 31.742188 39.375 31.625 39.589844 31.625 39.75 C 31.625 39.945312 31.808594 40.078125 31.953125 40.214844 C 33.617188 41.710938 31.742188 43.613281 32.601562 45.089844 C 32.710938 45.300781 32.871094 45.472656 32.992188 45.667969 C 33.652344 46.785156 31.949219 47.210938 31.699219 45.859375 Z M 31.699219 45.859375 "/>
<path style=" stroke:none;fill-rule:nonzero;fill:rgb(100%,100%,100%);fill-opacity:1;" d="M 21.742188 23.238281 C 21.742188 19.738281 18.910156 16.902344 15.414062 16.902344 C 11.917969 16.902344 9.085938 19.738281 9.085938 23.238281 C 9.085938 26.738281 11.917969 29.574219 15.414062 29.574219 C 18.910156 29.574219 21.742188 26.738281 21.742188 23.238281 Z M 21.742188 23.238281 "/>
<path style=" stroke:none;fill-rule:nonzero;fill:rgb(100%,100%,100%);fill-opacity:1;" d="M 40.90625 23.238281 C 40.90625 19.738281 38.074219 16.902344 34.578125 16.902344 C 31.082031 16.902344 28.246094 19.738281 28.246094 23.238281 C 28.246094 26.738281 31.082031 29.574219 34.578125 29.574219 C 38.074219 29.574219 40.90625 26.738281 40.90625 23.238281 Z M 40.90625 23.238281 "/>
<path style=" stroke:none;fill-rule:nonzero;fill:rgb(88.627451%,29.411765%,29.411765%);fill-opacity:1;" d="M 3.824219 16.902344 L 3.824219 26.121094 C 3.824219 26.121094 4.515625 27.785156 5.539062 26.414062 C 6.558594 25.046875 5.191406 25.171875 5.191406 23.238281 C 5.191406 21.300781 4.835938 19.835938 6.363281 18.925781 C 7.894531 18.015625 9.03125 18.144531 9.78125 16.289062 C 10.53125 14.433594 11.28125 16.027344 10.5625 17.65625 C 9.847656 19.285156 10.070312 20.652344 10.851562 20.652344 C 11.636719 20.652344 12.027344 20.261719 11.667969 19.1875 C 11.3125 18.109375 11.214844 15.410156 11.636719 14.304688 C 12.058594 13.195312 19.785156 5.140625 19.488281 1.257812 L 10.988281 10.429688 "/>
<path style=" stroke:none;fill-rule:nonzero;fill:rgb(24.313725%,26.27451%,27.843137%);fill-opacity:1;" d="M 37.875 21.359375 C 37.867188 23.109375 36.441406 24.519531 34.691406 24.515625 C 32.941406 24.511719 31.527344 23.089844 31.53125 21.339844 C 31.535156 19.589844 32.953125 18.171875 34.703125 18.171875 C 35.546875 18.171875 36.355469 18.507812 36.949219 19.105469 C 37.546875 19.707031 37.878906 20.515625 37.875 21.359375 Z M 37.875 21.359375 "/>
<path style=" stroke:none;fill-rule:nonzero;fill:rgb(100%,100%,100%);fill-opacity:1;" d="M 36.625 21.003906 C 36.40625 21.21875 35.867188 21.050781 35.4375 20.621094 C 35.007812 20.1875 34.839844 19.652344 35.054688 19.4375 C 35.285156 19.203125 35.824219 19.375 36.253906 19.804688 C 36.6875 20.234375 36.855469 20.773438 36.625 21.003906 Z M 36.625 21.003906 "/>
<path style=" stroke:none;fill-rule:nonzero;fill:rgb(24.313725%,26.27451%,27.843137%);fill-opacity:1;" d="M 18.292969 25.160156 C 18.285156 26.910156 16.859375 28.320312 15.109375 28.316406 C 13.359375 28.308594 11.945312 26.886719 11.949219 25.136719 C 11.953125 23.390625 13.371094 21.972656 15.121094 21.972656 C 15.964844 21.972656 16.773438 22.308594 17.367188 22.90625 C 17.964844 23.503906 18.296875 24.316406 18.292969 25.160156 Z M 18.292969 25.160156 "/>
<path style=" stroke:none;fill-rule:nonzero;fill:rgb(100%,100%,100%);fill-opacity:1;" d="M 17.042969 24.804688 C 16.828125 25.019531 16.289062 24.851562 15.859375 24.421875 C 15.425781 23.988281 15.257812 23.453125 15.472656 23.234375 C 15.703125 23.003906 16.242188 23.171875 16.671875 23.605469 C 17.105469 24.035156 17.273438 24.574219 17.042969 24.804688 Z M 17.042969 24.804688 "/>
<path style=" stroke:none;fill-rule:nonzero;fill:rgb(24.313725%,26.27451%,27.843137%);fill-opacity:1;" d="M 23.8125 4.226562 C 28.007812 4.207031 37.726562 7.039062 42.660156 14.972656 C 40.226562 12.960938 36.1875 9.011719 23.8125 4.226562 Z M 23.8125 4.226562 "/>
<path style=" stroke:none;fill-rule:nonzero;fill:rgb(88.627451%,29.411765%,29.411765%);fill-opacity:1;" d="M 38.59375 10.980469 C 38.679688 10.792969 29.5625 5.765625 29.332031 5.871094 C 32.296875 6.59375 36.527344 8.921875 38.59375 10.980469 Z M 38.59375 10.980469 "/>
<path style=" stroke:none;fill-rule:nonzero;fill:rgb(88.627451%,29.411765%,29.411765%);fill-opacity:1;" d="M 32.828125 7.359375 C 32.828125 7.359375 33.402344 9.089844 33.234375 10.359375 C 33.066406 11.625 33.160156 13.097656 33.5625 14.054688 C 33.96875 15.007812 34.9375 14.367188 34.582031 13.757812 C 34.226562 13.152344 33.929688 12.710938 34.316406 11.867188 C 34.703125 11.019531 34.90625 10.617188 34.960938 10.25 C 35.015625 9.882812 35.511719 10.25 35.367188 10.761719 C 35.21875 11.277344 35.035156 11.792969 35.183594 12.140625 C 35.328125 12.492188 35.605469 12.179688 36.007812 12.398438 C 36.410156 12.617188 36.414062 12.8125 36.726562 13.101562 C 37.039062 13.390625 37.3125 13.371094 37.3125 14.015625 C 37.3125 14.660156 37.019531 15.375 37.167969 16.3125 C 37.3125 17.25 37.074219 17.769531 37.875 18.171875 C 38.675781 18.574219 38.929688 17.582031 38.34375 16.757812 C 37.753906 15.929688 37.386719 14.695312 37.773438 13.519531 C 38.160156 12.34375 39.003906 11.460938 38.472656 10.855469 C 37.9375 10.25 32.828125 7.359375 32.828125 7.359375 Z M 32.828125 7.359375 "/>
<path style=" stroke:none;fill-rule:nonzero;fill:rgb(24.313725%,26.27451%,27.843137%);fill-opacity:1;" d="M 27.125 3.375 C 26.527344 4.101562 25.796875 5.609375 24.996094 6.382812 C 25.09375 5.160156 26.230469 3.523438 27.125 3.375 Z M 27.125 3.375 "/>
<path style=" stroke:none;fill-rule:nonzero;fill:rgb(24.313725%,26.27451%,27.843137%);fill-opacity:1;" d="M 39.753906 14.640625 C 40.308594 13.917969 41.019531 12.355469 41.785156 11.5625 C 41.726562 12.847656 40.59375 14.46875 39.753906 14.640625 Z M 39.753906 14.640625 "/>
<path style=" stroke:none;fill-rule:nonzero;fill:rgb(24.313725%,26.27451%,27.843137%);fill-opacity:1;" d="M 30.410156 4.226562 C 28.765625 5.148438 28.035156 6.625 27.125 8.144531 C 27.164062 6.160156 28.976562 4.21875 30.410156 4.226562 Z M 30.410156 4.226562 "/>
<path style=" stroke:none;fill-rule:nonzero;fill:rgb(24.313725%,26.27451%,27.843137%);fill-opacity:1;" d="M 36.945312 13.101562 C 38.527344 12.214844 39.320312 10.710938 40.230469 9.1875 C 40.191406 11.15625 38.382812 13.109375 36.945312 13.101562 Z M 36.945312 13.101562 "/>
<path style=" stroke:none;fill-rule:nonzero;fill:rgb(24.313725%,26.27451%,27.843137%);fill-opacity:1;" d="M 32.964844 5.335938 C 31.402344 6.265625 30.6875 7.527344 29.726562 8.910156 C 29.832031 7.015625 31.699219 5.320312 32.964844 5.335938 Z M 32.964844 5.335938 "/>
<path style=" stroke:none;fill-rule:nonzero;fill:rgb(24.313725%,26.27451%,27.843137%);fill-opacity:1;" d="M 34.226562 11.039062 C 35.789062 10.105469 36.523438 8.820312 37.460938 7.460938 C 37.351562 9.457031 35.425781 11.050781 34.226562 11.039062 Z M 34.226562 11.039062 "/>
</g>
</svg>
