<?xml version="1.0" encoding="UTF-8"?>
<svg xmlns="http://www.w3.org/2000/svg" xmlns:xlink="http://www.w3.org/1999/xlink" width="50" height="50" viewBox="0 0 50 50" version="1.1">
<g id="surface1">
<path style=" stroke:none;fill-rule:nonzero;fill:rgb(39.607843%,41.960784%,46.27451%);fill-opacity:1;" d="M 31.667969 0.832031 C 41.332031 0.832031 49.167969 8.667969 49.167969 18.332031 L 49.167969 45.832031 L 14.167969 45.832031 L 14.167969 18.332031 C 14.167969 8.667969 22 0.832031 31.667969 0.832031 Z M 31.667969 0.832031 "/>
<path style=" stroke:none;fill-rule:nonzero;fill:rgb(81.568627%,84.705882%,85.490196%);fill-opacity:1;" d="M 37.5 10 L 33.332031 10 L 33.332031 6.667969 L 30 6.667969 L 30 10 L 25.832031 10 L 25.832031 13.332031 L 30 13.332031 L 30 21.667969 L 33.332031 21.667969 L 33.332031 13.332031 L 37.5 13.332031 Z M 37.5 10 "/>
<path style=" stroke:none;fill-rule:nonzero;fill:rgb(39.607843%,41.960784%,46.27451%);fill-opacity:1;" d="M 14.167969 45.832031 L 49.167969 45.832031 L 49.167969 49.167969 L 14.167969 49.167969 Z M 14.167969 45.832031 "/>
<path style=" stroke:none;fill-rule:nonzero;fill:rgb(27.45098%,29.019608%,31.764706%);fill-opacity:1;" d="M 42.5 39.167969 C 31.453125 39.167969 22.5 30.210938 22.5 19.167969 L 22.5 3.445312 C 17.324219 6.621094 14.167969 12.261719 14.167969 18.332031 L 14.167969 45.832031 L 49.167969 45.832031 L 49.167969 39.167969 Z M 42.5 39.167969 "/>
<path style=" stroke:none;fill-rule:nonzero;fill:rgb(57.647059%,60%,60.392157%);fill-opacity:1;" d="M 31.667969 10 L 31.667969 6.667969 L 30 6.667969 L 30 10 L 25.832031 10 L 25.832031 13.332031 L 30 13.332031 L 30 21.667969 L 33.332031 21.667969 L 33.332031 13.332031 L 37.5 13.332031 L 37.5 11.667969 L 33.332031 11.667969 C 32.414062 11.667969 31.667969 10.921875 31.667969 10 Z M 31.667969 10 "/>
<path style=" stroke:none;fill-rule:nonzero;fill:rgb(63.137255%,83.529412%,10.980392%);fill-opacity:1;" d="M 6.667969 49.167969 L 10 35.832031 L 3.332031 30.832031 L 0.832031 24.167969 L 2.5 20.832031 L 3.964844 22.296875 C 4.078125 22.410156 5.269531 25.296875 5.691406 26.320312 C 5.78125 26.539062 5.964844 26.710938 6.191406 26.785156 L 7.648438 27.273438 C 8.039062 27.402344 8.46875 27.226562 8.65625 26.855469 L 8.980469 26.207031 C 9.097656 25.972656 9.097656 25.695312 8.980469 25.460938 L 5.152344 17.808594 C 5.054688 17.609375 5.039062 17.382812 5.109375 17.171875 L 7.714844 9.351562 C 7.863281 8.910156 8.207031 8.5625 8.648438 8.414062 C 9.085938 8.261719 9.570312 8.324219 9.957031 8.582031 L 10.003906 8.613281 C 10.503906 8.949219 10.757812 9.554688 10.636719 10.144531 L 9.167969 17.5 L 13.332031 23.332031 L 12.59375 16.667969 C 12.53125 16.121094 12.613281 15.566406 12.828125 15.0625 L 14.375 11.453125 C 14.539062 11.074219 14.847656 10.78125 15.234375 10.640625 C 15.621094 10.496094 16.046875 10.519531 16.414062 10.703125 L 17 10.996094 C 17.734375 11.363281 18.03125 12.257812 17.664062 12.996094 L 16.121094 16.078125 C 15.9375 16.453125 15.894531 16.882812 16.011719 17.28125 L 17.5 22.5 L 19.238281 19.023438 C 19.714844 18.070312 20.632812 17.421875 21.6875 17.289062 L 24.988281 16.871094 C 25.414062 16.820312 25.84375 16.953125 26.164062 17.234375 C 26.484375 17.519531 26.667969 17.929688 26.667969 18.355469 L 26.667969 18.773438 C 26.667969 19.484375 26.164062 20.097656 25.46875 20.234375 L 22.5 20.832031 L 21.667969 23.332031 L 20.832031 25 L 25.054688 24.296875 C 26.746094 24.015625 28.359375 25.125 28.695312 26.808594 L 28.972656 28.1875 C 29.089844 28.78125 28.835938 29.386719 28.332031 29.722656 L 28.070312 29.894531 C 27.714844 30.132812 27.273438 30.207031 26.859375 30.097656 C 26.445312 29.988281 26.101562 29.703125 25.910156 29.320312 L 25 27.5 L 21.667969 29.167969 L 19.167969 36.667969 L 21.667969 49.167969 Z M 6.667969 49.167969 "/>
<path style=" stroke:none;fill-rule:nonzero;fill:rgb(47.843137%,72.54902%,17.647059%);fill-opacity:1;" d="M 15.703125 35.339844 C 15.789062 34.574219 15.648438 33.800781 15.304688 33.113281 L 8.40625 19.308594 C 7.820312 18.140625 7.660156 16.804688 7.953125 15.527344 L 9.597656 8.410156 C 8.816406 8.152344 7.976562 8.574219 7.714844 9.351562 L 5.109375 17.171875 C 5.039062 17.382812 5.054688 17.609375 5.152344 17.808594 L 8.980469 25.460938 C 9.097656 25.695312 9.097656 25.972656 8.980469 26.207031 L 8.65625 26.851562 C 8.472656 27.222656 8.039062 27.402344 7.648438 27.269531 L 6.191406 26.785156 C 5.964844 26.710938 5.78125 26.539062 5.691406 26.316406 C 5.273438 25.296875 4.078125 22.410156 3.964844 22.296875 L 2.5 20.832031 L 0.832031 24.167969 L 3.332031 30.832031 L 10 35.832031 L 6.667969 49.167969 L 21.667969 49.167969 L 19.789062 39.769531 C 18.632812 39.804688 17.519531 39.335938 16.738281 38.484375 C 15.953125 37.636719 15.578125 36.488281 15.703125 35.339844 Z M 15.703125 35.339844 "/>
<path style=" stroke:none;fill-rule:nonzero;fill:rgb(98.823529%,73.72549%,1.568627%);fill-opacity:1;" d="M 0.832031 49.167969 L 4.167969 45.832031 L 10.832031 44.167969 L 15 45.832031 L 17.5 43.332031 L 22.5 42.5 L 26.667969 44.167969 L 26.667969 46.667969 L 30.269531 49.167969 Z M 0.832031 49.167969 "/>
<path style=" stroke:none;fill-rule:nonzero;fill:rgb(97.647059%,88.235294%,3.529412%);fill-opacity:1;" d="M 10.832031 45.832031 L 15 47.5 L 17.5 45 L 22.5 44.167969 L 25 45 L 25.832031 48.332031 L 27.3125 49.167969 L 30.269531 49.167969 L 26.667969 46.667969 L 26.667969 44.167969 L 22.5 42.5 L 17.5 43.332031 L 15 45.832031 L 10.832031 44.167969 L 6.390625 45.277344 Z M 10.832031 45.832031 "/>
<path style=" stroke:none;fill-rule:nonzero;fill:rgb(19.607843%,19.607843%,19.607843%);fill-opacity:1;" d="M 31.667969 0 C 25.917969 -0.0195312 20.5 2.683594 17.058594 7.285156 C 16.78125 7.652344 16.851562 8.175781 17.222656 8.453125 C 17.589844 8.734375 18.113281 8.660156 18.390625 8.289062 C 21.519531 4.109375 26.441406 1.652344 31.667969 1.667969 C 40.867188 1.675781 48.324219 9.132812 48.332031 18.332031 L 48.332031 45 L 30.832031 45 C 30.375 45 30 45.375 30 45.832031 C 30 46.292969 30.375 46.667969 30.832031 46.667969 L 48.332031 46.667969 L 48.332031 49.167969 C 48.332031 49.625 48.707031 50 49.167969 50 C 49.625 50 50 49.625 50 49.167969 L 50 18.332031 C 49.988281 8.210938 41.789062 0.0117188 31.667969 0 Z M 31.667969 0 "/>
<path style=" stroke:none;fill-rule:nonzero;fill:rgb(19.607843%,19.607843%,19.607843%);fill-opacity:1;" d="M 33.332031 5.832031 L 30 5.832031 C 29.539062 5.832031 29.167969 6.207031 29.167969 6.667969 L 29.167969 9.167969 L 25.832031 9.167969 C 25.375 9.167969 25 9.539062 25 10 L 25 13.332031 C 25 13.792969 25.375 14.167969 25.832031 14.167969 L 29.167969 14.167969 L 29.167969 21.667969 C 29.167969 22.125 29.539062 22.5 30 22.5 L 33.332031 22.5 C 33.792969 22.5 34.167969 22.125 34.167969 21.667969 L 34.167969 14.167969 L 37.5 14.167969 C 37.960938 14.167969 38.332031 13.792969 38.332031 13.332031 L 38.332031 10 C 38.332031 9.539062 37.960938 9.167969 37.5 9.167969 L 34.167969 9.167969 L 34.167969 6.667969 C 34.167969 6.207031 33.792969 5.832031 33.332031 5.832031 Z M 36.667969 10.832031 L 36.667969 12.5 L 33.332031 12.5 C 32.875 12.5 32.5 12.875 32.5 13.332031 L 32.5 20.832031 L 30.832031 20.832031 L 30.832031 13.332031 C 30.832031 12.875 30.460938 12.5 30 12.5 L 26.667969 12.5 L 26.667969 10.832031 L 30 10.832031 C 30.460938 10.832031 30.832031 10.460938 30.832031 10 L 30.832031 7.5 L 32.5 7.5 L 32.5 10 C 32.5 10.460938 32.875 10.832031 33.332031 10.832031 Z M 36.667969 10.832031 "/>
<path style=" stroke:none;fill-rule:nonzero;fill:rgb(19.607843%,19.607843%,19.607843%);fill-opacity:1;" d="M 40.832031 25.832031 L 33.332031 25.832031 C 32.875 25.832031 32.5 26.207031 32.5 26.667969 C 32.5 27.125 32.875 27.5 33.332031 27.5 L 40.832031 27.5 C 41.292969 27.5 41.667969 27.125 41.667969 26.667969 C 41.667969 26.207031 41.292969 25.832031 40.832031 25.832031 Z M 40.832031 25.832031 "/>
<path style=" stroke:none;fill-rule:nonzero;fill:rgb(19.607843%,19.607843%,19.607843%);fill-opacity:1;" d="M 42.5 35 C 42.5 34.539062 42.125 34.167969 41.667969 34.167969 L 24.167969 34.167969 C 23.707031 34.167969 23.332031 34.539062 23.332031 35 C 23.332031 35.460938 23.707031 35.832031 24.167969 35.832031 L 41.667969 35.832031 C 42.125 35.832031 42.5 35.460938 42.5 35 Z M 42.5 35 "/>
<path style=" stroke:none;fill-rule:nonzero;fill:rgb(19.607843%,19.607843%,19.607843%);fill-opacity:1;" d="M 40.832031 31.667969 C 41.292969 31.667969 41.667969 31.292969 41.667969 30.832031 C 41.667969 30.375 41.292969 30 40.832031 30 L 33.332031 30 C 32.875 30 32.5 30.375 32.5 30.832031 C 32.5 31.292969 32.875 31.667969 33.332031 31.667969 Z M 40.832031 31.667969 "/>
<path style=" stroke:none;fill-rule:nonzero;fill:rgb(19.607843%,19.607843%,19.607843%);fill-opacity:1;" d="M 24.167969 39.167969 C 23.707031 39.167969 23.332031 39.539062 23.332031 40 C 23.332031 40.460938 23.707031 40.832031 24.167969 40.832031 L 40.832031 40.832031 C 41.292969 40.832031 41.667969 40.460938 41.667969 40 C 41.667969 39.539062 41.292969 39.167969 40.832031 39.167969 Z M 24.167969 39.167969 "/>
<path style=" stroke:none;fill-rule:nonzero;fill:rgb(19.607843%,19.607843%,19.607843%);fill-opacity:1;" d="M 27.5 46.230469 L 27.5 44.167969 C 27.5 43.824219 27.292969 43.519531 26.976562 43.390625 L 22.808594 41.726562 C 22.667969 41.667969 22.511719 41.652344 22.363281 41.679688 L 17.363281 42.511719 C 17.191406 42.539062 17.035156 42.621094 16.910156 42.746094 L 14.800781 44.855469 L 11.140625 43.390625 C 10.980469 43.328125 10.800781 43.316406 10.632812 43.359375 L 8.867188 43.800781 L 9.519531 41.183594 L 13.375 40.832031 L 15.832031 40.832031 C 16.292969 40.832031 16.667969 40.460938 16.667969 40 C 16.667969 39.539062 16.292969 39.167969 15.832031 39.167969 L 14.488281 39.167969 L 14.957031 37.761719 C 15.101562 37.324219 14.867188 36.855469 14.429688 36.707031 C 13.992188 36.5625 13.519531 36.800781 13.375 37.238281 L 12.710938 39.21875 L 9.945312 39.46875 L 10.804688 36.035156 C 10.886719 35.710938 10.765625 35.367188 10.5 35.167969 L 4.027344 30.3125 L 1.742188 24.214844 L 2.726562 22.238281 L 3.296875 22.808594 C 3.410156 23.042969 3.777344 23.875 4.917969 26.636719 C 5.101562 27.082031 5.46875 27.425781 5.925781 27.578125 L 7.382812 28.0625 C 8.167969 28.320312 9.027344 27.964844 9.402344 27.226562 L 9.726562 26.582031 C 9.957031 26.109375 9.957031 25.558594 9.726562 25.089844 L 5.898438 17.4375 L 8.503906 9.617188 C 8.570312 9.421875 8.722656 9.265625 8.917969 9.199219 C 9.128906 9.128906 9.363281 9.167969 9.539062 9.304688 C 9.761719 9.449219 9.875 9.71875 9.820312 9.980469 L 8.351562 17.332031 C 8.277344 17.777344 8.570312 18.199219 9.007812 18.285156 C 9.449219 18.375 9.878906 18.097656 9.984375 17.660156 L 11.453125 10.308594 C 11.699219 9.089844 10.957031 7.894531 9.761719 7.574219 C 8.5625 7.25 7.324219 7.914062 6.925781 9.089844 L 4.320312 16.910156 C 4.179688 17.328125 4.210938 17.785156 4.410156 18.183594 L 8.234375 25.832031 L 7.910156 26.480469 L 6.460938 26 C 4.785156 21.9375 4.710938 21.867188 4.550781 21.703125 L 3.089844 20.246094 C 2.898438 20.054688 2.632812 19.96875 2.367188 20.011719 C 2.101562 20.054688 1.875 20.222656 1.753906 20.460938 L 0.0898438 23.792969 C -0.015625 24 -0.0273438 24.242188 0.0546875 24.460938 L 2.554688 31.128906 C 2.609375 31.277344 2.707031 31.40625 2.832031 31.5 L 9.058594 36.167969 L 7.035156 44.257812 L 3.964844 45.023438 C 3.816406 45.0625 3.683594 45.136719 3.578125 45.242188 L 0.246094 48.578125 C 0.0273438 48.785156 -0.0585938 49.097656 0.015625 49.386719 C 0.09375 49.679688 0.320312 49.90625 0.613281 49.980469 C 0.902344 50.058594 1.214844 49.972656 1.421875 49.753906 L 4.589844 46.589844 L 10.769531 45.042969 L 14.6875 46.609375 C 14.996094 46.734375 15.347656 46.660156 15.585938 46.425781 L 17.894531 44.113281 L 22.402344 43.363281 L 25.832031 44.730469 L 25.832031 46.667969 C 25.832031 46.941406 25.96875 47.195312 26.191406 47.351562 L 29.796875 49.851562 C 30.175781 50.113281 30.695312 50.023438 30.957031 49.644531 C 31.222656 49.265625 31.128906 48.746094 30.75 48.480469 Z M 27.5 46.230469 "/>
<path style=" stroke:none;fill-rule:nonzero;fill:rgb(19.607843%,19.607843%,19.607843%);fill-opacity:1;" d="M 10.339844 19.140625 C 10.15625 19.269531 10.035156 19.464844 10 19.683594 C 9.960938 19.902344 10.015625 20.125 10.144531 20.308594 L 12.65625 23.820312 C 12.875 24.128906 13.277344 24.25 13.632812 24.113281 C 13.984375 23.980469 14.203125 23.621094 14.160156 23.246094 L 13.421875 16.578125 C 13.375 16.175781 13.4375 15.769531 13.597656 15.394531 L 15.140625 11.789062 C 15.214844 11.621094 15.351562 11.488281 15.519531 11.425781 C 15.691406 11.363281 15.878906 11.375 16.042969 11.453125 L 16.625 11.746094 C 16.953125 11.910156 17.082031 12.304688 16.921875 12.628906 L 15.378906 15.714844 C 15.097656 16.273438 15.039062 16.917969 15.210938 17.519531 L 16.699219 22.726562 C 16.792969 23.058594 17.082031 23.296875 17.421875 23.328125 C 17.765625 23.363281 18.09375 23.179688 18.246094 22.871094 L 19.984375 19.394531 C 20.335938 18.691406 21.015625 18.210938 21.792969 18.113281 L 25.09375 17.699219 C 25.28125 17.675781 25.46875 17.734375 25.609375 17.859375 C 25.753906 17.980469 25.835938 18.164062 25.835938 18.351562 L 25.835938 18.769531 C 25.832031 19.082031 25.613281 19.351562 25.304688 19.414062 L 22.335938 20.007812 C 22.042969 20.066406 21.804688 20.277344 21.710938 20.5625 L 20.894531 23.003906 L 20.089844 24.617188 C 19.949219 24.898438 19.976562 25.234375 20.164062 25.484375 C 20.351562 25.738281 20.660156 25.863281 20.972656 25.8125 L 25.191406 25.109375 C 26.441406 24.902344 27.628906 25.722656 27.878906 26.964844 L 28.152344 28.339844 C 28.207031 28.601562 28.097656 28.871094 27.875 29.019531 L 27.613281 29.191406 C 27.453125 29.296875 27.261719 29.332031 27.078125 29.285156 C 26.894531 29.234375 26.742188 29.113281 26.65625 28.941406 L 25.75 27.128906 C 25.542969 26.714844 25.042969 26.546875 24.632812 26.753906 L 21.296875 28.421875 C 21.101562 28.519531 20.949219 28.695312 20.882812 28.902344 L 19.558594 32.871094 L 17.5 31.957031 L 17.5 30 C 17.5 29.539062 17.125 29.167969 16.667969 29.167969 C 16.207031 29.167969 15.832031 29.539062 15.832031 30 L 15.832031 31.667969 L 14.167969 31.667969 C 13.707031 31.667969 13.332031 32.039062 13.332031 32.5 C 13.332031 32.960938 13.707031 33.332031 14.167969 33.332031 L 16.488281 33.332031 L 19.023438 34.460938 L 18.375 36.402344 C 18.328125 36.539062 18.320312 36.6875 18.351562 36.828125 L 18.941406 39.789062 C 19.019531 40.175781 19.363281 40.453125 19.757812 40.453125 C 19.8125 40.453125 19.871094 40.449219 19.925781 40.4375 C 20.375 40.347656 20.667969 39.910156 20.578125 39.457031 L 20.027344 36.71875 L 22.351562 29.753906 L 24.628906 28.617188 L 25.167969 29.691406 C 25.464844 30.289062 26.007812 30.726562 26.652344 30.898438 C 27.296875 31.066406 27.980469 30.953125 28.535156 30.582031 L 28.800781 30.40625 C 29.585938 29.886719 29.976562 28.941406 29.789062 28.015625 L 29.515625 26.640625 C 29.085938 24.515625 27.054688 23.113281 24.917969 23.472656 L 22.308594 23.90625 L 22.410156 23.703125 C 22.429688 23.667969 22.445312 23.632812 22.457031 23.59375 L 23.136719 21.554688 L 25.628906 21.054688 C 26.714844 20.835938 27.496094 19.882812 27.5 18.777344 L 27.5 18.359375 C 27.5 17.695312 27.214844 17.058594 26.714844 16.617188 C 26.214844 16.175781 25.546875 15.972656 24.886719 16.054688 L 21.585938 16.46875 C 20.253906 16.636719 19.09375 17.457031 18.492188 18.65625 L 17.710938 20.21875 L 16.8125 17.070312 C 16.753906 16.867188 16.773438 16.652344 16.867188 16.46875 L 18.410156 13.382812 C 18.984375 12.234375 18.519531 10.839844 17.371094 10.265625 L 16.789062 9.972656 C 16.214844 9.6875 15.550781 9.648438 14.949219 9.871094 C 14.347656 10.089844 13.863281 10.550781 13.609375 11.140625 L 12.066406 14.75 C 11.792969 15.386719 11.6875 16.082031 11.765625 16.773438 L 12.152344 20.261719 L 11.5 19.332031 C 11.230469 18.960938 10.710938 18.871094 10.339844 19.140625 Z M 10.339844 19.140625 "/>
</g>
</svg>
