<svg height="512" viewBox="0 0 64 64" width="512" xmlns="http://www.w3.org/2000/svg"><g id="Fill_Ouline" data-name="Fill Ouline"><g id="Color"><g><g><path d="m40 3a21 21 0 0 1 21 21v33a0 0 0 0 1 0 0h-42a0 0 0 0 1 0 0v-33a21 21 0 0 1 21-21z" fill="#656b76"/><path d="m47 14h-5v-4h-4v4h-5v4h5v10h4v-10h5z" fill="#d0d8da"/><path d="m19 57h42v4h-42z" fill="#656b76"/><path d="m53 49a24 24 0 0 1 -24-24v-18.864a20.964 20.964 0 0 0 -10 17.864v33h42v-8z" fill="#464a51"/><path d="m40 14v-4h-2v4h-5v4h5v10h4v-10h5v-2h-5a2 2 0 0 1 -2-2z" fill="#93999a"/></g><g><path d="m10 61 4-16-8-6-3-8 2-4 1.756 1.756c.136.136 1.567 3.6 2.072 4.828a.984.984 0 0 0 .6.559l1.748.583a1 1 0 0 0 1.211-.5l.388-.777a1 1 0 0 0 0-.894l-4.59-9.185a1 1 0 0 1 -.054-.763l3.128-9.384a1.79 1.79 0 0 1 2.691-.923l.053.035a1.79 1.79 0 0 1 .762 1.84l-1.765 8.825 5 7-.889-8a3.823 3.823 0 0 1 .285-1.925l1.856-4.33a1.79 1.79 0 0 1 2.446-.9l.7.35a1.79 1.79 0 0 1 .8 2.4l-1.851 3.7a2 2 0 0 0 -.134 1.444l1.787 6.261 2.087-4.173a3.811 3.811 0 0 1 2.939-2.08l3.962-.5a1.79 1.79 0 0 1 2.012 1.781v.505a1.79 1.79 0 0 1 -1.439 1.755l-3.561.712-1 3-1 2 5.065-.844a3.8 3.8 0 0 1 1.835.144 3.815 3.815 0 0 1 2.535 2.871l.331 1.654a1.79 1.79 0 0 1 -.766 1.84l-.316.21a1.79 1.79 0 0 1 -2.594-.689l-1.09-2.186-4 2-3 9 3 15z" fill="#a1d51c"/><path d="m20.844 44.407a4.8 4.8 0 0 0 -.477-2.673l-8.281-16.563a6.746 6.746 0 0 1 -.54-4.536l1.971-8.541a1.787 1.787 0 0 0 -2.258 1.129l-3.128 9.384a1 1 0 0 0 .054.763l4.591 9.183a1 1 0 0 1 0 .894l-.388.777a1 1 0 0 1 -1.211.5l-1.748-.583a.984.984 0 0 1 -.6-.559c-.5-1.224-1.936-4.692-2.072-4.828l-1.757-1.754-2 4 3 8 8 6-4 16h18l-2.255-11.275a4.793 4.793 0 0 1 -4.901-5.318z" fill="#7ab92d"/><path d="m3 61 4-4 8-2 5 2 3-3 6-1 5 2v3l4.325 3z" fill="#fcbc04"/><path d="m15 57 5 2 3-3 6-1 3 1 1 4 1.775 1h3.55l-4.325-3v-3l-5-2-6 1-3 3-5-2-5.333 1.333z" fill="#f9e109"/></g></g></g><g id="Outline_copy" data-name="Outline copy"><g fill="#323232"><path d="m40 2a21.808 21.808 0 0 0 -17.531 8.743 1 1 0 1 0 1.595 1.206 19.823 19.823 0 0 1 15.936-7.949 20.023 20.023 0 0 1 20 20v32h-21a1 1 0 0 0 0 2h21v3a1 1 0 0 0 2 0v-37a22.025 22.025 0 0 0 -22-22z"/><path d="m42 9h-4a1 1 0 0 0 -1 1v3h-4a1 1 0 0 0 -1 1v4a1 1 0 0 0 1 1h4v9a1 1 0 0 0 1 1h4a1 1 0 0 0 1-1v-9h4a1 1 0 0 0 1-1v-4a1 1 0 0 0 -1-1h-4v-3a1 1 0 0 0 -1-1zm4 6v2h-4a1 1 0 0 0 -1 1v9h-2v-9a1 1 0 0 0 -1-1h-4v-2h4a1 1 0 0 0 1-1v-3h2v3a1 1 0 0 0 1 1z"/><path d="m51 33h-9a1 1 0 0 0 0 2h9a1 1 0 0 0 0-2z"/><path d="m53 44a1 1 0 0 0 -1-1h-21a1 1 0 0 0 0 2h21a1 1 0 0 0 1-1z"/><path d="m51 40a1 1 0 0 0 0-2h-9a1 1 0 0 0 0 2z"/><path d="m31 49a1 1 0 0 0 0 2h20a1 1 0 0 0 0-2z"/><path d="m35 57.477v-2.477a1 1 0 0 0 -.629-.929l-5-2a.985.985 0 0 0 -.535-.057l-6 1a1 1 0 0 0 -.543.279l-2.534 2.534-4.388-1.756a1.012 1.012 0 0 0 -.613-.041l-2.117.529.784-3.139 4.623-.42h2.952a1 1 0 0 0 0-2h-1.613l.561-1.684a1 1 0 1 0 -1.9-.632l-.794 2.379-3.319.3 1.031-4.122a1 1 0 0 0 -.366-1.041l-7.766-5.825-2.744-7.318 1.183-2.369.682.682c.139.282.58 1.279 1.948 4.594a1.986 1.986 0 0 0 1.21 1.128l1.747.582a2.01 2.01 0 0 0 2.422-1l.389-.777a2.017 2.017 0 0 0 0-1.789l-4.592-9.185 3.128-9.384a.789.789 0 0 1 .493-.5.824.824 0 0 1 .748.125.784.784 0 0 1 .336.812l-1.764 8.824a1 1 0 0 0 1.96.392l1.765-8.824a2.8 2.8 0 0 0 -1.24-2.9 2.791 2.791 0 0 0 -4.194 1.44l-3.128 9.382a2.011 2.011 0 0 0 .108 1.528l4.591 9.182-.389.777-1.74-.577c-2.013-4.877-2.095-4.959-2.29-5.154l-1.756-1.753a1 1 0 0 0 -1.6.26l-2 4a1 1 0 0 0 -.042.8l3 8a1 1 0 0 0 .335.447l7.469 5.6-2.427 9.708-3.684.921a1 1 0 0 0 -.465.263l-4 4a1 1 0 0 0 1.414 1.414l3.805-3.8 7.417-1.855 4.7 1.881a1 1 0 0 0 1.078-.222l2.773-2.773 5.409-.9 4.111 1.64v2.323a1 1 0 0 0 .43.822l4.325 3a1 1 0 0 0 1.145-1.644z"/><path d="m14.406 24.968a1 1 0 0 0 -.232 1.395l3.013 4.218a1 1 0 0 0 1.807-.691l-.889-8a2.833 2.833 0 0 1 .21-1.42l1.856-4.329a.79.79 0 0 1 1.081-.4l.7.349a.792.792 0 0 1 .353 1.061l-1.852 3.7a3 3 0 0 0 -.2 2.166l1.786 6.252a1 1 0 0 0 1.857.172l2.086-4.173a2.81 2.81 0 0 1 2.169-1.535l3.962-.5a.784.784 0 0 1 .62.192.775.775 0 0 1 .268.592v.505a.793.793 0 0 1 -.636.774l-3.56.713a1 1 0 0 0 -.752.664l-.978 2.932-.969 1.937a1 1 0 0 0 1.059 1.433l5.065-.844a2.819 2.819 0 0 1 3.225 2.225l.33 1.654a.785.785 0 0 1 -.335.812l-.316.21a.791.791 0 0 1 -1.146-.3l-1.088-2.179a1 1 0 0 0 -1.342-.448l-4 2a1 1 0 0 0 -.5.579l-1.588 4.762-2.47-1.096v-2.35a1 1 0 0 0 -2 0v2h-2a1 1 0 0 0 0 2h2.788l3.041 1.352-.777 2.332a.979.979 0 0 0 -.032.512l.709 3.549a1 1 0 0 0 .98.8 1.026 1.026 0 0 0 .2-.019 1 1 0 0 0 .784-1.177l-.658-3.288 2.785-8.355 2.736-1.367.645 1.292a2.79 2.79 0 0 0 4.043 1.074l.317-.211a2.779 2.779 0 0 0 1.187-2.868l-.33-1.654a4.816 4.816 0 0 0 -5.518-3.803l-3.129.522.123-.244a.876.876 0 0 0 .053-.131l.818-2.449 2.99-.6a2.8 2.8 0 0 0 2.245-2.734v-.505a2.791 2.791 0 0 0 -3.136-2.769l-3.962.5a4.81 4.81 0 0 0 -3.71 2.625l-.937 1.874-1.08-3.78a1 1 0 0 1 .067-.722l1.852-3.7a2.793 2.793 0 0 0 -1.248-3.743l-.7-.35a2.79 2.79 0 0 0 -3.813 1.4l-1.855 4.331a4.8 4.8 0 0 0 -.361 2.428l.465 4.185-.782-1.107a1 1 0 0 0 -1.394-.232z"/></g></g></g></svg>