<svg height="512" viewBox="0 0 64 64" width="512" xmlns="http://www.w3.org/2000/svg"><g id="flat"><path d="m45.711 48.957a20.562 20.562 0 0 0 1.289-6.957v-25h-30v25l27.882 7.429z" fill="#8ec13f"/><path d="m42.041 55.04a17.42 17.42 0 0 0 3.67-6.083c-1.485-.22-3.238-.713-3.711-1.957-.28-.735.2-1.144 0-2a5.593 5.593 0 0 0 -6-4 5.831 5.831 0 0 0 -4 3h-4c-2.018-3.146-5.272-4.717-8-4a5.941 5.941 0 0 0 -3 2c0 4.944 2.174 10.869 6 14l5 4z" fill="#3e8051"/><path d="m32 3h-22l8 6-10 4 6 4c-.466 1.648-1 2.2-1 4v14h4v-11a5 5 0 0 1 5-5l15 5v-5a10 10 0 0 1 10 10v6h4v-7a93.52 93.52 0 0 0 -.972-11.972 14.371 14.371 0 0 0 -1.991-4.828z" fill="#394d5c"/><path d="m47 33h2a4 4 0 0 1 4 4 4 4 0 0 1 -4 4h-2a0 0 0 0 1 0 0v-8a0 0 0 0 1 0 0z" fill="#c8d952"/><path d="m15 41h2v-8h-2a4 4 0 0 0 -4 4 4 4 0 0 0 4 4z" fill="#c8d952"/><circle cx="25" cy="31" fill="#f4f4e6" r="2"/><circle cx="39" cy="31" fill="#f4f4e6" r="2"/><path d="m26 9c1.224 2.436 5.5 2.552 8 2 2.184-.483 2.875-1.474 4-1 1.662.7.936 3.192 3 5 1.134.993 3.261 1.912 5 1a4.608 4.608 0 0 0 2.037-4.8c-3.247-5.052-9.516-8.2-16.037-8.2h-5a5.61 5.61 0 0 0 -1 6z" fill="#b11e48"/><path d="m28 37h2v2h-2z" fill="#3e8051"/><path d="m34 37h2v2h-2z" fill="#3e8051"/><rect fill="#f98c96" height="6" rx="3" width="12" x="26" y="44"/><path d="m29 44h2v6h-2z" fill="#f4f4e6"/><path d="m33 44h2v6h-2z" fill="#f4f4e6"/><path d="m39 54c-.532-.954.512-1.953 0-3-.6-1.22-2.979-1.834-4-1-1.272 1.039.533 3.831-1 5-1.155.88-2.554.1-4 1-1.361.844-1.826 2.589-2 4a7.451 7.451 0 0 0 8 0l5-4a13.032 13.032 0 0 0 1.041-.96s-2.577-.208-3.041-1.04z" fill="#b11e48"/><path d="m42.018 38.308a7.805 7.805 0 0 1 -1.214-.1.981.981 0 0 1 -.787-1.266l.012-.037a.992.992 0 0 1 1.11-.668 5.54 5.54 0 0 0 4.524-1.307.966.966 0 0 1 1.264 0l.031.027a.978.978 0 0 1 .019 1.478 7.507 7.507 0 0 1 -4.959 1.866z" fill="#3e8051"/></g></svg>