<?xml version="1.0" encoding="UTF-8"?>
<svg xmlns="http://www.w3.org/2000/svg" xmlns:xlink="http://www.w3.org/1999/xlink" width="50" height="52" viewBox="0 0 50 52" version="1.1">
<g id="surface1">
<path style=" stroke:none;fill-rule:nonzero;fill:rgb(26.666667%,76.862745%,63.137255%);fill-opacity:1;" d="M 3.457031 26.519531 C 3.152344 26.253906 2.804688 26.015625 2.402344 25.945312 C 1.789062 25.835938 1.152344 26.148438 0.757812 26.625 C 0.363281 27.105469 0.175781 27.71875 0.0820312 28.328125 C -0.347656 31.144531 1.027344 33.882812 1.585938 36.675781 C 1.875 38.132812 2.039062 39.792969 3.222656 40.703125 C 3.535156 40.941406 3.925781 41.109375 4.316406 41.058594 C 5.058594 40.957031 5.453125 40.148438 5.671875 39.4375 C 6.960938 35.222656 7.132812 29.660156 3.457031 26.519531 Z M 3.457031 26.519531 "/>
<path style=" stroke:none;fill-rule:nonzero;fill:rgb(24.313725%,65.098039%,60.784314%);fill-opacity:1;" d="M 3.207031 28.628906 C 3.007812 28.414062 2.773438 28.179688 2.476562 28.164062 C 2.023438 28.140625 1.714844 28.621094 1.597656 29.054688 C 1.34375 30.007812 1.496094 31.019531 1.652344 31.992188 C 1.871094 33.367188 2.089844 34.742188 2.308594 36.117188 C 2.3125 36.1875 2.339844 36.257812 2.386719 36.316406 C 2.554688 36.472656 2.785156 36.195312 2.824219 35.972656 C 3.070312 34.640625 2.496094 33.308594 2.328125 31.960938 C 2.269531 31.507812 2.261719 31.035156 2.433594 30.609375 C 2.699219 29.953125 3.292969 29.664062 3.941406 29.507812 C 3.84375 29.1875 3.449219 28.882812 3.207031 28.628906 Z M 3.207031 28.628906 "/>
<path style=" stroke:none;fill-rule:nonzero;fill:rgb(26.666667%,76.862745%,63.137255%);fill-opacity:1;" d="M 46.542969 26.519531 C 46.851562 26.253906 47.199219 26.015625 47.597656 25.945312 C 48.210938 25.835938 48.847656 26.148438 49.242188 26.625 C 49.640625 27.105469 49.828125 27.71875 49.917969 28.328125 C 50.347656 31.144531 48.972656 33.882812 48.414062 36.675781 C 48.125 38.132812 47.960938 39.792969 46.777344 40.703125 C 46.464844 40.941406 46.074219 41.109375 45.6875 41.058594 C 44.941406 40.957031 44.546875 40.148438 44.332031 39.4375 C 43.039062 35.222656 42.867188 29.660156 46.542969 26.519531 Z M 46.542969 26.519531 "/>
<path style=" stroke:none;fill-rule:nonzero;fill:rgb(24.313725%,65.098039%,60.784314%);fill-opacity:1;" d="M 46.792969 28.628906 C 46.992188 28.414062 47.226562 28.179688 47.523438 28.164062 C 47.976562 28.140625 48.285156 28.621094 48.402344 29.054688 C 48.660156 30.007812 48.503906 31.019531 48.347656 31.992188 C 48.128906 33.367188 47.910156 34.742188 47.691406 36.117188 C 47.6875 36.1875 47.660156 36.257812 47.613281 36.316406 C 47.445312 36.472656 47.21875 36.195312 47.175781 35.972656 C 46.929688 34.640625 47.507812 33.308594 47.675781 31.960938 C 47.730469 31.507812 47.738281 31.035156 47.566406 30.609375 C 47.304688 29.953125 46.710938 29.664062 46.058594 29.507812 C 46.15625 29.1875 46.550781 28.882812 46.792969 28.628906 Z M 46.792969 28.628906 "/>
<path style=" stroke:none;fill-rule:nonzero;fill:rgb(26.666667%,76.862745%,63.137255%);fill-opacity:1;" d="M 43.15625 46.027344 C 41.75 47.398438 39.714844 48.28125 36.835938 48.398438 C 36.835938 48.398438 34.957031 48.398438 33.042969 48.585938 C 31.429688 48.738281 29.96875 49.515625 28.824219 50.640625 C 28.25 51.210938 27.234375 52 25.410156 52 C 23.574219 52 22.570312 51.210938 21.988281 50.640625 C 20.84375 49.515625 19.382812 48.738281 17.769531 48.585938 C 15.855469 48.398438 13.976562 48.398438 13.976562 48.398438 C 0.730469 47.847656 5.421875 31.160156 6.140625 25.054688 C 6.261719 24.003906 6.277344 22.011719 6.25 20.125 C 6.222656 17.796875 6.140625 15.636719 6.140625 15.636719 L 44.667969 15.636719 C 44.667969 15.636719 44.394531 22.710938 44.667969 25.054688 C 45.234375 29.835938 48.230469 41.09375 43.15625 46.027344 Z M 43.15625 46.027344 "/>
<path style=" stroke:none;fill-rule:nonzero;fill:rgb(39.215686%,47.45098%,54.117647%);fill-opacity:1;" d="M 15.898438 36.855469 C 13.070312 36.855469 10.777344 34.589844 10.777344 31.792969 C 10.777344 29 13.507812 25.519531 16.332031 25.519531 C 18.320312 25.523438 20.128906 26.664062 20.972656 28.445312 C 21.289062 29.113281 21.453125 29.84375 21.449219 30.582031 C 21.449219 30.816406 21.433594 31.054688 21.398438 31.285156 C 21.050781 33.769531 18.441406 36.855469 15.898438 36.855469 Z M 15.898438 36.855469 "/>
<path style=" stroke:none;fill-rule:nonzero;fill:rgb(22.745098%,33.333333%,41.568627%);fill-opacity:1;" d="M 16.171875 36.035156 C 15.011719 36.039062 13.886719 35.636719 12.996094 34.898438 C 12.789062 34.726562 12.597656 34.539062 12.425781 34.339844 C 11.703125 33.5 11.304688 32.4375 11.304688 31.339844 C 11.304688 28.75 13.898438 25.519531 16.585938 25.519531 C 18.460938 25.511719 20.175781 26.566406 20.996094 28.234375 C 21.296875 28.851562 21.453125 29.53125 21.453125 30.214844 C 21.453125 30.433594 21.433594 30.652344 21.402344 30.871094 C 21.070312 33.171875 18.589844 36.035156 16.171875 36.035156 Z M 16.171875 36.035156 "/>
<path style=" stroke:none;fill-rule:nonzero;fill:rgb(98.823529%,83.137255%,38.431373%);fill-opacity:1;" d="M 20.523438 30.582031 C 20.523438 30.773438 20.507812 30.964844 20.480469 31.15625 C 20.269531 32.65625 19.242188 33.925781 17.808594 34.460938 C 16.375 34.992188 14.757812 34.710938 13.597656 33.71875 C 13.417969 33.566406 13.25 33.398438 13.097656 33.21875 C 11.921875 31.808594 11.816406 29.804688 12.839844 28.28125 C 13.863281 26.757812 15.773438 26.078125 17.542969 26.609375 C 19.3125 27.136719 20.523438 28.753906 20.523438 30.582031 Z M 20.523438 30.582031 "/>
<path style=" stroke:none;fill-rule:nonzero;fill:rgb(18.431373%,28.235294%,34.901961%);fill-opacity:1;" d="M 17.679688 29.890625 C 17.679688 30.941406 16.816406 31.792969 15.757812 31.792969 C 14.695312 31.792969 13.835938 30.941406 13.835938 29.890625 C 13.835938 28.839844 14.695312 27.988281 15.757812 27.988281 C 16.816406 27.988281 17.679688 28.839844 17.679688 29.890625 Z M 17.679688 29.890625 "/>
<path style=" stroke:none;fill-rule:nonzero;fill:rgb(88.235294%,90.196078%,91.372549%);fill-opacity:1;" d="M 16.308594 28.472656 C 16.308594 29.007812 15.867188 29.445312 15.324219 29.445312 C 14.78125 29.445312 14.339844 29.007812 14.339844 28.472656 C 14.339844 27.933594 14.78125 27.496094 15.324219 27.496094 C 15.867188 27.496094 16.308594 27.933594 16.308594 28.472656 Z M 16.308594 28.472656 "/>
<path style=" stroke:none;fill-rule:nonzero;fill:rgb(96.470588%,65.490196%,29.411765%);fill-opacity:1;" d="M 20.523438 30.582031 C 20.523438 30.773438 20.507812 30.964844 20.480469 31.15625 C 20.269531 32.65625 19.242188 33.925781 17.808594 34.460938 C 16.375 34.992188 14.757812 34.710938 13.597656 33.71875 C 14.457031 33.644531 15.328125 33.578125 16.195312 33.507812 C 16.71875 33.46875 17.265625 33.417969 17.710938 33.144531 C 18.441406 32.699219 18.707031 31.800781 19.027344 31.015625 C 19.027344 30.480469 19.695312 29.617188 19.960938 29.164062 C 20.003906 29.089844 20.0625 28.964844 20.132812 28.832031 C 20.390625 29.378906 20.523438 29.976562 20.523438 30.582031 Z M 20.523438 30.582031 "/>
<path style=" stroke:none;fill-rule:nonzero;fill:rgb(39.215686%,47.45098%,54.117647%);fill-opacity:1;" d="M 34.914062 36.855469 C 37.738281 36.855469 40.035156 34.589844 40.035156 31.792969 C 40.035156 29 37.304688 25.519531 34.480469 25.519531 C 32.488281 25.523438 30.683594 26.664062 29.839844 28.445312 C 29.523438 29.113281 29.359375 29.84375 29.363281 30.582031 C 29.359375 30.816406 29.378906 31.054688 29.414062 31.285156 C 29.761719 33.769531 32.371094 36.855469 34.914062 36.855469 Z M 34.914062 36.855469 "/>
<path style=" stroke:none;fill-rule:nonzero;fill:rgb(22.745098%,33.333333%,41.568627%);fill-opacity:1;" d="M 34.640625 36.035156 C 35.800781 36.039062 36.925781 35.636719 37.816406 34.898438 C 38.023438 34.726562 38.214844 34.539062 38.386719 34.339844 C 39.109375 33.5 39.507812 32.4375 39.507812 31.339844 C 39.507812 28.75 36.914062 25.519531 34.226562 25.519531 C 32.351562 25.511719 30.636719 26.566406 29.8125 28.234375 C 29.515625 28.851562 29.359375 29.53125 29.359375 30.214844 C 29.359375 30.433594 29.378906 30.652344 29.410156 30.871094 C 29.742188 33.171875 32.222656 36.035156 34.640625 36.035156 Z M 34.640625 36.035156 "/>
<path style=" stroke:none;fill-rule:nonzero;fill:rgb(98.823529%,83.137255%,38.431373%);fill-opacity:1;" d="M 30.289062 30.582031 C 30.289062 30.773438 30.304688 30.964844 30.332031 31.15625 C 30.542969 32.65625 31.570312 33.925781 33.003906 34.457031 C 34.4375 34.992188 36.054688 34.710938 37.214844 33.71875 C 37.394531 33.566406 37.5625 33.398438 37.710938 33.21875 C 38.890625 31.808594 38.996094 29.804688 37.972656 28.28125 C 36.949219 26.757812 35.035156 26.078125 33.265625 26.609375 C 31.496094 27.136719 30.289062 28.753906 30.289062 30.582031 Z M 30.289062 30.582031 "/>
<path style=" stroke:none;fill-rule:nonzero;fill:rgb(18.431373%,28.235294%,34.901961%);fill-opacity:1;" d="M 36.976562 29.890625 C 36.976562 30.941406 36.117188 31.792969 35.054688 31.792969 C 33.992188 31.792969 33.132812 30.941406 33.132812 29.890625 C 33.132812 28.839844 33.992188 27.988281 35.054688 27.988281 C 36.117188 27.988281 36.976562 28.839844 36.976562 29.890625 Z M 36.976562 29.890625 "/>
<path style=" stroke:none;fill-rule:nonzero;fill:rgb(88.235294%,90.196078%,91.372549%);fill-opacity:1;" d="M 36.472656 28.472656 C 36.472656 29.007812 36.03125 29.445312 35.488281 29.445312 C 34.945312 29.445312 34.503906 29.007812 34.503906 28.472656 C 34.503906 27.933594 34.945312 27.496094 35.488281 27.496094 C 36.03125 27.496094 36.472656 27.933594 36.472656 28.472656 Z M 36.472656 28.472656 "/>
<path style=" stroke:none;fill-rule:nonzero;fill:rgb(96.470588%,65.490196%,29.411765%);fill-opacity:1;" d="M 30.289062 30.582031 C 30.289062 30.773438 30.304688 30.964844 30.332031 31.15625 C 30.542969 32.65625 31.570312 33.925781 33.003906 34.457031 C 34.4375 34.992188 36.054688 34.710938 37.214844 33.71875 C 36.351562 33.644531 35.484375 33.578125 34.617188 33.507812 C 34.09375 33.46875 33.546875 33.417969 33.101562 33.144531 C 32.371094 32.699219 32.101562 31.800781 31.78125 31.015625 C 31.78125 30.480469 31.113281 29.617188 30.851562 29.164062 C 30.808594 29.089844 30.75 28.964844 30.679688 28.832031 C 30.421875 29.378906 30.289062 29.976562 30.289062 30.582031 Z M 30.289062 30.582031 "/>
<path style=" stroke:none;fill-rule:nonzero;fill:rgb(22.745098%,33.333333%,41.568627%);fill-opacity:1;" d="M 32.566406 45.671875 C 32.53125 46.132812 31.90625 46.292969 31.679688 45.882812 C 30.414062 43.628906 28.011719 42.230469 25.40625 42.230469 C 22.800781 42.230469 20.398438 43.628906 19.132812 45.882812 C 18.90625 46.292969 18.28125 46.132812 18.246094 45.671875 C 18.15625 44.277344 18.488281 42.886719 19.199219 41.683594 C 19.472656 41.21875 19.796875 40.785156 20.167969 40.390625 C 20.972656 39.539062 21.976562 38.894531 23.085938 38.503906 C 23.441406 38.378906 23.804688 38.289062 24.171875 38.226562 C 24.347656 38.191406 24.527344 38.171875 24.707031 38.152344 C 24.941406 38.132812 25.179688 38.121094 25.40625 38.121094 C 25.632812 38.121094 25.871094 38.132812 26.105469 38.152344 C 26.175781 38.160156 26.25 38.167969 26.320312 38.179688 C 27.519531 38.328125 28.65625 38.777344 29.625 39.492188 C 30.011719 39.769531 30.367188 40.085938 30.6875 40.433594 C 32.011719 41.851562 32.691406 43.746094 32.566406 45.671875 Z M 32.566406 45.671875 "/>
<path style=" stroke:none;fill-rule:nonzero;fill:rgb(88.235294%,90.196078%,91.372549%);fill-opacity:1;" d="M 26.566406 39.472656 C 26.632812 39.832031 26.394531 40.175781 26.03125 40.242188 L 25.265625 40.382812 C 25.09375 40.417969 24.914062 40.378906 24.765625 40.28125 C 24.621094 40.183594 24.519531 40.03125 24.484375 39.863281 L 24.171875 38.226562 C 24.347656 38.191406 24.527344 38.171875 24.707031 38.152344 C 24.941406 38.132812 25.179688 38.121094 25.40625 38.121094 C 25.632812 38.121094 25.871094 38.132812 26.105469 38.152344 C 26.179688 38.160156 26.25 38.167969 26.320312 38.179688 Z M 26.566406 39.472656 "/>
<path style=" stroke:none;fill-rule:nonzero;fill:rgb(88.235294%,90.196078%,91.372549%);fill-opacity:1;" d="M 22.984375 40.25 L 22.246094 40.5 C 21.898438 40.617188 21.519531 40.4375 21.398438 40.09375 L 21.191406 39.492188 C 21.769531 39.066406 22.40625 38.734375 23.085938 38.503906 L 23.398438 39.414062 C 23.519531 39.757812 23.332031 40.132812 22.984375 40.25 Z M 22.984375 40.25 "/>
<path style=" stroke:none;fill-rule:nonzero;fill:rgb(88.235294%,90.196078%,91.372549%);fill-opacity:1;" d="M 20.511719 41.980469 L 20.339844 42.105469 C 20.195312 42.207031 20.015625 42.25 19.84375 42.222656 C 19.667969 42.195312 19.511719 42.101562 19.40625 41.960938 L 19.199219 41.683594 C 19.472656 41.21875 19.796875 40.785156 20.167969 40.390625 L 20.660156 41.0625 C 20.871094 41.355469 20.804688 41.765625 20.511719 41.980469 Z M 20.511719 41.980469 "/>
<path style=" stroke:none;fill-rule:nonzero;fill:rgb(88.235294%,90.196078%,91.372549%);fill-opacity:1;" d="M 31.640625 41.734375 L 31.40625 42.050781 C 31.304688 42.191406 31.148438 42.289062 30.972656 42.316406 C 30.800781 42.34375 30.621094 42.304688 30.480469 42.203125 L 30.304688 42.078125 C 30.160156 41.976562 30.066406 41.820312 30.039062 41.644531 C 30.007812 41.472656 30.054688 41.296875 30.160156 41.152344 L 30.6875 40.433594 C 31.050781 40.832031 31.371094 41.265625 31.640625 41.734375 Z M 31.640625 41.734375 "/>
<path style=" stroke:none;fill-rule:nonzero;fill:rgb(88.235294%,90.196078%,91.372549%);fill-opacity:1;" d="M 29.625 39.492188 L 29.417969 40.09375 C 29.300781 40.4375 28.921875 40.617188 28.574219 40.5 L 27.832031 40.25 C 27.664062 40.195312 27.527344 40.074219 27.449219 39.917969 C 27.371094 39.757812 27.359375 39.578125 27.417969 39.414062 L 27.734375 38.503906 C 28.410156 38.738281 29.050781 39.070312 29.625 39.492188 Z M 29.625 39.492188 "/>
<path style=" stroke:none;fill-rule:nonzero;fill:rgb(24.313725%,65.098039%,60.784314%);fill-opacity:1;" d="M 43.15625 46.027344 C 41.75 47.398438 39.714844 48.28125 36.835938 48.398438 C 36.835938 48.398438 34.957031 48.398438 33.042969 48.585938 C 31.429688 48.738281 29.96875 49.515625 28.824219 50.640625 C 28.25 51.210938 27.234375 52 25.410156 52 C 23.574219 52 22.570312 51.210938 21.988281 50.640625 C 20.84375 49.515625 19.382812 48.738281 17.769531 48.585938 C 15.855469 48.398438 13.976562 48.398438 13.976562 48.398438 C 0.730469 47.847656 5.421875 31.160156 6.140625 25.054688 C 6.261719 24.003906 6.277344 22.011719 6.25 20.125 C 6.363281 20.195312 6.472656 20.269531 6.574219 20.355469 C 7.101562 20.800781 7.5625 21.445312 7.957031 22 C 8.761719 23.132812 9.355469 24.453125 9.214844 25.863281 C 9.089844 27.144531 8.382812 28.285156 8.007812 29.511719 C 7.261719 31.972656 7.875 34.601562 8.488281 37.097656 C 8.929688 38.890625 9.5625 40.921875 11.269531 41.667969 C 11.65625 41.839844 12.101562 41.945312 12.371094 42.273438 C 12.617188 42.570312 12.644531 42.984375 12.730469 43.363281 C 13.210938 45.328125 15.4375 46.242188 17.375 46.863281 C 18.796875 47.324219 20.351562 47.78125 21.75 47.257812 C 22.335938 47.042969 22.871094 46.660156 23.484375 46.546875 C 25.222656 46.21875 26.695312 48.070312 28.464844 48.070312 C 29.296875 48.078125 30.0625 47.667969 30.882812 47.523438 C 31.910156 47.351562 32.988281 47.609375 34.011719 47.351562 C 34.816406 47.152344 35.511719 46.640625 36.261719 46.289062 C 38.375 45.300781 40.835938 45.597656 43.15625 46.027344 Z M 43.15625 46.027344 "/>
<path style=" stroke:none;fill-rule:nonzero;fill:rgb(22.745098%,33.333333%,41.568627%);fill-opacity:1;" d="M 44.84375 29.664062 L 44.996094 29.664062 C 45.152344 28.675781 45.082031 27.644531 45.273438 26.65625 C 45.316406 26.460938 45.367188 26.269531 45.429688 26.078125 C 45.925781 24.535156 46.066406 22.90625 46.042969 21.289062 C 46.03125 20.582031 46.121094 19.875 46.308594 19.191406 L 45.097656 19.207031 C 44.691406 18.554688 45.054688 18.152344 44.949219 17.398438 C 46.863281 17.601562 48.136719 17.542969 50.03125 17.882812 C 47.671875 14.882812 44.265625 12.867188 40.480469 12.226562 C 42.605469 11.15625 44.457031 9.628906 45.902344 7.753906 C 42.3125 7.351562 38.59375 6.964844 35.15625 8.050781 C 34.820312 8.160156 34.472656 8.28125 34.121094 8.253906 C 33.816406 8.230469 33.53125 8.09375 33.257812 7.957031 C 31.191406 6.929688 29.230469 5.710938 27.398438 4.3125 L 27.476562 8.273438 C 26.535156 8.445312 25.574219 8.078125 24.996094 7.324219 C 24.445312 6.554688 24.425781 5.53125 24.941406 4.742188 C 21.234375 5.6875 17.726562 7.269531 14.574219 9.414062 C 16.082031 6.496094 16.898438 3.277344 16.964844 0 C 12.660156 3.660156 8.996094 7.996094 6.113281 12.832031 C 6.015625 13 5.90625 13.179688 5.726562 13.261719 C 5.523438 13.359375 5.285156 13.308594 5.066406 13.261719 L 0 12.105469 C 0.765625 14.378906 2.085938 16.433594 3.84375 18.082031 L 0.851562 20.738281 C 2.144531 21.125 3.5625 21.613281 4.203125 22.773438 C 4.476562 23.265625 4.574219 23.828125 4.667969 24.378906 C 4.921875 25.855469 5.269531 27.292969 5.15625 28.777344 C 5.039062 30.351562 5.125 31.941406 5.125 33.519531 C 7.191406 30.964844 7.792969 27.566406 7.917969 24.316406 C 8.046875 21.066406 7.773438 19.097656 8.390625 15.902344 C 10.859375 16.207031 13.363281 16.144531 15.816406 15.71875 C 14.875 16.976562 13.890625 16.886719 12.859375 18.074219 C 15.214844 17.308594 16.730469 17.03125 18.898438 15.84375 C 17.46875 17.554688 16.8125 18.554688 15.382812 20.261719 C 18.488281 19.261719 21.410156 17.773438 24.039062 15.851562 C 24.332031 15.636719 24.691406 15.890625 25.0625 15.765625 C 25.359375 15.644531 25.695312 15.671875 25.96875 15.832031 C 28.402344 17.386719 31.054688 18.566406 33.847656 19.335938 C 33.308594 17.699219 33.597656 17.003906 32.28125 15.867188 C 35.507812 16.984375 37.535156 17.082031 40.894531 17.730469 C 41.703125 22.484375 44.613281 25.039062 44.84375 29.664062 Z M 44.84375 29.664062 "/>
<path style=" stroke:none;fill-rule:nonzero;fill:rgb(39.215686%,47.45098%,54.117647%);fill-opacity:1;" d="M 17.84375 23.738281 C 17.707031 23.921875 17.449219 23.960938 17.222656 23.996094 C 15.34375 24.269531 12.890625 24.574219 11.328125 25.640625 C 12.03125 24.707031 13.386719 24.167969 14.335938 23.484375 C 15.085938 22.945312 15.949219 22.585938 16.863281 22.4375 C 17.191406 22.382812 17.660156 22.230469 17.839844 22.566406 C 17.972656 22.8125 18.015625 23.515625 17.84375 23.738281 Z M 17.84375 23.738281 "/>
<path style=" stroke:none;fill-rule:nonzero;fill:rgb(22.745098%,33.333333%,41.568627%);fill-opacity:1;" d="M 17.632812 21.601562 C 16.871094 21.484375 16.074219 21.6875 15.371094 21.972656 C 13.976562 22.535156 12.746094 23.429688 11.78125 24.578125 C 11.351562 25.089844 10.964844 25.660156 10.496094 26.132812 C 10.496094 26.132812 12.597656 24.855469 13.730469 24.324219 C 15.085938 23.6875 16.558594 23.25 18.054688 23.238281 C 18.230469 23.238281 18.382812 23.109375 18.40625 22.933594 C 18.507812 22.199219 18.609375 21.753906 17.632812 21.601562 Z M 17.632812 21.601562 "/>
<path style=" stroke:none;fill-rule:nonzero;fill:rgb(39.215686%,47.45098%,54.117647%);fill-opacity:1;" d="M 32.96875 23.738281 C 33.105469 23.921875 33.359375 23.960938 33.589844 23.996094 C 35.46875 24.269531 37.921875 24.574219 39.484375 25.640625 C 38.78125 24.707031 37.421875 24.167969 36.476562 23.484375 C 35.726562 22.945312 34.859375 22.585938 33.949219 22.4375 C 33.621094 22.382812 33.152344 22.230469 32.972656 22.566406 C 32.839844 22.8125 32.796875 23.515625 32.96875 23.738281 Z M 32.96875 23.738281 "/>
<path style=" stroke:none;fill-rule:nonzero;fill:rgb(22.745098%,33.333333%,41.568627%);fill-opacity:1;" d="M 33.179688 21.601562 C 33.941406 21.484375 34.738281 21.6875 35.441406 21.972656 C 36.835938 22.535156 38.066406 23.429688 39.03125 24.578125 C 39.460938 25.089844 39.847656 25.660156 40.316406 26.132812 C 40.316406 26.132812 38.214844 24.855469 37.078125 24.324219 C 35.726562 23.6875 34.253906 23.25 32.757812 23.238281 C 32.582031 23.238281 32.429688 23.109375 32.40625 22.933594 C 32.304688 22.199219 32.203125 21.753906 33.179688 21.601562 Z M 33.179688 21.601562 "/>
<path style=" stroke:none;fill-rule:nonzero;fill:rgb(22.745098%,33.333333%,41.568627%);fill-opacity:1;" d="M 26.460938 32.449219 C 26.21875 32.113281 25.824219 31.914062 25.40625 31.914062 C 24.988281 31.914062 24.59375 32.113281 24.351562 32.449219 C 23.457031 33.679688 22.386719 35.417969 22.847656 36.15625 C 23.113281 36.582031 24.550781 36.335938 25.144531 36.214844 C 25.316406 36.179688 25.496094 36.179688 25.664062 36.214844 C 26.261719 36.335938 27.699219 36.582031 27.960938 36.15625 C 28.425781 35.417969 27.355469 33.679688 26.460938 32.449219 Z M 26.460938 32.449219 "/>
</g>
</svg>
