<?xml version="1.0" encoding="UTF-8"?>
<svg xmlns="http://www.w3.org/2000/svg" xmlns:xlink="http://www.w3.org/1999/xlink" width="50" height="56" viewBox="0 0 50 56" version="1.1">
<g id="surface1">
<path style=" stroke:none;fill-rule:nonzero;fill:rgb(88.235294%,90.196078%,91.372549%);fill-opacity:1;" d="M 42.765625 28.578125 C 42.765625 38.96875 32.824219 56.035156 23.738281 56.035156 C 14.652344 56.035156 4.710938 38.96875 4.710938 28.578125 C 4.738281 18.210938 13.25 9.820312 23.738281 9.820312 C 34.230469 9.820312 42.742188 18.210938 42.765625 28.578125 Z M 42.765625 28.578125 "/>
<path style=" stroke:none;fill-rule:nonzero;fill:rgb(88.235294%,90.196078%,91.372549%);fill-opacity:1;" d="M 46.238281 32.742188 C 47.035156 35.300781 45.917969 38.019531 43.644531 39.484375 C 40.648438 41.417969 41.25 44.695312 39.261719 44.035156 C 36.871094 43.238281 35.992188 39.484375 37.296875 35.644531 C 38.601562 31.804688 41.597656 29.339844 43.988281 30.132812 C 45.066406 30.488281 45.835938 31.445312 46.238281 32.742188 Z M 46.238281 32.742188 "/>
<path style=" stroke:none;fill-rule:nonzero;fill:rgb(83.529412%,83.921569%,85.882353%);fill-opacity:1;" d="M 43.699219 32.65625 C 44.019531 32.851562 44.285156 33.125 44.476562 33.449219 C 44.621094 33.671875 44.753906 33.921875 44.746094 34.1875 C 44.726562 34.40625 44.652344 34.617188 44.539062 34.804688 C 44.0625 35.734375 43.589844 36.660156 43.113281 37.585938 C 43.050781 37.703125 42.960938 37.839844 42.824219 37.828125 C 42.574219 37.40625 42.597656 36.875 42.714844 36.398438 C 42.835938 35.921875 43.039062 35.46875 43.140625 34.988281 C 43.207031 34.65625 43.214844 34.285156 43.007812 34.015625 C 42.867188 33.859375 42.691406 33.730469 42.496094 33.648438 C 41.890625 33.335938 41.519531 33.082031 42.308594 32.671875 C 42.742188 32.441406 43.257812 32.4375 43.699219 32.65625 Z M 43.699219 32.65625 "/>
<path style=" stroke:none;fill-rule:nonzero;fill:rgb(83.529412%,83.921569%,85.882353%);fill-opacity:1;" d="M 41.558594 39.542969 C 41.261719 39.929688 41.019531 40.351562 40.835938 40.800781 C 40.660156 41.246094 40.445312 41.675781 40.191406 42.082031 C 40.007812 42.347656 39.734375 42.609375 39.410156 42.578125 C 39.226562 42.453125 39.195312 42.191406 39.265625 41.984375 C 39.351562 41.78125 39.464844 41.59375 39.601562 41.421875 C 39.898438 40.980469 40.0625 40.472656 40.316406 40.007812 C 40.6875 39.339844 41.242188 38.945312 42.027344 38.960938 C 41.957031 39.195312 41.714844 39.347656 41.558594 39.542969 Z M 41.558594 39.542969 "/>
<path style=" stroke:none;fill-rule:nonzero;fill:rgb(88.235294%,90.196078%,91.372549%);fill-opacity:1;" d="M 1.238281 32.742188 C 0.441406 35.300781 1.558594 38.019531 3.832031 39.484375 C 6.832031 41.417969 6.226562 44.695312 8.214844 44.035156 C 10.605469 43.238281 11.488281 39.484375 10.179688 35.644531 C 8.875 31.804688 5.878906 29.339844 3.488281 30.132812 C 2.410156 30.488281 1.640625 31.445312 1.238281 32.742188 Z M 1.238281 32.742188 "/>
<path style=" stroke:none;fill-rule:nonzero;fill:rgb(83.529412%,83.921569%,85.882353%);fill-opacity:1;" d="M 3.78125 32.65625 C 3.457031 32.851562 3.191406 33.125 3 33.449219 C 2.855469 33.671875 2.722656 33.921875 2.730469 34.1875 C 2.753906 34.40625 2.824219 34.617188 2.9375 34.804688 C 3.414062 35.734375 3.890625 36.660156 4.363281 37.585938 C 4.425781 37.703125 4.519531 37.839844 4.652344 37.828125 C 4.902344 37.40625 4.878906 36.875 4.761719 36.398438 C 4.644531 35.921875 4.4375 35.46875 4.339844 34.988281 C 4.269531 34.65625 4.261719 34.285156 4.46875 34.015625 C 4.609375 33.859375 4.785156 33.730469 4.984375 33.648438 C 5.585938 33.335938 5.957031 33.082031 5.167969 32.671875 C 4.734375 32.441406 4.21875 32.4375 3.78125 32.65625 Z M 3.78125 32.65625 "/>
<path style=" stroke:none;fill-rule:nonzero;fill:rgb(83.529412%,83.921569%,85.882353%);fill-opacity:1;" d="M 5.921875 39.542969 C 6.214844 39.929688 6.457031 40.351562 6.640625 40.800781 C 6.816406 41.246094 7.035156 41.675781 7.289062 42.082031 C 7.46875 42.351562 7.746094 42.613281 8.066406 42.578125 C 8.25 42.453125 8.28125 42.191406 8.214844 41.984375 C 8.125 41.78125 8.011719 41.59375 7.875 41.421875 C 7.578125 40.984375 7.414062 40.472656 7.160156 40.011719 C 6.789062 39.339844 6.234375 38.945312 5.449219 38.960938 C 5.523438 39.195312 5.761719 39.347656 5.921875 39.542969 Z M 5.921875 39.542969 "/>
<path style=" stroke:none;fill-rule:nonzero;fill:rgb(18.431373%,28.235294%,34.901961%);fill-opacity:1;" d="M 4.21875 19.664062 C 2.855469 20.144531 1.441406 20.46875 0 20.621094 C 0.652344 18.730469 2.292969 17.320312 3.90625 16.054688 C 7.28125 13.398438 10.824219 11.832031 14.511719 9.578125 C 12.605469 8.5 11.003906 6.972656 9.847656 5.128906 C 11.050781 5.175781 12.214844 5.535156 13.363281 5.894531 L 21.328125 8.386719 C 21.550781 8.457031 21.800781 8.527344 22.023438 8.449219 C 22.226562 8.378906 22.363281 8.199219 22.488281 8.03125 C 24.449219 5.351562 26.414062 2.675781 28.375 0 L 29.164062 7.042969 L 39.144531 7.09375 C 38.628906 8.125 38.109375 9.152344 37.59375 10.179688 C 37.523438 10.289062 37.492188 10.414062 37.496094 10.542969 C 37.519531 10.707031 37.667969 10.824219 37.800781 10.925781 C 41.878906 13.980469 45.957031 16.136719 50.035156 19.191406 C 48.570312 20.25 46.855469 20.917969 45.050781 21.128906 C 44.613281 21.179688 44.132812 21.21875 43.804688 21.5 C 43.429688 21.820312 43.367188 22.347656 43.328125 22.824219 L 42.636719 31.171875 C 42.574219 31.898438 41.675781 32.15625 41.28125 31.5625 C 40.25 30.007812 39.375 28.363281 38.660156 26.644531 C 38.390625 25.992188 38.121094 25.300781 37.539062 24.875 C 37.226562 24.667969 36.878906 24.507812 36.511719 24.410156 C 32.828125 23.242188 28.683594 23.167969 25.445312 21.121094 C 26.027344 23.1875 26.792969 25.203125 27.738281 27.136719 C 24.914062 26.210938 22.417969 24.5 20.550781 22.210938 C 20.605469 23.546875 20.351562 24.875 19.800781 26.097656 C 17.269531 25.105469 15.207031 23.21875 14.007812 20.804688 C 12.964844 22 12.347656 23.503906 12.25 25.082031 C 11.183594 24.878906 10.148438 24.535156 9.175781 24.058594 C 9.558594 24.246094 6.648438 27.742188 5.382812 29.230469 C 5.28125 29.351562 5.113281 29.402344 4.957031 29.355469 C 4.804688 29.308594 4.691406 29.175781 4.675781 29.015625 C 4.496094 27.886719 4.210938 25.984375 4.183594 25.277344 C 4.117188 23.40625 4.128906 21.535156 4.21875 19.664062 Z M 4.21875 19.664062 "/>
<path style=" stroke:none;fill-rule:nonzero;fill:rgb(22.745098%,33.333333%,41.568627%);fill-opacity:1;" d="M 41.320312 28.714844 C 40.855469 27.855469 40.433594 26.976562 40.058594 26.078125 L 40.03125 26.007812 C 39.722656 25.261719 39.339844 24.332031 38.4375 23.671875 C 37.992188 23.367188 37.5 23.132812 36.976562 22.988281 C 35.585938 22.546875 34.160156 22.257812 32.777344 21.976562 C 30.378906 21.492188 28.113281 21.03125 26.261719 19.863281 L 22.9375 17.761719 L 23.988281 21.519531 C 24.230469 22.371094 24.5 23.21875 24.800781 24.058594 C 23.644531 23.292969 22.609375 22.355469 21.734375 21.28125 L 18.847656 17.707031 L 19.042969 22.273438 C 19.066406 22.847656 19.019531 23.425781 18.90625 23.988281 C 17.378906 23.070312 16.152344 21.742188 15.371094 20.15625 L 14.371094 18.09375 L 12.863281 19.828125 C 12.007812 20.808594 11.382812 21.96875 11.035156 23.214844 C 10.628906 23.074219 10.234375 22.910156 9.847656 22.722656 L 8.503906 25.398438 C 7.691406 25 7.59375 24.109375 7.769531 23.722656 C 7.667969 23.945312 7.136719 24.730469 5.816406 26.359375 C 5.746094 25.824219 5.703125 25.433594 5.695312 25.222656 C 5.628906 23.40625 5.640625 21.558594 5.730469 19.738281 L 5.839844 17.507812 C 5.839844 17.507812 3.582031 18.304688 3.515625 18.324219 C 3.941406 17.945312 4.394531 17.578125 4.84375 17.222656 C 6.980469 15.546875 9.195312 14.3125 11.542969 13.007812 C 12.765625 12.332031 14.027344 11.628906 15.304688 10.847656 L 17.464844 9.527344 L 15.261719 8.28125 C 15.011719 8.136719 14.765625 7.984375 14.523438 7.824219 L 20.871094 9.8125 C 21.171875 9.914062 21.488281 9.972656 21.808594 9.980469 C 22.054688 9.980469 22.292969 9.9375 22.523438 9.859375 C 23.179688 9.632812 23.539062 9.140625 23.710938 8.90625 L 27.304688 4.007812 L 27.808594 8.53125 L 36.710938 8.578125 L 36.242188 9.515625 C 36.03125 9.894531 35.945312 10.328125 36 10.757812 C 36.117188 11.539062 36.675781 11.957031 36.890625 12.117188 C 38.972656 13.675781 41.070312 15.019531 43.097656 16.3125 C 44.460938 17.1875 45.859375 18.078125 47.246094 19.039062 C 46.488281 19.34375 45.691406 19.550781 44.875 19.644531 L 44.792969 19.652344 C 44.269531 19.714844 43.476562 19.804688 42.8125 20.371094 C 41.953125 21.105469 41.863281 22.183594 41.820312 22.699219 Z M 41.320312 28.714844 "/>
<path style=" stroke:none;fill-rule:nonzero;fill:rgb(83.529412%,83.921569%,85.882353%);fill-opacity:1;" d="M 20.875 34.492188 C 20.875 37.191406 18.980469 39.371094 16.640625 39.371094 C 14.304688 39.371094 12.398438 37.191406 12.398438 34.492188 C 12.398438 33.878906 12.5 33.265625 12.707031 32.6875 C 13.328125 30.890625 14.855469 29.625 16.640625 29.625 C 18.429688 29.625 19.953125 30.890625 20.566406 32.6875 C 20.773438 33.265625 20.875 33.878906 20.875 34.492188 Z M 20.875 34.492188 "/>
<path style=" stroke:none;fill-rule:nonzero;fill:rgb(89.803922%,38.823529%,32.54902%);fill-opacity:1;" d="M 20.679688 33.617188 C 20.6875 35.050781 19.917969 36.375 18.664062 37.09375 C 17.410156 37.8125 15.863281 37.8125 14.609375 37.09375 C 13.355469 36.375 12.585938 35.050781 12.59375 33.617188 C 12.59375 33.109375 12.691406 32.605469 12.886719 32.136719 C 13.5 30.621094 14.984375 29.625 16.636719 29.625 C 18.289062 29.625 19.773438 30.621094 20.386719 32.136719 C 20.582031 32.605469 20.679688 33.109375 20.679688 33.617188 Z M 20.679688 33.617188 "/>
<path style=" stroke:none;fill-rule:nonzero;fill:rgb(22.745098%,33.333333%,41.568627%);fill-opacity:1;" d="M 20.679688 33.621094 C 20.679688 34.941406 19.59375 36.011719 18.261719 36.011719 C 16.925781 36.011719 15.839844 34.941406 15.839844 33.621094 C 15.839844 32.300781 16.925781 31.230469 18.261719 31.230469 C 19.59375 31.230469 20.679688 32.300781 20.679688 33.621094 Z M 20.679688 33.621094 "/>
<path style=" stroke:none;fill-rule:nonzero;fill:rgb(92.156863%,94.117647%,95.294118%);fill-opacity:1;" d="M 20.679688 33.621094 C 20.679688 34.21875 20.1875 34.707031 19.582031 34.707031 C 18.976562 34.707031 18.488281 34.21875 18.488281 33.621094 C 18.488281 33.023438 18.976562 32.535156 19.582031 32.535156 C 20.1875 32.535156 20.679688 33.023438 20.679688 33.621094 Z M 20.679688 33.621094 "/>
<path style=" stroke:none;fill-rule:nonzero;fill:rgb(83.529412%,83.921569%,85.882353%);fill-opacity:1;" d="M 26.601562 34.492188 C 26.601562 37.191406 28.496094 39.371094 30.835938 39.371094 C 33.171875 39.371094 35.078125 37.191406 35.078125 34.492188 C 35.078125 33.878906 34.976562 33.265625 34.769531 32.6875 C 34.148438 30.890625 32.621094 29.625 30.835938 29.625 C 29.050781 29.625 27.523438 30.890625 26.910156 32.6875 C 26.703125 33.265625 26.601562 33.878906 26.601562 34.492188 Z M 26.601562 34.492188 "/>
<path style=" stroke:none;fill-rule:nonzero;fill:rgb(89.803922%,38.823529%,32.54902%);fill-opacity:1;" d="M 26.796875 33.617188 C 26.789062 35.050781 27.558594 36.375 28.8125 37.09375 C 30.066406 37.8125 31.613281 37.8125 32.867188 37.09375 C 34.121094 36.375 34.890625 35.050781 34.882812 33.617188 C 34.882812 33.109375 34.785156 32.605469 34.589844 32.136719 C 33.976562 30.621094 32.492188 29.625 30.839844 29.625 C 29.1875 29.625 27.703125 30.621094 27.089844 32.136719 C 26.894531 32.605469 26.796875 33.109375 26.796875 33.617188 Z M 26.796875 33.617188 "/>
<path style=" stroke:none;fill-rule:nonzero;fill:rgb(22.745098%,33.333333%,41.568627%);fill-opacity:1;" d="M 31.632812 33.621094 C 31.632812 34.941406 30.550781 36.011719 29.214844 36.011719 C 27.878906 36.011719 26.796875 34.941406 26.796875 33.621094 C 26.796875 32.300781 27.878906 31.230469 29.214844 31.230469 C 30.550781 31.230469 31.632812 32.300781 31.632812 33.621094 Z M 31.632812 33.621094 "/>
<path style=" stroke:none;fill-rule:nonzero;fill:rgb(92.156863%,94.117647%,95.294118%);fill-opacity:1;" d="M 28.992188 33.621094 C 28.992188 34.21875 28.5 34.707031 27.894531 34.707031 C 27.289062 34.707031 26.796875 34.21875 26.796875 33.621094 C 26.796875 33.023438 27.289062 32.535156 27.894531 32.535156 C 28.5 32.535156 28.992188 33.023438 28.992188 33.621094 Z M 28.992188 33.621094 "/>
<path style=" stroke:none;fill-rule:nonzero;fill:rgb(39.215686%,47.45098%,54.117647%);fill-opacity:1;" d="M 23.222656 42.167969 C 23.222656 40.976562 22.675781 40.011719 22 40.011719 C 21.328125 40.011719 20.78125 40.976562 20.78125 42.167969 C 20.78125 43.359375 21.328125 44.328125 22 44.328125 C 22.675781 44.328125 23.222656 43.359375 23.222656 42.167969 Z M 23.222656 42.167969 "/>
<path style=" stroke:none;fill-rule:nonzero;fill:rgb(39.215686%,47.45098%,54.117647%);fill-opacity:1;" d="M 26.695312 42.167969 C 26.695312 40.976562 26.148438 40.011719 25.476562 40.011719 C 24.804688 40.011719 24.257812 40.976562 24.257812 42.167969 C 24.257812 43.359375 24.804688 44.328125 25.476562 44.328125 C 26.148438 44.328125 26.695312 43.359375 26.695312 42.167969 Z M 26.695312 42.167969 "/>
<path style=" stroke:none;fill-rule:nonzero;fill:rgb(39.215686%,47.45098%,54.117647%);fill-opacity:1;" d="M 29.40625 48.101562 C 29.40625 49.601562 28.8125 50.589844 27.839844 51.210938 C 26.808594 51.875 25.355469 52.117188 23.742188 52.117188 C 22.128906 52.117188 20.667969 51.875 19.636719 51.210938 C 18.664062 50.589844 18.070312 49.601562 18.070312 48.101562 Z M 29.40625 48.101562 "/>
<path style=" stroke:none;fill-rule:nonzero;fill:rgb(89.803922%,38.823529%,32.54902%);fill-opacity:1;" d="M 27.839844 51.210938 C 26.808594 51.875 25.355469 52.117188 23.742188 52.117188 C 22.128906 52.117188 20.667969 51.875 19.636719 51.210938 C 19.929688 50.429688 20.585938 49.832031 21.398438 49.609375 C 22.210938 49.386719 23.085938 49.566406 23.742188 50.09375 C 24.203125 49.71875 24.78125 49.515625 25.375 49.515625 C 26.476562 49.515625 27.460938 50.191406 27.839844 51.210938 Z M 27.839844 51.210938 "/>
</g>
</svg>
