<?xml version="1.0" encoding="iso-8859-1"?>
<!-- Generator: Adobe Illustrator 19.0.0, SVG Export Plug-In . SVG Version: 6.00 Build 0)  -->
<svg version="1.1" id="Capa_1" xmlns="http://www.w3.org/2000/svg" xmlns:xlink="http://www.w3.org/1999/xlink" x="0px" y="0px"
	 viewBox="0 0 468.293 468.293" style="enable-background:new 0 0 468.293 468.293;" xml:space="preserve">
<g>
	<path style="fill:#E1E6E9;" d="M380.759,238.846c0,86.806-82.135,229.447-157.177,229.447S66.406,325.652,66.406,238.846
		S136.776,81.67,223.582,81.67S380.759,152.04,380.759,238.846z"/>
	<path style="fill:#E1E6E9;" d="M409.433,273.627c6.57,21.374-2.647,44.114-21.415,56.349
		c-24.772,16.149-19.779,43.543-36.211,38.02c-19.752-6.64-27.023-38.029-16.239-70.11c10.784-32.081,35.538-52.705,55.29-46.066
		C399.747,254.808,406.108,262.808,409.433,273.627z"/>
</g>
<g>
	<path style="fill:#D5D6DB;" d="M388.442,272.901c2.723,1.517,4.745,4.033,6.435,6.653c1.202,1.863,2.305,3.936,2.241,6.152
		c-0.053,1.834-0.901,3.539-1.731,5.176c-3.926,7.745-7.852,15.489-11.777,23.234c-0.501,0.989-1.265,2.132-2.369,2.03
		c-2.069-3.54-1.888-7.978-0.91-11.96s2.679-7.769,3.501-11.787c0.564-2.757,0.628-5.872-1.075-8.113
		c-1.068-1.406-2.685-2.268-4.249-3.087c-4.976-2.605-8.042-4.738-1.533-8.163C380.595,271.131,384.799,271.079,388.442,272.901z"/>
	<path style="fill:#D5D6DB;" d="M370.762,330.474c-2.533,3.143-4.323,6.813-5.951,10.507c-1.612,3.658-3.103,7.404-5.342,10.715
		c-1.504,2.223-3.773,4.41-6.442,4.132c-1.505-1.041-1.775-3.234-1.206-4.973c0.569-1.739,1.78-3.178,2.794-4.701
		c2.438-3.662,3.795-7.929,5.909-11.788c3.063-5.589,7.637-8.907,14.117-8.768C374.049,327.549,372.075,328.845,370.762,330.474z"/>
</g>
<path style="fill:#E1E6E9;" d="M37.731,273.627c-6.57,21.374,2.647,44.114,21.415,56.349c24.772,16.149,19.779,43.543,36.211,38.02
	c19.752-6.64,27.023-38.029,16.239-70.11c-10.784-32.081-35.538-52.705-55.29-46.066C47.418,254.808,41.057,262.808,37.731,273.627z
	"/>
<g>
	<path style="fill:#D5D6DB;" d="M58.722,272.901c-2.723,1.517-4.745,4.033-6.435,6.653c-1.202,1.863-2.305,3.936-2.241,6.152
		c0.053,1.834,0.901,3.539,1.731,5.176c3.926,7.745,7.852,15.489,11.777,23.234c0.501,0.989,1.265,2.132,2.369,2.03
		c2.069-3.54,1.888-7.978,0.91-11.96s-2.679-7.769-3.501-11.787c-0.564-2.757-0.628-5.872,1.075-8.113
		c1.068-1.406,2.685-2.268,4.249-3.087c4.976-2.605,8.042-4.738,1.533-8.163C66.569,271.131,62.366,271.079,58.722,272.901z"/>
	<path style="fill:#D5D6DB;" d="M76.402,330.474c2.533,3.143,4.323,6.813,5.951,10.507c1.612,3.658,3.103,7.404,5.342,10.715
		c1.504,2.223,3.773,4.41,6.442,4.132c1.505-1.041,1.775-3.234,1.206-4.973c-0.569-1.739-1.78-3.178-2.794-4.701
		c-2.438-3.662-3.795-7.929-5.909-11.788c-3.063-5.589-7.637-8.907-14.117-8.768C73.115,327.549,75.09,328.845,76.402,330.474z"/>
</g>
<path style="fill:#2F4859;" d="M62.356,164.345c-11.229,4.009-22.961,6.701-34.856,7.999c5.383-15.828,18.946-27.584,32.252-38.173
	c27.898-22.202,57.168-35.3,87.602-54.134c-15.766-9.04-29.136-21.95-38.505-37.181c9.948,0.394,19.559,3.415,29.022,6.41
	c21.931,6.941,43.863,13.882,65.794,20.823c1.862,0.589,3.895,1.178,5.736,0.529c1.685-0.594,2.818-2.093,3.847-3.513
	C229.46,44.736,245.673,22.368,261.886,0l6.503,58.874l82.443,0.419c-4.269,8.593-8.537,17.187-12.806,25.78
	c-0.475,0.956-0.962,1.983-0.808,3.033c0.2,1.366,1.408,2.354,2.531,3.205c33.681,25.527,67.362,43.562,101.044,69.09
	c-11.924,8.769-26.284,14.411-41.155,16.169c-3.637,0.43-7.589,0.747-10.317,3.113c-3.078,2.669-3.606,7.065-3.932,11.05
	l-5.722,69.782c-0.496,6.049-7.915,8.234-11.184,3.246c-8.523-13.003-15.781-26.781-21.638-41.096
	c-2.22-5.427-4.465-11.233-9.261-14.777c-2.498-1.846-5.504-2.922-8.488-3.88c-30.441-9.773-64.653-10.393-91.406-27.499
	c4.785,17.244,11.127,34.085,18.931,50.267c-23.356-7.753-44.267-22.251-59.353-41.151c0.463,11.089-1.676,22.273-6.21,32.469
	c-20.904-8.288-38.355-24.421-47.854-44.238c-8.616,10.009-13.793,22.74-14.534,35.742c-8.813-1.687-17.381-4.566-25.376-8.528
	c3.159,1.565-20.869,30.761-31.32,43.21c-1.893,2.255-5.397,1.186-5.86-1.79c-1.47-9.446-3.834-25.343-4.046-31.243
	C61.504,195.616,61.599,179.966,62.356,164.345z"/>
<path style="fill:#3A556A;" d="M368.819,239.96c-3.866-7.168-7.348-14.53-10.421-22.027l-0.232-0.573
	c-2.549-6.244-5.72-14.015-13.165-19.515c-4.049-3-8.36-4.53-12.085-5.729c-11.463-3.677-23.262-6.101-34.677-8.442
	c-19.811-4.064-38.524-7.906-53.823-17.686l-27.47-17.564l8.707,31.421c1.976,7.125,4.22,14.21,6.713,21.216
	c-9.622-6.466-18.238-14.326-25.341-23.226l-23.835-29.857l1.598,38.168c0.201,4.787-0.189,9.607-1.14,14.323
	c-12.61-7.735-22.921-18.942-29.183-32.012l-8.262-17.229L133.74,165.71c-7.085,8.229-12.232,17.96-15.085,28.299
	c-3.354-1.174-6.634-2.552-9.817-4.128l-11.085,22.381c-6.726-3.332-7.518-10.774-6.073-14.006
	c-0.835,1.866-5.226,8.421-16.152,22.046c-0.573-4.469-0.915-7.753-0.976-9.506c-0.555-15.195-0.457-30.619,0.28-45.848
	l0.902-18.637c0,0-18.652,6.652-19.195,6.838c3.512-3.18,7.256-6.235,10.988-9.207c17.634-14.03,35.939-24.323,55.323-35.22
	c10.085-5.668,20.512-11.527,31.079-18.067l17.817-11.03l-18.177-10.421c-2.085-1.195-4.122-2.463-6.104-3.802l52.433,16.591
	c1.543,0.488,4.415,1.396,7.744,1.396c2.049,0,4.037-0.335,5.909-0.994c5.409-1.905,8.378-5.994,9.805-7.96l29.665-40.93
	l4.177,37.799l73.537,0.375l-3.89,7.838c-0.811,1.628-2.707,5.442-1.988,10.384c0.963,6.521,5.598,10.037,7.348,11.36
	c17.213,13.046,34.537,24.247,51.287,35.079c11.268,7.29,22.805,14.747,34.268,22.762c-6.226,2.552-12.817,4.265-19.591,5.064
	l-0.665,0.079c-4.335,0.5-10.89,1.259-16.36,5.997c-7.104,6.152-7.848,15.14-8.201,19.46L368.819,239.96z"/>
<path style="fill:#D5D6DB;" d="M199.926,288.259c0,22.553-15.655,40.768-34.964,40.768c-19.308,0-35.038-18.215-35.038-40.768
	c0-5.378,0.895-10.409,2.534-15.093c5.144-15.006,17.743-25.588,32.504-25.588c14.761,0,27.36,10.582,32.43,25.588
	C199.031,277.85,199.926,282.881,199.926,288.259z"/>
<path style="fill:#E56353;" d="M198.319,280.937c0,18.493-14.937,33.43-33.359,33.43c-18.422,0-33.43-14.937-33.43-33.43
	c0-4.41,0.854-8.535,2.418-12.376c4.908-12.305,16.928-20.983,31.011-20.983c14.084,0,26.104,8.678,30.941,20.983
	C197.465,272.401,198.319,276.527,198.319,280.937z"/>
<circle style="fill:#3A556A;" cx="178.326" cy="280.976" r="19.974"/>
<circle style="fill:#EBF0F3;" cx="189.259" cy="280.976" r="9.06"/>
<path style="fill:#D5D6DB;" d="M247.238,288.259c0,22.553,15.655,40.768,34.964,40.768c19.308,0,35.038-18.215,35.038-40.768
	c0-5.378-0.895-10.409-2.534-15.093c-5.144-15.006-17.743-25.588-32.504-25.588c-14.761,0-27.36,10.582-32.43,25.588
	C248.133,277.85,247.238,282.881,247.238,288.259z"/>
<path style="fill:#E56353;" d="M248.845,280.937c0,18.493,14.937,33.43,33.359,33.43c18.422,0,33.43-14.937,33.43-33.43
	c0-4.41-0.853-8.535-2.418-12.376c-4.908-12.305-16.928-20.983-31.011-20.983c-14.084,0-26.104,8.678-30.941,20.983
	C249.699,272.401,248.845,276.527,248.845,280.937z"/>
<circle style="fill:#3A556A;" cx="268.819" cy="280.976" r="19.974"/>
<circle style="fill:#EBF0F3;" cx="257.911" cy="280.976" r="9.06"/>
<g>
	<ellipse style="fill:#64798A;" cx="209.233" cy="352.418" rx="10.071" ry="18.032"/>
	<ellipse style="fill:#64798A;" cx="237.936" cy="352.418" rx="10.071" ry="18.032"/>
	<path style="fill:#64798A;" d="M270.411,401.979c0,12.558-4.924,20.801-12.945,26.001c-8.519,5.532-20.524,7.579-33.856,7.579
		c-13.332,0-25.392-2.047-33.912-7.579c-8.021-5.2-12.945-13.443-12.945-26.001H270.411z"/>
</g>
<path style="fill:#E56353;" d="M257.466,427.979c-8.519,5.532-20.524,7.579-33.856,7.579c-13.332,0-25.392-2.047-33.912-7.579
	c3.043-8.298,11.009-14.162,20.358-14.162c5.145,0,9.792,1.826,13.553,4.813c3.707-2.987,8.354-4.813,13.498-4.813
	C246.457,413.817,254.424,419.681,257.466,427.979z"/>
<g>
</g>
<g>
</g>
<g>
</g>
<g>
</g>
<g>
</g>
<g>
</g>
<g>
</g>
<g>
</g>
<g>
</g>
<g>
</g>
<g>
</g>
<g>
</g>
<g>
</g>
<g>
</g>
<g>
</g>
</svg>
