<?xml version="1.0" encoding="UTF-8"?>
<svg xmlns="http://www.w3.org/2000/svg" xmlns:xlink="http://www.w3.org/1999/xlink" width="50" height="64" viewBox="0 0 50 64" version="1.1">
<g id="surface1">
<path style=" stroke:none;fill-rule:nonzero;fill:rgb(55.686275%,75.686275%,24.705882%);fill-opacity:1;" d="M 41.902344 50.710938 C 42.820312 48.253906 43.304688 45.65625 43.332031 43.035156 L 43.332031 15.449219 L 10 15.449219 L 10 43.035156 L 40.980469 51.230469 Z M 41.902344 50.710938 "/>
<path style=" stroke:none;fill-rule:nonzero;fill:rgb(24.313725%,50.196078%,31.764706%);fill-opacity:1;" d="M 37.824219 57.421875 C 39.632812 55.488281 41.019531 53.203125 41.902344 50.710938 C 40.25 50.46875 38.304688 49.925781 37.777344 48.550781 C 37.464844 47.742188 38 47.289062 37.777344 46.34375 C 36.933594 43.457031 34.121094 41.59375 31.109375 41.929688 C 29.203125 42.316406 27.574219 43.53125 26.667969 45.242188 L 22.222656 45.242188 C 19.980469 41.769531 16.363281 40.035156 13.332031 40.828125 C 12.019531 41.203125 10.855469 41.972656 10 43.035156 C 10 48.488281 12.414062 55.027344 16.667969 58.484375 L 22.222656 62.898438 Z M 37.824219 57.421875 "/>
<path style=" stroke:none;fill-rule:nonzero;fill:rgb(22.352941%,30.196078%,36.078431%);fill-opacity:1;" d="M 26.667969 0 L 2.222656 0 L 11.109375 6.621094 L 0 11.035156 L 6.667969 15.449219 C 6.148438 17.265625 5.554688 17.875 5.554688 19.863281 L 5.554688 35.308594 L 10 35.308594 L 10 23.171875 C 10 20.125 12.488281 17.65625 15.554688 17.65625 L 32.222656 23.171875 L 32.222656 17.65625 C 38.359375 17.65625 43.332031 22.59375 43.332031 28.691406 L 43.332031 35.308594 L 47.777344 35.308594 L 47.777344 27.585938 C 47.703125 23.164062 47.34375 18.75 46.699219 14.375 C 46.292969 12.480469 45.542969 10.675781 44.484375 9.046875 Z M 26.667969 0 "/>
<path style=" stroke:none;fill-rule:nonzero;fill:rgb(78.431373%,85.098039%,32.156863%);fill-opacity:1;" d="M 43.332031 33.101562 L 45.554688 33.101562 C 48.011719 33.101562 50 35.078125 50 37.515625 C 50 39.953125 48.011719 41.929688 45.554688 41.929688 L 43.332031 41.929688 Z M 43.332031 33.101562 "/>
<path style=" stroke:none;fill-rule:nonzero;fill:rgb(78.431373%,85.098039%,32.156863%);fill-opacity:1;" d="M 7.777344 41.929688 L 10 41.929688 L 10 33.101562 L 7.777344 33.101562 C 5.324219 33.101562 3.332031 35.078125 3.332031 37.515625 C 3.332031 39.953125 5.324219 41.929688 7.777344 41.929688 Z M 7.777344 41.929688 "/>
<path style=" stroke:none;fill-rule:nonzero;fill:rgb(95.686275%,95.686275%,90.196078%);fill-opacity:1;" d="M 21.109375 30.898438 C 21.109375 32.117188 20.117188 33.101562 18.890625 33.101562 C 17.660156 33.101562 16.667969 32.117188 16.667969 30.898438 C 16.667969 29.675781 17.660156 28.691406 18.890625 28.691406 C 20.117188 28.691406 21.109375 29.675781 21.109375 30.898438 Z M 21.109375 30.898438 "/>
<path style=" stroke:none;fill-rule:nonzero;fill:rgb(95.686275%,95.686275%,90.196078%);fill-opacity:1;" d="M 36.667969 30.898438 C 36.667969 32.117188 35.671875 33.101562 34.445312 33.101562 C 33.21875 33.101562 32.222656 32.117188 32.222656 30.898438 C 32.222656 29.675781 33.21875 28.691406 34.445312 28.691406 C 35.671875 28.691406 36.667969 29.675781 36.667969 30.898438 Z M 36.667969 30.898438 "/>
<path style=" stroke:none;fill-rule:nonzero;fill:rgb(69.411765%,11.764706%,28.235294%);fill-opacity:1;" d="M 20 6.621094 C 21.359375 9.308594 26.109375 9.4375 28.890625 8.828125 C 31.316406 8.292969 32.082031 7.199219 33.332031 7.722656 C 35.179688 8.496094 34.375 11.246094 36.667969 13.242188 C 37.925781 14.335938 40.289062 15.351562 42.222656 14.34375 C 44.007812 13.214844 44.90625 11.109375 44.484375 9.046875 C 40.878906 3.472656 33.914062 0 26.667969 0 L 21.109375 0 C 19.464844 1.796875 19.027344 4.386719 20 6.621094 Z M 20 6.621094 "/>
<path style=" stroke:none;fill-rule:nonzero;fill:rgb(24.313725%,50.196078%,31.764706%);fill-opacity:1;" d="M 22.222656 37.515625 L 24.445312 37.515625 L 24.445312 39.722656 L 22.222656 39.722656 Z M 22.222656 37.515625 "/>
<path style=" stroke:none;fill-rule:nonzero;fill:rgb(24.313725%,50.196078%,31.764706%);fill-opacity:1;" d="M 28.890625 37.515625 L 31.109375 37.515625 L 31.109375 39.722656 L 28.890625 39.722656 Z M 28.890625 37.515625 "/>
<path style=" stroke:none;fill-rule:nonzero;fill:rgb(97.647059%,54.901961%,58.823529%);fill-opacity:1;" d="M 23.332031 45.242188 L 30 45.242188 C 31.839844 45.242188 33.332031 46.722656 33.332031 48.550781 C 33.332031 50.378906 31.839844 51.863281 30 51.863281 L 23.332031 51.863281 C 21.492188 51.863281 20 50.378906 20 48.550781 C 20 46.722656 21.492188 45.242188 23.332031 45.242188 Z M 23.332031 45.242188 "/>
<path style=" stroke:none;fill-rule:nonzero;fill:rgb(95.686275%,95.686275%,90.196078%);fill-opacity:1;" d="M 23.332031 45.242188 L 25.554688 45.242188 L 25.554688 51.863281 L 23.332031 51.863281 Z M 23.332031 45.242188 "/>
<path style=" stroke:none;fill-rule:nonzero;fill:rgb(95.686275%,95.686275%,90.196078%);fill-opacity:1;" d="M 27.777344 45.242188 L 30 45.242188 L 30 51.863281 L 27.777344 51.863281 Z M 27.777344 45.242188 "/>
<path style=" stroke:none;fill-rule:nonzero;fill:rgb(69.411765%,11.764706%,28.235294%);fill-opacity:1;" d="M 34.445312 56.277344 C 33.851562 55.222656 35.011719 54.121094 34.445312 52.964844 C 33.777344 51.621094 31.132812 50.941406 30 51.863281 C 28.585938 53.007812 30.59375 56.089844 28.890625 57.378906 C 27.605469 58.351562 26.050781 57.488281 24.445312 58.484375 C 22.933594 59.414062 22.414062 61.339844 22.222656 62.898438 C 24.933594 64.609375 28.398438 64.609375 31.109375 62.898438 L 36.667969 58.484375 C 37.070312 58.152344 37.457031 57.796875 37.824219 57.421875 C 37.824219 57.421875 34.960938 57.195312 34.445312 56.277344 Z M 34.445312 56.277344 "/>
<path style=" stroke:none;fill-rule:nonzero;fill:rgb(24.313725%,50.196078%,31.764706%);fill-opacity:1;" d="M 37.796875 38.960938 C 37.347656 38.957031 36.894531 38.921875 36.449219 38.851562 C 36.132812 38.800781 35.855469 38.621094 35.6875 38.351562 C 35.519531 38.082031 35.476562 37.753906 35.574219 37.453125 L 35.585938 37.414062 C 35.757812 36.898438 36.28125 36.582031 36.820312 36.675781 C 38.628906 36.960938 40.472656 36.433594 41.847656 35.234375 C 42.25 34.886719 42.847656 34.886719 43.253906 35.234375 L 43.285156 35.261719 C 43.527344 35.464844 43.667969 35.761719 43.671875 36.074219 C 43.675781 36.386719 43.542969 36.6875 43.308594 36.894531 C 41.785156 38.222656 39.824219 38.953125 37.796875 38.953125 Z M 37.796875 38.960938 "/>
</g>
</svg>
