<?xml version="1.0" encoding="iso-8859-1"?>
<!-- Generator: Adobe Illustrator 19.0.0, SVG Export Plug-In . SVG Version: 6.00 Build 0)  -->
<svg version="1.1" id="Capa_1" xmlns="http://www.w3.org/2000/svg" xmlns:xlink="http://www.w3.org/1999/xlink" x="0px" y="0px"
	 viewBox="0 0 468.293 468.293" style="enable-background:new 0 0 468.293 468.293;" xml:space="preserve">
<g>
	<path style="fill:#44C4A1;" d="M421.781,212.536c0,100.334-94.839,221.043-172.945,235.182c-4.939,0.865-9.879,1.359-14.695,1.359
		c-80.329,0-187.64-129.786-187.64-236.541c0-94.53,65.881-173.253,152.939-189.986c11.237-2.223,22.845-3.334,34.7-3.334
		C337.809,19.216,421.781,105.78,421.781,212.536z"/>
	<path style="fill:#44C4A1;" d="M465.265,216.769c8.621,24.451-1.845,51.009-22.805,66.269
		c-30.924,22.515-17.064,55.306-38.417,50.446c-25.623-5.832-38.966-43.197-29.803-83.457s37.362-68.17,62.985-62.339
		C450.111,190.621,459.891,201.529,465.265,216.769z"/>
</g>
<path style="fill:#3EA69B;" d="M423.022,214.155c4.067-0.941,8.547-1.837,12.246,0.099c2.022,1.058,3.55,2.849,4.941,4.658
	c1.977,2.573,3.842,5.421,4.185,8.647c0.609,5.718-3.57,10.658-6.72,15.469c-7.179,10.963-9.793,24.25-15.467,36.062
	c-1.131,2.355-3.36,5.052-5.789,4.089c-1.149-0.455-1.839-1.617-2.364-2.736c-3.361-7.162-3.296-15.842,0.173-22.953
	c2.564-5.256,6.802-9.558,9.333-14.831c2.53-5.272,2.807-12.476-1.744-16.152C415.202,221.168,411.739,216.766,423.022,214.155z"/>
<path style="fill:#44C4A1;" d="M3.028,216.769c-8.621,24.451,1.845,51.009,22.805,66.269c30.924,22.515,17.064,55.306,38.417,50.446
	c25.623-5.832,38.966-43.197,29.803-83.457s-37.362-68.17-62.985-62.339C18.182,190.621,8.402,201.529,3.028,216.769z"/>
<path style="fill:#3EA69B;" d="M45.271,214.155c-4.067-0.941-8.547-1.837-12.246,0.099c-2.022,1.058-3.55,2.849-4.941,4.658
	c-1.977,2.573-3.842,5.421-4.185,8.647c-0.609,5.718,3.57,10.658,6.72,15.469c7.179,10.963,9.792,24.25,15.467,36.062
	c1.131,2.355,3.36,5.052,5.789,4.089c1.149-0.455,1.839-1.617,2.364-2.736c3.361-7.162,3.296-15.842-0.173-22.953
	c-2.564-5.256-6.802-9.558-9.333-14.831c-2.53-5.272-2.808-12.476,1.744-16.152C53.091,221.168,56.553,216.766,45.271,214.155z"/>
<polygon style="fill:#E56353;" points="288.932,104.542 277.976,95.03 286.32,85.42 280.34,80.23 271.996,89.84 263.188,82.193 
	272.233,71.775 266.254,66.584 257.209,77.002 248.4,69.355 258.149,58.126 252.17,52.935 242.42,64.165 232.412,55.476 
	227.218,61.456 237.228,70.146 228.473,80.23 234.452,85.42 243.207,75.336 252.016,82.983 242.559,93.875 248.538,99.065 
	257.995,88.174 266.804,95.821 256.643,107.524 262.622,112.714 272.783,101.011 283.738,110.521 "/>
<path style="fill:#3A556A;" d="M322.805,321.452c0,11.917-16.795,38.96-38.837,44.394c-2.593,0.679-5.186,1.05-7.903,1.05h-71.561
	c-2.717,0-5.372-0.37-7.965-1.05c-22.043-5.495-38.837-32.477-38.837-44.394c0-10.805,13.892-20.005,33.033-22.969
	c4.384-0.741,8.953-1.111,13.769-1.111c5.31,0,10.435,0.432,15.189,1.297c8.088,1.42,15.127,3.951,20.561,7.286
	c5.433-3.334,12.472-5.866,20.622-7.224c4.754-0.926,9.879-1.358,15.189-1.358c4.754,0,9.385,0.37,13.707,1.111
	C308.913,301.447,322.805,310.647,322.805,321.452z"/>
<path style="fill:#E56353;" d="M283.968,366.772c-2.593,0.679-5.186,1.05-7.903,1.05h-71.561c-2.717,0-5.372-0.37-7.965-1.05
	c2.531-15.868,13.213-27.785,25.994-27.785c6.792,0,13.028,3.396,17.72,9.015c4.754-5.619,10.928-9.015,17.782-9.015
	C270.817,338.987,281.437,350.904,283.968,366.772z"/>
<g>
	<path style="fill:#E1E6E9;" d="M219.693,298.669l-19.388,25.562c-3.519,3.519-9.57,1.05-9.57-4.013v-21.734
		c4.384-0.741,8.953-1.111,13.769-1.111C209.814,297.372,214.938,297.804,219.693,298.669z"/>
	<path style="fill:#E1E6E9;" d="M289.772,298.483v21.734c0,5.063-6.051,7.533-9.57,4.013l-19.326-25.5
		c4.754-0.926,9.879-1.358,15.189-1.358C280.819,297.372,285.45,297.743,289.772,298.483z"/>
</g>
<path style="fill:#64798A;" d="M260.401,246.617l-18.632-38.644c-3.612-7.492-11.633-7.492-15.245,0l-18.632,38.644
	c-4.015,8.327,0.341,19.432,7.623,19.432l37.265,0C260.06,266.049,264.416,254.945,260.401,246.617z"/>
<path style="fill:#D5D6DB;" d="M200.403,169.413c2.793,3.159,2.783,8.793-0.019,11.939c-11.774,13.224-27.275,21.196-44.156,21.196
	c-16.883,0-32.305-7.973-44.13-21.201c-2.811-3.144-2.827-8.788-0.03-11.951c11.701-13.23,27.201-21.291,44.16-21.291
	C173.195,148.105,188.7,156.173,200.403,169.413z"/>
<path style="fill:#E1E6E9;" d="M200.403,164.816c2.793,2.478,2.783,6.896-0.019,9.364c-11.774,10.372-27.275,16.623-44.156,16.623
	c-16.883,0-32.305-6.253-44.13-16.628c-2.811-2.465-2.827-6.892-0.03-9.373c11.701-10.376,27.201-16.698,44.16-16.698
	C173.195,148.105,188.7,154.432,200.403,164.816z"/>
<circle style="fill:#E56353;" cx="156.235" cy="164.221" r="16.116"/>
<circle style="fill:#EBF0F3;" cx="156.235" cy="156.503" r="7.717"/>
<path style="fill:#D5D6DB;" d="M267.89,169.413c-2.793,3.159-2.783,8.793,0.019,11.939c11.774,13.224,27.275,21.196,44.156,21.196
	c16.883,0,32.305-7.973,44.13-21.201c2.811-3.144,2.827-8.788,0.03-11.951c-11.701-13.23-27.201-21.291-44.16-21.291
	C295.098,148.105,279.593,156.173,267.89,169.413z"/>
<path style="fill:#E1E6E9;" d="M267.89,164.816c-2.793,2.478-2.783,6.896,0.019,9.364c11.774,10.372,27.275,16.623,44.156,16.623
	c16.883,0,32.305-6.253,44.13-16.628c2.811-2.465,2.827-6.892,0.03-9.373c-11.701-10.376-27.201-16.698-44.16-16.698
	C295.098,148.105,279.593,154.432,267.89,164.816z"/>
<circle style="fill:#E56353;" cx="312.07" cy="164.221" r="16.116"/>
<circle style="fill:#EBF0F3;" cx="312.07" cy="156.503" r="7.717"/>
<g>
	<path style="fill:#3EA69B;" d="M248.836,447.718c-4.939,0.865-9.879,1.359-14.695,1.359c-80.329,0-187.64-129.786-187.64-236.541
		c0-94.53,65.881-173.253,152.939-189.986c-1.79,14.448-9.2,27.97-24.574,38.59c-13.831,9.509-30.131,15.004-43.653,25.006
		c-23.463,17.35-35.379,45.814-46.246,72.92c-4.507,11.299-9.076,22.784-10.249,34.885c-1.482,15.56,2.778,30.996,6.977,46.061
		c3.519,12.472,6.977,24.883,10.434,37.355c2.779,9.941,5.743,20.129,12.287,28.093c4.384,5.31,10.126,9.262,14.695,14.448
		c9.076,10.311,12.41,24.265,18.091,36.799c11.669,26.056,34.391,46.864,61.373,56.249c13.275,4.569,27.908,6.792,38.713,15.745
		C243.155,433.579,247.045,440.371,248.836,447.718z"/>
	<path style="fill:#3EA69B;" d="M211.678,172.982c-1.144-3.731-4.655-11.296-4.655-11.296c-0.031-0.055-0.011-0.112-0.048-0.165
		c-4.583-6.607-12.764-17.309-19.159-19.7c-9.407-3.518-19.603-4.395-29.646-4.316c-12.244,0.097-24.748,1.648-35.718,7.086
		c-4.323,2.143-17.188,23.569-16.9,24.189c5.601-2.927,16.902-8.878,19.474-10.567c8.048-5.287,17.272-8.77,26.806-10.122
		c5.489-0.778,11.173-0.844,16.486,0.741c3.588,1.071,6.91,2.861,10.247,4.559c4.89,2.487,13.232,5.985,20.169,8.793
		c2.454,4.462,4.231,9.187,3.949,14.2c-0.33,5.865-3.444,11.159-6.474,16.191c-2.308,3.834-4.617,7.668-6.926,11.502
		c-3.453,5.735-7.263,11.796-13.363,14.553c13.697-6.404,24.485-17.973,32.221-30.964
		C210.798,183.206,213.2,177.944,211.678,172.982z"/>
	<path style="fill:#3EA69B;" d="M256.604,172.982c1.144-3.731,4.655-11.296,4.655-11.296c0.031-0.055,0.011-0.112,0.048-0.165
		c4.583-6.607,12.764-17.309,19.159-19.7c9.407-3.518,19.603-4.395,29.646-4.316c12.243,0.097,24.748,1.648,35.718,7.086
		c4.323,2.143,17.188,23.569,16.9,24.189c-5.601-2.927-16.902-8.878-19.474-10.567c-8.048-5.287-17.272-8.77-26.806-10.122
		c-5.489-0.778-11.173-0.844-16.486,0.741c-3.588,1.071-6.91,2.861-10.247,4.559c-4.89,2.487-13.232,5.985-20.169,8.793
		c-2.454,4.462-4.231,9.187-3.949,14.2c0.33,5.865,3.444,11.159,6.474,16.191c2.308,3.834,4.617,7.668,6.926,11.502
		c3.453,5.735,7.263,11.796,13.363,14.553c-13.697-6.404-24.485-17.973-32.221-30.964
		C257.484,183.206,255.081,177.944,256.604,172.982z"/>
</g>
<g>
</g>
<g>
</g>
<g>
</g>
<g>
</g>
<g>
</g>
<g>
</g>
<g>
</g>
<g>
</g>
<g>
</g>
<g>
</g>
<g>
</g>
<g>
</g>
<g>
</g>
<g>
</g>
<g>
</g>
</svg>
