<?xml version="1.0" encoding="UTF-8"?>
<svg xmlns="http://www.w3.org/2000/svg" xmlns:xlink="http://www.w3.org/1999/xlink" width="50" height="50" viewBox="0 0 50 50" version="1.1">
<g id="surface1">
<path style=" stroke:none;fill-rule:nonzero;fill:rgb(27.45098%,69.803922%,61.568627%);fill-opacity:1;" d="M 44.808594 31.898438 L 46.988281 31.898438 C 47.875 31.929688 48.664062 31.324219 48.859375 30.457031 L 49.9375 24.5625 C 50.039062 23.773438 49.785156 22.980469 49.242188 22.398438 C 48.703125 21.816406 47.929688 21.503906 47.132812 21.550781 L 2.824219 21.550781 C 2.03125 21.503906 1.257812 21.816406 0.714844 22.398438 C 0.171875 22.980469 -0.0820312 23.773438 0.0234375 24.5625 L 1.101562 30.457031 C 1.296875 31.324219 2.082031 31.929688 2.972656 31.898438 Z M 44.808594 31.898438 "/>
<path style=" stroke:none;fill-rule:nonzero;fill:rgb(50.588235%,80%,72.156863%);fill-opacity:1;" d="M 44.808594 10.34375 L 44.808594 34.25 C 44.808594 34.707031 44.769531 35.160156 44.695312 35.613281 C 44.355469 37.484375 43.378906 39.183594 41.925781 40.414062 L 35.410156 46.136719 C 32.578125 48.628906 28.933594 50 25.160156 50 L 24.796875 50 C 21.027344 50 17.382812 48.628906 14.546875 46.136719 L 8.03125 40.414062 C 6.582031 39.183594 5.601562 37.484375 5.265625 35.613281 C 5.1875 35.160156 5.148438 34.707031 5.152344 34.25 L 5.152344 24.128906 C 5.152344 24.128906 4.980469 10.34375 6.015625 10.34375 Z M 44.808594 10.34375 "/>
<path style=" stroke:none;fill-rule:nonzero;fill:rgb(50.196078%,27.058824%,21.568627%);fill-opacity:1;" d="M 46.53125 12.925781 L 46.53125 22.40625 C 46.523438 23.355469 45.757812 24.121094 44.808594 24.128906 L 40.910156 14.390625 C 40.320312 12.910156 39.066406 11.796875 37.53125 11.378906 C 35.992188 10.960938 34.347656 11.292969 33.089844 12.273438 L 28.066406 16.175781 C 26.25 17.589844 23.707031 17.589844 21.894531 16.175781 L 16.867188 12.273438 C 15.609375 11.292969 13.964844 10.960938 12.429688 11.375 C 10.890625 11.792969 9.636719 12.910156 9.046875 14.390625 L 5.152344 24.128906 C 4.203125 24.121094 3.433594 23.355469 3.425781 22.40625 L 3.425781 12.925781 C 3.433594 5.785156 9.21875 0 16.359375 0 L 33.601562 0 C 40.738281 0 46.527344 5.789062 46.53125 12.925781 Z M 46.53125 12.925781 "/>
<path style=" stroke:none;fill-rule:nonzero;fill:rgb(27.45098%,69.803922%,61.568627%);fill-opacity:1;" d="M 26.894531 36.207031 C 26.53125 36.195312 26.175781 36.113281 25.839844 35.972656 L 25.710938 35.925781 C 25.367188 35.808594 25 35.777344 24.644531 35.84375 C 24.492188 35.878906 24.34375 35.921875 24.199219 35.972656 C 23.835938 36.113281 23.453125 36.195312 23.0625 36.207031 C 22.21875 36.117188 21.4375 35.703125 20.886719 35.054688 C 20.570312 34.699219 20.601562 34.152344 20.957031 33.839844 C 21.316406 33.523438 21.859375 33.554688 22.175781 33.910156 C 22.40625 34.1875 22.71875 34.386719 23.0625 34.484375 C 23.265625 34.464844 23.464844 34.414062 23.652344 34.339844 C 23.875 34.257812 24.105469 34.195312 24.335938 34.148438 C 24.988281 34.027344 25.65625 34.082031 26.28125 34.300781 L 26.433594 34.355469 C 26.578125 34.417969 26.734375 34.460938 26.894531 34.484375 C 27.242188 34.382812 27.550781 34.183594 27.785156 33.910156 C 28.101562 33.554688 28.644531 33.523438 29 33.839844 C 29.355469 34.152344 29.390625 34.699219 29.074219 35.054688 C 28.523438 35.703125 27.742188 36.117188 26.894531 36.207031 Z M 26.894531 36.207031 "/>
<path style=" stroke:none;fill-rule:nonzero;fill:rgb(27.45098%,69.803922%,61.568627%);fill-opacity:1;" d="M 27.316406 31.898438 C 27.058594 31.898438 26.8125 31.78125 26.648438 31.578125 C 26.1875 31.183594 25.585938 30.988281 24.980469 31.035156 C 24.371094 30.988281 23.773438 31.183594 23.3125 31.578125 C 23.011719 31.949219 22.46875 32.003906 22.097656 31.703125 C 21.730469 31.402344 21.671875 30.859375 21.972656 30.492188 C 22.757812 29.683594 23.855469 29.253906 24.980469 29.308594 C 26.105469 29.253906 27.203125 29.683594 27.988281 30.492188 C 28.195312 30.75 28.238281 31.105469 28.097656 31.40625 C 27.953125 31.707031 27.648438 31.898438 27.316406 31.898438 Z M 27.316406 31.898438 "/>
<path style=" stroke:none;fill-rule:nonzero;fill:rgb(84.313725%,36.862745%,44.705882%);fill-opacity:1;" d="M 20.238281 28.449219 C 19.761719 28.449219 19.375 28.0625 19.375 27.585938 L 19.375 22.414062 C 19.375 21.9375 19.761719 21.550781 20.238281 21.550781 C 20.714844 21.550781 21.101562 21.9375 21.101562 22.414062 L 21.101562 27.585938 C 21.101562 28.0625 20.714844 28.449219 20.238281 28.449219 Z M 20.238281 28.449219 "/>
<path style=" stroke:none;fill-rule:nonzero;fill:rgb(84.313725%,36.862745%,44.705882%);fill-opacity:1;" d="M 29.722656 28.449219 C 29.246094 28.449219 28.859375 28.0625 28.859375 27.585938 L 28.859375 22.414062 C 28.859375 21.9375 29.246094 21.550781 29.722656 21.550781 C 30.195312 21.550781 30.582031 21.9375 30.582031 22.414062 L 30.582031 27.585938 C 30.582031 28.0625 30.195312 28.449219 29.722656 28.449219 Z M 29.722656 28.449219 "/>
<path style=" stroke:none;fill-rule:nonzero;fill:rgb(84.313725%,36.862745%,44.705882%);fill-opacity:1;" d="M 13.773438 31.035156 C 13.296875 31.035156 12.910156 30.648438 12.910156 30.171875 L 12.910156 27.585938 C 12.910156 27.109375 13.296875 26.722656 13.773438 26.722656 C 14.25 26.722656 14.632812 27.109375 14.632812 27.585938 L 14.632812 30.171875 C 14.632812 30.648438 14.25 31.035156 13.773438 31.035156 Z M 13.773438 31.035156 "/>
<path style=" stroke:none;fill-rule:nonzero;fill:rgb(84.313725%,36.862745%,44.705882%);fill-opacity:1;" d="M 11.1875 28.246094 C 10.710938 28.246094 10.324219 27.859375 10.324219 27.382812 L 10.324219 23.070312 C 10.324219 22.597656 10.710938 22.210938 11.1875 22.210938 C 11.664062 22.210938 12.046875 22.597656 12.046875 23.070312 L 12.046875 27.382812 C 12.046875 27.859375 11.664062 28.246094 11.1875 28.246094 Z M 11.1875 28.246094 "/>
<path style=" stroke:none;fill-rule:nonzero;fill:rgb(84.313725%,36.862745%,44.705882%);fill-opacity:1;" d="M 36.1875 31.035156 C 35.710938 31.035156 35.324219 30.648438 35.324219 30.171875 L 35.324219 27.585938 C 35.324219 27.109375 35.710938 26.722656 36.1875 26.722656 C 36.664062 26.722656 37.046875 27.109375 37.046875 27.585938 L 37.046875 30.171875 C 37.046875 30.648438 36.664062 31.035156 36.1875 31.035156 Z M 36.1875 31.035156 "/>
<path style=" stroke:none;fill-rule:nonzero;fill:rgb(84.313725%,36.862745%,44.705882%);fill-opacity:1;" d="M 38.773438 28.246094 C 38.296875 28.246094 37.910156 27.859375 37.910156 27.382812 L 37.910156 23.070312 C 37.910156 22.597656 38.296875 22.210938 38.773438 22.210938 C 39.25 22.210938 39.632812 22.597656 39.632812 23.070312 L 39.632812 27.382812 C 39.632812 27.859375 39.25 28.246094 38.773438 28.246094 Z M 38.773438 28.246094 "/>
<path style=" stroke:none;fill-rule:nonzero;fill:rgb(84.313725%,36.862745%,44.705882%);fill-opacity:1;" d="M 18.945312 43.964844 C 18.46875 43.964844 18.082031 43.578125 18.082031 43.101562 L 18.082031 41.378906 C 18.082031 40.902344 18.46875 40.515625 18.945312 40.515625 C 19.421875 40.515625 19.808594 40.902344 19.808594 41.378906 L 19.808594 43.101562 C 19.808594 43.578125 19.421875 43.964844 18.945312 43.964844 Z M 18.945312 43.964844 "/>
<path style=" stroke:none;fill-rule:nonzero;fill:rgb(84.313725%,36.862745%,44.705882%);fill-opacity:1;" d="M 22.394531 46.550781 C 21.917969 46.550781 21.53125 46.164062 21.53125 45.691406 L 21.53125 42.242188 C 21.53125 41.765625 21.917969 41.378906 22.394531 41.378906 C 22.871094 41.378906 23.253906 41.765625 23.253906 42.242188 L 23.253906 45.691406 C 23.253906 46.164062 22.871094 46.550781 22.394531 46.550781 Z M 22.394531 46.550781 "/>
<path style=" stroke:none;fill-rule:nonzero;fill:rgb(90.196078%,90.588235%,90.980392%);fill-opacity:1;" d="M 21.53125 22.84375 C 21.53125 25.941406 19.023438 28.449219 15.929688 28.449219 C 12.832031 28.449219 10.324219 25.941406 10.324219 22.84375 C 10.324219 19.75 12.832031 22.414062 15.929688 22.414062 C 19.023438 22.414062 21.53125 19.75 21.53125 22.84375 Z M 21.53125 22.84375 "/>
<path style=" stroke:none;fill-rule:nonzero;fill:rgb(90.196078%,90.588235%,90.980392%);fill-opacity:1;" d="M 28.429688 22.84375 C 28.429688 25.941406 30.9375 28.449219 34.03125 28.449219 C 37.125 28.449219 39.632812 25.941406 39.632812 22.84375 C 39.632812 19.75 37.125 22.414062 34.03125 22.414062 C 30.9375 22.414062 28.429688 19.75 28.429688 22.84375 Z M 28.429688 22.84375 "/>
<path style=" stroke:none;fill-rule:nonzero;fill:rgb(27.45098%,30.980392%,36.470588%);fill-opacity:1;" d="M 29.46875 44.101562 L 18.339844 41.628906 C 17.6875 41.484375 17.222656 40.902344 17.222656 40.230469 L 17.222656 40.226562 C 17.222656 39.433594 17.863281 38.792969 18.652344 38.792969 L 30.050781 38.792969 C 31.535156 38.792969 32.738281 39.996094 32.738281 41.480469 C 32.738281 42.292969 32.367188 43.066406 31.734375 43.574219 C 31.097656 44.085938 30.265625 44.277344 29.46875 44.101562 Z M 29.46875 44.101562 "/>
</g>
</svg>
