<?xml version="1.0" encoding="UTF-8"?>
<svg xmlns="http://www.w3.org/2000/svg" xmlns:xlink="http://www.w3.org/1999/xlink" width="50" height="45" viewBox="0 0 50 45" version="1.1">
<g id="surface1">
<path style=" stroke:none;fill-rule:nonzero;fill:rgb(26.666667%,76.862745%,63.137255%);fill-opacity:1;" d="M 45.0625 20.230469 C 45.0625 30.730469 34.929688 43.363281 26.585938 44.84375 C 26.066406 44.933594 25.542969 44.984375 25.015625 44.984375 C 16.433594 44.984375 4.96875 31.402344 4.96875 20.230469 C 4.96875 10.339844 12.007812 2.101562 21.308594 0.347656 C 22.527344 0.113281 23.769531 -0.00390625 25.015625 0 C 36.089844 0 45.0625 9.058594 45.0625 20.230469 Z M 45.0625 20.230469 "/>
<path style=" stroke:none;fill-rule:nonzero;fill:rgb(26.666667%,76.862745%,63.137255%);fill-opacity:1;" d="M 49.707031 20.675781 C 50.628906 23.234375 49.511719 26.011719 47.273438 27.609375 C 43.96875 29.964844 45.449219 33.398438 43.167969 32.886719 C 40.429688 32.277344 39.003906 28.367188 39.984375 24.15625 C 40.964844 19.941406 43.976562 17.019531 46.714844 17.628906 C 48.089844 17.9375 49.132812 19.078125 49.707031 20.675781 Z M 49.707031 20.675781 "/>
<path style=" stroke:none;fill-rule:nonzero;fill:rgb(24.313725%,65.098039%,60.784314%);fill-opacity:1;" d="M 45.195312 20.402344 C 45.628906 20.300781 46.109375 20.207031 46.503906 20.410156 C 46.710938 20.535156 46.894531 20.699219 47.03125 20.898438 C 47.242188 21.167969 47.441406 21.464844 47.476562 21.804688 C 47.542969 22.402344 47.097656 22.917969 46.761719 23.421875 C 45.992188 24.570312 45.714844 25.960938 45.109375 27.195312 C 44.988281 27.441406 44.75 27.726562 44.488281 27.625 C 44.371094 27.5625 44.28125 27.460938 44.238281 27.335938 C 43.878906 26.574219 43.882812 25.695312 44.253906 24.9375 C 44.527344 24.386719 44.980469 23.933594 45.253906 23.382812 C 45.523438 22.832031 45.550781 22.078125 45.066406 21.691406 C 44.359375 21.132812 43.988281 20.675781 45.195312 20.402344 Z M 45.195312 20.402344 "/>
<path style=" stroke:none;fill-rule:nonzero;fill:rgb(26.666667%,76.862745%,63.137255%);fill-opacity:1;" d="M 0.324219 20.675781 C -0.597656 23.234375 0.519531 26.011719 2.761719 27.609375 C 6.0625 29.964844 4.582031 33.398438 6.863281 32.886719 C 9.601562 32.277344 11.027344 28.367188 10.046875 24.15625 C 9.070312 19.941406 6.054688 17.019531 3.320312 17.628906 C 1.941406 17.9375 0.898438 19.078125 0.324219 20.675781 Z M 0.324219 20.675781 "/>
<path style=" stroke:none;fill-rule:nonzero;fill:rgb(24.313725%,65.098039%,60.784314%);fill-opacity:1;" d="M 4.835938 20.402344 C 4.402344 20.300781 3.921875 20.207031 3.527344 20.410156 C 3.320312 20.535156 3.136719 20.699219 3 20.898438 C 2.789062 21.167969 2.589844 21.464844 2.554688 21.804688 C 2.488281 22.402344 2.933594 22.917969 3.269531 23.421875 C 4.039062 24.570312 4.316406 25.960938 4.921875 27.195312 C 5.042969 27.441406 5.28125 27.726562 5.542969 27.625 C 5.660156 27.5625 5.75 27.460938 5.792969 27.335938 C 6.152344 26.574219 6.148438 25.695312 5.777344 24.9375 C 5.503906 24.386719 5.050781 23.933594 4.777344 23.382812 C 4.507812 22.832031 4.480469 22.078125 4.964844 21.691406 C 5.671875 21.132812 6.042969 20.675781 4.835938 20.402344 Z M 4.835938 20.402344 "/>
<path style=" stroke:none;fill-rule:nonzero;fill:rgb(89.803922%,38.823529%,32.54902%);fill-opacity:1;" d="M 30.867188 8.929688 L 29.699219 7.933594 L 30.589844 6.929688 L 29.949219 6.386719 L 29.058594 7.390625 L 28.117188 6.589844 L 29.085938 5.5 L 28.445312 4.957031 L 27.480469 6.046875 L 26.539062 5.246094 L 27.578125 4.070312 L 26.941406 3.527344 L 25.898438 4.703125 L 24.832031 3.792969 L 24.277344 4.421875 L 25.34375 5.328125 L 24.410156 6.386719 L 25.046875 6.929688 L 25.984375 5.871094 L 26.925781 6.671875 L 25.914062 7.8125 L 26.554688 8.355469 L 27.5625 7.214844 L 28.503906 8.015625 L 27.417969 9.242188 L 28.058594 9.785156 L 29.144531 8.558594 L 30.3125 9.554688 Z M 30.867188 8.929688 "/>
<path style=" stroke:none;fill-rule:nonzero;fill:rgb(22.745098%,33.333333%,41.568627%);fill-opacity:1;" d="M 34.488281 31.628906 C 34.488281 32.875 32.691406 35.707031 30.339844 36.273438 C 30.0625 36.347656 29.777344 36.382812 29.492188 36.386719 L 21.847656 36.386719 C 21.5625 36.382812 21.273438 36.347656 20.996094 36.273438 C 18.644531 35.699219 16.847656 32.875 16.847656 31.628906 C 16.847656 30.5 18.332031 29.535156 20.378906 29.226562 C 20.863281 29.148438 21.355469 29.109375 21.847656 29.109375 C 22.390625 29.105469 22.9375 29.152344 23.472656 29.246094 C 24.246094 29.363281 24.992188 29.621094 25.667969 30.007812 C 26.347656 29.621094 27.09375 29.363281 27.871094 29.25 C 28.40625 29.152344 28.949219 29.105469 29.492188 29.109375 C 29.984375 29.109375 30.472656 29.148438 30.957031 29.226562 C 33.003906 29.535156 34.488281 30.5 34.488281 31.628906 Z M 34.488281 31.628906 "/>
<path style=" stroke:none;fill-rule:nonzero;fill:rgb(89.803922%,38.823529%,32.54902%);fill-opacity:1;" d="M 30.339844 36.371094 C 30.0625 36.445312 29.78125 36.480469 29.496094 36.480469 L 21.847656 36.480469 C 21.5625 36.480469 21.273438 36.445312 20.996094 36.371094 C 21.269531 34.710938 22.410156 33.464844 23.773438 33.464844 C 24.5 33.464844 25.167969 33.820312 25.667969 34.40625 C 26.175781 33.820312 26.835938 33.464844 27.566406 33.464844 C 28.933594 33.464844 30.066406 34.710938 30.339844 36.371094 Z M 30.339844 36.371094 "/>
<path style=" stroke:none;fill-rule:nonzero;fill:rgb(88.235294%,90.196078%,91.372549%);fill-opacity:1;" d="M 23.472656 29.246094 L 21.398438 31.921875 C 21.226562 32.089844 20.96875 32.136719 20.746094 32.046875 C 20.519531 31.953125 20.375 31.738281 20.378906 31.5 L 20.378906 29.226562 C 20.863281 29.148438 21.355469 29.109375 21.847656 29.109375 C 22.390625 29.105469 22.9375 29.152344 23.472656 29.246094 Z M 23.472656 29.246094 "/>
<path style=" stroke:none;fill-rule:nonzero;fill:rgb(88.235294%,90.196078%,91.372549%);fill-opacity:1;" d="M 30.957031 29.226562 L 30.957031 31.5 C 30.960938 31.738281 30.816406 31.953125 30.589844 32.046875 C 30.367188 32.136719 30.109375 32.089844 29.9375 31.921875 L 27.871094 29.25 C 28.40625 29.152344 28.949219 29.105469 29.492188 29.109375 C 29.984375 29.109375 30.472656 29.148438 30.957031 29.226562 Z M 30.957031 29.226562 "/>
<path style=" stroke:none;fill-rule:nonzero;fill:rgb(39.215686%,47.45098%,54.117647%);fill-opacity:1;" d="M 27.820312 23.796875 L 25.828125 19.753906 C 25.445312 18.96875 24.585938 18.96875 24.203125 19.753906 L 22.210938 23.796875 C 21.78125 24.667969 22.246094 25.832031 23.023438 25.832031 L 27.007812 25.832031 C 27.785156 25.832031 28.25 24.667969 27.820312 23.796875 Z M 27.820312 23.796875 "/>
<path style=" stroke:none;fill-rule:nonzero;fill:rgb(83.529412%,83.921569%,85.882353%);fill-opacity:1;" d="M 21.410156 15.71875 C 21.707031 16.082031 21.707031 16.601562 21.410156 16.96875 C 20.148438 18.351562 18.496094 19.1875 16.691406 19.1875 C 14.886719 19.1875 13.238281 18.351562 11.976562 16.96875 C 11.675781 16.601562 11.675781 16.082031 11.972656 15.71875 C 13.222656 14.332031 14.878906 13.488281 16.691406 13.488281 C 18.503906 13.488281 20.160156 14.332031 21.410156 15.71875 Z M 21.410156 15.71875 "/>
<path style=" stroke:none;fill-rule:nonzero;fill:rgb(88.235294%,90.196078%,91.372549%);fill-opacity:1;" d="M 21.410156 15.238281 C 21.550781 15.363281 21.632812 15.539062 21.632812 15.726562 C 21.632812 15.914062 21.550781 16.09375 21.410156 16.21875 C 18.710938 18.535156 14.675781 18.535156 11.976562 16.214844 C 11.832031 16.09375 11.75 15.914062 11.75 15.726562 C 11.75 15.539062 11.832031 15.359375 11.972656 15.234375 C 14.667969 12.90625 18.714844 12.90625 21.410156 15.238281 Z M 21.410156 15.238281 "/>
<path style=" stroke:none;fill-rule:nonzero;fill:rgb(89.803922%,38.823529%,32.54902%);fill-opacity:1;" d="M 18.414062 15.175781 C 18.414062 16.105469 17.644531 16.863281 16.691406 16.863281 C 15.742188 16.863281 14.96875 16.105469 14.96875 15.175781 C 14.96875 14.242188 15.742188 13.488281 16.691406 13.488281 C 17.644531 13.488281 18.414062 14.242188 18.414062 15.175781 Z M 18.414062 15.175781 "/>
<path style=" stroke:none;fill-rule:nonzero;fill:rgb(92.156863%,94.117647%,95.294118%);fill-opacity:1;" d="M 17.515625 14.367188 C 17.515625 14.8125 17.148438 15.175781 16.691406 15.175781 C 16.238281 15.175781 15.867188 14.8125 15.867188 14.367188 C 15.867188 13.921875 16.238281 13.558594 16.691406 13.558594 C 17.148438 13.558594 17.515625 13.921875 17.515625 14.367188 Z M 17.515625 14.367188 "/>
<path style=" stroke:none;fill-rule:nonzero;fill:rgb(83.529412%,83.921569%,85.882353%);fill-opacity:1;" d="M 28.621094 15.71875 C 28.324219 16.082031 28.324219 16.601562 28.621094 16.96875 C 29.878906 18.351562 31.535156 19.1875 33.339844 19.1875 C 35.144531 19.1875 36.792969 18.351562 38.054688 16.96875 C 38.355469 16.601562 38.355469 16.082031 38.058594 15.71875 C 36.808594 14.332031 35.152344 13.488281 33.339844 13.488281 C 31.527344 13.488281 29.871094 14.332031 28.621094 15.71875 Z M 28.621094 15.71875 "/>
<path style=" stroke:none;fill-rule:nonzero;fill:rgb(88.235294%,90.196078%,91.372549%);fill-opacity:1;" d="M 28.621094 15.238281 C 28.476562 15.363281 28.398438 15.539062 28.398438 15.726562 C 28.398438 15.914062 28.480469 16.09375 28.621094 16.21875 C 31.320312 18.535156 35.355469 18.535156 38.054688 16.214844 C 38.199219 16.09375 38.28125 15.914062 38.28125 15.726562 C 38.28125 15.539062 38.199219 15.359375 38.058594 15.234375 C 35.363281 12.90625 31.316406 12.90625 28.621094 15.238281 Z M 28.621094 15.238281 "/>
<path style=" stroke:none;fill-rule:nonzero;fill:rgb(89.803922%,38.823529%,32.54902%);fill-opacity:1;" d="M 35.0625 15.175781 C 35.0625 16.105469 34.292969 16.863281 33.339844 16.863281 C 32.390625 16.863281 31.617188 16.105469 31.617188 15.175781 C 31.617188 14.242188 32.390625 13.488281 33.339844 13.488281 C 34.292969 13.488281 35.0625 14.242188 35.0625 15.175781 Z M 35.0625 15.175781 "/>
<path style=" stroke:none;fill-rule:nonzero;fill:rgb(92.156863%,94.117647%,95.294118%);fill-opacity:1;" d="M 34.164062 14.367188 C 34.164062 14.8125 33.796875 15.175781 33.339844 15.175781 C 32.886719 15.175781 32.515625 14.8125 32.515625 14.367188 C 32.515625 13.921875 32.886719 13.558594 33.339844 13.558594 C 33.796875 13.558594 34.164062 13.921875 34.164062 14.367188 Z M 34.164062 14.367188 "/>
<path style=" stroke:none;fill-rule:nonzero;fill:rgb(24.313725%,65.098039%,60.784314%);fill-opacity:1;" d="M 26.585938 44.84375 C 26.066406 44.933594 25.542969 44.984375 25.015625 44.984375 C 16.433594 44.984375 4.96875 31.402344 4.96875 20.230469 C 4.96875 10.339844 12.007812 2.101562 21.308594 0.347656 C 21.117188 1.859375 20.324219 3.277344 18.683594 4.386719 C 17.203125 5.382812 15.460938 5.957031 14.019531 7.003906 C 11.511719 8.820312 10.238281 11.796875 9.078125 14.636719 C 8.59375 15.816406 8.109375 17.019531 7.980469 18.285156 C 7.824219 19.914062 8.277344 21.53125 8.726562 23.105469 C 9.105469 24.410156 9.472656 25.710938 9.84375 27.015625 C 10.140625 28.054688 10.457031 29.121094 11.15625 29.957031 C 11.625 30.511719 12.238281 30.925781 12.726562 31.46875 C 13.695312 32.546875 14.050781 34.007812 14.65625 35.320312 C 15.933594 38.074219 18.304688 40.199219 21.214844 41.207031 C 22.632812 41.683594 24.195312 41.917969 25.351562 42.851562 C 25.96875 43.371094 26.402344 44.066406 26.585938 44.84375 Z M 26.585938 44.84375 "/>
<path style=" stroke:none;fill-rule:nonzero;fill:rgb(24.313725%,65.098039%,60.784314%);fill-opacity:1;" d="M 22.613281 16.089844 C 22.492188 15.703125 22.117188 14.910156 22.117188 14.910156 C 22.113281 14.902344 22.117188 14.898438 22.113281 14.890625 C 21.625 14.199219 20.75 13.082031 20.066406 12.832031 C 19.0625 12.460938 17.972656 12.371094 16.898438 12.378906 C 15.589844 12.390625 14.253906 12.550781 13.082031 13.121094 C 12.621094 13.34375 11.246094 15.585938 11.277344 15.652344 C 11.875 15.34375 13.082031 14.722656 13.359375 14.546875 C 14.222656 13.992188 15.199219 13.628906 16.222656 13.488281 C 16.808594 13.386719 17.40625 13.414062 17.984375 13.5625 C 18.363281 13.691406 18.726562 13.851562 19.078125 14.042969 C 19.601562 14.300781 20.492188 14.667969 21.230469 14.960938 C 21.496094 15.429688 21.683594 15.921875 21.652344 16.449219 C 21.617188 17.0625 21.285156 17.613281 20.960938 18.140625 C 20.714844 18.542969 20.46875 18.945312 20.222656 19.34375 C 19.855469 19.945312 19.445312 20.582031 18.792969 20.867188 C 20.257812 20.199219 21.410156 18.988281 22.238281 17.628906 C 22.519531 17.160156 22.777344 16.609375 22.613281 16.089844 Z M 22.613281 16.089844 "/>
<path style=" stroke:none;fill-rule:nonzero;fill:rgb(24.313725%,65.098039%,60.784314%);fill-opacity:1;" d="M 27.414062 16.089844 C 27.535156 15.703125 27.910156 14.910156 27.910156 14.910156 C 27.914062 14.902344 27.914062 14.898438 27.917969 14.890625 C 28.40625 14.199219 29.28125 13.082031 29.964844 12.832031 C 30.96875 12.460938 32.058594 12.371094 33.132812 12.378906 C 34.4375 12.390625 35.773438 12.550781 36.945312 13.121094 C 37.410156 13.34375 38.785156 15.585938 38.753906 15.652344 C 38.15625 15.34375 36.945312 14.722656 36.671875 14.546875 C 35.808594 13.992188 34.832031 13.628906 33.808594 13.488281 C 33.222656 13.386719 32.621094 13.414062 32.046875 13.5625 C 31.667969 13.691406 31.300781 13.851562 30.953125 14.042969 C 30.429688 14.300781 29.539062 14.667969 28.796875 14.960938 C 28.535156 15.429688 28.34375 15.921875 28.375 16.449219 C 28.410156 17.0625 28.742188 17.613281 29.066406 18.140625 C 29.3125 18.542969 29.558594 18.945312 29.808594 19.34375 C 30.175781 19.945312 30.582031 20.582031 31.234375 20.867188 C 29.769531 20.199219 28.617188 18.988281 27.792969 17.628906 C 27.507812 17.160156 27.253906 16.609375 27.414062 16.089844 Z M 27.414062 16.089844 "/>
</g>
</svg>
