<?xml version="1.0" encoding="UTF-8"?>
<svg xmlns="http://www.w3.org/2000/svg" xmlns:xlink="http://www.w3.org/1999/xlink" width="50" height="50" viewBox="0 0 50 50" version="1.1">
<g id="surface1">
<path style=" stroke:none;fill-rule:nonzero;fill:rgb(100%,85.098039%,23.137255%);fill-opacity:1;" d="M 50 25 C 50 38.808594 38.808594 50 25 50 C 11.191406 50 0 38.808594 0 25 C 0 11.191406 11.191406 0 25 0 C 38.808594 0 50 11.191406 50 25 Z M 50 25 "/>
<path style=" stroke:none;fill-rule:nonzero;fill:rgb(95.686275%,77.254902%,20.392157%);fill-opacity:1;" d="M 50 25 C 50 38.8125 38.804688 50 25 50 C 17.140625 50 10.125 46.375 5.539062 40.695312 C 9.828125 44.164062 15.289062 46.234375 21.234375 46.234375 C 35.039062 46.234375 46.234375 35.046875 46.234375 21.234375 C 46.234375 15.289062 44.164062 9.828125 40.695312 5.539062 C 46.367188 10.125 50 17.140625 50 25 Z M 50 25 "/>
<path style=" stroke:none;fill-rule:nonzero;fill:rgb(24.313725%,26.27451%,27.843137%);fill-opacity:1;" d="M 42.121094 31.570312 C 40.277344 39.320312 33.324219 45.101562 24.996094 45.101562 C 16.667969 45.101562 9.714844 39.320312 7.871094 31.554688 C 7.730469 30.960938 8.277344 30.445312 8.855469 30.617188 C 19.699219 33.851562 30.464844 33.914062 41.136719 30.632812 C 41.730469 30.445312 42.261719 30.976562 42.121094 31.570312 Z M 42.121094 31.570312 "/>
<path style=" stroke:none;fill-rule:nonzero;fill:rgb(88.627451%,29.411765%,29.411765%);fill-opacity:1;" d="M 23.988281 38.546875 C 17.589844 38.546875 13.03125 36.664062 13.917969 41.113281 C 13.921875 41.136719 13.929688 41.160156 13.9375 41.183594 C 16.957031 43.632812 20.800781 45.101562 24.996094 45.101562 C 29.191406 45.101562 33.035156 43.628906 36.054688 41.183594 C 36.058594 41.160156 36.070312 41.136719 36.074219 41.113281 C 36.960938 36.664062 30.390625 38.546875 23.988281 38.546875 Z M 23.988281 38.546875 "/>
<path style=" stroke:none;fill-rule:nonzero;fill:rgb(100%,100%,100%);fill-opacity:1;" d="M 9.105469 30.683594 C 10.050781 34.074219 16.785156 36.6875 24.964844 36.6875 C 33.113281 36.6875 39.828125 34.09375 40.8125 30.71875 C 30.328125 33.875 19.753906 33.8125 9.105469 30.683594 Z M 9.105469 30.683594 "/>
<path style=" stroke:none;fill-rule:nonzero;fill:rgb(95.686275%,77.254902%,20.392157%);fill-opacity:1;" d="M 45.042969 20.957031 C 45.042969 26.265625 40.738281 30.570312 35.429688 30.570312 C 30.121094 30.570312 25.816406 26.265625 25.816406 20.957031 C 25.816406 15.648438 30.121094 11.34375 35.429688 11.34375 C 40.738281 11.34375 45.042969 15.648438 45.042969 20.957031 Z M 45.042969 20.957031 "/>
<path style=" stroke:none;fill-rule:nonzero;fill:rgb(100%,100%,100%);fill-opacity:1;" d="M 43.660156 20.960938 C 43.40625 25.535156 39.519531 29.238281 34.972656 29.238281 C 30.429688 29.238281 26.9375 25.53125 27.191406 20.960938 C 27.445312 16.386719 31.347656 12.667969 35.890625 12.667969 C 40.433594 12.667969 43.914062 16.390625 43.660156 20.960938 Z M 43.660156 20.960938 "/>
<path style=" stroke:none;fill-rule:nonzero;fill:rgb(24.313725%,26.27451%,27.843137%);fill-opacity:1;" d="M 39.324219 20.953125 C 39.335938 23.109375 37.578125 24.863281 35.425781 24.855469 C 33.269531 24.863281 31.515625 23.109375 31.523438 20.953125 C 31.515625 18.796875 33.269531 17.042969 35.425781 17.054688 C 37.578125 17.042969 39.335938 18.800781 39.324219 20.953125 Z M 39.324219 20.953125 "/>
<path style=" stroke:none;fill-rule:nonzero;fill:rgb(100%,100%,100%);fill-opacity:1;" d="M 36.035156 18.699219 C 35.742188 18.992188 35.875 19.597656 36.328125 20.050781 C 36.78125 20.507812 37.386719 20.636719 37.679688 20.347656 C 37.972656 20.054688 37.839844 19.449219 37.382812 18.996094 C 36.929688 18.539062 36.324219 18.410156 36.035156 18.699219 Z M 36.035156 18.699219 "/>
<path style=" stroke:none;fill-rule:nonzero;fill:rgb(95.686275%,77.254902%,20.392157%);fill-opacity:1;" d="M 24.1875 20.957031 C 24.1875 26.265625 19.882812 30.570312 14.570312 30.570312 C 9.261719 30.570312 4.957031 26.265625 4.957031 20.957031 C 4.957031 15.648438 9.261719 11.34375 14.570312 11.34375 C 19.882812 11.34375 24.1875 15.648438 24.1875 20.957031 Z M 24.1875 20.957031 "/>
<path style=" stroke:none;fill-rule:nonzero;fill:rgb(100%,100%,100%);fill-opacity:1;" d="M 6.34375 20.960938 C 6.59375 25.535156 10.484375 29.238281 15.027344 29.238281 C 19.570312 29.238281 23.0625 25.53125 22.8125 20.960938 C 22.558594 16.386719 18.65625 12.667969 14.109375 12.667969 C 9.566406 12.667969 6.089844 16.390625 6.34375 20.960938 Z M 6.34375 20.960938 "/>
<path style=" stroke:none;fill-rule:nonzero;fill:rgb(24.313725%,26.27451%,27.843137%);fill-opacity:1;" d="M 10.675781 20.953125 C 10.664062 23.109375 12.421875 24.863281 14.574219 24.855469 C 16.730469 24.863281 18.484375 23.109375 18.476562 20.953125 C 18.484375 18.796875 16.730469 17.042969 14.574219 17.054688 C 12.421875 17.042969 10.664062 18.800781 10.675781 20.953125 Z M 10.675781 20.953125 "/>
<path style=" stroke:none;fill-rule:nonzero;fill:rgb(100%,100%,100%);fill-opacity:1;" d="M 12.617188 19 C 12.160156 19.453125 12.027344 20.058594 12.320312 20.347656 C 12.613281 20.640625 13.21875 20.507812 13.671875 20.054688 C 14.125 19.601562 14.257812 18.996094 13.96875 18.703125 C 13.675781 18.410156 13.070312 18.542969 12.617188 19 Z M 12.617188 19 "/>
<path style=" stroke:none;fill-rule:nonzero;fill:rgb(24.313725%,26.27451%,27.843137%);fill-opacity:1;" d="M 15.152344 7.121094 C 15.152344 7.121094 10.070312 6.40625 4.738281 12.582031 C 4.738281 12.582031 8.1875 1.523438 15.152344 7.121094 Z M 15.152344 7.121094 "/>
<path style=" stroke:none;fill-rule:nonzero;fill:rgb(24.313725%,26.27451%,27.843137%);fill-opacity:1;" d="M 34.847656 7.121094 C 34.847656 7.121094 39.929688 6.40625 45.261719 12.582031 C 45.261719 12.582031 41.8125 1.523438 34.847656 7.121094 Z M 34.847656 7.121094 "/>
</g>
</svg>
