<?xml version="1.0" encoding="UTF-8"?>
<svg xmlns="http://www.w3.org/2000/svg" xmlns:xlink="http://www.w3.org/1999/xlink" width="50" height="50" viewBox="0 0 50 50" version="1.1">
<g id="surface1">
<path style=" stroke:none;fill-rule:nonzero;fill:rgb(100%,85.098039%,23.137255%);fill-opacity:1;" d="M 50 25 C 50 38.808594 38.808594 50 25 50 C 11.191406 50 0 38.808594 0 25 C 0 11.191406 11.191406 0 25 0 C 38.808594 0 50 11.191406 50 25 Z M 50 25 "/>
<path style=" stroke:none;fill-rule:nonzero;fill:rgb(24.313725%,26.27451%,27.843137%);fill-opacity:1;" d="M 25 41.070312 C 17.6875 41.070312 11.320312 36.117188 9.507812 29.03125 C 9.367188 28.472656 9.703125 27.90625 10.261719 27.761719 C 10.816406 27.617188 11.382812 27.957031 11.527344 28.515625 C 13.101562 34.679688 18.640625 38.984375 25 38.984375 C 31.355469 38.984375 36.898438 34.679688 38.46875 28.515625 C 38.609375 27.957031 39.179688 27.617188 39.738281 27.761719 C 40.296875 27.90625 40.632812 28.472656 40.488281 29.03125 C 38.679688 36.117188 32.3125 41.070312 25 41.070312 Z M 25 41.070312 "/>
<path style=" stroke:none;fill-rule:nonzero;fill:rgb(95.686275%,77.254902%,20.392157%);fill-opacity:1;" d="M 50 25 C 50 38.8125 38.804688 50 25 50 C 17.140625 50 10.125 46.375 5.539062 40.695312 C 9.828125 44.164062 15.289062 46.234375 21.234375 46.234375 C 35.039062 46.234375 46.234375 35.046875 46.234375 21.234375 C 46.234375 15.289062 44.164062 9.828125 40.695312 5.539062 C 46.367188 10.125 50 17.140625 50 25 Z M 50 25 "/>
<path style=" stroke:none;fill-rule:nonzero;fill:rgb(24.313725%,26.27451%,27.843137%);fill-opacity:1;" d="M 20.757812 21.515625 C 20.757812 19 19.042969 16.960938 16.925781 16.960938 C 14.8125 16.960938 13.09375 19 13.09375 21.515625 C 13.09375 24.027344 14.8125 26.066406 16.925781 26.066406 C 19.042969 26.066406 20.757812 24.027344 20.757812 21.515625 Z M 20.757812 21.515625 "/>
<path style=" stroke:none;fill-rule:nonzero;fill:rgb(35.294118%,37.254902%,38.823529%);fill-opacity:1;" d="M 18.65625 20.535156 C 18.355469 20.769531 17.867188 20.652344 17.550781 20.273438 C 17.238281 19.890625 17.222656 19.378906 17.519531 19.144531 C 17.816406 18.898438 18.308594 19.015625 18.621094 19.398438 C 18.9375 19.789062 18.941406 20.289062 18.65625 20.535156 Z M 18.65625 20.535156 "/>
<path style=" stroke:none;fill-rule:nonzero;fill:rgb(24.313725%,26.27451%,27.843137%);fill-opacity:1;" d="M 36.910156 21.515625 C 36.910156 19 35.195312 16.960938 33.078125 16.960938 C 30.960938 16.960938 29.246094 19 29.246094 21.515625 C 29.246094 24.027344 30.960938 26.066406 33.078125 26.066406 C 35.195312 26.066406 36.910156 24.027344 36.910156 21.515625 Z M 36.910156 21.515625 "/>
<path style=" stroke:none;fill-rule:nonzero;fill:rgb(35.294118%,37.254902%,38.823529%);fill-opacity:1;" d="M 34.804688 20.535156 C 34.503906 20.769531 34.015625 20.652344 33.699219 20.273438 C 33.386719 19.890625 33.371094 19.378906 33.667969 19.144531 C 33.964844 18.898438 34.457031 19.015625 34.769531 19.398438 C 35.085938 19.789062 35.089844 20.289062 34.804688 20.535156 Z M 34.804688 20.535156 "/>
</g>
</svg>
