<?xml version="1.0" encoding="UTF-8"?>
<svg xmlns="http://www.w3.org/2000/svg" xmlns:xlink="http://www.w3.org/1999/xlink" width="50" height="50" viewBox="0 0 50 50" version="1.1">
<g id="surface1">
<path style=" stroke:none;fill-rule:nonzero;fill:rgb(100%,79.215686%,15.686275%);fill-opacity:1;" d="M 50 25 C 50 38.808594 38.808594 50 25 50 C 11.191406 50 0 38.808594 0 25 C 0 11.191406 11.191406 0 25 0 C 38.808594 0 50 11.191406 50 25 Z M 50 25 "/>
<path style=" stroke:none;fill-rule:nonzero;fill:rgb(42.745098%,29.803922%,25.490196%);fill-opacity:1;" d="M 39.03125 20.34375 C 38.167969 20.34375 37.46875 19.644531 37.46875 18.78125 C 37.46875 17.058594 36.070312 15.65625 34.34375 15.65625 C 32.617188 15.65625 31.21875 17.058594 31.21875 18.78125 C 31.21875 19.644531 30.519531 20.34375 29.65625 20.34375 C 28.792969 20.34375 28.09375 19.644531 28.09375 18.78125 C 28.09375 15.335938 30.898438 12.53125 34.34375 12.53125 C 37.789062 12.53125 40.59375 15.335938 40.59375 18.78125 C 40.59375 19.648438 39.894531 20.34375 39.03125 20.34375 Z M 39.03125 20.34375 "/>
<path style=" stroke:none;fill-rule:nonzero;fill:rgb(42.745098%,29.803922%,25.490196%);fill-opacity:1;" d="M 20.28125 20.34375 C 19.417969 20.34375 18.71875 19.644531 18.71875 18.78125 C 18.71875 17.058594 17.316406 15.65625 15.59375 15.65625 C 13.871094 15.65625 12.46875 17.058594 12.46875 18.78125 C 12.46875 19.644531 11.769531 20.34375 10.90625 20.34375 C 10.042969 20.34375 9.34375 19.644531 9.34375 18.78125 C 9.34375 15.335938 12.148438 12.53125 15.59375 12.53125 C 19.039062 12.53125 21.84375 15.335938 21.84375 18.78125 C 21.84375 19.648438 21.144531 20.34375 20.28125 20.34375 Z M 20.28125 20.34375 "/>
<path style=" stroke:none;fill-rule:nonzero;fill:rgb(98.039216%,98.039216%,98.039216%);fill-opacity:1;" d="M 42.742188 28.777344 C 42.445312 28.386719 41.988281 28.15625 41.5 28.15625 L 8.4375 28.15625 C 7.945312 28.15625 7.488281 28.382812 7.195312 28.773438 C 6.894531 29.167969 6.800781 29.671875 6.929688 30.144531 C 9.191406 38.171875 16.609375 43.78125 24.964844 43.78125 C 33.320312 43.78125 40.742188 38.171875 43 30.144531 C 43.132812 29.671875 43.039062 29.167969 42.742188 28.777344 Z M 42.742188 28.777344 "/>
</g>
</svg>
