<?xml version="1.0" encoding="UTF-8"?>
<svg xmlns="http://www.w3.org/2000/svg" xmlns:xlink="http://www.w3.org/1999/xlink" width="50" height="50" viewBox="0 0 50 50" version="1.1">
<g id="surface1">
<path style=" stroke:none;fill-rule:nonzero;fill:rgb(100%,83.529412%,30.980392%);fill-opacity:1;" d="M 50 25 C 50 38.808594 38.808594 50 25 50 C 11.191406 50 0 38.808594 0 25 C 0 11.191406 11.191406 0 25 0 C 38.808594 0 50 11.191406 50 25 Z M 50 25 "/>
<path style=" stroke:none;fill-rule:nonzero;fill:rgb(89.803922%,22.352941%,20.784314%);fill-opacity:1;" d="M 44.90625 2.007812 C 43.699219 2.007812 42.5625 2.414062 41.667969 3.113281 C 40.769531 2.414062 39.632812 2.007812 38.425781 2.007812 C 35.617188 2.007812 33.332031 4.191406 33.332031 6.875 C 33.332031 11.054688 39.53125 15.59375 40.769531 16.460938 C 41.042969 16.648438 41.355469 16.742188 41.667969 16.742188 C 41.980469 16.742188 42.292969 16.648438 42.5625 16.460938 C 43.800781 15.589844 50 11.054688 50 6.875 C 50 4.191406 47.714844 2.007812 44.90625 2.007812 Z M 44.90625 2.007812 "/>
<path style=" stroke:none;fill-rule:nonzero;fill:rgb(89.803922%,22.352941%,20.784314%);fill-opacity:1;" d="M 11.574219 35.339844 C 10.367188 35.339844 9.230469 35.746094 8.332031 36.449219 C 7.4375 35.746094 6.300781 35.339844 5.09375 35.339844 C 2.285156 35.339844 0 37.523438 0 40.207031 C 0 44.390625 6.199219 48.925781 7.4375 49.792969 C 7.707031 49.980469 8.019531 50.074219 8.332031 50.074219 C 8.644531 50.074219 8.957031 49.980469 9.230469 49.792969 C 10.46875 48.925781 16.667969 44.390625 16.667969 40.207031 C 16.667969 37.523438 14.382812 35.339844 11.574219 35.339844 Z M 11.574219 35.339844 "/>
<path style=" stroke:none;fill-rule:nonzero;fill:rgb(42.745098%,29.803922%,25.490196%);fill-opacity:1;" d="M 19.269531 23.4375 C 18.410156 23.4375 17.707031 22.738281 17.707031 21.875 C 17.707031 20.726562 16.773438 19.792969 15.625 19.792969 C 14.476562 19.792969 13.542969 20.726562 13.542969 21.875 C 13.542969 22.738281 12.839844 23.4375 11.980469 23.4375 C 11.117188 23.4375 10.417969 22.738281 10.417969 21.875 C 10.417969 19.003906 12.753906 16.667969 15.625 16.667969 C 18.496094 16.667969 20.832031 19.003906 20.832031 21.875 C 20.832031 22.738281 20.132812 23.4375 19.269531 23.4375 Z M 19.269531 23.4375 "/>
<path style=" stroke:none;fill-rule:nonzero;fill:rgb(42.745098%,29.803922%,25.490196%);fill-opacity:1;" d="M 38.019531 23.4375 C 37.160156 23.4375 36.457031 22.738281 36.457031 21.875 C 36.457031 20.726562 35.523438 19.792969 34.375 19.792969 C 33.226562 19.792969 32.292969 20.726562 32.292969 21.875 C 32.292969 22.738281 31.589844 23.4375 30.730469 23.4375 C 29.867188 23.4375 29.167969 22.738281 29.167969 21.875 C 29.167969 19.003906 31.503906 16.667969 34.375 16.667969 C 37.246094 16.667969 39.582031 19.003906 39.582031 21.875 C 39.582031 22.738281 38.882812 23.4375 38.019531 23.4375 Z M 38.019531 23.4375 "/>
<path style=" stroke:none;fill-rule:nonzero;fill:rgb(42.745098%,29.803922%,25.490196%);fill-opacity:1;" d="M 25 37.5 C 20.449219 37.5 16.175781 35.730469 12.957031 32.511719 C 12.347656 31.898438 12.347656 30.910156 12.957031 30.300781 C 13.570312 29.691406 14.558594 29.691406 15.167969 30.300781 C 17.792969 32.929688 21.285156 34.375 25 34.375 C 28.714844 34.375 32.207031 32.929688 34.832031 30.300781 C 35.445312 29.691406 36.433594 29.691406 37.042969 30.300781 C 37.652344 30.914062 37.652344 31.902344 37.042969 32.511719 C 33.824219 35.730469 29.550781 37.5 25 37.5 Z M 25 37.5 "/>
</g>
</svg>
