<?xml version="1.0" encoding="UTF-8"?>
<svg xmlns="http://www.w3.org/2000/svg" xmlns:xlink="http://www.w3.org/1999/xlink" width="50" height="50" viewBox="0 0 50 50" version="1.1">
<g id="surface1">
<path style=" stroke:none;fill-rule:nonzero;fill:rgb(100%,85.098039%,23.137255%);fill-opacity:1;" d="M 50 25 C 50 38.808594 38.808594 50 25 50 C 11.191406 50 0 38.808594 0 25 C 0 11.191406 11.191406 0 25 0 C 38.808594 0 50 11.191406 50 25 Z M 50 25 "/>
<path style=" stroke:none;fill-rule:nonzero;fill:rgb(95.686275%,77.254902%,20.392157%);fill-opacity:1;" d="M 50 25 C 50 38.8125 38.804688 50 25 50 C 17.140625 50 10.125 46.375 5.539062 40.695312 C 9.828125 44.164062 15.289062 46.234375 21.234375 46.234375 C 35.039062 46.234375 46.234375 35.046875 46.234375 21.234375 C 46.234375 15.289062 44.164062 9.828125 40.695312 5.539062 C 46.367188 10.125 50 17.140625 50 25 Z M 50 25 "/>
<path style=" stroke:none;fill-rule:nonzero;fill:rgb(24.313725%,26.27451%,27.843137%);fill-opacity:1;" d="M 8.082031 19.710938 L 7.167969 21.605469 L 9.125 20.820312 C 9.371094 20.722656 15.292969 18.472656 21.757812 23.757812 L 23.828125 25.441406 C 21.367188 17.269531 11.796875 12.019531 8.082031 19.710938 Z M 8.082031 19.710938 "/>
<path style=" stroke:none;fill-rule:nonzero;fill:rgb(95.686275%,77.254902%,20.392157%);fill-opacity:1;" d="M 42.832031 21.570312 C 42.832031 26.132812 39.113281 29.851562 34.550781 29.851562 C 29.972656 29.851562 26.273438 26.132812 26.273438 21.570312 C 26.273438 17.007812 29.972656 13.292969 34.550781 13.292969 C 39.113281 13.292969 42.832031 17.007812 42.832031 21.570312 Z M 42.832031 21.570312 "/>
<path style=" stroke:none;fill-rule:nonzero;fill:rgb(100%,100%,100%);fill-opacity:1;" d="M 41.324219 21.570312 C 41.164062 25.429688 37.992188 28.570312 34.261719 28.570312 C 30.515625 28.570312 27.617188 25.429688 27.777344 21.570312 C 27.9375 17.714844 31.09375 14.574219 34.839844 14.574219 C 38.574219 14.574219 41.484375 17.714844 41.324219 21.570312 Z M 41.324219 21.570312 "/>
<path style=" stroke:none;fill-rule:nonzero;fill:rgb(24.313725%,26.27451%,27.843137%);fill-opacity:1;" d="M 36.175781 22.144531 C 36.175781 24.164062 34.535156 25.804688 32.515625 25.804688 C 30.496094 25.804688 28.871094 24.164062 28.871094 22.144531 C 28.871094 20.140625 30.496094 18.5 32.515625 18.5 C 34.535156 18.5 36.175781 20.140625 36.175781 22.144531 Z M 36.175781 22.144531 "/>
<path style=" stroke:none;fill-rule:nonzero;fill:rgb(100%,100%,100%);fill-opacity:1;" d="M 34.550781 21.554688 C 34.269531 21.820312 33.734375 21.738281 33.34375 21.34375 C 32.9375 20.9375 32.851562 20.40625 33.117188 20.125 C 33.382812 19.855469 33.933594 19.953125 34.324219 20.347656 C 34.71875 20.742188 34.816406 21.273438 34.550781 21.554688 Z M 34.550781 21.554688 "/>
<path style=" stroke:none;fill-rule:nonzero;fill:rgb(24.313725%,26.27451%,27.843137%);fill-opacity:1;" d="M 40.988281 33.398438 C 38.832031 40.164062 32.488281 45.070312 25.003906 45.070312 C 17.503906 45.070312 11.175781 40.164062 9.003906 33.398438 C 8.722656 32.492188 9.535156 31.632812 10.457031 31.820312 C 20.160156 33.773438 29.847656 33.773438 39.535156 31.820312 C 40.472656 31.632812 41.285156 32.492188 40.988281 33.398438 Z M 40.988281 33.398438 "/>
<path style=" stroke:none;fill-rule:nonzero;fill:rgb(100%,100%,100%);fill-opacity:1;" d="M 37.292969 32.21875 C 29.101562 33.613281 20.910156 33.613281 12.707031 32.21875 C 14.253906 36.394531 19.167969 37.53125 25 37.53125 C 30.832031 37.53125 35.746094 36.398438 37.292969 32.21875 Z M 37.292969 32.21875 "/>
<path style=" stroke:none;fill-rule:nonzero;fill:rgb(88.627451%,29.411765%,29.411765%);fill-opacity:1;" d="M 25.003906 45.070312 C 28.210938 45.070312 31.207031 44.164062 33.753906 42.601562 C 32.644531 40.203125 28.9375 38.433594 24.519531 38.433594 C 20.394531 38.433594 16.890625 39.976562 15.539062 42.136719 C 18.234375 43.984375 21.488281 45.070312 25.003906 45.070312 Z M 25.003906 45.070312 "/>
</g>
</svg>
