<?xml version="1.0" encoding="UTF-8"?>
<svg xmlns="http://www.w3.org/2000/svg" xmlns:xlink="http://www.w3.org/1999/xlink" width="50" height="50" viewBox="0 0 50 50" version="1.1">
<g id="surface1">
<path style=" stroke:none;fill-rule:nonzero;fill:rgb(88.627451%,29.411765%,29.411765%);fill-opacity:1;" d="M 50 25 C 50 38.8125 38.796875 50 25 50 C 11.1875 50 0 38.8125 0 25 C 0 11.203125 11.1875 0 25 0 C 38.796875 0 50 11.203125 50 25 Z M 50 25 "/>
<path style=" stroke:none;fill-rule:nonzero;fill:rgb(81.568627%,24.705882%,24.705882%);fill-opacity:1;" d="M 50 25 C 50 38.8125 38.796875 50 25 50 C 17.125 50 10.09375 46.359375 5.53125 40.671875 C 9.8125 44.109375 15.234375 46.15625 21.15625 46.15625 C 34.953125 46.15625 46.15625 34.96875 46.15625 21.15625 C 46.15625 15.234375 44.109375 9.8125 40.65625 5.53125 C 46.359375 10.109375 50 17.125 50 25 Z M 50 25 "/>
<path style=" stroke:none;fill-rule:nonzero;fill:rgb(24.313725%,26.27451%,27.843137%);fill-opacity:1;" d="M 19.871094 20.074219 C 19.554688 20.074219 19.257812 19.921875 19.074219 19.660156 C 17.34375 17.21875 14.984375 15.664062 11.640625 14.765625 C 11.121094 14.625 10.8125 14.089844 10.953125 13.570312 C 11.09375 13.046875 11.625 12.742188 12.148438 12.882812 C 15.378906 13.75 17.894531 15.238281 19.792969 17.421875 L 21.164062 15.300781 C 21.453125 14.847656 22.0625 14.71875 22.511719 15.011719 C 22.964844 15.304688 23.09375 15.90625 22.804688 16.359375 L 20.691406 19.625 C 20.515625 19.898438 20.214844 20.066406 19.890625 20.074219 C 19.882812 20.074219 19.875 20.074219 19.871094 20.074219 Z M 19.871094 20.074219 "/>
<path style=" stroke:none;fill-rule:nonzero;fill:rgb(24.313725%,26.27451%,27.843137%);fill-opacity:1;" d="M 19.789062 24.46875 C 19.789062 21.988281 18.019531 19.980469 15.839844 19.980469 C 13.660156 19.980469 11.894531 21.988281 11.894531 24.46875 C 11.894531 26.945312 13.660156 28.953125 15.839844 28.953125 C 18.019531 28.953125 19.789062 26.945312 19.789062 24.46875 Z M 19.789062 24.46875 "/>
<path style=" stroke:none;fill-rule:nonzero;fill:rgb(24.313725%,26.27451%,27.843137%);fill-opacity:1;" d="M 30.128906 20.074219 C 30.121094 20.074219 30.117188 20.074219 30.109375 20.074219 C 29.785156 20.066406 29.484375 19.898438 29.308594 19.625 L 27.195312 16.359375 C 26.90625 15.90625 27.035156 15.304688 27.488281 15.011719 C 27.9375 14.71875 28.546875 14.847656 28.835938 15.300781 L 30.203125 17.417969 C 32.105469 15.238281 34.621094 13.75 37.851562 12.882812 C 38.375 12.738281 38.90625 13.046875 39.046875 13.570312 C 39.1875 14.089844 38.878906 14.625 38.359375 14.765625 C 35.015625 15.664062 32.65625 17.21875 30.925781 19.664062 C 30.742188 19.921875 30.445312 20.074219 30.128906 20.074219 Z M 30.128906 20.074219 "/>
<path style=" stroke:none;fill-rule:nonzero;fill:rgb(24.313725%,26.27451%,27.843137%);fill-opacity:1;" d="M 38.105469 24.46875 C 38.105469 21.988281 36.339844 19.980469 34.160156 19.980469 C 31.980469 19.980469 30.210938 21.988281 30.210938 24.46875 C 30.210938 26.945312 31.980469 28.953125 34.160156 28.953125 C 36.339844 28.953125 38.105469 26.945312 38.105469 24.46875 Z M 38.105469 24.46875 "/>
<path style=" stroke:none;fill-rule:nonzero;fill:rgb(24.313725%,26.27451%,27.843137%);fill-opacity:1;" d="M 32.1875 39.203125 C 30.347656 37.273438 27.710938 36.171875 24.957031 36.171875 C 22.203125 36.171875 19.570312 37.277344 17.726562 39.203125 C 17.128906 39.828125 16.136719 39.84375 15.515625 39.25 C 14.894531 38.652344 14.871094 37.664062 15.46875 37.039062 C 17.898438 34.5 21.355469 33.046875 24.957031 33.046875 C 28.5625 33.046875 32.019531 34.503906 34.445312 37.039062 C 35.042969 37.664062 35.023438 38.652344 34.398438 39.25 C 33.777344 39.84375 32.789062 39.828125 32.1875 39.203125 Z M 32.1875 39.203125 "/>
<path style=" stroke:none;fill-rule:nonzero;fill:rgb(35.294118%,37.254902%,38.823529%);fill-opacity:1;" d="M 36.355469 23.851562 C 36.015625 23.984375 35.585938 23.703125 35.382812 23.214844 C 35.195312 22.726562 35.300781 22.222656 35.640625 22.085938 C 35.988281 21.949219 36.421875 22.234375 36.609375 22.722656 C 36.8125 23.207031 36.691406 23.714844 36.355469 23.851562 Z M 36.355469 23.851562 "/>
<path style=" stroke:none;fill-rule:nonzero;fill:rgb(35.294118%,37.254902%,38.823529%);fill-opacity:1;" d="M 17.875 23.851562 C 17.535156 23.984375 17.105469 23.703125 16.902344 23.214844 C 16.714844 22.726562 16.820312 22.222656 17.160156 22.085938 C 17.507812 21.949219 17.941406 22.234375 18.128906 22.722656 C 18.332031 23.207031 18.210938 23.714844 17.875 23.851562 Z M 17.875 23.851562 "/>
</g>
</svg>
