<?xml version="1.0" encoding="UTF-8"?>
<svg xmlns="http://www.w3.org/2000/svg" xmlns:xlink="http://www.w3.org/1999/xlink" width="50" height="50" viewBox="0 0 50 50" version="1.1">
<g id="surface1">
<path style=" stroke:none;fill-rule:nonzero;fill:rgb(100%,85.098039%,23.137255%);fill-opacity:1;" d="M 50 25 C 50 38.808594 38.808594 50 25 50 C 11.191406 50 0 38.808594 0 25 C 0 11.191406 11.191406 0 25 0 C 38.808594 0 50 11.191406 50 25 Z M 50 25 "/>
<path style=" stroke:none;fill-rule:nonzero;fill:rgb(95.686275%,77.254902%,20.392157%);fill-opacity:1;" d="M 50 25 C 50 38.8125 38.804688 50 25 50 C 17.140625 50 10.125 46.375 5.539062 40.695312 C 9.828125 44.164062 15.289062 46.234375 21.234375 46.234375 C 35.039062 46.234375 46.234375 35.046875 46.234375 21.234375 C 46.234375 15.289062 44.164062 9.828125 40.695312 5.539062 C 46.367188 10.125 50 17.140625 50 25 Z M 50 25 "/>
<path style=" stroke:none;fill-rule:nonzero;fill:rgb(100%,100%,100%);fill-opacity:1;" d="M 31.902344 38.179688 C 31.902344 38.179688 32.847656 33.066406 30.550781 32.96875 C 29.339844 32.917969 28.492188 35.820312 27.757812 39.832031 C 26.921875 44.421875 29.226562 47.015625 31.238281 48.484375 C 34.1875 50.640625 37.292969 50.25 40.253906 48.839844 C 43.925781 47.085938 46.96875 40.324219 47.015625 38.664062 C 47.085938 36.09375 45.003906 36.042969 42.1875 42.089844 C 42.1875 42.089844 41.820312 43.230469 42.1875 42.089844 C 42.558594 40.949219 45.425781 35.820312 46.015625 34.617188 C 46.632812 33.359375 44.894531 31.699219 43.691406 33.285156 C 42.488281 34.867188 38.984375 39.832031 38.722656 41.046875 C 38.722656 41.046875 38.488281 41.992188 38.722656 41.046875 C 38.957031 40.109375 43.804688 32.351562 44.03125 31.035156 C 44.296875 29.460938 42.085938 29.0625 41.339844 30.183594 C 40.796875 31 35.660156 39.519531 35.660156 39.519531 C 35.660156 39.519531 39.882812 32.488281 39.671875 31.117188 C 39.496094 29.984375 38.046875 29.773438 37.355469 30.492188 C 36.585938 31.285156 31.902344 38.179688 31.902344 38.179688 Z M 31.902344 38.179688 "/>
<path style=" stroke:none;fill-rule:nonzero;fill:rgb(87.058824%,89.411765%,91.372549%);fill-opacity:1;" d="M 28.398438 45.265625 C 29.121094 46.703125 30.21875 47.738281 31.238281 48.484375 C 34.183594 50.640625 37.292969 50.25 40.253906 48.839844 C 43.925781 47.085938 46.96875 40.324219 47.011719 38.660156 C 47.011719 38.660156 40.648438 54.414062 28.398438 45.265625 Z M 28.398438 45.265625 "/>
<path style=" stroke:none;fill-rule:nonzero;fill:rgb(100%,100%,100%);fill-opacity:1;" d="M 18.097656 38.179688 C 18.097656 38.179688 17.152344 33.066406 19.449219 32.96875 C 20.660156 32.917969 21.507812 35.820312 22.242188 39.832031 C 23.078125 44.421875 20.773438 47.015625 18.761719 48.484375 C 15.8125 50.640625 12.707031 50.25 9.746094 48.839844 C 6.074219 47.085938 3.03125 40.324219 2.984375 38.664062 C 2.914062 36.09375 4.996094 36.042969 7.8125 42.089844 C 7.8125 42.089844 8.179688 43.230469 7.8125 42.089844 C 7.441406 40.949219 4.574219 35.820312 3.984375 34.617188 C 3.363281 33.359375 5.101562 31.699219 6.308594 33.285156 C 7.511719 34.867188 11.015625 39.832031 11.277344 41.046875 C 11.277344 41.046875 11.511719 41.992188 11.277344 41.046875 C 11.042969 40.109375 6.195312 32.351562 5.96875 31.035156 C 5.703125 29.460938 7.914062 29.0625 8.660156 30.183594 C 9.203125 31 14.339844 39.519531 14.339844 39.519531 C 14.339844 39.519531 10.117188 32.488281 10.328125 31.117188 C 10.503906 29.984375 11.953125 29.773438 12.644531 30.492188 C 13.414062 31.285156 18.097656 38.179688 18.097656 38.179688 Z M 18.097656 38.179688 "/>
<path style=" stroke:none;fill-rule:nonzero;fill:rgb(87.058824%,89.411765%,91.372549%);fill-opacity:1;" d="M 21.601562 45.265625 C 20.875 46.703125 19.78125 47.738281 18.761719 48.484375 C 15.8125 50.640625 12.707031 50.25 9.746094 48.839844 C 6.074219 47.085938 3.03125 40.324219 2.984375 38.660156 C 2.988281 38.660156 9.351562 54.414062 21.601562 45.265625 Z M 21.601562 45.265625 "/>
<path style=" stroke:none;fill-rule:nonzero;fill:rgb(24.313725%,26.27451%,27.843137%);fill-opacity:1;" d="M 34.316406 22.039062 C 35.4375 22.289062 33.375 30.484375 25 30.492188 C 16.625 30.484375 14.558594 22.289062 15.683594 22.039062 C 16.503906 21.597656 19.664062 25.539062 25 25.539062 C 30.4375 25.539062 33.496094 21.597656 34.316406 22.039062 Z M 34.316406 22.039062 "/>
<path style=" stroke:none;fill-rule:nonzero;fill:rgb(24.313725%,26.27451%,27.843137%);fill-opacity:1;" d="M 20.925781 18.191406 C 20.328125 18.191406 19.816406 17.734375 19.757812 17.125 C 19.578125 15.175781 18.09375 13.703125 16.300781 13.703125 C 14.507812 13.703125 13.019531 15.175781 12.839844 17.125 C 12.78125 17.769531 12.207031 18.25 11.566406 18.1875 C 10.921875 18.125 10.449219 17.554688 10.507812 16.914062 C 10.800781 13.746094 13.289062 11.359375 16.300781 11.359375 C 19.3125 11.359375 21.804688 13.746094 22.09375 16.914062 C 22.152344 17.554688 21.679688 18.128906 21.035156 18.1875 C 20.996094 18.1875 20.960938 18.191406 20.925781 18.191406 Z M 20.925781 18.191406 "/>
<path style=" stroke:none;fill-rule:nonzero;fill:rgb(24.313725%,26.27451%,27.843137%);fill-opacity:1;" d="M 38.324219 18.191406 C 37.726562 18.191406 37.214844 17.734375 37.160156 17.125 C 36.980469 15.175781 35.492188 13.703125 33.699219 13.703125 C 31.90625 13.703125 30.421875 15.175781 30.242188 17.125 C 30.183594 17.769531 29.613281 18.25 28.96875 18.1875 C 28.320312 18.125 27.847656 17.554688 27.90625 16.914062 C 28.199219 13.746094 30.6875 11.359375 33.699219 11.359375 C 36.710938 11.359375 39.203125 13.746094 39.492188 16.914062 C 39.550781 17.554688 39.078125 18.128906 38.433594 18.1875 C 38.398438 18.1875 38.359375 18.191406 38.324219 18.191406 Z M 38.324219 18.191406 "/>
</g>
</svg>
