<?xml version="1.0" encoding="UTF-8"?>
<svg xmlns="http://www.w3.org/2000/svg" xmlns:xlink="http://www.w3.org/1999/xlink" width="50" height="50" viewBox="0 0 50 50" version="1.1">
<g id="surface1">
<path style=" stroke:none;fill-rule:nonzero;fill:rgb(100%,85.098039%,23.137255%);fill-opacity:1;" d="M 49.085938 24.085938 C 49.085938 37.386719 38.300781 48.167969 25 48.167969 C 11.699219 48.167969 0.914062 37.386719 0.914062 24.085938 C 0.914062 10.78125 11.699219 0 25 0 C 38.300781 0 49.085938 10.78125 49.085938 24.085938 Z M 49.085938 24.085938 "/>
<path style=" stroke:none;fill-rule:nonzero;fill:rgb(95.686275%,77.254902%,20.392157%);fill-opacity:1;" d="M 49.085938 24.085938 C 49.085938 37.390625 38.300781 48.167969 25 48.167969 C 17.429688 48.167969 10.671875 44.675781 6.253906 39.203125 C 10.382812 42.546875 15.644531 44.539062 21.375 44.539062 C 34.671875 44.539062 45.457031 33.761719 45.457031 20.457031 C 45.457031 14.730469 43.464844 9.46875 40.121094 5.335938 C 45.585938 9.753906 49.085938 16.511719 49.085938 24.085938 Z M 49.085938 24.085938 "/>
<path style=" stroke:none;fill-rule:nonzero;fill:rgb(100%,85.098039%,23.137255%);fill-opacity:1;" d="M 35.3125 46.136719 C 34.761719 48.714844 32.152344 50.652344 29.304688 49.792969 C 26.460938 48.964844 23.539062 48.980469 20.652344 49.792969 C 17.953125 50.574219 15.273438 48.847656 14.691406 46.121094 C 12.65625 36.328125 17.179688 25.078125 24.984375 25.078125 C 32.96875 25.078125 37.3125 36.488281 35.3125 46.136719 Z M 35.3125 46.136719 "/>
<path style=" stroke:none;fill-rule:nonzero;fill:rgb(24.313725%,26.27451%,27.843137%);fill-opacity:1;" d="M 33.234375 45.707031 C 32.917969 47.210938 31.398438 48.203125 29.921875 47.765625 C 26.632812 46.816406 23.355469 46.816406 20.078125 47.765625 C 18.601562 48.203125 17.082031 47.210938 16.765625 45.691406 C 14.953125 36.949219 18.902344 27.203125 24.992188 27.203125 C 31.136719 27.203125 35.03125 36.988281 33.234375 45.707031 Z M 33.234375 45.707031 "/>
<path style=" stroke:none;fill-rule:nonzero;fill:rgb(88.627451%,29.411765%,29.411765%);fill-opacity:1;" d="M 30.984375 46.203125 C 31.695312 44.328125 31.570312 42.136719 30.234375 40.269531 C 29.335938 38.988281 27.6875 38.511719 26.234375 39.070312 C 25.253906 39.449219 24.164062 39.566406 23.121094 39.484375 C 19.089844 39.15625 17.765625 42.984375 18.949219 46.203125 C 22.914062 45 26.929688 45.058594 30.984375 46.203125 Z M 30.984375 46.203125 "/>
<path style=" stroke:none;fill-rule:nonzero;fill:rgb(100%,100%,100%);fill-opacity:1;" d="M 25 43.695312 C 21.410156 43.695312 18.320312 44.683594 16.898438 46.105469 C 17.382812 47.382812 18.742188 48.160156 20.078125 47.765625 C 23.355469 46.816406 26.632812 46.816406 29.921875 47.765625 C 31.261719 48.160156 32.625 47.378906 33.105469 46.109375 C 31.683594 44.683594 28.59375 43.695312 25 43.695312 Z M 25 43.695312 "/>
<path style=" stroke:none;fill-rule:nonzero;fill:rgb(100%,100%,100%);fill-opacity:1;" d="M 13.402344 23.273438 C 9.125 22.835938 6.507812 19.8125 7.59375 15.535156 C 8.691406 11.261719 13.054688 7.796875 17.359375 7.796875 C 21.652344 7.796875 23.355469 11.15625 23.65625 15.5625 C 24.019531 20.96875 18.351562 23.785156 13.402344 23.273438 Z M 13.402344 23.273438 "/>
<path style=" stroke:none;fill-rule:nonzero;fill:rgb(24.313725%,26.27451%,27.843137%);fill-opacity:1;" d="M 20.664062 15.558594 C 20.664062 17.695312 18.9375 19.445312 16.804688 19.445312 C 14.65625 19.433594 12.929688 17.695312 12.929688 15.558594 C 12.929688 13.425781 14.65625 11.6875 16.804688 11.6875 C 18.9375 11.6875 20.664062 13.425781 20.664062 15.558594 Z M 20.664062 15.558594 "/>
<path style=" stroke:none;fill-rule:nonzero;fill:rgb(100%,100%,100%);fill-opacity:1;" d="M 17.375 13.347656 C 17.105469 13.617188 17.246094 14.203125 17.695312 14.652344 C 18.140625 15.097656 18.726562 15.242188 19 14.96875 C 19.273438 14.695312 19.128906 14.109375 18.683594 13.664062 C 18.234375 13.214844 17.648438 13.074219 17.375 13.347656 Z M 17.375 13.347656 "/>
<path style=" stroke:none;fill-rule:nonzero;fill:rgb(100%,100%,100%);fill-opacity:1;" d="M 35.757812 23.414062 C 40.089844 22.96875 43.109375 19.886719 42.597656 15.535156 C 42.066406 11.183594 38.164062 7.65625 33.859375 7.65625 C 29.570312 7.65625 27.417969 11.074219 26.527344 15.566406 C 25.445312 21.066406 30.734375 23.933594 35.757812 23.414062 Z M 35.757812 23.414062 "/>
<path style=" stroke:none;fill-rule:nonzero;fill:rgb(24.313725%,26.27451%,27.843137%);fill-opacity:1;" d="M 37.253906 15.558594 C 37.253906 17.695312 35.527344 19.445312 33.390625 19.445312 C 31.246094 19.433594 29.519531 17.695312 29.519531 15.558594 C 29.519531 13.425781 31.246094 11.6875 33.390625 11.6875 C 35.527344 11.6875 37.253906 13.425781 37.253906 15.558594 Z M 37.253906 15.558594 "/>
<path style=" stroke:none;fill-rule:nonzero;fill:rgb(100%,100%,100%);fill-opacity:1;" d="M 33.960938 13.347656 C 33.691406 13.621094 33.832031 14.203125 34.28125 14.652344 C 34.726562 15.101562 35.3125 15.242188 35.585938 14.96875 C 35.855469 14.695312 35.714844 14.113281 35.265625 13.664062 C 34.820312 13.21875 34.234375 13.074219 33.960938 13.347656 Z M 33.960938 13.347656 "/>
</g>
</svg>
