<?xml version="1.0" encoding="UTF-8"?>
<svg xmlns="http://www.w3.org/2000/svg" xmlns:xlink="http://www.w3.org/1999/xlink" width="50" height="50" viewBox="0 0 50 50" version="1.1">
<g id="surface1">
<path style=" stroke:none;fill-rule:nonzero;fill:rgb(100%,85.098039%,23.137255%);fill-opacity:1;" d="M 50 25 C 50 38.808594 38.808594 50 25 50 C 11.191406 50 0 38.808594 0 25 C 0 11.191406 11.191406 0 25 0 C 38.808594 0 50 11.191406 50 25 Z M 50 25 "/>
<path style=" stroke:none;fill-rule:nonzero;fill:rgb(95.686275%,77.254902%,20.392157%);fill-opacity:1;" d="M 50 25 C 50 38.8125 38.804688 50 25 50 C 17.140625 50 10.125 46.375 5.539062 40.695312 C 9.828125 44.164062 15.289062 46.234375 21.234375 46.234375 C 35.039062 46.234375 46.234375 35.046875 46.234375 21.234375 C 46.234375 15.289062 44.164062 9.828125 40.695312 5.539062 C 46.367188 10.125 50 17.140625 50 25 Z M 50 25 "/>
<path style=" stroke:none;fill-rule:nonzero;fill:rgb(18.823529%,20.784314%,21.960784%);fill-opacity:1;" d="M 48.683594 17.835938 C 48.683594 23.390625 44.671875 28.960938 37.710938 28.960938 C 33.234375 28.960938 29.058594 26.40625 27.351562 22.277344 C 26.753906 20.835938 25.972656 19.84375 24.996094 19.84375 C 24.015625 19.84375 23.238281 20.835938 22.640625 22.296875 C 20.96875 26.40625 16.808594 28.960938 12.347656 28.960938 L 12.296875 28.960938 C 0.164062 28.960938 -3 12.117188 8.335938 7.773438 C 13.425781 5.832031 19.507812 5.023438 24.996094 5.023438 C 30.5 5.023438 36.582031 5.835938 41.671875 7.789062 C 46.480469 9.632812 48.683594 13.742188 48.683594 17.835938 Z M 48.683594 17.835938 "/>
<path style=" stroke:none;fill-rule:nonzero;fill:rgb(24.313725%,26.27451%,27.843137%);fill-opacity:1;" d="M 37.710938 26.886719 C 33.9375 26.886719 30.621094 24.765625 29.265625 21.488281 C 27.996094 18.414062 26.242188 17.769531 24.996094 17.769531 C 23.746094 17.769531 21.992188 18.417969 20.726562 21.507812 C 19.414062 24.726562 16.050781 26.886719 12.347656 26.886719 C 6.835938 26.886719 4.171875 22.957031 3.546875 19.59375 C 2.929688 16.246094 4.007812 11.652344 9.078125 9.707031 C 13.503906 8.023438 19.15625 7.09375 24.996094 7.09375 C 30.859375 7.09375 36.515625 8.027344 40.929688 9.726562 C 44.488281 11.085938 46.613281 14.121094 46.613281 17.835938 C 46.613281 22.222656 43.492188 26.886719 37.710938 26.886719 Z M 37.710938 26.886719 "/>
<path style=" stroke:none;fill-rule:nonzero;fill:rgb(35.294118%,37.254902%,38.823529%);fill-opacity:1;" d="M 14.019531 8.257812 L 3.441406 18.832031 C 3.46875 19.089844 3.5 19.34375 3.546875 19.589844 C 3.644531 20.121094 3.796875 20.664062 4 21.203125 L 17.589844 7.613281 C 16.363281 7.789062 15.171875 8 14.019531 8.257812 Z M 14.019531 8.257812 "/>
<path style=" stroke:none;fill-rule:nonzero;fill:rgb(35.294118%,37.254902%,38.823529%);fill-opacity:1;" d="M 19.332031 7.398438 L 4.46875 22.261719 C 5.308594 23.875 6.667969 25.34375 8.636719 26.175781 L 27.648438 7.164062 C 26.769531 7.125 25.886719 7.09375 24.996094 7.09375 C 23.074219 7.09375 21.175781 7.203125 19.332031 7.398438 Z M 19.332031 7.398438 "/>
<path style=" stroke:none;fill-rule:nonzero;fill:rgb(35.294118%,37.254902%,38.823529%);fill-opacity:1;" d="M 40.929688 9.726562 C 40.859375 9.695312 40.78125 9.675781 40.707031 9.648438 L 29.136719 21.21875 C 29.179688 21.3125 29.222656 21.386719 29.265625 21.488281 C 29.503906 22.070312 29.824219 22.597656 30.179688 23.101562 L 42.664062 10.617188 C 42.128906 10.277344 41.5625 9.964844 40.929688 9.726562 Z M 40.929688 9.726562 "/>
<path style=" stroke:none;fill-rule:nonzero;fill:rgb(35.294118%,37.254902%,38.823529%);fill-opacity:1;" d="M 36.140625 26.75 L 46.496094 16.394531 C 46.171875 14.332031 45.140625 12.558594 43.554688 11.253906 L 30.859375 23.949219 C 32.210938 25.417969 34.058594 26.414062 36.140625 26.75 Z M 36.140625 26.75 "/>
<path style=" stroke:none;fill-rule:nonzero;fill:rgb(24.313725%,26.27451%,27.843137%);fill-opacity:1;" d="M 36.347656 38.34375 C 34.8125 40.859375 31.949219 43.210938 24.691406 44.710938 C 17.347656 46.429688 15.074219 43.222656 13.570312 37.84375 C 11.960938 32.402344 13.636719 28.851562 25.386719 31.496094 C 37.050781 33.808594 37.925781 35.8125 36.347656 38.34375 Z M 36.347656 38.34375 "/>
<path style=" stroke:none;fill-rule:nonzero;fill:rgb(100%,100%,100%);fill-opacity:1;" d="M 30.3125 38.472656 C 31.789062 38.78125 33.304688 38.914062 34.875 38.804688 C 31.878906 41.117188 27.601562 43.070312 24.734375 43.3125 C 17.4375 44.71875 15.84375 41.03125 15.1875 38.828125 C 18.125 39.15625 20.296875 38.640625 20.296875 38.640625 C 18.359375 38.234375 16.03125 37.25 14.65625 36.625 C 14.25 34.375 14.484375 31.015625 24.75 33.015625 C 29.921875 33.875 33.90625 35.335938 35.203125 36.132812 C 33.539062 37.699219 30.3125 38.472656 30.3125 38.472656 Z M 30.3125 38.472656 "/>
</g>
</svg>
